<svg width="31" height="29" viewBox="0 0 31 29" fill="none" xmlns="http://www.w3.org/2000/svg">
<path d="M16.5 12.0015C16.5 12.0015 19.7507 11.846 21.4253 11.8514C22.9908 11.8564 22.8721 12.0959 24.4324 11.9678C25.7025 11.8636 26.2366 11.6842 27.5 11.8514C28.3526 11.9642 29.5 12.0015 30 13.0015C30.5 14.0015 28.5912 14.5015 27 14.5015C25.5 14.5015 24 14.5015 23 14.5015C20.6502 14.5015 16 15.0015 16 15.0015C16 15.0015 16.9547 18.2326 17.1037 20.3665C17.241 22.3342 17.2841 23.4894 16.8357 25.4103C16.6419 26.2404 16.5 27.5015 15.5 28.5015C14.906 29.0954 13.5136 26.3944 13 24.5015C12.4809 22.5884 12.8571 21.9729 12.7354 20.3548C12.5992 18.5424 12.3277 15.7187 12.3277 15.7187C12.3277 15.7187 9.42811 14.7661 7.50522 14.7169C5.43432 14.664 4.24101 15.4019 2.21678 14.9615C0.551681 14.5993 0.000944902 14.5015 5.20549e-07 13.5015C-0.000943861 12.5015 1.28329 12.4454 2.21678 12.1749C4.1911 11.6027 5.39012 11.3541 7.47028 11.2689C9.53728 11.1843 12.7471 11.7349 12.7471 11.7349C12.7471 11.7349 13.2946 9.02758 13.2713 7.27347C13.2479 5.52247 13.4462 5.16278 14 3.50149C14.5 2.00151 14.5 -0.0630146 15.5 0.00147456C16.5 0.0659637 17.4531 2.00147 17.4531 2.67228C17.4531 4.43741 17.5553 5.42768 17.4997 7.19193C17.441 9.0569 16.5 12.0015 16.5 12.0015Z" fill="#EA5A24"/>
</svg>
