<svg width="39" height="57" viewBox="0 0 39 57" fill="none" xmlns="http://www.w3.org/2000/svg">
<path d="M38.5115 30.0001C38.504 28.5531 38.2684 26.619 37.5118 24.5001C36.7797 22.4496 35.1167 20.2761 34.8767 19.5707C34.5123 18.5001 34.6515 16.7175 34.0123 15.0001C33.3955 13.3428 32.7898 12.9873 31.9654 11.4228C31.1357 9.84811 31.8449 8.44233 30.768 7.02514C30.4758 6.64053 29.9234 6.12146 29.9234 6.12146C29.9234 6.12146 29.0059 3.75297 28.0126 2.50014C26.8525 1.03701 26.149 0.93871 24.511 0.500111C22.6637 0.00547503 21.4987 0.573529 19.5693 0.645335C17.6409 0.717106 15.8792 1.01154 14.0123 1.50014C11.3077 2.20798 10.5383 3.6046 8.51231 5.00014C6.97006 6.06245 6.20756 6.68141 5.01232 8.00014C3.80047 9.33718 2.52062 11.6524 2.52062 11.6524C2.52062 11.6524 1.4751 14.1328 1.09385 16.0001C0.712535 17.8677 0.650566 20.8139 0.650566 20.8139C0.650566 20.8139 0.417255 23.6752 0.650568 25.5001C0.892713 27.3941 1.91823 29.9781 1.91823 29.9781L1.82495 31.3779L3.22877 36.5832L4.21598 41.7071L6.23555 46.8296C6.23555 46.8296 6.81023 49.4942 7.51231 51.0001C8.36996 52.8398 9.19622 53.9288 10.8218 55.0001C12.4108 56.0474 14.2346 55.8542 16.0123 56.0001C17.9172 56.1565 18.9835 55.479 20.5123 55.0001C22.3549 54.423 22.7447 53.6501 24.2758 52.9951C26.1709 52.1843 27.5966 52.5723 29.3204 51.442C31.1709 50.2287 32.9157 47.0625 32.9157 47.0625L35.9609 42.4105C35.9609 42.4105 37.0799 40.493 37.5123 39.0001C37.9551 37.4717 38.0777 34.9259 38.0777 34.9259C38.0777 34.9259 38.518 31.2363 38.5115 30.0001ZM11.627 49.262C11.627 49.262 11.5216 46.1376 10.8218 44.3059C10.2013 42.6819 9.57588 42.43 8.51231 40.5001C7.80895 39.2238 7.50078 38.3542 6.51232 36.0001C5.81565 34.341 5.91603 31.0638 5.51232 29.0001C5.10707 26.9287 6.14681 24.775 6.4036 22.68C6.65145 20.6579 6.51062 19.4891 6.87498 17.4848C7.1619 15.9065 7.12075 14.9116 7.89181 13.5049C8.67958 12.0676 9.70574 11.6975 10.7777 10.4577C11.8736 9.1903 12.1016 8.10624 13.4306 7.0859C14.8764 5.97582 17.7602 5.34189 17.7602 5.34189C17.7602 5.34189 22.2007 3.17764 22.4169 4.98857C22.4453 5.2259 22.4093 5.60056 22.4093 5.60056C22.4093 5.60056 24.1537 7.69946 25.1217 9.15125C25.9637 10.414 26.1664 11.0261 27.0938 12.5001C28.0543 14.0268 29.1252 15.1407 29.9492 16.7452C30.7352 18.2759 30.3978 19.37 31.0937 21.0001C31.8203 22.7019 33.5811 25.0235 33.5811 25.0235C33.5811 25.0235 35.537 26.7793 36.0123 28.5001C36.401 29.9072 36.0123 30.5001 36.0123 32.5001C36.0123 34.0548 35.0753 35.8467 35.0123 37.5001C34.946 39.2418 33.6648 40.7874 32.9157 42.4105C32.1786 44.0079 28.3275 45.9476 28.3275 45.9476L24.2674 47.9636L20.3047 49.3614L16.2749 50.0821C16.2749 50.0821 11.7574 49.9627 11.6348 49.2314C11.5123 48.5001 11.627 49.262 11.627 49.262Z" fill="#EA5A24"/>
</svg>
