<svg width="21" height="56" viewBox="0 0 21 56" fill="none" xmlns="http://www.w3.org/2000/svg">
<path d="M14.2694 9.11481L13.3094 9.19481C13.3094 9.19481 11.1311 11.2397 10.0594 12.8048C8.96801 14.3986 8.58899 15.0398 7.42969 16.5848C6.29046 18.1031 5.33576 18.9611 4.28936 20.5448C3.95877 21.0451 3.53936 21.8848 3.53936 21.8848C3.53936 21.8848 1.62841 24.974 0.428442 23.0848C-0.791972 21.1635 0.919648 20.1721 1.53936 18.3948C2.23058 16.4124 3.87936 13.5548 3.87936 13.5548L7.07936 9.0748L11.3594 4.8648L15.2794 0.424805L15.9994 0.504805L19.1494 3.0448V7.3248L18.5294 11.6048L17.4297 18.5848C17.4297 18.5848 17.9297 20.0326 17.9297 20.5848C17.9297 21.0848 18.6498 23.5738 18.5294 25.7848C18.4201 27.7908 18.7909 28.7804 18.9297 30.5848C19.0821 32.5665 19.0429 33.4201 19.1494 35.4048C19.2572 37.4147 20.0866 38.4732 20.0194 40.4848C19.9512 42.5258 18.7794 45.5648 18.7794 45.5648C18.7794 45.5648 19.1888 48.3204 19.4594 50.0848C19.6445 51.2919 19.674 51.7121 19.1494 52.8148C18.5769 54.0181 16.8894 54.7048 16.8894 54.7048C16.8894 54.7048 14.9303 55.5729 14.8494 55.5748C14.4297 55.5848 13.4394 52.8148 13.4394 52.8148C13.4394 52.8148 13.6117 50.1854 13.9394 48.5348C14.2794 46.8216 14.4336 45.8314 14.4297 44.0848C14.4259 42.4021 14.359 41.8988 14.4297 40.0848C14.4944 38.4245 14.7504 37.8209 14.9297 36.0848C15.1345 34.1019 14.1034 32.8343 14.0094 30.7048C13.9244 28.7807 14.1763 27.703 14.3494 25.7848C14.5235 23.8554 14.8994 20.8548 14.8994 20.8548L14.3794 15.0948L14.2694 9.11481Z" fill="#EA5A24"/>
</svg>
