<svg width="38" height="57" viewBox="0 0 38 57" fill="none" xmlns="http://www.w3.org/2000/svg">
<path d="M6.90983 51.5411L12.0341 51.6405C12.0341 51.6405 14.4249 51.6312 15.9544 51.702C17.9434 51.7942 19.1903 52.1397 21.0341 52.1405C22.8934 52.1412 24.8827 52.5731 26.5341 52.6405C29.0141 52.7416 31.379 53.3434 31.379 53.3434L33.0285 55.5366C33.0285 55.5366 31.7033 55.9655 30.536 56.1405C29.3687 56.3154 27.4078 55.4561 25.536 55.1405C23.6278 54.8186 22.571 55.1679 20.6358 55.1633C18.6545 55.1585 17.5155 55.6211 15.536 55.5366C13.5689 55.4527 12.7468 54.9817 10.9394 54.7672C9.05557 54.5436 7.98157 54.6147 6.093 54.4351C4.40965 54.275 1.79336 53.9239 1.79336 53.9239C1.79336 53.9239 1.4219 50.8767 2.18933 49.1861C2.95719 47.4945 4.18283 47.0803 5.49755 45.7678C6.7961 44.4714 7.51144 43.729 8.87864 42.5053C10.2217 41.3032 10.9591 40.5993 12.4287 39.5557C14.1631 38.3241 15.4844 38.1545 17.1339 36.8114C18.844 35.419 20.3676 34.5836 22.0352 33.1405C23.6471 31.7456 24.9676 30.7571 26.5352 29.6405C28.2999 28.3835 31.2052 27.1405 31.2052 27.1405C31.2052 27.1405 33.5073 25.9226 34.2274 24.1405C35.1785 21.7869 32.6261 17.8407 32.6261 17.8407C32.6261 17.8407 30.91 14.9517 30.5844 12.8835C30.2645 10.852 29.151 9.31123 28.5352 7.34911C27.7703 4.9121 28.0269 4.70189 25.5352 4.14046C23.7022 3.72746 23.4954 3.5586 21.643 3.87305C19.86 4.1757 18.8096 4.09466 17.065 4.57115C15.31 5.0505 14.4793 5.76625 12.7433 6.31044C11.0082 6.85435 9.77776 6.43752 8.20442 7.34911C6.81585 8.15364 6.20484 8.93385 5.30955 10.2657C3.74326 12.5958 3.49323 17.2217 3.49323 17.2217L2.51927 18.1468L1.02642 17.7241C1.02642 17.7241 0.207361 14.7837 0.355054 12.8793C0.506481 10.9268 0.963042 9.84284 1.82755 8.0856C2.69007 6.33242 3.85092 6.2789 4.53516 5.6405C4.94442 5.25866 6.97897 4.21219 7.53409 4.14046C9.53805 3.8815 11.0483 2.2362 11.0483 2.2362L16.1123 1.40221L21.1197 0.950036L26.0499 0.831849C26.0499 0.831849 29.3323 0.675298 30.9738 1.40225C32.5739 2.11089 33.5797 4.0573 33.5797 4.0573L35.0341 6.64046C35.0341 6.64046 37.3993 11.152 37.738 13.4742C38.0755 15.7885 37.7034 16.8078 37.5341 19.1405C37.3724 21.3681 37.7213 23.0277 36.8375 25.0788C36.2186 26.5152 34.2274 28.1165 34.2274 28.1165L31.2052 30.3959L26.942 33.7836L22.4802 36.7634L18.0081 39.7192L13.5655 42.7701L9.98925 46.8032L6.90983 51.5411Z" fill="#EA5A24"/>
</svg>
