<svg width="38" height="57" viewBox="0 0 38 57" fill="none" xmlns="http://www.w3.org/2000/svg">
<path d="M24.9217 21.5741C26.355 22.8224 27.5836 23.121 29.249 24.3694C34.3135 26.5405 38.2661 33.1917 37.1934 39.9298C36.7842 42.5 36.1224 43.9154 34.6934 46.1076C29.6562 53.8348 20.3665 59.4098 10.6934 55.9298C5.62988 54.1081 0.684684 52.0154 0.268112 46.6504C0.180075 45.5165 -0.40122 44.4573 0.486526 43.7465C1.23977 43.1434 1.76059 44.6362 2.69336 44.9298C3.61699 45.2205 4.27728 44.6726 5.15514 45.2256C9.86453 48.1922 6.43311 50.9687 17.1934 50.9298C26.4765 50.8962 27.1058 49.4321 30.5049 46.1076C35.4875 42.3488 36.5523 38.6308 33.5354 33.8137C30.1363 28.9694 25.0445 26.052 17.7413 26.4591C17.2226 26.2555 16.1934 26.4298 15.994 25.8891C15.6667 25.0018 14.2194 25.075 13.8644 24.7357C14.2572 22.6764 14.4734 21.7684 14.8939 21.6177C15.2894 21.476 15.7299 21.7531 16.1397 21.6606C17.2152 21.4177 18.4533 20.8454 19.4575 20.4484C19.5509 20.4115 19.6503 20.3821 19.7482 20.3595C28.5771 18.3256 28.943 11.529 27.4321 5.34738C27.3058 4.83091 27.9114 4.24326 27.6757 3.76666C27.4152 3.23969 26.0525 2.72802 24.635 3.13322C21.5499 4.77512 18.6966 2.35778 15.6934 3.42977C14.3556 3.93183 13.6934 3.92977 13.3457 4.63942C13.0513 5.24029 11.9914 4.74329 11.7076 4.13735C11.3772 3.43184 12.8406 2.49545 12.8406 2.49545C12.8406 2.49545 20.7225 0.0883681 25.5087 1.4099C27.6954 2.01367 28.6934 -1.57022 30.7916 3.82526C32.9484 10.2029 32.7983 14.2737 29.3036 17.6525C27.6382 19.1723 26.5735 22.0626 24.9353 21.5876L24.9217 21.5741Z" fill="#EA5A24"/>
</svg>
