<svg width="40" height="58" viewBox="0 0 40 58" fill="none" xmlns="http://www.w3.org/2000/svg">
<path d="M30.0424 0.998614C30.0424 0.998614 30.4973 5.152 30.4368 7.81948C30.3773 10.4444 29.7059 11.8828 29.7535 14.508C29.8004 17.0923 30.5063 18.4847 30.6522 21.0653C30.7983 23.6511 30.1721 25.1259 30.4966 27.6954C30.8075 30.1572 30.5377 31.9632 32.1818 33.8216C34.0133 35.8918 38.4913 35.241 38.8685 36.1415C39.2458 37.042 39.3607 37.6583 39.194 38.6203C38.658 41.7134 31.2167 39.6109 31.2167 39.6109C31.2167 39.6109 30.9802 45.0919 30.7616 48.6001C30.5577 51.8716 30.1483 56.9711 30.1483 56.9711L27.4651 57.8169C27.4651 57.8169 28.7578 53.91 28.6245 51.3463C28.4952 48.8579 27.3692 47.6507 26.896 45.2043C26.4766 43.0363 26.2341 39.5889 26.2341 39.5889C26.2341 39.5889 22.8573 38.7642 20.6485 38.6587C18.2063 38.5421 16.8504 39.3005 14.4088 39.1716C11.9504 39.0419 10.6783 37.9909 8.21643 37.9907C5.62313 37.9905 2.95307 40.3989 1.70619 39.2998C0.762823 38.4683 0.277461 37.4081 0.724881 36.2329C1.70673 33.6539 3.75345 32.7741 5.45312 30.3989C7.196 27.9633 7.99472 26.7511 9.3879 24.2721C10.8465 21.6767 11.0078 19.8537 12.7065 17.4086C14.391 14.9838 15.8797 14.0674 17.9297 11.9426C19.9816 9.81586 21.3483 8.8171 23.2101 6.52205C24.9747 4.34674 27.2335 0.584221 27.2335 0.584221L30.042 1.01322L30.0424 0.998614ZM24.8943 9.53552C24.8943 9.53552 23.2968 12.6002 21.926 14.3191C20.354 16.2902 18.8491 16.8227 17.2569 18.7776C15.6889 20.7029 15.3676 22.1773 13.8773 24.1634C12.3828 26.1551 11.0187 26.8539 9.63814 28.9262C8.36727 30.8338 7.03644 34.1876 7.03644 34.1876C7.03644 34.1876 10.9655 34.7415 13.4958 34.7037C16.2458 34.6626 17.7416 33.7604 20.4895 33.8757C23.3816 33.997 27.7385 35.4221 27.7385 35.4221C27.7385 35.4221 27.5071 31.1876 27.4208 28.4719C27.3387 25.8919 27.6961 24.4136 27.2981 21.8632C26.8919 19.2609 25.8103 18.0004 25.3444 15.4081C24.9366 13.1386 24.8947 9.52092 24.8947 9.52092L24.8943 9.53552Z" fill="#EA5A24"/>
</svg>
