<svg width="35" height="62" viewBox="0 0 35 62" fill="none" xmlns="http://www.w3.org/2000/svg">
<path d="M9.25405 36.9458C8.19682 37.9983 7.67619 38.5381 6.30697 37.9458C4.8824 37.3295 5.48325 36.4888 5.31474 34.9458C5.11069 33.0774 6.30697 30.9265 6.30697 30.9265C6.30697 30.9265 5.64788 28.2008 5.49032 26.4187C5.33494 24.6612 5.49751 21.9009 5.49751 21.9009C5.49751 21.9009 5.79043 19.09 5.31474 17.394C4.79916 15.5557 4.36213 14.8519 4.25405 12.9458C4.14906 11.0939 4.60277 10.4189 4.70238 8.78941C4.781 7.50329 4.42854 6.93513 5.25405 5.94578C6.17728 4.83932 8.45209 5.09831 8.45209 5.09831L12.8702 5.29752C12.8702 5.29752 15.6988 5.73258 17.4431 5.34895C19.1571 4.97198 19.5635 4.41717 21.2539 3.9458C22.4885 3.60154 23.4371 3.39152 24.7539 2.9458C26.7091 2.28401 27.9118 2.54836 29.7743 1.75223C30.7078 1.35324 31.1949 0.993808 31.9165 0.279746C32.1229 0.0754863 33.0839 1.10201 33.7993 1.93012C34.2213 2.41872 34.048 3.16535 33.4637 3.44013L32.2648 4.00397L31.2962 4.89495L26.8029 6.48464L22.3057 7.5818L17.7798 8.69217C17.7798 8.69217 15.0656 9.3034 13.4491 10.0226C10.9815 11.1204 8.8599 13.057 7.75391 13.9458C6.27228 15.1364 8.25405 16.4458 8.25405 16.4458L8.25405 20.4458L7.75391 27.4458C7.75391 27.4458 12.3213 24.2115 15.671 23.1183C17.803 22.4226 19.0615 22.1007 21.3013 21.9874C23.0557 21.8986 24.1261 21.7161 25.7899 22.2794C27.4239 22.8326 29.4773 24.7117 29.4773 24.7117C29.4773 24.7117 31.7867 25.3357 32.7539 26.9458C33.6241 28.3944 33.5723 30.3083 33.5723 30.3083C33.5723 30.3083 34.2966 33.736 34.5176 35.9458C34.7368 38.1381 33.7827 39.2775 33.7539 41.4458C33.7221 43.8434 34.5176 47.538 34.5176 47.538C34.5176 47.538 34.3631 51.2378 33.283 53.2468C32.2286 55.2079 31.2053 56.1567 29.3273 57.3528C27.5561 58.481 24.2649 59.1659 24.2649 59.1659C24.2649 59.1659 20.8936 59.3425 18.7746 59.7383C16.8375 60.1001 15.8509 61.278 13.8962 61.0282C11.9287 60.7768 11.1194 59.6371 9.47675 58.5254C8.11587 57.6044 7.28621 57.1344 6.15513 55.9424C4.98011 54.7041 3.67747 52.3412 3.67747 52.3412L0.938577 49.2012L1.77419 46.182L6.02525 46.6008C6.02525 46.6008 8.15742 49.0386 9.73841 50.3682C11.2997 51.6812 12.3616 52.1726 14.0291 53.3479C15.851 54.632 16.465 56.341 18.6694 56.6715C20.8707 57.0015 24.0741 54.8611 24.0741 54.8611C24.0741 54.8611 26.2149 54.6158 27.2539 53.4458C28.2303 52.3463 28.8579 51.978 29.2539 50.4458C29.9416 47.7852 31.4121 46.1725 31.7539 43.4458C31.957 41.8258 31.1806 41.3988 31.3284 39.2867C31.4789 37.1356 30.2413 33.873 30.2413 33.873C30.2413 33.873 29.46 30.9142 28.1953 29.5303C26.8205 28.0259 25.6277 27.3834 23.6235 27.014C21.4735 26.6178 20.166 27.2083 18.0996 27.9221C16.0768 28.6208 13.2868 30.5427 13.2868 30.5427L10.4208 34.0363C10.4208 34.0363 10.3332 35.8714 9.25405 36.9458Z" fill="#EA5A24"/>
</svg>
