<svg width="40" height="56" viewBox="0 0 40 56" fill="none" xmlns="http://www.w3.org/2000/svg">
<path d="M5.64855 31.8207C5.64855 31.8207 7.52653 30.318 8.73658 29.3635C10.0773 28.306 10.7548 27.6088 12.1826 26.6718C13.6448 25.7122 14.4614 25.0924 16.121 24.5385C17.7965 23.9793 18.8455 24.1145 20.5964 23.8795C22.3979 23.6377 23.2355 23.4891 25.0106 23.8795C26.8067 24.2745 27.738 24.7132 29.2115 25.8118C30.544 26.8051 31.0702 27.6379 32.4226 28.604C33.9674 29.7076 35.3352 29.627 36.6631 30.983C38.0156 32.3643 38.3157 33.5428 38.9679 35.3613C39.6294 37.2056 39.9 38.3182 39.9749 40.2757C40.0604 42.5102 39.9626 43.8647 39.1246 45.9384C38.3338 47.8953 36.0477 50.3837 36.0477 50.3837C36.0477 50.3837 34.0341 53.3485 32.1317 54.4828C30.1719 55.6514 28.759 55.8223 26.4815 55.9794C24.9401 56.0858 22.532 55.7449 22.532 55.7449C22.532 55.7449 20.1111 55.6049 18.6384 55.1641C16.4863 54.52 15.4406 53.6806 13.5924 52.4053C11.762 51.1423 11.1036 49.9556 9.26244 48.7084C7.57842 47.5676 6.07083 47.7186 4.67515 46.24C3.30929 44.793 3.05806 43.5449 2.49339 41.6383C2.02537 40.0581 2.22098 39.0713 1.82208 37.4723C1.4204 35.8621 0.787275 35.0754 0.445893 33.4514C0.083192 31.726 -0.139591 30.6971 0.0990478 28.9503C0.267695 27.7158 0.997645 25.8886 0.997645 25.8886C0.997645 25.8886 2.30285 23.5927 2.91865 22.0532C3.72214 20.0447 3.95056 18.3977 4.84004 16.3002C5.62276 14.4545 6.81215 12.0849 6.81215 12.0849L9.51977 7.59498L12.7533 3.47359L17.128 0.692484L21.9166 0.0781843L26.8955 0L31.4604 2.04394L35.5554 4.93673C35.5554 4.93673 37.6929 6.80912 38.4577 8.62953C39.1599 10.301 39.457 12.6268 38.9379 12.9443C38.5387 13.1885 36.6451 11.2184 35.0959 10.0678C33.3935 8.8034 30.7737 6.71186 30.7737 6.71186C30.7737 6.71186 28.3085 4.63299 26.3808 4.16607C24.746 3.77009 22.0733 4.18841 22.0733 4.18841L17.7657 4.51231C17.7657 4.51231 16.0098 4.77668 15.0021 5.26064C13.2341 6.10978 12.4524 7.10802 11.4106 8.76773C10.3571 10.4462 10.0572 11.9051 9.16231 13.9031C8.40514 15.5936 7.58304 16.4076 7.19256 18.2179C6.80819 19.9998 7.19256 22.8854 7.19256 22.8854L6.46531 27.5988L5.65974 31.8319L5.64855 31.8207ZM21.6489 26.6718C19.7914 26.5391 18.665 27.3578 16.8482 27.7663C15.021 28.1772 12.6861 30.1454 12.6861 30.1454C12.6861 30.1454 10.7397 32.2894 9.74354 33.8423C8.77089 35.3586 7.67336 36.1522 7.65129 37.9525C7.63694 39.1232 8.1547 39.7092 8.47924 40.8342C9.03067 42.7456 8.94734 43.9792 9.90018 45.7262C10.8759 47.5151 11.5268 48.7248 13.3462 49.6466C15.2068 50.5892 16.5961 49.8611 18.672 50.071C20.4934 50.2552 21.4974 50.549 23.3264 50.6295C25.1869 50.7113 26.2558 50.7797 28.0927 50.4731C29.736 50.1988 30.7442 50.1086 32.1877 49.278C33.7215 48.3954 34.8718 47.7861 35.4212 46.106C35.9648 44.4433 35.1166 43.3858 34.7163 41.683C34.2144 39.5479 33.8076 38.3691 32.9373 36.3554C32.153 34.5406 31.7951 33.4343 30.5765 31.8766C29.3422 30.2987 28.588 29.2451 26.7389 28.47C24.8855 27.6932 23.6539 26.815 21.6489 26.6718Z" fill="#EA5A24"/>
</svg>
