<svg width="41" height="58" viewBox="0 0 41 58" fill="none" xmlns="http://www.w3.org/2000/svg">
<path d="M22.1118 30.8438C18.7103 32.2313 14.6364 32.1652 11.1558 31.1874C9.83738 32.892 9 30 10 29.5C10.741 29.1295 10.4882 27.7648 11.5 28C15.3442 28.8936 18.4335 28.135 22.4283 27.9368C23.3907 28.7692 24 28.5 24.9201 26.6814C28.0792 20.4374 28.1634 14.8295 32 8.5C32.5669 9.27962 36.9045 8.43301 37.2077 10.2037C33.7667 5.76379 30.1278 6.13378 26.3835 4.1517C20.3979 3.68921 13.9245 1.77319 7.13463 2.52638C5.59714 3.32498 3.65842 2.23743 1.8633 3.15936C1.32066 3.43805 0.593921 3.42037 0.143621 3.00884C-0.117649 2.77007 -0.347845 2.54905 -0.548843 2.16064C-0.881976 1.51688 -0.230434 -0.0927657 0.430493 0.204852C0.503959 0.237934 0.557558 0.306874 0.582096 0.425369C10.8394 -0.103188 21.5713 -0.552464 31.2089 1.75997C33.8194 5.53916 36.2716 6.21307 39.3435 6.68877C40.6751 5.94879 41.664 9.59583 40.451 10.3622C38.8162 13.4807 36.4298 13.5732 35.3883 17.0221C33.0415 21.0919 31.1694 24.9901 28.6512 28.2539C28.1502 29.496 28.4798 29.9849 27.346 29.0996C30.3336 30.5854 32.6506 29.8667 34.9111 28.7135C35.467 28.4299 36.1014 28.7483 36.5365 29.1958C37.5039 30.1909 38.6459 28.4041 38.2097 30.1963C38.1438 31.6763 36.8517 32.9977 36.1398 31.2535C33.3052 32.2313 30.7211 33.817 27.7283 31.4649C26.634 33.8698 25.5661 31.5706 25.4738 33.5791C21.4922 40.9128 21.2179 47.3619 17.5 52C17.2759 53.6517 15.1254 53.3605 13.5421 54.5C12.2898 55.4013 11.67 58.2363 10.2461 56.3996C9.4946 54.4175 9.38912 53.8493 10.167 52.409C10.7735 50.7969 13.4579 45.8834 15.5 44.5C20.71 40.9705 18.5 40 21.8482 34.808C22.6922 33.4992 22.3228 32.6013 22.1382 30.8306L22.1118 30.8438Z" fill="#EA5A24"/>
</svg>
