<svg width="38" height="60" viewBox="0 0 38 60" fill="none" xmlns="http://www.w3.org/2000/svg">
<path d="M21.7197 23.1697C19.2454 22.4082 17.279 19.4269 15.9898 18.2008C13.5545 19.001 11.3147 18.3944 9.45245 14.6774C6.71772 12.5607 5.51965 12.0832 7.66837 8.75337C10.0775 2.32605 14.5703 -1.42967 21.0555 2.04211C25.4701 -0.164859 27.3454 2.40349 27.9184 7.81122C27.5668 12.38 27.7751 16.5875 26.0692 17.5296C25.6264 18.3815 25.7697 21.1047 26.8505 21.5306C31.0308 24.2151 34.3906 27.7514 35.3152 30.5004C36.2528 35.4177 37.3467 36.6825 37.4639 41.8322C38.5187 46.2074 37.3076 51.0472 33.1013 53.2671C25.6785 57.7585 17.305 61.7336 7.81161 57.4358C2.31611 58.2877 -2.48919 49.6534 1.87335 42.3613C5.33734 38.2313 10.6896 33.7657 15.7684 29.1969C18.1124 27.8288 20.3002 26.0865 21.7197 23.1568V23.1697ZM24.7148 24.0989C24.1158 24.5248 23.8814 23.4665 24.2591 23.5827C22.488 27.9063 19.8444 30.5263 17.1618 31.4555C12.7263 38.3654 5.55279 40.4971 2.79202 45.6854C-0.320361 49.5831 3.26676 54.7255 8.63204 57.1648C16.9404 57.2293 19.9226 55.4249 26.8505 51.4369C29.8718 49.359 32.617 46.4907 31.5492 40.9797C30.8329 37.0175 30.7079 35.2112 29.4577 31.4555C28.3248 28.1773 26.8505 26.3397 24.7279 24.0989H24.7148ZM22.8396 19.7753C24.5716 15.3098 25.0274 10.6764 24.5846 6.49478C24.1028 4.77824 22.8396 3.92643 20.4956 2.98427C16.5237 2.41639 11.7705 5.61715 10.2468 9.14056C9.16596 10.6764 9.36129 12.3671 11.2626 14.0579C15.0261 15.3227 18.7505 17.6716 22.8266 19.7882L22.8396 19.7753Z" fill="#EA5A24"/>
</svg>
