<svg width="41" height="58" viewBox="0 0 41 58" fill="none" xmlns="http://www.w3.org/2000/svg">
<path d="M35.1361 25.097C35.1361 25.097 33.2209 26.6322 31.9869 27.6073C30.6195 28.6876 29.9287 29.3998 28.4725 30.3571C26.9814 31.3374 26.1486 31.9706 24.4562 32.5364C22.7475 33.1077 21.6777 32.9696 19.8921 33.2096C18.0549 33.4566 17.2008 33.6085 15.3904 33.2096C13.5588 32.8061 12.6091 32.358 11.1063 31.2357C9.74745 30.2208 9.21085 29.3701 7.83162 28.3831C6.25622 27.2558 4.86136 27.3381 3.50719 25.9528C2.12784 24.5417 1.82182 23.3378 1.1567 21.48C0.482151 19.5959 0.206188 18.4593 0.129787 16.4596C0.0425758 14.1768 0.142334 12.7931 0.996952 10.6746C1.8034 8.67553 4.13474 6.1334 4.13474 6.1334C4.13474 6.1334 6.18824 3.10468 8.12828 1.94588C10.127 0.752034 11.5678 0.57744 13.8904 0.416925C15.4624 0.308283 17.9182 0.656534 17.9182 0.656534C17.9182 0.656534 20.3871 0.799574 21.8889 1.24986C24.0836 1.90791 25.15 2.76533 27.0349 4.06816C28.9015 5.35842 29.5729 6.57078 31.4506 7.84491C33.168 9.01028 34.7054 8.85606 36.1287 10.3666C37.5216 11.8448 37.7779 13.1198 38.3537 15.0675C38.831 16.6819 38.6315 17.69 39.0383 19.3235C39.448 20.9685 40.0936 21.7721 40.4418 23.4312C40.8116 25.1938 41.0388 26.2449 40.7955 28.0294C40.6235 29.2906 39.8791 31.1572 39.8791 31.1572C39.8791 31.1572 38.548 33.5027 37.92 35.0753C37.1006 37.1272 36.8677 38.8097 35.9606 40.9525C35.1623 42.8381 33.9494 45.2587 33.9494 45.2587L31.1881 49.8456L27.8906 54.0559L23.4293 56.8971L18.5457 57.5246L13.4682 57.6045L8.81289 55.5164L4.63678 52.5612C4.63678 52.5612 2.45694 50.6484 1.67703 48.7887C0.960938 47.0812 0.657922 44.7052 1.18726 44.3808C1.59436 44.1314 3.52549 46.144 5.10538 47.3194C6.8415 48.6111 9.51327 50.7478 9.51327 50.7478C9.51327 50.7478 12.0272 52.8715 13.9931 53.3485C15.6603 53.753 18.386 53.3257 18.386 53.3257L22.7789 52.9948C22.7789 52.9948 24.5695 52.7247 25.5972 52.2303C27.4003 51.3629 28.1974 50.3431 29.2598 48.6475C30.3342 46.9329 30.64 45.4425 31.5527 43.4013C32.3249 41.6744 33.1632 40.8427 33.5615 38.9934C33.9534 37.173 33.5615 34.2251 33.5615 34.2251L34.3031 29.4101L35.1246 25.0856L35.1361 25.097ZM18.8188 30.3571C20.7131 30.4927 21.8618 29.6562 23.7145 29.2389C25.5779 28.8192 27.9591 26.8086 27.9591 26.8086C27.9591 26.8086 29.9441 24.6182 30.9599 23.0318C31.9519 21.4828 33.0711 20.6721 33.0936 18.8329C33.1083 17.637 32.5803 17.0383 32.2493 15.8891C31.6869 13.9363 31.7719 12.6761 30.8002 10.8914C29.8052 9.06394 29.1414 7.82816 27.2859 6.88647C25.3885 5.92351 23.9716 6.6673 21.8547 6.45288C19.9972 6.26473 18.9733 5.96456 17.1081 5.88237C15.2106 5.79876 14.1206 5.72891 12.2473 6.04212C10.5715 6.32233 9.5433 6.41442 8.07123 7.263C6.50703 8.16469 5.33392 8.7871 4.77371 10.5035C4.21932 12.202 5.08433 13.2824 5.49254 15.0219C6.00441 17.2031 6.41925 18.4073 7.30676 20.4645C8.10658 22.3184 8.47157 23.4486 9.71429 25.04C10.9731 26.6519 11.7422 27.7283 13.628 28.5201C15.5181 29.3137 16.7741 30.2108 18.8188 30.3571Z" fill="#EA5A24"/>
</svg>
