<svg width="375" height="181" viewBox="0 0 375 181" fill="none" xmlns="http://www.w3.org/2000/svg">
<g clip-path="url(#clip0_729_3607)">
<path d="M72.6185 93.7088C71.0178 96.0093 68.4877 96.5248 66.0088 97.1446C65.8895 97.1726 65.7369 97.2001 65.6402 97.1529C64.295 96.5132 62.951 95.8671 61.6162 95.2097C61.0117 94.9143 60.4561 94.4827 59.8287 94.2958C58.287 93.8278 56.8162 93.4348 55.7254 92.0023C55.1668 91.2698 54.0306 90.808 53.0723 90.5775C49.6895 89.7644 46.8824 87.8067 43.8803 86.2343C41.9048 85.2004 39.9098 84.1957 37.7496 83.0892C37.932 84.4019 38.0328 85.6905 38.3067 86.9493C38.8336 89.3757 39.4439 91.7865 40.0556 94.1909C40.2346 94.8893 40.5907 95.5386 40.7556 96.2406C40.9684 97.1262 41.0414 98.0421 41.2195 98.9337C41.3967 99.7984 41.5866 100.666 41.8484 101.509C42.5389 103.73 43.2781 105.941 43.9904 108.153C44.2885 109.077 44.5852 110.007 44.8691 110.935C45.4343 112.802 46.0637 114.65 46.5301 116.544C46.9021 118.063 47.6192 119.497 47.991 120.923C48.5271 122.991 49.5823 124.75 50.3157 126.673C50.8602 128.103 51.6668 129.428 52.1972 130.861C52.4816 131.629 52.7919 132.715 52.459 133.312C51.8935 134.345 50.7272 135.097 49.435 134.742C48.023 134.355 46.6205 133.797 45.3348 133.096C42.823 131.728 40.0907 131.561 37.6525 131.169C37.3446 132.624 37.0748 133.867 36.8178 135.113C36.5362 136.507 36.4394 137.847 37.2087 139.191C37.53 139.753 37.476 140.575 37.4669 141.28C37.4589 142.452 37.2154 143.634 37.3036 144.793C37.5216 147.734 37.7729 150.676 36.982 153.562C36.5206 155.238 38.5611 158.013 40.6798 158.37C42.0067 158.593 43.3381 158.983 44.0047 160.245C44.338 160.876 44.3589 161.754 44.2879 162.499C44.2231 163.152 43.743 163.751 43.6103 164.409C43.3543 165.682 42.464 165.886 41.3837 166.043C37.4995 166.591 33.688 165.44 29.8193 165.63C29.3213 165.651 28.8181 165.571 28.3215 165.585C26.9661 165.624 26.7348 164.794 26.7242 163.678C26.7117 162.161 26.5393 160.644 26.5728 159.131C26.6319 156.235 24.836 153.786 24.7025 150.95C24.6703 150.282 24.6381 149.615 24.6186 148.951C24.6047 148.481 24.6918 148.006 24.6214 147.551C24.0536 143.742 23.4024 139.949 22.9038 136.128C22.6375 134.077 22.6326 131.988 22.5199 130.157C18.263 129.251 14.09 128.39 9.93182 127.459C9.16093 127.288 8.45853 126.825 7.42856 126.366C6.84303 127.242 6.0583 128.082 5.65442 129.076C3.97823 133.215 0.796505 136.4 -1.28494 140.279C-2.3302 142.224 -3.45168 144.12 -4.56813 146.023C-5.49406 147.593 -6.4848 149.123 -7.41711 150.692C-7.9765 151.634 -8.45194 152.62 -9.00495 153.563C-9.6596 154.67 -10.232 155.863 -11.0944 156.786C-11.4998 157.22 -12.5714 157.399 -13.1924 157.214C-16.5576 156.191 -19.9028 155.106 -23.1965 153.871C-25.044 153.178 -25.945 151.479 -26.434 149.661C-26.94 147.766 -25.7516 146.185 -23.7709 145.713C-22.3597 145.379 -20.9814 144.885 -19.5859 144.469C-19.387 144.411 -19.1177 144.241 -18.9995 144.313C-17.5442 145.19 -17.0507 143.961 -16.6278 143.097C-15.7521 141.323 -14.9895 139.484 -14.3354 137.622C-14.0011 136.673 -13.956 135.609 -13.8652 134.581C-13.6919 132.69 -12.385 131.495 -11.0753 130.506C-9.44181 129.28 -8.5381 127.751 -7.99889 125.865C-7.70448 124.82 -7.22904 123.834 -6.7483 122.603C-7.98572 122.273 -9.31383 121.93 -10.6352 121.556C-13.857 120.644 -17.0761 119.719 -20.2965 118.8C-20.4597 118.752 -20.6284 118.73 -20.7812 118.664C-21.292 118.462 -21.7988 118.24 -22.3082 118.032C-22.0617 117.498 -21.8851 116.915 -21.5573 116.438C-19.9153 114.099 -17.352 112.45 -16.3975 109.579C-16.2822 109.223 -16.0229 108.912 -15.8031 108.598C-14.8411 107.235 -14.4473 107.139 -12.9203 107.898C-10.895 105.607 -8.8149 103.342 -6.84895 100.986C-5.54437 99.4226 -4.33982 97.7647 -3.20915 96.0778C-1.52156 93.5556 0.0199846 90.9357 1.71261 88.4213C2.73256 86.9109 3.92273 85.51 5.03031 84.0583C5.23419 83.7882 5.58524 83.5161 5.59865 83.2322C5.68138 81.5491 6.66277 80.2839 7.48632 78.9451C7.76902 78.4917 8.05307 78.0319 8.47374 77.3678C6.98321 77.4775 5.65862 77.6226 4.33649 77.6614C2.68677 77.704 1.02614 77.5774 -0.626647 77.666C-3.19101 77.8074 -5.75416 78.0691 -8.31288 78.2784C-10.207 78.4357 -12.0997 78.5866 -13.9925 78.7374C-15.0848 78.8252 -16.1939 78.8026 -17.2733 78.9865C-19.5372 79.3786 -22.113 78.2504 -23.2781 76.2551C-24.8299 73.5973 -24.7913 71.7447 -22.7669 69.6477C-21.1773 67.9984 -19.6389 66.1181 -17.0674 65.9115C-16.6 65.8776 -16.1254 65.9986 -15.6543 65.9787C-14.8607 65.9475 -14.0396 65.9754 -13.2888 65.7684C-10.8351 65.1099 -8.43143 64.1206 -5.79962 64.7005C-5.71665 64.7182 -5.60177 64.7426 -5.55267 64.6997C-3.30988 62.9893 -0.464881 63.7279 2.00185 62.8188C3.85315 62.1389 5.88569 61.9577 7.81541 61.4745C9.01114 61.182 10.2063 60.8294 11.3336 60.3556C13.5666 59.4167 15.8282 58.6573 18.2015 58.0951C19.7538 57.7251 21.1251 56.6029 22.5609 55.7746C23.1005 55.4625 23.8746 55.1137 24.0105 54.629C24.2996 53.6101 24.1697 52.522 23.2381 51.7236C22.3751 50.9797 21.4966 50.2459 20.7022 49.43C19.5903 48.2864 18.552 47.0784 17.6547 46.0872C17.227 47.6035 16.7847 49.4102 16.1996 51.1665C15.6289 52.8859 14.7911 53.0945 13.354 51.975C11.2078 50.298 9.12519 48.541 6.95041 46.9045C6.04834 46.2191 5.00769 45.6842 3.97539 45.2045C2.90749 44.7038 2.46018 43.855 2.39276 42.7869C2.32436 41.6919 2.90005 40.894 3.87217 40.4606C4.94849 39.9759 6.16165 39.7271 7.15109 39.1173C9.00758 37.9716 10.7497 36.6415 12.528 35.3925C11.6411 34.3835 10.7329 33.4433 9.93567 32.42C9.11194 31.3644 9.33945 30.3523 10.4462 29.6608C11.4216 29.0546 12.4801 28.5595 13.3772 27.85C14.8773 26.6551 15.7676 27.0179 16.9438 28.7088C17.5451 27.7896 18.2082 26.9569 18.6779 26.0298C21.7608 20.0029 26.803 17.3874 33.416 17.4337C34.3128 17.4511 35.1497 17.4357 35.9903 17.4345C38.2369 17.9124 40.4898 18.3917 42.7364 18.8697C45.5708 20.0996 47.6504 22.1227 49.103 24.8394C49.4052 25.3972 49.7651 25.934 50.1664 26.4329C51.5193 28.1079 52.2696 30.0149 52.4787 32.147C52.5894 33.231 52.7066 34.3163 52.826 35.4222C54.6464 34.7624 55.9934 35.3624 56.9958 37.1496C57.4713 37.9911 58.0911 38.7499 58.5293 39.6101C58.8311 40.2012 59.1022 40.9058 59.0618 41.5375C59.0092 42.3533 58.399 42.8104 57.5021 42.9197C56.4272 43.0512 55.3699 43.3198 54.2979 43.5319C54.1438 43.6925 53.982 43.8582 53.828 44.0188C55.3327 46.0797 56.8697 48.114 58.3203 50.2101C59.0671 51.2826 59.7543 52.4159 60.3041 53.6C60.8663 54.8201 60.4098 55.9368 59.1223 56.3165C56.7384 57.0232 54.2966 57.5308 51.8944 58.1668C50.2698 58.5949 48.672 59.1486 47.0437 59.5626C46.1558 59.7872 45.2224 59.8487 43.9908 60.0269L45.567 52.579C44.9529 52.8018 44.6867 52.9252 44.403 53.0049C42.0104 53.6898 39.6449 54.5937 37.1982 54.9669C35.7858 55.18 35.4585 55.844 35.1984 56.9158C34.9102 58.0883 35.6876 58.4805 36.5547 58.8584C36.8909 59.0033 37.2004 59.2425 37.4585 59.5042C40.8937 62.9695 44.3197 66.4462 47.7612 69.9128C48.0207 70.1681 48.3615 70.354 48.6845 70.5294C49.3293 70.8866 50.0843 71.1006 50.6254 71.5692C52.7278 73.3904 54.374 75.7281 57.0751 76.863C58.6542 77.5324 60.282 78.1922 61.2944 79.7748C61.5459 80.1618 62.091 80.3911 62.544 80.6142C63.721 81.1981 64.9307 81.7222 66.1154 82.3011C67.1665 82.8182 68.3444 83.2088 69.2074 83.9526C70.3024 84.8926 71.1457 86.1391 72.0904 87.2538C72.1333 87.3029 72.1332 87.4296 72.1106 87.5048C71.5617 88.9954 72.4798 90.0778 73.1503 91.2275L72.6208 93.7293L72.6185 93.7088ZM26.2367 54.0689C26.2544 54.7729 26.075 55.7152 26.3336 56.5105C27.0128 58.5958 26.4917 59.1986 24.3241 59.6711C21.7371 60.2346 18.8341 59.0767 16.5164 61.078C16.3523 61.2232 16.0241 61.1667 15.7714 61.2263C9.09374 62.8403 2.31068 64.0383 -4.09692 66.6768C-5.49924 67.2521 -7.18039 67.4747 -8.70061 67.3781C-10.4778 67.2667 -12.1592 67.3959 -13.8557 67.8487C-15.1711 68.2024 -19.7062 70.4389 -20.7185 71.3774C-21.0676 71.7033 -21.3749 72.1781 -21.4798 72.6427C-21.8336 74.1881 -20.1529 76.0796 -18.562 76.0312C-18.1397 76.021 -17.7134 76.1184 -17.2961 76.1005C-15.1813 76.0035 -13.3788 77.6341 -11.183 77.1542C-8.83328 76.6404 -6.46012 76.2049 -4.10438 75.7256C-3.99281 75.7027 -3.89424 75.5836 -3.80243 75.4964C-2.34383 74.1194 -0.550795 74.5342 1.16937 74.6C1.46099 74.6087 1.87803 74.8441 1.9994 75.09C2.63508 76.3724 3.4836 75.8927 4.46196 75.5873C6.30577 75.0058 8.18812 74.5259 10.0798 74.128C11.0775 73.9201 11.6859 74.6698 11.3019 75.6018C10.7626 76.921 10.191 78.2667 9.40761 79.4473C8.17125 81.3185 7.08918 83.1224 7.75459 85.5249C8.04982 86.5882 7.54935 87.4087 6.58703 88.111C5.9549 88.5768 5.45872 89.4717 5.2721 90.259C4.89615 91.8464 3.99773 93.1292 2.71924 93.8442C1.0481 94.7759 -0.195938 95.9585 -1.09843 97.6073C-3.03907 101.136 -5.61385 104.163 -8.53105 106.917C-11.7082 109.923 -14.8689 112.945 -18.0183 115.977C-18.6882 116.621 -18.6879 117.282 -17.7116 117.616C-15.462 118.395 -13.2178 119.199 -10.9334 119.845C-9.17845 120.345 -7.34722 120.548 -5.58683 121.023C-3.98466 121.457 -3.93106 121.928 -4.85304 123.26C-5.4695 124.155 -5.99097 125.138 -6.40394 126.144C-7.35484 128.463 -7.78402 131.153 -9.23076 133.073C-10.945 135.342 -10.8981 138.367 -12.9533 140.357C-13.0038 140.407 -13.0153 140.524 -13.0047 140.6C-12.73 142.706 -14.341 143.637 -15.5938 144.798C-17.1529 146.24 -18.9204 147.091 -21.1029 147.067C-21.9818 147.06 -22.8798 147.269 -23.7344 147.494C-24.1297 147.597 -24.7456 147.986 -24.7472 148.246C-24.7512 148.832 -24.615 149.701 -24.2148 149.953C-22.3396 151.146 -20.4062 152.284 -18.3886 153.214C-17.1067 153.806 -15.5848 153.863 -14.2885 154.419C-12.5707 155.158 -12.5614 155.24 -12.0989 153.465C-12.0254 153.18 -11.977 152.857 -11.8158 152.631C-10.625 150.944 -9.34656 149.315 -8.20914 147.596C-6.8062 145.473 -5.26421 143.387 -4.25451 141.074C-3.62034 139.622 -2.99501 138.274 -2.00491 137.031C-1.34181 136.198 -0.959035 135.146 -0.439287 134.203C-0.23429 133.833 -0.0128394 133.48 0.216338 133.122C1.39624 131.265 2.58252 129.41 3.7688 127.555C4.40687 126.557 5.05132 125.56 5.67159 124.552C6.17206 123.731 6.82737 123.597 7.72517 123.861C10.8623 124.795 14.0084 125.718 17.1695 126.571C19.0128 127.063 20.869 127.558 22.8186 127.012C23.1304 126.925 23.831 127.208 23.9178 127.46C24.3766 128.884 24.8017 130.342 25.0502 131.816C25.2445 132.977 25.0722 134.201 25.2447 135.372C25.703 138.564 26.3111 141.741 26.7425 144.934C26.9399 146.397 26.7952 147.9 26.9375 149.371C27.086 150.97 27.378 152.553 27.6289 154.14C27.8466 155.507 28.1526 156.866 28.3292 158.237C28.5682 160.102 28.7174 161.981 28.9016 163.821C29.4949 163.854 29.9132 163.863 30.3261 163.898C32.9784 164.128 35.6263 164.412 38.2794 164.576C39.0172 164.619 39.7975 164.399 40.5292 164.187C41.397 163.932 41.8958 162.457 41.4359 161.699C40.2885 162.709 39.1705 162.224 38.051 161.653C36.7393 160.98 37.0778 159.538 36.7875 158.609C36.1742 158.419 35.4697 158.376 35.3994 158.141C34.9826 156.738 34.4166 155.284 34.4631 153.866C34.5154 152.043 35.202 150.249 35.4092 148.419C35.5825 146.875 35.2627 145.266 35.519 143.74C35.8439 141.795 35.7409 140.012 34.7506 138.294C34.6577 138.135 34.6889 137.861 34.7435 137.666C35.1941 136.041 34.6167 134.578 34.0676 133.107C33.829 132.469 33.5905 131.832 33.402 131.178C33.0475 129.922 33.8795 128.859 35.1513 129.089C38.5414 129.71 41.9031 130.466 45.2959 131.074C46.5868 131.309 47.919 131.285 49.2319 131.384C49.2831 131.269 49.3266 131.158 49.3778 131.042C47.8206 128.977 47.9835 126.19 46.3494 124.142C46.1652 123.909 46.092 123.247 46.2143 123.173C47.0454 122.649 46.6402 122.043 46.375 121.499C45.503 119.727 44.7758 117.931 44.8777 115.905C44.8928 115.582 44.7662 115.235 44.6533 114.917C43.5722 111.926 42.3741 108.983 41.889 105.792C41.7398 104.827 41.1838 103.515 40.4379 103.163C39.5329 102.743 39.2855 102.21 39.0303 101.463C38.8457 100.916 38.6302 100.39 38.4352 99.862C37.7564 100.044 37.2045 100.194 36.5257 100.376C36.8079 99.0423 37.1031 97.9312 37.2501 96.7954C37.3006 96.3993 36.9882 95.9527 36.8587 95.5249C36.628 94.7556 36.2018 93.9646 36.2358 93.2049C36.2947 91.8235 36.8116 90.4528 36.8076 89.0847C36.7992 86.8553 36.8766 84.5042 35.2836 82.6713C34.3614 81.6081 34.9081 80.6639 35.4836 79.9927C36.0578 79.3279 37.04 79.6035 37.7954 80.1311C38.9127 80.9023 40.0169 81.7041 41.1706 82.4298C43.6888 84.0193 45.8932 86.209 49.0463 86.6264C49.2674 86.6534 49.4435 86.9243 49.6543 87.0625C50.1815 87.4081 50.6864 87.7956 51.2475 88.0751C53.2238 89.0424 55.2276 89.9422 57.1961 90.9146C59.1354 91.8674 61.0394 92.8927 62.9709 93.8505C63.2127 93.9687 63.5687 93.831 63.8377 93.9149C64.3133 94.0628 64.8544 94.1845 65.2002 94.5049C66.0917 95.3348 66.8472 95.3888 67.7304 94.5563C68.1959 94.1218 68.6828 93.7118 69.1962 93.3342C70.7429 92.2026 70.8593 90.4866 69.4994 89.0969C69.0604 88.65 68.5169 88.1609 68.3824 87.5987C67.8368 85.3551 66.2311 84.0864 64.3688 83.1167C62.2774 82.0315 60.1452 81.171 58.3229 79.4761C56.4828 77.7708 54.0511 76.6865 51.8249 75.4192C51.5338 75.2506 50.8864 75.473 50.518 75.7014C49.2492 76.4653 48.7036 76.3959 47.8794 75.1534C47.454 74.516 46.9941 73.8846 46.687 73.1924C44.3876 68.0479 40.2386 64.4574 36.1053 60.9504C34.3131 59.4286 32.7063 58.2597 33.5931 55.6139L26.2471 54.0511L26.2367 54.0689ZM31.3216 53.2365C32.6592 53.1876 34.0084 53.0211 35.3391 53.1308C37.6081 53.3134 39.6606 52.723 41.5188 51.5377C46.5612 48.322 49.752 43.8653 50.1656 37.7507C50.3294 35.3379 50.9233 32.9098 49.5695 30.5143C47.7726 27.3442 45.938 24.2261 43.1031 21.8956C41.9607 20.9589 40.5726 20.1434 39.1683 19.7513C36.8507 19.1048 34.4727 19.0591 31.9981 19.4063C29.4147 19.7638 27.6057 21.1263 25.9601 22.757C23.8267 24.8642 21.9501 27.2395 20.0041 29.5332C19.6125 29.9968 19.0775 30.6967 19.1772 31.1714C19.7534 33.9951 19.1069 36.6721 18.4257 39.355C18.4176 39.3933 18.4351 39.437 18.4384 39.4844C18.4281 41.5498 19.4014 43.1908 20.305 45.0037C21.335 47.0702 22.9216 48.2081 24.4835 49.6208C26.4824 51.4267 28.7387 52.5203 31.3344 53.2392L31.3216 53.2365ZM11.2202 31.7395C12.3828 32.5805 13.2997 33.1957 14.1621 33.8794C14.521 34.1692 14.9869 34.6151 14.9878 34.9888C14.9931 35.4367 14.6627 36.1468 14.2886 36.3073C12.0812 37.2516 10.636 39.0383 9.09708 40.7318C8.47143 41.419 7.94655 42.1344 6.85553 42.2157C6.42141 42.2501 6.02799 42.88 5.69976 43.1703C8.4084 45.4673 10.9536 47.6228 13.8562 50.0744C16.2532 43.2546 16.5759 36.6872 14.6649 29.8646C13.5798 30.4541 12.622 30.9773 11.2124 31.7446L11.2202 31.7395ZM47.1897 57.1393C47.2932 57.1546 47.5887 57.2708 47.8542 57.2139C51.2836 56.4829 54.7158 55.7392 58.1333 54.9389C58.3436 54.8903 58.6413 54.24 58.5438 54.0392C58.3037 53.5346 57.9435 52.9044 57.4811 52.726C56.0923 52.1971 55.4988 51.1571 55.0385 49.8653C54.2707 47.6945 52.7352 46.094 50.9571 44.5685C49.9657 47.0788 48.3549 49.1437 48.2438 51.8746C48.1744 53.6205 47.5628 55.3445 47.1833 57.1379L47.1897 57.1393ZM52.4129 41.7236C52.4787 41.791 52.5445 41.8583 52.6102 41.9257C53.9861 41.318 55.3605 40.7167 56.8983 40.0368C56.0738 39.3945 55.3648 38.8368 54.5289 38.1855C53.7649 39.4635 53.0857 40.5929 52.4065 41.7222L52.4129 41.7236Z" fill="white"/>
<path d="M181.955 101.152C183.283 103.624 185.738 104.431 188.13 105.336C188.245 105.377 188.394 105.422 188.495 105.387C189.904 104.908 191.313 104.423 192.714 103.926C193.348 103.703 193.949 103.339 194.593 103.226C196.178 102.941 197.684 102.722 198.93 101.426C199.569 100.764 200.75 100.437 201.728 100.32C205.181 99.9068 208.192 98.2893 211.353 97.0773C213.433 96.2806 215.53 95.5152 217.801 94.6678C217.471 95.9505 217.224 97.2188 216.808 98.4372C216.009 100.786 215.128 103.11 214.247 105.427C213.989 106.1 213.562 106.703 213.318 107.381C213.006 108.236 212.829 109.137 212.55 110.002C212.276 110.841 211.988 111.68 211.632 112.487C210.694 114.612 209.707 116.723 208.748 118.838C208.347 119.721 207.946 120.61 207.558 121.498C206.784 123.287 205.949 125.05 205.27 126.876C204.727 128.342 203.852 129.682 203.32 131.056C202.552 133.048 201.304 134.671 200.356 136.497C199.652 137.853 198.7 139.076 198.01 140.438C197.64 141.167 197.208 142.21 197.471 142.841C197.915 143.934 198.988 144.817 200.312 144.615C201.759 144.395 203.215 144.004 204.572 143.458C207.223 142.392 209.956 142.543 212.423 142.438C212.563 143.92 212.689 145.186 212.803 146.453C212.924 147.871 212.868 149.213 211.95 150.459C211.567 150.98 211.527 151.803 211.456 152.504C211.33 153.669 211.438 154.872 211.218 156.013C210.667 158.909 210.082 161.801 210.539 164.761C210.806 166.479 208.463 168.998 206.318 169.106C204.975 169.172 203.608 169.404 202.802 170.581C202.399 171.169 202.278 172.038 202.264 172.787C202.254 173.443 202.663 174.093 202.72 174.763C202.829 176.057 203.69 176.364 204.745 176.646C208.541 177.642 212.458 176.943 216.28 177.584C216.772 177.662 217.281 177.641 217.773 177.713C219.115 177.91 219.439 177.113 219.576 176.005C219.762 174.5 220.106 173.013 220.245 171.506C220.516 168.623 222.579 166.399 223.034 163.597C223.142 162.938 223.25 162.279 223.345 161.622C223.412 161.156 223.38 160.674 223.502 160.231C224.5 156.513 225.578 152.821 226.509 149.083C227.007 147.077 227.249 145.003 227.57 143.197C231.902 142.794 236.145 142.425 240.381 141.984C241.167 141.905 241.917 141.527 242.992 141.191C243.474 142.129 244.158 143.055 244.446 144.09C245.64 148.396 248.438 151.931 250.064 156.027C250.88 158.081 251.779 160.094 252.671 162.115C253.412 163.783 254.222 165.418 254.969 167.086C255.418 168.086 255.778 169.121 256.22 170.122C256.744 171.299 257.177 172.55 257.928 173.568C258.281 174.046 259.325 174.348 259.963 174.237C263.423 173.613 266.869 172.925 270.281 172.083C272.196 171.61 273.284 170.027 273.977 168.278C274.695 166.455 273.695 164.745 271.781 164.045C270.417 163.55 269.104 162.898 267.766 162.322C267.575 162.241 267.326 162.042 267.201 162.099C265.655 162.8 265.305 161.522 264.983 160.615C264.316 158.75 263.767 156.835 263.33 154.909C263.106 153.927 263.182 152.865 263.209 151.833C263.252 149.935 262.09 148.595 260.902 147.46C259.419 146.051 258.695 144.428 258.374 142.491C258.201 141.42 257.841 140.385 257.503 139.105C258.77 138.922 260.128 138.736 261.484 138.518C264.788 137.988 268.091 137.444 271.394 136.907C271.562 136.878 271.732 136.876 271.891 136.828C272.422 136.687 272.95 136.526 273.48 136.379C273.296 135.819 273.187 135.22 272.916 134.707C271.551 132.193 269.193 130.256 268.571 127.293C268.497 126.926 268.275 126.586 268.093 126.249C267.292 124.784 266.912 124.642 265.309 125.217C263.558 122.706 261.75 120.214 260.065 117.644C258.947 115.939 257.939 114.152 257.008 112.344C255.619 109.642 254.386 106.86 252.991 104.165C252.15 102.546 251.127 101.016 250.192 99.4444C250.021 99.1523 249.703 98.8411 249.722 98.5575C249.831 96.876 249.001 95.5048 248.335 94.079C248.106 93.5957 247.876 93.1058 247.534 92.3971C249.002 92.6798 250.301 92.9783 251.61 93.171C253.244 93.4055 254.908 93.4734 256.54 93.7541C259.071 94.1934 261.587 94.7522 264.105 95.2583C265.969 95.6353 267.831 96.0058 269.694 96.3764C270.77 96.5909 271.874 96.6978 272.925 97.0062C275.129 97.6596 277.816 96.8391 279.201 94.9929C281.045 92.5337 281.218 90.689 279.445 88.37C278.054 86.5463 276.74 84.4992 274.209 83.9943C273.749 83.9061 273.264 83.9709 272.798 83.8963C272.013 83.7728 271.194 83.7048 270.472 83.4116C268.11 82.4715 265.835 81.2086 263.155 81.4779C263.07 81.4858 262.953 81.4967 262.909 81.4483C260.876 79.4879 257.966 79.89 255.619 78.6993C253.858 77.8081 251.859 77.3912 249.998 76.6863C248.843 76.2564 247.696 75.7668 246.63 75.1647C244.519 73.9718 242.359 72.9539 240.065 72.1188C238.566 71.5703 237.331 70.2957 235.999 69.3055C235.499 68.9326 234.77 68.4959 234.69 67.9986C234.519 66.9528 234.772 65.8871 235.788 65.2025C236.73 64.5643 237.686 63.9378 238.568 63.2199C239.803 62.2135 240.972 61.1346 241.976 60.2545C242.228 61.8107 242.462 63.6569 242.843 65.4697C243.214 67.2441 244.023 67.549 245.578 66.6045C247.9 65.1888 250.169 63.6863 252.516 62.3142C253.49 61.7385 254.585 61.3285 255.665 60.9723C256.783 60.5994 257.323 59.8084 257.512 58.7553C257.705 57.6755 257.224 56.8158 256.307 56.272C255.293 55.6651 254.117 55.2765 253.203 54.5554C251.49 53.201 249.911 51.6767 248.286 50.2287C249.282 49.3298 250.291 48.5017 251.2 47.5781C252.138 46.6256 252.028 45.5938 251.007 44.7778C250.107 44.0619 249.112 43.4467 248.302 42.6374C246.948 41.2757 246.022 41.5323 244.661 43.0747C244.168 42.0916 243.605 41.1872 243.244 40.2114C240.867 33.8653 236.157 30.6795 229.582 29.9546C228.69 29.8674 227.86 29.7545 227.025 29.6553C224.739 29.8682 222.447 30.0817 220.161 30.2946C217.205 31.1859 214.909 32.9532 213.157 35.4824C212.793 36.0013 212.374 36.4926 211.919 36.9413C210.384 38.4476 209.422 40.2544 208.971 42.3479C208.738 43.4117 208.498 44.4762 208.253 45.5608C206.52 44.6932 205.114 45.1322 203.915 46.7907C203.346 47.5711 202.644 48.2526 202.111 49.056C201.744 49.608 201.395 50.2763 201.363 50.9085C201.322 51.725 201.876 52.2502 202.755 52.4633C203.807 52.7192 204.827 53.1093 205.868 53.4449C206.003 53.6225 206.144 53.8059 206.279 53.9834C204.55 55.8551 202.791 57.6968 201.112 59.6098C200.248 60.5881 199.436 61.6338 198.755 62.7459C198.058 63.8923 198.384 65.0548 199.62 65.582C201.907 66.5619 204.275 67.3507 206.589 68.2626C208.154 68.8772 209.678 69.6135 211.248 70.2144C212.105 70.5411 213.025 70.711 214.228 71.0315L213.51 63.4495C214.095 63.7424 214.345 63.8961 214.618 64.0083C216.917 64.9675 219.164 66.1412 221.551 66.7971C222.93 67.1734 223.18 67.8711 223.316 68.9661C223.469 70.1644 222.652 70.4633 221.748 70.7376C221.397 70.8423 221.062 71.0439 220.776 71.2738C216.969 74.3155 213.17 77.3697 209.357 80.4121C209.07 80.6354 208.71 80.7804 208.369 80.917C207.688 81.1967 206.914 81.3213 206.323 81.7237C204.027 83.2876 202.126 85.4179 199.314 86.2304C197.669 86.7113 195.977 87.1769 194.791 88.631C194.497 88.986 193.929 89.1503 193.454 89.3191C192.218 89.7619 190.957 90.1415 189.714 90.5784C188.611 90.9695 187.397 91.2203 186.455 91.8586C185.26 92.6646 184.28 93.8045 183.215 94.8017C183.167 94.8455 183.152 94.9713 183.166 95.0487C183.542 96.5933 182.507 97.5615 181.71 98.6254L181.951 101.172L181.955 101.152ZM232.542 67.1827C232.444 67.88 232.515 68.8369 232.168 69.5968C231.256 71.589 231.705 72.2485 233.804 72.9706C236.31 73.8318 239.325 73.0201 241.4 75.2783C241.546 75.4416 241.879 75.4237 242.123 75.5124C248.572 77.894 255.174 79.8747 261.238 83.2425C262.566 83.9775 264.21 84.3946 265.731 84.4758C267.509 84.5724 269.165 84.8967 270.799 85.5441C272.065 86.0489 276.315 88.7991 277.214 89.8493C277.523 90.2138 277.775 90.7213 277.826 91.1949C278.001 92.7713 276.117 94.4543 274.542 94.2208C274.123 94.1615 273.689 94.2085 273.276 94.142C271.187 93.7992 269.211 95.2089 267.084 94.4762C264.808 93.6919 262.501 92.9826 260.215 92.232C260.107 92.1962 260.023 92.0664 259.941 91.9691C258.649 90.4312 256.821 90.6342 255.105 90.4991C254.814 90.4737 254.373 90.659 254.224 90.8891C253.447 92.0889 252.659 91.5134 251.722 91.096C249.956 90.3035 248.141 89.6073 246.307 88.9916C245.34 88.6688 244.65 89.3426 244.926 90.3132C245.311 91.6864 245.726 93.0898 246.369 94.3538C247.384 96.3567 248.254 98.2747 247.319 100.584C246.905 101.605 247.309 102.479 248.185 103.289C248.759 103.825 249.15 104.772 249.246 105.576C249.439 107.196 250.185 108.575 251.374 109.435C252.928 110.555 254.029 111.875 254.737 113.618C256.263 117.349 258.476 120.656 261.06 123.732C263.874 127.088 266.67 130.459 269.453 133.837C270.045 134.555 269.969 135.211 268.962 135.43C266.638 135.941 264.317 136.478 261.975 136.854C260.174 137.146 258.332 137.134 256.53 137.4C254.889 137.645 254.782 138.107 255.546 139.537C256.056 140.498 256.462 141.536 256.758 142.583C257.439 144.997 257.559 147.719 258.777 149.795C260.221 152.249 259.83 155.248 261.645 157.465C261.69 157.52 261.688 157.638 261.669 157.712C261.156 159.772 262.65 160.884 263.763 162.183C265.147 163.798 266.806 164.849 268.977 165.08C269.85 165.175 270.719 165.488 271.542 165.811C271.923 165.959 272.49 166.417 272.462 166.676C272.4 167.258 272.165 168.106 271.739 168.309C269.741 169.276 267.69 170.181 265.58 170.869C264.24 171.308 262.721 171.188 261.37 171.589C259.58 172.123 259.561 172.203 259.304 170.385C259.263 170.094 259.252 169.767 259.118 169.524C258.127 167.709 257.043 165.942 256.109 164.102C254.957 161.83 253.662 159.578 252.923 157.163C252.458 155.646 251.991 154.235 251.149 152.884C250.585 151.98 250.324 150.89 249.916 149.892C249.754 149.501 249.574 149.125 249.387 148.742C248.427 146.76 247.46 144.779 246.492 142.798C245.972 141.733 245.446 140.667 244.944 139.593C244.541 138.72 243.905 138.51 242.983 138.668C239.76 139.23 236.53 139.78 233.293 140.259C231.406 140.533 229.506 140.808 227.631 140.039C227.331 139.916 226.603 140.115 226.489 140.355C225.871 141.717 225.282 143.115 224.868 144.55C224.542 145.681 224.574 146.917 224.269 148.06C223.451 151.177 222.485 154.263 221.693 157.384C221.33 158.814 221.303 160.324 220.994 161.768C220.664 163.339 220.194 164.878 219.764 166.425C219.392 167.757 218.933 169.072 218.602 170.413C218.152 172.238 217.79 174.087 217.397 175.894C216.804 175.857 216.388 175.817 215.974 175.803C213.313 175.723 210.65 175.696 207.996 175.55C207.258 175.507 206.508 175.197 205.805 174.902C204.972 174.547 204.645 173.024 205.188 172.325C206.213 173.461 207.379 173.11 208.556 172.673C209.935 172.158 209.763 170.686 210.157 169.797C210.788 169.679 211.493 169.719 211.59 169.493C212.163 168.149 212.891 166.77 213.006 165.357C213.162 163.54 212.684 161.677 212.687 159.835C212.691 158.281 213.191 156.721 213.111 155.175C213.009 153.205 213.315 151.446 214.494 149.855C214.605 149.707 214.605 149.432 214.573 149.232C214.31 147.565 215.05 146.179 215.763 144.782C216.073 144.176 216.382 143.571 216.644 142.943C217.139 141.737 216.434 140.584 215.144 140.664C211.706 140.886 208.281 141.244 204.841 141.453C203.532 141.536 202.211 141.357 200.896 141.303C200.858 141.182 200.828 141.067 200.79 140.946C202.572 139.076 202.728 136.289 204.584 134.445C204.794 134.235 204.942 133.585 204.829 133.498C204.063 132.881 204.534 132.326 204.86 131.817C205.928 130.157 206.854 128.459 206.984 126.435C207.006 126.111 207.171 125.781 207.319 125.479C208.734 122.634 210.259 119.851 211.104 116.737C211.362 115.796 212.064 114.557 212.845 114.294C213.792 113.983 214.098 113.483 214.437 112.77C214.683 112.249 214.956 111.751 215.21 111.249C215.864 111.509 216.395 111.722 217.049 111.982C216.92 110.624 216.753 109.486 216.737 108.341C216.732 107.942 217.093 107.534 217.27 107.125C217.587 106.387 218.1 105.651 218.153 104.893C218.252 103.513 217.895 102.092 218.054 100.733C218.317 98.5196 218.507 96.1751 220.299 94.5401C221.336 93.5915 220.9 92.5899 220.405 91.8561C219.91 91.1287 218.903 91.2881 218.093 91.724C216.895 92.3599 215.707 93.0277 214.478 93.614C211.796 94.8994 209.357 96.8175 206.177 96.8646C205.954 96.8657 205.749 97.1142 205.523 97.2269C204.96 97.5088 204.415 97.8349 203.826 98.0471C201.752 98.7776 199.659 99.4378 197.593 100.174C195.558 100.895 193.55 101.691 191.523 102.418C191.269 102.507 190.931 102.328 190.654 102.38C190.165 102.472 189.614 102.53 189.234 102.808C188.254 103.528 187.497 103.494 186.714 102.564C186.302 102.078 185.865 101.614 185.398 101.179C183.99 99.8746 184.07 98.1565 185.579 96.9345C186.066 96.5418 186.661 96.1193 186.859 95.5765C187.656 93.4115 189.396 92.3384 191.356 91.5922C193.557 90.758 195.773 90.1518 197.776 88.6806C199.798 87.2011 202.337 86.4076 204.693 85.4082C205.002 85.2746 205.619 85.571 205.959 85.8409C207.133 86.7475 207.682 86.7422 208.643 85.6041C209.138 85.0205 209.667 84.4469 210.05 83.7951C212.92 78.9529 217.451 75.87 221.956 72.868C223.909 71.5653 225.638 70.5916 225.059 67.8599L232.534 67.1638L232.542 67.1827ZM227.586 65.7632C226.263 65.5587 224.942 65.236 223.607 65.1899C221.333 65.1068 219.361 64.281 217.65 62.887C213.007 59.1049 210.345 54.306 210.631 48.1839C210.743 45.7681 210.429 43.287 212.047 41.0652C214.193 38.1256 216.37 35.2421 219.452 33.2576C220.693 32.4604 222.165 31.8121 223.605 31.5862C225.98 31.2142 228.348 31.446 230.766 32.0794C233.292 32.7356 234.934 34.2999 236.383 36.1116C238.262 38.4535 239.855 41.0316 241.527 43.537C241.863 44.0431 242.315 44.8007 242.162 45.2606C241.268 47.9984 241.606 50.7329 241.977 53.4773C241.98 53.5163 241.958 53.5577 241.949 53.6044C241.724 55.6572 240.571 57.1738 239.467 58.8693C238.208 60.8021 236.503 61.7474 234.79 62.9687C232.599 64.5295 230.233 65.3528 227.573 65.7644L227.586 65.7632ZM250.001 46.7525C248.751 47.4523 247.77 47.9566 246.835 48.5352C246.446 48.7812 245.932 49.1698 245.889 49.5409C245.833 49.9853 246.08 50.7291 246.433 50.9322C248.518 52.1275 249.751 54.0708 251.086 55.9323C251.63 56.6879 252.07 57.4597 253.144 57.6677C253.571 57.7524 253.89 58.424 254.183 58.7507C251.231 60.7166 248.458 62.561 245.295 64.658C243.691 57.6042 244.118 51.0429 246.793 44.4885C247.804 45.2006 248.696 45.832 250.009 46.7584L250.001 46.7525ZM211.379 67.7903C211.275 67.7934 210.968 67.8745 210.711 67.787C207.387 66.6611 204.063 65.5222 200.759 64.3289C200.556 64.2561 200.334 63.5754 200.454 63.3873C200.75 62.9141 201.179 62.3301 201.659 62.2067C203.099 61.8433 203.807 60.8794 204.411 59.6499C205.421 57.583 207.128 56.1721 209.068 54.8641C209.767 57.4732 211.132 59.7121 210.932 62.4378C210.802 64.1802 211.213 65.964 211.386 67.7897L211.379 67.7903ZM207.946 51.8684C207.873 51.9276 207.8 51.9869 207.727 52.0461C206.43 51.2821 205.133 50.5246 203.683 49.67C204.575 49.1281 205.343 48.6568 206.247 48.1072C206.86 49.4658 207.407 50.6668 207.953 51.8678L207.946 51.8684Z" fill="white"/>
<path d="M71.8712 93.8364C72.5222 95.9094 73.5992 97.6349 75.6128 98.6679C77.1439 99.453 78.7819 99.6276 80.376 99.2202C82.9937 98.5467 85.7766 98.5498 88.2429 97.1675C88.9833 96.7568 90.0713 97.0275 90.9691 96.8363C92.4828 96.5181 93.973 96.0949 95.4625 95.7043C96.3876 95.4616 97.3071 95.1862 98.2329 94.9175C99.3887 94.5766 100.533 94.1702 101.707 93.8951C103.818 93.4038 105.936 92.893 108.082 92.5853C109.037 92.4479 109.328 93.304 109.143 94.1669C108.898 95.3153 108.557 96.4415 108.306 97.5898C108.092 98.5694 107.943 99.5637 107.781 100.558C107.742 100.805 107.774 101.073 107.709 101.313C106.965 103.916 106.208 106.512 105.444 109.108C105.316 109.549 105.109 109.974 105.02 110.422C104.426 113.505 103.904 116.597 103.246 119.666C102.994 120.834 102.399 121.927 102.064 123.08C101.756 124.141 101.578 125.246 101.368 126.33C101.203 127.18 101.129 128.053 100.899 128.888C100.424 130.624 99.8659 132.332 99.3525 134.061C99.0175 135.187 98.6696 136.307 98.4058 137.448C97.672 140.665 96.9838 143.883 96.2693 147.107C95.9817 148.417 95.6747 149.72 95.3743 151.024C94.8458 153.346 94.3303 155.668 93.7692 157.989C93.4267 159.409 93.0452 160.821 92.6379 162.226C92.0022 164.408 92.8109 165.663 95.103 165.999C95.7979 166.096 96.4927 166.199 97.5252 166.345C93.3822 167.284 91.951 168.459 89.8417 172.454C90.9105 174.245 92.3341 175.412 94.5647 175.348C95.38 175.325 96.2083 175.556 97.033 175.676L102.83 175.832C104.779 175.31 106.719 175.108 108.626 175.988L110.391 176.035C110.405 175.996 110.407 175.938 110.433 175.919C112.735 174.362 113.396 171.92 114.105 169.433C115.05 166.131 116.156 162.878 117.243 159.625C117.476 158.92 117.98 158.301 118.239 157.603C118.596 156.634 118.844 155.629 119.123 154.638C119.381 153.725 119.542 152.777 119.884 151.905C120.365 150.665 121.001 149.488 121.528 148.263C122.567 145.83 123.575 143.391 124.582 140.945C124.756 140.525 124.956 140.068 124.948 139.63C124.922 137.6 125.773 135.894 126.809 134.134C127.692 136.813 128.485 139.451 129.436 142.028C130.119 143.874 131.118 145.597 131.787 147.449C133.717 152.786 135.378 158.208 136.205 163.855C136.255 164.183 136.265 164.581 136.447 164.821C138.416 167.366 138.237 170.539 138.945 173.443C139.536 175.847 140.502 176.793 142.978 176.585C145.558 176.368 148.131 175.902 150.706 175.86C152.865 175.827 155.03 176.283 157.196 176.452C157.976 176.513 158.81 176.528 159.545 176.32C160.905 175.926 161.273 175.042 161.165 173.655C160.947 170.687 159.116 169.15 156.559 168.187C156.127 168.025 155.694 167.87 155.262 167.702C155.197 167.674 155.14 167.607 155.153 167.614C156.633 167.347 158.158 167.082 159.684 166.783C160.569 166.612 160.963 165.963 160.592 165.196C159.05 162.029 159.055 158.512 158.2 155.213C156.883 150.134 156.45 144.889 154.903 139.862C154.295 137.888 154.534 135.676 154.124 133.622C153.321 129.594 152.275 125.611 151.446 121.583C150.912 118.997 150.66 116.354 150.159 113.757C149.676 111.238 149.023 108.76 148.48 106.253C147.956 103.831 147.411 101.409 147.004 98.9636C146.84 97.9869 147.115 96.9437 147.023 95.9494C146.956 95.2363 146.642 94.5362 146.399 93.8445C146.253 93.4099 146.042 92.9997 145.864 92.5772C146.424 92.3443 146.967 91.987 147.549 91.9244C148.105 91.861 148.712 92.06 149.269 92.2186C151.74 92.918 154.34 93.1968 156.302 95.2463C158.333 97.3695 161.096 98.1616 163.902 98.5373C165.734 98.7823 167.402 99.297 169.016 100.143C170.342 100.831 171.712 101.253 173.258 100.962C173.841 100.854 174.535 100.996 175.096 101.22C176.96 101.975 178.808 101.836 180.648 101.232C181.904 100.823 182.701 99.9565 182.796 98.5626C182.815 98.3087 182.809 98.0475 182.893 97.8148C184.397 93.5486 181.508 91.0499 179.046 88.4323C178.595 87.9569 177.67 87.932 176.966 87.6847C176.191 87.4158 175.395 87.1856 174.654 86.8525C173.604 86.374 172.609 85.7665 171.552 85.3008C168.337 83.8701 165.1 82.491 161.878 81.0666C160.073 80.2676 158.235 79.5265 156.512 78.5797C154.912 77.6948 153.334 76.7062 151.943 75.5203C149.927 73.8022 148.187 71.7651 146.164 70.0663C143.778 68.0575 141.069 66.6992 137.769 67.0215C137.351 67.0624 136.718 66.5756 136.462 66.1641C136.024 65.4411 135.78 64.5405 136.54 63.8497C137.154 63.292 137.882 62.8548 138.566 62.3708C140.484 61.0194 142.605 59.8758 144.276 58.2633C146.681 55.9397 148.794 53.3342 148.564 49.576C148.444 47.6608 148.63 45.7278 148.679 43.8041C150.036 43.4817 151.201 43.3042 152.286 42.9028C152.826 42.7019 153.518 42.1398 153.596 41.659C153.666 41.2041 153.131 40.4654 152.663 40.1461C151.036 39.0322 149.334 38.0403 147.646 37.0226C144.051 34.8573 140.45 32.705 136.842 30.5589C136.592 30.4086 136.309 30.2575 136.036 30.2306C133.032 29.9409 129.998 29.3047 127.033 29.5251C124.637 29.7021 122.307 30.8726 119.973 31.6647C114.49 33.5205 110.921 40.3152 111.323 45.7486C111.542 48.6648 111.943 51.612 112.679 54.4377C113.338 56.9416 115.209 58.7147 117.476 60.0285C118.472 60.6034 119.351 61.3906 120.252 62.113C121.223 62.8895 121.154 64.0492 121.231 65.1214C121.244 65.3502 120.962 65.695 120.724 65.8321C120.254 66.0936 119.733 66.3471 119.21 66.4309C114.982 67.1197 111.73 69.8969 108.028 71.7027C106.708 72.3459 105.76 73.7298 104.471 74.4586C102.143 75.7794 99.5905 76.7026 97.3004 78.0765C93.8389 80.1498 90.0053 81.2213 86.3056 82.6683C82.8824 84.0052 79.5267 85.5071 76.116 86.864C73.9826 87.7136 72.5641 89.1567 71.9212 91.3646L71.8568 93.8882L71.8712 93.8364ZM93.4892 173.055C93.2729 171.313 94.0472 170.342 95.4299 169.792C96.4372 169.395 97.4569 169.025 98.489 168.674C100.487 168.003 102.46 167.332 103.549 165.267C104.254 163.929 103.985 163.223 102.46 163.228C101.092 163.23 99.711 163.441 98.3683 163.698C96.4951 164.059 95.3454 163.141 95.5366 161.267C95.5891 160.739 95.8692 160.238 95.9805 159.706C96.0773 159.232 96.1162 158.731 96.1155 158.248C96.1096 157.713 95.8575 157.119 96.0064 156.646C96.949 153.676 97.6119 150.686 97.8029 147.539C97.9263 145.513 97.9323 143.236 99.8546 141.715C100.134 141.494 100.17 140.862 100.181 140.413C100.207 139.656 100.063 138.895 100.128 138.147C100.174 137.639 100.317 136.866 100.647 136.706C102.487 135.848 103.139 134.071 103.818 132.471C104.574 130.69 104.859 128.708 105.286 126.801C105.448 126.074 105.312 125.281 105.5 124.568C106.351 121.335 107.365 118.139 107.782 114.809C107.889 113.944 108.116 112.939 107.796 112.212C107.106 110.654 107.208 109.208 107.716 107.688C108.033 106.744 108.364 105.8 108.649 104.842C108.799 104.324 108.969 103.781 108.957 103.252C108.916 101.032 109.321 98.9222 110.214 96.8907C110.546 96.1296 110.815 95.2951 110.869 94.4743C110.948 93.1518 111.309 92.0457 112.272 91.0863C112.579 90.7748 112.781 90.0103 112.608 89.6597C112.44 89.329 111.71 89.0809 111.259 89.1275C110.266 89.2248 109.299 89.5642 108.31 89.7529C106.621 90.0794 104.752 90.0096 103.273 90.7398C100.065 92.3175 96.6516 92.7803 93.2209 93.3862C91.0211 93.7773 88.8779 94.5027 86.7241 95.1299C84.518 95.7688 82.3358 96.4866 80.1295 97.132C78.5668 97.5859 77.0083 97.6157 75.7898 96.3301C74.6408 95.1246 74.4578 93.6123 74.9725 92.0862C75.5293 90.4437 76.5165 89.0477 78.201 88.4209C80.8987 87.4168 83.5868 86.2819 86.3793 85.6523C89.9322 84.8539 93.0244 83.2079 95.7022 80.9438C99.3059 77.8956 103.53 76.3518 107.881 74.9223C109.208 74.4882 110.452 73.7712 111.694 73.1129C114.76 71.4727 117.666 69.4497 120.885 68.2182C124.294 66.907 126.51 62.8164 122.437 59.7509C122.238 59.602 122.027 59.4527 121.849 59.2783C120.85 58.3313 119.758 57.4602 118.879 56.4055C117.506 54.7699 116.4 52.8935 114.447 51.8099C114.196 51.6727 113.971 51.3012 113.92 51.0127C113.728 49.8525 113.38 48.6556 113.52 47.5239C113.777 45.3775 114.326 43.265 114.771 41.1366C114.875 40.65 114.883 40.063 115.166 39.6986C117.364 36.8279 119.588 34.2384 123.434 33.1542C125.968 32.4394 128.358 32.0338 130.945 32.0512C133.74 32.0677 136.401 32.4982 138.782 33.9652C140.816 35.2205 142.714 36.6876 144.653 38.0905C146.516 39.4392 146.571 40.0606 146.065 42.2786C145.383 45.2685 144.986 48.3051 146.304 51.2966C146.545 51.8381 146.606 52.7468 146.308 53.189C145.244 54.7787 144.141 56.3999 142.771 57.7073C141.148 59.2624 139.222 60.4243 137.006 61.1803C134.231 62.1237 133.304 63.7431 134.018 65.8765C134.563 67.503 135.877 68.367 137.446 68.9704C139.944 69.9316 142.393 71.0154 144.856 72.054C145.043 72.1308 145.228 72.2663 145.355 72.4197C147.247 74.6371 149.315 76.6046 152.014 77.8648C154.062 78.8204 155.93 80.1758 158.007 81.0538C159.78 81.8063 161.504 82.4334 162.487 84.2478C162.655 84.559 163.021 84.7842 163.322 85.0076C167.294 87.9465 171.873 89.3486 176.64 90.2599C177.282 90.3816 178.056 90.4611 178.508 90.8583C180.07 92.225 181.318 93.8834 181.754 95.9636C182.161 97.9061 180.433 99.9673 178.493 99.8694C176.912 99.7877 175.346 99.6086 173.971 98.5536C173.274 98.0194 172.318 97.7065 171.436 97.5458C168.666 97.0341 166.189 95.2578 163.214 95.6215C163.024 95.6425 162.813 95.5128 162.612 95.4422C160.196 94.6267 157.835 93.6627 155.474 92.6987C152.487 91.483 149.168 91.0609 145.971 90.4137C143.838 89.9844 143.312 90.688 143.753 92.8141C144.106 94.5332 144.264 96.2863 144.539 98.0164C144.645 98.7044 144.823 99.3813 144.982 100.064C145.2 100.984 145.85 102.065 145.577 102.795C144.59 105.45 145.817 107.434 147.134 109.46C147.385 109.845 147.761 110.188 147.874 110.609C148.571 113.159 149.4 115.694 149.829 118.289C150.337 121.37 150.577 124.463 150.411 127.662C150.246 130.803 151.154 134.058 151.967 137.166C152.4 138.835 153.045 140.406 152.863 142.176C152.819 142.625 152.884 143.109 153.004 143.55C153.557 145.614 154.313 147.644 154.684 149.735C155.579 154.764 156.31 159.822 157.106 164.894C155.725 164.856 154.261 164.784 152.794 164.784C149.764 164.787 149.208 165.099 148.599 167.007C150.857 168.184 153.121 169.354 155.365 170.543C156.69 171.245 157.78 172.181 158.296 173.95C157.559 174.224 156.809 174.732 156.066 174.732C152.685 174.7 149.309 174.433 145.933 174.427C142.283 174.426 140.536 172.918 140.355 169.291C140.273 167.638 140.099 166.035 139.066 164.63C138.782 164.244 138.652 163.718 138.521 163.239C137.422 159.333 136.355 155.415 135.216 151.528C134.946 150.614 134.622 149.757 135.225 148.885C136.172 147.521 135.813 146.259 135.197 144.852C134.415 143.063 133.785 141.193 133.305 139.3C132.755 137.126 132.295 134.973 130.524 133.372C129.606 132.545 129.125 131.481 128.844 130.234C128.622 129.243 127.947 128.35 127.469 127.404C124.861 129.246 124.015 131.768 123.361 134.413C122.226 139.028 120.982 143.608 118.723 147.822C117.929 149.308 117.578 150.838 117.366 152.49C117.146 154.22 116.814 155.986 116.193 157.607C115.187 160.229 113.905 162.72 113.772 165.633C113.727 166.63 113.188 167.83 112.479 168.528C111.35 169.633 110.388 170.789 109.694 172.192C109.577 172.431 109.323 172.704 109.087 172.757C107.828 173.056 106.565 173.492 105.294 173.51C102.073 173.56 98.8436 173.427 95.62 173.328C94.884 173.308 94.1522 173.125 93.5159 173.03L93.4892 173.055Z" fill="white"/>
<path d="M280.834 95.1996C282.105 96.9628 283.671 98.2621 285.907 98.6086C287.607 98.8718 289.215 98.5217 290.599 97.6328C292.87 96.1689 295.511 95.2953 297.414 93.2061C297.987 92.5829 299.105 92.4972 299.896 92.0329C301.232 91.2541 302.512 90.3829 303.802 89.5429C304.603 89.0211 305.388 88.47 306.182 87.9232C307.17 87.2356 308.128 86.4892 309.154 85.8584C311.002 84.7269 312.85 83.5748 314.789 82.6069C315.651 82.1756 316.197 82.8968 316.294 83.7744C316.424 84.9418 316.455 86.1187 316.579 87.288C316.685 88.2855 316.857 89.2766 317.017 90.2715C317.058 90.5182 317.173 90.7629 317.187 91.0109C317.302 93.717 317.402 96.4206 317.497 99.1262C317.514 99.5847 317.452 100.053 317.508 100.507C317.917 103.622 318.397 106.722 318.74 109.843C318.87 111.031 318.65 112.256 318.695 113.456C318.738 114.562 318.918 115.666 319.06 116.762C319.172 117.621 319.376 118.473 319.422 119.339C319.519 121.137 319.528 122.934 319.586 124.737C319.623 125.912 319.646 127.084 319.756 128.251C320.074 131.537 320.436 134.809 320.775 138.095C320.915 139.43 321.035 140.764 321.161 142.096C321.391 144.467 321.635 146.835 321.834 149.215C321.957 150.671 322.041 152.132 322.097 153.595C322.182 155.867 323.345 156.804 325.625 156.4C326.315 156.274 327.007 156.153 328.032 155.966C324.398 158.162 323.411 159.729 322.67 164.187C324.248 165.551 325.967 166.211 328.062 165.447C328.828 165.168 329.687 165.126 330.507 164.981L336.055 163.303C337.739 162.194 339.517 161.39 341.603 161.625L343.292 161.115C343.293 161.073 343.276 161.017 343.295 160.991C344.988 158.788 344.845 156.261 344.734 153.677C344.588 150.243 344.612 146.807 344.617 143.376C344.616 142.633 344.899 141.886 344.925 141.142C344.958 140.109 344.876 139.077 344.828 138.048C344.785 137.1 344.639 136.149 344.688 135.214C344.754 133.885 344.986 132.567 345.099 131.237C345.319 128.601 345.505 125.967 345.689 123.327C345.722 122.874 345.768 122.376 345.622 121.964C344.957 120.044 345.227 118.156 345.654 116.159C347.337 118.425 348.921 120.68 350.635 122.827C351.865 124.364 353.356 125.686 354.575 127.233C358.089 131.693 361.373 136.318 363.938 141.419C364.089 141.715 364.224 142.09 364.473 142.26C367.143 144.057 367.974 147.126 369.561 149.66C370.879 151.757 372.094 152.35 374.377 151.374C376.756 150.355 379.05 149.102 381.48 148.251C383.517 147.54 385.714 147.291 387.822 146.769C388.582 146.581 389.378 146.333 390.009 145.904C391.175 145.101 391.245 144.146 390.705 142.864C389.563 140.114 387.341 139.231 384.613 139.122C384.151 139.105 383.692 139.094 383.229 139.07C383.159 139.064 383.084 139.019 383.098 139.021C384.418 138.302 385.781 137.569 387.134 136.805C387.919 136.363 388.089 135.623 387.495 135.012C385.033 132.491 383.929 129.15 382.078 126.287C379.227 121.878 377.162 117.035 374.11 112.749C372.911 111.066 372.44 108.89 371.403 107.07C369.371 103.498 367.124 100.046 365.067 96.4817C363.746 94.195 362.673 91.7649 361.379 89.4562C360.127 87.2169 358.725 85.0703 357.42 82.8604C356.159 80.726 354.879 78.5973 353.722 76.404C353.258 75.5284 353.19 74.4515 352.789 73.5363C352.501 72.8802 351.982 72.3145 351.533 71.7343C351.258 71.3674 350.929 71.0444 350.626 70.6994C351.084 70.3019 351.487 69.7915 352.019 69.5488C352.526 69.3136 353.165 69.3113 353.743 69.2865C356.308 69.1721 358.862 68.618 361.369 69.9461C363.966 71.3223 366.836 71.2042 369.617 70.6772C371.431 70.3329 373.176 70.2962 374.974 70.591C376.448 70.8271 377.882 70.7959 379.256 70.0326C379.775 69.7462 380.478 69.6632 381.081 69.699C383.087 69.8286 384.796 69.114 386.352 67.9618C387.414 67.1772 387.897 66.1037 387.547 64.7506C387.485 64.5033 387.397 64.2573 387.404 64.0099C387.485 59.4855 383.957 58.0229 380.796 56.3129C380.218 56.0034 379.333 56.2711 378.587 56.258C377.767 56.2469 376.94 56.279 376.132 56.196C374.985 56.0724 373.85 55.8089 372.7 55.6997C369.199 55.354 365.693 55.064 362.188 54.7265C360.224 54.5362 358.246 54.4116 356.314 54.0551C354.517 53.719 352.708 53.2773 351.015 52.5893C348.561 51.5927 346.268 50.2067 343.813 49.2307C340.916 48.075 337.918 47.6385 334.89 48.9838C334.506 49.1544 333.752 48.8915 333.379 48.5816C332.736 48.033 332.22 47.2548 332.724 46.3594C333.13 45.6365 333.683 44.9921 334.179 44.3171C335.572 42.4299 337.224 40.676 338.3 38.6188C339.849 35.6549 341.032 32.5155 339.629 29.0194C338.911 27.239 338.478 25.3449 337.918 23.503C339.104 22.7694 340.153 22.234 341.056 21.5109C341.504 21.1503 341.984 20.3986 341.906 19.9177C341.829 19.4636 341.088 18.9308 340.544 18.7749C338.649 18.2297 336.722 17.8238 334.8 17.3892C330.707 16.4655 326.612 15.5561 322.513 14.6549C322.228 14.591 321.912 14.5366 321.645 14.597C318.704 15.2681 315.626 15.6195 312.883 16.7625C310.665 17.6853 308.824 19.5308 306.86 21.0179C302.244 24.5069 301.001 32.0826 303.095 37.1148C304.223 39.8148 305.532 42.487 307.121 44.9381C308.536 47.1078 310.87 48.2021 313.435 48.7355C314.561 48.9678 315.643 49.4382 316.725 49.8406C317.891 50.2721 318.191 51.3948 318.602 52.3887C318.687 52.6016 318.528 53.0179 318.345 53.2231C317.983 53.6192 317.568 54.0241 317.098 54.2686C313.304 56.2543 311.096 59.9152 308.153 62.7959C307.104 63.8223 306.641 65.4349 305.648 66.533C303.856 68.5202 301.726 70.2007 299.987 72.2265C297.357 75.2854 294.058 77.5101 291.005 80.0493C288.179 82.3969 285.47 84.8799 282.662 87.2424C280.906 88.7211 280.016 90.5381 280.102 92.8369L280.837 95.2533L280.834 95.1996ZM326.319 163.609C325.565 162.023 325.993 160.857 327.131 159.899C327.962 159.205 328.812 158.532 329.681 157.874C331.365 156.608 333.024 155.349 333.406 153.045C333.653 151.552 333.176 150.967 331.73 151.452C330.433 151.885 329.19 152.52 327.997 153.188C326.334 154.12 324.954 153.61 324.544 151.771C324.428 151.254 324.535 150.689 324.473 150.149C324.416 149.669 324.295 149.18 324.142 148.722C323.967 148.216 323.541 147.731 323.533 147.236C323.491 144.119 323.177 141.071 322.366 138.023C321.844 136.06 321.132 133.896 322.476 131.847C322.671 131.549 322.506 130.938 322.375 130.507C322.161 129.781 321.785 129.104 321.61 128.372C321.493 127.876 321.386 127.097 321.648 126.84C323.123 125.447 323.181 123.554 323.321 121.821C323.476 119.892 323.122 117.92 322.925 115.975C322.85 115.234 322.471 114.524 322.424 113.788C322.212 110.45 322.166 107.096 321.512 103.803C321.34 102.948 321.239 101.922 320.706 101.333C319.56 100.07 319.201 98.6653 319.204 97.0622C319.207 96.0658 319.223 95.0656 319.191 94.0661C319.17 93.527 319.161 92.9573 318.982 92.459C318.243 90.3644 317.963 88.2333 318.169 86.0233C318.244 85.196 318.236 84.3189 318.028 83.5228C317.686 82.2421 317.68 81.0782 318.291 79.8639C318.484 79.4713 318.435 78.6817 318.16 78.4036C317.896 78.1423 317.126 78.1367 316.713 78.323C315.801 78.7281 314.991 79.3549 314.113 79.8456C312.613 80.6878 310.818 81.21 309.646 82.3691C307.1 84.8774 304.008 86.3921 300.944 88.0479C298.981 89.1121 297.177 90.4758 295.331 91.7497C293.44 93.0512 291.596 94.42 289.707 95.7277C288.368 96.6509 286.899 97.1701 285.337 96.3331C283.867 95.5504 283.217 94.1721 283.224 92.561C283.234 90.8261 283.731 89.1897 285.131 88.064C287.373 86.2609 289.565 84.3367 292.016 82.8594C295.134 80.9823 297.549 78.4455 299.375 75.4524C301.832 71.4231 305.352 68.627 309.029 65.8993C310.151 65.069 311.105 63.9965 312.075 62.9803C314.467 60.4573 316.586 57.6211 319.25 55.4381C322.071 53.1192 322.883 48.5373 318.053 46.9096C317.818 46.8306 317.57 46.7555 317.346 46.6459C316.1 46.0614 314.789 45.5783 313.623 44.8538C311.805 43.733 310.165 42.2996 307.97 41.8861C307.689 41.8348 307.358 41.553 307.218 41.2952C306.67 40.2541 305.963 39.227 305.739 38.1085C305.306 35.9896 305.161 33.8108 304.912 31.6497C304.857 31.155 304.68 30.595 304.833 30.1599C306.013 26.7419 307.306 23.5829 310.613 21.3419C312.791 19.865 314.93 18.7274 317.39 17.9292C320.047 17.0643 322.707 16.6349 325.428 17.278C327.753 17.8294 330.016 18.6245 332.298 19.3458C334.49 20.0398 334.738 20.6123 334.958 22.8778C335.253 25.9315 335.834 28.9398 338.028 31.3649C338.427 31.8034 338.772 32.6468 338.628 33.1606C338.12 35.005 337.585 36.892 336.698 38.5647C335.648 40.5525 334.187 42.2624 332.324 43.6781C329.989 45.4476 329.62 47.2775 330.971 49.0781C332.001 50.4507 333.52 50.8572 335.197 50.9362C337.87 51.0621 340.535 51.3199 343.199 51.5302C343.4 51.5442 343.619 51.6144 343.788 51.7203C346.282 53.2297 348.864 54.4466 351.821 54.7932C354.065 55.0554 356.265 55.7538 358.511 55.9336C360.431 56.0895 362.264 56.142 363.769 57.555C364.027 57.7975 364.444 57.8962 364.8 58.0136C369.495 59.5529 374.28 59.4422 379.09 58.806C379.737 58.7193 380.496 58.5512 381.051 58.7857C382.963 59.5914 384.67 60.7729 385.739 62.6109C386.738 64.3272 385.749 66.8284 383.878 67.3464C382.352 67.767 380.81 68.0901 379.173 67.5214C378.344 67.2336 377.338 67.2378 376.45 67.363C373.661 67.7496 370.752 66.8431 368.044 68.1254C367.871 68.205 367.629 68.1486 367.417 68.1446C364.868 68.1315 362.324 67.9597 359.781 67.788C356.564 67.5743 353.282 68.2191 350.046 68.6114C347.887 68.8756 347.609 69.7095 348.698 71.5893C349.576 73.1102 350.278 74.7251 351.084 76.2812C351.402 76.901 351.785 77.4876 352.15 78.086C352.647 78.8904 353.605 79.7122 353.576 80.4912C353.477 83.3233 355.267 84.8208 357.155 86.3293C357.514 86.6161 357.979 86.8233 358.219 87.1871C359.684 89.3892 361.269 91.5349 362.495 93.8642C363.948 96.6293 365.151 99.4903 366.002 102.581C366.836 105.615 368.723 108.419 370.475 111.114C371.412 112.562 372.519 113.851 372.904 115.588C373.004 116.029 373.219 116.468 373.471 116.849C374.647 118.634 376.005 120.323 377.015 122.193C379.45 126.686 381.738 131.257 384.093 135.823C382.771 136.222 381.359 136.615 379.968 137.077C377.094 138.034 376.665 138.505 376.689 140.509C379.202 140.915 381.719 141.313 384.223 141.735C385.7 141.984 387.03 142.53 388.077 144.047C387.464 144.539 386.914 145.258 386.209 145.492C382.991 146.526 379.704 147.336 376.5 148.393C373.038 149.543 370.904 148.66 369.589 145.274C368.99 143.73 368.32 142.263 366.897 141.254C366.506 140.977 366.217 140.519 365.941 140.105C363.667 136.743 361.42 133.359 359.113 130.027C358.569 129.244 357.992 128.532 358.288 127.515C358.757 125.921 358.018 124.835 356.991 123.694C355.685 122.241 354.497 120.664 353.446 119.018C352.237 117.127 351.122 115.228 348.938 114.266C347.807 113.769 347.015 112.911 346.355 111.815C345.831 110.944 344.91 110.309 344.159 109.561C342.265 112.131 342.257 114.793 342.471 117.51C342.85 122.249 343.114 126.99 342.3 131.702C342.015 133.363 342.164 134.927 342.484 136.562C342.821 138.274 343.063 140.055 342.985 141.79C342.858 144.596 342.427 147.365 343.219 150.173C343.491 151.134 343.358 152.443 342.906 153.329C342.183 154.734 341.635 156.134 341.419 157.686C341.383 157.949 341.228 158.289 341.021 158.413C339.921 159.093 338.861 159.905 337.66 160.322C334.621 161.385 331.516 162.276 328.426 163.196C327.722 163.409 326.97 163.466 326.336 163.576L326.319 163.609Z" fill="white"/>
</g>
<defs>
<clipPath id="clip0_729_3607">
<rect width="513" height="181" fill="white" transform="translate(-69)"/>
</clipPath>
</defs>
</svg>
