<svg width="447" height="368" viewBox="0 0 447 368" fill="none" xmlns="http://www.w3.org/2000/svg">
<path d="M39.6961 121.876C39.7487 127.388 43.2843 131.029 46.6214 134.783C46.784 134.961 47.0011 135.174 47.2103 135.205C50.1011 135.656 52.9967 136.095 55.8902 136.505C57.1978 136.695 58.5769 136.609 59.8018 137C62.8213 137.947 65.6429 138.938 68.9978 137.819C70.7146 137.247 73.0692 137.755 74.8794 138.442C81.2684 140.869 87.9895 140.797 94.6006 141.567C98.9501 142.076 103.299 142.653 108.029 143.248C106.281 145.18 104.691 147.162 102.855 148.905C99.3153 152.264 95.658 155.506 92.0055 158.737C90.9425 159.673 89.6462 160.334 88.602 161.292C87.2771 162.496 86.1455 163.904 84.8701 165.155C83.626 166.364 82.3582 167.564 81.0011 168.643C77.4236 171.488 73.7776 174.263 70.1742 177.07C68.6687 178.241 67.1582 179.424 65.6715 180.617C62.6883 183.026 59.6227 185.332 56.7714 187.893C54.4865 189.95 51.7374 191.485 49.5562 193.391C46.3983 196.159 42.7408 197.848 39.4228 200.161C36.9576 201.882 34.1824 203.142 31.736 204.884C30.4254 205.816 28.72 207.238 28.6008 208.576C28.3752 210.882 29.4357 213.397 31.9252 214.252C34.645 215.187 37.5387 215.833 40.4 216.12C45.9893 216.679 50.609 219.433 54.9993 221.498C53.8893 224.204 52.9518 226.523 51.9907 228.833C50.9056 231.41 49.5804 233.696 46.845 235.028C45.7021 235.585 44.8801 236.981 44.115 238.137C42.8312 240.051 41.9187 242.242 40.4933 244.028C36.8862 248.566 33.2247 253.069 31.3152 258.636C30.2099 261.871 23.8287 264.12 19.9952 262.354C17.596 261.245 15.004 260.404 12.5259 261.717C11.2868 262.373 10.2814 263.777 9.57225 265.067C8.95497 266.2 9.07233 267.705 8.55904 268.922C7.56652 271.274 8.7854 272.592 10.3649 274.045C16.0624 279.238 23.521 281.59 29.5882 286.186C30.3732 286.772 31.2788 287.199 32.0687 287.772C34.2257 289.336 35.5187 288.244 36.7705 286.442C38.4686 283.991 40.4269 281.716 42.0468 279.219C45.1537 274.448 50.778 272.456 54.1321 267.995C54.9224 266.946 55.7126 265.898 56.4792 264.839C57.0216 264.091 57.4056 263.223 58.0234 262.561C63.1585 256.999 68.4117 251.555 73.4477 245.898C76.1485 242.86 78.4669 239.471 80.6756 236.619C88.5856 239.863 96.3101 243.087 104.088 246.18C105.528 246.757 107.18 246.783 109.359 247.178C109.341 249.25 109.685 251.485 109.24 253.549C107.382 262.132 109.022 270.833 108.109 279.444C107.653 283.763 107.376 288.087 107.082 292.417C106.848 295.995 106.763 299.58 106.54 303.163C106.406 305.313 106.087 307.442 105.942 309.587C105.778 312.113 105.389 314.684 105.766 317.141C105.944 318.295 107.485 319.773 108.698 320.16C115.291 322.226 121.92 324.169 128.63 325.812C132.395 326.732 135.737 324.969 138.541 322.556C141.459 320.037 141.28 316.15 138.588 313.188C136.667 311.083 134.976 308.753 133.172 306.53C132.913 306.215 132.664 305.642 132.393 305.627C129.061 305.44 129.62 302.896 129.889 301.023C130.431 297.169 131.228 293.336 132.226 289.585C132.733 287.672 133.837 285.893 134.827 284.121C136.637 280.857 135.839 277.465 134.807 274.407C133.513 270.604 133.738 267.119 134.949 263.456C135.627 261.432 135.946 259.303 136.528 256.769C138.901 257.603 141.436 258.518 143.994 259.373C150.231 261.46 156.479 263.524 162.721 265.599C163.039 265.701 163.338 265.852 163.658 265.914C164.711 266.151 165.778 266.353 166.835 266.579C167.026 265.437 167.384 264.295 167.38 263.156C167.302 257.536 164.967 252.016 166.595 246.292C166.801 245.586 166.725 244.792 166.715 244.039C166.661 240.759 166.128 240.166 162.812 239.707C162.059 233.741 161.189 227.754 160.605 221.747C160.217 217.761 160.097 213.732 160.128 209.737C160.179 203.768 160.576 197.802 160.611 191.84C160.626 188.256 160.245 184.66 160.053 181.074C160.021 180.409 159.753 179.578 160.045 179.101C161.773 176.274 161.58 173.131 161.724 170.042C161.767 168.992 161.815 167.93 161.867 166.385C164.164 168.214 166.153 169.918 168.256 171.446C170.886 173.343 173.721 174.977 176.305 176.952C180.31 180.023 184.18 183.288 188.1 186.463C191 188.817 193.905 191.159 196.809 193.502C198.485 194.854 200.31 196.047 201.858 197.541C205.098 200.687 210.526 201.707 214.624 199.755C220.083 197.154 222.069 194.101 221.104 188.45C220.349 184.008 219.932 179.247 215.988 176.063C215.267 175.49 214.363 175.161 213.62 174.606C212.367 173.676 211.004 172.812 210.014 171.644C206.761 167.855 203.955 163.584 199.042 161.611C198.888 161.547 198.675 161.46 198.642 161.336C196.895 156.071 191.461 154.12 188.464 149.909C186.212 146.753 183.114 144.206 180.517 141.283C178.9 139.483 177.35 137.586 176.045 135.567C173.46 131.567 170.63 127.827 167.401 124.284C165.291 121.963 164.307 118.619 162.893 115.682C162.363 114.577 161.492 113.153 161.808 112.214C162.466 110.238 163.881 108.614 166.276 108.348C168.499 108.095 170.736 107.876 172.928 107.43C175.998 106.803 179.019 105.99 181.572 105.373C180.588 108.312 179.307 111.738 178.314 115.241C177.338 118.668 178.467 119.935 182.037 119.708C187.375 119.36 192.699 118.812 198.038 118.561C200.26 118.447 202.541 118.73 204.747 119.094C207.033 119.464 208.698 118.58 209.989 116.919C211.312 115.215 211.26 113.28 210.162 111.499C208.951 109.518 207.258 107.77 206.327 105.683C204.582 101.764 203.226 97.6719 201.722 93.6717C204.277 93.0144 206.791 92.4925 209.217 91.7126C211.721 90.9096 212.472 89.0127 211.441 86.6625C210.529 84.5967 209.358 82.6193 208.687 80.4721C207.575 76.8683 205.729 76.4715 201.95 77.9165C201.991 75.7563 201.836 73.6683 202.099 71.6411C203.763 58.4301 198.474 48.5929 187.691 41.3414C186.217 40.3762 184.876 39.4239 183.513 38.4906C179.339 36.7784 175.152 35.0613 170.978 33.3491C165.018 32.2077 159.405 33.1917 154.042 35.9977C152.935 36.5696 151.757 37.0432 150.554 37.4094C146.505 38.6329 143.178 40.9011 140.48 44.1345C139.102 45.7736 137.711 47.4078 136.294 49.0728C134.069 45.9836 131.22 45.4664 127.616 47.2606C125.913 48.1014 124.068 48.648 122.406 49.5605C121.262 50.1869 120.043 51.0317 119.409 52.103C118.592 53.4872 119.077 54.9063 120.411 56.0776C122.01 57.4822 123.429 59.0901 124.934 60.6226C125.006 61.0544 125.085 61.5028 125.158 61.9346C120.436 63.6169 115.691 65.2204 111.019 67.0199C108.62 67.9358 106.251 69.0163 104.049 70.3316C101.787 71.6917 101.293 74.0124 102.962 76.0559C106.049 79.8456 109.45 83.3759 112.645 87.0713C114.807 89.5668 116.788 92.2372 118.972 94.7139C120.165 96.0626 121.611 97.1968 123.413 98.8509L129.094 84.9997C129.844 86.0422 130.14 86.5378 130.512 86.9816C133.637 90.7454 136.476 94.8355 140.033 98.1528C142.09 100.064 141.886 101.506 141.123 103.536C140.293 105.761 138.598 105.537 136.773 105.19C136.067 105.053 135.3 105.099 134.592 105.239C125.184 107.065 115.778 108.92 106.358 110.741C105.655 110.868 104.896 110.793 104.178 110.72C102.736 110.586 101.274 110.098 99.8777 110.26C94.4514 110.89 89.1938 112.866 83.555 111.718C80.252 111.056 76.8805 110.325 73.487 111.776C72.6506 112.126 71.5124 111.895 70.5304 111.755C67.9745 111.4 65.4317 110.912 62.8687 110.54C60.5911 110.216 58.2475 109.546 56.0241 109.799C53.2074 110.113 50.4598 111.205 47.6938 111.97C47.5697 112.002 47.4298 112.208 47.3832 112.355C46.625 115.386 43.9378 116.128 41.578 117.254L39.6696 121.907L39.6961 121.876ZM158.815 108.838C158.007 109.962 157.256 111.692 155.957 112.699C152.548 115.335 152.727 116.892 155.721 120.062C159.296 123.844 165.288 125.178 166.835 130.999C166.941 131.416 167.536 131.688 167.88 132.065C176.931 142.087 186.613 151.549 194.093 162.936C195.732 165.425 198.214 167.649 200.788 169.177C203.795 170.965 206.381 173.037 208.633 175.653C210.376 177.685 215.262 186.345 215.866 188.991C216.072 189.908 216.046 191.02 215.702 191.891C214.567 194.795 209.747 196.007 207.219 194.166C206.544 193.681 205.745 193.367 205.088 192.876C201.763 190.375 197.034 191.028 194.002 187.816C190.757 184.377 187.388 181.04 184.095 177.651C183.939 177.49 183.911 177.188 183.858 176.944C183.015 173.09 179.646 171.778 176.782 169.979C176.299 169.67 175.362 169.591 174.893 169.856C172.443 171.236 171.596 169.516 170.347 167.936C167.998 164.948 165.474 162.082 162.844 159.34C161.455 157.896 159.639 158.441 159.231 160.381C158.646 163.123 158.085 165.943 158.051 168.73C157.987 173.141 157.747 177.271 154.01 180.439C152.355 181.84 152.259 183.728 153.044 185.936C153.554 187.393 153.37 189.397 152.802 190.883C151.656 193.88 151.694 196.96 152.978 199.539C154.659 202.905 155.37 206.205 155.011 209.885C154.256 217.77 155.086 225.542 156.773 233.25C158.604 241.655 160.39 250.07 162.147 258.486C162.521 260.276 161.79 261.348 159.836 260.81C155.324 259.583 150.792 258.404 146.371 256.923C142.969 255.792 139.773 254.093 136.392 252.913C133.311 251.844 132.703 252.551 132.726 255.736C132.736 257.875 132.494 260.05 132.052 262.143C131.03 266.965 128.751 271.812 128.975 276.535C129.246 282.123 125.824 286.987 126.957 292.499C126.984 292.635 126.873 292.839 126.772 292.95C123.997 296.069 125.581 299.367 126.33 302.641C127.265 306.713 129.191 310.055 132.76 312.434C134.194 313.396 135.419 314.731 136.557 316.043C137.085 316.648 137.654 317.963 137.37 318.387C136.728 319.344 135.545 320.606 134.617 320.572C130.254 320.433 125.858 320.141 121.555 319.416C118.82 318.959 116.287 317.366 113.568 316.833C109.963 316.131 109.857 316.254 111.071 312.855C111.266 312.311 111.545 311.733 111.534 311.187C111.468 307.125 111.195 303.061 111.251 299.008C111.322 294.004 111.128 288.904 112.048 284.027C112.625 280.964 113.101 278.081 112.87 274.963C112.715 272.875 113.258 270.74 113.458 268.632C113.534 267.803 113.566 266.984 113.59 266.148C113.729 261.824 113.856 257.494 113.983 253.165C114.052 250.836 114.109 248.502 114.218 246.176C114.313 244.287 113.398 243.344 111.649 242.778C105.524 240.821 99.3981 238.835 93.3252 236.719C89.7893 235.476 86.2297 234.224 83.6695 231.177C83.2597 230.69 81.8104 230.373 81.391 230.687C79.0702 232.494 76.7677 234.392 74.7346 236.512C73.134 238.185 72.0598 240.365 70.485 242.076C66.2101 246.756 61.7083 251.246 57.4759 255.958C55.5377 258.116 54.1096 260.72 52.2517 262.953C50.2419 265.387 48.0172 267.636 45.8538 269.938C43.9886 271.918 41.9887 273.788 40.1849 275.821C37.7341 278.587 35.4131 281.476 33.0788 284.262C32.0797 283.658 31.391 283.21 30.6828 282.808C26.1233 280.245 21.513 277.771 17.0258 275.099C15.7804 274.352 14.7582 273.129 13.8045 271.975C12.679 270.598 13.5008 267.649 15.0856 266.926C15.8306 269.839 18.181 270.29 20.6302 270.601C23.5027 270.961 24.5485 268.243 26.0471 267.055C27.2531 267.425 28.4441 268.135 28.8183 267.831C31.0462 266.013 33.5734 264.277 35.0659 261.921C36.9976 258.901 37.8688 255.223 39.557 252.019C40.9836 249.318 43.2822 247.058 44.5546 244.294C46.179 240.772 48.3181 237.989 51.8257 236.294C52.1533 236.137 52.4052 235.658 52.5324 235.281C53.5986 232.141 56.1544 230.402 58.6725 228.62C59.765 227.848 60.8576 227.076 61.8865 226.222C63.8511 224.574 63.6775 221.924 61.3586 220.889C55.17 218.143 48.8792 215.646 42.7004 212.876C40.3459 211.827 38.2099 210.313 35.9695 209.019C36.0146 208.774 36.0666 208.546 36.1117 208.301C40.9233 206.67 43.7416 201.96 48.6593 200.442C49.2156 200.268 50.0673 199.272 49.9506 199.016C49.181 197.245 50.5094 196.708 51.5408 196.119C54.9171 194.204 58.0833 192.091 60.159 188.686C60.4924 188.143 61.0819 187.719 61.6163 187.329C66.6795 183.665 71.879 180.21 76.1965 175.561C77.5066 174.157 79.8604 172.64 81.4603 172.894C83.3928 173.216 84.3837 172.624 85.6253 171.691C86.5289 171.008 87.4605 170.392 88.3614 169.749C89.2614 170.797 89.9916 171.652 90.8916 172.7C91.909 170.219 92.6591 168.087 93.6771 166.078C94.0334 165.378 95.0343 164.998 95.7177 164.447C96.9432 163.452 98.5098 162.638 99.295 161.366C100.728 159.056 101.405 156.255 102.925 154.036C105.405 150.422 107.88 146.515 112.493 145.301C115.165 144.595 115.323 142.455 115.131 140.726C114.935 139.009 113.036 138.369 111.227 138.39C108.56 138.405 105.882 138.485 103.207 138.386C97.3617 138.18 91.3621 139.296 85.7836 136.481C85.3949 136.28 84.8095 136.525 84.3144 136.516C83.0767 136.494 81.8286 136.564 80.6089 136.397C76.3318 135.78 72.0845 135.022 67.8143 134.421C63.6132 133.821 59.3893 133.378 55.1952 132.795C54.6721 132.719 54.2468 132.101 53.7174 131.939C52.782 131.653 51.7692 131.251 50.8538 131.389C48.489 131.75 47.2031 131 46.6908 128.669C46.4162 127.447 46.0795 126.241 45.6641 125.059C44.4058 121.506 46.1153 118.588 49.8596 117.836C51.0663 117.596 52.4893 117.403 53.3294 116.639C56.6968 113.597 60.7059 113.314 64.8009 113.801C69.3952 114.354 73.8073 115.318 78.6394 114.582C83.512 113.849 88.6576 114.781 93.6722 115.188C94.3312 115.236 95.1356 116.315 95.4809 117.095C96.6949 119.742 97.657 120.234 100.369 119.127C101.764 118.563 103.209 118.046 104.473 117.261C113.896 111.448 124.601 110.209 135.188 109.088C139.78 108.601 143.68 108.481 145.168 103.198L158.818 108.797L158.815 108.838ZM151.484 101.851C149.367 100.29 147.362 98.5244 145.081 97.2283C141.197 95.0112 138.52 91.7776 136.815 87.7924C132.19 76.9794 131.942 66.201 138.035 55.8049C140.438 51.7019 142.161 47.0977 147.008 44.7042C153.43 41.5427 159.857 38.5075 167.036 37.8607C169.925 37.604 173.08 37.8165 175.793 38.735C180.269 40.2521 184.179 42.8124 187.81 46.1184C191.607 49.5615 193.036 53.7803 193.902 58.2539C195.033 64.0423 195.451 69.9818 196.071 75.8659C196.194 77.0532 196.288 78.7833 195.601 79.4445C191.542 83.3953 189.63 88.4624 187.768 93.5776C187.738 93.6488 187.662 93.7006 187.604 93.7739C185.336 97.142 181.941 98.7307 178.469 100.676C174.512 102.894 170.678 102.985 166.581 103.551C161.339 104.271 156.468 103.549 151.46 101.841L151.484 101.851ZM207.885 89.1836C205.068 89.2622 202.9 89.2463 200.744 89.402C199.841 89.4753 198.592 89.6839 198.177 90.2902C197.673 91.0125 197.423 92.5325 197.853 93.2078C200.39 97.1882 200.759 101.693 201.383 106.151C201.638 107.961 201.698 109.705 203.379 111.046C204.045 111.583 203.987 113.042 204.199 113.878C197.262 114.61 190.747 115.294 183.325 116.062C186.979 102.323 193.721 91.2911 204.369 82.3198C205.478 84.4802 206.453 86.3917 207.892 89.2003L207.885 89.1836ZM121.416 90.6136C121.231 90.5239 120.623 90.3854 120.255 89.9988C115.499 85.0111 110.752 79.9997 106.091 74.9128C105.803 74.6007 106.04 73.214 106.42 72.9957C107.368 72.4415 108.65 71.8163 109.597 72.0387C112.436 72.7178 114.55 71.6851 116.726 70.0957C120.373 67.4181 124.636 66.518 129.208 66.0087C128.04 71.1869 128.37 76.3278 125.529 80.8892C123.711 83.8037 122.796 87.2833 121.428 90.6185L121.416 90.6136ZM129.993 59.7721C129.812 59.8087 129.631 59.8452 129.449 59.8818C127.889 57.3699 126.324 54.8698 124.58 52.061C126.629 51.9306 128.396 51.8098 130.473 51.6772C130.299 54.6009 130.152 57.1889 130.005 59.7769L129.993 59.7721Z" fill="white"/>
<path d="M218.557 193.167C219.653 197.294 221.615 200.774 225.477 202.975C228.414 204.647 231.614 205.13 234.779 204.465C239.977 203.366 245.44 203.609 250.403 201.104C251.893 200.361 254.005 200.985 255.784 200.686C258.783 200.19 261.746 199.486 264.704 198.846C266.542 198.448 268.371 197.985 270.212 197.536C272.511 196.965 274.794 196.265 277.122 195.824C281.309 195.039 285.513 194.217 289.752 193.795C291.639 193.607 292.135 195.313 291.695 196.992C291.115 199.227 290.345 201.41 289.751 203.643C289.245 205.549 288.864 207.489 288.458 209.428C288.36 209.909 288.4 210.439 288.252 210.905C286.562 215.954 284.847 220.989 283.119 226.023C282.828 226.876 282.386 227.694 282.17 228.566C280.733 234.571 279.436 240.6 277.874 246.571C277.277 248.843 276.013 250.94 275.253 253.175C274.556 255.234 274.109 257.388 273.601 259.5C273.202 261.156 272.979 262.863 272.454 264.484C271.37 267.854 270.123 271.16 268.963 274.511C268.207 276.695 267.425 278.864 266.807 281.083C265.083 287.339 263.449 293.6 261.762 299.871C261.082 302.421 260.365 304.954 259.66 307.489C258.418 312.004 257.202 316.521 255.896 321.032C255.099 323.791 254.225 326.533 253.302 329.257C251.862 333.489 253.339 336.023 257.809 336.877C259.165 337.127 260.519 337.39 262.534 337.763C254.318 339.254 251.405 341.44 246.912 349.108C248.853 352.716 251.545 355.13 255.929 355.194C257.532 355.217 259.137 355.741 260.746 356.048L272.111 356.848C275.983 355.989 279.811 355.757 283.477 357.648L286.937 357.892C286.968 357.817 286.976 357.702 287.03 357.667C291.685 354.806 293.199 350.066 294.809 345.242C296.954 338.836 299.412 332.543 301.832 326.246C302.352 324.881 303.397 323.708 303.967 322.359C304.753 320.486 305.327 318.534 305.963 316.612C306.549 314.84 306.949 312.991 307.696 311.308C308.75 308.914 310.103 306.656 311.245 304.294C313.5 299.606 315.692 294.9 317.885 290.182C318.263 289.373 318.697 288.491 318.719 287.631C318.846 283.642 320.668 280.363 322.856 276.994C324.354 282.332 325.678 287.581 327.318 292.723C328.496 296.406 330.305 299.876 331.457 303.57C334.775 314.218 337.558 325.007 338.684 336.169C338.754 336.817 338.737 337.6 339.075 338.087C342.715 343.254 342.085 349.471 343.22 355.233C344.167 360.006 345.981 361.946 350.859 361.75C355.942 361.542 361.035 360.846 366.095 360.984C370.334 361.102 374.544 362.183 378.782 362.7C380.309 362.885 381.944 362.987 383.406 362.64C386.109 361.982 386.909 360.277 386.819 357.545C386.653 351.696 383.194 348.521 378.26 346.412C377.425 346.058 376.589 345.716 375.755 345.349C375.631 345.289 375.525 345.153 375.55 345.167C378.478 344.769 381.496 344.378 384.518 343.922C386.269 343.659 387.101 342.419 386.439 340.881C383.691 334.53 384.01 327.622 382.624 321.071C380.485 310.982 380.097 300.644 377.503 290.639C376.483 286.71 377.147 282.385 376.522 278.317C375.3 270.337 373.599 262.426 372.326 254.443C371.506 249.319 371.244 244.107 370.489 238.963C369.763 233.975 368.698 229.053 367.854 224.082C367.037 219.28 366.182 214.476 365.598 209.639C365.362 207.707 365.993 205.682 365.9 203.721C365.832 202.315 365.276 200.913 364.86 199.534C364.613 198.668 364.234 197.844 363.922 196.999C365.041 196.589 366.14 195.934 367.287 195.86C368.384 195.783 369.559 196.226 370.637 196.585C375.428 198.169 380.507 198.938 384.178 203.131C387.978 207.474 393.332 209.265 398.807 210.242C402.382 210.879 405.611 212.033 408.706 213.832C411.247 215.296 413.901 216.242 416.96 215.801C418.114 215.638 419.463 215.978 420.546 216.465C424.139 218.107 427.779 217.99 431.445 216.963C433.945 216.265 435.587 214.632 435.895 211.902C435.955 211.405 435.966 210.891 436.152 210.442C439.479 202.19 434.028 197.037 429.426 191.686C428.583 190.714 426.77 190.586 425.409 190.04C423.911 189.446 422.369 188.926 420.944 188.209C418.924 187.18 417.025 185.902 414.991 184.897C408.804 181.813 402.572 178.828 396.372 175.756C392.9 174.033 389.356 172.421 386.058 170.415C382.994 168.54 379.983 166.464 377.358 164.017C373.552 160.47 370.315 156.321 366.494 152.812C361.986 148.663 356.788 145.765 350.282 146.116C349.457 146.161 348.258 145.151 347.79 144.321C346.994 142.864 346.594 141.074 348.148 139.782C349.402 138.739 350.87 137.943 352.255 137.05C356.139 134.559 360.404 132.494 363.825 129.469C368.752 125.111 373.13 120.173 373.009 112.772C372.941 109.001 373.477 105.22 373.742 101.446C376.435 100.928 378.737 100.679 380.904 99.9831C381.981 99.6347 383.389 98.5896 383.583 97.6519C383.761 96.7645 382.776 95.268 381.886 94.6011C378.79 92.2746 375.537 90.1813 372.312 88.0387C365.447 83.4797 358.566 78.9454 351.672 74.423C351.194 74.1065 350.652 73.7855 350.118 73.7094C344.247 72.8846 338.347 71.3764 332.508 71.5566C327.788 71.7 323.11 73.8005 318.459 75.1572C307.532 78.3349 299.928 91.376 300.239 102.082C300.412 107.828 300.939 113.651 302.135 119.263C303.209 124.237 306.726 127.879 311.061 130.653C312.964 131.867 314.621 133.487 316.326 134.983C318.163 136.591 317.926 138.863 317.983 140.975C317.989 141.426 317.404 142.079 316.925 142.328C315.98 142.801 314.935 143.255 313.899 143.375C305.539 144.368 298.912 149.545 291.485 152.776C288.837 153.927 286.855 156.564 284.259 157.886C279.573 160.281 274.481 161.877 269.865 164.38C262.887 168.158 255.267 169.935 247.877 172.462C241.039 174.796 234.319 177.46 227.504 179.834C223.241 181.321 220.33 184.035 218.873 188.316L218.525 193.267L218.557 193.167ZM254.02 350.598C253.748 347.16 255.354 345.318 258.117 344.356C260.129 343.662 262.163 343.021 264.221 342.42C268.203 341.273 272.134 340.123 274.453 336.159C275.956 333.591 275.49 332.182 272.496 332.062C269.809 331.95 267.08 332.246 264.422 332.637C260.713 333.186 258.537 331.284 259.077 327.62C259.226 326.589 259.82 325.628 260.086 324.592C260.317 323.67 260.438 322.689 260.479 321.74C260.515 320.688 260.072 319.5 260.406 318.585C262.518 312.833 264.082 307.016 264.735 300.852C265.155 296.883 265.367 292.411 269.275 289.588C269.843 289.178 269.969 287.94 270.031 287.057C270.148 285.574 269.933 284.067 270.126 282.603C270.26 281.609 270.61 280.104 271.272 279.816C274.96 278.289 276.396 274.854 277.87 271.77C279.511 268.337 280.245 264.467 281.251 260.758C281.633 259.345 281.435 257.776 281.866 256.392C283.823 250.114 286.094 243.923 287.206 237.419C287.492 235.729 288.028 233.774 287.463 232.32C286.245 229.2 286.573 226.369 287.704 223.427C288.41 221.6 289.142 219.774 289.786 217.917C290.126 216.912 290.508 215.859 290.53 214.819C290.645 210.456 291.627 206.347 293.558 202.433C294.277 200.966 294.879 199.35 295.056 197.743C295.329 195.152 296.134 193.01 298.109 191.208C298.74 190.623 299.204 189.138 298.894 188.435C298.595 187.771 297.183 187.222 296.294 187.275C294.336 187.381 292.408 187.965 290.45 188.252C287.104 188.749 283.442 188.453 280.475 189.761C274.039 192.586 267.296 193.204 260.508 194.102C256.155 194.682 251.884 195.925 247.601 196.973C243.214 198.04 238.867 199.264 234.479 200.343C231.371 201.101 228.309 201.027 226.03 198.398C223.881 195.933 223.655 192.947 224.8 189.993C226.037 186.815 228.098 184.157 231.46 183.07C236.844 181.328 242.221 179.328 247.759 178.329C254.804 177.064 261.019 174.094 266.475 169.876C273.818 164.196 282.245 161.524 290.912 159.087C293.557 158.347 296.061 157.045 298.557 155.858C304.72 152.898 310.604 149.172 317.03 147.028C323.839 144.743 328.549 136.898 320.823 130.53C320.447 130.221 320.045 129.91 319.711 129.552C317.833 127.607 315.766 125.803 314.133 123.656C311.582 120.327 309.577 116.547 305.837 114.253C305.357 113.962 304.948 113.213 304.873 112.642C304.598 110.347 304.021 107.966 304.395 105.756C305.088 101.562 306.352 97.4596 307.414 93.3173C307.66 92.3704 307.729 91.2182 308.316 90.5267C312.884 85.0757 317.476 80.1793 325.124 78.3778C330.161 77.1897 334.887 76.5968 339.964 76.8514C345.45 77.122 350.637 78.1943 355.181 81.2784C359.063 83.9174 362.66 86.9605 366.343 89.8812C369.88 92.6887 369.935 93.9139 368.746 98.2271C367.143 104.041 366.097 109.972 368.421 115.959C368.846 117.043 368.886 118.833 368.262 119.676C366.034 122.708 363.725 125.798 360.921 128.249C357.597 131.165 353.714 133.283 349.297 134.579C343.768 136.195 341.804 139.297 343.019 143.548C343.946 146.789 346.45 148.598 349.475 149.917C354.294 152.017 359.006 154.355 363.75 156.604C364.11 156.771 364.463 157.053 364.697 157.365C368.217 161.882 372.103 165.922 377.29 168.627C381.226 170.679 384.775 173.5 388.774 175.401C392.188 177.03 395.518 178.409 397.288 182.056C397.591 182.682 398.289 183.155 398.86 183.62C406.399 189.73 415.264 192.874 424.542 195.07C425.791 195.364 427.303 195.586 428.157 196.405C431.102 199.222 433.407 202.586 434.079 206.709C434.706 210.558 431.133 214.459 427.334 214.102C424.236 213.807 421.178 213.321 418.572 211.132C417.252 210.024 415.401 209.328 413.684 208.937C408.291 207.696 403.585 203.996 397.713 204.457C397.339 204.482 396.935 204.209 396.548 204.053C391.876 202.246 387.326 200.151 382.777 198.057C377.021 195.414 370.541 194.302 364.323 192.759C360.173 191.734 359.078 193.071 359.756 197.284C360.299 200.691 360.454 204.147 360.842 207.569C360.99 208.929 361.28 210.274 361.531 211.629C361.878 213.453 363.059 215.632 362.459 217.042C360.288 222.174 362.522 226.175 364.929 230.266C365.387 231.044 366.095 231.749 366.28 232.585C367.425 237.654 368.827 242.703 369.441 247.837C370.167 253.931 370.367 260.026 369.758 266.296C369.158 272.45 370.653 278.92 371.977 285.094C372.68 288.409 373.807 291.548 373.294 295.009C373.168 295.887 373.254 296.845 373.449 297.72C374.354 301.821 375.66 305.873 376.203 310.012C377.517 319.966 378.507 329.961 379.623 339.99C376.916 339.8 374.047 339.533 371.169 339.408C365.219 339.156 364.101 339.72 362.737 343.417C367.065 345.92 371.407 348.411 375.708 350.938C378.247 352.428 380.306 354.36 381.161 357.879C379.691 358.354 378.175 359.289 376.716 359.225C370.08 358.873 363.477 358.061 356.85 357.762C349.686 357.45 346.388 354.338 346.352 347.2C346.337 343.946 346.136 340.782 344.232 337.935C343.71 337.153 343.501 336.11 343.286 335.156C341.471 327.391 339.722 319.606 337.828 311.874C337.379 310.055 336.819 308.345 338.078 306.685C340.058 304.086 339.464 301.575 338.379 298.761C337.001 295.179 335.929 291.453 335.154 287.695C334.265 283.377 333.551 279.11 330.216 275.815C328.488 274.112 327.636 271.982 327.195 269.509C326.845 267.543 325.6 265.732 324.745 263.833C319.463 267.229 317.579 272.11 316.062 277.249C313.429 286.217 310.582 295.106 305.778 303.189C304.089 306.04 303.263 309.016 302.703 312.242C302.118 315.621 301.311 319.061 299.949 322.192C297.744 327.257 295.007 332.04 294.49 337.75C294.314 339.705 293.15 342.014 291.697 343.326C289.382 345.4 287.393 347.587 285.907 350.285C285.657 350.743 285.133 351.259 284.665 351.342C282.167 351.822 279.65 352.57 277.153 352.497C270.826 352.322 264.498 351.786 258.178 351.316C256.735 351.214 255.315 350.793 254.074 350.551L254.02 350.598Z" fill="white"/>
</svg>
