<svg width="679" height="684" viewBox="0 0 679 684" fill="none" xmlns="http://www.w3.org/2000/svg">
<g clip-path="url(#clip0_729_629)">
<path d="M460.23 514.167C461.325 518.294 463.287 521.774 467.149 523.975C470.086 525.647 473.286 526.13 476.451 525.465C481.649 524.366 487.112 524.609 492.075 522.104C493.565 521.361 495.677 521.985 497.456 521.686C500.456 521.19 503.419 520.486 506.377 519.846C508.214 519.448 510.044 518.985 511.885 518.536C514.184 517.965 516.466 517.265 518.794 516.824C522.982 516.039 527.185 515.217 531.424 514.795C533.311 514.607 533.807 516.313 533.368 517.992C532.787 520.227 532.017 522.41 531.424 524.643C530.917 526.549 530.537 528.489 530.131 530.428C530.033 530.909 530.072 531.439 529.924 531.905C528.234 536.954 526.519 541.989 524.792 547.023C524.5 547.876 524.058 548.694 523.842 549.566C522.406 555.571 521.109 561.6 519.546 567.571C518.95 569.843 517.686 571.94 516.925 574.175C516.228 576.234 515.781 578.388 515.273 580.5C514.874 582.156 514.652 583.863 514.127 585.484C513.042 588.854 511.796 592.16 510.636 595.511C509.879 597.695 509.097 599.864 508.479 602.083C506.755 608.339 505.121 614.6 503.435 620.871C502.755 623.421 502.037 625.954 501.332 628.489C500.091 633.004 498.874 637.521 497.568 642.032C496.771 644.791 495.898 647.533 494.974 650.257C493.534 654.489 495.011 657.023 499.481 657.877C500.837 658.127 502.192 658.39 504.206 658.763C495.99 660.254 493.077 662.44 488.584 670.108C490.525 673.716 493.217 676.13 497.601 676.194C499.204 676.217 500.81 676.741 502.418 677.048L513.783 677.848C517.655 676.989 521.483 676.757 525.149 678.648L528.61 678.892C528.641 678.817 528.649 678.702 528.702 678.667C533.357 675.806 534.872 671.066 536.482 666.242C538.627 659.836 541.085 653.543 543.504 647.246C544.024 645.881 545.069 644.708 545.639 643.359C546.425 641.486 546.999 639.534 547.635 637.612C548.222 635.84 548.621 633.991 549.369 632.308C550.423 629.914 551.775 627.656 552.917 625.294C555.172 620.606 557.364 615.9 559.557 611.182C559.935 610.373 560.369 609.491 560.391 608.631C560.518 604.642 562.341 601.363 564.528 597.994C566.026 603.332 567.351 608.581 568.991 613.723C570.169 617.406 571.978 620.876 573.129 624.57C576.448 635.218 579.23 646.007 580.356 657.169C580.426 657.817 580.41 658.6 580.748 659.087C584.388 664.254 583.758 670.471 584.892 676.233C585.839 681.006 587.653 682.946 592.531 682.75C597.615 682.542 602.707 681.846 607.767 681.984C612.006 682.102 616.217 683.183 620.454 683.7C621.981 683.885 623.616 683.987 625.078 683.64C627.781 682.982 628.581 681.277 628.491 678.545C628.326 672.696 624.866 669.521 619.932 667.412C619.097 667.058 618.262 666.716 617.428 666.349C617.304 666.289 617.198 666.153 617.222 666.167C620.151 665.769 623.168 665.378 626.191 664.922C627.942 664.659 628.773 663.419 628.112 661.881C625.363 655.53 625.683 648.622 624.296 642.071C622.157 631.982 621.769 621.644 619.175 611.639C618.156 607.71 618.819 603.385 618.195 599.317C616.973 591.337 615.271 583.426 613.998 575.443C613.178 570.319 612.916 565.107 612.162 559.963C611.435 554.975 610.37 550.053 609.526 545.082C608.709 540.28 607.854 535.476 607.271 530.639C607.035 528.707 607.665 526.682 607.572 524.721C607.504 523.315 606.948 521.913 606.532 520.534C606.285 519.668 605.907 518.844 605.594 517.999C606.714 517.589 607.812 516.934 608.96 516.86C610.056 516.783 611.231 517.226 612.309 517.585C617.1 519.169 622.18 519.938 625.85 524.131C629.651 528.474 635.005 530.265 640.48 531.242C644.054 531.879 647.284 533.033 650.378 534.832C652.919 536.296 655.573 537.242 658.633 536.801C659.786 536.638 661.136 536.978 662.218 537.465C665.811 539.107 669.451 538.99 673.117 537.963C675.617 537.265 677.259 535.632 677.567 532.902C677.628 532.405 677.638 531.891 677.824 531.442C681.151 523.19 675.701 518.037 671.098 512.686C670.255 511.714 668.442 511.586 667.082 511.04C665.583 510.446 664.041 509.926 662.616 509.209C660.597 508.18 658.697 506.902 656.664 505.897C650.477 502.813 644.245 499.828 638.044 496.756C634.572 495.033 631.028 493.421 627.73 491.415C624.666 489.54 621.656 487.464 619.03 485.017C615.224 481.47 611.987 477.321 608.166 473.812C603.659 469.663 598.46 466.765 591.954 467.116C591.13 467.161 589.93 466.151 589.463 465.321C588.667 463.864 588.267 462.074 589.821 460.782C591.075 459.739 592.543 458.943 593.927 458.05C597.811 455.559 602.076 453.494 605.498 450.469C610.425 446.111 614.802 441.173 614.681 433.772C614.613 430.001 615.149 426.22 615.415 422.446C618.108 421.928 620.41 421.679 622.576 420.983C623.653 420.635 625.061 419.59 625.256 418.652C625.434 417.764 624.448 416.268 623.558 415.601C620.462 413.275 617.209 411.181 613.985 409.039C607.119 404.48 600.239 399.945 593.345 395.423C592.866 395.107 592.324 394.786 591.791 394.709C585.92 393.885 580.02 392.376 574.181 392.557C569.461 392.7 564.783 394.801 560.131 396.157C549.204 399.335 541.6 412.376 541.911 423.082C542.084 428.828 542.611 434.651 543.807 440.263C544.882 445.237 548.398 448.879 552.733 451.653C554.637 452.867 556.294 454.487 557.998 455.983C559.835 457.591 559.598 459.863 559.655 461.975C559.662 462.426 559.077 463.079 558.597 463.328C557.653 463.801 556.607 464.255 555.572 464.375C547.212 465.368 540.584 470.545 533.157 473.776C530.509 474.927 528.527 477.564 525.932 478.886C521.245 481.281 516.154 482.877 511.537 485.38C504.559 489.158 496.939 490.935 489.549 493.462C482.711 495.796 475.991 498.46 469.177 500.834C464.914 502.321 462.002 505.035 460.546 509.316L460.197 514.267L460.23 514.167ZM495.692 671.598C495.421 668.16 497.026 666.318 499.789 665.356C501.801 664.662 503.836 664.021 505.893 663.42C509.875 662.273 513.806 661.123 516.126 657.159C517.628 654.591 517.163 653.182 514.168 653.062C511.481 652.95 508.752 653.246 506.094 653.637C502.385 654.186 500.209 652.284 500.749 648.62C500.899 647.589 501.493 646.628 501.758 645.592C501.99 644.67 502.11 643.689 502.151 642.74C502.187 641.688 501.744 640.5 502.078 639.585C504.19 633.833 505.755 628.016 506.407 621.852C506.828 617.883 507.04 613.411 510.947 610.588C511.515 610.178 511.641 608.94 511.703 608.057C511.82 606.574 511.606 605.067 511.799 603.603C511.933 602.609 512.283 601.104 512.945 600.816C516.633 599.289 518.068 595.854 519.543 592.77C521.183 589.337 521.918 585.467 522.923 581.758C523.305 580.345 523.108 578.776 523.539 577.392C525.495 571.114 527.766 564.923 528.879 558.419C529.165 556.729 529.7 554.774 529.135 553.32C527.917 550.2 528.245 547.369 529.376 544.427C530.082 542.6 530.814 540.774 531.458 538.917C531.798 537.912 532.181 536.859 532.202 535.819C532.317 531.456 533.299 527.347 535.231 523.433C535.95 521.966 536.551 520.35 536.729 518.743C537.001 516.152 537.806 514.01 539.781 512.208C540.413 511.623 540.877 510.138 540.567 509.435C540.267 508.771 538.855 508.222 537.966 508.275C536.008 508.381 534.08 508.965 532.122 509.252C528.776 509.749 525.114 509.453 522.147 510.761C515.711 513.586 508.969 514.204 502.181 515.102C497.828 515.682 493.557 516.925 489.273 517.973C484.886 519.04 480.539 520.264 476.151 521.343C473.044 522.101 469.982 522.027 467.703 519.398C465.553 516.933 465.327 513.947 466.472 510.993C467.71 507.815 469.77 505.157 473.132 504.07C478.517 502.328 483.894 500.328 489.431 499.329C496.476 498.064 502.691 495.094 508.147 490.876C515.49 485.196 523.917 482.524 532.584 480.087C535.229 479.347 537.733 478.045 540.23 476.858C546.393 473.898 552.276 470.172 558.703 468.028C565.511 465.743 570.222 457.898 562.495 451.53C562.119 451.221 561.717 450.91 561.383 450.552C559.505 448.607 557.438 446.803 555.805 444.656C553.255 441.327 551.249 437.547 547.51 435.253C547.03 434.962 546.62 434.213 546.545 433.642C546.27 431.347 545.693 428.966 546.067 426.756C546.76 422.562 548.025 418.46 549.086 414.317C549.333 413.37 549.401 412.218 549.989 411.527C554.556 406.076 559.149 401.179 566.796 399.378C571.833 398.19 576.559 397.597 581.636 397.851C587.123 398.122 592.309 399.194 596.853 402.278C600.736 404.917 604.333 407.961 608.016 410.881C611.553 413.689 611.607 414.914 610.418 419.227C608.815 425.041 607.769 430.972 610.094 436.959C610.518 438.043 610.559 439.833 609.935 440.676C607.706 443.708 605.397 446.798 602.593 449.249C599.27 452.165 595.386 454.283 590.97 455.579C585.44 457.195 583.477 460.297 584.692 464.548C585.618 467.789 588.122 469.598 591.148 470.917C595.966 473.017 600.678 475.355 605.422 477.604C605.783 477.771 606.135 478.053 606.37 478.365C609.889 482.882 613.775 486.922 618.962 489.627C622.899 491.679 626.448 494.5 630.446 496.401C633.861 498.03 637.19 499.409 638.961 503.056C639.263 503.682 639.961 504.155 640.532 504.62C648.071 510.73 656.936 513.874 666.214 516.07C667.464 516.364 668.975 516.586 669.829 517.405C672.775 520.222 675.079 523.586 675.751 527.709C676.378 531.558 672.806 535.459 669.006 535.102C665.909 534.807 662.85 534.321 660.245 532.132C658.924 531.024 657.074 530.328 655.356 529.937C649.963 528.696 645.257 524.996 639.386 525.457C639.012 525.482 638.607 525.209 638.221 525.053C633.548 523.246 628.999 521.151 624.449 519.057C618.693 516.414 612.214 515.302 605.995 513.759C601.845 512.734 600.75 514.071 601.429 518.284C601.972 521.691 602.126 525.147 602.514 528.569C602.662 529.929 602.953 531.274 603.204 532.629C603.55 534.453 604.731 536.632 604.131 538.042C601.961 543.174 604.194 547.175 606.601 551.266C607.06 552.044 607.767 552.749 607.952 553.585C609.097 558.654 610.5 563.703 611.113 568.837C611.839 574.931 612.039 581.026 611.431 587.296C610.831 593.45 612.326 599.92 613.649 606.094C614.353 609.409 615.479 612.548 614.966 616.009C614.84 616.887 614.927 617.845 615.122 618.72C616.026 622.821 617.333 626.873 617.875 631.012C619.189 640.966 620.18 650.961 621.296 660.99C618.588 660.8 615.72 660.533 612.841 660.408C606.891 660.156 605.773 660.72 604.409 664.417C608.738 666.92 613.08 669.411 617.381 671.938C619.919 673.428 621.978 675.36 622.834 678.879C621.363 679.354 619.847 680.289 618.389 680.225C611.753 679.873 605.149 679.061 598.523 678.762C591.358 678.45 588.061 675.338 588.024 668.2C588.009 664.946 587.809 661.782 585.904 658.935C585.382 658.153 585.173 657.11 584.958 656.156C583.143 648.391 581.394 640.606 579.5 632.874C579.051 631.055 578.491 629.345 579.75 627.685C581.73 625.086 581.137 622.575 580.052 619.761C578.674 616.179 577.602 612.453 576.827 608.695C575.937 604.377 575.224 600.11 571.888 596.815C570.16 595.112 569.309 592.982 568.867 590.509C568.518 588.543 567.272 586.732 566.418 584.833C561.135 588.229 559.251 593.11 557.734 598.249C555.101 607.217 552.255 616.106 547.451 624.189C545.761 627.04 544.936 630.016 544.375 633.242C543.791 636.621 542.984 640.061 541.621 643.192C539.416 648.257 536.68 653.04 536.162 658.75C535.986 660.705 534.822 663.014 533.37 664.326C531.055 666.4 529.066 668.587 527.58 671.285C527.329 671.743 526.805 672.259 526.337 672.342C523.839 672.822 521.323 673.57 518.825 673.497C512.498 673.322 506.17 672.786 499.851 672.316C498.408 672.214 496.987 671.793 495.747 671.551L495.692 671.598Z" fill="#8FB8DF"/>
<path d="M213.303 190.168C209.797 194.423 210.162 199.485 210.303 204.505C210.313 204.746 210.342 205.049 210.482 205.207C212.406 207.412 214.34 209.61 216.292 211.786C217.171 212.772 218.282 213.593 218.968 214.681C220.671 217.349 222.194 219.922 225.483 221.223C227.165 221.89 228.641 223.794 229.585 225.484C232.916 231.452 238.108 235.72 242.674 240.562C245.677 243.749 248.636 246.989 251.874 250.487C249.294 250.841 246.801 251.337 244.274 251.49C239.403 251.785 234.518 251.915 229.643 252.039C228.227 252.072 226.809 251.744 225.393 251.806C223.605 251.876 221.833 252.226 220.051 252.364C218.321 252.489 216.579 252.592 214.845 252.545C210.276 252.422 205.699 252.202 201.135 252.033C199.229 251.961 197.311 251.895 195.406 251.852C191.572 251.778 187.741 251.572 183.911 251.698C180.838 251.804 177.746 251.21 174.85 251.267C170.652 251.355 166.765 250.295 162.736 249.932C159.742 249.664 156.807 248.844 153.813 248.604C152.21 248.474 149.989 248.466 149.038 249.414C147.382 251.034 146.576 253.642 147.932 255.898C149.413 258.363 151.213 260.72 153.219 262.779C157.139 266.803 158.904 271.884 160.938 276.288C158.347 277.646 156.138 278.819 153.916 279.969C151.427 281.245 148.943 282.142 145.991 281.402C144.758 281.094 143.231 281.634 141.901 282.027C139.687 282.666 137.579 283.757 135.339 284.208C129.658 285.362 123.958 286.454 118.915 289.488C115.988 291.254 109.655 288.872 107.856 285.054C106.733 282.661 105.289 280.35 102.547 279.761C101.176 279.467 99.5032 279.895 98.1306 280.426C96.9289 280.897 96.0512 282.124 94.875 282.726C92.602 283.889 92.6874 285.682 92.9627 287.81C93.9845 295.451 98.1822 302.05 99.8711 309.472C100.096 310.425 100.514 311.334 100.75 312.281C101.396 314.867 103.088 314.862 105.206 314.288C108.082 313.503 111.045 313.021 113.892 312.151C119.339 310.497 124.927 312.59 130.365 311.331C131.644 311.036 132.924 310.742 134.192 310.425C135.088 310.201 135.941 309.783 136.84 309.674C144.349 308.719 151.873 307.929 159.368 306.837C163.39 306.248 167.345 305.145 170.871 304.382C174.84 311.954 178.681 319.391 182.646 326.763C183.378 328.131 184.626 329.213 186.04 330.917C184.693 332.492 183.519 334.424 181.851 335.718C174.907 341.095 170.566 348.812 164.328 354.817C161.201 357.832 158.207 360.964 155.197 364.09C152.716 366.679 150.345 369.369 147.87 371.969C146.384 373.529 144.77 374.954 143.279 376.503C141.529 378.332 139.577 380.05 138.286 382.174C137.679 383.172 137.909 385.295 138.589 386.371C142.307 392.194 146.133 397.945 150.214 403.52C152.505 406.646 156.197 407.446 159.897 407.402C163.751 407.35 166.114 404.259 165.958 400.259C165.842 397.412 166.046 394.541 166.095 391.678C166.099 391.271 166.277 390.671 166.078 390.486C163.649 388.199 165.713 386.611 167.123 385.35C170.018 382.748 173.093 380.325 176.27 378.096C177.889 376.957 179.879 376.305 181.776 375.585C185.262 374.25 186.833 371.14 188.01 368.135C189.465 364.391 191.879 361.867 195.162 359.841C196.983 358.728 198.597 357.303 200.673 355.737C201.953 357.903 203.305 360.233 204.714 362.534C208.147 368.144 211.603 373.742 215.048 379.346C215.225 379.629 215.357 379.936 215.563 380.19C216.216 381.049 216.903 381.89 217.567 382.743C218.448 381.992 219.457 381.347 220.187 380.473C223.742 376.12 225.504 370.391 230.433 367.055C231.045 366.648 231.497 365.991 231.974 365.408C234.043 362.862 234.017 362.065 231.772 359.58C235.033 354.528 238.218 349.385 241.636 344.41C243.903 341.108 246.402 337.946 248.995 334.907C252.874 330.37 257.016 326.058 260.877 321.515C263.195 318.781 265.216 315.782 267.376 312.913C267.779 312.383 268.108 311.574 268.638 311.397C271.78 310.344 273.654 307.813 275.751 305.541C276.46 304.765 277.179 303.983 278.213 302.833C278.795 305.711 279.223 308.295 279.849 310.817C280.643 313.962 281.762 317.036 282.47 320.211C283.562 325.138 284.424 330.128 285.384 335.081C286.09 338.748 286.807 342.41 287.524 346.072C287.937 348.186 288.567 350.272 288.791 352.412C289.249 356.905 292.749 361.178 297.142 362.319C302.994 363.839 306.479 362.779 309.375 357.831C311.654 353.945 314.398 350.032 313.426 345.056C313.243 344.154 312.762 343.32 312.55 342.418C312.189 340.9 311.701 339.361 311.695 337.83C311.641 332.837 312.24 327.761 309.748 323.091C309.67 322.943 309.563 322.739 309.618 322.623C311.667 317.468 308.762 312.478 309.175 307.327C309.481 303.461 308.747 299.519 308.639 295.61C308.559 293.192 308.593 290.743 308.893 288.357C309.486 283.632 309.725 278.948 309.532 274.158C309.409 271.023 310.807 267.831 311.613 264.672C311.918 263.485 312.168 261.835 313.013 261.319C314.788 260.229 316.916 259.895 318.921 261.233C320.786 262.469 322.64 263.741 324.605 264.809C327.358 266.304 330.194 267.624 332.546 268.794C329.903 270.411 326.718 272.211 323.704 274.254C320.753 276.25 320.802 277.946 323.682 280.069C327.993 283.236 332.421 286.241 336.67 289.484C338.446 290.825 340.009 292.509 341.464 294.207C342.977 295.961 344.821 296.355 346.878 295.914C348.986 295.46 350.191 293.945 350.496 291.875C350.843 289.58 350.671 287.152 351.301 284.955C352.486 280.832 354.08 276.827 355.501 272.796C357.881 273.937 360.141 275.154 362.5 276.118C364.934 277.114 366.729 276.144 367.451 273.681C368.082 271.513 368.458 269.246 369.325 267.171C370.791 263.696 369.633 262.204 365.81 260.88C367.231 259.252 368.455 257.554 369.961 256.171C379.733 247.127 382.012 236.193 378.42 223.704C377.912 222.017 377.498 220.425 377.055 218.834C374.96 214.838 372.859 210.83 370.764 206.834C366.935 202.126 362.005 199.269 356.094 197.968C354.878 197.694 353.672 197.299 352.515 196.805C348.628 195.138 344.622 194.734 340.476 195.474C338.366 195.842 336.25 196.199 334.094 196.562C334.378 192.766 332.529 190.537 328.615 189.593C326.771 189.141 325.007 188.373 323.147 188.002C321.868 187.746 320.391 187.609 319.217 188.022C317.701 188.556 317.159 189.954 317.428 191.709C317.748 193.813 317.8 195.957 317.967 198.098C317.744 198.475 317.517 198.87 317.294 199.247C312.597 197.498 307.933 195.673 303.197 194.046C300.772 193.204 298.263 192.507 295.731 192.098C293.124 191.685 291.253 193.143 291.216 195.782C291.142 200.669 291.475 205.56 291.544 210.444C291.595 213.746 291.394 217.064 291.473 220.366C291.518 222.165 291.897 223.964 292.212 226.39L305.472 219.439C305.375 220.72 305.283 221.289 305.282 221.868C305.254 226.76 304.796 231.718 305.387 236.546C305.732 239.332 304.648 240.305 302.758 241.369C300.692 242.539 299.538 241.277 298.363 239.837C297.911 239.278 297.294 238.82 296.662 238.471C288.284 233.818 279.889 229.188 271.506 224.523C270.885 224.168 270.353 223.622 269.85 223.104C268.832 222.075 268.027 220.76 266.853 219.986C262.293 216.978 256.997 215.109 253.418 210.603C251.314 207.972 249.203 205.243 245.672 204.171C244.806 203.901 244.083 202.992 243.421 202.253C241.693 200.338 240.06 198.328 238.337 196.395C236.801 194.681 235.438 192.661 233.573 191.424C231.214 189.853 228.408 188.921 225.798 187.728C225.683 187.673 225.443 187.741 225.312 187.824C222.782 189.656 220.248 188.496 217.717 187.84L213.263 190.175L213.303 190.168ZM312.894 256.809C311.552 257.15 309.864 257.992 308.222 257.926C303.916 257.752 303.051 259.059 303.305 263.412C303.61 268.608 307.339 273.484 304.779 278.935C304.592 279.323 304.872 279.914 304.894 280.424C305.377 293.919 306.704 307.392 305.106 320.922C304.76 323.882 305.229 327.181 306.218 330.006C307.37 333.31 308.016 336.56 308.059 340.011C308.086 342.689 306.256 352.462 305.017 354.877C304.585 355.711 303.849 356.546 303.026 356.992C300.288 358.484 295.818 356.312 295.067 353.276C294.862 352.472 294.452 351.717 294.265 350.918C293.328 346.865 289.287 344.323 289.032 339.912C288.76 335.193 288.326 330.47 287.985 325.757C287.969 325.534 288.143 325.284 288.259 325.064C290.092 321.57 288.357 318.399 287.321 315.179C287.15 314.632 286.484 313.968 285.954 313.869C283.19 313.35 283.649 311.489 283.708 309.475C283.832 305.676 283.743 301.859 283.493 298.068C283.358 296.069 281.617 295.317 280.057 296.541C277.846 298.264 275.602 300.062 273.783 302.174C270.897 305.51 268.056 308.519 263.157 308.54C260.989 308.548 259.701 309.932 258.882 312.127C258.335 313.571 256.905 314.987 255.514 315.759C252.709 317.316 250.757 319.7 250.081 322.5C249.203 326.158 247.625 329.142 244.983 331.729C239.333 337.281 234.968 343.765 231.302 350.753C227.297 358.366 223.252 365.957 219.184 373.531C218.319 375.142 217.069 375.493 215.919 373.824C213.254 369.982 210.543 366.165 208.11 362.186C206.233 359.132 204.879 355.775 203.049 352.697C201.378 349.897 200.457 350.047 198.426 352.501C197.057 354.145 195.474 355.655 193.789 356.972C189.905 360.007 185.042 362.252 182.175 366.013C178.788 370.466 173.039 371.988 170.361 376.938C170.295 377.059 170.078 377.144 169.93 377.164C165.799 377.767 164.89 381.311 163.357 384.3C161.454 388.018 160.779 391.816 161.981 395.933C162.46 397.592 162.54 399.403 162.567 401.14C162.582 401.942 162.172 403.315 161.681 403.457C160.574 403.776 158.857 403.982 158.168 403.359C154.918 400.446 151.739 397.394 148.911 394.072C147.11 391.962 146.196 389.113 144.457 386.956C142.149 384.1 141.989 384.126 145.104 382.305C145.603 382.014 146.189 381.75 146.531 381.325C149.094 378.173 151.499 374.886 154.149 371.818C157.423 368.032 160.554 364.003 164.396 360.86C166.808 358.886 169.027 356.985 170.856 354.449C172.08 352.751 173.869 351.466 175.378 349.98C175.97 349.395 176.521 348.788 177.077 348.163C179.965 344.942 182.847 341.709 185.73 338.476C187.28 336.736 188.825 334.986 190.405 333.275C191.693 331.891 191.599 330.579 190.623 329.022C187.193 323.583 183.78 318.122 180.492 312.595C178.584 309.37 176.664 306.121 176.663 302.142C176.663 301.505 175.757 300.33 175.234 300.3C172.295 300.191 169.311 300.163 166.391 300.478C164.089 300.73 161.864 301.708 159.558 302.005C153.274 302.839 146.939 303.381 140.668 304.266C137.795 304.672 135.027 305.746 132.168 306.261C129.064 306.832 125.914 307.123 122.777 307.494C120.075 307.81 117.341 307.955 114.652 308.352C110.996 308.893 107.361 309.612 103.781 310.244C103.405 309.139 103.166 308.352 102.882 307.589C101.04 302.694 99.1011 297.834 97.3845 292.902C96.9112 291.529 96.9156 289.935 96.9275 288.438C96.9514 286.66 99.4776 284.93 101.156 285.396C99.8529 288.106 101.362 289.963 103.037 291.776C105.005 293.9 107.555 292.491 109.466 292.546C110.152 293.605 110.607 294.915 111.089 294.922C113.964 294.964 117.016 295.26 119.673 294.417C123.096 293.346 126.128 291.091 129.482 289.724C132.311 288.573 135.525 288.321 138.278 287.023C141.786 285.372 145.214 284.617 148.99 285.576C149.342 285.666 149.843 285.462 150.183 285.254C153.02 283.536 156.095 283.849 159.169 284.104C160.502 284.216 161.835 284.327 163.172 284.336C165.737 284.337 167.309 282.196 166.199 279.913C163.227 273.829 160.016 267.871 157.067 261.775C155.939 259.458 155.278 256.924 154.394 254.493C154.586 254.335 154.773 254.193 154.965 254.035C159.699 255.881 164.886 254.088 169.628 256.088C170.166 256.313 171.458 256.098 171.534 255.827C172.084 253.976 173.446 254.42 174.615 254.632C178.432 255.337 182.215 255.757 185.995 254.484C186.599 254.283 187.323 254.338 187.984 254.383C194.217 254.834 200.421 255.533 206.717 254.751C208.623 254.519 211.401 254.872 212.462 256.096C213.735 257.585 214.875 257.769 216.425 257.853C217.557 257.911 218.666 258.039 219.769 258.126C219.784 259.508 219.794 260.632 219.808 262.014C222.183 260.769 224.129 259.618 226.201 258.735C226.924 258.428 227.934 258.781 228.812 258.799C230.391 258.825 232.113 259.21 233.533 258.741C236.116 257.893 238.436 256.185 241.027 255.464C245.251 254.292 249.659 252.893 253.972 254.93C256.472 256.109 257.97 254.571 258.935 253.125C259.889 251.684 258.847 249.972 257.448 248.824C255.397 247.121 253.294 245.459 251.31 243.663C246.967 239.745 241.656 236.74 239.195 230.996C239.027 230.593 238.421 230.404 238.048 230.078C237.114 229.265 236.113 228.516 235.287 227.603C232.41 224.379 229.645 221.067 226.762 217.861C223.931 214.699 220.982 211.643 218.146 208.498C217.794 208.104 217.866 207.357 217.565 206.892C217.033 206.071 216.516 205.112 215.727 204.629C213.684 203.384 213.181 201.983 214.289 199.869C214.864 198.756 215.382 197.617 215.825 196.444C217.147 192.914 220.333 191.78 223.683 193.613C224.761 194.205 225.975 194.973 227.11 194.928C231.645 194.765 234.897 197.127 237.719 200.134C240.88 203.513 243.639 207.089 247.812 209.634C252.014 212.207 255.354 216.231 258.932 219.768C259.405 220.229 259.327 221.572 259.09 222.391C258.317 225.199 258.737 226.194 261.525 227.092C262.957 227.557 264.396 228.091 265.868 228.303C276.822 229.913 285.815 235.85 294.642 241.802C298.472 244.382 301.535 246.8 306.072 243.712L312.922 256.779L312.894 256.809ZM311.775 246.744C311.159 244.187 310.759 241.545 309.846 239.086C308.298 234.89 308.328 230.691 309.587 226.544C313.001 215.289 319.744 206.877 331.097 202.837C335.576 201.241 339.856 198.824 345.107 200.109C352.059 201.82 358.931 203.63 364.844 207.752C367.222 209.415 369.5 211.607 370.987 214.055C373.438 218.096 374.784 222.571 375.438 227.438C376.131 232.517 374.511 236.666 372.296 240.649C369.439 245.808 365.938 250.624 362.628 255.529C361.959 256.517 360.918 257.902 359.966 257.966C354.317 258.38 349.594 261.03 344.878 263.748C344.809 263.784 344.717 263.774 344.626 263.793C340.723 264.913 337.102 263.946 333.192 263.202C328.735 262.354 325.741 259.958 322.24 257.756C317.764 254.936 314.499 251.249 311.763 246.721L311.775 246.744ZM363.107 273.325C360.9 271.573 359.25 270.166 357.499 268.898C356.76 268.373 355.67 267.73 354.962 267.927C354.111 268.156 352.943 269.159 352.837 269.952C352.22 274.632 349.604 278.319 347.215 282.133C346.246 283.683 345.17 285.057 345.594 287.165C345.759 288.005 344.775 289.085 344.4 289.861C338.618 285.959 333.19 282.292 327.013 278.106C338.649 269.937 350.906 265.827 364.83 265.808C364.29 268.175 363.807 270.266 363.102 273.342L363.107 273.325ZM295.982 218.798C295.898 218.611 295.521 218.113 295.488 217.581C295.055 210.702 294.644 203.812 294.347 196.919C294.328 196.495 295.401 195.585 295.833 195.663C296.915 195.848 298.298 196.194 298.881 196.974C300.618 199.32 302.9 199.889 305.589 200.072C310.104 200.368 313.946 202.42 317.775 204.972C313.55 208.185 310.495 212.334 305.386 213.999C302.119 215.06 299.18 217.136 295.988 218.81L295.982 218.798ZM322.388 200.702C322.225 200.613 322.063 200.524 321.901 200.436C322.322 197.509 322.731 194.588 323.203 191.316C324.856 192.533 326.287 193.578 327.962 194.813C325.948 196.939 324.171 198.826 322.394 200.713L322.388 200.702Z" fill="#8FB8DF"/>
<path d="M458.198 516.019C454.346 517.859 450.423 518.621 446.244 517.106C443.067 515.954 440.626 513.829 439.08 510.988C436.549 506.317 432.823 502.314 431.514 496.911C431.115 495.295 429.271 494.091 428.345 492.542C426.779 489.937 425.395 487.224 423.965 484.556C423.077 482.899 422.244 481.206 421.393 479.513C420.338 477.392 419.392 475.2 418.219 473.142C416.103 469.444 414.005 465.71 411.579 462.208C410.499 460.649 408.878 461.377 407.884 462.8C406.559 464.69 405.395 466.691 404.079 468.591C402.956 470.212 401.725 471.759 400.512 473.324C400.208 473.711 399.779 474.024 399.521 474.439C396.771 478.999 394.048 483.568 391.334 488.146C390.873 488.921 390.537 489.787 390.013 490.517C386.37 495.503 382.62 500.398 379.085 505.458C377.741 507.385 376.964 509.706 375.755 511.734C374.638 513.599 373.287 515.336 372.008 517.091C371.006 518.468 369.85 519.744 368.955 521.195C367.092 524.204 365.382 527.296 363.582 530.351C362.409 532.343 361.264 534.344 359.975 536.253C356.328 541.62 352.619 546.923 348.936 552.272C347.435 554.442 345.971 556.63 344.497 558.809C341.863 562.681 339.212 566.535 336.623 570.453C335.038 572.849 333.517 575.29 332.04 577.76C329.751 581.599 326.864 582.116 323.316 579.266C322.247 578.395 321.169 577.534 319.579 576.242C323.768 583.465 323.991 587.1 321.064 595.491C317.058 596.352 313.476 595.866 310.585 592.569C309.529 591.363 308.089 590.48 306.813 589.454L298.838 581.317C296.983 577.812 294.678 574.746 290.863 573.18L288.434 570.702C288.471 570.63 288.554 570.55 288.545 570.486C287.707 565.087 290.336 560.862 292.966 556.509C296.454 550.724 299.654 544.773 302.881 538.85C303.583 537.569 303.8 536.013 304.457 534.705C305.374 532.892 306.489 531.19 307.541 529.46C308.51 527.865 309.659 526.362 310.456 524.702C311.596 522.348 312.439 519.855 313.498 517.454C315.607 512.699 317.77 507.98 319.941 503.252C320.313 502.439 320.703 501.537 321.344 500.963C324.3 498.281 325.616 494.768 326.763 490.919C321.727 493.238 316.871 495.631 311.892 497.715C308.324 499.204 304.509 500.075 300.95 501.592C290.69 505.966 280.67 510.84 271.44 517.216C270.901 517.583 270.316 518.103 269.726 518.161C263.432 518.738 259.106 523.247 253.982 526.118C249.734 528.489 247.08 528.365 244.069 524.523C240.932 520.517 238.161 516.188 234.777 512.424C231.94 509.272 228.388 506.766 225.248 503.874C224.118 502.831 222.98 501.652 222.297 500.314C221.046 497.829 221.826 496.114 223.965 494.412C228.527 490.748 233.187 491.325 237.99 493.716C238.801 494.122 239.603 494.537 240.423 494.934C240.549 494.989 240.722 494.982 240.695 494.972C239.1 492.484 237.442 489.932 235.831 487.335C234.896 485.832 235.301 484.395 236.901 483.902C243.52 481.878 248.573 477.158 254.461 473.968C263.53 469.058 271.655 462.654 280.956 458.145C284.608 456.375 287.471 453.067 290.974 450.906C297.844 446.665 304.971 442.834 311.876 438.629C316.309 435.933 320.448 432.754 324.855 429.995C329.125 427.316 333.563 424.937 337.895 422.358C342.082 419.868 346.295 417.406 350.356 414.715C351.981 413.643 353.115 411.85 354.668 410.65C355.783 409.79 357.211 409.305 358.531 408.728C359.35 408.355 360.223 408.109 361.069 407.8C360.655 406.682 360.443 405.42 359.755 404.499C359.103 403.614 358.004 403.006 357.032 402.417C352.721 399.796 348.843 396.426 343.272 396.348C337.501 396.268 332.667 393.352 328.374 389.815C325.573 387.507 322.601 385.794 319.225 384.604C316.463 383.618 314.023 382.209 312.376 379.594C311.752 378.61 310.619 377.802 309.547 377.294C305.968 375.621 303.697 372.774 302.104 369.316C301.015 366.959 301.194 364.651 303.074 362.647C303.413 362.279 303.797 361.938 304.02 361.505C308.147 353.624 315.604 354.435 322.662 354.472C323.949 354.483 325.221 355.782 326.518 356.464C327.942 357.22 329.337 358.057 330.807 358.678C332.9 359.548 335.104 360.167 337.187 361.064C343.546 363.777 349.858 366.589 356.216 369.32C359.778 370.848 363.303 372.502 366.968 373.713C370.381 374.831 373.914 375.779 377.479 376.192C382.646 376.791 387.904 376.568 393.053 377.203C399.134 377.947 404.711 380.028 408.659 385.21C409.159 385.867 410.706 386.126 411.641 385.944C413.267 385.606 414.889 384.751 414.866 382.73C414.847 381.099 414.503 379.465 414.285 377.832C413.664 373.26 412.473 368.673 412.559 364.107C412.685 357.53 413.608 350.997 419.323 346.292C422.239 343.899 424.771 341.041 427.473 338.393C426.122 336.007 424.82 334.092 423.946 331.991C423.513 330.945 423.396 329.195 423.985 328.44C424.545 327.729 426.323 327.51 427.408 327.755C431.186 328.605 434.889 329.726 438.61 330.793C446.532 333.067 454.444 335.368 462.356 337.687C462.907 337.846 463.503 338.051 463.907 338.408C468.34 342.344 473.312 345.86 476.959 350.424C479.909 354.111 481.341 359.035 483.323 363.457C487.985 373.837 482.981 388.081 474.627 394.782C470.138 398.374 465.363 401.747 460.313 404.473C455.829 406.879 450.777 406.561 445.855 405.057C443.696 404.394 441.388 404.183 439.145 403.854C436.729 403.497 435.153 405.15 433.507 406.476C433.16 406.763 433.042 407.632 433.163 408.158C433.414 409.184 433.747 410.275 434.326 411.141C438.989 418.151 439.341 426.553 441.694 434.304C442.533 437.066 441.81 440.285 442.485 443.118C443.698 448.239 445.783 453.151 446.868 458.289C448.514 466.051 452.099 473.006 454.964 480.272C457.618 486.992 459.945 493.836 462.553 500.565C464.184 504.775 464.004 508.751 461.688 512.635L458.143 516.109L458.198 516.019ZM315.322 591.044C318.117 589.022 318.479 586.606 317.421 583.878C316.645 581.896 315.815 579.931 314.94 577.975C313.232 574.199 311.56 570.46 313.075 566.125C314.058 563.316 315.432 562.758 317.465 564.96C319.291 566.934 320.834 569.204 322.259 571.482C324.245 574.662 327.104 575.087 329.544 572.3C330.232 571.518 330.579 570.443 331.196 569.57C331.748 568.796 332.417 568.068 333.113 567.422C333.891 566.713 335.083 566.28 335.563 565.433C338.575 560.096 341.991 555.135 346.262 550.644C349.012 547.751 352.28 544.691 351.898 539.886C351.842 539.187 352.704 538.289 353.336 537.67C354.389 536.619 355.676 535.806 356.666 534.71C357.336 533.964 358.255 532.722 358.046 532.032C356.818 528.233 358.504 524.914 359.897 521.792C361.448 518.317 363.919 515.25 366.092 512.081C366.921 510.874 368.244 510.007 369.018 508.782C372.531 503.224 375.774 497.481 380.007 492.419C381.108 491.106 382.25 489.431 383.724 488.919C386.889 487.824 388.832 485.74 390.34 482.972C391.274 481.25 392.19 479.51 393.187 477.815C393.731 476.905 394.286 475.932 395.063 475.241C398.312 472.326 400.804 468.915 402.534 464.907C403.184 463.409 404.025 461.904 405.134 460.727C406.931 458.84 408.04 456.839 408.133 454.167C408.169 453.307 408.999 451.991 409.735 451.771C410.435 451.569 411.768 452.288 412.304 453C413.492 454.56 414.297 456.407 415.348 458.084C417.138 460.954 419.737 463.551 420.663 466.658C422.683 473.391 426.582 478.926 430.298 484.677C432.677 488.369 434.499 492.426 436.477 496.368C438.507 500.4 440.393 504.504 442.414 508.545C443.851 511.403 445.892 513.687 449.371 513.719C452.642 513.758 455.062 511.995 456.569 509.209C458.188 506.206 458.876 502.914 457.525 499.649C455.363 494.42 453.401 489.029 450.573 484.164C446.97 477.979 445.204 471.322 444.88 464.433C444.447 455.159 441.02 447.01 437.259 438.83C436.108 436.337 435.477 433.586 434.763 430.915C433.023 424.303 432.047 417.408 429.515 411.124C426.842 404.458 429.764 395.786 439.621 397.543C440.101 397.629 440.598 397.734 441.087 397.756C443.785 397.926 446.499 398.331 449.192 398.183C453.38 397.968 457.558 397.046 461.73 398.406C462.262 398.583 463.098 398.41 463.581 398.097C465.507 396.819 467.694 395.715 469.135 393.998C471.88 390.752 474.185 387.131 476.651 383.638C477.213 382.836 478.046 382.037 478.191 381.142C479.383 374.131 480.135 367.46 476.551 360.468C474.191 355.862 471.579 351.879 468.095 348.177C464.333 344.174 460.155 340.92 454.862 339.458C450.336 338.212 445.687 337.444 441.076 336.533C436.645 335.659 435.677 336.411 433.163 340.112C429.774 345.101 425.936 349.741 419.869 351.851C418.769 352.231 417.379 353.36 417.141 354.382C416.277 358.043 415.42 361.805 415.371 365.528C415.304 369.949 416.208 374.28 418.083 378.483C420.436 383.741 419.347 387.247 415.322 389.077C412.253 390.471 409.253 389.737 406.288 388.288C401.565 385.979 396.731 383.906 391.943 381.751C391.582 381.585 391.139 381.499 390.75 381.523C385.029 381.769 379.433 381.428 374.012 379.232C369.898 377.563 365.45 376.689 361.41 374.876C357.957 373.332 354.749 371.69 350.824 372.705C350.151 372.88 349.338 372.655 348.615 372.522C339.075 370.74 330.935 366.027 323.25 360.385C322.216 359.623 321.068 358.616 319.891 358.497C315.836 358.079 311.781 358.504 308.206 360.664C304.868 362.682 304.212 367.931 306.947 370.592C309.179 372.76 311.531 374.775 314.887 375.34C316.587 375.627 318.316 376.586 319.727 377.64C324.167 380.943 330.035 382.129 333.489 386.899C333.713 387.2 334.182 387.331 334.552 387.525C338.956 389.912 343.5 392.019 348.044 394.126C353.786 396.797 358.833 401.011 364.038 404.746C367.508 407.243 367.2 408.943 363.551 411.157C360.605 412.951 357.873 415.074 355.016 416.996C353.884 417.765 352.671 418.415 351.477 419.102C349.863 420.02 347.438 420.533 346.753 421.904C344.252 426.883 339.757 427.775 335.082 428.593C334.192 428.748 333.196 428.666 332.44 429.067C327.838 431.481 323.084 433.685 318.776 436.545C313.665 439.941 308.894 443.739 304.513 448.266C300.215 452.712 294.319 455.766 288.759 458.76C285.779 460.373 282.658 461.549 280.355 464.183C279.768 464.848 278.983 465.403 278.19 465.822C274.48 467.79 270.548 469.421 267.044 471.691C258.612 477.141 250.359 482.865 241.997 488.515C243.897 490.453 245.959 492.465 247.92 494.576C251.968 498.944 252.263 500.161 250.332 503.596C245.62 501.922 240.909 500.23 236.197 498.592C233.417 497.624 230.611 497.309 227.377 498.937C227.968 500.365 228.239 502.126 229.233 503.195C233.802 508.021 238.7 512.523 243.223 517.376C248.103 522.63 252.61 523.124 258.07 518.526C260.557 516.428 263.097 514.53 266.499 514.136C267.434 514.026 268.363 513.509 269.229 513.055C276.318 509.405 283.381 505.691 290.497 502.122C292.173 501.286 293.839 500.603 294.287 498.569C294.983 495.377 297.279 494.202 300.126 493.204C303.746 491.932 307.279 490.333 310.643 488.488C314.508 486.367 318.22 484.145 322.891 484.55C325.308 484.762 327.482 484.03 329.652 482.763C331.375 481.755 333.562 481.53 335.561 480.95C336.399 487.174 333.903 491.772 330.972 496.258C325.849 504.076 320.924 512.004 317.882 520.901C316.806 524.035 315.075 526.593 312.981 529.111C310.787 531.746 308.69 534.59 307.189 537.657C304.76 542.618 302.892 547.802 298.878 551.897C297.504 553.298 296.499 555.681 296.442 557.637C296.362 560.744 295.986 563.677 294.895 566.557C294.708 567.045 294.655 567.778 294.895 568.188C296.148 570.401 297.209 572.803 298.884 574.658C303.118 579.362 307.627 583.834 312.081 588.342C313.093 589.375 314.335 590.184 315.323 590.972L315.322 591.044Z" fill="#8FB8DF"/>
<path d="M171.032 2.41481C166.583 5.67011 165.685 10.6652 164.579 15.5645C164.529 15.8003 164.482 16.1013 164.579 16.289C165.898 18.9008 167.228 21.5097 168.581 24.1002C169.189 25.2733 170.063 26.3439 170.459 27.5674C171.448 30.5733 172.287 33.4437 175.153 35.5174C176.618 36.5795 177.577 38.7891 178.073 40.6605C179.825 47.2665 183.8 52.6864 187.027 58.5078C189.149 62.3386 191.214 66.2092 193.487 70.3994C190.898 70.1043 188.361 69.9685 185.875 69.4912C181.082 68.573 176.316 67.4904 171.562 66.4048C170.182 66.0868 168.889 65.4185 167.502 65.1284C165.752 64.7532 163.948 64.654 162.188 64.347C160.48 64.0407 158.767 63.7094 157.099 63.2357C152.702 61.9864 148.322 60.641 143.941 59.3483C142.112 58.8074 140.271 58.2694 138.435 57.7563C134.738 56.7361 131.078 55.5889 127.336 54.764C124.332 54.1065 121.482 52.7668 118.662 52.1052C114.573 51.1519 111.069 49.1639 107.255 47.8158C104.421 46.8152 101.779 45.2945 98.9376 44.3218C97.4163 43.8 95.2669 43.2428 94.1103 43.9255C92.1047 45.0863 90.6791 47.4137 91.4354 49.9349C92.2603 52.6901 93.4216 55.4182 94.8566 57.9101C97.6594 62.7782 98.1132 68.1376 98.9943 72.9082C96.1483 73.5833 93.7173 74.1731 91.2803 74.738C88.5532 75.3585 85.924 75.6133 83.2472 74.1669C82.1282 73.5628 80.5147 73.7084 79.1295 73.7604C76.8261 73.8325 74.5139 74.3678 72.2315 74.2505C66.4414 73.9641 60.6491 73.6123 55.0121 75.3051C51.7391 76.2923 46.1922 72.4176 45.3936 68.273C44.8965 65.6771 44.0697 63.0804 41.5585 61.8318C40.3029 61.2075 38.576 61.2087 37.1145 61.3841C35.8338 61.543 34.6799 62.5149 33.3913 62.8074C30.9014 63.3717 30.5406 65.1303 30.2811 67.2601C29.3813 74.9167 31.8166 82.3485 31.6174 89.9574C31.5992 90.9366 31.78 91.9212 31.7742 92.8975C31.7602 95.5619 33.4011 95.9762 35.5951 95.9432C38.5765 95.8947 41.5664 96.1603 44.5396 96.0215C50.2274 95.7657 55.1235 99.1756 60.704 99.301C62.0167 99.3321 63.3293 99.3632 64.636 99.3694C65.5601 99.3742 66.4897 99.18 67.3875 99.2964C74.8996 100.228 82.3849 101.325 89.9173 102.12C93.9602 102.544 98.0653 102.453 101.67 102.586C103.643 110.905 105.525 119.061 107.544 127.184C107.915 128.69 108.856 130.048 109.806 132.049C108.111 133.241 106.495 134.823 104.559 135.665C96.5009 139.157 90.386 145.561 82.8566 149.836C79.0809 151.983 75.4061 154.278 71.7158 156.563C68.6713 158.457 65.7093 160.477 62.6677 162.385C60.8428 163.529 58.9265 164.51 57.0986 165.642C54.9508 166.981 52.6338 168.163 50.8576 169.902C50.023 170.719 49.7201 172.833 50.1129 174.044C52.2757 180.605 54.5604 187.124 57.1358 193.535C58.5821 197.131 61.9622 198.819 65.5577 199.692C69.3053 200.594 72.3593 198.184 73.1976 194.27C73.7888 191.482 74.6967 188.75 75.4524 185.989C75.5568 185.595 75.8777 185.058 75.7311 184.829C73.9424 182.013 76.3353 180.984 78.0138 180.112C81.4617 178.306 85.0407 176.719 88.67 175.345C90.5206 174.642 92.6101 174.502 94.6261 174.274C98.334 173.843 100.625 171.218 102.509 168.597C104.845 165.329 107.808 163.48 111.491 162.33C113.53 161.702 115.446 160.72 117.845 159.716C118.55 162.131 119.284 164.724 120.08 167.301C122.019 173.586 123.983 179.865 125.934 186.147C126.036 186.466 126.088 186.796 126.225 187.093C126.645 188.086 127.103 189.071 127.535 190.062C128.575 189.552 129.712 189.177 130.635 188.51C135.156 185.172 138.281 180.057 143.881 178.043C144.575 177.8 145.176 177.275 145.782 176.829C148.416 174.873 148.588 174.095 147.028 171.132C151.437 167.043 155.795 162.847 160.337 158.872C163.35 156.234 166.554 153.788 169.818 151.485C174.698 148.048 179.778 144.894 184.643 141.448C187.565 139.371 190.264 136.966 193.067 134.72C193.589 134.307 194.108 133.604 194.665 133.564C197.97 133.32 200.412 131.331 203.005 129.649C203.884 129.072 204.775 128.492 206.061 127.633C205.913 130.566 205.688 133.176 205.672 135.775C205.663 139.017 205.987 142.273 205.888 145.524C205.726 150.569 205.328 155.616 205.033 160.653C204.81 164.381 204.599 168.107 204.389 171.832C204.266 173.982 204.361 176.16 204.048 178.289C203.38 182.755 205.715 187.76 209.689 189.953C214.983 192.873 218.623 192.708 222.652 188.63C225.822 185.428 229.448 182.315 229.737 177.254C229.782 176.334 229.523 175.408 229.541 174.481C229.566 172.921 229.474 171.309 229.847 169.824C231.03 164.973 232.865 160.203 231.605 155.061C231.567 154.899 231.514 154.674 231.596 154.576C234.856 150.088 233.275 144.535 234.95 139.645C236.202 135.976 236.466 131.974 237.328 128.16C237.849 125.797 238.487 123.432 239.367 121.195C241.111 116.763 242.501 112.284 243.498 107.595C244.155 104.528 246.299 101.78 247.861 98.9191C248.45 97.8442 249.101 96.3066 250.047 96.0163C252.037 95.3994 254.181 95.6021 255.793 97.3935C257.294 99.053 258.776 100.743 260.416 102.265C262.714 104.394 265.135 106.375 267.124 108.09C264.163 109.003 260.632 109.959 257.207 111.193C253.854 112.397 253.482 114.053 255.747 116.822C259.141 120.957 262.688 124.964 266.004 129.157C267.392 130.896 268.49 132.914 269.48 134.919C270.512 136.993 272.201 137.83 274.303 137.911C276.459 137.993 278.001 136.824 278.808 134.893C279.712 132.755 280.146 130.36 281.3 128.387C283.467 124.685 286.002 121.199 288.376 117.645C290.4 119.339 292.289 121.078 294.336 122.594C296.449 124.161 298.427 123.666 299.736 121.458C300.883 119.513 301.808 117.41 303.162 115.613C305.442 112.609 304.689 110.878 301.312 108.649C303.092 107.423 304.698 106.08 306.499 105.113C318.205 98.7662 323.116 88.7353 322.725 75.7467C322.65 73.9861 322.642 72.3412 322.607 70.6898C321.565 66.2997 320.521 61.8972 319.48 57.5071C316.934 51.9985 312.863 48.0108 307.457 45.2882C306.347 44.7216 305.276 44.0404 304.277 43.2761C300.924 40.6992 297.142 39.3173 292.942 39.0093C290.806 38.8441 288.668 38.6663 286.489 38.485C287.703 34.8772 286.462 32.2601 282.904 30.3772C281.229 29.4836 279.709 28.3027 277.999 27.4833C276.823 26.919 275.426 26.4205 274.186 26.5302C272.585 26.6728 271.715 27.8937 271.541 29.6607C271.331 31.7787 270.851 33.8686 270.483 35.9847C270.174 36.295 269.856 36.6208 269.547 36.9312C265.428 34.0747 261.36 31.1534 257.175 28.405C255.033 26.9897 252.774 25.6943 250.422 24.6714C247.998 23.626 245.824 24.5764 245.136 27.124C243.856 31.8409 242.969 36.662 241.828 41.4117C241.06 44.6237 240.044 47.7892 239.305 51.0077C238.904 52.7628 238.825 54.5994 238.531 57.0272L253.098 53.5719C252.688 54.7889 252.457 55.3179 252.313 55.8789C251.076 60.6119 249.407 65.3025 248.784 70.1267C248.43 72.9115 247.139 73.5864 245.045 74.1491C242.753 74.7717 241.947 73.2635 241.165 71.5784C240.865 70.925 240.381 70.3285 239.855 69.8341C232.888 63.2532 225.899 56.6906 218.93 50.0972C218.416 49.5998 218.035 48.9393 217.676 48.3132C216.944 47.0639 216.489 45.591 215.544 44.5506C211.869 40.5086 207.2 37.3874 204.847 32.1361C203.459 29.0664 202.089 25.9005 198.932 23.9882C198.16 23.5126 197.685 22.453 197.226 21.5738C196.025 19.2899 194.939 16.9389 193.748 14.6395C192.684 12.5996 191.863 10.3046 190.362 8.64516C188.465 6.53948 185.976 4.9429 183.743 3.14102C183.644 3.05901 183.395 3.06538 183.248 3.11338C180.344 4.26347 178.175 2.5121 175.884 1.25055L170.991 2.41121L171.032 2.41481ZM251.047 91.6162C249.662 91.6153 247.819 92.0132 246.244 91.5436C242.114 90.31 240.953 91.3626 240.123 95.6434C239.133 100.752 241.54 106.399 237.712 111.049C237.434 111.378 237.56 112.02 237.455 112.519C234.586 125.715 232.539 139.097 227.644 151.812C226.577 154.594 226.216 157.907 226.475 160.889C226.774 164.375 226.597 167.684 225.784 171.038C225.148 173.639 220.958 182.656 219.16 184.69C218.535 185.391 217.616 186.018 216.708 186.246C213.686 187.016 209.892 183.805 209.915 180.678C209.916 179.848 209.705 179.015 209.722 178.194C209.816 174.036 206.529 170.573 207.373 166.237C208.276 161.596 209.024 156.913 209.859 152.263C209.899 152.042 210.129 151.843 210.296 151.658C212.937 148.727 212.04 145.224 211.832 141.848C211.802 141.276 211.32 140.468 210.832 140.242C208.282 139.055 209.187 137.365 209.742 135.428C210.802 131.778 211.659 128.057 212.356 124.322C212.719 122.352 211.218 121.193 209.403 121.992C206.835 123.115 204.216 124.303 201.931 125.899C198.31 128.418 194.813 130.63 190.061 129.439C187.958 128.91 186.368 129.933 185.031 131.857C184.145 133.122 182.408 134.139 180.869 134.544C177.767 135.359 175.286 137.186 173.939 139.732C172.183 143.059 169.916 145.56 166.716 147.413C159.869 151.395 154.036 156.599 148.755 162.462C142.992 168.848 137.195 175.203 131.38 181.536C130.144 182.883 128.846 182.914 128.144 181.012C126.512 176.631 124.829 172.261 123.456 167.805C122.393 164.381 121.911 160.794 120.899 157.359C119.972 154.232 119.043 154.15 116.469 156.025C114.736 157.279 112.828 158.351 110.869 159.211C106.355 161.19 101.088 162.163 97.3804 165.098C92.9972 168.575 87.0505 168.628 83.2317 172.762C83.1371 172.863 82.9065 172.891 82.7574 172.874C78.6058 172.436 76.8489 175.646 74.6244 178.163C71.8603 181.295 70.2676 184.808 70.4141 189.094C70.4676 190.82 70.0974 192.594 69.6939 194.284C69.5101 195.065 68.7731 196.294 68.2627 196.31C67.111 196.346 65.3962 196.12 64.883 195.346C62.4538 191.72 60.1288 187.977 58.2105 184.058C56.9871 181.569 56.806 178.582 55.6545 176.062C54.1242 172.724 53.9626 172.709 57.4317 171.715C57.9875 171.557 58.6204 171.446 59.057 171.119C62.3195 168.698 65.4628 166.108 68.7894 163.791C72.8974 160.933 76.9279 157.803 81.4279 155.708C84.2537 154.392 86.8739 153.099 89.2726 151.094C90.879 149.751 92.93 148.949 94.7602 147.882C95.4779 147.462 96.1618 147.01 96.8552 146.542C100.45 144.135 104.043 141.715 107.635 139.295C109.568 137.994 111.498 136.68 113.452 135.413C115.042 134.39 115.275 133.096 114.715 131.345C112.736 125.228 110.78 119.092 108.961 112.924C107.91 109.326 106.853 105.704 107.837 101.848C107.994 101.231 107.407 99.8683 106.908 99.71C104.086 98.8774 101.202 98.1125 98.2949 97.6955C96.0026 97.3698 93.605 97.7673 91.2966 97.4849C85.0019 96.7385 78.7295 95.6971 72.4341 95.0035C69.5506 94.6863 66.6027 95.0431 63.7054 94.8345C60.5561 94.6199 57.432 94.1226 54.3008 93.7061C51.6044 93.3445 48.9196 92.8089 46.216 92.528C42.5398 92.1486 38.8396 91.946 35.215 91.6729C35.1235 90.509 35.0869 89.6877 35.0004 88.8783C34.4263 83.6792 33.7495 78.4913 33.3062 73.2875C33.1871 71.8403 33.5856 70.2966 33.9674 68.8492C34.4303 67.1322 37.3058 66.0813 38.8167 66.948C36.8842 69.2507 37.8874 71.4235 39.0618 73.5952C40.4432 76.1394 43.2619 75.4049 45.1005 75.9305C45.5028 77.1261 45.6196 78.5079 46.0848 78.6347C48.8603 79.3859 51.7443 80.4275 54.528 80.2678C58.1085 80.0772 61.6048 78.6419 65.1922 78.1466C68.2185 77.7317 71.3948 78.2825 74.3827 77.7055C78.1908 76.9734 81.6991 77.0897 85.1207 78.9524C85.439 79.1272 85.9751 79.0527 86.3561 78.936C89.5292 77.9725 92.4316 79.0361 95.3472 80.0439C96.6113 80.4818 97.8754 80.9197 99.1687 81.2584C101.653 81.8942 103.706 80.2085 103.195 77.7214C101.82 71.0918 100.183 64.5244 98.8333 57.889C98.3136 55.3644 98.299 52.7463 98.0444 50.172C98.2697 50.0658 98.4855 49.9751 98.7108 49.869C102.841 52.8282 108.31 52.374 112.41 55.4852C112.876 55.8359 114.181 55.9478 114.321 55.7038C115.312 54.046 116.523 54.8128 117.602 55.3075C121.126 56.9351 124.688 58.277 128.665 57.9791C129.3 57.9338 129.988 58.1659 130.617 58.3723C136.545 60.3518 142.383 62.5634 148.677 63.3626C150.582 63.6091 153.186 64.6381 153.912 66.0862C154.777 67.8439 155.835 68.3042 157.317 68.7695C158.399 69.1057 159.442 69.5036 160.49 69.8612C160.162 71.2036 159.894 72.2948 159.566 73.6372C162.175 73.0184 164.345 72.385 166.571 72.0415C167.347 71.9232 168.239 72.5152 169.086 72.7491C170.608 73.1652 172.182 73.9643 173.674 73.8608C176.386 73.6785 179.057 72.5971 181.746 72.5389C186.128 72.4479 190.745 72.1826 194.42 75.2235C196.552 76.9837 198.382 75.8644 199.676 74.7014C200.956 73.5413 200.37 71.6253 199.299 70.1668C197.732 68.0091 196.106 65.8787 194.627 63.6474C191.389 58.7772 186.985 54.5524 186.022 48.3786C185.959 47.9457 185.418 47.6128 185.137 47.2052C184.434 46.1864 183.649 45.2132 183.075 44.1244C181.084 40.2889 179.224 36.3959 177.224 32.5758C175.263 28.8122 173.161 25.1215 171.191 21.3733C170.948 20.9041 171.202 20.1982 171.025 19.6737C170.713 18.7466 170.449 17.6895 169.804 17.0258C168.132 15.3145 167.992 13.8329 169.588 12.0578C170.421 11.1226 171.204 10.1463 171.923 9.11945C174.077 6.02654 177.444 5.71521 180.238 8.31968C181.136 9.16051 182.122 10.2045 183.233 10.4415C187.667 11.4052 190.234 14.4982 192.224 18.1099C194.452 22.1658 196.24 26.3129 199.654 29.8109C203.089 33.3433 205.331 38.0679 207.923 42.38C208.267 42.9438 207.859 44.2261 207.427 44.961C205.984 47.4902 206.145 48.5586 208.624 50.1178C209.896 50.9226 211.158 51.7957 212.533 52.3655C222.748 56.6345 229.993 64.6117 237.074 72.562C240.146 76.0093 242.516 79.1093 247.676 77.2398L251.081 91.5949L251.047 91.6162ZM252.452 81.5872C252.487 78.9573 252.753 76.299 252.477 73.6902C252.015 69.2417 253.083 65.1814 255.328 61.4739C261.419 51.4135 270.034 44.9306 282.033 43.8233C286.768 43.3852 291.513 42.1015 296.283 44.6456C302.595 48.0225 308.807 51.476 313.516 56.9326C315.409 59.1315 317.074 61.8189 317.909 64.5587C319.285 69.0802 319.482 73.7494 318.912 78.6272C318.327 83.7193 315.731 87.3386 312.601 90.65C308.556 94.9423 303.973 98.7432 299.553 102.677C298.66 103.468 297.308 104.553 296.371 104.38C290.795 103.384 285.563 104.783 280.321 106.251C280.246 106.268 280.159 106.236 280.066 106.232C276.007 106.352 272.737 104.519 269.133 102.831C265.025 100.908 262.716 97.8458 259.869 94.8458C256.229 91.0062 253.977 86.6266 252.446 81.5623L252.452 81.5872ZM295.615 120.038C293.91 117.795 292.659 116.023 291.276 114.362C290.69 113.671 289.793 112.777 289.058 112.794C288.178 112.805 286.797 113.488 286.499 114.231C284.743 118.612 281.297 121.538 278.038 124.642C276.716 125.904 275.334 126.97 275.223 129.117C275.176 129.972 273.955 130.775 273.4 131.434C268.762 126.223 264.41 121.328 259.46 115.744C272.755 110.706 285.648 109.756 299.144 113.181C298.035 115.341 297.05 117.248 295.606 120.054L295.615 120.038ZM244.061 50.6041C244.026 50.4016 243.784 49.8266 243.884 49.3024C245.165 42.5303 246.471 35.7522 247.889 29.0004C247.975 28.5848 249.24 27.9687 249.639 28.1506C250.641 28.5978 251.896 29.275 252.268 30.1749C253.37 32.8774 255.441 33.9933 258.001 34.8352C262.303 36.2388 265.518 39.1779 268.597 42.5972C263.708 44.6658 259.723 47.9297 254.361 48.2796C250.932 48.5 247.572 49.7846 244.064 50.6166L244.061 50.6041ZM274.122 39.6004C273.987 39.4744 273.852 39.3484 273.716 39.2224C274.848 36.4905 275.968 33.7615 277.234 30.7078C278.534 32.2965 279.662 33.6624 280.98 35.273C278.503 36.8355 276.314 38.2242 274.125 39.6128L274.122 39.6004Z" fill="#8FB8DF"/>
</g>
<defs>
<clipPath id="clip0_729_629">
<rect width="679" height="684" fill="white"/>
</clipPath>
</defs>
</svg>
