<svg width="74" height="20" viewBox="0 0 74 20" fill="none" xmlns="http://www.w3.org/2000/svg">
<g clip-path="url(#clip0_729_658)">
<path d="M64.9973 12.0421C65.4899 9.95945 67.1304 8.82343 68.2486 7.09315C68.6143 6.5274 69.0658 6.00337 69.6223 5.62471" stroke="#EA5A24" stroke-width="3" stroke-linecap="round"/>
<path d="M65 11.9883C66.8738 11.723 69.1324 11.6174 71.0231 11.687" stroke="#EA5A24" stroke-width="3" stroke-linecap="round"/>
<path d="M62.6578 12.0003C64.0146 12.8515 64.9493 14.3847 66.0993 15.507C66.7056 16.0988 67.5764 16.4963 68.2975 16.9487" stroke="#EA5A24" stroke-width="3" stroke-linecap="round"/>
<path d="M62.8802 11.2035C63.4385 8.38005 63.2557 5.77166 63.7188 3" stroke="#EA5A24" stroke-width="3" stroke-linecap="round"/>
<path d="M-0.207031 3.97017C12.7044 3.97017 25.566 3.36762 38.2314 6.29563C43.0274 7.40438 48.4035 9.87862 53.3468 10.1258C57.1247 10.3147 60.8335 10.7747 64.4269 11.9725" stroke="#EA5A24" stroke-width="3" stroke-linecap="round"/>
</g>
<defs>
<clipPath id="clip0_729_658">
<rect width="74" height="20" fill="white"/>
</clipPath>
</defs>
</svg>
