<svg width="18" height="22" viewBox="0 0 18 22" fill="none" xmlns="http://www.w3.org/2000/svg">
    <path fill-rule="evenodd" clip-rule="evenodd"
        d="M10.2615 0.952637C10.8137 0.952637 11.2615 1.40035 11.2615 1.95264C11.2615 3.77532 11.0705 5.54773 10.8621 7.25927C10.8292 7.52901 10.796 7.79682 10.763 8.06302C10.5845 9.5025 10.4118 10.8953 10.334 12.2962C10.262 13.5916 10.2857 14.8701 10.3102 16.1871C10.3228 16.8651 10.3355 17.5533 10.3355 18.2593C10.3355 18.3258 10.3341 18.3922 10.3312 18.4584C10.6444 18.1555 10.9651 17.8109 11.2856 17.4423C12.0237 16.5937 12.6973 15.6954 13.2494 14.9593C13.4683 14.6673 13.6681 14.4009 13.8452 14.1732C14.0453 13.9159 14.2599 13.6641 14.4604 13.4291L14.4739 13.4132C14.6743 13.1784 14.8616 12.9589 15.0374 12.7361C15.3997 12.2769 15.6592 11.8688 15.795 11.4616C15.9696 10.9377 16.5359 10.6545 17.0599 10.8291C17.5838 11.0038 17.867 11.5701 17.6923 12.0941C17.4477 12.828 17.0207 13.4513 16.6075 13.9749C16.4075 14.2285 16.198 14.4739 16.0047 14.7004L15.9819 14.7273C15.7774 14.9669 15.5919 15.1852 15.4239 15.401C15.2795 15.5867 15.1021 15.8232 14.8993 16.0937C14.3389 16.8408 13.5844 17.8468 12.7947 18.7548C12.2505 19.3806 11.6588 19.9973 11.0587 20.4906C10.478 20.9679 9.79495 21.4096 9.06938 21.5547C8.52782 21.663 8.001 21.3118 7.89268 20.7703C7.84897 20.5517 7.88011 20.3355 7.9684 20.1483C7.74904 20.0037 7.57645 19.8172 7.45038 19.6421C7.20868 19.3063 7.04218 18.8883 6.96185 18.433C6.95344 18.3854 6.88258 18.2029 6.60671 17.8628C6.35171 17.5484 6.00661 17.2002 5.61035 16.8224C5.46415 16.683 5.30446 16.5336 5.14222 16.3818C4.89269 16.1483 4.63712 15.9092 4.41531 15.6921C4.04642 15.3312 3.66277 14.9297 3.40595 14.5369C3.29609 14.3689 3.11822 14.0591 2.91927 13.7126C2.85963 13.6087 2.7981 13.5016 2.73594 13.3939C2.4508 12.9002 2.12033 12.3388 1.79348 11.8373C1.53613 11.4424 1.30857 11.1281 1.12807 10.918C0.938106 10.9423 0.739118 10.9124 0.554959 10.8203C0.06098 10.5733 -0.139244 9.97267 0.107745 9.47869C0.20146 9.29126 0.364186 9.06639 0.638003 8.91664C0.924159 8.76014 1.22057 8.74624 1.46142 8.79352C1.8691 8.87354 2.17665 9.13752 2.34388 9.29587C2.72685 9.65853 3.12475 10.2169 3.46908 10.7453C3.82691 11.2944 4.17966 11.8947 4.46787 12.3937C4.54811 12.5327 4.62151 12.6604 4.68797 12.7761C4.87318 13.0985 5.00452 13.3272 5.07989 13.4424C5.20696 13.6368 5.4508 13.9072 5.81405 14.2626C6.02784 14.4718 6.24596 14.6757 6.47636 14.891C6.64055 15.0444 6.81097 15.2037 6.99051 15.3749C7.39677 15.7623 7.81993 16.1836 8.15998 16.6029C8.21299 16.6682 8.26687 16.7369 8.32033 16.8087C8.31758 16.6485 8.31465 16.4875 8.31171 16.3258C8.28687 14.9627 8.26116 13.5515 8.33706 12.1853C8.41899 10.7105 8.60148 9.2402 8.77998 7.80204C8.81258 7.53942 8.84504 7.27786 8.87673 7.01755C9.08404 5.31489 9.26145 3.6453 9.26145 1.95264C9.26145 1.40035 9.70917 0.952637 10.2615 0.952637ZM0.900119 10.6901C0.900097 10.6899 0.902916 10.6916 0.90864 10.6959C0.903003 10.6925 0.900141 10.6903 0.900119 10.6901Z"
        fill="#fff" />
</svg>