<svg width="30" height="44" viewBox="0 0 30 44" fill="none" xmlns="http://www.w3.org/2000/svg">
<path fill-rule="evenodd" clip-rule="evenodd" d="M16.4787 2.58659C16.6534 2.93573 16.7323 3.3025 16.774 3.55408C16.8296 3.88928 16.8519 4.23635 16.8519 4.53876C16.8519 6.11147 16.6688 7.65807 16.4969 9.11022L16.4901 9.167C16.3129 10.6645 16.1492 12.0677 16.1492 13.4791C16.1492 14.3075 15.4776 14.9791 14.6492 14.9791C13.8207 14.9791 13.1492 14.3075 13.1492 13.4791C13.1492 12.5459 13.2117 11.6259 13.298 10.7319C12.3891 12.7759 11.5173 14.8211 10.7658 16.85C10.0746 18.7162 9.30244 20.5927 8.53563 22.4562C8.5042 22.5326 8.47277 22.609 8.44136 22.6853C7.63988 24.6334 6.84649 26.5701 6.13339 28.5218C4.70588 32.4287 3.63454 36.3075 3.49913 40.2345C3.47058 41.0624 2.77626 41.7105 1.94832 41.6819C1.12039 41.6534 0.472359 40.9591 0.500908 40.1311C0.652206 35.7435 1.84361 31.5208 3.31559 27.4922C4.05223 25.4761 4.86776 23.4865 5.66698 21.5439C5.69596 21.4735 5.72491 21.4031 5.75383 21.3329C6.52659 19.4548 7.2804 17.6228 7.95255 15.808C8.55608 14.1785 9.23555 12.5368 9.94306 10.9083C9.75942 10.9337 9.53519 10.9346 9.2899 10.8687C8.21629 10.5803 8.10088 9.55514 8.09175 9.31837C8.07908 8.98961 8.15295 8.6895 8.20766 8.50286C8.32831 8.09125 8.53614 7.64467 8.75587 7.26753C8.95522 6.92536 9.27389 6.44835 9.68756 6.12661C10.9215 5.16686 12.2961 3.95251 12.9268 2.88029L13.2091 3.04632L12.9268 2.88029C13.0596 2.65453 13.2096 2.43379 13.3823 2.23985C13.4131 2.09725 13.4416 1.96831 13.4657 1.86688C13.4664 1.86361 13.4674 1.85961 13.4685 1.85493C13.4843 1.78736 13.5332 1.5783 13.6103 1.40516C13.627 1.36755 13.6577 1.30234 13.7038 1.22654C13.7378 1.17065 13.8415 1.00456 14.0311 0.847159C14.2188 0.691327 14.7497 0.348193 15.4487 0.571319C16.0461 0.762025 16.2878 1.23102 16.3444 1.3475C16.4724 1.61069 16.4907 1.85565 16.4927 1.88238C16.4928 1.88342 16.4928 1.88413 16.4929 1.8845C16.4997 1.95888 16.5005 2.02252 16.5005 2.05968C16.5005 2.23859 16.4931 2.41421 16.4787 2.58659ZM18.7252 17.4836C18.3938 17.6225 18.1053 17.8054 17.8656 17.9839C17.463 18.2836 17.1032 18.6426 16.8006 18.9738C16.5169 19.2843 16.2492 19.609 16.0259 19.88C16.0099 19.8994 15.9941 19.9185 15.9786 19.9373C15.727 20.2424 15.5554 20.446 15.4236 20.5779C15.0994 20.902 14.1316 22.0166 13.4871 22.7973C13.3207 22.9987 13.1661 23.1897 13.0412 23.3502C12.9418 23.4779 12.791 23.6742 12.6942 23.8446L12.6928 23.847C12.6721 23.8835 12.5935 24.0215 12.5406 24.2053C12.52 24.2771 12.4423 24.5497 12.5048 24.8961C12.5404 25.0935 12.6306 25.363 12.8476 25.6139C13.0737 25.8753 13.357 26.0234 13.6209 26.0894C14.0666 26.2008 14.4206 26.0734 14.5011 26.0444L14.5015 26.0443C14.6319 25.9974 14.7288 25.9423 14.7754 25.9145C14.8735 25.856 14.9503 25.7961 14.9883 25.7658C15.0828 25.6902 15.1944 25.5883 15.3158 25.4714C14.966 26.4656 14.6058 27.4115 14.175 28.3105C12.0809 32.6807 10.3384 37.1268 10.3384 42.291C10.3384 43.1194 11.01 43.791 11.8384 43.791C12.6668 43.791 13.3384 43.1194 13.3384 42.291C13.3384 37.8201 14.8356 33.8744 16.8805 29.6068C17.23 28.8773 17.5388 28.1195 17.8229 27.3592C17.7616 27.8625 17.7171 28.3076 17.7171 28.5878C17.7171 29.4162 18.3886 30.0878 19.2171 30.0878C20.0455 30.0878 20.7171 29.4162 20.7171 28.5878C20.7171 28.422 20.7755 27.8903 20.8934 27.0017C20.9355 26.6841 20.9839 26.3297 21.0351 25.9544C21.1153 25.366 21.2025 24.7262 21.2839 24.0966C21.4182 23.0562 21.5448 21.9811 21.6146 21.0657C21.6494 20.6085 21.6717 20.1715 21.6715 19.7874C21.6714 19.5927 21.666 19.3789 21.6462 19.1652C21.6723 19.0788 21.6957 18.9901 21.7159 18.8992C21.7496 18.7478 21.7809 18.5709 21.7895 18.3876C21.7957 18.2557 21.8072 17.8828 21.6068 17.4944C21.4895 17.2671 21.2831 17.005 20.9496 16.8283C20.6167 16.652 20.286 16.6291 20.0367 16.6584C19.6097 16.7086 19.3163 16.9206 19.2246 16.9885C19.0055 17.1506 18.831 17.352 18.7252 17.4836ZM29.7612 25.4758C29.8688 25.7937 29.8582 26.0855 29.8497 26.2218C29.8225 26.6578 29.7411 27.0993 29.6266 27.5336C29.7938 27.8308 29.8526 28.1492 29.8526 28.4121V36.3179C29.8526 37.1463 29.1811 37.8179 28.3526 37.8179C27.5242 37.8179 26.8526 37.1463 26.8526 36.3179V34.2015C26.001 36.7863 25.6362 39.5062 25.6362 42.2911C25.6362 43.1195 24.9647 43.7911 24.1362 43.7911C23.3078 43.7911 22.6362 43.1195 22.6362 42.2911C22.6362 39.3105 23.0185 36.3308 23.9417 33.4522C23.8355 33.5428 23.7325 33.6272 23.634 33.7033C23.4491 33.8461 23.0964 34.1097 22.6915 34.2309C22.516 34.2835 21.9176 34.4379 21.3191 34.0509C20.6539 33.6208 20.5884 32.9317 20.5884 32.6747C20.5884 32.2232 20.783 31.8893 20.8395 31.7927C20.9268 31.6439 21.0265 31.5149 21.1073 31.4176C21.2722 31.219 21.4778 31.0109 21.6819 30.8163C22.0975 30.4201 22.6324 29.9615 23.1433 29.5385C23.6592 29.1113 24.1727 28.7022 24.5557 28.4011C24.7116 28.2785 24.8466 28.1733 24.952 28.0915C25.0119 27.9854 25.087 27.8533 25.173 27.7042C25.3942 27.3204 25.6938 26.8123 25.9954 26.3379C26.2748 25.8987 26.6263 25.3744 26.9429 25.038C27.0265 24.949 27.1529 24.8239 27.3126 24.7118C27.412 24.6419 27.8157 24.36 28.3884 24.4021C28.732 24.4273 29.0694 24.5664 29.3378 24.8165C29.5836 25.0455 29.7026 25.3024 29.7612 25.4758Z" fill="#EA5A24"/>
</svg>
