<svg width="24" height="24" viewBox="0 0 24 24" fill="none" xmlns="http://www.w3.org/2000/svg">
<path fill-rule="evenodd" clip-rule="evenodd" d="M13.2615 22.0474C13.8137 22.0474 14.2615 21.5996 14.2615 21.0474C14.2615 19.2247 14.0705 17.4523 13.8621 15.7407C13.8292 15.471 13.796 15.2032 13.763 14.937C13.5845 13.4975 13.4118 12.1047 13.334 10.7038C13.262 9.40842 13.2857 8.12989 13.3102 6.81288C13.3228 6.13488 13.3355 5.44668 13.3355 4.74074C13.3355 4.67423 13.3341 4.60777 13.3312 4.54161C13.6444 4.84453 13.9651 5.18909 14.2856 5.55769C15.0237 6.40629 15.6973 7.30459 16.2494 8.04072C16.4683 8.33268 16.6681 8.59912 16.8452 8.82684C17.0453 9.08411 17.2599 9.33595 17.4604 9.57095L17.4739 9.58676C17.6743 9.82156 17.8616 10.0411 18.0374 10.2639C18.3997 10.7231 18.6592 11.1312 18.795 11.5384C18.9696 12.0623 19.5359 12.3455 20.0599 12.1709C20.5838 11.9962 20.867 11.4299 20.6923 10.9059C20.4477 10.172 20.0207 9.54866 19.6075 9.02505C19.4075 8.77149 19.198 8.52606 19.0047 8.29958L18.9819 8.27275C18.7774 8.03309 18.5919 7.81484 18.4239 7.59896C18.2795 7.41327 18.1021 7.17675 17.8993 6.90632C17.3389 6.1592 16.5844 5.15323 15.7947 4.24522C15.2505 3.6194 14.6588 3.00267 14.0587 2.50943C13.478 2.03206 12.795 1.59039 12.0694 1.44527C11.5278 1.33696 11.001 1.68818 10.8927 2.22974C10.849 2.4483 10.8801 2.66446 10.9684 2.85168C10.749 2.99634 10.5765 3.18281 10.4504 3.35794C10.2087 3.69368 10.0422 4.11173 9.96185 4.56696C9.95344 4.61457 9.88258 4.79713 9.60671 5.13725C9.35171 5.45162 9.00661 5.79979 8.61035 6.17763C8.46415 6.31703 8.30446 6.46644 8.14222 6.61824C7.89269 6.8517 7.63712 7.09082 7.41531 7.30786C7.04642 7.66881 6.66277 8.07028 6.40595 8.46306C6.29609 8.63107 6.11822 8.94088 5.91927 9.28738C5.85963 9.39125 5.7981 9.49842 5.73594 9.60606C5.4508 10.0998 5.12033 10.6612 4.79348 11.1627C4.53613 11.5576 4.30857 11.8719 4.12807 12.082C3.93811 12.0577 3.73912 12.0876 3.55496 12.1797C3.06098 12.4267 2.86076 13.0273 3.10775 13.5213C3.20146 13.7087 3.36419 13.9336 3.638 14.0834C3.92416 14.2399 4.22057 14.2538 4.46142 14.2065C4.8691 14.1265 5.17665 13.8625 5.34388 13.7041C5.72685 13.3415 6.12475 12.7831 6.46908 12.2547C6.82691 11.7056 7.17966 11.1053 7.46787 10.6063C7.54811 10.4673 7.62151 10.3396 7.68797 10.2239C7.87318 9.90146 8.00452 9.67282 8.07989 9.55756C8.20696 9.3632 8.4508 9.09281 8.81405 8.73737C9.02784 8.52819 9.24596 8.32434 9.47636 8.10901C9.64055 7.95556 9.81097 7.79628 9.99051 7.6251C10.3968 7.23772 10.8199 6.81638 11.16 6.39714C11.213 6.33179 11.2669 6.26309 11.3203 6.19132C11.3176 6.35151 11.3147 6.51253 11.3117 6.67423C11.2869 8.03725 11.2612 9.44855 11.3371 10.8147C11.419 12.2895 11.6015 13.7598 11.78 15.198C11.8126 15.4606 11.845 15.7221 11.8767 15.9825C12.084 17.6851 12.2615 19.3547 12.2615 21.0474C12.2615 21.5996 12.7092 22.0474 13.2615 22.0474ZM3.90012 12.3099C3.9001 12.3101 3.90292 12.3084 3.90864 12.3041C3.903 12.3075 3.90014 12.3097 3.90012 12.3099Z" fill="#EA5A24"/>
</svg>
