<svg width="141" height="168" viewBox="0 0 141 168" fill="none" xmlns="http://www.w3.org/2000/svg">
<path d="M24.375 0C28.473 1.27239 32.566 2.54985 36.6691 3.8121C39.3859 4.64853 42.448 5.1656 40.8433 9.66712C41.1785 9.67219 41.5136 9.67726 41.8437 9.68233C42.4734 8.81041 43.423 8.0196 43.6718 7.0463C44.2507 4.76512 45.5202 3.91855 47.7445 4.4559C58.7234 7.1122 69.7378 9.66205 80.671 12.5008C88.9991 14.6654 97.1596 17.489 105.528 19.4559C108.981 20.267 112.394 20.6928 115.466 22.6749C117.162 23.7699 118.127 24.9104 117.726 26.9736C117.584 27.7138 117.376 28.5502 117.579 29.2295C117.894 30.2535 118.544 31.1811 119.051 32.1443C119.803 31.607 120.803 31.2268 121.26 30.5069C122.433 28.6566 123.942 28.0382 125.988 28.6516C130.589 30.0355 135.2 31.3941 139.76 32.9098C140.344 33.1024 141.029 34.172 140.999 34.8057C140.943 36.1085 140.608 37.467 140.08 38.6685C138.231 42.881 136.236 47.0277 134.321 51.2099C132.138 55.9801 129.218 60.2585 126.257 64.5877C122.901 69.4948 119.305 74.0977 114.943 78.0872C112.333 80.4748 109.484 82.6039 106.793 84.9104C105.34 86.1524 104.02 87.5414 102.588 88.8087C101.979 89.3461 101.278 89.7972 100.562 90.1876C99.46 90.7908 98.1245 91.1102 97.2155 91.9162C95.7378 93.2241 94.26 94.101 92.2339 93.6195C92.1526 93.5992 92.0612 93.6043 91.9799 93.6296C86.7444 95.2366 81.4886 96.7776 76.3038 98.5367C75.5675 98.7851 74.9632 100.017 74.6839 100.914C73.1858 105.755 74.4147 105.426 68.5851 105.406C68.0315 105.406 67.478 105.482 66.7519 105.532C67.021 105.943 67.1022 106.247 67.2749 106.308C71.3577 107.834 73.4601 111.276 75.8569 114.616C79.3811 119.523 79.6807 127.873 75.994 132.77C74.4401 134.833 74.8058 136.277 76.9132 137.519C77.4667 137.844 77.9745 139 77.8222 139.603C77.4159 141.22 76.5222 142.71 76.0651 144.317C75.8214 145.189 75.6843 146.609 76.1768 147.075C78.1065 148.905 80.0768 151.161 82.4636 151.921C85.3225 152.834 85.8354 154.643 86.1655 156.889C86.4905 159.12 86.7546 161.391 86.6733 163.631C86.6428 164.498 85.7897 165.781 84.9975 166.1C80.8893 167.758 76.6796 169.02 72.3022 166.835C71.7081 166.541 70.9972 166.257 70.3573 166.303C64.4718 166.708 59.1601 164.042 53.498 163.266C52.5077 163.129 51.4769 163.287 50.4816 163.18C48.8312 163.008 47.1554 162.881 45.5609 162.46C42.321 161.604 39.1015 160.661 35.9328 159.566C33.4293 158.704 31.0476 157.482 28.5593 156.57C26.0355 155.647 23.4101 154.983 20.8812 154.076C18.2761 153.143 15.6965 152.114 13.1625 151.009C10.0598 149.655 6.94179 148.302 3.96601 146.7C2.48828 145.914 1.31523 144.561 0 143.461C0 142.954 0 142.447 0 141.94C1.61484 138.178 4.59062 136.698 8.53632 135.847C14.95 134.463 20.1246 131.553 20.7187 123.766C21.191 117.617 24.4156 112.386 27.8433 107.377C28.1632 106.911 28.666 106.556 29.1332 106.212C31.398 104.549 33.6375 102.846 35.9785 101.294C36.9433 100.656 38.1367 99.951 39.2132 99.9713C41.732 100.022 44.2406 100.488 46.7542 100.787C48.4046 100.985 49.0089 100.275 48.4605 98.7242C48.2117 98.0196 47.7952 97.3707 47.4093 96.7219C45.7081 93.8527 44.007 90.9834 42.2753 88.1345C41.8843 87.4907 41.4933 86.5934 40.8941 86.3755C37.6238 85.1943 36.1664 82.4366 34.6835 79.6688C34.6429 79.5928 34.6074 79.5117 34.5515 79.4559C32.5609 77.3724 30.55 75.3143 28.5898 73.2004C28.2039 72.7847 27.8992 72.222 27.7468 71.6695C26.4316 66.9044 22.7906 63.0416 22.4402 57.881C22.3843 57.0345 21.6226 56.2437 21.2418 55.4022C20.9371 54.728 20.5867 54.0284 20.475 53.3086C19.9418 49.9121 19.3121 46.5157 19.0379 43.094C18.5047 36.4431 17.6719 29.7567 17.9359 23.1261C18.1746 17.1139 19.6117 11.1372 20.734 5.18587C21.0742 3.38628 22.1254 1.72356 22.8515 0C23.3593 0 23.8672 0 24.375 0ZM37.8726 16.6323C39.1015 18.0061 40.0003 19.5319 41.3308 20.3988C45.4898 23.1108 46.9878 26.852 46.6171 31.6526C46.4546 33.7766 46.4902 35.9716 46.8456 38.0602C47.582 42.369 47.2519 46.1457 43.0624 48.655C42.6714 48.8881 42.2398 49.3545 42.1636 49.7753C41.1886 54.9257 40.8839 60.1419 42.0468 65.2568C42.7578 68.3745 42.4683 71.0206 40.696 73.6668C40.2746 74.2954 40.1984 75.7097 40.6199 76.242C42.057 78.0618 44.0831 79.4559 45.3476 81.3619C48.7144 86.4464 52.3808 91.46 54.8386 96.9855C57.3218 102.572 52.8734 108.118 46.8304 107.317C42.4328 106.734 39.1371 107.413 35.6636 110.429C32.5914 113.096 30.3265 115.798 29.3109 119.716C28.3257 123.523 27.1781 127.305 25.807 130.985C25.1519 132.749 24.1617 134.711 22.7246 135.791C19.8656 137.945 16.6004 139.572 13.4824 141.372C12.7512 141.793 11.9336 142.056 11.1515 142.391C11.1465 142.69 11.1414 142.984 11.1363 143.283C17.0828 145.346 23.0394 147.394 28.9757 149.488C30.1589 149.904 31.2863 150.487 32.439 150.999C33.8863 151.642 35.298 152.773 36.7757 152.859C42.5089 153.194 47.5464 156.098 53.371 156.585C61.0948 157.229 68.6714 159.627 76.3343 161.137C77.2331 161.315 78.787 160.97 79.1729 160.341C79.8737 159.201 79.2694 158.202 77.8983 157.361C75.7655 156.053 73.8257 154.365 71.9976 152.631C69.037 149.823 68.1534 146.406 69.4687 142.457C69.6819 141.818 69.7022 140.885 69.3874 140.338C67.0718 136.364 68.2753 132.592 70.1948 129.049C72.6272 124.542 72.4394 121.931 69.6769 117.607C67.9097 114.839 65.5534 113.111 62.8163 111.555C60.0132 109.963 58.8909 107.048 59.5663 103.961C60.1402 101.33 62.3745 99.0842 65.2335 98.9169C67.473 98.7851 68.6105 97.9537 69.5397 95.926C70.1491 94.5877 71.5456 93.2139 72.9116 92.6918C77.2077 91.0443 81.6714 89.8479 86.0182 88.3322C86.7139 88.0889 87.7245 87.0142 87.6229 86.5275C87.0796 83.9067 87.8667 81.6661 89.1616 79.537C90.9491 76.607 93.2799 73.9202 94.5952 70.8026C97.6065 63.6702 100.206 56.3603 102.847 49.0757C105.051 42.9926 107.494 41.1169 113.999 40.7013C115.085 40.6303 116.142 40.0321 117.477 39.5911C116.878 38.8966 116.756 38.6381 116.553 38.5417C112.673 36.656 110.601 33.6499 110.81 29.265C110.901 27.3133 109.499 26.7607 108.083 26.5478C104.716 26.0358 101.308 25.7722 97.9315 25.316C97.2256 25.2197 96.5553 24.7786 95.9003 24.4289C94.9557 23.9321 94.1077 23.1463 93.1124 22.8777C79.9194 19.3038 66.7011 15.8212 53.5031 12.2677C51.1316 11.6289 48.9531 10.9699 47.4652 13.8391C47.0894 14.5691 46.0687 15.2078 45.2308 15.4055C43.0574 15.9175 40.823 16.1609 37.8777 16.6323H37.8726ZM34.8664 69.3021C35.0898 69.2261 35.3132 69.1501 35.5367 69.0791C35.5773 68.6786 35.7093 68.2629 35.6484 67.8726C34.7902 62.1291 33.866 56.3957 35.3894 50.6066C35.557 49.978 35.5417 49.2379 35.3945 48.5992C34.8156 46.0747 36.0292 44.2802 38.1265 43.5147C40.6757 42.582 40.757 41.0003 40.1476 38.9574C39.3097 36.1744 38.8831 33.4978 39.7566 30.5323C40.0867 29.417 39.0914 27.0547 38.0707 26.5529C34.7902 24.951 33.2109 22.1832 31.9871 19.1365C31.4793 17.8692 31.53 16.2876 31.6468 14.8733C31.7535 13.5553 32.4593 12.2879 32.5863 10.9699C32.7539 9.18047 30.8089 7.56337 28.4578 7.35046C26.8023 7.19838 25.5226 7.84218 25.3652 9.58601C25.0605 12.9368 25.2535 16.3535 24.6695 19.6435C23.9382 23.7394 25.2078 28.4741 20.8711 31.8756C24.5324 34.8969 24.6898 39.2666 25.5125 43.3576C25.7511 44.5336 25.7562 45.948 25.3043 47.0226C24.441 49.0909 24.1668 50.9665 25.223 53.05C25.741 54.074 25.8273 55.3211 26.1269 56.4616C26.9953 59.7567 28.1125 62.8388 31.464 64.5877C32.3324 65.0389 32.83 66.2301 33.4597 67.1071C33.9625 67.8118 34.4042 68.562 34.8714 69.292L34.8664 69.3021ZM94.2905 85.4123C94.5292 85.5542 94.7678 85.6911 95.0065 85.8331C98.6831 83.3288 102.41 80.9006 106.006 78.29C107.458 77.2356 108.621 75.7807 109.906 74.4931C112.231 72.1663 114.776 70.0068 116.812 67.4468C118.818 64.9223 120.717 62.5296 123.54 60.735C126.344 58.9507 129.035 56.6188 127.674 52.4316C127.405 51.6053 127.71 50.4089 128.126 49.5725C129.655 46.4954 131.457 43.5502 132.93 40.4478C134.24 37.6952 133.9 37.0311 131.498 36.1896C127.771 34.8868 126.846 35.1859 125.978 37.979C124.084 44.0723 119.727 47.4941 113.531 47.4992C111.394 47.4992 110.302 48.3812 109.601 50.2923C106.727 58.1193 103.812 65.9311 100.806 73.7073C100.313 74.9747 99.3585 76.0899 98.5155 77.195C96.596 79.7043 94.7475 82.2237 94.2956 85.4123H94.2905Z" fill="#EA5A24"/>
</svg>
