<svg width="50" height="50" viewBox="0 0 50 50" fill="none" xmlns="http://www.w3.org/2000/svg">
<circle cx="25" cy="25" r="24.5" fill="white" stroke="#EA5A24"/>
<path d="M4 23.5254H5.36352L6.5523 26.9342L7.74109 23.5254H9.03013L7.19969 28.4051H5.81612L4 23.5254Z" fill="#4D4D4D"/>
<path d="M12.1242 27.7335C11.9375 27.9781 11.6953 28.1748 11.4177 28.3075C11.1401 28.4403 10.8349 28.5052 10.5273 28.4969C9.6507 28.4969 8.95176 27.9913 8.95176 27.056C8.95176 26.0534 9.81112 25.6624 10.8323 25.429L12.0784 25.1425C11.971 24.6556 11.6401 24.4507 11.1431 24.4507C10.5888 24.4507 10.2279 24.6942 10.0918 25.1912L8.91309 24.9764C9.15657 24.0511 9.93572 23.4009 11.1632 23.4009C12.4594 23.4009 13.3116 24.0826 13.3116 25.4462V28.388H12.2202L12.1242 27.7335ZM10.7908 27.4943C11.4425 27.4943 12.1056 27.0761 12.1056 26.1895V26.0821L10.9068 26.3685C10.4972 26.4659 10.205 26.612 10.205 26.973C10.205 27.3339 10.4399 27.4943 10.7908 27.4943Z" fill="#4D4D4D"/>
<path d="M14.1709 23.5253H15.331L15.3998 24.0982C15.5518 23.8857 15.754 23.714 15.9884 23.5986C16.2228 23.4831 16.4821 23.4274 16.7433 23.4365C16.9047 23.4355 17.0654 23.4582 17.2202 23.5038L17.077 24.7127C16.9119 24.6702 16.7418 24.6504 16.5714 24.6539C15.9283 24.6539 15.4112 25.0922 15.4112 25.8914V28.4036H14.1709V23.5253Z" fill="#4D4D4D"/>
<path d="M19.8823 24.6066L19.2105 28.4049H17.9731L18.6448 24.6066H17.3687L17.4374 24.217L18.0991 23.5252H18.8396L18.957 22.862C19.1719 21.5959 20.057 21.0001 21.0711 21.0001C21.3867 20.997 21.6992 21.0635 21.9863 21.1949L21.548 22.219C21.4133 22.1574 21.2664 22.1271 21.1183 22.1302C20.8853 22.1177 20.6566 22.1962 20.4803 22.349C20.304 22.5018 20.1938 22.717 20.173 22.9494L20.0756 23.5223H21.7614L21.5752 24.6037L19.8823 24.6066Z" fill="#4D4D4D"/>
<path d="M21.2026 26.3398C21.2026 24.8302 22.3485 23.418 24.0185 23.418C24.6028 23.418 25.0998 23.6128 25.4407 24.1341L25.6355 23.5211H26.7455L25.8862 28.4008H24.7962L24.8248 27.7979C24.628 28.025 24.3831 28.2055 24.1079 28.3264C23.8327 28.4473 23.534 28.5055 23.2336 28.4968C21.9761 28.4968 21.2026 27.616 21.2026 26.3398ZM25.0798 25.7067C25.0798 24.9906 24.7088 24.528 23.9984 24.528C23.0732 24.528 22.4301 25.3272 22.4301 26.2338C22.4301 26.9342 22.8197 27.4025 23.5215 27.4025C24.461 27.4025 25.0841 26.5933 25.0841 25.7067H25.0798Z" fill="#4D4D4D"/>
<path d="M27.6657 23.5253H28.7185V24.0022C28.893 23.8132 29.1057 23.6633 29.3425 23.5626C29.5793 23.4618 29.8347 23.4125 30.092 23.4179C30.3586 23.4124 30.6213 23.4826 30.8495 23.6206C31.0777 23.7585 31.262 23.9584 31.381 24.197C31.5739 23.9506 31.8211 23.7521 32.1033 23.6169C32.3856 23.4817 32.6952 23.4136 33.0081 23.4179C34.0307 23.4179 34.7626 24.2171 34.5277 25.5219L34.0222 28.405H32.7904L33.2874 25.552C33.4034 24.8988 33.1112 24.5279 32.5856 24.5279C32.0599 24.5279 31.6403 24.9089 31.5243 25.6007L31.0273 28.405H29.797L30.294 25.552C30.42 24.8988 30.1178 24.5279 29.6022 24.5279C29.1152 24.5279 28.6669 24.8502 28.5595 25.4932L28.0439 28.405H26.8164L27.6657 23.5253Z" fill="#4D4D4D"/>
<path d="M35.6936 23.5239H36.9311L36.0732 28.4051H34.8257L35.6936 23.5239Z" fill="#4D4D4D"/>
<path d="M36.58 21.265C36.7272 21.2659 36.8709 21.3103 36.9929 21.3926C37.115 21.4749 37.21 21.5915 37.2659 21.7277C37.3219 21.8638 37.3363 22.0135 37.3073 22.1579C37.2784 22.3022 37.2074 22.4348 37.1033 22.5389C36.9992 22.643 36.8667 22.714 36.7223 22.7429C36.578 22.7718 36.4283 22.7574 36.2921 22.7015C36.1559 22.6455 36.0394 22.5505 35.957 22.4285C35.8747 22.3064 35.8303 22.1628 35.8295 22.0155C35.8246 21.9157 35.8406 21.8159 35.8766 21.7226C35.9126 21.6293 35.9677 21.5446 36.0384 21.4739C36.1091 21.4032 36.1938 21.3481 36.2871 21.3121C36.3803 21.2761 36.4801 21.2601 36.58 21.265Z" fill="#4D4D4D"/>
<path d="M38.2642 21.0991H39.5117L38.2226 28.4037H36.9766L38.2642 21.0991Z" fill="#4D4D4D"/>
<path d="M40.6519 23.5252L41.4798 26.7779L43.2715 23.5238H44.6264L40.6032 30.5419H39.2583L40.6032 28.213L39.3356 23.5181L40.6519 23.5252Z" fill="#4D4D4D"/>
<path d="M46.9996 22.1476C47.0053 22.359 46.9478 22.5673 46.8344 22.7459C46.721 22.9245 46.5569 23.0651 46.3632 23.1499C46.1694 23.2347 45.9547 23.2597 45.7466 23.2217C45.5385 23.1838 45.3465 23.0846 45.1951 22.9369C45.0437 22.7892 44.9398 22.5996 44.8968 22.3926C44.8537 22.1855 44.8734 21.9702 44.9534 21.7744C45.0334 21.5786 45.1699 21.4111 45.3457 21.2934C45.5214 21.1756 45.7282 21.113 45.9397 21.1135C46.0775 21.1108 46.2144 21.1356 46.3425 21.1863C46.4706 21.237 46.5874 21.3126 46.686 21.4088C46.7846 21.5051 46.8631 21.6199 46.9169 21.7467C46.9708 21.8735 46.9989 22.0098 46.9996 22.1476ZM45.1377 22.1476C45.1344 22.2554 45.1529 22.3628 45.1921 22.4633C45.2313 22.5639 45.2904 22.6554 45.3658 22.7326C45.4412 22.8097 45.5314 22.8709 45.631 22.9124C45.7306 22.9539 45.8376 22.9748 45.9455 22.974C46.1562 22.9616 46.3543 22.8691 46.4991 22.7155C46.644 22.5619 46.7246 22.3587 46.7246 22.1476C46.7246 21.9364 46.644 21.7333 46.4991 21.5797C46.3543 21.426 46.1562 21.3336 45.9455 21.3212C45.8378 21.3207 45.731 21.342 45.6317 21.3836C45.5324 21.4252 45.4424 21.4864 45.3672 21.5635C45.292 21.6406 45.233 21.732 45.1938 21.8324C45.1546 21.9327 45.136 22.0399 45.1391 22.1476H45.1377ZM45.775 22.6904H45.5344V21.6549C45.6658 21.6319 45.7992 21.6214 45.9326 21.6234C46.0572 21.6132 46.1821 21.6396 46.2921 21.6993C46.3248 21.7272 46.3509 21.7623 46.3682 21.8017C46.3856 21.8411 46.3938 21.8839 46.3923 21.927C46.388 21.9848 46.3648 22.0395 46.3262 22.0828C46.2876 22.126 46.2358 22.1553 46.1789 22.1662V22.1791C46.2304 22.1999 46.2752 22.2344 46.3085 22.2788C46.3418 22.3232 46.3624 22.3759 46.368 22.4312C46.3782 22.5213 46.4039 22.609 46.4439 22.6904H46.1847C46.1451 22.6104 46.1176 22.525 46.103 22.4369C46.0844 22.3237 46.0199 22.2736 45.8882 22.2736H45.775V22.6904ZM45.775 22.1032H45.8882C46.0214 22.1032 46.1288 22.0588 46.1288 21.9513C46.1288 21.8439 46.0586 21.7938 45.9082 21.7938C45.8635 21.7933 45.8188 21.7976 45.775 21.8067V22.1032Z" fill="#4D4D4D"/>
</svg>
