<svg width="50" height="50" viewBox="0 0 50 50" fill="none" xmlns="http://www.w3.org/2000/svg">
<circle cx="25" cy="25" r="24.5" fill="white" stroke="#EA5A24"/>
<path d="M35.8468 22.6468C36.1476 22.8032 36.4047 23.0576 36.7142 23.1945C36.8267 23.245 36.9888 23.1887 36.9808 23.0439C36.9245 22.0918 35.5679 21.699 34.8136 22.0594C34.7916 22.0729 34.774 22.0924 34.7629 22.1156C34.7519 22.1387 34.7478 22.1645 34.7512 22.1899C34.7545 22.2153 34.7653 22.2392 34.782 22.2587C34.7988 22.2783 34.8209 22.2926 34.8458 22.3001C35.193 22.3731 35.5294 22.4896 35.8468 22.6468Z" fill="#4D4D4D"/>
<path d="M32.03 25.361C32.1242 25.1621 31.8592 24.9855 31.7504 25.1686C31.6062 25.4279 31.4036 25.651 31.1582 25.8208C30.8552 26.0464 30.68 25.8972 30.5573 25.9837C30.3339 26.1416 30.5902 26.3391 30.7033 26.3484C31.4371 26.4046 31.8336 25.7733 32.03 25.361Z" fill="#4D4D4D"/>
<path d="M29.9435 28.2438C30.959 27.9297 31.8559 27.3227 32.5188 26.5011C32.8547 26.073 33.2658 25.1072 33.6294 24.7028C34.0492 24.2358 34.7108 24.1205 35.2 24.5645C35.484 24.8218 35.9089 24.4059 35.6242 24.145C35.1934 23.7493 34.5815 23.5684 34.0069 23.745C33.4111 23.9245 33.0328 24.4311 32.6984 24.9191C32.3129 25.4805 31.9164 26.3605 31.3841 26.7973C30.532 27.4907 30.2502 27.3948 29.6018 27.6622C29.2002 27.8316 29.5215 28.3628 29.9435 28.2438Z" fill="#4D4D4D"/>
<path d="M33.8344 22.1176C33.3467 22.2271 32.7742 22.7446 32.515 23.1374C32.3033 23.4581 31.7951 24.4838 32.2229 24.6012C32.4544 24.6647 32.6187 23.9288 32.8954 23.5367C33.4759 22.7165 33.9907 22.6949 34.117 22.4823C34.1404 22.4396 34.1508 22.3911 34.147 22.3428C34.1432 22.2944 34.1252 22.2481 34.0954 22.2096C34.0655 22.171 34.025 22.1418 33.9787 22.1255C33.9324 22.1092 33.8823 22.1064 33.8344 22.1176Z" fill="#4D4D4D"/>
<path d="M27.1725 29.5129C26.5884 29.5511 25.7917 29.2167 25.5406 29.4531C25.5145 29.4731 25.4975 29.5026 25.4932 29.535C25.489 29.5674 25.4979 29.6001 25.5179 29.626C25.837 30.0188 27.0965 30.003 27.4543 29.9684C27.9691 29.9187 28.9592 29.5951 28.9081 29.2145C28.6569 28.8203 28.6795 29.4156 27.1725 29.5129Z" fill="#4D4D4D"/>
<path d="M31.7377 20.7059C31.4457 20.6288 30.9477 21.1513 30.7578 21.5772C30.495 22.1704 30.2212 22.773 30.043 23.3942C29.8572 24.0245 29.7097 24.6652 29.6013 25.3128C29.518 25.8332 29.4618 26.2296 29.5677 26.8985C29.5896 27.0354 29.7984 26.9994 29.87 26.8985C30.1482 26.5071 30.1241 25.3128 30.5936 23.6068C31.0192 22.0587 31.6968 21.4158 31.8794 21.2349C31.9174 21.1951 31.9446 21.1463 31.9583 21.0932C31.9719 21.0401 31.9716 20.9845 31.9575 20.9315C31.9433 20.8786 31.9157 20.8301 31.8772 20.7906C31.8388 20.7511 31.7908 20.722 31.7377 20.7059Z" fill="#4D4D4D"/>
<path d="M32.8394 21.3132C32.1772 21.5388 31.6712 22.346 31.4295 22.9522C31.0688 23.8531 31.0425 24.1053 30.8541 25.1281C30.803 25.4077 31.2017 25.3832 31.2637 25.1209C31.4967 24.1255 31.6631 23.8343 31.945 23.1943C32.3451 22.2862 33.0139 21.8905 33.1016 21.5719C33.1417 21.4249 32.9964 21.2591 32.8394 21.3132Z" fill="#4D4D4D"/>
<path d="M21.9337 31.0411C22.3411 30.7218 22.8099 30.1279 22.8296 29.5953C22.8376 29.3466 22.5207 29.307 22.3915 29.4792C22.2389 29.6839 22.3499 29.7992 22.1126 30.1618C21.8314 30.5942 21.7475 30.5827 21.5949 30.7852C21.4423 30.9877 21.7613 31.1759 21.9337 31.0411Z" fill="#4D4D4D"/>
<path d="M27.2656 22.7258C27.5665 22.6436 27.7578 22.7186 28.0016 22.8923C28.3339 23.1301 28.612 22.6444 28.4025 22.3791C27.9228 21.7708 26.6501 22.0865 26.5362 22.8584C26.535 22.8629 26.5348 22.8676 26.5357 22.8722C26.5366 22.8768 26.5385 22.8811 26.5413 22.8848C26.5441 22.8886 26.5478 22.8916 26.5519 22.8938C26.5561 22.896 26.5607 22.8972 26.5654 22.8973C26.7991 22.893 27.0429 22.7863 27.2656 22.7258Z" fill="#4D4D4D"/>
<path d="M34.1159 23.2217C34.1243 23.2545 34.1442 23.2834 34.1721 23.3032C34.1717 23.3073 34.1722 23.3115 34.1735 23.3154C34.1749 23.3194 34.1771 23.323 34.18 23.326C34.1829 23.329 34.1865 23.3314 34.1904 23.3329C34.1943 23.3344 34.1985 23.3351 34.2028 23.3349H34.2108C34.3517 23.4293 34.6182 23.3428 34.781 23.3551C35.0344 23.3829 35.2812 23.4526 35.5112 23.5612C35.6499 23.6671 35.7784 23.7882 35.953 23.8077C35.9838 23.8076 36.0141 23.7996 36.0409 23.7844C36.0676 23.7693 36.0899 23.7475 36.1056 23.7212C36.4626 23.2419 35.4732 22.8923 35.1564 22.8332C34.8738 22.7799 33.9677 22.6941 34.1159 23.2217Z" fill="#4D4D4D"/>
<path d="M22.2388 20.0998C21.9876 20.2166 21.7941 20.4299 21.5407 20.5431C21.3947 20.6101 21.4466 20.8314 21.5838 20.8688C21.7466 20.9171 21.9394 20.7737 22.0694 20.6879C22.2272 20.594 22.355 20.4582 22.4381 20.2959C22.4538 20.2684 22.4599 20.2367 22.4555 20.2055C22.4511 20.1742 22.4365 20.1453 22.4139 20.1231C22.3913 20.1009 22.3619 20.0865 22.3303 20.0823C22.2987 20.0781 22.2665 20.0843 22.2388 20.0998Z" fill="#4D4D4D"/>
<path d="M22.0503 21.2788C21.9875 21.3552 21.9963 21.495 22.1146 21.5195C22.3599 21.5664 22.7038 21.299 22.8805 21.1505C23.0827 20.979 23.3186 20.6935 23.2456 20.4139C23.2156 20.3022 23.044 20.2395 22.9623 20.3418C22.8235 20.5126 22.7717 20.7188 22.603 20.8759C22.4344 21.033 22.189 21.1087 22.0503 21.2788Z" fill="#4D4D4D"/>
<path d="M20.6268 21.0092C21.357 22.2424 21.5271 22.4507 22.1076 23.9109C22.3874 24.6382 22.6122 25.385 22.78 26.1452C23.01 27.2371 22.9261 28.3175 22.9662 28.3355C23.8373 28.742 25.1801 28.8343 26.1337 28.8335C27.5823 28.8768 28.5432 28.5042 28.66 28.4141C28.7104 28.3751 28.733 26.6605 29.1646 24.6525C29.4982 23.1022 30.0407 21.6485 30.4328 20.9825C30.6037 20.6942 30.1831 20.6942 30.124 20.7706C29.4625 21.5887 28.8353 23.8287 28.7812 24.0781C28.5052 25.1477 28.3081 26.0695 28.2329 27.245C28.2241 27.3474 28.219 27.4295 28.2197 27.485C28.2197 27.7359 28.1942 28.027 27.9393 28.146C27.6188 28.2951 26.552 28.3485 26.0643 28.3456L25.954 28.342C26.0621 28.1978 26.0548 28.0537 26.0066 27.8829C25.9848 27.8033 25.9587 27.7248 25.9285 27.6479C25.9179 27.623 25.9054 27.599 25.8913 27.5759C26.2209 27.5889 26.5482 27.5163 26.8405 27.3654C26.9814 27.2933 26.877 27.1059 26.739 27.1276C26.168 27.2168 25.5875 27.2307 25.0129 27.1686C24.9399 27.1614 24.9245 27.2638 24.9778 27.2984C25.2017 27.4416 25.4561 27.5316 25.7211 27.5614C25.7116 27.5924 25.7021 27.622 25.697 27.6472C25.6795 27.7258 25.6642 27.8036 25.6459 27.8822C25.6087 28.0422 25.5729 28.1842 25.6715 28.3312C25.079 28.3048 24.4887 28.2435 23.9038 28.1474C23.6599 28.1099 23.4861 27.8238 23.4839 27.5802C23.4781 26.9942 23.3605 26.4054 23.2218 25.8389C23.0504 25.0953 22.8134 24.3679 22.5135 23.6651C21.9542 22.2712 21.2839 21.2528 20.8553 20.8204C20.7728 20.7375 20.5275 20.7937 20.6268 21.0092Z" fill="#4D4D4D"/>
<path d="M14.3518 32.1862C14.3516 32.1791 14.3491 32.1723 14.3448 32.1666C14.3405 32.1609 14.3345 32.1567 14.3277 32.1545C14.2919 32.1408 14.289 32.1444 14.2496 32.1545C14.2294 32.1602 14.2122 32.1735 14.2019 32.1916C14.1915 32.2096 14.1887 32.231 14.1941 32.2511C14.3401 32.7476 14.8512 33.5376 15.4828 33.3487C15.653 33.2983 15.7274 33.0194 15.5369 32.9372C15.4273 32.8889 15.3142 32.8716 15.2032 32.8312C15.092 32.7844 14.9875 32.7236 14.8921 32.6503C14.7337 32.5415 14.4716 32.3801 14.354 32.2085L14.3518 32.1862Z" fill="#4D4D4D"/>
<path d="M29.3255 21.319C29.5358 21.2787 29.4854 20.95 29.2759 20.9544C29.0035 20.9594 28.821 20.7771 28.7597 20.5219C28.7513 20.4951 28.7345 20.4716 28.7116 20.4549C28.6887 20.4382 28.661 20.4292 28.6326 20.4292C28.6042 20.4292 28.5765 20.4382 28.5536 20.4549C28.5307 20.4716 28.5139 20.4951 28.5056 20.5219C28.3741 20.9882 28.8794 21.4055 29.3255 21.319Z" fill="#4D4D4D"/>
<path d="M33.9977 19.913C34.1204 20.096 34.1759 20.3375 34.3292 20.4953C34.4825 20.6532 34.6943 20.5162 34.7147 20.3382C34.7498 20.0737 34.5242 19.7854 34.3599 19.5959C34.1834 19.3899 33.9496 19.2395 33.6874 19.1634C33.6583 19.1566 33.6277 19.1592 33.6002 19.1708C33.5726 19.1824 33.5496 19.2025 33.5346 19.2281C33.5195 19.2536 33.5132 19.2833 33.5165 19.3126C33.5198 19.342 33.5326 19.3695 33.553 19.3912C33.7173 19.5512 33.8661 19.7259 33.9977 19.913Z" fill="#4D4D4D"/>
<path d="M31.2619 14.7805C31.0604 15.0198 30.9348 15.9676 30.4405 16.9471C30.2944 17.2354 30.0849 17.484 29.9389 17.7702C29.8622 17.9222 30.0323 18.1464 30.1988 18.0267C30.4797 17.8242 30.7128 17.5641 30.8822 17.2642C31.3846 16.3863 31.6314 15.3038 31.665 14.9456C31.6832 14.7503 31.389 14.6292 31.2619 14.7805Z" fill="#4D4D4D"/>
<path d="M30.1709 20.1713C30.536 19.9969 31.502 19.7353 32.1993 20.0942C33.434 20.7306 33.2573 21.1032 33.7677 21.5897C33.9488 21.762 34.3343 21.5897 34.2255 21.3267C33.8677 20.4567 33.0215 19.7663 32.119 19.4845C31.667 19.3403 31.4619 19.2546 30.6813 19.398C30.4072 19.4682 30.1421 19.5693 29.8913 19.6992C29.5708 19.8564 29.8526 20.322 30.1709 20.1713Z" fill="#4D4D4D"/>
<path d="M32.8099 16.2012C32.6302 16.4405 32.4506 16.8622 32.4316 17.1598C32.4316 17.1811 32.4388 17.2018 32.452 17.2187C32.4652 17.2355 32.4838 17.2475 32.5047 17.2528C32.6989 17.2802 32.8194 17.1807 32.9428 17.0366C33.1216 16.816 33.2261 16.5948 33.5035 16.4694C34.0745 16.2121 34.8682 16.5414 35.2435 16.9782C35.3647 17.1224 35.6188 17.0042 35.6122 16.8276C35.5808 16.0247 34.4111 15.6319 33.7394 15.7176C33.3838 15.7594 33.0253 15.9137 32.8099 16.2012Z" fill="#4D4D4D"/>
<path d="M22.9153 31.2528C23.2803 31.0293 23.8849 29.9194 23.7871 29.3623C23.7403 29.0949 23.3329 29.1641 23.3198 29.4242C23.3052 29.7089 23.2818 29.9525 23.1635 30.2171C23.0175 30.5399 22.6947 30.9147 22.6254 31.0891C22.5597 31.2499 22.7765 31.3378 22.9153 31.2528Z" fill="#4D4D4D"/>
<path d="M32.1228 15.438C31.8446 15.7775 31.7906 16.2654 31.5876 16.6518C31.5234 16.7736 31.1313 17.3112 31.3438 17.4323L31.3613 17.4417C31.3847 17.4553 31.4115 17.4625 31.4387 17.4625C31.4659 17.4625 31.4926 17.4553 31.5161 17.4417C31.8476 17.2377 32.0542 16.9271 32.2229 16.5826C32.3799 16.2611 32.5602 15.8813 32.4456 15.5224C32.4061 15.3977 32.2192 15.3205 32.1228 15.438Z" fill="#4D4D4D"/>
<path d="M23.0625 22.5228C22.8216 22.8507 23.3144 23.1246 23.5824 22.9185C24.0526 22.5581 24.4513 22.9293 24.9595 22.9185C24.9641 22.9184 24.9687 22.9173 24.9729 22.9152C24.9771 22.9131 24.9807 22.9101 24.9836 22.9064C24.9864 22.9028 24.9883 22.8985 24.9892 22.8939C24.9901 22.8894 24.9899 22.8847 24.9887 22.8803C24.839 22.0385 23.5276 21.89 23.0625 22.5228Z" fill="#4D4D4D"/>
<path d="M15.8479 20.3064C17.1337 19.6577 18.4312 19.7658 19.268 20.0087C19.8769 20.1853 20.6465 20.6076 21.2146 20.2718C21.4373 20.2033 21.7257 20.0137 21.584 19.755C21.392 19.4069 21.1182 19.7644 20.7079 19.8429C20.3705 19.9078 20.2515 19.7427 20.0273 19.6988C19.6506 19.5489 19.2906 19.3889 18.8788 19.3449C17.6602 19.2137 16.6496 19.0148 15.5201 19.6584C15.2871 19.7918 15.2725 20.3979 15.8479 20.3064Z" fill="#4D4D4D"/>
<path d="M29.4774 20.377C29.3987 20.3304 29.3279 20.2718 29.2678 20.2033C29.1948 20.1118 28.994 20.1219 29.013 20.2711C29.0171 20.3564 29.0409 20.4397 29.0825 20.5147C29.1241 20.5896 29.1825 20.6542 29.2532 20.7035C29.4029 20.808 29.5927 20.8671 29.7482 20.7439C29.7626 20.7297 29.7741 20.7128 29.7819 20.6943C29.7896 20.6757 29.7937 20.6558 29.7937 20.6358C29.7937 20.6157 29.7896 20.5958 29.7819 20.5772C29.7741 20.5587 29.7626 20.5418 29.7482 20.5276C29.676 20.4469 29.5657 20.4332 29.4774 20.377Z" fill="#4D4D4D"/>
<path d="M15.1503 19.3787C15.7388 18.8432 16.4383 18.5995 17.2218 18.5412C18.2929 18.4604 19.2954 18.872 19.9599 19.1639C20.1986 19.2684 20.3658 19.05 20.1621 18.8943C19.4458 18.348 18.2929 17.8925 17.0867 17.9776C16.2718 18.0352 15.3986 18.3105 14.6983 19.0349C14.4632 19.3729 14.9188 19.5898 15.1503 19.3787Z" fill="#4D4D4D"/>
<path d="M30.1184 19.1165C30.5426 19.0005 30.9705 18.8707 31.4129 18.8679C31.8802 18.8679 32.33 19.0228 32.7951 19.0048C32.8479 19.0032 32.8989 18.985 32.9403 18.9526C32.9818 18.9203 33.0116 18.8756 33.0254 18.8253C33.0391 18.7749 33.0361 18.7215 33.0167 18.673C32.9974 18.6244 32.9627 18.5833 32.9178 18.5558C32.0832 18.0023 30.6353 18.0844 29.9475 18.8268C29.921 18.8541 29.9042 18.8892 29.8997 18.9268C29.8951 18.9644 29.9031 19.0024 29.9224 19.0351C29.9417 19.0678 29.9713 19.0935 30.0066 19.1082C30.042 19.1228 30.0812 19.1258 30.1184 19.1165Z" fill="#4D4D4D"/>
<path d="M25.0798 31.7036C25.2643 31.8748 25.4316 32.0633 25.5792 32.2665C25.8501 32.6492 25.999 33.1429 26.324 33.4831C26.3531 33.5105 26.3897 33.529 26.4293 33.5363C26.4688 33.5435 26.5097 33.5392 26.5469 33.524C26.584 33.5087 26.6159 33.483 26.6385 33.4502C26.6612 33.4173 26.6737 33.3787 26.6744 33.339C26.6693 32.8179 26.3094 32.2579 25.9998 31.86C25.669 31.4319 25.2696 31.1479 24.7388 31.034C24.7062 31.0263 24.672 31.0292 24.6412 31.0422C24.6104 31.0552 24.5847 31.0776 24.5679 31.1062C24.5511 31.1348 24.5441 31.168 24.5479 31.2008C24.5517 31.2336 24.5662 31.2644 24.5891 31.2885C24.73 31.4449 24.9242 31.5551 25.0798 31.7036Z" fill="#4D4D4D"/>
<path d="M34.1283 25.1167C33.7997 25.5902 33.6902 26.014 33.3769 26.4984C32.9659 27.1268 32.1627 28.0638 30.541 28.6274C30.322 28.7038 29.5129 28.964 29.5757 29.2718C29.5757 29.2804 29.5794 29.2898 29.5808 29.2984C29.5928 29.3401 29.6183 29.3768 29.6534 29.4028C29.6884 29.4288 29.7312 29.4428 29.7751 29.4426C30.7046 29.4426 32.2613 28.4581 32.6913 28.0883C33.6843 27.235 33.7092 27.1917 34.5248 25.3019C34.6197 25.0843 34.2655 24.9192 34.1283 25.1167Z" fill="#4D4D4D"/>
<path d="M27.8224 31.4102C28.7767 31.333 29.7427 31.1644 30.5889 30.7341C31.4352 30.3038 32.169 29.6372 32.9437 29.0959C33.6008 28.6389 34.1638 28.1128 34.477 27.3726C34.5683 27.1564 34.1901 26.9978 34.0922 27.2119C33.771 27.9146 33.1335 28.3694 32.4925 28.7737C31.7893 29.2177 31.1453 29.7979 30.3991 30.1676C29.6368 30.5446 28.7365 30.6995 27.8837 30.7846C27.4794 30.8235 27.0723 30.8235 26.668 30.7846C26.2299 30.7471 25.7918 30.4898 25.3573 30.4624C25.2515 30.4559 25.1018 30.6865 25.1916 30.755C25.894 31.2898 26.9688 31.4786 27.8224 31.4102Z" fill="#4D4D4D"/>
<path d="M23.7318 31.5737C23.9238 31.4894 24.2049 31.24 24.4554 30.7809C24.773 30.125 24.7533 29.7719 24.773 29.4158C24.7883 29.1311 24.3875 29.1146 24.2991 29.3524C24.2057 29.6018 24.3605 29.8569 24.0502 30.4724C23.8545 30.8609 23.4354 31.2069 23.4558 31.4173C23.4566 31.4489 23.4656 31.4797 23.482 31.5068C23.4983 31.5339 23.5215 31.5564 23.5492 31.5721C23.577 31.5879 23.6083 31.5963 23.6403 31.5965C23.6723 31.5968 23.7038 31.5889 23.7318 31.5737Z" fill="#4D4D4D"/>
<path d="M35.8624 17.8257C35.5028 17.5323 35.1 17.2947 34.6679 17.1209C34.2714 16.9529 33.902 16.7994 33.4675 16.9046C33.4486 16.9106 33.4321 16.9223 33.4204 16.9381C33.4087 16.9539 33.4023 16.973 33.4023 16.9926C33.4023 17.0122 33.4087 17.0312 33.4204 17.047C33.4321 17.0629 33.4486 17.0746 33.4675 17.0805C33.8779 17.1576 34.2203 17.4308 34.5533 17.665C34.8709 17.8892 35.2031 18.0975 35.4718 18.3764C35.721 18.6514 35.9117 18.9729 36.0326 19.322C36.1596 19.6615 36.1881 20.0925 36.4429 20.3591C36.4843 20.3987 36.5353 20.427 36.591 20.4413C36.6467 20.4557 36.7052 20.4556 36.7608 20.4411C36.8165 20.4266 36.8674 20.3982 36.9087 20.3586C36.95 20.319 36.9802 20.2695 36.9964 20.215C37.1103 19.8135 36.8504 19.2888 36.6839 18.9241C36.4944 18.5033 36.214 18.1285 35.8624 17.8257Z" fill="#4D4D4D"/>
<path d="M34.5394 28.9777C35.0147 29.2711 35.2535 28.079 35.3009 27.8325C35.3484 27.586 35.3805 27.3619 35.4156 27.1276C35.425 27.0973 35.4353 27.0671 35.4448 27.0375C35.6054 26.533 35.766 26.022 36.0289 25.5607C36.2799 25.1091 36.6142 24.7077 37.0146 24.3773C37.2001 24.2244 37.4187 24.1156 37.6535 24.0594C37.9383 23.9967 38.1464 24.0796 38.4216 24.1185C38.656 24.1517 38.8743 23.8893 38.6713 23.6955C38.2836 23.3236 37.6119 23.4072 37.1563 23.6046C36.6028 23.8461 36.1888 24.3081 35.842 24.7816C35.428 25.3431 35.2279 25.9816 35.1118 26.6454C35.0665 26.8271 35.0249 27.0094 34.9818 27.1918C34.8446 27.7683 34.6423 28.324 34.5065 28.892C34.5023 28.9079 34.5032 28.9247 34.5091 28.94C34.515 28.9554 34.5256 28.9686 34.5394 28.9777Z" fill="#4D4D4D"/>
<path d="M33.2958 14.7507C32.9468 14.9576 33.1805 15.4715 33.5667 15.385C33.923 15.3079 34.2597 15.2704 34.6116 15.3908C34.9183 15.4953 35.2059 15.6538 35.506 15.7749C35.7331 15.8657 35.9806 15.5479 35.8339 15.354C35.2571 14.5915 34.1662 14.234 33.2958 14.7507Z" fill="#4D4D4D"/>
<path d="M37.3717 21.6598C37.1847 21.4198 36.9633 21.2078 36.7145 21.0306C36.4081 20.8177 36.0414 20.7057 35.6667 20.7106C35.3104 20.7106 34.8519 20.6696 34.5715 20.9124C34.4503 21.0169 34.4824 21.1899 34.5715 21.2995C34.7832 21.5589 35.106 21.5013 35.409 21.4789C35.7485 21.4537 36.0778 21.4198 36.3874 21.5842C36.7255 21.7636 36.9847 22.0368 37.2512 22.3049C37.4067 22.5262 37.4834 22.8188 37.7119 22.9687C37.7403 22.9853 37.7727 22.9941 37.8057 22.9941C37.8388 22.9941 37.8712 22.9853 37.8996 22.9687C38.242 22.7626 37.947 22.2336 37.7711 22.008C37.6595 21.8698 37.5244 21.752 37.3717 21.6598Z" fill="#4D4D4D"/>
<path d="M34.2833 19.0903C34.4842 19.3203 34.6622 19.5689 34.8149 19.8326C34.9682 20.0979 35.0587 20.3631 35.399 20.3919C35.4443 20.3919 35.4888 20.3802 35.5282 20.3579C35.5675 20.3357 35.6002 20.3037 35.6231 20.2651C35.8166 19.971 35.5845 19.669 35.4092 19.4254C35.2104 19.1444 34.9831 18.8841 34.7309 18.6485C34.2753 18.2312 33.7437 17.7504 33.1194 17.6654C33.0676 17.6582 32.8931 17.7684 32.9895 17.9068C33.2202 18.1072 33.4064 18.2016 33.6371 18.4034C33.8683 18.6173 34.0843 18.8468 34.2833 19.0903Z" fill="#4D4D4D"/>
<path d="M22.4317 12.9554C21.9995 12.657 21.3452 12.8746 20.8911 13.0274C20.4228 13.1796 19.9776 13.3934 19.5673 13.6631C18.7758 14.1943 17.9113 15.0621 17.7244 16.0272C17.6514 16.3955 18.1245 16.6081 18.3406 16.2837C18.5779 15.9284 18.7451 15.5378 19.0095 15.1969C19.2621 14.8702 19.5479 14.5697 19.8623 14.3003C20.5413 13.7237 21.4212 13.2768 22.3317 13.3208C22.5427 13.3294 22.5799 13.0584 22.4317 12.9554Z" fill="#4D4D4D"/>
<path d="M34.1339 29.4179C34.2631 29.2795 34.0901 29.0222 33.9192 29.1433C32.7896 29.9405 31.7411 30.8731 30.4706 31.4547C29.7852 31.762 29.0468 31.9376 28.2948 31.9722C27.9297 31.9938 27.5544 32.0205 27.1864 32.0234C27.0404 32.0234 26.9454 31.9513 26.8162 31.9362C26.7826 31.9319 26.7286 31.9261 26.7008 31.9528L26.6826 31.9708C26.6613 31.9921 26.6477 32.0197 26.6438 32.0493C26.6398 32.079 26.6458 32.1091 26.6607 32.1351C26.9871 32.6778 27.8976 32.5755 28.435 32.543C29.1841 32.502 29.9202 32.3313 30.6094 32.0385C31.9616 31.4576 33.1379 30.4832 34.1339 29.4179Z" fill="#4D4D4D"/>
<path d="M25.5556 13.2931C24.9627 13.3616 24.6699 13.9317 24.4261 14.4038C24.28 14.6798 24.1158 15.0013 23.8324 15.1613C23.5491 15.3213 23.1468 15.1094 22.8343 15.0892C21.6208 15.0006 20.2642 15.6197 19.783 16.7685C19.6815 17.0121 20.0524 17.1224 20.1868 16.9365C20.5518 16.432 21.0308 16.0161 21.6471 15.8446C21.9383 15.7601 22.2444 15.7373 22.5452 15.7775C22.8643 15.8265 23.1468 15.9937 23.4681 16.0291C24.1084 16.1011 24.5889 15.6636 24.8262 15.1152C25.0825 14.5234 25.0971 13.8178 25.5783 13.3429C25.5914 13.3249 25.5812 13.2903 25.5556 13.2931Z" fill="#4D4D4D"/>
<path d="M31.6602 32.4587C31.5959 32.3247 31.4112 32.3953 31.3258 32.5013C30.9227 32.9986 30.73 33.5406 30.5869 34.0184C30.4029 34.6318 30.4138 35.3028 30.5577 35.9313C30.6153 36.1806 30.9957 36.1381 31.0133 35.9313C31.0753 35.1745 31.0133 34.7262 31.1724 34.0494C31.282 33.5831 31.8179 32.7888 31.6602 32.4587Z" fill="#4D4D4D"/>
<path d="M20.3128 15.3701C20.5191 15.2215 20.7391 15.0924 20.9699 14.9845C21.1956 14.8785 21.454 14.823 21.657 14.6782C21.8761 14.5196 21.7877 14.2241 21.5241 14.1917C20.9583 14.1196 20.3004 14.5758 19.8857 14.9124C19.4097 15.2945 19.0438 15.7933 18.8247 16.3589C18.7247 16.609 19.1168 16.7503 19.2519 16.537C19.5288 16.0862 19.8886 15.6904 20.3128 15.3701Z" fill="#4D4D4D"/>
<path d="M25.9083 19.4963C26.0492 19.319 25.8265 19.0812 25.6513 19.2426C25.4534 19.4257 24.7707 19.577 24.2786 19.6318C23.7864 19.6866 23.1643 19.5886 22.6722 19.5316C22.6526 19.5319 22.6333 19.5372 22.6164 19.547C22.5995 19.5568 22.5854 19.5708 22.5756 19.5876C22.5658 19.6044 22.5606 19.6234 22.5605 19.6428C22.5605 19.6621 22.5655 19.6812 22.5751 19.6981C22.6009 19.7307 22.6326 19.7584 22.6686 19.7796C23.2439 20.1399 23.7017 20.1637 24.2296 20.096C24.7334 20.0275 25.568 19.9223 25.9083 19.4963Z" fill="#4D4D4D"/>
<path d="M14.4439 18.0455C14.3388 18.2249 14.6046 18.4469 14.7455 18.2747C16.346 17.3118 16.963 17.2656 17.9524 17.4292C18.9943 17.5979 19.9238 18.1781 20.9139 18.5046C22.5531 19.0423 25.324 19.6938 26.493 17.9503C26.6223 17.7579 26.3295 17.5374 26.1703 17.7046C25.3956 18.5197 24.3515 18.6156 23.2803 18.4203C22.1676 18.2172 21.0812 17.8923 20.0413 17.4516C19.1396 17.0703 18.2795 16.6472 17.277 16.7056C16.8104 16.733 16.5629 16.7662 15.9108 16.9363C15.2822 17.1806 14.7411 17.5388 14.4439 18.0455Z" fill="#4D4D4D"/>
<path d="M21.5315 11.7798C21.0262 11.7388 20.4063 11.991 19.9485 12.182C18.8915 12.6304 17.9682 13.3382 17.2666 14.2383C16.9424 14.652 16.5452 15.1752 16.4488 15.7035C16.3758 16.1028 16.8592 16.2996 17.0994 15.9738C17.3915 15.5788 17.5747 15.0988 17.8661 14.6952C18.176 14.276 18.535 13.8945 18.9358 13.5586C19.3241 13.2311 19.7497 12.9493 20.204 12.719C20.4363 12.5965 20.676 12.4884 20.9218 12.3953C21.1562 12.3081 21.411 12.2627 21.633 12.1481C21.8213 12.0501 21.7162 11.7935 21.5315 11.7798Z" fill="#4D4D4D"/>
<path d="M28.3494 13.9735C28.5188 13.8714 28.7132 13.8171 28.9116 13.8163C29.181 13.8041 29.6724 14.1421 29.7966 13.7522C29.8095 13.7053 29.8096 13.6559 29.7967 13.6091C29.7839 13.5622 29.7586 13.5196 29.7235 13.4855C29.1087 12.8974 28.0807 13.3925 27.9609 14.1558C28.1354 14.1976 28.2201 14.0614 28.3494 13.9735Z" fill="#4D4D4D"/>
<path d="M15.2887 34.182C15.3651 34.209 15.4467 34.219 15.5274 34.2113C15.6082 34.2036 15.6863 34.1783 15.756 34.1373C15.9422 34.0307 15.9115 33.7251 15.6947 33.6739C15.5663 33.6409 15.4311 33.6434 15.3041 33.6811C15.2377 33.7015 15.1789 33.7406 15.1347 33.7935C15.1347 33.7935 15.1142 33.8216 15.1062 33.8353C15.0981 33.849 15.0711 33.8685 15.0653 33.8735C15.0615 33.8773 15.0588 33.8821 15.0575 33.8873C15.0562 33.8925 15.0564 33.898 15.058 33.9031C15.1025 34.0271 15.1551 34.1316 15.2887 34.182Z" fill="#4D4D4D"/>
<path d="M30.1909 32.8348C29.7258 32.9754 29.2556 33.1592 28.7868 33.2882C28.318 33.4172 27.8624 33.4056 27.3995 33.5094C26.5233 33.7055 26.0005 34.4046 25.7201 35.2039C25.6617 35.3682 25.8961 35.4922 26.0122 35.3718C26.2962 35.0601 26.5972 34.7639 26.9139 34.4846C27.2622 34.1963 27.6229 34.0831 28.0588 34.0103C28.927 33.8662 29.6929 33.6954 30.3676 33.1274C30.5027 33.0121 30.3574 32.7844 30.1909 32.8348Z" fill="#4D4D4D"/>
<path d="M29.6724 34.2809C29.6155 34.5353 29.5665 35.3173 29.522 35.5898C29.4439 36.064 29.043 36.6817 28.9379 36.7826C28.7188 36.9988 28.8357 37.3282 29.1241 37.2078C29.9345 36.8705 30.2996 34.8294 29.9959 34.2809C29.9426 34.1822 29.7535 34.18 29.6724 34.2809Z" fill="#4D4D4D"/>
<path d="M16.4213 32.107C15.6912 31.7942 15.1406 31.351 14.6346 30.7376C14.1715 30.1789 13.8105 29.5447 13.5679 28.8637C13.1896 27.797 13.1648 26.7281 13.2568 25.6398C13.2824 25.5678 13.3072 25.5022 13.3298 25.4337C13.425 25.2774 13.4942 25.1071 13.535 24.9292C13.5781 24.6812 13.3977 24.3879 13.1144 24.5558C12.7632 24.7641 12.6267 25.4207 12.5654 25.7811C12.5279 26.0117 12.5122 26.2453 12.5186 26.4788C12.5091 26.5818 12.504 26.6878 12.504 26.7973C12.4945 28.4719 13.0964 30.0938 14.1994 31.3661C14.704 31.947 15.4758 32.7434 16.3111 32.7398C16.6922 32.7384 16.755 32.2497 16.4213 32.107Z" fill="#4D4D4D"/>
<path d="M26.1625 15.997C26.0026 16.3142 25.8741 16.6262 25.6098 16.8771C25.334 17.1315 24.9998 17.316 24.6358 17.4147C23.8669 17.6309 22.8476 17.4616 22.0941 17.4018C22.0298 17.3967 22.0087 17.4774 22.0452 17.5185C22.6665 18.2111 24.0955 18.3639 24.9789 18.0274C25.7507 17.7333 26.4604 16.9253 26.4641 16.077C26.4641 15.9257 26.2356 15.8514 26.1625 15.997Z" fill="#4D4D4D"/>
<path d="M17.3461 30.9247C17.1687 30.7143 16.908 30.6458 16.659 30.5564C16.4009 30.4637 16.1665 30.3161 15.9727 30.124C15.5733 29.7384 15.2688 29.2224 15.0505 28.7186C14.8325 28.1989 14.6937 27.6502 14.6387 27.0904C14.5766 26.5203 14.6423 25.9603 14.6452 25.3909C14.6441 25.3565 14.6318 25.3233 14.6101 25.2963C14.5884 25.2693 14.5586 25.2498 14.5248 25.2409C14.4911 25.2319 14.4554 25.2339 14.4229 25.2465C14.3904 25.2591 14.3629 25.2817 14.3444 25.3109C13.6924 26.3971 13.8829 27.9056 14.3444 29.0249C14.5875 29.6137 14.9234 30.178 15.3849 30.6263C15.8682 31.0963 16.4458 31.1871 17.0496 31.4256C17.3622 31.5467 17.5155 31.1265 17.3461 30.9247Z" fill="#4D4D4D"/>
<path d="M26.2091 13.7994C25.709 13.7742 25.5257 14.5778 25.4227 14.9382C25.2322 15.607 25.1066 16.242 24.3348 16.4395C23.617 16.6233 22.9365 16.4308 22.2312 16.3631C21.7354 16.3155 21.0403 16.5404 20.8738 17.0838C20.8695 17.0975 20.8841 17.1148 20.8987 17.1083C21.1907 16.988 21.4383 16.8359 21.7749 16.8539C22.1465 16.8748 22.4992 16.8582 22.8518 16.9598C23.4316 17.1263 24.0858 17.2042 24.6685 17.0125C25.1876 16.8409 25.6089 16.4827 25.8002 15.9681C25.8995 15.6993 25.9192 15.4052 25.9324 15.1212C25.947 14.7947 25.8637 14.2391 26.2493 14.0805C26.3931 14.0185 26.3814 13.8081 26.2091 13.7994Z" fill="#4D4D4D"/>
<path d="M18.5951 34.8194C19.0483 35.0312 19.5624 35.0797 20.0481 34.9564C20.4672 34.8483 21.3675 34.2666 21.7026 34.7913C21.8801 35.071 22.3065 34.8252 22.1502 34.5333C21.9757 34.2068 21.6442 34.0346 21.2791 33.9956C20.7951 33.9445 20.3854 34.1917 19.9349 34.3207C19.7091 34.3863 19.4706 34.3976 19.2394 34.3536C19.0082 34.3097 18.791 34.2118 18.606 34.0681C18.421 33.9244 18.2734 33.739 18.1758 33.5276C18.0781 33.3161 18.0331 33.0847 18.0445 32.8526C18.0716 32.3531 18.4096 32.0014 18.6455 31.5891C18.8703 31.1992 18.9477 30.7242 18.7557 30.3062C18.3906 29.5076 17.413 29.4499 16.8033 28.918C16.4502 28.6043 16.1874 28.204 16.0417 27.7577C15.9686 27.5309 15.9242 27.2961 15.9096 27.0585C15.9023 26.9465 15.9023 26.834 15.9096 26.722C15.9169 26.6016 15.8957 26.371 15.9212 26.2708C15.938 26.2045 15.8358 26.1547 15.8044 26.2218C15.7139 26.4149 15.6065 26.505 15.5532 26.722C15.5053 26.9106 15.4796 27.1041 15.4766 27.2985C15.4757 27.7233 15.5645 28.1435 15.7372 28.5324C15.9055 28.9112 16.1545 29.2498 16.4674 29.5249C16.8084 29.8233 17.2151 29.9855 17.6021 30.2125C17.7715 30.3112 17.9547 30.4237 18.0402 30.6089C18.1336 30.8193 18.0402 31.0413 17.9671 31.246C17.7999 31.708 17.5115 32.1203 17.4356 32.6154C17.2896 33.5142 17.7496 34.4288 18.5951 34.8194Z" fill="#4D4D4D"/>
<path d="M28.9496 12.9059C29.2198 12.9376 29.4542 13.0932 29.7251 13.1004C29.8945 13.1055 29.9675 12.926 29.9047 12.7927C29.7528 12.4734 29.3206 12.3797 28.9956 12.3603C28.823 12.3466 28.6494 12.3699 28.4868 12.4288C28.3242 12.4876 28.1765 12.5806 28.0537 12.7012C27.9807 12.7732 28.0311 12.9282 28.1435 12.9174C28.4109 12.8833 28.6814 12.8794 28.9496 12.9059Z" fill="#4D4D4D"/>
<path d="M20.9772 28.2073C21.2751 27.1428 21.2357 26.3082 20.8195 25.2883C20.615 24.7838 20.1967 24.3838 19.9791 23.9146C19.7615 23.4454 19.3402 23.6825 19.4877 24.1171C19.6534 24.6051 20.0368 24.7586 20.2251 25.2386C20.6275 26.262 20.7107 26.9741 20.5172 28.146C20.4756 28.407 20.9093 28.4509 20.9772 28.2073Z" fill="#4D4D4D"/>
<path d="M20.339 30.1247C20.4587 30.1348 20.4668 29.9805 20.393 29.9265C20.0206 29.6425 19.6059 29.4068 19.2569 29.0918C18.9074 28.7782 18.6167 28.4061 18.3982 27.9927C17.8918 26.999 17.7826 25.8536 18.0923 24.784C18.1609 24.5447 17.7871 24.3739 17.6746 24.6103C17.1679 25.6741 17.4191 27.1552 17.9389 28.1938C18.3865 29.0897 19.2861 30.0331 20.339 30.1247Z" fill="#4D4D4D"/>
<path d="M19.2991 31.7034C19.4699 31.6969 19.5809 31.5052 19.8387 31.3971C20.1826 31.2529 20.4834 31.245 20.8456 31.2263C20.9303 31.2219 20.9186 31.0295 20.6754 30.938C20.3512 30.7715 19.8796 30.7131 19.5561 30.8529C19.3159 30.9574 18.9961 31.2436 19.1034 31.5499C19.1326 31.6356 19.1662 31.7084 19.2991 31.7034Z" fill="#4D4D4D"/>
<path d="M31.9186 34.8697C32.0099 34.8286 32.4209 34.5677 32.6845 33.5839C32.9131 32.7305 32.8094 31.9918 32.6013 31.6127C32.4954 31.4188 32.188 31.5103 32.1851 31.7244C32.1625 33.6704 31.9931 33.754 31.5031 34.7039C31.4024 34.9007 31.7821 35.0066 31.9186 34.8697Z" fill="#4D4D4D"/>
<path d="M18.6 25.6605C18.4489 26.485 18.5233 27.4198 18.987 28.142C19.3338 28.6811 20.0362 29.2534 20.724 29.079C20.7876 29.0631 20.8102 28.9593 20.7437 28.9312C20.1421 28.6725 19.6361 28.4303 19.298 27.8357C18.9256 27.1805 18.9424 26.4324 18.9585 25.7059C18.9629 25.5099 18.638 25.4573 18.6 25.6605Z" fill="#4D4D4D"/>
<path d="M37.7324 19.7631C37.4826 19.8027 37.3899 20.1775 37.579 20.3346C37.7981 20.517 38.0412 20.5754 38.2946 20.695C38.5299 20.8103 38.7423 20.9663 38.9218 21.1556C39.1084 21.3435 39.2793 21.5459 39.4329 21.761C39.5848 21.9772 39.6658 22.228 39.7943 22.4587C39.8003 22.4683 39.8089 22.4761 39.8192 22.481C39.8296 22.4859 39.8411 22.4878 39.8525 22.4863C39.8639 22.4849 39.8746 22.4802 39.8833 22.4729C39.892 22.4655 39.8984 22.4558 39.9017 22.445C40.0667 21.8799 39.8016 21.1476 39.4431 20.7109C39.0496 20.2301 38.4026 19.6557 37.7324 19.7631Z" fill="#4D4D4D"/>
<path d="M19.3472 21.0091C19.7079 21.2527 19.7737 21.3694 19.9788 21.5201C20.184 21.6707 20.3746 21.3594 20.238 21.1885C19.7606 20.6182 19.0799 20.2502 18.336 20.16C18.0855 20.1298 17.738 20.1298 17.8526 20.4483C17.938 20.6523 18.6602 20.5442 19.3472 21.0091Z" fill="#4D4D4D"/>
<path d="M21.1265 30.597C22.0925 29.2485 22.21 27.5057 21.9574 25.8963C21.8069 25.013 21.5422 24.1523 21.1696 23.3356C20.8001 22.4995 20.3576 22.604 20.6709 23.3889C20.9841 24.1738 21.2703 24.9969 21.4258 25.8394C21.7121 27.3868 21.6098 29.0171 20.6957 30.3498C20.5153 30.6128 20.9432 30.8521 21.1265 30.597Z" fill="#4D4D4D"/>
<path d="M18.3692 24.1717C18.5232 24.7194 19.1884 25.0503 19.3249 25.6024C19.3979 25.8979 19.4673 26.1948 19.5235 26.4939C19.5798 26.793 19.5914 27.1037 19.7068 27.3826C19.7659 27.5267 20.0091 27.5707 20.0485 27.3826C20.1588 26.8608 19.9755 26.238 19.8696 25.7249C19.7521 25.1692 19.0124 24.6221 18.8584 24.0751C18.7043 23.5281 18.9745 23.358 18.908 22.7936C18.8306 22.1327 18.3874 22.4059 18.4699 22.661C18.6495 23.1987 18.2166 23.6261 18.3692 24.1717Z" fill="#4D4D4D"/>
<path d="M38.952 24.8836C38.7454 24.8563 38.6052 24.8548 38.4088 24.7683C38.3356 24.7345 38.2571 24.7133 38.1766 24.7056C37.8377 24.6223 37.4792 24.6716 37.1763 24.8433C36.5323 25.2274 36.2432 25.9835 36.0942 26.6747C35.9292 27.4394 35.8934 28.2517 35.5386 28.9637C35.1837 29.6758 34.612 30.2733 33.8745 30.5991C33.6642 30.6921 33.8139 31.0474 34.033 30.9696C35.3626 30.4931 36.1979 29.5043 36.4834 28.1435C36.6331 27.4315 36.7754 26.0484 37.3596 25.3874C37.6662 25.2512 38.0167 25.35 38.3935 25.3874C38.6446 25.4148 38.8498 25.368 39.0163 25.1712C39.0252 25.1602 39.0311 25.1472 39.0335 25.1333C39.036 25.1195 39.0348 25.1052 39.0302 25.0919C39.0762 25.022 39.0579 24.8973 38.952 24.8836Z" fill="#4D4D4D"/>
<path d="M28.7757 15.4149C28.5983 15.7457 28.5136 16.1061 28.4106 16.4636C28.3237 16.7663 27.9725 18.2762 28.1755 18.2712C28.4844 18.3245 28.6443 17.1807 28.7385 16.8297C28.8845 16.2856 29.0575 15.954 29.0977 15.5043C29.1138 15.3342 28.8538 15.2708 28.7757 15.4149Z" fill="#4D4D4D"/>
<path d="M29.2905 14.5052C29.3039 14.4531 29.2962 14.398 29.2689 14.3515C29.2416 14.305 29.1969 14.2709 29.1445 14.2566C28.7341 14.1189 28.3019 14.7539 28.1712 15.0681C28.0872 15.2618 28.0618 15.4753 28.0982 15.6829C28.1018 15.6995 28.131 15.8667 28.1945 15.8343C28.2909 15.7838 28.3026 15.6793 28.3464 15.5856C28.4186 15.4289 28.5064 15.2797 28.6085 15.1402C28.7074 15.0054 28.8313 14.8905 28.9736 14.8014C29.1321 14.707 29.2241 14.6818 29.2905 14.5052Z" fill="#4D4D4D"/>
<path d="M36.6958 30.2531C37.1879 30.2531 37.1887 29.4985 36.6958 29.4985C36.203 29.4985 36.203 30.2531 36.6958 30.2531Z" fill="#4D4D4D"/>
<path d="M36.6176 16.0062C36.5745 15.8152 36.3 15.7936 36.2051 15.9529C35.9327 16.4098 35.621 17.0952 36.1912 17.4707C36.4103 17.6149 36.6987 17.638 36.9571 17.6149C37.5559 17.5659 37.4427 17.0988 37.1893 17.0938C37.0148 17.0938 36.7936 17.1197 36.6417 17.0289C36.4694 16.9259 36.5278 16.7349 36.5687 16.5734C36.6271 16.3788 36.6665 16.2073 36.6176 16.0062Z" fill="#4D4D4D"/>
<path d="M26.7182 18.9081C26.7182 18.6054 26.2801 18.5564 26.1925 18.8361C26.1812 19.1088 26.2613 19.3776 26.4203 19.6009C26.5793 19.8242 26.8085 19.9896 27.0723 20.0714C27.3644 20.1644 27.9551 20.124 28.4421 19.8509C28.6947 19.7067 28.9386 19.8624 29.1496 19.835C29.3372 19.8112 29.3365 19.6101 29.1496 19.5345C28.4727 19.2599 27.9952 19.6584 27.5111 19.6952C26.9511 19.7391 26.7182 19.3946 26.7182 18.9081Z" fill="#4D4D4D"/>
<path d="M39.6496 24.7123C40.2118 24.1091 39.7094 23.1491 39.4261 22.5199C39.1012 21.7991 38.4667 21.1505 37.727 20.8434C37.508 20.7519 37.362 21.0697 37.508 21.216C37.9461 21.6651 38.3725 22.0853 38.7296 22.6027C39.0625 23.0842 39.494 23.7458 39.1348 24.3188C38.9391 24.6259 39.3955 24.9819 39.6496 24.7123Z" fill="#4D4D4D"/>
<path d="M17.9391 23.3344C18.1494 23.1376 18.0063 22.5027 17.5741 22.7628C16.9235 23.152 16.7541 23.6998 16.6577 24.0227C16.4883 24.5993 16.3342 25.1759 16.3211 25.7719C16.3107 26.3644 16.4031 26.9543 16.5942 27.5161C16.684 27.7828 17.1674 28.8134 17.4981 28.8134C17.6383 28.8178 17.7902 28.7133 17.7369 28.6289C17.4937 28.2433 16.7964 27.3871 16.8607 25.568C16.9819 24.5683 17.3185 23.9131 17.9391 23.3344Z" fill="#4D4D4D"/>
<path d="M26.2245 36.4465C26.8328 36.1719 27.6118 35.6717 27.7907 35.0483C27.7972 35.0228 27.7978 34.9963 27.7925 34.9706C27.7871 34.945 27.7759 34.9208 27.7598 34.9C27.7436 34.8792 27.7229 34.8623 27.6992 34.8505C27.6755 34.8388 27.6493 34.8324 27.6228 34.832C27.1927 34.832 27.0869 35.1427 26.1004 35.7921C25.7739 36.0309 25.3872 36.1765 24.9825 36.213C24.5444 36.2584 24.2882 36.0458 24.0516 36.2331C23.9216 36.3362 23.8851 36.5135 24.164 36.631C24.9008 36.9337 25.7229 36.6764 26.2245 36.4465Z" fill="#4D4D4D"/>
<path d="M28.7784 40.6349C28.8768 40.1008 28.9414 39.5611 28.9719 39.019C28.9968 38.5621 29.0092 38.0821 28.6514 37.7412C28.4718 37.5711 28.0746 37.6777 28.1082 37.9639C28.2067 38.7992 28.1534 39.5985 28.0351 40.4338C27.9723 40.9045 28.6901 41.1229 28.7784 40.6349Z" fill="#4D4D4D"/>
<path d="M29.1042 34.4338C29.0552 34.1722 28.723 34.1369 28.631 34.4749C28.3156 35.4205 28.0644 35.9049 27.673 36.2292C27.2277 36.5975 26.523 36.9204 25.8133 37.04C25.587 37.0782 25.2146 37.0739 25.2438 37.3557C25.2679 37.5878 25.8557 37.6591 26.5033 37.4998C28.0476 37.1272 29.3977 36.0058 29.1042 34.4338Z" fill="#4D4D4D"/>
<path d="M21.5908 40.9C21.8369 40.7227 21.8216 40.4042 21.7785 40.1346C21.705 39.7417 21.6614 39.344 21.6478 38.9447C21.6391 38.5379 21.7074 38.1331 21.8493 37.7511C21.9822 37.4095 22.1728 37.0823 22.2808 36.7327C22.4415 36.2116 22.2984 35.5334 21.7697 35.2747C20.9972 34.8956 20.1838 35.7287 19.385 35.5781C18.9929 35.506 18.8294 36.0545 19.2185 36.1742C19.5627 36.2843 19.9291 36.3091 20.2853 36.2462C20.6467 36.1742 20.9687 35.9298 21.3294 35.8859C21.7675 35.8354 21.7792 36.2801 21.6646 36.5857C21.5353 36.9309 21.2513 37.1753 21.0804 37.4996C20.746 38.1411 20.7314 38.8524 20.8315 39.553C20.8789 39.8838 20.9322 40.2557 21.087 40.5577C21.1454 40.6723 21.3981 41.0391 21.5908 40.9Z" fill="#4D4D4D"/>
<path d="M12.0592 27.9559C12.0173 27.9339 11.9733 27.916 11.9278 27.9026C11.8972 27.8934 11.8655 27.888 11.8336 27.8867C11.8002 27.8844 11.7668 27.8903 11.7365 27.904C11.7146 27.9105 11.7168 27.9127 11.7438 27.9113C11.6944 27.9118 11.6469 27.9301 11.6102 27.9628C11.5735 27.9954 11.5501 28.0401 11.5444 28.0886C11.5365 28.1081 11.5321 28.1288 11.5313 28.1498C11.524 28.2166 11.5367 28.284 11.5678 28.3437C11.5772 28.3662 11.5879 28.3881 11.5999 28.4093C11.6258 28.4531 11.6615 28.4905 11.7044 28.5186C11.7472 28.5467 11.796 28.5647 11.847 28.5712C11.8979 28.5777 11.9498 28.5726 11.9984 28.5563C12.0471 28.5399 12.0913 28.5128 12.1277 28.4769C12.164 28.441 12.1915 28.3973 12.2081 28.3493C12.2247 28.3013 12.2299 28.2501 12.2233 28.1998C12.2166 28.1494 12.1984 28.1013 12.17 28.059C12.1415 28.0167 12.1036 27.9815 12.0592 27.9559Z" fill="#4D4D4D"/>
<path d="M11.9522 26.9084C11.7252 26.6572 11.4461 26.4574 11.1337 26.3224C10.9665 26.2561 10.873 26.4615 10.9278 26.5862C11.0512 26.8702 11.287 27.1333 11.5199 27.3365C11.8135 27.5953 12.2238 27.196 11.9522 26.9084Z" fill="#4D4D4D"/>
<path d="M17.8064 35.5873C18.0984 35.5959 18.2854 35.2903 18.0313 35.0828C17.8714 34.953 17.6742 34.8954 17.4822 34.8319C17.2872 34.7029 17.1485 34.5047 17.02 34.2964C16.92 34.146 16.8375 33.985 16.7739 33.8164C16.7192 33.6521 16.7206 33.4777 16.6659 33.3119C16.657 33.2842 16.6412 33.2592 16.6198 33.2392C16.5985 33.2192 16.5723 33.205 16.5438 33.1977C16.5153 33.1905 16.4854 33.1906 16.4569 33.198C16.4284 33.2053 16.4023 33.2197 16.3811 33.2398C15.951 33.5692 16.3424 34.2734 16.5483 34.6273C16.6533 34.8138 16.786 34.9839 16.9419 35.1318C17.1609 35.3956 17.4537 35.5779 17.8064 35.5873Z" fill="#4D4D4D"/>
<path d="M38.7658 27.25C38.3233 27.0994 37.9626 27.2594 37.6421 27.5794C37.3456 27.8742 37.2346 28.29 36.9535 28.5841C36.9184 28.6203 36.8932 28.6648 36.8805 28.7134C36.8678 28.7619 36.868 28.8129 36.8809 28.8613C36.8939 28.9098 36.9193 28.9542 36.9546 28.9902C36.99 29.0262 37.0341 29.0527 37.0828 29.067C37.5209 29.2075 37.8188 28.8356 37.9699 28.4861C38.1211 28.1365 38.3533 27.7452 38.7658 27.6608C38.9885 27.6147 38.9527 27.3134 38.7658 27.25Z" fill="#4D4D4D"/>
<path d="M38.3594 28.3627C38.0805 29.0748 37.6767 29.7126 37.3014 30.3735C37.2284 30.509 37.389 30.7051 37.5336 30.602C38.2353 30.1025 38.634 29.3133 38.7654 28.4729C38.776 28.4212 38.7664 28.3674 38.7384 28.3224C38.7104 28.2774 38.6662 28.2446 38.6146 28.2306C38.563 28.2166 38.508 28.2224 38.4606 28.247C38.4132 28.2715 38.3771 28.3128 38.3594 28.3627Z" fill="#4D4D4D"/>
<path d="M35.2091 30.887C35.1811 30.8956 35.1557 30.911 35.1354 30.932C35.1151 30.9529 35.1006 30.9786 35.0933 31.0067C35.086 31.0348 35.0861 31.0642 35.0936 31.0922C35.1011 31.1202 35.1157 31.1459 35.1361 31.1667C35.2989 31.3541 35.5348 31.4665 35.7035 31.6532C35.8721 31.8399 35.9502 32.0856 36.0831 32.2983C36.1832 32.4568 36.4541 32.4424 36.5008 32.2442C36.5921 31.8658 36.4059 31.5321 36.1518 31.2561C35.9298 31.0182 35.5465 30.7818 35.2091 30.887Z" fill="#4D4D4D"/>
<path d="M36.8355 30.8261C36.7625 30.6771 36.6416 30.5562 36.4915 30.4823C36.424 30.447 36.3539 30.4164 36.282 30.3908C36.2478 30.3799 36.2126 30.3722 36.1769 30.3677C36.1233 30.3605 36.069 30.3605 36.0155 30.3677C35.9891 30.3684 35.9633 30.3757 35.9406 30.389C35.9179 30.4023 35.899 30.4212 35.8859 30.4438C35.8727 30.4663 35.8656 30.4919 35.8652 30.5179C35.8649 30.544 35.8714 30.5697 35.8841 30.5926L35.8877 30.5991C35.9213 30.7144 36.0111 30.7922 36.1024 30.8758C36.1413 30.9115 36.1779 30.9495 36.2119 30.9897C36.2317 31.0117 36.2462 31.0378 36.2542 31.0661C36.2665 31.1088 36.2877 31.1484 36.3166 31.1823C36.3455 31.2163 36.3813 31.2438 36.4217 31.2632C36.4621 31.2825 36.5062 31.2932 36.5511 31.2945C36.596 31.2958 36.6406 31.2877 36.6821 31.2708C36.869 31.1937 36.9129 30.9977 36.8355 30.8261Z" fill="#4D4D4D"/>
<path d="M39.5539 25.2697C39.0858 25.829 38.3937 25.5652 37.8249 25.909C37.3649 26.1865 37.1896 26.7573 37.3619 27.2539C37.3703 27.2806 37.387 27.3039 37.4097 27.3205C37.4325 27.337 37.46 27.346 37.4883 27.346C37.5165 27.346 37.544 27.337 37.5668 27.3205C37.5895 27.3039 37.6063 27.2806 37.6146 27.2539C37.7007 26.9829 37.8745 26.8351 38.1133 26.6939C38.352 26.5526 38.6353 26.5793 38.9033 26.4942C39.3655 26.3465 39.7211 25.9897 39.9774 25.5926C40.1387 25.3425 39.7547 25.034 39.5539 25.2697Z" fill="#4D4D4D"/>
<path d="M33.5788 33.4135C33.5423 33.2658 33.3079 33.3299 33.1947 33.5454C32.9866 33.9555 33.0852 34.442 32.6062 35.1368C32.4483 35.3497 32.2208 35.5024 31.9622 35.5693C31.8374 35.6082 31.6826 35.6082 31.5694 35.6788C31.5022 35.7176 31.4498 35.7772 31.4205 35.8483C31.3912 35.9195 31.3865 35.9983 31.4073 36.0723C31.422 36.1307 31.4524 36.1841 31.4951 36.227C31.5379 36.2698 31.5915 36.3006 31.6505 36.316C33.1181 36.6223 33.7752 34.2056 33.5788 33.4135Z" fill="#4D4D4D"/>
<path d="M31.0211 36.6897C30.3107 37.0731 30.3289 36.893 29.874 37.1885C29.5958 37.3694 29.6039 37.6288 29.6433 37.9366C29.7079 38.3585 29.7445 38.7842 29.7528 39.2109C29.7538 39.6871 29.692 40.1615 29.5688 40.6221C29.479 40.9514 30.0069 41.1547 30.1471 40.8318C30.5626 39.866 30.2384 38.1903 30.4209 37.7622C30.6217 37.3888 31.6162 37.4876 31.5651 36.7358C31.4877 36.4699 31.1722 36.5614 31.0211 36.6897Z" fill="#4D4D4D"/>
<path d="M34.925 33.7296C34.8724 32.9966 34.0138 32.0452 33.2062 32.469C33.0047 32.5742 33.0784 32.8459 33.2653 32.9137C33.6961 33.0694 34.1583 33.1969 34.2262 33.7296C34.2438 33.8665 34.3212 34.0388 34.4825 34.0626C34.5441 34.073 34.6071 34.073 34.6687 34.0626C34.7424 34.0423 34.8073 33.9987 34.8536 33.9386C34.8999 33.8785 34.9249 33.8051 34.925 33.7296Z" fill="#4D4D4D"/>
<path d="M33.3637 31.2761C32.8738 31.3316 32.8526 32.0805 33.3637 32.0517C33.8164 32.0257 34.2611 32.0178 34.6831 32.2052C35.1351 32.4055 35.1643 32.8401 35.4323 33.1904C35.4509 33.2207 35.4789 33.2442 35.5122 33.2574C35.5455 33.2706 35.5823 33.2727 35.6169 33.2635C35.6516 33.2544 35.6823 33.2343 35.7044 33.2065C35.7265 33.1786 35.7389 33.1444 35.7397 33.109C35.7667 32.6297 35.4804 31.9644 35.1438 31.6185C34.6904 31.1551 33.9522 31.2098 33.3637 31.2761Z" fill="#4D4D4D"/>
<path d="M15.7992 23.3478C15.7372 23.6555 15.6371 24.1406 15.8905 24.1406C16.0818 24.1406 16.2943 23.3276 16.3972 23.1575C16.739 22.5888 16.8178 22.5088 17.2464 22.155C17.5223 21.9234 17.8682 21.7888 18.2299 21.7722C19.3858 21.7153 19.4566 22.9406 19.6501 23.1035C19.745 23.1835 20.0342 23.3817 20.1488 23.0501C20.1984 22.3099 19.5092 21.1726 18.3825 21.1719C17.6458 21.1719 17.134 21.3982 16.6506 21.8263C16.1329 22.2811 15.862 23.0335 15.7992 23.3478Z" fill="#4D4D4D"/>
<path d="M31.9625 13.3563C31.8989 13.486 31.6492 13.9747 31.6229 14.1261C31.613 14.1633 31.616 14.2027 31.6313 14.2381C31.6467 14.2734 31.6735 14.3028 31.7076 14.3214C31.7488 14.3244 31.7902 14.3198 31.8296 14.3077C32.0844 14.2176 32.4305 13.4212 32.5371 13.1372C32.5583 13.0795 32.578 13.0226 32.5977 12.9657C32.6617 12.8164 32.7137 12.6624 32.7532 12.5051C32.9029 11.9192 32.9117 11.5321 32.8365 11.2208C32.8245 11.1811 32.7985 11.147 32.7632 11.1246C32.7279 11.1022 32.6857 11.0931 32.6441 11.0988C32.6026 11.1046 32.5646 11.1249 32.5369 11.156C32.5092 11.1871 32.4937 11.2269 32.4933 11.2683C32.4312 11.9062 32.4393 11.7729 32.3137 12.3494C32.2613 12.5641 32.1972 12.7758 32.1216 12.9837C32.0851 13.055 31.9982 13.2828 31.9625 13.3563Z" fill="#4D4D4D"/>
<path d="M30.3064 13.8487C29.9114 14.9839 28.9826 17.6982 28.627 18.8463C28.5248 19.1757 29.0228 19.2982 29.1418 18.9861C29.5697 17.8625 30.4473 15.1309 30.8365 13.9929C31.019 13.4595 31.3031 12.6472 31.5469 12.1398C31.866 11.9107 31.9076 11.7124 32.2617 10.7027C32.2778 10.289 31.433 10.0634 31.3074 10.3913C31.1848 10.6796 30.7759 11.587 30.9664 11.8955C30.3911 13.6166 30.4999 13.2923 30.3064 13.8487Z" fill="#4D4D4D"/>
<path d="M30.2638 11.5094C30.3711 11.4546 30.4098 11.3256 30.4419 11.2211C30.4833 11.0989 30.5122 10.9728 30.5281 10.8449C30.5478 10.6323 30.2426 10.522 30.1031 10.6712C30.0346 10.7485 29.9844 10.8399 29.9561 10.9388C29.9278 11.0376 29.9222 11.1415 29.9396 11.2428C29.963 11.3826 30.0761 11.6024 30.2638 11.5094Z" fill="#4D4D4D"/>
<path d="M34.0265 13.7883C33.9425 13.9188 33.8322 13.9858 33.7972 14.1386C33.7877 14.1796 33.7944 14.2227 33.816 14.259C33.8375 14.2953 33.8724 14.3221 33.9133 14.3339C33.9675 14.3364 34.0218 14.3316 34.0747 14.3195C34.4127 14.2287 34.9676 13.6997 35.0837 13.2989C35.2495 12.7274 35.1998 12.3137 34.9757 11.7854C34.9027 11.6131 34.5135 11.6146 34.5442 11.833C34.6383 12.4874 34.5923 12.7296 34.5003 13.0697C34.3514 13.4121 34.0739 13.7141 34.0265 13.7883Z" fill="#4D4D4D"/>
<path d="M32.5013 14.8944C32.5119 14.9298 32.5351 14.9603 32.5666 14.9803C32.598 15.0004 32.6357 15.0087 32.6728 15.0037C32.7099 14.9987 32.7439 14.9809 32.7689 14.9533C32.7938 14.9257 32.8079 14.8903 32.8087 14.8533C32.843 14.4382 33.2716 14.0958 33.514 13.7816C33.7717 13.4479 34.0521 13.0169 34.1207 12.5981C34.2471 11.8327 34.0412 11.4651 33.6147 10.8251C33.5322 10.7026 33.2497 10.7768 33.2927 10.9289C33.4176 11.3491 33.6476 12.3574 33.1876 13.081C32.8371 13.6309 32.2304 14.183 32.5013 14.8944Z" fill="#4D4D4D"/>
<path d="M30.0299 12.0271C30.0956 11.9969 30.0635 11.9277 30.0299 11.9053C29.7531 11.7244 29.2771 11.6826 28.9441 11.5522L28.9551 11.5572C28.9171 11.5421 28.8821 11.5262 28.8463 11.5089C28.5287 11.3489 28.2381 11.0376 28.1847 10.6801C28.1563 10.4833 27.8708 10.5518 27.8554 10.7241C27.7686 11.7165 29.1588 12.4257 30.0299 12.0271Z" fill="#4D4D4D"/>
<path d="M28.8477 11.5068C28.8794 11.5231 28.9121 11.5376 28.9455 11.5501L28.8477 11.5068Z" fill="#4D4D4D"/>
<path d="M29.352 11.2004C29.5039 11.2552 29.6002 11.0743 29.5433 10.9546C29.4863 10.835 29.4703 10.7161 29.4287 10.6015C29.3783 10.4689 29.3629 10.3319 29.3053 10.2015C29.2322 10.0335 28.927 10.0314 28.8526 10.2015C28.7591 10.4177 28.792 10.6245 28.8869 10.8336C28.9818 11.0426 29.1512 11.1283 29.352 11.2004Z" fill="#4D4D4D"/>
<path d="M37.3122 18.9297C37.2715 18.9546 37.2401 18.9919 37.2225 19.0359C37.205 19.0799 37.2023 19.1283 37.2148 19.174C37.2273 19.2196 37.2545 19.2601 37.2922 19.2893C37.3298 19.3185 37.3761 19.335 37.424 19.3362C37.743 19.3484 38.0512 19.3218 38.3549 19.4508C38.5929 19.5517 38.8149 19.7859 39.0895 19.7247C39.1199 19.7164 39.1477 19.7004 39.17 19.6783C39.1923 19.6562 39.2083 19.6287 39.2165 19.5985C39.326 19.2108 38.8164 18.9463 38.5126 18.8454C38.1344 18.7199 37.6547 18.699 37.3122 18.9297Z" fill="#4D4D4D"/>
<path d="M23.3589 40.9106C23.6349 40.8386 23.7349 40.5776 23.6962 40.3247C23.611 39.7858 23.569 39.2412 23.5707 38.6958C23.5707 38.4248 23.5531 38.1567 23.5495 37.8864C23.5458 37.6161 23.5896 37.3531 23.5619 37.0864C23.5407 36.8817 23.2698 36.7779 23.1508 36.9768C22.8588 37.459 22.7215 38.1408 22.6784 38.6958C22.6339 39.3243 22.663 39.9558 22.7653 40.5776C22.8047 40.8342 23.1282 40.9705 23.3589 40.9106Z" fill="#4D4D4D"/>
<path d="M35.2284 14.3006C35.7001 14.5514 36.0236 14.6948 36.4624 15.0148C36.9216 15.3485 37.1619 15.9806 36.9779 16.5104C36.9216 16.6704 37.1568 16.8066 37.2699 16.6776C37.6905 16.1968 37.4802 15.2974 37.1159 14.8202C36.9028 14.5379 36.6297 14.305 36.3157 14.1379C36.0018 13.9708 35.6546 13.8736 35.2985 13.853C35.0167 13.8386 34.9845 14.1723 35.2284 14.3006Z" fill="#4D4D4D"/>
<path d="M24.554 35.5863C24.6189 35.9128 24.9833 35.7853 25.003 35.618C25.0841 34.9468 24.9862 34.2663 24.719 33.6439C24.4999 33.1005 24.0567 32.4908 23.5748 32.1268C23.0637 31.7354 22.3401 31.6086 21.7071 31.5675C21.074 31.5264 20.108 31.5199 19.5808 31.9106C19.3435 32.0864 19.4187 32.4432 19.7334 32.4648C20.0255 32.485 20.3176 32.379 20.6096 32.3459C20.9083 32.3099 21.2092 32.2954 21.5099 32.3026C22.04 32.3185 22.5993 32.3567 23.063 32.6335C23.5266 32.9102 23.8311 33.4666 24.0611 33.9308C24.3167 34.4521 24.4832 35.0114 24.554 35.5863Z" fill="#4D4D4D"/>
<path d="M22.9873 35.9713C22.945 36.2415 23.3393 36.3648 23.4137 36.0873C23.7335 34.8866 23.3882 33.3341 22.1162 32.9225C21.4627 32.7106 20.7414 32.7892 20.1017 33.0011C19.8206 33.0941 19.2635 33.4134 19.0145 33.1207C18.7889 32.857 19.1292 32.5391 19.0415 32.2429C19.0291 32.2004 18.9014 32.1809 18.867 32.2018C18.4494 32.4591 18.3793 33.0667 18.629 33.4581C19.0174 34.0664 19.7242 33.7889 20.277 33.6281C20.9976 33.4206 21.6971 33.3571 22.3565 33.7665C23.0158 34.1759 23.1078 35.2217 22.9873 35.9713Z" fill="#4D4D4D"/>
<path d="M25.7506 33.9815C25.8506 33.4475 25.4585 32.8284 25.1197 32.4363C25.0416 32.3455 24.1939 31.5606 24.1537 32.0038C24.1391 32.1617 24.2428 32.246 24.3509 32.3527C24.5218 32.5109 24.6798 32.6822 24.8233 32.8651C25.0869 33.2255 25.1409 33.6644 25.3702 34.0298C25.4578 34.1697 25.7163 34.1639 25.7506 33.9815Z" fill="#4D4D4D"/>
<path d="M35.7749 13.5356C35.8362 13.5356 35.8983 13.5406 35.9589 13.5356C36.0389 13.5272 36.1173 13.5078 36.1918 13.4779C36.2518 13.4613 36.3046 13.4258 36.3422 13.3769C36.3799 13.3279 36.4003 13.2681 36.4003 13.2066C36.4003 13.1451 36.3799 13.0853 36.3422 13.0363C36.3046 12.9873 36.2518 12.9518 36.1918 12.9352C36.1168 12.9082 36.0384 12.8912 35.9589 12.8848C35.8975 12.8848 35.8362 12.8898 35.7749 12.8927C35.6885 12.8927 35.6057 12.9266 35.5446 12.9868C35.4835 13.0471 35.4492 13.1289 35.4492 13.2141C35.4492 13.2994 35.4835 13.3812 35.5446 13.4414C35.6057 13.5017 35.6885 13.5356 35.7749 13.5356Z" fill="#4D4D4D"/>
<path d="M26.7346 10.918C26.8208 11.2395 27.0048 13.8176 27.05 14.7769C27.1165 16.1931 27.0734 17.7168 27.2472 19.1237C27.2764 19.3615 27.6079 19.5143 27.6283 19.2678C27.7452 17.8602 27.6072 16.1866 27.5436 14.7769C27.4889 13.4687 27.394 12.1714 27.3005 10.8647C27.4348 10.6629 27.4852 10.7393 27.3859 9.43261C27.3574 9.12774 27.4027 8.96413 26.8799 9.00665C26.4082 9.02323 26.3257 9.13999 26.352 9.4391C26.417 10.1807 26.4667 10.8294 26.7346 10.918Z" fill="#4D4D4D"/>
<path d="M37.0779 18.4188C37.3547 18.4527 37.6263 18.3979 37.9023 18.4419C38.152 18.4823 38.3959 18.5522 38.6463 18.586C38.7989 18.6062 38.9223 18.39 38.8303 18.2696C38.4156 17.7298 37.443 17.59 36.9129 18.0267C36.7377 18.1687 36.9012 18.3972 37.0779 18.4188Z" fill="#4D4D4D"/>
<path d="M16.0553 14.9782C16.0557 14.9913 16.0603 15.004 16.0685 15.0144C16.0767 15.0248 16.0881 15.0322 16.101 15.0357C16.1138 15.0392 16.1275 15.0385 16.1399 15.0337C16.1523 15.0289 16.1629 15.0203 16.17 15.0092C16.3737 14.6589 16.4934 14.3872 16.3846 13.9756C16.2948 13.6354 16.113 13.2491 15.7435 13.1482C15.6384 13.1194 15.4916 13.2044 15.507 13.3262C15.5413 13.6037 15.7048 13.8243 15.7947 14.0852C15.8881 14.3569 16.029 14.6942 16.0553 14.9782Z" fill="#4D4D4D"/>
<path d="M14.9702 16.8475C15.7996 16.1462 16.0238 14.3826 15.1418 13.6417C15.0439 13.5595 14.8497 13.6042 14.8607 13.7563C14.903 14.2449 15.0447 14.7221 15.0395 15.2172C15.0352 15.7599 14.8796 16.196 14.7256 16.7063C14.681 16.8562 14.865 16.9362 14.9702 16.8475Z" fill="#4D4D4D"/>
<path d="M15.1868 21.055C16.2703 21.3843 16.926 20.8481 17.1064 20.6665C17.1205 20.6523 17.1311 20.6351 17.1375 20.6163C17.1439 20.5974 17.1459 20.5774 17.1433 20.5577C17.1407 20.5379 17.1336 20.5191 17.1225 20.5025C17.1114 20.4858 17.0967 20.4719 17.0794 20.4618C16.8603 20.3667 16.7457 20.4618 16.539 20.5584C16.4463 20.6009 15.8571 20.8784 15.0962 20.4784C14.578 20.2059 14.1832 19.7502 13.9908 19.2027C13.5286 17.8902 14.166 16.7399 14.6319 15.5392C14.6954 15.3763 14.4435 15.2314 14.3318 15.3662C13.3614 16.5374 12.9664 18.363 13.6629 19.7562C13.8123 20.0648 14.0249 20.3395 14.2871 20.563C14.5494 20.7866 14.8557 20.9541 15.1868 21.055Z" fill="#4D4D4D"/>
<path d="M11.719 25.5493C11.2489 25.2591 10.8218 24.906 10.45 24.4999C10.4434 24.4938 10.4352 24.4897 10.4263 24.4881C10.4174 24.4865 10.4082 24.4874 10.3998 24.4909C10.3915 24.4943 10.3843 24.5 10.3792 24.5074C10.3741 24.5148 10.3713 24.5235 10.3711 24.5324C10.3959 24.8531 10.4529 25.132 10.6354 25.411C10.8303 25.6966 11.0967 25.9277 11.4087 26.082C11.765 26.2564 12.06 25.7648 11.719 25.5493Z" fill="#4D4D4D"/>
<path d="M12.6925 20.6991C12.7221 20.7562 12.7555 20.8113 12.7925 20.8641C13.3336 21.6353 14.9056 22.4497 15.8198 21.9322C16.0468 21.8032 15.9322 21.4861 15.6927 21.4695C15.4532 21.4529 15.2232 21.4991 14.9866 21.4738C14.7185 21.4401 14.458 21.3627 14.2156 21.2447C13.8797 21.0854 13.5219 20.8756 13.2876 20.5787C13.1802 20.3691 13.088 20.1524 13.0116 19.93C12.8188 19.3715 12.7925 18.8367 12.7655 18.2723C12.7794 18.2053 12.7947 18.1383 12.8115 18.072C12.8524 17.9163 12.9261 17.7592 12.9283 17.5963C12.9334 17.117 12.3851 17.0918 12.2456 17.517C12.0529 18.1008 12.0529 18.854 12.1492 19.4529C12.2155 19.9084 12.4029 20.3384 12.6925 20.6991Z" fill="#4D4D4D"/>
<path d="M11.7541 24.9075C12.0396 25.025 12.2769 24.5904 12.0542 24.3994C11.6563 24.0635 11.2576 23.8113 10.994 23.3428C10.7304 22.8743 10.737 22.3049 10.5004 21.8292C10.4985 21.8258 10.4956 21.8229 10.4921 21.8209C10.4887 21.8189 10.4847 21.8179 10.4807 21.8179C10.4767 21.8179 10.4728 21.8189 10.4693 21.8209C10.4658 21.8229 10.463 21.8258 10.461 21.8292C10.193 22.3518 10.3456 23.1042 10.5661 23.6174C10.7969 24.1529 11.1955 24.6783 11.7541 24.9075Z" fill="#4D4D4D"/>
<path d="M13.1251 22.7181C13.4756 22.9718 13.8866 23.1859 14.3167 23.2637C14.673 23.3278 15.2374 23.3523 15.4163 22.9754C15.4777 22.8471 15.436 22.664 15.2703 22.6294C15.1045 22.5948 14.995 22.6338 14.8322 22.6648C14.6341 22.694 14.4319 22.6772 14.2415 22.6158C13.9134 22.5171 13.6037 22.3667 13.3244 22.1703C12.7578 21.7941 12.2635 21.3054 11.9685 20.6914C11.9568 20.6669 11.9218 20.6849 11.9262 20.7087C12.0831 21.4928 12.4592 22.2359 13.1251 22.7181Z" fill="#4D4D4D"/>
<path d="M16.6684 13.3306C16.7151 13.4027 16.7669 13.4647 16.8144 13.5324C16.8619 13.6002 16.9305 13.6355 16.9685 13.6931C16.9854 13.7186 17.01 13.7381 17.0388 13.7489C17.0677 13.7597 17.0992 13.7612 17.129 13.7532C17.1587 13.7452 17.1851 13.7281 17.2044 13.7043C17.2237 13.6806 17.2349 13.6515 17.2364 13.6211C17.2459 13.5202 17.2817 13.4546 17.2642 13.345C17.2472 13.2303 17.2102 13.1193 17.1546 13.0171C17.0452 12.8063 16.8834 12.6263 16.6844 12.4938C16.388 12.3129 16.0908 12.7187 16.3193 12.9594C16.4456 13.0737 16.5624 13.1978 16.6684 13.3306Z" fill="#4D4D4D"/>
<path d="M12.9584 24.0506C13.5864 24.2754 14.8955 24.1947 14.9956 25.0675C15.0474 25.5173 15.7002 25.4373 15.6213 24.9839C15.5184 24.4001 14.905 24.0232 14.3757 23.8567C13.9967 23.7385 13.601 23.6967 13.241 23.5223C12.9402 23.3672 12.6686 23.1624 12.4378 22.9168C11.9661 22.4354 11.6879 21.7903 11.5879 21.1323C11.5326 20.7053 11.5191 20.2739 11.5478 19.8443C11.566 19.4386 11.6879 19.0285 11.6719 18.6248C11.6716 18.6099 11.6669 18.5954 11.6584 18.5831C11.6499 18.5708 11.6379 18.5612 11.6239 18.5555C11.61 18.5499 11.5946 18.5484 11.5798 18.5512C11.5649 18.554 11.5513 18.5611 11.5405 18.5715C11.0644 19.1085 10.8658 20.0699 10.8672 20.7654C10.8631 21.5045 11.0759 22.229 11.4798 22.8513C11.842 23.4005 12.3283 23.8257 12.9584 24.0506Z" fill="#4D4D4D"/>
<path d="M18.7036 12.3703C18.8128 12.3694 18.9175 12.3268 18.9956 12.2514C19.0724 12.1755 19.1155 12.0728 19.1155 11.9656C19.1155 11.8584 19.0724 11.7556 18.9956 11.6798C18.9188 11.6041 18.8147 11.5615 18.7061 11.5615C18.5976 11.5615 18.4934 11.6041 18.4166 11.6798C18.3398 11.7566 18.2968 11.8602 18.2969 11.9681C18.2966 12.0216 18.3071 12.0746 18.3276 12.1241C18.3482 12.1735 18.3784 12.2185 18.4166 12.2564C18.4944 12.3285 18.5968 12.3692 18.7036 12.3703Z" fill="#4D4D4D"/>
<path d="M25.0563 10.3385C25.0824 10.4233 25.139 10.4958 25.2155 10.5424C25.2822 10.5787 25.359 10.5928 25.4345 10.5828C25.5095 10.5751 25.5794 10.542 25.6324 10.4891L25.6864 10.417C25.7177 10.3649 25.7341 10.3053 25.7339 10.2448C25.7339 10.2448 25.7339 10.2375 25.7339 10.2332C25.7341 10.1881 25.7252 10.1433 25.7076 10.1016C25.6901 10.0599 25.6642 10.022 25.6317 9.99033C25.5942 9.95264 25.5481 9.92439 25.4973 9.90796C25.4465 9.89153 25.3924 9.8874 25.3396 9.89592C25.2947 9.90089 25.2513 9.9149 25.2121 9.93709C25.1729 9.95928 25.1388 9.98918 25.1118 10.0249C25.0811 10.0581 25.0598 10.0986 25.0497 10.1424C25.0329 10.2021 25.0329 10.2651 25.0497 10.3248L25.0563 10.3385Z" fill="#4D4D4D"/>
<path d="M23.8078 10.4071C23.821 10.4208 23.8356 10.4309 23.8494 10.4439C23.8633 10.4569 23.867 10.4662 23.8714 10.4713L23.8808 10.4886L23.8976 10.5174V10.5268C23.8978 10.5686 23.9042 10.6101 23.9166 10.65C23.9999 10.9477 24.4401 10.9448 24.5256 10.65C24.5847 10.4439 24.4621 10.1996 24.2861 10.085C24.2252 10.0446 24.1571 10.0162 24.0853 10.0014C24.0288 9.98913 23.9702 9.98913 23.9137 10.0014C23.8742 10.0148 23.8367 10.0332 23.802 10.0561C23.6779 10.1196 23.6866 10.2652 23.764 10.3545C23.7744 10.3751 23.7894 10.3931 23.8078 10.4071Z" fill="#4D4D4D"/>
<path d="M24.3008 11.2391C23.6436 11.4214 22.9062 11.9598 22.9865 12.7101C22.9901 12.735 23.0017 12.7581 23.0196 12.776C23.0375 12.7939 23.0608 12.8056 23.086 12.8095C23.1112 12.8134 23.1369 12.8092 23.1595 12.7975C23.1821 12.7859 23.2003 12.7673 23.2114 12.7447C23.448 12.264 23.8386 11.9836 24.3621 11.8596C24.7528 11.7667 25.0521 11.6917 25.4515 11.8265C25.7115 11.9137 25.9699 11.8085 25.9422 11.5605C25.8772 10.9767 24.7644 11.1108 24.3008 11.2391Z" fill="#4D4D4D"/>
<path d="M17.3587 12.7287C17.3587 12.7287 17.3587 12.7287 17.3623 12.7338C17.3834 12.7705 17.4079 12.8052 17.4354 12.8375C17.4764 12.8823 17.526 12.9186 17.5814 12.9442C17.6412 12.977 17.7115 12.9857 17.7776 12.9685C17.8437 12.9513 17.9006 12.9096 17.9362 12.852C18.0363 12.6811 17.9968 12.5002 17.8954 12.3388C17.8541 12.2711 17.8035 12.2095 17.7449 12.1557C17.6968 12.1083 17.6372 12.0738 17.5717 12.0557C17.5063 12.0375 17.4372 12.0362 17.3711 12.0519C17.3037 12.0701 17.2443 12.1097 17.2019 12.1645C17.1596 12.2194 17.1366 12.2864 17.1367 12.3554C17.1391 12.4553 17.1798 12.5506 17.2506 12.622C17.2857 12.6588 17.3244 12.6912 17.3587 12.7287Z" fill="#4D4D4D"/>
<path d="M24.862 12.2807C24.4482 12.3727 24.0773 12.5981 23.8077 12.9214C23.6802 13.0782 23.5814 13.2558 23.5156 13.4461C23.4623 13.5946 23.4287 13.8677 23.29 13.9694C23.1272 14.089 22.8483 14.0191 22.6613 14.0414C22.4959 14.0503 22.3403 14.1218 22.2269 14.2411C22.2016 14.2659 22.1863 14.2989 22.1839 14.334C22.1816 14.3692 22.1923 14.4039 22.2141 14.4318C22.236 14.4596 22.2674 14.4786 22.3024 14.4852C22.3374 14.4917 22.3737 14.4854 22.4043 14.4674C22.6007 14.3593 22.8424 14.5114 23.0374 14.5467C23.1894 14.5791 23.3479 14.564 23.4908 14.5034C23.7967 14.3687 23.9223 14.071 24.0319 13.7827C24.1779 13.3906 24.3969 13.0843 24.8051 12.925C25.2782 12.7405 25.6733 12.933 26.142 12.9171C26.4202 12.907 26.4742 12.5848 26.2742 12.4349C25.9171 12.1639 25.2804 12.1855 24.862 12.2807Z" fill="#4D4D4D"/>
<path d="M20.0307 11.6763C20.214 11.6763 21.345 11.2107 21.9649 11.6474C22.111 11.7512 22.1949 11.9718 22.3906 11.9984C22.4326 12.0044 22.4755 12.0014 22.5163 11.9897C22.557 11.978 22.5948 11.9578 22.627 11.9305C22.6592 11.9032 22.6852 11.8694 22.7031 11.8314C22.721 11.7934 22.7305 11.752 22.7309 11.7101C22.7426 11.3289 22.3205 11.0182 22.0124 10.8741C21.5013 10.6434 20.2819 10.9728 20.0884 11.0535C19.9088 11.1256 19.6277 11.2849 19.7044 11.4802C19.781 11.6755 19.865 11.6734 20.0307 11.6763Z" fill="#4D4D4D"/>
<path d="M22.8322 10.8867C22.9122 11.0094 23.0093 11.1202 23.1206 11.2161C23.1755 11.2702 23.2499 11.3006 23.3275 11.3005C23.4051 11.3004 23.4794 11.27 23.5342 11.2158C23.589 11.1616 23.6198 11.0881 23.6197 11.0115C23.6196 10.935 23.5888 10.8616 23.5339 10.8075C23.4455 10.7015 23.0549 10.357 22.8037 10.3397C22.6913 10.3152 22.6117 10.3462 22.6109 10.4788C22.6089 10.4878 22.6089 10.4972 22.6109 10.5062C22.6343 10.6467 22.7957 10.8327 22.8322 10.8867Z" fill="#4D4D4D"/>
</svg>
