<svg width="34" height="48" viewBox="0 0 34 48" fill="none" xmlns="http://www.w3.org/2000/svg">
<path fill-rule="evenodd" clip-rule="evenodd" d="M25.0001 4.17213L24.9932 4.17533L24.9567 4.19243C24.9233 4.20826 24.8726 4.23259 24.8088 4.26418C24.6804 4.32774 24.5031 4.41869 24.3089 4.52724C23.8821 4.76575 23.5151 5.01214 23.3399 5.18796C23.0571 5.47177 22.9779 5.77448 23.3676 6.97239C23.3786 7.00608 23.3901 7.04096 23.4021 7.07694C23.7567 7.29623 24.1884 7.39195 24.8924 7.38562C25.6443 7.37885 26.3505 7.11223 26.9719 6.65615C27.0521 6.46884 27.1356 6.29714 27.2058 6.15448C27.2299 6.1055 27.2526 6.05951 27.2741 6.01604C27.3788 5.80439 27.4539 5.65241 27.5137 5.5049C27.5487 5.41849 27.5631 5.36858 27.5686 5.34806C27.557 5.1597 27.4476 4.75216 27.1654 4.28104C26.9625 3.94244 26.7454 3.69669 26.5661 3.54429C26.4154 3.58469 26.2282 3.64722 26.0198 3.7267C25.7643 3.82414 25.5178 3.93125 25.3321 4.01569C25.2403 4.05744 25.1658 4.09257 25.1153 4.1167L25.059 4.14387L25.0463 4.15008L25.0449 4.1508M23.7329 1.4529L23.73 1.45422L23.673 1.48094C23.6254 1.5035 23.5588 1.53551 23.4776 1.5757C23.3161 1.65568 23.093 1.77004 22.8452 1.90852C22.388 2.16408 21.7048 2.57868 21.2147 3.07049C20.0707 4.21872 19.9939 5.53346 20.1782 6.61335C20.1589 6.6489 20.141 6.68549 20.1244 6.72311C19.8801 7.27712 19.9979 7.8992 20.3749 8.3244C20.4138 8.39134 20.4701 8.47934 20.5449 8.57068C20.6354 8.68124 20.7378 8.78576 20.8392 8.87976C20.9042 9.08659 20.9571 9.27616 20.9958 9.46883C21.0783 9.87875 21.0357 10.0526 20.9933 10.142C20.6444 10.8756 20.5095 11.6086 20.4101 12.149C20.4072 12.1649 20.4043 12.1807 20.4014 12.1962C20.2923 12.7881 20.2147 13.1749 20.0451 13.5419C19.6336 14.4328 19.1454 15.2581 18.6169 16.1516C18.3753 16.56 18.1253 16.9827 17.8704 17.4324C17.8137 17.5324 17.7103 17.648 17.4852 17.8999C17.4207 17.9719 17.3463 18.0551 17.2602 18.1523C17.1035 18.3292 16.9115 18.5528 16.7424 18.7969C16.5786 19.0336 16.3788 19.3698 16.2755 19.7797C16.1955 20.0973 16.1637 20.3879 16.1434 20.6078C16.1366 20.6808 16.1313 20.743 16.1265 20.7982C16.1151 20.9314 16.1071 21.0241 16.0913 21.1324C16.08 21.2092 16.0675 21.29 16.0544 21.3745C16.0448 21.4359 16.035 21.4992 16.0251 21.5644C15.978 21.4917 15.9311 21.4197 15.8846 21.3482C15.3345 20.5021 14.8296 19.7258 14.4026 18.8851C14.2362 18.5573 14.1589 18.2119 14.0447 17.6485C14.0415 17.6329 14.0383 17.6171 14.0351 17.6011C13.9312 17.0872 13.7862 16.3699 13.4116 15.6533C13.3921 15.616 13.3425 15.5039 13.4231 15.1394C13.4601 14.9722 13.5096 14.8083 13.5709 14.629C13.6733 14.5421 13.7764 14.4458 13.8682 14.3438C13.9463 14.2571 14.0061 14.1729 14.0484 14.1071C14.4476 13.695 14.5908 13.0712 14.3634 12.5043C14.3419 12.4507 14.3177 12.3991 14.291 12.3494C14.3388 12.0761 14.3671 11.7893 14.3613 11.4964C14.3432 10.5705 13.991 9.66725 13.1673 8.9153C12.6586 8.45092 11.9515 8.06075 11.4781 7.82007C11.2214 7.68953 10.9902 7.58174 10.8229 7.5064C10.7389 7.46856 10.67 7.43846 10.6209 7.4173L10.5623 7.3923L10.5581 7.39055L10.5457 7.38502C10.5265 7.37651 10.4996 7.36462 10.4657 7.34991C10.3982 7.32053 10.3028 7.27968 10.1872 7.23184C9.95787 7.13695 9.63996 7.01089 9.29658 6.89178C8.96155 6.77557 8.56161 6.65161 8.1785 6.57618C7.9874 6.53855 7.76306 6.50535 7.53131 6.50061C7.32447 6.49638 6.97188 6.51004 6.60747 6.67245C5.67993 7.08581 4.94275 7.86659 4.45325 8.60978C3.97355 9.33808 3.56089 10.2909 3.56089 11.2114C3.56089 11.7313 3.73417 12.1846 3.86366 12.4754C3.97692 12.7298 4.12082 12.9936 4.22921 13.1922C4.24824 13.2271 4.26618 13.26 4.28266 13.2905C4.33242 13.3825 4.37369 13.4607 4.40782 13.5283C4.42818 13.6355 4.46021 13.7406 4.50367 13.8417C4.33011 14.6926 4.16473 15.7084 4.16473 16.6693C4.16473 16.9772 4.10001 17.3231 3.97925 17.7892C3.95314 17.89 3.92222 18.0035 3.8889 18.1258C3.78759 18.4977 3.66404 18.9512 3.58564 19.3775C3.50095 19.838 3.40037 20.2431 3.28858 20.6933C3.21793 20.9779 3.1428 21.2805 3.06438 21.6265C2.87792 22.4492 2.55249 23.3096 2.18125 24.2301C1.86862 25.0053 1.54399 25.7745 1.19892 26.5235C1.19526 26.5315 1.19409 26.5339 1.18368 26.55C1.17343 26.5657 1.17107 26.5692 1.16735 26.5747C1.16314 26.5809 1.15718 26.5897 1.13613 26.6216C1.11228 26.6579 1.07343 26.7178 1.03274 26.7909C0.940033 26.9573 0.860676 27.1497 0.810721 27.3804C0.765002 27.5916 0.752352 27.7966 0.752352 27.9848C0.752352 28.4933 0.742748 29.016 0.732942 29.5498C0.707594 30.9295 0.680897 32.3826 0.815259 33.8528C0.706939 34.0489 0.657281 34.2416 0.637488 34.4004C0.594184 34.7477 0.601542 35.075 0.610259 35.3153C0.612958 35.3897 0.615652 35.4547 0.618073 35.5131C0.624673 35.6724 0.62925 35.7828 0.626399 35.9017C0.617935 36.2548 0.596528 36.643 0.573808 37.055C0.50681 38.2699 0.428398 39.6918 0.636832 41.0294C0.654631 41.1436 0.65716 41.2931 0.639885 41.5319C0.636313 41.5813 0.629658 41.6558 0.621815 41.7435C0.604056 41.9423 0.580209 42.2091 0.572293 42.407C0.543008 43.1388 0.633184 44.1494 1.49842 45.0418C1.55622 45.1014 1.63475 45.1874 1.72832 45.2899C2.0063 45.5944 2.41706 46.0443 2.81144 46.3794C3.40841 46.8866 4.24426 47.4062 5.35107 47.472C5.56931 47.4849 5.80524 47.5019 6.05471 47.5198C7.31979 47.6108 8.93286 47.7267 10.3514 47.4739C10.5089 47.4458 10.6812 47.4353 10.9733 47.4175L11.0025 47.4157C11.2735 47.3991 11.6612 47.3749 12.0574 47.2866C12.3002 47.2325 12.5075 47.1826 12.7006 47.1361C12.9995 47.0641 13.2646 47.0003 13.5751 46.9417C14.3488 46.7957 14.9208 46.4478 15.3341 46.1614C15.5118 46.0383 15.6418 45.943 15.7484 45.8649C15.9316 45.7307 16.0456 45.6472 16.2138 45.5599C16.9164 45.1952 17.3671 44.5194 17.6033 44.139C17.6084 44.1308 17.6135 44.1226 17.6185 44.1145C18.1594 43.8879 18.5393 43.3535 18.5393 42.7304C18.5393 42.3428 18.5307 41.9531 18.5183 41.5672C18.5854 41.6165 18.6543 41.6721 18.7403 41.7414C18.8423 41.8236 18.9683 41.9252 19.1437 42.0588C19.5377 42.3589 20.1033 42.7405 20.8803 42.9018C21.1741 42.9627 21.4203 43.028 21.7021 43.1026C21.8872 43.1517 22.0876 43.2048 22.3271 43.2634C22.7235 43.3605 23.1097 43.3867 23.3687 43.4041L23.3846 43.4052C23.6753 43.4247 23.8293 43.435 23.9684 43.4623C25.3548 43.734 26.9324 43.6089 28.1419 43.513C28.3782 43.4943 28.6004 43.4767 28.8044 43.4634C29.9252 43.3902 30.7514 42.8142 31.3172 42.2857C31.6948 41.933 32.0867 41.4611 32.3529 41.1405C32.4428 41.0323 32.5183 40.9414 32.5741 40.8781C33.3818 39.9623 33.4574 38.9501 33.4309 38.2203C33.4235 38.017 33.4019 37.7524 33.3851 37.5456C33.3772 37.4493 33.3704 37.3655 33.3665 37.3062C33.3496 37.0491 33.3509 36.8729 33.3712 36.7294C33.5673 35.3459 33.4941 33.8856 33.4303 32.6114C33.4083 32.172 33.3874 31.7548 33.379 31.3705C33.3761 31.2378 33.3808 31.1127 33.3873 30.9417C33.3895 30.8811 33.392 30.8148 33.3945 30.7403C33.4028 30.4894 33.4092 30.1593 33.3698 29.8115C33.3522 29.6569 33.3057 29.4587 33.1936 29.2532C33.3272 27.6993 33.3016 26.1657 33.277 24.6965C33.2676 24.1317 33.2583 23.5763 33.2583 23.033C33.2583 22.8445 33.2468 22.6447 33.2067 22.4412C33.163 22.2194 33.0933 22.0323 33.0094 21.8668C32.9725 21.7938 32.9369 21.7334 32.9144 21.6959C32.8952 21.6638 32.8893 21.6541 32.8849 21.6471C32.881 21.6408 32.8785 21.6366 32.8686 21.6199C32.8572 21.6006 32.8529 21.5925 32.846 21.576C32.5145 20.7848 32.2027 19.9727 31.9029 19.1553C31.5476 18.187 31.2315 17.2696 31.0496 16.3874C30.9763 16.032 30.9051 15.7165 30.8376 15.4175C30.7295 14.9382 30.6309 14.5017 30.5491 14.0123C30.4756 13.5729 30.3605 13.1087 30.2639 12.7185C30.2314 12.5876 30.2011 12.465 30.175 12.3545C30.0587 11.8611 29.9916 11.4761 29.9916 11.124C29.9916 10.1095 29.8285 9.02924 29.6587 8.12458C29.7107 8.00558 29.7467 7.88095 29.7664 7.75408C29.8021 7.67555 29.8453 7.58515 29.8975 7.47909C29.9137 7.4463 29.9311 7.41116 29.9495 7.37409C30.0535 7.16449 30.1882 6.89285 30.2943 6.6311C30.4168 6.32857 30.5696 5.88195 30.5696 5.37984C30.5696 4.46945 30.1954 3.50119 29.7389 2.73922C29.2807 1.97451 28.5765 1.1446 27.6645 0.697761C27.2848 0.511727 26.9145 0.495871 26.7003 0.50069C26.4618 0.506057 26.2342 0.543456 26.0451 0.584386C25.6659 0.666481 25.2741 0.800308 24.9508 0.9236C24.6183 1.05041 24.3111 1.18435 24.09 1.28491C23.9784 1.33566 23.8864 1.37901 23.8211 1.41023C23.7884 1.42587 23.7623 1.43853 23.7436 1.44762L23.7329 1.4529ZM26.9219 10.0389C26.3013 10.2532 25.6312 10.3791 24.9194 10.3855C24.6196 10.3882 24.3172 10.3778 24.0146 10.3465C23.9717 10.6997 23.8762 11.0651 23.7025 11.4303C23.5379 11.7766 23.4605 12.1498 23.3517 12.7401C23.3482 12.7593 23.3446 12.7787 23.341 12.7985C23.2421 13.3363 23.1082 14.0647 22.7686 14.8C22.2905 15.8348 21.6768 16.8733 21.1137 17.8259C20.8907 18.2033 20.6756 18.5672 20.4801 18.912C20.3215 19.1917 20.124 19.4377 19.9668 19.6222C19.8647 19.7421 19.74 19.8807 19.6345 19.998C19.5861 20.0518 19.5418 20.101 19.5055 20.142C19.3651 20.3004 19.2715 20.4143 19.2089 20.5047C19.1924 20.5285 19.1812 20.5463 19.1741 20.5583C19.1573 20.6378 19.1443 20.7356 19.1307 20.8836C19.1279 20.9139 19.1248 20.9496 19.1214 20.9895C19.1082 21.1442 19.0897 21.3612 19.0597 21.5667C19.0464 21.6575 19.0337 21.743 19.0216 21.824C18.9198 22.5083 18.8665 22.8671 18.9352 23.2911C19.0605 24.0646 19.2349 25.1659 19.0034 26.274C18.9714 26.4274 18.9394 26.5783 18.9079 26.7269C18.8476 27.011 18.7891 27.2868 18.7355 27.5557C18.7545 27.9196 18.7432 28.313 18.6706 28.7209C18.6308 28.944 18.5978 29.145 18.5732 29.328C18.5908 29.3799 18.6052 29.4199 18.6219 29.4665C18.6399 29.5167 18.6607 29.5745 18.6912 29.6629C18.7417 29.8093 18.8043 30.0007 18.8512 30.2109C19.1758 31.6652 19.2283 33.1504 19.2098 34.5468C19.2015 35.1741 19.1783 35.8019 19.156 36.405C19.1535 36.4742 19.1509 36.5431 19.1484 36.6116C19.1367 36.9308 19.1258 37.243 19.1175 37.5495C19.179 37.6662 19.2395 37.7878 19.2928 37.8948C19.3017 37.9127 19.3104 37.9301 19.3188 37.9471C19.4121 38.134 19.4987 38.3053 19.5885 38.4643C19.6795 38.6254 19.7553 38.7405 19.8157 38.8164C19.8297 38.8341 19.8408 38.847 19.8488 38.8558C19.9548 38.9182 20.0546 38.9827 20.1475 39.0468C20.1693 38.9736 20.1946 38.8994 20.2241 38.8247C20.3102 38.6063 20.3614 38.2638 20.3646 37.7512C20.3662 37.506 20.3573 37.2525 20.346 36.9798C20.3444 36.9435 20.3429 36.9065 20.3413 36.8689C20.3314 36.6377 20.3207 36.3855 20.3183 36.1498C20.3154 35.8683 20.3139 35.5912 20.3124 35.3182C20.3037 33.7582 20.2957 32.3286 20.0417 30.9397C20.0132 30.7838 19.9608 30.6138 19.871 30.3402C19.8662 30.3257 19.8613 30.3108 19.8563 30.2956C19.7774 30.0558 19.6682 29.7237 19.5977 29.3714C19.4798 28.7822 19.4033 28.1253 19.4033 27.4943V25.4899L21.3264 26.0552C22.4751 26.3928 24.1106 26.3421 25.4256 26.0259C25.8676 25.9195 26.3274 25.715 26.8758 25.4291C27.019 25.3545 27.1785 25.2683 27.348 25.1768C27.7574 24.9557 28.2249 24.7032 28.6611 24.5054C28.8457 24.4217 29.0386 24.3406 29.2146 24.2668L29.2417 24.2554C29.4138 24.1833 29.5726 24.1166 29.7278 24.0478C29.9477 23.9502 30.1239 23.8636 30.2624 23.7844C30.2601 23.5596 30.2586 23.3313 30.2584 23.0989C30.2047 23.0051 30.1423 22.8861 30.0791 22.7355C29.7245 21.8892 29.3959 21.0323 29.0864 20.1886C28.7292 19.2147 28.3424 18.1138 28.1114 16.9931C28.0618 16.7526 28.002 16.4859 27.9392 16.2054C27.8171 15.6609 27.6834 15.0646 27.5902 14.5074C27.5371 14.1901 27.4648 13.8981 27.3783 13.5491C27.3398 13.394 27.2986 13.2276 27.255 13.0427C27.126 12.4953 26.9916 11.8349 26.9916 11.124C26.9916 10.7843 26.9655 10.4179 26.9219 10.0389ZM30.2941 27.0672C30.1476 27.1289 30.0186 27.1839 29.9003 27.2375C29.5593 27.3922 29.2504 27.5593 28.8929 27.7529C28.701 27.8567 28.4951 27.9682 28.2626 28.0893C27.6564 28.4054 26.9345 28.7485 26.1272 28.9427C25.1084 29.1877 23.8867 29.3275 22.6793 29.2761C22.6925 29.3165 22.7065 29.3592 22.7214 29.4048L22.7254 29.417C22.8079 29.6684 22.9232 30.0196 22.9928 30.4C23.2985 32.0718 23.3063 33.8018 23.3133 35.3502C23.3144 35.6121 23.3156 35.8687 23.3182 36.119C23.32 36.3025 23.3284 36.4998 23.3383 36.7347C23.34 36.7738 23.3416 36.8139 23.3434 36.8552C23.3549 37.1317 23.3666 37.4473 23.3646 37.7703C23.3606 38.3888 23.3083 39.1706 23.0221 39.9069C23.0219 39.909 23.0216 39.9116 23.0214 39.9147C23.0198 39.9334 23.0182 39.9627 23.0175 40.0127C23.017 40.0519 23.0171 40.088 23.0171 40.1362C23.0172 40.1569 23.0172 40.18 23.0172 40.2065C23.0172 40.2523 23.0152 40.2976 23.0112 40.3423C23.0212 40.3448 23.0311 40.3472 23.0409 40.3496C23.1529 40.377 23.2971 40.3926 23.5696 40.4108C23.5909 40.4123 23.6135 40.4137 23.6372 40.4153C23.8693 40.4304 24.2094 40.4524 24.5454 40.5183C25.4886 40.7031 26.5554 40.6223 27.7626 40.5308C28.0374 40.51 28.3194 40.4887 28.6089 40.4698C28.7547 40.4602 28.9537 40.3882 29.2694 40.0933C29.4256 39.9474 29.5836 39.7721 29.7614 39.5618C29.8122 39.5018 29.8718 39.43 29.9356 39.3532C30.0614 39.2016 30.2032 39.0308 30.3242 38.8937C30.3888 38.8204 30.4478 38.7403 30.4329 38.3294C30.4273 38.176 30.4173 38.0605 30.405 37.917C30.3955 37.806 30.3845 37.6783 30.373 37.5032C30.3512 37.1727 30.3374 36.756 30.4009 36.3084C30.5538 35.2296 30.5025 34.2075 30.4438 33.0366C30.4186 32.5356 30.3921 32.0074 30.3797 31.4359C30.3748 31.2128 30.3835 30.9757 30.3906 30.7903C30.2404 30.5575 30.1853 30.3375 30.163 30.2275C30.1244 30.0381 30.1251 29.8759 30.128 29.789C30.1326 29.6488 30.1641 29.4164 30.1536 29.5091C30.2475 28.6809 30.2843 27.8786 30.2941 27.0672ZM15.7098 27.4077C15.6234 27.8839 15.5496 28.3739 15.5094 28.8531C15.4887 29.0996 15.5046 29.3327 15.5372 29.5421C15.507 30.0344 15.5239 30.57 15.6476 31.1085C15.6814 31.2558 15.7151 31.4001 15.7481 31.5418C15.9324 32.3321 16.0975 33.0403 16.1652 33.7156C16.1589 33.7395 16.1453 33.7862 16.1174 33.8623C16.1006 33.9082 16.0816 33.9575 16.0579 34.018C16.0541 34.0278 16.0501 34.038 16.0459 34.0486C16.0261 34.0992 16.0028 34.1586 15.9807 34.217C15.9273 34.3578 15.8589 34.5474 15.8072 34.7579C15.4624 36.1632 15.4077 37.5942 15.4271 38.9276C15.4358 39.5264 15.4602 40.1257 15.4834 40.6984C15.4861 40.7642 15.4888 40.8297 15.4914 40.8948C15.5028 41.1794 15.5136 41.4574 15.522 41.73C15.4648 41.83 15.4093 41.9314 15.3604 42.0207C15.3511 42.0377 15.342 42.0543 15.3332 42.0704C15.2359 42.2479 15.1467 42.4082 15.0546 42.5565C14.9615 42.7065 14.8848 42.8122 14.8244 42.8813C14.8085 42.8995 14.7964 42.9121 14.7882 42.9201C14.631 43.0043 14.4725 43.1024 14.3236 43.201C14.2954 43.1074 14.2611 43.0118 14.2194 42.9155C14.143 42.7393 14.0904 42.4444 14.0871 41.9679C14.0855 41.7407 14.0945 41.5045 14.1064 41.2457C14.1079 41.2116 14.1096 41.1766 14.1112 41.1411C14.1215 40.9217 14.1329 40.6779 14.1354 40.45C14.1385 40.1802 14.1401 39.9156 14.1417 39.6554C14.1509 38.1726 14.1592 36.8361 14.4205 35.5366C14.4472 35.4039 14.4974 35.2542 14.5918 34.9923C14.5969 34.9782 14.6022 34.9636 14.6076 34.9486C14.6896 34.7221 14.8073 34.3966 14.8836 34.0498C15.0092 33.4788 15.0911 32.8402 15.0911 32.2237V30.2699L13.2037 30.7746C11.9629 31.1063 10.2169 31.0541 8.82142 30.7488C8.3385 30.6432 7.84462 30.442 7.27085 30.1699C7.1179 30.0974 6.94914 30.0145 6.77077 29.9269C6.34466 29.7175 5.86368 29.4813 5.41239 29.2951C5.22172 29.2164 5.02204 29.1401 4.83805 29.0699L4.80925 29.0589C4.62996 28.9905 4.46278 28.9267 4.29923 28.8607C4.07735 28.7712 3.89536 28.6903 3.74904 28.6154C3.75073 28.4462 3.75187 28.2747 3.75223 28.1005C3.80461 28.0147 3.86378 27.9088 3.92366 27.7788C4.29537 26.972 4.63958 26.1554 4.96349 25.3522C5.33651 24.4274 5.74531 23.37 5.99017 22.2897C6.04035 22.0682 6.10183 21.8187 6.16695 21.5543C6.2953 21.0333 6.43784 20.4546 6.53615 19.9202C6.59012 19.6267 6.6628 19.36 6.75197 19.0327C6.79244 18.8842 6.8363 18.7232 6.88335 18.5416C7.01885 18.0187 7.16473 17.3714 7.16473 16.6693C7.16473 16.3608 7.19048 16.0266 7.23402 15.679C7.90426 15.9041 8.62903 16.036 9.39801 16.0423C9.73543 16.045 10.0754 16.0332 10.4153 15.9968C10.4649 16.3383 10.5689 16.6912 10.7529 17.0432C10.9138 17.3509 10.9907 17.6828 11.1045 18.2443C11.1083 18.2633 11.1122 18.2825 11.1161 18.3021C11.2194 18.8135 11.3633 19.5258 11.7278 20.2436C12.2303 21.2329 12.8769 22.2281 13.4662 23.1351C13.6983 23.4922 13.9214 23.8356 14.1234 24.1596C14.2937 24.433 14.5038 24.6704 14.6674 24.845C14.7742 24.9591 14.905 25.0914 15.0153 25.2029C15.0657 25.2539 15.1119 25.3006 15.1496 25.3392C15.2966 25.4902 15.3927 25.5967 15.4558 25.6796C15.4637 25.69 15.4703 25.699 15.4757 25.7065C15.4879 25.7665 15.4988 25.8447 15.5108 25.9628C15.5135 25.9894 15.5165 26.0216 15.5199 26.058C15.5336 26.2045 15.5538 26.4207 15.5865 26.6234C15.6 26.7076 15.6129 26.7866 15.625 26.8612C15.6601 27.0762 15.689 27.2535 15.7098 27.4077ZM11.0701 12.7285C10.6743 12.9513 10.1887 13.0486 9.42256 13.0424C8.58601 13.0355 7.81819 12.7657 7.15962 12.3265C7.0766 12.1517 6.99162 11.993 6.92126 11.863C6.89562 11.8156 6.87157 11.7713 6.84897 11.7297C6.73977 11.5288 6.66424 11.3898 6.60425 11.2551C6.5851 11.2121 6.57285 11.1806 6.56523 11.1594C6.58618 11.0099 6.6873 10.6719 6.95862 10.26C7.18215 9.92059 7.42863 9.67315 7.63431 9.52691C7.81535 9.56532 8.05161 9.63529 8.31341 9.7261C8.58428 9.82006 8.84477 9.92305 9.04027 10.0039C9.13707 10.044 9.21573 10.0777 9.26912 10.1009L9.32886 10.1271L9.34253 10.1332L9.34444 10.1341L9.36569 10.1437L9.38617 10.1522L9.3872 10.1526L9.39532 10.156L9.43431 10.1727C9.46988 10.188 9.52354 10.2114 9.59093 10.2418C9.7265 10.3028 9.91359 10.3901 10.1185 10.4943C10.5685 10.7231 10.9585 10.9609 11.1447 11.1309C11.3373 11.3068 11.3593 11.4194 11.3619 11.5551C11.3665 11.7873 11.2902 12.1138 11.0947 12.6603C11.0868 12.6824 11.0786 12.7052 11.0701 12.7285ZM3.71541 31.8525C3.72622 32.6035 3.7645 33.3451 3.86008 34.1122C3.84714 34.0081 3.88313 34.2525 3.88836 34.3966C3.89167 34.4878 3.89264 34.6611 3.84727 34.8639C3.82061 34.9831 3.76039 35.1914 3.61662 35.4088C3.62341 35.5756 3.63017 35.7805 3.62554 35.9736C3.61214 36.5325 3.58397 37.0425 3.55749 37.522C3.49666 38.6235 3.44471 39.5641 3.60106 40.5675C3.67079 41.015 3.65518 41.4288 3.63207 41.7483C3.6193 41.9248 3.60763 42.0475 3.59771 42.1519C3.58529 42.2824 3.5756 42.3843 3.56989 42.5269C3.55665 42.8579 3.60051 42.9017 3.644 42.9452C3.64675 42.9479 3.64951 42.9507 3.65225 42.9535C3.83654 43.1436 3.98192 43.304 4.11226 43.4478C4.3309 43.689 4.50723 43.8836 4.75392 44.0932C5.07783 44.3684 5.31287 44.4644 5.52902 44.4773C5.82499 44.4948 6.11533 44.5149 6.39981 44.5346C7.66309 44.6219 8.811 44.7012 9.82494 44.5204C10.1629 44.4602 10.5053 44.4399 10.749 44.4255C10.7736 44.424 10.7972 44.4226 10.8196 44.4213C11.1037 44.4039 11.2701 44.3885 11.4049 44.3585C11.4199 44.3551 11.4352 44.3517 11.4507 44.3482C11.4502 44.3329 11.45 44.3176 11.45 44.3023L11.4501 44.1987C11.4501 44.1679 11.45 44.1432 11.4497 44.1211C11.4493 44.0953 11.4486 44.0771 11.448 44.0643C11.1456 43.3415 11.0913 42.5798 11.0871 41.9889C11.085 41.6762 11.0975 41.3716 11.1095 41.1087C11.1113 41.0692 11.1131 41.0309 11.1148 40.9937C11.1252 40.7702 11.1337 40.5867 11.1356 40.4162C11.1383 40.1806 11.1395 39.9383 11.1407 39.6904C11.1478 38.2201 11.1559 36.5541 11.4794 34.9452C11.5547 34.5709 11.6785 34.2274 11.7641 33.9901C10.5132 34.0421 9.24163 33.9117 8.18025 33.6795C7.35816 33.4996 6.61769 33.1804 5.98542 32.8806C5.74688 32.7675 5.5336 32.6625 5.33373 32.5641C4.95736 32.3788 4.62856 32.217 4.26828 32.0683C4.12038 32.0073 3.95717 31.9447 3.76873 31.8728L3.73338 31.8593C3.72741 31.8571 3.72142 31.8548 3.71541 31.8525ZM2.6815 33.1574C2.69166 33.1603 2.69796 33.1625 2.69796 33.1625C2.69796 33.1625 2.69328 33.1612 2.6815 33.1574Z" fill="#EA5A24"/>
</svg>
