<svg width="219" height="289" viewBox="0 0 219 289" fill="none" xmlns="http://www.w3.org/2000/svg">
    <path
        d="M218.974 129.484C217.592 133.524 215.39 136.859 211.383 138.782C208.336 140.244 205.11 140.501 201.999 139.616C196.891 138.154 191.425 138.013 186.65 135.166C185.216 134.319 183.065 134.794 181.312 134.371C178.354 133.665 175.448 132.755 172.542 131.908C170.737 131.382 168.945 130.793 167.14 130.215C164.887 129.484 162.659 128.625 160.368 128.022C156.246 126.945 152.111 125.829 147.912 125.111C146.043 124.79 145.428 126.458 145.748 128.163C146.171 130.433 146.785 132.665 147.22 134.935C147.592 136.872 147.835 138.834 148.104 140.796C148.168 141.283 148.091 141.809 148.206 142.284C149.538 147.439 150.895 152.582 152.264 157.725C152.495 158.597 152.879 159.443 153.032 160.328C154.044 166.42 154.914 172.525 156.054 178.591C156.489 180.899 157.603 183.079 158.204 185.362C158.755 187.466 159.049 189.646 159.408 191.788C159.689 193.468 159.792 195.186 160.201 196.841C161.046 200.278 162.058 203.663 162.979 207.088C163.581 209.319 164.208 211.538 164.669 213.795C165.949 220.156 167.14 226.517 168.382 232.891C168.881 235.482 169.419 238.06 169.944 240.637C170.865 245.229 171.761 249.82 172.747 254.411C173.349 257.22 174.027 260.016 174.757 262.799C175.896 267.121 174.245 269.545 169.726 270.083C168.356 270.237 166.986 270.404 164.951 270.635C173.042 272.7 175.794 275.085 179.737 283.049C177.548 286.512 174.693 288.731 170.315 288.487C168.715 288.397 167.076 288.808 165.45 289H154.057C150.254 287.871 146.452 287.371 142.663 289H139.194C139.168 288.923 139.168 288.808 139.117 288.769C134.675 285.589 133.497 280.754 132.23 275.829C130.54 269.288 128.53 262.837 126.558 256.386C126.136 254.988 125.176 253.744 124.702 252.359C124.049 250.436 123.614 248.448 123.115 246.486C122.654 244.677 122.385 242.805 121.758 241.074C120.874 238.611 119.684 236.264 118.711 233.827C116.791 228.992 114.934 224.145 113.078 219.284C112.758 218.45 112.387 217.54 112.425 216.681C112.579 212.692 110.991 209.294 109.046 205.779C107.177 210.999 105.487 216.142 103.49 221.156C102.056 224.747 100.008 228.082 98.5993 231.686C94.5412 242.074 91.0079 252.642 89.1004 263.697C88.9852 264.338 88.9468 265.12 88.5755 265.582C84.5814 270.481 84.7734 276.727 83.2372 282.395C81.957 287.089 80.0111 288.897 75.1593 288.359C70.1026 287.794 65.0715 286.743 60.0148 286.525C55.7774 286.345 51.5016 287.128 47.2386 287.346C45.7024 287.423 44.0638 287.41 42.63 286.961C39.98 286.114 39.3015 284.357 39.5831 281.639C40.1592 275.816 43.8333 272.892 48.9028 271.135C49.7606 270.84 50.6183 270.558 51.476 270.25C51.604 270.199 51.7192 270.07 51.6936 270.083C48.8004 269.481 45.8176 268.878 42.8348 268.211C41.1066 267.826 40.3641 266.531 41.1322 265.043C44.3198 258.9 44.4862 251.987 46.3297 245.549C49.1717 235.636 50.2854 225.35 53.5755 215.552C54.8685 211.705 54.51 207.344 55.4189 203.33C57.1984 195.455 59.4515 187.684 61.2822 179.809C62.4599 174.756 63.0872 169.575 64.201 164.496C65.2763 159.572 66.6845 154.737 67.8751 149.837C69.0272 145.105 70.2178 140.373 71.1395 135.589C71.5108 133.678 71.0243 131.613 71.2547 129.664C71.4212 128.266 72.0741 126.907 72.5861 125.56C72.8934 124.714 73.3286 123.918 73.6999 123.098C72.6117 122.61 71.562 121.879 70.4226 121.725C69.3345 121.571 68.1311 121.931 67.0302 122.213C62.1399 123.457 57.0192 123.867 53.0634 127.792C48.9668 131.857 43.5005 133.268 37.9701 133.858C34.36 134.242 31.0572 135.166 27.8439 136.743C25.2068 138.026 22.4928 138.782 19.4716 138.128C18.3322 137.885 16.9624 138.128 15.8487 138.539C12.1489 139.924 8.52604 139.552 4.94155 138.269C2.49641 137.397 0.972995 135.653 0.857779 132.909C0.832176 132.408 0.857779 131.895 0.704158 131.434C-2.03542 122.969 3.76378 118.211 8.73087 113.197C9.6398 112.286 11.4576 112.286 12.853 111.837C14.3893 111.35 15.9639 110.94 17.4361 110.324C19.5228 109.439 21.507 108.298 23.6065 107.438C29.9946 104.797 36.4211 102.257 42.822 99.6281C46.4065 98.1533 50.055 96.7938 53.4859 95.024C56.6735 93.3696 59.8228 91.51 62.6135 89.2528C66.6589 85.9825 70.1794 82.0709 74.2375 78.839C79.0254 75.0172 84.415 72.4907 90.8799 73.2987C91.6992 73.4013 92.9665 72.4779 93.4914 71.6827C94.3875 70.2848 94.9124 68.5278 93.453 67.1299C92.2752 66.0013 90.8671 65.1036 89.5485 64.1161C85.8488 61.3587 81.7394 58.999 78.5389 55.7414C73.9303 51.0476 69.9106 45.815 70.5506 38.4407C70.8835 34.683 70.6146 30.874 70.6146 27.0907C67.9647 26.3853 65.686 25.9749 63.5737 25.1285C62.5239 24.7053 61.1925 23.5639 61.0645 22.6148C60.9493 21.7171 62.0375 20.2935 62.972 19.6908C66.2236 17.5875 69.6161 15.7279 72.983 13.817C80.152 9.7515 87.3338 5.71167 94.5284 1.68467C95.0276 1.40252 95.5909 1.12037 96.1286 1.0819C102.043 0.671502 108.034 -0.418612 113.846 0.171332C118.544 0.645852 123.064 3.06975 127.608 4.74981C138.285 8.68704 144.955 22.2301 143.892 32.8875C143.316 38.6074 142.381 44.3786 140.794 49.8933C139.373 54.7796 135.609 58.1653 131.09 60.6277C129.106 61.705 127.339 63.2055 125.534 64.5778C123.588 66.0526 123.665 68.3355 123.46 70.4387C123.422 70.8876 123.96 71.5801 124.421 71.8623C125.329 72.4009 126.341 72.9268 127.365 73.1191C135.635 74.6966 141.882 80.3267 149.064 84.0716C151.624 85.4053 153.417 88.1755 155.913 89.676C160.419 92.3949 165.386 94.3443 169.816 97.1657C176.511 101.424 183.987 103.732 191.182 106.772C197.839 109.58 204.355 112.709 210.986 115.557C215.134 117.339 217.848 120.25 219 124.624V129.587L218.974 129.484ZM172.542 284.037C173.054 280.625 171.582 278.676 168.894 277.522C166.935 276.688 164.951 275.906 162.941 275.162C159.049 273.738 155.209 272.315 153.173 268.198C151.855 265.531 152.418 264.158 155.414 264.248C158.102 264.325 160.803 264.812 163.428 265.389C167.089 266.197 169.393 264.453 169.111 260.76C169.035 259.721 168.51 258.72 168.318 257.669C168.151 256.733 168.1 255.745 168.126 254.796C168.164 253.744 168.689 252.59 168.42 251.654C166.718 245.767 165.565 239.855 165.348 233.661C165.207 229.672 165.309 225.196 161.61 222.106C161.072 221.657 161.034 220.413 161.034 219.528C161.021 218.04 161.341 216.552 161.251 215.078C161.187 214.077 160.944 212.551 160.304 212.218C156.732 210.435 155.542 206.908 154.287 203.728C152.892 200.188 152.431 196.276 151.688 192.506C151.407 191.069 151.714 189.518 151.381 188.107C149.87 181.707 148.04 175.372 147.387 168.805C147.22 167.1 146.824 165.112 147.489 163.701C148.923 160.674 148.795 157.827 147.873 154.813C147.297 152.941 146.696 151.069 146.184 149.171C145.915 148.145 145.607 147.067 145.659 146.028C145.851 141.668 145.159 137.5 143.508 133.46C142.893 131.947 142.407 130.292 142.343 128.676C142.253 126.073 141.6 123.88 139.757 121.943C139.168 121.315 138.81 119.802 139.168 119.122C139.514 118.481 140.96 118.032 141.844 118.147C143.79 118.391 145.671 119.109 147.605 119.532C150.907 120.263 154.581 120.225 157.449 121.738C163.671 125.009 170.353 126.099 177.061 127.471C181.363 128.356 185.536 129.895 189.735 131.241C194.037 132.614 198.287 134.14 202.588 135.525C205.635 136.5 208.695 136.641 211.153 134.178C213.47 131.87 213.905 128.907 212.97 125.881C211.959 122.623 210.09 119.827 206.813 118.506C201.564 116.39 196.341 114.018 190.887 112.633C183.949 110.876 177.958 107.477 172.811 102.886C165.885 96.704 157.667 93.4465 149.192 90.4071C146.606 89.4837 144.199 88.0088 141.793 86.6494C135.852 83.2636 130.245 79.134 123.985 76.5434C117.354 73.786 113.206 65.6294 121.361 59.8198C121.758 59.5376 122.18 59.2555 122.539 58.922C124.549 57.1137 126.738 55.4593 128.517 53.433C131.295 50.2909 133.561 46.6614 137.453 44.6351C137.952 44.3786 138.413 43.6604 138.528 43.0961C138.963 40.8261 139.706 38.492 139.488 36.2605C139.091 32.0283 138.118 27.8474 137.35 23.6408C137.171 22.679 137.184 21.5247 136.646 20.7937C132.473 15.0353 128.235 9.82845 120.734 7.49433C115.792 5.95534 111.119 5.03195 106.037 4.92935C100.545 4.81393 95.2965 5.5193 90.547 8.27664C86.4888 10.6364 82.6867 13.4194 78.8078 16.0742C75.0825 18.6263 74.9416 19.8447 75.825 24.2308C77.0155 30.143 77.6428 36.1322 74.9032 41.9419C74.404 42.9935 74.2375 44.7762 74.8008 45.6611C76.8107 48.8417 78.8974 52.0864 81.5218 54.7283C84.6326 57.8704 88.3579 60.2558 92.6721 61.8589C98.0744 63.8596 99.8155 67.0914 98.3049 71.2467C97.1527 74.4144 94.5284 76.0432 91.4175 77.1461C86.4632 78.9031 81.5986 80.9038 76.7083 82.8147C76.337 82.9558 75.9658 83.2123 75.7098 83.5073C71.882 87.7651 67.7214 91.5228 62.3575 93.8569C58.2865 95.6268 54.5484 98.1917 50.4263 99.8077C46.9058 101.193 43.4877 102.334 41.465 105.848C41.1194 106.451 40.3897 106.874 39.788 107.297C31.8381 112.863 22.7744 115.377 13.3651 116.916C12.0977 117.121 10.5743 117.237 9.6654 117.993C6.52896 120.597 3.99421 123.79 3.03408 127.856C2.13796 131.652 5.42801 135.794 9.24294 135.704C12.3538 135.628 15.439 135.358 18.1914 133.357C19.5868 132.344 21.4814 131.78 23.2225 131.511C28.6888 130.651 33.6431 127.291 39.4679 128.163C39.8392 128.215 40.2616 127.971 40.6585 127.843C45.4464 126.368 50.1318 124.598 54.8173 122.828C60.7445 120.597 67.2862 119.943 73.5975 118.84C77.8092 118.109 78.8078 119.519 77.8348 123.675C77.0539 127.035 76.6571 130.472 76.0298 133.858C75.7866 135.204 75.4025 136.525 75.0569 137.859C74.5832 139.655 73.2518 141.745 73.7511 143.194C75.5561 148.465 73.047 152.3 70.3586 156.211C69.8465 156.955 69.0912 157.609 68.848 158.43C67.3502 163.406 65.5964 168.344 64.6234 173.422C63.4713 179.45 62.844 185.516 63.0104 191.813C63.1768 197.995 61.2309 204.343 59.4771 210.409C58.5426 213.667 57.1984 216.719 57.4672 220.207C57.5312 221.092 57.3776 222.041 57.1216 222.901C55.931 226.928 54.3436 230.878 53.5115 234.969C51.5016 244.806 49.8118 254.706 47.9939 264.633C50.7079 264.633 53.5883 264.569 56.4687 264.646C62.4215 264.812 63.4969 265.454 64.5978 269.237C60.1044 271.43 55.5982 273.61 51.1303 275.829C48.4932 277.137 46.3041 278.92 45.2031 282.37C46.6369 282.947 48.0835 283.985 49.5429 284.024C56.187 284.139 62.8312 283.793 69.4625 283.96C76.6315 284.152 80.1392 281.279 80.6768 274.162C80.9201 270.917 81.3425 267.775 83.442 265.069C84.0181 264.325 84.2997 263.299 84.5814 262.363C86.9369 254.745 89.2284 247.101 91.6608 239.522C92.2368 237.739 92.9153 236.072 91.776 234.328C89.9837 231.596 90.7518 229.134 92.032 226.402C93.6578 222.926 94.9892 219.284 96.0262 215.59C97.2167 211.345 98.2281 207.139 101.787 204.087C103.63 202.509 104.629 200.444 105.243 198.008C105.73 196.071 107.1 194.353 108.085 192.519C113.117 196.276 114.653 201.278 115.805 206.51C117.802 215.642 120.017 224.709 124.241 233.109C125.726 236.072 126.341 239.098 126.674 242.356C127.019 245.767 127.583 249.256 128.722 252.475C130.565 257.682 132.959 262.645 133.074 268.378C133.113 270.34 134.111 272.725 135.468 274.136C137.632 276.368 139.463 278.689 140.756 281.485C140.973 281.959 141.46 282.511 141.921 282.626C144.378 283.28 146.836 284.203 149.333 284.306C155.657 284.575 162.007 284.486 168.343 284.46C169.79 284.46 171.237 284.139 172.491 283.985L172.542 284.037Z"
        fill="#b6c5cd" />
</svg>