<svg width="16" height="11" viewBox="0 0 16 11" fill="none" xmlns="http://www.w3.org/2000/svg">
<path fill-rule="evenodd" clip-rule="evenodd" d="M6.08366 8.99813C5.63867 9.00528 5.22811 8.9952 4.85368 8.93733C3.5828 8.74088 2.30939 8.74208 1.08286 8.74324C0.989422 8.74332 0.896257 8.74341 0.803385 8.74341C0.435196 8.74341 0.136719 9.04189 0.136719 9.41008C0.136719 9.77827 0.435196 10.0767 0.803385 10.0767C0.889934 10.0767 0.976113 10.0767 1.06194 10.0766C2.31054 10.0758 3.48532 10.075 4.65 10.255C5.13694 10.3303 5.63677 10.3388 6.10509 10.3313C6.31982 10.3278 6.51569 10.3216 6.70413 10.3156C6.95549 10.3076 7.19362 10.3001 7.44565 10.3001H11.3664C11.5504 10.3001 11.7176 10.2755 11.8374 10.258L11.8391 10.2577C11.9718 10.2383 12.05 10.2271 12.1273 10.2255C12.1604 10.2248 12.2035 10.2263 12.2705 10.2296C12.2795 10.23 12.289 10.2305 12.2989 10.231C12.3551 10.2338 12.4256 10.2374 12.495 10.2387C12.646 10.2414 12.8971 10.2382 13.1402 10.1391C13.3782 10.0421 13.6369 10.0445 14.0072 10.1081C14.0821 10.121 14.1694 10.1386 14.2654 10.158C14.5731 10.22 14.9699 10.3001 15.3333 10.3001C15.7015 10.3001 16 10.0016 16 9.63339C16 9.2652 15.7015 8.96672 15.3333 8.96672C15.1125 8.96672 14.9153 8.92694 14.6557 8.87456C14.5321 8.84962 14.3944 8.82182 14.2332 8.7941C13.7909 8.71804 13.232 8.6647 12.6457 8.90083C12.6444 8.90042 12.6109 8.90723 12.5193 8.90556C12.4733 8.90473 12.4277 8.90243 12.3712 8.89959C12.36 8.89903 12.3483 8.89844 12.3362 8.89784C12.2701 8.89458 12.1849 8.8907 12.1001 8.89242C11.9351 8.89578 11.7802 8.91866 11.6689 8.93509C11.6609 8.93626 11.6532 8.9374 11.6457 8.93849C11.5206 8.95684 11.4419 8.96672 11.3664 8.96672H7.44565C7.18749 8.96672 6.89871 8.97557 6.62015 8.98411C6.43253 8.98985 6.24954 8.99546 6.08366 8.99813ZM4.65025 4.67047C3.40453 4.50499 2.1134 4.33348 0.666667 4.33348C0.298477 4.33348 0 4.63196 0 5.00015C0 5.36834 0.298477 5.66682 0.666667 5.66682C2.0192 5.66682 3.23221 5.82715 4.49088 5.99434L4.50613 5.99637C5.75218 6.16189 7.04394 6.33348 8.49174 6.33348C9.19043 6.33348 10.03 6.24254 10.8203 6.15694L10.8417 6.15462C11.6612 6.06587 12.4281 5.98351 13.0412 5.98351C13.3803 5.98351 13.7269 6.01891 14.1153 6.05914L14.1274 6.06039C14.5009 6.09907 14.914 6.14186 15.3333 6.14186C15.7015 6.14186 16 5.84338 16 5.47519C16 5.107 15.7015 4.80852 15.3333 4.80852C14.9897 4.80852 14.6406 4.77307 14.2527 4.7329L14.2346 4.73102C13.8633 4.69256 13.4542 4.65018 13.0412 4.65018C12.3493 4.65018 11.5152 4.74054 10.7277 4.82584L10.6982 4.82904C9.87905 4.91776 9.10955 5.00015 8.49174 5.00015C7.13847 5.00015 5.92509 4.83981 4.66645 4.67262L4.65025 4.67047ZM9.85251 0.642126C8.669 0.487688 7.48738 0.333497 6.8548 0.333497C5.32183 0.333497 4.506 0.405794 3.70209 0.477192L3.69922 0.477448C2.91562 0.547042 2.14301 0.615659 0.666667 0.615659C0.298477 0.615659 0 0.914136 0 1.28233C0 1.65052 0.298477 1.94899 0.666667 1.94899C2.20008 1.94899 3.01612 1.8767 3.82004 1.8053L3.82325 1.80501C4.60675 1.73543 5.37912 1.66683 6.8548 1.66683C7.3925 1.66683 8.47037 1.80704 9.68379 1.96489C9.85373 1.98699 10.0263 2.00945 10.2005 2.03191C10.8911 2.12099 11.5918 2.20782 12.206 2.26504C12.8067 2.321 13.3726 2.35373 13.7727 2.31936C14.0501 2.29553 14.3293 2.23704 14.5616 2.18838C14.5958 2.18122 14.629 2.17427 14.661 2.16767C14.9319 2.11187 15.1423 2.07561 15.3333 2.07561C15.7015 2.07561 16 1.77713 16 1.40894C16 1.04075 15.7015 0.742273 15.3333 0.742273C14.9922 0.742273 14.6625 0.806022 14.392 0.861772C14.3545 0.869495 14.3181 0.877054 14.2828 0.884403C14.043 0.934287 13.8498 0.974495 13.6586 0.990914C13.3903 1.01397 12.9317 0.993537 12.3297 0.937455C11.7412 0.882633 11.0612 0.798543 10.371 0.709529C10.1993 0.687379 10.0259 0.66475 9.85251 0.642126Z" fill="white"/>
</svg>
