<svg width="22" height="23" viewBox="0 0 22 23" fill="none" xmlns="http://www.w3.org/2000/svg">
<path fill-rule="evenodd" clip-rule="evenodd" d="M5.95013 1.81085C6.24651 1.51482 6.33519 1.05127 6.13757 0.656033C5.89058 0.162054 5.28991 -0.03817 4.79593 0.208819C4.44443 0.384568 4.2575 0.677974 4.16088 0.881673C4.06065 1.09299 4.00581 1.31579 3.97231 1.50662C3.90496 1.89017 3.89331 2.33071 3.89892 2.72619C3.90155 2.91135 3.90824 3.09774 3.91687 3.27778C3.44582 3.2507 2.95058 3.22532 2.44156 3.22532C1.88426 3.22532 1.39661 3.40757 1.02451 3.77155C0.856045 3.93634 0.731052 4.11973 0.636396 4.29843C0.469207 4.48066 0.369457 4.72425 0.373228 4.98804C0.341376 5.10203 0.314108 5.21178 0.291052 5.30458C0.286592 5.32253 0.282289 5.33985 0.278141 5.35644C0.201286 5.66386 0.275769 5.97362 0.454431 6.20714C0.542876 7.47489 0.638992 8.74728 0.734275 10.0086C0.78188 10.6388 0.829277 11.2663 0.875405 11.889C0.935714 12.7032 1.20917 13.5221 1.4295 14.1819C1.49104 14.3662 1.54844 14.5381 1.59589 14.694C1.63694 14.8289 1.67789 14.9602 1.71779 15.0882C1.93527 15.7856 2.12145 16.3826 2.12145 16.9074C2.12145 16.9321 2.12139 16.9583 2.12133 16.9858C2.12063 17.3096 2.11952 17.8165 2.20652 18.2983C2.28916 18.756 2.48967 19.422 3.06512 19.8582C3.08863 19.9075 3.12339 19.9766 3.16426 20.0436C3.23682 20.1626 3.35021 20.3148 3.52741 20.4477C3.85685 20.6948 4.22496 20.8672 4.53184 20.9878C4.59003 21.0107 4.66401 21.0507 4.79873 21.1337C4.81534 21.1439 4.83368 21.1554 4.85348 21.1677C4.96736 21.2386 5.13002 21.3399 5.29667 21.4232C6.07712 21.8135 6.79314 21.9629 7.49251 22.1088L7.53755 22.1182C7.78954 22.1708 8.04507 22.2277 8.30456 22.2854C8.92574 22.4236 9.56958 22.5668 10.2417 22.6691C10.8257 22.758 11.4342 22.5785 11.7397 22.4885C11.7572 22.4833 11.7737 22.4785 11.7891 22.474C11.9018 22.4411 12.0281 22.4272 12.2749 22.4L12.3102 22.3961C12.5375 22.371 12.8903 22.3315 13.2382 22.1962C13.5312 22.0823 13.9142 22.0298 14.4121 22.0091C14.5656 22.0028 14.761 21.9996 14.9701 21.9963C15.3111 21.9909 15.6887 21.9848 15.9814 21.9632C16.2495 21.9433 16.4728 21.9195 16.6767 21.8978C16.9999 21.8633 17.2742 21.8341 17.6003 21.8341C18.3949 21.8341 19.1823 21.7084 19.8367 21.2107C20.4915 20.7128 20.8456 19.9705 21.0713 19.1205C21.2164 18.5742 21.2494 18.028 21.2524 17.5405C21.254 17.2955 21.2478 17.053 21.2418 16.8286L21.2408 16.7923C21.235 16.5767 21.2297 16.3789 21.2297 16.1858C21.2297 15.651 21.1099 15.2045 21.0193 14.8732L21.0159 14.8608C20.9212 14.5144 20.8644 14.3068 20.8541 14.074C20.8375 13.7016 20.7697 13.344 20.7165 13.0638C20.7117 13.0381 20.7069 13.013 20.7023 12.9886C20.643 12.673 20.6053 12.4414 20.6053 12.2175V9.84482C20.6053 9.7208 20.6086 9.57565 20.6122 9.41843C20.6205 9.04889 20.6304 8.61268 20.6027 8.22752C20.5594 7.62469 20.4233 6.95072 20.0094 6.30699C19.9842 6.26772 19.9585 6.22752 19.9324 6.18653C19.4045 5.35981 18.6726 4.21335 17.0854 3.95939C16.9375 3.93573 16.7897 3.9144 16.6421 3.89515C16.6574 3.86196 16.671 3.82761 16.6828 3.79215C16.8989 3.14384 17.0386 2.54421 17.1047 1.81817C17.1547 1.26816 16.7493 0.781744 16.1993 0.731743C15.6493 0.681741 15.1629 1.08708 15.1129 1.6371C15.0628 2.18732 14.9604 2.6349 14.7854 3.1597C14.7202 3.35534 14.7188 3.55689 14.77 3.74175C14.3953 3.72544 14.0247 3.71564 13.66 3.70779C13.4911 3.70415 13.3239 3.70092 13.1579 3.69772C12.2205 3.67964 11.3263 3.66238 10.4319 3.57675C8.9196 3.43195 7.4398 3.35806 5.92335 3.35079C5.91129 3.13421 5.90177 2.91272 5.89872 2.69781C5.89362 2.3388 5.90783 2.04811 5.94217 1.85248C5.94491 1.8369 5.94759 1.82306 5.95013 1.81085ZM4.28165 5.30227C4.46297 5.48597 4.71488 5.59983 4.99339 5.59983C5.2468 5.59983 5.47821 5.50556 5.65444 5.35018C5.66113 5.35019 5.66782 5.35019 5.67451 5.35019C7.21513 5.35019 8.71026 5.42106 10.2413 5.56765C11.2182 5.66118 12.1989 5.67988 13.1338 5.69772C13.2963 5.70081 13.4574 5.70389 13.6169 5.70732C14.7131 5.73093 15.7515 5.77141 16.7694 5.93427C17.4261 6.03934 17.7116 6.43113 18.3271 7.38851C18.4958 7.65102 18.5783 7.95971 18.6078 8.37092C18.629 8.66468 18.6224 8.92957 18.6147 9.24021C18.6102 9.42128 18.6053 9.61789 18.6053 9.84482V10.8499C18.5803 10.8522 18.5548 10.855 18.529 10.8585C18.0191 10.9265 17.5842 10.9676 17.1072 10.9676H13.9852C13.5056 10.9676 13.015 10.9853 12.536 11.004C12.4845 11.0061 12.4333 11.0081 12.3821 11.0101C11.9509 11.0271 11.5291 11.0437 11.1089 11.0501C10.1649 11.0644 9.29868 11.0247 8.5268 10.8419C8.43669 10.8206 8.34694 10.7994 8.25752 10.7782C7.45127 10.5876 6.6714 10.4032 5.88675 10.1907C5.39024 10.0562 4.91443 9.8463 4.3555 9.59972C4.33008 9.5885 4.30449 9.57721 4.27872 9.56585C3.79751 9.3537 3.25242 9.11638 2.66012 8.95014C2.56743 7.71787 2.47624 6.48338 2.39391 5.25427C2.39745 5.24686 2.40088 5.24007 2.40417 5.23383C2.40557 5.23118 2.40691 5.2287 2.40819 5.22639C2.41724 5.22575 2.4283 5.22532 2.44156 5.22532C2.95582 5.22532 3.46226 5.25458 4.00127 5.28606L4.01536 5.28688C4.10325 5.29201 4.19204 5.29719 4.28165 5.30227ZM2.82365 11.1199C2.83917 11.3272 2.85461 11.5343 2.86994 11.7412C2.91013 12.2838 3.07149 12.7701 3.27182 13.3739C3.34692 13.6003 3.42751 13.8432 3.50924 14.1117C3.53816 14.2067 3.57118 14.3108 3.60656 14.4223C3.8208 15.0975 4.12145 16.0449 4.12145 16.9074C4.12145 16.923 4.12145 16.9387 4.12144 16.9543C4.12134 17.3107 4.12124 17.6469 4.17469 17.9429C4.21744 18.1796 4.2716 18.2558 4.28145 18.269C4.62223 18.4832 4.77895 18.799 4.83473 18.92C4.95076 18.991 5.09588 19.0606 5.26314 19.1263C5.50106 19.2198 5.70583 19.3434 5.84807 19.4311C5.8778 19.4494 5.90494 19.4662 5.93 19.4818C6.04379 19.5523 6.11467 19.5962 6.1911 19.6344C6.7234 19.9005 7.20821 20.0063 7.94184 20.1595L7.94586 20.1603C8.25368 20.2246 8.53919 20.2882 8.81319 20.3492C9.40199 20.4804 9.93974 20.6001 10.5426 20.6918C10.6385 20.7064 10.8292 20.6706 11.2291 20.554C11.5209 20.4689 11.8244 20.4366 12.0258 20.4151C12.0489 20.4127 12.0706 20.4104 12.0908 20.4081C12.3306 20.3817 12.4397 20.3609 12.5133 20.3322C13.1235 20.0949 13.7768 20.0338 14.3292 20.0108C14.617 19.9989 14.8502 19.9964 15.0634 19.9941C15.3291 19.9912 15.5636 19.9886 15.8337 19.9686C15.9719 19.9584 16.1361 19.9415 16.3151 19.9231C16.7116 19.8823 17.1808 19.8341 17.6003 19.8341C18.2167 19.8341 18.4811 19.729 18.626 19.6188C18.7706 19.5089 18.9633 19.2661 19.1384 18.6071C19.2203 18.2984 19.2498 17.9457 19.2525 17.528C19.2538 17.3203 19.2486 17.1086 19.2425 16.8821L19.2413 16.8388C19.2357 16.6299 19.2297 16.4068 19.2297 16.1858C19.2297 15.9435 19.1786 15.7245 19.0901 15.4005C19.084 15.3782 19.0776 15.3552 19.0711 15.3315C18.9891 15.0343 18.8767 14.6267 18.8561 14.1628C18.8461 13.9393 18.8042 13.7165 18.7454 13.4044C18.7426 13.3892 18.7397 13.3738 18.7367 13.3581C18.7089 13.2098 18.6777 13.0416 18.6527 12.8593C18.1478 12.9235 17.6562 12.9676 17.1072 12.9676H13.9852C13.5492 12.9676 13.0942 12.9837 12.6141 13.0025C12.5631 13.0045 12.5119 13.0065 12.4603 13.0086C12.0323 13.0255 11.5854 13.0431 11.1392 13.0499C10.1433 13.065 9.08062 13.0284 8.06587 12.7881C7.97586 12.7668 7.88571 12.7454 7.79544 12.7241C6.99362 12.5346 6.1817 12.3426 5.36392 12.1211C4.71565 11.9456 4.11006 11.6779 3.58432 11.4455C3.54643 11.4288 3.50896 11.4122 3.47191 11.3959C3.24434 11.2956 3.03028 11.2026 2.82365 11.1199ZM3.01621 19.7569C3.01621 19.7569 3.01871 19.7606 3.0236 19.7702C3.01864 19.7621 3.01621 19.7569 3.01621 19.7569Z" fill="#EA5A24"/>
</svg>
