<svg width="23" height="29" viewBox="0 0 23 29" fill="none" xmlns="http://www.w3.org/2000/svg">
<path fill-rule="evenodd" clip-rule="evenodd" d="M11.3608 2.85588C10.9166 3.05396 10.4795 3.41782 10.1543 3.8038C9.39892 4.70057 8.7734 5.712 8.17266 6.79685C8.00426 7.10096 7.94409 7.35026 7.94409 7.71454C7.94409 7.80057 7.94375 7.87967 7.94343 7.9528C7.94146 8.40411 7.94048 8.62788 8.0277 8.84824C8.033 8.86162 8.07354 8.93765 8.22952 9.06175C8.37862 9.18036 8.56735 9.29166 8.77553 9.40261C9.53794 9.80891 10.3375 9.86544 11.412 9.87076C12.6957 9.42105 13.8345 8.86587 14.4105 8.00507C14.5018 7.86871 14.5601 7.60453 14.4831 7.08296C14.4471 6.83869 14.3887 6.58248 14.3214 6.30617C14.3101 6.25989 14.2983 6.21209 14.2862 6.16325C14.231 5.93953 14.1704 5.69386 14.1284 5.47178C13.9119 4.32864 13.2836 3.22473 12.4503 2.80957C12.145 2.6575 11.7914 2.66388 11.3608 2.85588ZM10.5599 11.8515C9.688 11.8066 8.75586 11.6584 7.83492 11.1676C7.59811 11.0414 7.27951 10.8617 6.98436 10.6269C6.69609 10.3975 6.35545 10.0577 6.16808 9.58431C5.92462 8.96922 5.93533 8.30695 5.94215 7.88525C5.94317 7.82275 5.94409 7.76553 5.94409 7.71454C5.94409 7.04066 6.07675 6.45328 6.42301 5.82798C7.04878 4.69791 7.74724 3.55696 8.6247 2.51529C9.09096 1.96179 9.75909 1.38026 10.5463 1.02924C11.3471 0.672148 12.3511 0.525735 13.3421 1.0194C14.9745 1.83265 15.8215 3.66361 16.0934 5.09966C16.1243 5.26275 16.1682 5.44088 16.2223 5.66081C16.2357 5.71528 16.2498 5.77231 16.2644 5.83232C16.3337 6.11654 16.4112 6.44893 16.4617 6.79101C16.5578 7.44214 16.5917 8.34164 16.0727 9.11729C15.2193 10.3928 13.7854 11.1145 12.5606 11.581C12.56 12.4356 12.5777 13.1731 12.778 13.8933C12.8097 14.0074 12.8381 14.0863 12.875 14.1887C12.904 14.2692 12.9382 14.3643 12.9834 14.5024C13.0652 14.7523 13.16 15.091 13.16 15.4768V15.6308C14.2062 15.5251 15.2002 15.4678 15.9043 15.5097C17.7646 15.6204 19.6173 16.0346 21.1143 16.9868C22.2775 17.7266 22.8647 18.8156 22.9791 20.0121C23.0894 21.1654 22.76 22.3678 22.2178 23.4521C21.1451 25.5972 19.0504 27.6456 16.8063 28.3558C15.1976 28.8648 13.4838 28.7227 11.9541 28.385C10.4918 28.0621 9.09975 27.5364 8.01866 27.1281C7.96566 27.1081 7.91341 27.0884 7.86194 27.0689C7.51709 26.9389 7.05045 26.8149 6.46663 26.6599C6.35188 26.6294 6.2326 26.5977 6.10882 26.5645C5.39206 26.3725 4.56682 26.1401 3.80654 25.8276C3.05868 25.5202 2.27537 25.097 1.71226 24.4707C1.10887 23.7996 0.789141 22.9246 0.974218 21.879L1.95791 22.0531L0.974218 21.879C1.32459 19.8994 2.77149 18.8157 3.97023 18.1178C5.40719 17.2811 6.12649 16.9233 7.97348 16.4639C8.74247 16.2727 9.92319 16.0568 11.16 15.8782V15.4768C11.16 15.4089 11.1431 15.3092 11.0826 15.1244C11.071 15.089 11.0519 15.0348 11.0291 14.97C10.9741 14.8136 10.8973 14.5952 10.8511 14.4291C10.6075 13.553 10.5646 12.6599 10.5599 11.8515ZM11.1733 17.8978C10.0825 18.0615 9.08694 18.2479 8.45616 18.4048C6.83514 18.8079 6.29234 19.08 4.97657 19.8461C3.90328 20.4711 3.13356 21.1543 2.94361 22.2275C2.87451 22.6179 2.97318 22.8818 3.19949 23.1335C3.46607 23.43 3.92376 23.7134 4.56693 23.9778C5.19766 24.2371 5.91346 24.4416 6.62649 24.6327C6.73329 24.6613 6.84147 24.69 6.95002 24.7187C7.5289 24.872 8.11856 25.0282 8.5677 25.1976C8.60939 25.2133 8.65134 25.2292 8.69353 25.2451C9.7955 25.661 11.0675 26.1411 12.3852 26.432C13.7577 26.735 15.0728 26.8066 16.2029 26.449C17.8259 25.9354 19.5439 24.3275 20.429 22.5576C20.8657 21.6843 21.0515 20.8644 20.9882 20.2024C20.929 19.5836 20.6539 19.0642 20.0409 18.6744C18.9381 17.9729 17.4615 17.6059 15.7855 17.5062C15.1899 17.4708 14.2392 17.5271 13.1703 17.6405C13.1758 18.1179 13.1828 18.5965 13.1898 19.0769L13.1899 19.0807C13.2048 20.1 13.2198 21.1278 13.2198 22.1571C13.2198 22.7094 12.7721 23.1571 12.2198 23.1571C11.6675 23.1571 11.2198 22.7094 11.2198 22.1571C11.2198 21.1435 11.205 20.1291 11.19 19.1061L11.19 19.1026C11.1841 18.7022 11.1782 18.3004 11.1733 17.8978Z" fill="#EA5A24"/>
</svg>
