<svg width="22" height="22" viewBox="0 0 22 22" fill="none" xmlns="http://www.w3.org/2000/svg">
<path fill-rule="evenodd" clip-rule="evenodd" d="M10.3168 0.259991C10.2995 0.26182 10.2821 0.263651 10.2647 0.265485C8.6483 0.435736 6.77621 0.63292 5.16996 1.43605C5.14644 1.4478 5.12016 1.4605 5.09153 1.47432C4.81191 1.60937 4.30799 1.85273 3.96477 2.39206C3.8972 2.49824 3.84972 2.6008 3.8194 2.67015C3.8035 2.70655 3.78913 2.74134 3.77776 2.76905C3.77617 2.77293 3.77465 2.77663 3.7732 2.78018C3.6397 2.8419 3.32455 2.99616 3.10191 3.34249C3.00814 3.48836 2.90829 3.65642 2.82308 3.79985C2.78097 3.87072 2.74244 3.93557 2.70998 3.98878C2.59516 4.17693 2.49723 4.32194 2.39127 4.44556C0.734414 6.37856 0.25 8.97836 0.25 11.2913C0.25 13.1014 0.762633 14.7068 1.80081 16.2169C1.94397 16.4251 2.08519 16.6371 2.22746 16.8506C3.18186 18.2831 4.18345 19.7864 6.13531 20.711C7.81131 21.5049 9.40169 21.899 11.2945 21.899C11.3128 21.899 11.3312 21.899 11.3496 21.8991C11.8942 21.8993 12.4678 21.8995 13.0009 21.7242C13.6129 21.5231 14.0745 21.1346 14.5366 20.5955C14.5925 20.5303 14.6783 20.4535 14.839 20.319C14.8506 20.3093 14.8627 20.2992 14.8753 20.2887C15.0115 20.175 15.2006 20.0173 15.3686 19.8399C15.7054 19.4844 15.9033 19.3557 16.3724 19.0603C16.7946 18.7944 17.0149 18.4234 17.124 18.2396C17.1282 18.2326 17.1322 18.2259 17.136 18.2194C17.1926 18.1245 17.2235 18.0785 17.2361 18.0597C17.4405 17.9325 17.6827 17.7615 17.9116 17.5711C18.1416 17.38 18.417 17.1212 18.6126 16.8278C19.3143 15.7752 20.1347 14.4813 20.7002 13.0756C21.2663 11.6683 21.6091 10.0711 21.2664 8.43375C21.1683 7.965 20.937 7.55744 20.7689 7.27456C20.7204 7.1931 20.6767 7.12078 20.637 7.0552C20.5133 6.85075 20.4292 6.71169 20.3667 6.56488C20.1205 5.98634 19.7674 5.51228 19.4502 5.12012C19.3418 4.98622 19.2418 4.86625 19.1481 4.75386C18.9435 4.5084 18.7689 4.29906 18.6038 4.05955C18.0764 3.29482 17.3702 2.88856 16.8015 2.59527C16.6815 2.53338 16.5701 2.47727 16.4661 2.42487C16.031 2.20568 15.7247 2.05139 15.4526 1.80951C15.0144 1.42001 14.5074 1.22268 14.1246 1.09092C13.9897 1.04449 13.8736 1.00667 13.7707 0.973105C13.5347 0.896188 13.3672 0.841584 13.1974 0.756709C12.9805 0.648231 12.7381 0.535515 12.477 0.434812C12.2625 0.195217 11.9365 0.0632139 11.594 0.110653C11.5236 0.120404 11.4527 0.129861 11.3814 0.13908C11.2122 0.115068 11.0371 0.101196 10.8578 0.101196C10.6585 0.101196 10.4728 0.159504 10.3168 0.259991ZM11.321 2.1619C10.9876 2.20188 10.6613 2.23722 10.3419 2.27179C8.74063 2.44516 7.31519 2.5995 6.06438 3.2249C6.0293 3.24245 5.99936 3.25726 5.97231 3.27064C5.92385 3.29462 5.88465 3.31401 5.84164 3.33635C5.78166 3.3675 5.74326 3.3898 5.71557 3.40807C5.6812 3.43074 5.66764 3.44406 5.65889 3.4558C5.6572 3.45943 5.65492 3.46447 5.65202 3.47111C5.64135 3.4955 5.63528 3.51047 5.62655 3.53198C5.61894 3.55073 5.60932 3.57445 5.59288 3.61371C5.567 3.67552 5.52716 3.7677 5.47378 3.86388C5.42047 3.95995 5.33874 4.08782 5.21631 4.21025C5.08285 4.34371 4.94561 4.42951 4.8428 4.48502C4.79567 4.51047 4.74345 4.53554 4.70226 4.55464C4.65861 4.62581 4.61785 4.69466 4.57398 4.76878C4.52759 4.84717 4.4777 4.93145 4.41721 5.03058C4.28223 5.25177 4.11917 5.50285 3.90979 5.74714C2.69985 7.15873 2.25 9.19353 2.25 11.2913C2.25 12.6834 2.63218 13.8959 3.44889 15.0838C3.61378 15.3236 3.76836 15.5533 3.91628 15.773C4.88739 17.2154 5.57085 18.2306 6.99148 18.9035C8.42269 19.5814 9.72208 19.899 11.2945 19.899C11.9462 19.899 12.1904 19.8854 12.3763 19.8243C12.5012 19.7832 12.6747 19.6945 13.0181 19.2939C13.197 19.0852 13.4076 18.9089 13.5531 18.7871L13.5662 18.7762C13.7287 18.6402 13.8322 18.5536 13.9167 18.4644C14.4292 17.9234 14.7988 17.6877 15.3044 17.3693C15.3127 17.3599 15.3432 17.321 15.418 17.1955C15.4239 17.1855 15.4305 17.1742 15.4379 17.1617C15.5343 16.9967 15.7533 16.6222 16.1592 16.3741C16.2915 16.2933 16.4688 16.1698 16.633 16.0332C16.8091 15.8869 16.9118 15.7735 16.9485 15.7184C17.6404 14.6805 18.3612 13.5311 18.8447 12.3292C19.3275 11.129 19.5413 9.95412 19.3088 8.84347C19.2849 8.7293 19.2129 8.57118 19.0496 8.29641C19.0257 8.25615 18.9982 8.21107 18.9684 8.16212C18.8337 7.9408 18.6508 7.64027 18.5264 7.348C18.3916 7.03131 18.1811 6.73135 17.8953 6.378C17.8278 6.29463 17.7519 6.20355 17.6713 6.10679C17.4433 5.83318 17.1774 5.5141 16.9573 5.19502C16.723 4.8552 16.3922 4.63449 15.8848 4.37283C15.8122 4.33536 15.7326 4.29575 15.6477 4.25353C15.2023 4.03194 14.6121 3.73834 14.1239 3.30433C13.9963 3.19097 13.8071 3.09679 13.4737 2.98206C13.4151 2.96189 13.3461 2.93948 13.2698 2.91472C12.992 2.82451 12.6182 2.70315 12.303 2.54556C11.9586 2.37337 11.6299 2.23638 11.321 2.1619ZM9.83892 4.17725C10.3912 4.17725 10.8389 4.62496 10.8389 5.17725C10.8389 5.69754 10.9026 6.20856 10.9765 6.79181L10.9794 6.81441C11.0504 7.3736 11.1301 8.00181 11.1301 8.6629C11.1301 8.83703 11.1268 8.98729 11.124 9.12199C11.1174 9.4258 11.1126 9.65038 11.1503 9.89087C11.1738 10.0401 11.2228 10.189 11.3015 10.4275C11.316 10.4715 11.3314 10.5185 11.348 10.5691C11.4371 10.8421 11.5668 11.2525 11.5668 11.6957C11.5668 11.7618 11.5716 11.8082 11.5778 11.8542C11.5778 11.8542 11.5782 11.8569 11.5786 11.8599C11.5833 11.8907 11.6054 12.0348 11.608 12.1503C11.6123 12.3437 11.5779 12.5479 11.4788 12.7576C11.3954 12.9339 11.2823 13.0781 11.1886 13.1875C10.965 13.4483 10.7235 13.6376 10.5368 13.7782C10.4925 13.8115 10.4521 13.8416 10.4149 13.8694C10.3015 13.9538 10.2167 14.0171 10.1353 14.0874C10.1285 14.0991 10.118 14.117 10.1001 14.1472C10.0988 14.1494 10.0975 14.1516 10.096 14.154C10.0362 14.2547 9.85915 14.5531 9.50432 14.7359C9.21226 14.8863 8.90864 14.9222 8.80326 14.9347C8.79229 14.9359 8.78346 14.937 8.77703 14.9379C8.77461 14.9382 8.77229 14.9385 8.77008 14.9389C8.76288 14.9441 8.75576 14.9492 8.74882 14.9543C8.73753 14.9625 8.72672 14.9703 8.71687 14.9774C8.68051 15.0039 8.64705 15.0284 8.61488 15.0529C8.55911 15.0952 8.51601 15.1305 8.48321 15.1605C8.37936 15.602 7.98295 15.9306 7.50977 15.9306C6.95748 15.9306 6.50977 15.4829 6.50977 14.9306C6.50977 14.3247 6.89625 13.9116 7.07917 13.7355C7.25939 13.562 7.47713 13.4052 7.59524 13.3201C7.61487 13.3059 7.63174 13.2938 7.64524 13.2839C7.9747 13.0416 8.30538 12.9847 8.48093 12.9598C8.53182 12.8819 8.61368 12.7677 8.73457 12.6568C8.915 12.4914 9.1107 12.3462 9.2537 12.2401C9.28274 12.2186 9.30961 12.1986 9.33373 12.1805C9.43902 12.1012 9.51697 12.0384 9.57957 11.9798C9.57219 11.8993 9.56679 11.8051 9.56679 11.6957C9.56679 11.6054 9.53793 11.4692 9.44672 11.1898C9.43645 11.1583 9.42494 11.1239 9.41257 11.0869C9.33569 10.8568 9.22581 10.5279 9.1745 10.2008C9.10677 9.76905 9.11778 9.28158 9.12581 8.92591C9.12806 8.8266 9.13007 8.73757 9.13007 8.6629C9.13007 8.1392 9.06637 7.62624 8.99244 7.0435L8.98903 7.01654C8.91828 6.45898 8.83892 5.83361 8.83892 5.17725C8.83892 4.62496 9.28664 4.17725 9.83892 4.17725Z" fill="#EA5A24"/>
</svg>
