<svg width="18" height="18" viewBox="0 0 18 18" fill="none" xmlns="http://www.w3.org/2000/svg">
<path fill-rule="evenodd" clip-rule="evenodd" d="M17.4663 0.328538C17.8568 0.719062 17.8568 1.35223 17.4663 1.74275C17.2267 1.98239 17.0546 2.23983 16.8299 2.57623C16.7235 2.73536 16.6054 2.91216 16.4627 3.1131C16.0665 3.67102 15.5222 4.32749 14.64 4.70401C14.6464 4.70126 14.6498 4.69953 14.65 4.69978C14.6505 4.70072 14.6059 4.72918 14.5033 4.83553C14.4544 4.88621 14.4074 4.93812 14.3496 5.00194C14.3381 5.01459 14.3262 5.02771 14.3138 5.04137C14.2462 5.11595 14.1592 5.21108 14.067 5.29968C13.8873 5.47231 13.6977 5.61376 13.5604 5.71619C13.5506 5.72345 13.5412 5.7305 13.532 5.73736C13.378 5.85244 13.2813 5.92778 13.1984 6.01062L10.5277 8.68139C11.2567 9.41157 12.0738 10.3548 12.8581 11.2604L12.8712 11.2754C13.678 12.2069 14.4505 13.098 15.1197 13.7673C15.4958 14.1434 15.9037 14.4993 16.3437 14.8828L16.352 14.8901C16.7808 15.2639 17.2402 15.6643 17.6746 16.0987C18.0651 16.4892 18.0651 17.1223 17.6746 17.5129C17.284 17.9034 16.6509 17.9034 16.2603 17.5129C15.8795 17.1321 15.469 16.7736 15.0295 16.3904L15.0141 16.377C14.5878 16.0054 14.1331 15.6091 13.7055 15.1815C12.9813 14.4573 12.1659 13.5159 11.3807 12.6094L11.3595 12.5849C10.5569 11.6583 9.78544 10.7687 9.11346 10.0956L8.9802 10.2289C8.70255 10.5065 8.38333 10.807 8.07499 11.0972C7.86697 11.2931 7.66391 11.4842 7.48189 11.6605C6.99519 12.1321 6.5628 12.5858 6.21995 13.0519C5.06235 14.6258 3.69255 15.993 2.37146 17.3117C2.27094 17.412 2.1707 17.5121 2.07085 17.6119C1.68033 18.0024 1.04716 18.0024 0.65664 17.6119C0.266115 17.2214 0.266115 16.5882 0.65664 16.1977C0.749866 16.1045 0.842765 16.0117 0.935296 15.9193C2.27916 14.5772 3.54539 13.3127 4.60882 11.8669C5.05146 11.2651 5.5788 10.7196 6.09026 10.2241C6.32417 9.99749 6.54135 9.79351 6.75047 9.59709C7.0298 9.33473 7.29475 9.08588 7.56598 8.81465L7.66574 8.71489C6.69903 7.83333 5.73847 7.02772 4.76228 6.20931L4.74962 6.1987C3.30163 4.98477 1.81888 3.7417 0.292893 2.21571C-0.0976311 1.82518 -0.0976311 1.19202 0.292893 0.801492C0.683417 0.410968 1.31658 0.410968 1.70711 0.801492C3.16692 2.26131 4.5894 3.45451 6.04718 4.67667L6.05874 4.68635C7.04896 5.51651 8.05559 6.36043 9.08136 7.29927L11.7842 4.59641C11.9807 4.39992 12.1852 4.24705 12.3329 4.13667L12.3346 4.13541C12.4976 4.01358 12.5952 3.94023 12.6815 3.85735C12.7186 3.82167 12.7641 3.77305 12.8326 3.6975C12.8419 3.68733 12.8516 3.67655 12.8618 3.66528C12.9193 3.60177 12.9909 3.52256 13.0639 3.44691C13.2228 3.28219 13.4931 3.01893 13.8549 2.86453C14.2204 2.70852 14.5002 2.4225 14.832 1.95515C14.8998 1.85975 14.9756 1.74627 15.0588 1.62184C15.3239 1.2252 15.6634 0.717245 16.0521 0.328538C16.4426 -0.0619866 17.0758 -0.0619866 17.4663 0.328538Z" fill="black"/>
</svg>
