<svg width="36" height="36" viewBox="0 0 36 36" fill="none" xmlns="http://www.w3.org/2000/svg">
<circle cx="18" cy="18" r="18" fill="white"/>
<path fill-rule="evenodd" clip-rule="evenodd" d="M23.6442 23.7813C23.9046 23.521 23.9046 23.0988 23.6442 22.8385C23.4844 22.6787 23.3698 22.5071 23.2199 22.2828C23.149 22.1768 23.0703 22.0589 22.9751 21.9249C22.711 21.553 22.3481 21.1153 21.76 20.8643C21.7643 20.8661 21.7665 20.8673 21.7666 20.8671C21.767 20.8665 21.7372 20.8475 21.6688 20.7766C21.6362 20.7429 21.6049 20.7082 21.5664 20.6657C21.5587 20.6573 21.5508 20.6485 21.5426 20.6394C21.4975 20.5897 21.4395 20.5263 21.378 20.4672C21.2582 20.3521 21.1318 20.2578 21.0402 20.1895C21.0338 20.1847 21.0274 20.18 21.0213 20.1754C20.9187 20.0987 20.8542 20.0485 20.799 19.9932L19.0184 18.2127C19.5045 17.7259 20.0492 17.0971 20.5721 16.4934L20.5808 16.4834C21.1187 15.8624 21.6336 15.2683 22.0798 14.8221C22.3306 14.5714 22.6025 14.3341 22.8958 14.0784L22.9014 14.0736C23.1872 13.8244 23.4935 13.5575 23.783 13.2679C24.0434 13.0075 24.0434 12.5854 23.783 12.3251C23.5227 12.0647 23.1006 12.0647 22.8402 12.3251C22.5864 12.5789 22.3127 12.8179 22.0197 13.0734L22.0094 13.0823C21.7252 13.33 21.4221 13.5943 21.137 13.8793C20.6542 14.3621 20.1106 14.9897 19.5871 15.5941L19.573 15.6104C19.0379 16.2281 18.5236 16.8212 18.0756 17.2699L17.9868 17.1811C17.8017 16.996 17.5889 16.7957 17.3833 16.6022C17.2446 16.4716 17.1093 16.3442 16.9879 16.2266C16.6635 15.9123 16.3752 15.6098 16.1466 15.299C15.3749 14.2498 14.4617 13.3383 13.581 12.4592C13.514 12.3923 13.4471 12.3256 13.3806 12.259C13.1202 11.9987 12.6981 11.9987 12.4378 12.259C12.1774 12.5194 12.1774 12.9415 12.4378 13.2019C12.4999 13.264 12.5618 13.3259 12.6235 13.3875C13.5194 14.2822 14.3636 15.1252 15.0725 16.0891C15.3676 16.4903 15.7192 16.8539 16.0602 17.1843C16.2161 17.3353 16.3609 17.4713 16.5003 17.6023C16.6865 17.7772 16.8632 17.9431 17.044 18.1239L17.1105 18.1904C16.466 18.7781 15.8256 19.3152 15.1749 19.8608L15.1664 19.8679C14.2011 20.6771 13.2126 21.5059 12.1953 22.5232C11.9349 22.7835 11.9349 23.2056 12.1953 23.466C12.4556 23.7263 12.8777 23.7263 13.1381 23.466C14.1113 22.4928 15.0596 21.6973 16.0315 20.8825L16.0392 20.8761C16.6993 20.3227 17.3704 19.76 18.0542 19.1341L19.8561 20.9361C19.9871 21.067 20.1235 21.169 20.2219 21.2425L20.2231 21.2434C20.3317 21.3246 20.3968 21.3735 20.4543 21.4288C20.4791 21.4525 20.5094 21.485 20.5551 21.5353C20.5612 21.5421 20.5677 21.5493 20.5745 21.5568C20.6128 21.5991 20.6606 21.652 20.7093 21.7024C20.8152 21.8122 20.9954 21.9877 21.2366 22.0906C21.4803 22.1946 21.6668 22.3853 21.888 22.6969C21.9332 22.7605 21.9837 22.8361 22.0392 22.9191C22.2159 23.1835 22.4423 23.5222 22.7014 23.7813C22.9617 24.0416 23.3839 24.0416 23.6442 23.7813Z" fill="black"/>
</svg>
