<svg width="355" height="242" viewBox="0 0 355 242" fill="none" xmlns="http://www.w3.org/2000/svg">
    <g clip-path="url(#clip0_729_2231)">
        <path d="M146.822 153.276C146.803 155.265 145.525 156.58 144.32 157.935C144.261 157.999 144.183 158.076 144.107 158.087C143.063 158.25 142.016 158.408 140.971 158.556C140.499 158.625 140 158.594 139.558 158.735C138.467 159.077 137.448 159.435 136.236 159.03C135.615 158.824 134.765 159.008 134.111 159.256C131.802 160.132 129.374 160.106 126.986 160.384C125.414 160.567 123.843 160.776 122.134 160.99C122.766 161.688 123.34 162.403 124.004 163.032C125.282 164.245 126.604 165.415 127.923 166.581C128.307 166.919 128.776 167.158 129.153 167.504C129.632 167.938 130.04 168.447 130.501 168.898C130.951 169.335 131.409 169.768 131.899 170.157C133.191 171.184 134.509 172.186 135.81 173.199C136.354 173.622 136.9 174.049 137.437 174.48C138.515 175.349 139.623 176.182 140.653 177.106C141.478 177.849 142.471 178.403 143.259 179.091C144.4 180.09 145.722 180.699 146.92 181.535C147.811 182.156 148.814 182.611 149.698 183.239C150.171 183.576 150.787 184.089 150.83 184.572C150.912 185.405 150.529 186.312 149.629 186.621C148.647 186.959 147.601 187.192 146.567 187.295C144.548 187.497 142.879 188.491 141.293 189.236C141.694 190.213 142.033 191.051 142.38 191.884C142.772 192.815 143.251 193.64 144.239 194.12C144.652 194.322 144.949 194.826 145.225 195.243C145.689 195.934 146.019 196.725 146.534 197.369C147.837 199.008 149.16 200.633 149.85 202.642C150.249 203.81 152.554 204.622 153.939 203.985C154.806 203.584 155.743 203.281 156.638 203.755C157.086 203.991 157.449 204.498 157.705 204.964C157.928 205.373 157.886 205.916 158.071 206.355C158.43 207.205 157.989 207.68 157.419 208.205C155.36 210.079 152.665 210.928 150.474 212.587C150.19 212.799 149.863 212.953 149.577 213.16C148.798 213.724 148.331 213.33 147.879 212.68C147.265 211.795 146.558 210.974 145.972 210.072C144.85 208.35 142.818 207.631 141.606 206.021C141.321 205.642 141.035 205.264 140.758 204.882C140.562 204.612 140.424 204.298 140.2 204.059C138.345 202.052 136.447 200.087 134.628 198.044C133.652 196.948 132.814 195.724 132.017 194.695C129.159 195.866 126.368 197.03 123.558 198.146C123.038 198.355 122.441 198.364 121.654 198.506C121.66 199.254 121.536 200.061 121.697 200.806C122.368 203.904 121.775 207.045 122.105 210.154C122.27 211.713 122.37 213.273 122.476 214.837C122.561 216.128 122.592 217.422 122.672 218.715C122.72 219.491 122.836 220.26 122.888 221.034C122.947 221.946 123.088 222.874 122.952 223.761C122.887 224.178 122.331 224.711 121.892 224.851C119.511 225.597 117.116 226.298 114.691 226.891C113.331 227.223 112.124 226.587 111.111 225.716C110.057 224.806 110.121 223.403 111.094 222.334C111.788 221.574 112.399 220.733 113.05 219.931C113.144 219.817 113.234 219.61 113.332 219.605C114.536 219.537 114.334 218.619 114.236 217.943C114.041 216.552 113.753 215.168 113.392 213.814C113.209 213.124 112.81 212.481 112.453 211.842C111.799 210.664 112.087 209.439 112.46 208.336C112.927 206.963 112.846 205.705 112.408 204.382C112.164 203.652 112.048 202.883 111.838 201.968C110.981 202.27 110.065 202.6 109.141 202.909C106.887 203.662 104.63 204.407 102.375 205.156C102.26 205.193 102.152 205.247 102.036 205.27C101.656 205.355 101.271 205.428 100.889 205.51C100.819 205.098 100.69 204.685 100.692 204.274C100.72 202.245 101.563 200.253 100.975 198.186C100.901 197.932 100.928 197.645 100.932 197.373C100.951 196.189 101.144 195.975 102.342 195.809C102.614 193.656 102.928 191.495 103.139 189.326C103.279 187.888 103.323 186.433 103.312 184.991C103.293 182.837 103.15 180.683 103.137 178.531C103.132 177.237 103.27 175.939 103.339 174.644C103.35 174.404 103.447 174.104 103.342 173.932C102.718 172.912 102.787 171.777 102.735 170.662C102.72 170.283 102.702 169.9 102.684 169.342C101.854 170.003 101.135 170.617 100.375 171.169C99.4251 171.854 98.4009 172.444 97.4673 173.157C96.0204 174.265 94.6222 175.444 93.2057 176.59C92.1581 177.44 91.1087 178.285 90.0593 179.131C89.4539 179.619 88.7947 180.049 88.2354 180.589C87.0648 181.724 85.1037 182.092 83.6232 181.388C81.6512 180.449 80.9334 179.347 81.2822 177.307C81.555 175.704 81.7054 173.985 83.1305 172.836C83.391 172.629 83.7176 172.51 83.9858 172.31C84.4386 171.974 84.9312 171.662 85.2886 171.24C86.464 169.873 87.4779 168.331 89.2527 167.619C89.3084 167.596 89.3855 167.564 89.3971 167.52C90.0284 165.619 91.9916 164.915 93.0745 163.395C93.8881 162.256 95.0074 161.336 95.9457 160.281C96.5298 159.631 97.0895 158.946 97.5612 158.218C98.495 156.774 99.5175 155.424 100.684 154.145C101.446 153.307 101.802 152.1 102.313 151.04C102.504 150.641 102.819 150.127 102.705 149.788C102.467 149.075 101.956 148.488 101.091 148.392C100.287 148.301 99.4791 148.222 98.6873 148.061C97.5783 147.835 96.4868 147.541 95.5645 147.319C95.9199 148.379 96.3826 149.616 96.7415 150.881C97.0941 152.117 96.6862 152.575 95.3962 152.493C93.4677 152.367 91.5445 152.169 89.6154 152.079C88.8126 152.038 87.9887 152.14 87.1918 152.272C86.3656 152.405 85.7641 152.086 85.2977 151.486C84.8199 150.871 84.8386 150.173 85.2353 149.53C85.6726 148.815 86.2844 148.184 86.6208 147.43C87.2514 146.016 87.7412 144.539 88.2846 143.095C87.3613 142.857 86.4531 142.669 85.5767 142.387C84.6719 142.098 84.4008 141.413 84.7733 140.564C85.1028 139.819 85.5256 139.105 85.768 138.33C86.1699 137.029 86.8369 136.886 88.2022 137.407C88.1875 136.628 88.2434 135.874 88.1482 135.142C87.547 130.373 89.4578 126.822 93.3535 124.205C93.8862 123.856 94.3707 123.513 94.8631 123.176C96.3712 122.558 97.8836 121.938 99.3918 121.32C101.545 120.908 103.573 121.263 105.51 122.276C105.91 122.482 106.336 122.653 106.771 122.785C108.233 123.227 109.435 124.046 110.41 125.213C110.908 125.805 111.411 126.395 111.923 126.996C112.726 125.88 113.756 125.694 115.058 126.341C115.673 126.645 116.339 126.842 116.94 127.172C117.353 127.398 117.794 127.703 118.023 128.089C118.318 128.589 118.143 129.101 117.661 129.524C117.083 130.031 116.57 130.612 116.027 131.165C116.001 131.321 115.972 131.483 115.946 131.638C117.652 132.246 119.366 132.824 121.054 133.474C121.921 133.805 122.776 134.195 123.572 134.669C124.389 135.16 124.568 135.998 123.965 136.736C122.85 138.104 121.621 139.378 120.467 140.712C119.685 141.613 118.97 142.577 118.181 143.471C117.75 143.958 117.227 144.367 116.576 144.964L114.524 139.964C114.253 140.341 114.146 140.519 114.012 140.68C112.882 142.038 111.857 143.515 110.572 144.712C109.829 145.402 109.902 145.922 110.178 146.655C110.478 147.458 111.09 147.378 111.75 147.253C112.005 147.203 112.282 147.22 112.538 147.27C115.936 147.929 119.335 148.599 122.738 149.256C122.992 149.302 123.266 149.275 123.526 149.249C124.046 149.2 124.575 149.024 125.079 149.082C127.04 149.31 128.939 150.023 130.976 149.609C132.17 149.37 133.388 149.106 134.614 149.63C134.916 149.756 135.327 149.673 135.682 149.622C136.605 149.494 137.524 149.318 138.45 149.184C139.273 149.067 140.119 148.825 140.923 148.916C141.94 149.03 142.933 149.424 143.932 149.7C143.977 149.711 144.028 149.786 144.044 149.839C144.318 150.933 145.289 151.201 146.142 151.607L146.831 153.287L146.822 153.276ZM103.786 148.569C104.078 148.975 104.349 149.6 104.819 149.963C106.05 150.915 105.986 151.477 104.904 152.621C103.612 153.986 101.447 154.468 100.888 156.569C100.85 156.72 100.635 156.818 100.511 156.954C97.241 160.571 93.743 163.987 91.0408 168.097C90.4486 168.996 89.5519 169.799 88.622 170.35C87.5355 170.995 86.6013 171.744 85.7876 172.688C85.1578 173.421 83.3928 176.547 83.1744 177.503C83.1 177.833 83.1096 178.235 83.2337 178.549C83.644 179.597 85.3853 180.035 86.2987 179.37C86.5422 179.196 86.831 179.082 87.0685 178.905C88.2696 178.002 89.9782 178.238 91.0737 177.078C92.246 175.837 93.4633 174.632 94.6529 173.409C94.7091 173.351 94.7193 173.242 94.7383 173.154C95.0431 171.763 96.2601 171.289 97.2949 170.64C97.4694 170.528 97.808 170.499 97.9774 170.595C98.8626 171.093 99.1684 170.472 99.6199 169.902C100.469 168.823 101.38 167.789 102.33 166.799C102.832 166.278 103.489 166.475 103.636 167.175C103.847 168.165 104.05 169.183 104.062 170.189C104.085 171.781 104.172 173.272 105.522 174.415C106.12 174.921 106.155 175.603 105.871 176.4C105.687 176.926 105.753 177.649 105.959 178.186C106.373 179.267 106.359 180.379 105.895 181.31C105.287 182.525 105.031 183.716 105.161 185.044C105.433 187.891 105.133 190.696 104.524 193.479C103.862 196.513 103.217 199.55 102.582 202.588C102.447 203.234 102.711 203.622 103.417 203.427C105.047 202.984 106.685 202.559 108.282 202.024C109.511 201.616 110.665 201.002 111.887 200.577C113 200.191 113.22 200.446 113.211 201.596C113.208 202.368 113.295 203.153 113.455 203.908C113.824 205.649 114.648 207.399 114.567 209.104C114.469 211.121 115.705 212.877 115.296 214.866C115.286 214.915 115.326 214.989 115.363 215.029C116.365 216.155 115.793 217.345 115.522 218.527C115.185 219.997 114.489 221.203 113.199 222.062C112.681 222.409 112.238 222.891 111.827 223.365C111.637 223.583 111.431 224.058 111.534 224.211C111.766 224.556 112.193 225.012 112.528 225C114.104 224.949 115.693 224.844 117.247 224.582C118.236 224.418 119.151 223.842 120.133 223.65C121.435 223.397 121.474 223.441 121.035 222.214C120.965 222.018 120.864 221.809 120.868 221.612C120.892 220.146 120.99 218.679 120.97 217.216C120.944 215.409 121.015 213.569 120.682 211.808C120.474 210.702 120.302 209.661 120.385 208.536C120.441 207.782 120.245 207.012 120.173 206.251C120.145 205.952 120.134 205.656 120.125 205.354C120.075 203.793 120.029 202.23 119.983 200.667C119.958 199.827 119.938 198.984 119.898 198.145C119.864 197.463 120.194 197.122 120.826 196.918C123.039 196.212 125.252 195.495 127.446 194.731C128.724 194.282 130.01 193.83 130.935 192.731C131.083 192.555 131.607 192.44 131.758 192.553C132.597 193.206 133.428 193.891 134.163 194.656C134.741 195.26 135.129 196.047 135.698 196.665C137.243 198.354 138.869 199.975 140.398 201.676C141.098 202.455 141.614 203.395 142.286 204.201C143.012 205.079 143.815 205.891 144.597 206.722C145.271 207.437 145.993 208.112 146.645 208.846C147.531 209.844 148.369 210.887 149.212 211.893C149.573 211.675 149.822 211.513 150.078 211.368C151.725 210.443 153.391 209.55 155.012 208.585C155.462 208.316 155.831 207.874 156.176 207.457C156.583 206.96 156.286 205.896 155.713 205.635C155.444 206.686 154.595 206.849 153.71 206.962C152.672 207.092 152.294 206.11 151.753 205.681C151.317 205.815 150.887 206.071 150.752 205.962C149.947 205.305 149.034 204.679 148.495 203.828C147.797 202.738 147.482 201.41 146.872 200.254C146.357 199.279 145.526 198.463 145.066 197.465C144.48 196.194 143.707 195.189 142.439 194.578C142.321 194.521 142.23 194.348 142.184 194.212C141.799 193.078 140.876 192.451 139.966 191.807C139.571 191.529 139.176 191.25 138.805 190.942C138.095 190.347 138.158 189.39 138.995 189.017C141.231 188.025 143.504 187.124 145.736 186.124C146.587 185.746 147.359 185.199 148.168 184.732C148.152 184.644 148.133 184.561 148.117 184.473C146.378 183.884 145.36 182.184 143.583 181.636C143.382 181.573 143.075 181.214 143.117 181.121C143.395 180.482 142.915 180.288 142.542 180.075C141.323 179.384 140.179 178.622 139.429 177.392C139.308 177.196 139.095 177.043 138.902 176.902C137.073 175.58 135.195 174.333 133.635 172.654C133.161 172.148 132.311 171.6 131.733 171.692C131.035 171.808 130.677 171.594 130.228 171.258C129.902 171.011 129.565 170.788 129.24 170.556C128.915 170.935 128.651 171.243 128.326 171.622C127.958 170.726 127.687 169.957 127.319 169.231C127.191 168.979 126.829 168.842 126.582 168.643C126.139 168.283 125.573 167.99 125.29 167.53C124.772 166.696 124.527 165.686 123.978 164.885C123.082 163.58 122.188 162.17 120.521 161.731C119.556 161.477 119.499 160.704 119.568 160.08C119.639 159.46 120.325 159.229 120.979 159.237C121.942 159.242 122.91 159.271 123.876 159.235C125.988 159.161 128.156 159.564 130.171 158.548C130.311 158.475 130.523 158.564 130.702 158.56C131.149 158.552 131.6 158.578 132.041 158.517C133.586 158.294 135.12 158.021 136.663 157.804C138.181 157.588 139.707 157.428 141.222 157.217C141.411 157.19 141.565 156.967 141.756 156.908C142.094 156.805 142.46 156.66 142.791 156.709C143.645 156.84 144.11 156.569 144.295 155.728C144.394 155.287 144.515 154.851 144.666 154.424C145.12 153.142 144.503 152.089 143.15 151.817C142.714 151.731 142.2 151.661 141.896 151.385C140.68 150.287 139.231 150.185 137.752 150.361C136.092 150.56 134.498 150.908 132.752 150.643C130.992 150.378 129.133 150.715 127.321 150.861C127.083 150.879 126.792 151.268 126.668 151.55C126.229 152.505 125.881 152.683 124.902 152.283C124.398 152.08 123.875 151.893 123.419 151.61C120.015 149.511 116.147 149.064 112.322 148.66C110.663 148.484 109.254 148.44 108.716 146.534L103.785 148.555L103.786 148.569ZM106.435 146.047C107.199 145.484 107.924 144.846 108.748 144.378C110.151 143.578 111.118 142.411 111.734 140.972C113.405 137.069 113.495 133.178 111.294 129.426C110.425 127.945 109.803 126.283 108.052 125.419C105.731 124.277 103.41 123.182 100.816 122.948C99.772 122.856 98.6323 122.932 97.6522 123.264C96.0351 123.812 94.6226 124.736 93.3106 125.929C91.9388 127.172 91.4228 128.695 91.1097 130.31C90.7011 132.399 90.5502 134.543 90.326 136.667C90.2817 137.096 90.2477 137.72 90.4959 137.959C91.9623 139.385 92.6531 141.214 93.326 143.061C93.3366 143.086 93.3642 143.105 93.3851 143.132C94.2046 144.347 95.4311 144.921 96.6854 145.623C98.1151 146.424 99.5002 146.457 100.98 146.661C102.874 146.921 104.634 146.66 106.443 146.044L106.435 146.047ZM86.0578 141.475C87.0756 141.503 87.859 141.497 88.6379 141.553C88.9641 141.58 89.4155 141.655 89.5654 141.874C89.7475 142.135 89.8376 142.683 89.6824 142.927C88.7656 144.364 88.6324 145.99 88.407 147.599C88.3148 148.253 88.293 148.882 87.6859 149.366C87.4451 149.56 87.4662 150.087 87.3898 150.389C89.8958 150.653 92.2495 150.9 94.9311 151.177C93.6108 146.217 91.1753 142.235 87.3282 138.997C86.9275 139.777 86.5751 140.467 86.0553 141.481L86.0578 141.475ZM117.298 141.991C117.364 141.958 117.584 141.908 117.717 141.769C119.436 139.968 121.151 138.159 122.834 136.323C122.938 136.21 122.853 135.71 122.715 135.631C122.373 135.431 121.91 135.205 121.568 135.286C120.542 135.531 119.778 135.158 118.992 134.584C117.674 133.618 116.135 133.293 114.482 133.109C114.904 134.978 114.785 136.834 115.812 138.48C116.469 139.533 116.799 140.789 117.293 141.992L117.298 141.991ZM114.199 130.858C114.264 130.871 114.33 130.884 114.395 130.897C114.959 129.991 115.525 129.088 116.154 128.074C115.414 128.027 114.776 127.984 114.025 127.936C114.088 128.991 114.141 129.925 114.195 130.859L114.199 130.858Z" fill="white"/>
        <path d="M213.899 113.915C215.666 114.834 217.427 114.326 219.191 113.9C219.275 113.879 219.38 113.846 219.426 113.784C220.06 112.94 220.692 112.092 221.315 111.24C221.598 110.856 221.804 110.402 222.137 110.078C222.952 109.277 223.748 108.546 223.961 107.287C224.07 106.643 224.632 105.98 225.159 105.52C227.018 103.896 228.137 101.743 229.506 99.7676C230.407 98.4683 231.33 97.1809 232.324 95.7752C232.642 96.66 233.005 97.5028 233.248 98.3837C233.718 100.082 234.13 101.797 234.539 103.509C234.657 104.007 234.648 104.532 234.776 105.027C234.935 105.653 235.191 106.253 235.374 106.872C235.548 107.473 235.715 108.081 235.828 108.696C236.128 110.319 236.393 111.952 236.676 113.576C236.793 114.254 236.914 114.936 237.041 115.612C237.303 116.972 237.517 118.34 237.849 119.683C238.117 120.76 238.139 121.896 238.376 122.915C238.722 124.391 238.639 125.843 238.813 127.292C238.943 128.37 238.873 129.468 239.013 130.543C239.087 131.119 239.251 131.903 239.657 132.168C240.354 132.632 241.336 132.721 242.032 132.073C242.792 131.365 243.49 130.553 244.067 129.69C245.195 128.004 246.858 127 248.262 125.952C248.937 126.765 249.517 127.458 250.09 128.156C250.727 128.939 251.231 129.749 251.191 130.847C251.174 131.305 251.48 131.804 251.718 132.244C252.11 132.978 252.654 133.641 252.981 134.398C253.815 136.318 254.629 138.248 256.079 139.802C256.923 140.703 256.556 143.118 255.341 144.039C254.58 144.615 253.872 145.298 253.869 146.31C253.868 146.817 254.145 147.375 254.436 147.82C254.692 148.209 255.192 148.427 255.493 148.797C256.074 149.513 256.701 149.348 257.433 149.092C260.056 148.158 262.074 146.181 264.57 145.029C264.89 144.878 265.18 144.662 265.497 144.508C266.362 144.086 266.234 143.489 265.872 142.784C265.379 141.827 264.986 140.817 264.465 139.877C263.472 138.078 263.793 135.948 262.94 134.122C262.74 133.692 262.54 133.262 262.333 132.839C262.186 132.539 261.975 132.269 261.869 131.96C260.968 129.38 260.125 126.782 259.177 124.217C258.667 122.841 257.98 121.527 257.446 120.34C259.825 118.371 262.165 116.457 264.473 114.504C264.901 114.144 265.19 113.622 265.686 112.995C266.344 113.352 267.115 113.622 267.697 114.114C270.118 116.163 273.171 117.118 275.761 118.87C277.061 119.749 278.393 120.571 279.723 121.4C280.824 122.082 281.953 122.718 283.057 123.397C283.72 123.804 284.345 124.267 285.004 124.678C285.782 125.159 286.535 125.72 287.383 126.016C287.781 126.156 288.514 125.916 288.843 125.595C290.622 123.845 292.368 122.063 294.032 120.205C294.965 119.162 294.971 117.798 294.678 116.495C294.37 115.137 293.101 114.535 291.699 114.889C290.701 115.144 289.671 115.287 288.656 115.484C288.512 115.513 288.286 115.495 288.236 115.579C287.61 116.609 286.894 115.999 286.342 115.595C285.206 114.768 284.119 113.864 283.093 112.909C282.569 112.423 282.189 111.769 281.792 111.153C281.059 110.022 279.842 109.701 278.692 109.51C277.259 109.277 276.186 108.614 275.224 107.606C274.694 107.047 274.07 106.583 273.36 105.968C274.03 105.353 274.752 104.701 275.459 104.032C277.185 102.399 278.904 100.759 280.626 99.1227C280.713 99.0388 280.811 98.9691 280.886 98.8775C281.14 98.5826 281.386 98.2769 281.638 97.9784C281.306 97.7237 281.003 97.4157 280.639 97.2236C278.834 96.2944 276.677 96.1014 275.128 94.6111C274.938 94.4255 274.672 94.315 274.431 94.1904C273.376 93.6506 273.096 93.7196 272.386 94.6983C270.356 93.9254 268.3 93.1862 266.285 92.3523C264.948 91.7991 263.643 91.1536 262.375 90.4656C260.48 89.4359 258.646 88.2967 256.751 87.2735C255.61 86.66 254.399 86.1712 253.223 85.6233C253.006 85.5207 252.695 85.4652 252.593 85.2912C251.985 84.2609 250.95 83.7887 249.99 83.2184C249.662 83.0265 249.332 82.831 248.848 82.5521C249.822 82.1308 250.703 81.7863 251.547 81.3759C252.599 80.8601 253.601 80.2344 254.67 79.7465C256.33 78.992 258.028 78.3134 259.707 77.6034C260.95 77.0793 262.19 76.5516 263.431 76.0239C264.147 75.7198 264.837 75.3409 265.576 75.1014C267.13 74.6032 268.377 73.0472 268.451 71.4104C268.55 69.2301 267.914 68.0788 265.948 67.427C264.403 66.9135 262.815 66.238 261.129 66.9539C260.824 67.0863 260.565 67.3184 260.263 67.4609C259.753 67.7023 259.246 67.9899 258.705 68.1067C256.944 68.4999 255.106 68.6689 253.642 69.8988C253.596 69.9372 253.532 69.9903 253.487 69.9795C251.511 69.6424 249.966 71.0422 248.114 71.2822C246.725 71.4639 245.387 72.0185 244.013 72.3496C243.165 72.5591 242.296 72.7305 241.431 72.8036C239.716 72.9481 238.043 73.2147 236.365 73.642C235.266 73.92 234.033 73.666 232.856 73.6177C232.414 73.5991 231.812 73.6345 231.566 73.3747C231.048 72.8295 230.77 72.1032 231.093 71.2952C231.39 70.544 231.7 69.794 231.93 69.02C232.252 67.9358 232.506 66.8354 232.743 65.9174C233.513 66.7295 234.388 67.7192 235.336 68.6303C236.263 69.5229 236.858 69.3785 237.393 68.2024C238.189 66.4429 238.918 64.654 239.746 62.9106C240.087 62.1832 240.565 61.5049 241.056 60.864C241.562 60.1982 241.563 59.5178 241.253 58.8245C240.934 58.114 240.308 57.802 239.554 57.8493C238.717 57.8988 237.872 58.1415 237.048 58.0837C235.502 57.9744 233.967 57.7117 232.436 57.5118C232.661 56.5861 232.921 55.6967 233.085 54.7915C233.254 53.8573 232.777 53.2963 231.852 53.2258C231.039 53.1656 230.209 53.2027 229.411 53.052C228.073 52.7946 227.633 53.3153 227.451 54.7645C226.769 54.3848 226.077 54.0797 225.476 53.6516C221.546 50.8787 217.511 50.8936 213.367 53.0976C212.809 53.4035 212.277 53.6691 211.748 53.9448C210.493 54.9839 209.234 56.026 207.979 57.0652C206.603 58.7701 205.963 60.7252 205.946 62.9099C205.94 63.3598 205.891 63.8154 205.804 64.2608C205.506 65.7583 205.664 67.2032 206.236 68.6116C206.525 69.3291 206.809 70.0495 207.099 70.7837C205.737 70.9678 205.087 71.7878 205.047 73.2404C205.026 73.9255 204.887 74.6061 204.895 75.2907C204.901 75.7613 204.963 76.2932 205.197 76.6768C205.499 77.1721 206.034 77.2586 206.634 77.0323C207.354 76.7614 208.108 76.5824 208.852 76.3632C209.002 76.4134 209.158 76.4643 209.308 76.5146C209.042 78.3043 208.747 80.088 208.527 81.8821C208.412 82.8016 208.354 83.7397 208.399 84.6644C208.448 85.6159 209.104 86.1675 210.039 85.9826C211.772 85.6426 213.476 85.1585 215.197 84.7681C216.36 84.5027 217.548 84.3251 218.708 84.0497C219.341 83.8988 219.949 83.6305 220.782 83.3374L217.331 79.1761C217.791 79.1142 217.999 79.1042 218.204 79.061C219.935 78.7044 221.721 78.4944 223.383 77.9242C224.342 77.5936 224.767 77.9032 225.285 78.491C225.853 79.133 225.494 79.635 225.073 80.1576C224.91 80.3592 224.794 80.6114 224.718 80.8606C223.702 84.1677 222.695 87.4789 221.675 90.7889C221.596 91.0346 221.443 91.2635 221.298 91.48C221.011 91.9165 220.606 92.2993 220.421 92.7716C219.7 94.6073 219.436 96.6176 218.112 98.219C217.34 99.1589 216.534 100.109 216.42 101.436C216.39 101.762 216.123 102.085 215.911 102.375C215.364 103.128 214.776 103.856 214.222 104.609C213.732 105.28 213.12 105.912 212.823 106.664C212.444 107.614 212.326 108.675 212.1 109.686C212.089 109.731 212.131 109.81 212.17 109.85C213.007 110.606 212.787 111.588 212.745 112.531L213.904 113.929L213.899 113.915ZM229.981 73.7549C230.203 74.2031 230.627 74.7361 230.727 75.3209C230.988 76.8545 231.515 77.0618 233.034 76.6459C234.847 76.1491 236.291 74.4669 238.41 74.9621C238.561 74.9993 238.749 74.8559 238.927 74.8102C243.66 73.6281 248.322 72.15 253.224 71.7005C254.296 71.6008 255.427 71.1878 256.351 70.6271C257.432 69.9726 258.532 69.5008 259.749 69.2273C260.693 69.017 264.284 68.9307 265.231 69.1874C265.558 69.2774 265.908 69.4747 266.127 69.732C266.86 70.5867 266.428 72.3279 265.411 72.8207C265.142 72.9532 264.906 73.1546 264.638 73.2806C263.276 73.9151 262.68 75.5325 261.141 75.9532C259.493 76.4031 257.857 76.9099 256.217 77.3836C256.139 77.4058 256.038 77.3634 255.951 77.3389C254.579 76.9533 253.588 77.8037 252.528 78.4107C252.347 78.5121 252.163 78.7972 252.168 78.9916C252.191 80.0064 251.499 79.9841 250.783 80.1139C249.431 80.355 248.089 80.6725 246.768 81.0446C246.072 81.2422 245.936 81.9133 246.486 82.3726C247.261 83.0241 248.065 83.6816 248.947 84.1658C250.343 84.9348 251.619 85.7124 251.994 87.4408C252.159 88.2059 252.745 88.5569 253.582 88.6817C254.134 88.7665 254.741 89.1655 255.119 89.5988C255.879 90.4726 256.868 90.9831 257.908 91.0119C259.267 91.0477 260.44 91.3816 261.552 92.1207C263.938 93.6997 266.557 94.7548 269.302 95.5259C272.293 96.3694 275.279 97.229 278.261 98.098C278.895 98.2826 279.113 98.6976 278.609 99.2288C277.451 100.458 276.305 101.701 275.082 102.859C274.143 103.75 273.059 104.48 272.108 105.357C271.244 106.156 271.366 106.47 272.385 107.004C273.069 107.364 273.721 107.81 274.313 108.306C275.677 109.45 276.835 110.999 278.379 111.73C280.207 112.592 281.176 114.508 283.126 115.082C283.174 115.097 283.221 115.167 283.239 115.218C283.762 116.631 285.082 116.687 286.254 117.004C287.711 117.397 289.103 117.351 290.468 116.618C291.019 116.325 291.653 116.161 292.264 116.021C292.547 115.955 293.063 115.997 293.15 116.16C293.346 116.527 293.547 117.118 293.379 117.408C292.593 118.774 291.753 120.125 290.791 121.373C290.18 122.167 289.242 122.703 288.61 123.479C287.774 124.508 287.795 124.562 286.918 123.599C286.777 123.444 286.64 123.257 286.464 123.168C285.158 122.5 283.816 121.897 282.533 121.191C280.95 120.319 279.291 119.515 277.892 118.394C277.013 117.69 276.175 117.049 275.142 116.593C274.45 116.288 273.861 115.753 273.223 115.331C272.972 115.166 272.716 115.017 272.454 114.867C271.098 114.089 269.74 113.313 268.381 112.538C267.65 112.121 266.915 111.706 266.192 111.277C265.606 110.926 265.15 111.057 264.673 111.518C263.008 113.137 261.334 114.752 259.627 116.327C258.63 117.242 257.626 118.164 256.22 118.462C255.995 118.51 255.648 118.918 255.676 119.105C255.858 120.151 256.072 121.207 256.403 122.214C256.664 123.008 257.177 123.72 257.455 124.512C258.221 126.669 258.887 128.865 259.67 131.013C260.029 131.997 260.617 132.894 261.013 133.865C261.448 134.918 261.787 136.009 262.153 137.089C262.467 138.019 262.724 138.974 263.066 139.894C263.531 141.144 264.058 142.374 264.55 143.59C264.187 143.806 263.927 143.949 263.679 144.107C262.087 145.124 260.515 146.173 258.9 147.149C258.451 147.419 257.887 147.537 257.357 147.645C256.727 147.769 255.926 147.007 255.965 146.379C257.02 146.636 257.563 145.964 258.079 145.237C258.682 144.383 257.993 143.588 257.868 142.909C258.191 142.588 258.62 142.329 258.587 142.158C258.386 141.14 258.261 140.04 257.764 139.165C257.129 138.037 256.105 137.135 255.37 136.053C254.751 135.14 254.421 134.024 253.756 133.149C252.909 132.034 252.385 130.88 252.441 129.475C252.447 129.344 252.337 129.183 252.238 129.078C251.418 128.205 251.298 127.096 251.157 125.991C251.097 125.512 251.036 125.033 250.939 124.56C250.747 123.655 249.873 123.26 249.149 123.823C247.222 125.328 245.357 126.908 243.424 128.407C242.689 128.979 241.844 129.402 241.051 129.896C240.98 129.84 240.916 129.785 240.846 129.729C241.143 127.919 240.12 126.222 240.472 124.397C240.511 124.191 240.338 123.75 240.237 123.744C239.541 123.689 239.596 123.174 239.583 122.746C239.546 121.345 239.411 119.978 238.677 118.738C238.561 118.54 238.526 118.28 238.492 118.044C238.184 115.809 237.966 113.566 237.218 111.401C236.992 110.746 236.909 109.738 237.262 109.272C237.693 108.711 237.672 108.294 237.586 107.741C237.521 107.337 237.483 106.935 237.431 106.539C237.919 106.431 238.315 106.343 238.802 106.234C238.184 105.489 237.632 104.888 237.164 104.223C237.002 103.99 237.051 103.607 236.991 103.296C236.882 102.736 236.889 102.099 236.616 101.633C236.123 100.785 235.345 100.093 234.896 99.2325C234.165 97.829 233.34 96.3771 233.737 94.7016C233.966 93.7303 233.31 93.3168 232.726 93.0844C232.146 92.8555 231.619 93.3517 231.318 93.9316C230.87 94.7837 230.44 95.6506 229.954 96.486C228.895 98.3129 228.232 100.414 226.386 101.713C226.256 101.803 226.235 102.031 226.148 102.187C225.931 102.577 225.741 102.987 225.48 103.347C224.557 104.605 223.594 105.829 222.677 107.088C221.771 108.324 220.913 109.594 220.014 110.832C219.901 110.985 219.632 111.016 219.49 111.157C219.24 111.406 218.94 111.661 218.828 111.976C218.541 112.79 218.084 113.073 217.253 112.84C216.817 112.72 216.376 112.623 215.928 112.554C214.581 112.352 213.942 111.312 214.338 109.992C214.466 109.567 214.647 109.081 214.546 108.683C214.148 107.094 214.739 105.769 215.59 104.547C216.547 103.177 217.604 101.935 218.19 100.271C218.785 98.5945 219.956 97.1136 220.938 95.5851C221.065 95.3834 221.546 95.3103 221.853 95.3326C222.903 95.3953 223.223 95.1722 223.332 94.1205C223.389 93.5802 223.469 93.0322 223.434 92.4962C223.181 88.5076 224.605 84.8872 226.047 81.3243C226.671 79.7787 227.296 78.5158 225.864 77.145L229.969 73.7472L229.981 73.7549ZM226.508 74.9043C225.651 75.3135 224.747 75.6526 223.946 76.1591C222.579 77.0201 221.094 77.3241 219.533 77.1905C215.3 76.8284 211.821 75.0776 209.542 71.3718C208.642 69.9096 207.467 68.5793 207.527 66.6289C207.61 64.0461 207.734 61.4836 208.748 59.087C209.157 58.1228 209.761 57.1539 210.515 56.4456C211.759 55.2772 213.239 54.4664 214.91 53.8708C216.653 53.2457 218.241 53.5069 219.815 53.9902C221.852 54.6126 223.817 55.4878 225.799 56.289C226.198 56.4515 226.766 56.7153 226.86 57.0464C227.43 59.0101 228.721 60.4794 230.035 61.9411C230.053 61.9625 230.056 61.9957 230.07 62.0266C230.758 63.3209 230.688 64.6721 230.718 66.1083C230.753 67.7455 230.131 68.9823 229.615 70.3836C228.954 72.1756 227.896 73.6048 226.501 74.9102L226.508 74.9043ZM232.052 54.7864C231.599 55.6971 231.225 56.3853 230.908 57.0985C230.778 57.3986 230.633 57.832 230.755 58.0671C230.9 58.3503 231.342 58.6878 231.631 58.6656C233.331 58.5329 234.83 59.1802 236.357 59.7381C236.978 59.9642 237.544 60.241 238.257 59.9333C238.541 59.8121 238.997 60.0785 239.299 60.153C238.354 62.487 237.465 64.6784 236.449 67.1734C232.689 63.6768 230.317 59.6565 229.266 54.7413C230.144 54.7548 230.919 54.7686 232.059 54.787L232.052 54.7864ZM217.816 82.5751C217.756 82.6188 217.609 82.789 217.423 82.8406C215.025 83.5092 212.62 84.1706 210.207 84.7917C210.058 84.8304 209.656 84.5197 209.651 84.3614C209.636 83.9655 209.654 83.451 209.886 83.1868C210.585 82.3978 210.615 81.5491 210.478 80.5861C210.244 78.9696 210.681 77.459 211.295 75.9158C212.748 77.1669 214.443 77.9346 215.415 79.6139C216.035 80.6881 216.989 81.5702 217.82 82.5722L217.816 82.5751ZM209.44 74.6071C209.421 74.671 209.402 74.735 209.383 74.7989C208.317 74.8696 207.254 74.9438 206.062 75.0224C206.368 74.3477 206.63 73.7641 206.941 73.0799C207.844 73.6317 208.644 74.1179 209.444 74.6041L209.44 74.6071Z" fill="white"/>
        <path d="M82.2092 179.02C81.8136 180.509 81.1048 181.766 79.7097 182.56C78.6488 183.163 77.4926 183.337 76.349 183.098C74.471 182.7 72.4974 182.788 70.7041 181.883C70.1658 181.615 69.4028 181.84 68.7599 181.732C67.6762 181.553 66.6058 181.299 65.537 181.068C64.8731 180.924 64.2121 180.757 63.5469 180.595C62.7163 180.388 61.8917 180.135 61.0505 179.976C59.5376 179.693 58.019 179.396 56.4874 179.243C55.8057 179.175 55.6266 179.791 55.7853 180.397C55.9953 181.204 56.2735 181.992 56.488 182.798C56.6711 183.486 56.8086 184.186 56.9554 184.886C56.9909 185.06 56.9765 185.251 57.0301 185.419C57.641 187.242 58.2608 189.059 58.8852 190.877C58.9905 191.185 59.1504 191.48 59.2283 191.795C59.7476 193.963 60.2166 196.139 60.7814 198.294C60.997 199.114 61.4538 199.871 61.7287 200.678C61.9805 201.421 62.1421 202.199 62.3257 202.961C62.4699 203.559 62.5505 204.175 62.7402 204.761C63.1321 205.977 63.5827 207.17 64.0019 208.38C64.2755 209.168 64.558 209.951 64.7815 210.752C65.4046 213.011 65.9953 215.271 66.6049 217.535C66.8507 218.455 67.11 219.369 67.3647 220.284C67.8137 221.914 68.2533 223.545 68.7253 225.173C69.0136 226.169 69.3292 227.159 69.6629 228.142C70.1834 229.67 69.6499 230.584 68.035 230.893C67.5452 230.983 67.0558 231.077 66.3281 231.212C69.2964 231.751 70.349 232.54 71.9725 235.308C71.2716 236.61 70.2992 237.482 68.7151 237.505C68.1361 237.513 67.556 237.702 66.9749 237.812L62.8687 238.101C61.4698 237.791 60.0868 237.707 58.7626 238.389L57.5123 238.477C57.5011 238.45 57.4981 238.408 57.4787 238.396C55.7969 237.363 55.2495 235.652 54.6675 233.91C53.8922 231.598 53.0039 229.326 52.1294 227.053C51.9416 226.56 51.5639 226.137 51.358 225.65C51.0738 224.974 50.8664 224.269 50.6366 223.575C50.4245 222.936 50.28 222.268 50.0099 221.661C49.629 220.796 49.1402 219.981 48.7276 219.129C47.9127 217.436 47.1204 215.738 46.3279 214.034C46.1913 213.742 46.0344 213.424 46.0264 213.113C45.9803 211.673 45.3218 210.49 44.5312 209.274C43.9903 211.201 43.5121 213.095 42.9198 214.951C42.4944 216.281 41.841 217.533 41.4251 218.866C40.2267 222.71 39.222 226.604 38.8156 230.633C38.7904 230.867 38.7964 231.15 38.6743 231.325C37.3594 233.19 37.5874 235.434 37.1779 237.514C36.8359 239.237 36.1806 239.937 34.4183 239.866C32.5815 239.791 30.7416 239.54 28.9137 239.589C27.382 239.632 25.8609 240.022 24.3301 240.208C23.7784 240.275 23.1875 240.311 22.6594 240.186C21.6828 239.948 21.3936 239.333 21.426 238.347C21.4856 236.236 22.7354 235.09 24.5177 234.329C24.8193 234.201 25.1213 234.078 25.4226 233.945C25.4674 233.923 25.5057 233.874 25.4968 233.879C24.4387 233.736 23.3484 233.594 22.2565 233.429C21.6239 233.335 21.3233 232.887 21.5623 232.332C22.555 230.039 22.4392 227.546 22.9399 225.181C23.7121 221.539 23.852 217.808 24.7886 214.196C25.1567 212.778 24.9167 211.217 25.1422 209.749C25.5833 206.868 26.1977 204.013 26.6573 201.131C26.9532 199.282 27.0476 197.4 27.3199 195.543C27.5822 193.743 27.9668 191.966 28.2713 190.172C28.5662 188.439 28.875 186.705 29.0855 184.959C29.1707 184.261 28.9429 183.53 28.9764 182.822C29.0009 182.315 29.2016 181.809 29.3519 181.311C29.4411 180.998 29.5778 180.701 29.6907 180.396C29.2861 180.248 28.8892 180.011 28.4747 179.985C28.0786 179.957 27.6541 180.117 27.2645 180.246C25.5337 180.818 23.6986 181.095 22.3728 182.608C20.9997 184.176 19.0656 184.822 17.0875 185.175C15.7962 185.405 14.6293 185.821 13.5114 186.47C12.5936 186.998 11.6347 187.34 10.5293 187.181C10.1124 187.122 9.62497 187.244 9.23401 187.42C7.93587 188.012 6.62075 187.97 5.29631 187.599C4.39292 187.347 3.79955 186.757 3.68825 185.772C3.6663 185.593 3.66249 185.407 3.59539 185.245C2.39285 182.266 4.36188 180.406 6.0245 178.475C6.32893 178.124 6.98407 178.078 7.47555 177.881C8.0168 177.667 8.57385 177.479 9.08877 177.22C9.81831 176.849 10.5044 176.388 11.2392 176.025C13.4743 174.912 15.7258 173.835 17.9658 172.727C19.2201 172.105 20.5004 171.523 21.6919 170.799C22.7987 170.123 23.8864 169.373 24.8348 168.49C26.2095 167.21 27.3788 165.712 28.7592 164.446C30.3876 162.949 32.2657 161.902 34.6161 162.03C34.914 162.046 35.3473 161.681 35.5163 161.382C35.8037 160.856 35.9482 160.21 35.3867 159.743C34.9335 159.367 34.4032 159.079 33.9029 158.757C32.4994 157.858 30.9584 157.112 29.7222 156.02C27.9419 154.447 26.3602 152.664 26.4034 149.993C26.4278 148.631 26.2341 147.266 26.1379 145.904C25.1649 145.717 24.3332 145.627 23.5505 145.376C23.1614 145.25 22.6525 144.873 22.5823 144.534C22.5179 144.214 22.8739 143.674 23.1954 143.433C24.3138 142.593 25.4891 141.838 26.6539 141.065C29.1342 139.419 31.6198 137.783 34.1103 136.151C34.2831 136.037 34.4789 135.921 34.6717 135.893C36.7928 135.596 38.9243 135.052 41.0339 135.117C42.7392 135.169 44.4294 135.927 46.11 136.417C50.0579 137.565 52.806 142.273 52.694 146.137C52.6318 148.211 52.4417 150.313 52.0098 152.339C51.622 154.134 50.3516 155.449 48.7856 156.45C48.0979 156.888 47.4993 157.473 46.8837 158.013C46.2199 158.593 46.3056 159.413 46.2853 160.176C46.2828 160.338 46.4942 160.574 46.6675 160.664C47.0088 160.835 47.3866 160.999 47.7606 161.042C50.7811 161.401 53.1758 163.27 55.8592 164.437C56.8159 164.852 57.5322 165.804 58.4701 166.281C60.1632 167.146 62.0029 167.723 63.6709 168.626C66.1922 169.99 68.9452 170.632 71.6154 171.545C74.0859 172.388 76.5139 173.349 78.9761 174.207C80.5163 174.744 81.5684 175.723 82.0948 177.269L82.221 179.056L82.2092 179.02ZM69.4047 235.846C69.5025 234.604 68.9224 233.94 67.9242 233.592C67.1971 233.342 66.4621 233.11 65.7188 232.893C64.2801 232.479 62.8598 232.064 62.0215 230.633C61.4785 229.706 61.6466 229.197 62.7285 229.154C63.6993 229.113 64.6852 229.221 65.6457 229.362C66.9857 229.56 67.7719 228.874 67.5764 227.551C67.5224 227.179 67.3078 226.832 67.2118 226.458C67.128 226.125 67.0845 225.771 67.0696 225.429C67.0567 225.049 67.2165 224.62 67.0958 224.29C66.3325 222.213 65.767 220.113 65.5311 217.888C65.3789 216.456 65.302 214.842 63.8901 213.822C63.6849 213.674 63.6394 213.227 63.6169 212.909C63.5745 212.373 63.652 211.83 63.5822 211.301C63.5337 210.942 63.4072 210.399 63.1681 210.295C61.8355 209.743 61.3168 208.504 60.7838 207.39C60.1909 206.151 59.9254 204.754 59.5619 203.415C59.4239 202.905 59.4952 202.338 59.3393 201.839C58.6322 199.573 57.8114 197.338 57.4092 194.99C57.3058 194.38 57.1122 193.674 57.3163 193.149C57.7561 192.023 57.6375 191.001 57.2287 189.939C56.9735 189.28 56.7091 188.621 56.4763 187.95C56.3533 187.588 56.2152 187.208 56.2072 186.832C56.1656 185.257 55.8104 183.774 55.1126 182.361C54.8526 181.832 54.6353 181.248 54.5711 180.668C54.4726 179.733 54.1816 178.96 53.468 178.309C53.2398 178.098 53.0721 177.562 53.184 177.308C53.2923 177.068 53.8022 176.87 54.1235 176.889C54.8309 176.928 55.5274 177.139 56.2348 177.242C57.4438 177.422 58.7669 177.315 59.8389 177.787C62.1643 178.808 64.6003 179.031 67.0528 179.355C68.6255 179.565 70.1687 180.014 71.7162 180.392C73.3013 180.778 74.8718 181.22 76.4572 181.609C77.5801 181.883 78.6863 181.857 79.5095 180.908C80.2859 180.018 80.3675 178.94 79.9537 177.874C79.5064 176.727 78.7617 175.767 77.5471 175.375C75.6016 174.745 73.6589 174.023 71.6583 173.662C69.113 173.205 66.8674 172.133 64.896 170.61C62.2428 168.56 59.198 167.595 56.0665 166.715C55.111 166.448 54.2061 165.977 53.3042 165.549C51.0774 164.48 48.9516 163.135 46.6296 162.36C44.1696 161.535 42.4674 158.703 45.2586 156.405C45.3945 156.293 45.5396 156.181 45.6603 156.052C46.3386 155.35 47.0855 154.699 47.6753 153.924C48.5966 152.723 49.3209 151.358 50.672 150.53C50.8454 150.425 50.9932 150.155 51.0204 149.949C51.1196 149.12 51.3278 148.261 51.1926 147.463C50.942 145.949 50.4851 144.468 50.1013 142.973C50.0123 142.631 49.9875 142.215 49.7752 141.966C48.1247 139.998 46.4652 138.23 43.7022 137.58C41.8822 137.151 40.1748 136.936 38.3405 137.028C36.3583 137.125 34.4846 137.512 32.8431 138.625C31.4405 139.578 30.141 140.676 28.8105 141.73C27.5329 142.743 27.5131 143.185 27.9429 144.742C28.5223 146.841 28.9007 148.982 28.061 151.143C27.9078 151.534 27.8932 152.181 28.1187 152.485C28.9239 153.579 29.7584 154.695 30.7714 155.58C31.9724 156.632 33.3756 157.397 34.9712 157.865C36.9691 158.449 37.6787 159.569 37.2399 161.103C36.9052 162.273 36.0008 162.926 34.9077 163.402C33.1669 164.16 31.4646 165.003 29.7507 165.815C29.6205 165.875 29.4932 165.977 29.4085 166.09C28.1372 167.72 26.7333 169.178 24.8595 170.154C23.4374 170.894 22.1554 171.913 20.7109 172.599C19.4773 173.187 18.2745 173.684 17.6349 175.001C17.5256 175.226 17.2734 175.397 17.0673 175.565C14.3437 177.77 11.1411 178.905 7.78922 179.697C7.33768 179.803 6.79159 179.883 6.48325 180.178C5.41909 181.195 4.58677 182.409 4.3441 183.898C4.11766 185.287 5.4087 186.695 6.78129 186.567C7.90046 186.46 9.00551 186.285 9.94659 185.495C10.4237 185.095 11.0922 184.844 11.7128 184.703C13.661 184.255 15.3611 182.92 17.4825 183.086C17.6176 183.095 17.7636 182.997 17.9034 182.941C19.5914 182.289 21.235 181.533 22.8786 180.777C24.9581 179.823 27.299 179.422 29.5455 178.866C31.0448 178.496 31.4406 178.978 31.1956 180.499C30.9996 181.729 30.9439 182.977 30.8039 184.212C30.7505 184.703 30.6457 185.188 30.555 185.677C30.43 186.336 30.0033 187.122 30.2201 187.631C31.0046 189.483 30.1978 190.928 29.3284 192.404C29.1628 192.685 28.9072 192.94 28.8404 193.241C28.4271 195.071 27.9206 196.893 27.6991 198.747C27.4371 200.946 27.3652 203.146 27.5853 205.41C27.8024 207.631 27.2626 209.966 26.7847 212.195C26.5307 213.392 26.1239 214.525 26.3095 215.774C26.355 216.091 26.3238 216.437 26.2534 216.753C25.9267 218.233 25.455 219.695 25.2591 221.189C24.7849 224.782 24.4276 228.39 24.0248 232.01C25.0029 231.942 26.0394 231.846 27.0794 231.801C29.229 231.71 29.6329 231.914 30.1258 233.248C28.5622 234.151 26.9936 235.051 25.4398 235.963C24.5227 236.5 23.7791 237.198 23.47 238.468C24.0014 238.639 24.5492 238.977 25.0761 238.954C27.4735 238.827 29.8592 238.534 32.2534 238.426C34.8419 238.314 36.033 237.191 36.0458 234.615C36.051 233.44 36.1234 232.298 36.8112 231.27C36.9999 230.988 37.0753 230.611 37.153 230.267C37.8083 227.465 38.4398 224.654 39.1237 221.863C39.286 221.207 39.4881 220.59 39.0332 219.99C38.3178 219.052 38.532 218.146 38.9239 217.13C39.4215 215.837 39.8087 214.492 40.0885 213.136C40.4097 211.577 40.6672 210.037 41.8722 208.848C42.4965 208.233 42.8038 207.464 42.9633 206.571C43.0894 205.862 43.5394 205.208 43.848 204.523C45.7567 205.749 46.4375 207.511 46.9858 209.366C47.9377 212.603 48.9664 215.812 50.7025 218.73C51.313 219.759 51.6114 220.834 51.8142 221.998C52.0255 223.218 52.3172 224.46 52.8096 225.59C53.6064 227.418 54.5953 229.145 54.7826 231.206C54.8463 231.912 55.2668 232.745 55.7918 233.219C56.6282 233.968 57.347 234.757 57.884 235.731C57.9745 235.897 58.1639 236.083 58.3329 236.113C59.2354 236.286 60.1447 236.556 61.047 236.53C63.333 236.467 65.6191 236.274 67.9022 236.104C68.4235 236.068 68.9367 235.916 69.385 235.829L69.4047 235.846Z" fill="white"/>
        <path d="M146.435 153.649C147.646 154.605 148.967 155.186 150.56 154.987C151.771 154.835 152.802 154.283 153.573 153.406C154.839 151.964 156.472 150.853 157.365 149.056C157.635 148.519 158.381 148.242 158.831 147.771C159.591 146.979 160.296 146.135 161.013 145.31C161.459 144.798 161.888 144.268 162.323 143.74C162.864 143.078 163.373 142.382 163.951 141.751C164.992 140.619 166.03 139.472 167.165 138.433C167.67 137.971 168.183 138.357 168.419 138.937C168.735 139.708 168.985 140.506 169.297 141.28C169.563 141.94 169.873 142.583 170.175 143.231C170.251 143.391 170.377 143.536 170.435 143.702C171.039 145.527 171.633 147.353 172.222 149.182C172.323 149.492 172.372 149.823 172.498 150.122C173.383 152.169 174.312 154.191 175.153 156.255C175.472 157.041 175.56 157.92 175.824 158.73C176.068 159.476 176.405 160.196 176.716 160.916C176.959 161.481 177.264 162.022 177.463 162.604C177.879 163.813 178.234 165.038 178.623 166.257C178.877 167.052 179.121 167.848 179.422 168.623C180.278 170.804 181.16 172.967 182.03 175.144C182.385 176.028 182.726 176.915 183.071 177.8C183.689 179.374 184.315 180.942 184.913 182.528C185.28 183.498 185.621 184.479 185.943 185.467C186.443 187.001 187.419 187.414 188.897 186.694C189.343 186.473 189.791 186.256 190.455 185.928C188.401 188.136 188.032 189.398 188.392 192.586C189.734 193.209 191.035 193.324 192.318 192.395C192.786 192.055 193.364 191.859 193.896 191.599L197.356 189.373C198.29 188.287 199.348 187.392 200.817 187.146L201.871 186.468C201.864 186.44 201.841 186.405 201.849 186.383C202.576 184.549 201.988 182.852 201.41 181.11C200.644 178.794 199.992 176.444 199.329 174.101C199.184 173.594 199.233 173.029 199.106 172.516C198.928 171.804 198.671 171.116 198.439 170.423C198.225 169.784 197.94 169.163 197.792 168.515C197.579 167.595 197.482 166.65 197.3 165.721C196.938 163.878 196.554 162.044 196.167 160.206C196.101 159.89 196.035 159.541 195.856 159.288C195.029 158.108 194.846 156.766 194.75 155.319C196.339 156.538 197.858 157.769 199.445 158.9C200.583 159.71 201.858 160.321 202.99 161.14C206.255 163.5 209.395 166.016 212.137 168.998C212.298 169.171 212.462 169.4 212.665 169.468C214.837 170.174 216 172.107 217.576 173.527C218.883 174.702 219.828 174.87 221.196 173.758C222.621 172.599 223.944 171.297 225.437 170.242C226.689 169.359 228.141 168.761 229.479 167.994C229.96 167.717 230.456 167.393 230.803 166.977C231.443 166.202 231.305 165.536 230.688 164.766C229.374 163.112 227.686 162.942 225.802 163.4C225.484 163.478 225.168 163.56 224.848 163.634C224.799 163.644 224.738 163.627 224.749 163.626C225.51 162.878 226.298 162.112 227.073 161.326C227.523 160.872 227.495 160.334 226.971 160.032C224.801 158.791 223.398 156.725 221.579 155.132C218.777 152.679 216.426 149.775 213.51 147.444C212.365 146.529 211.621 145.136 210.56 144.095C208.479 142.053 206.274 140.135 204.178 138.103C202.832 136.799 201.628 135.35 200.296 134.026C199.006 132.741 197.633 131.549 196.313 130.295C195.037 129.084 193.75 127.881 192.534 126.609C192.048 126.102 191.791 125.38 191.34 124.833C191.016 124.442 190.552 124.157 190.133 123.848C189.874 123.651 189.586 123.495 189.313 123.318C189.548 122.958 189.724 122.531 190.04 122.261C190.34 122.002 190.776 121.876 191.166 121.746C192.895 121.168 194.53 120.292 196.499 120.71C198.539 121.143 200.475 120.503 202.271 119.601C203.442 119.012 204.626 118.647 205.911 118.498C206.963 118.371 207.935 118.071 208.725 117.282C209.023 116.985 209.487 116.791 209.906 116.698C211.3 116.395 212.328 115.574 213.166 114.485C213.738 113.742 213.86 112.915 213.358 112.06C213.268 111.903 213.16 111.752 213.116 111.582C212.292 108.478 209.6 108.167 207.111 107.616C206.656 107.517 206.104 107.873 205.593 108.009C205.031 108.161 204.472 108.345 203.905 108.446C203.098 108.585 202.272 108.626 201.466 108.776C199.009 109.222 196.56 109.708 194.101 110.161C192.724 110.414 191.35 110.714 189.962 110.848C188.67 110.969 187.349 111.02 186.06 110.88C184.192 110.678 182.357 110.179 180.492 109.991C178.291 109.767 176.159 110.054 174.354 111.563C174.125 111.754 173.559 111.721 173.244 111.582C172.699 111.333 172.196 110.903 172.365 110.193C172.502 109.621 172.755 109.073 172.962 108.515C173.546 106.956 174.333 105.436 174.668 103.822C175.15 101.497 175.347 99.1233 173.71 97.0104C172.874 95.935 172.211 94.7265 171.471 93.5783C172.138 92.8463 172.749 92.2764 173.225 91.6067C173.462 91.2731 173.643 90.6665 173.496 90.3534C173.355 90.0585 172.746 89.8391 172.345 89.8388C170.945 89.836 169.551 89.9346 168.155 90.0127C165.182 90.18 162.21 90.3575 159.237 90.5415C159.03 90.5534 158.804 90.5779 158.633 90.6713C156.756 91.7027 154.723 92.5427 153.073 93.8577C151.739 94.9199 150.841 96.5387 149.789 97.9368C147.316 101.218 147.939 106.632 150.347 109.659C151.64 111.282 153.053 112.851 154.614 114.214C156.001 115.42 157.807 115.712 159.661 115.576C160.475 115.515 161.305 115.625 162.122 115.689C163.001 115.756 163.424 116.464 163.898 117.062C163.997 117.191 163.97 117.506 163.885 117.682C163.714 118.023 163.51 118.38 163.236 118.639C161.033 120.734 160.236 123.663 158.788 126.203C158.271 127.109 158.268 128.3 157.803 129.243C156.967 130.949 155.839 132.511 155.046 134.233C153.845 136.834 152.025 138.996 150.435 141.324C148.962 143.477 147.595 145.701 146.137 147.861C145.226 149.212 144.971 150.626 145.477 152.179L146.448 153.685L146.435 153.649ZM190.77 191.479C189.948 190.544 190.014 189.665 190.604 188.789C191.036 188.153 191.486 187.528 191.951 186.909C192.855 185.717 193.743 184.534 193.556 182.887C193.434 181.82 192.995 181.513 192.103 182.126C191.301 182.675 190.576 183.351 189.892 184.039C188.937 184.999 187.896 184.92 187.259 183.744C187.08 183.414 187.043 183.008 186.896 182.651C186.763 182.335 186.586 182.025 186.392 181.742C186.175 181.43 185.79 181.183 185.688 180.846C185.054 178.727 184.248 176.707 183.102 174.785C182.365 173.547 181.458 172.208 181.977 170.547C182.053 170.306 181.821 169.921 181.648 169.652C181.361 169.198 180.973 168.809 180.711 168.344C180.535 168.028 180.31 167.517 180.44 167.291C181.176 166.052 180.848 164.749 180.606 163.538C180.338 162.192 179.713 160.914 179.201 159.625C179.005 159.134 178.609 158.723 178.434 158.23C177.641 155.992 176.958 153.712 175.871 151.591C175.588 151.041 175.32 150.36 174.842 150.062C173.814 149.424 173.296 148.535 172.987 147.44C172.795 146.759 172.612 146.073 172.396 145.397C172.277 145.033 172.16 144.646 171.941 144.341C171.03 143.055 170.424 141.655 170.136 140.106C170.027 139.527 169.851 138.93 169.554 138.427C169.072 137.619 168.841 136.826 169.022 135.878C169.078 135.572 168.891 135.043 168.649 134.907C168.419 134.78 167.892 134.926 167.646 135.134C167.103 135.588 166.672 136.174 166.167 136.68C165.307 137.547 164.183 138.254 163.608 139.274C162.358 141.482 160.542 143.119 158.773 144.846C157.639 145.956 156.672 147.238 155.66 148.468C154.622 149.725 153.63 151.019 152.594 152.28C151.859 153.171 150.958 153.812 149.729 153.545C148.574 153.297 147.862 152.483 147.554 151.382C147.224 150.196 147.245 148.982 147.982 147.94C149.162 146.272 150.285 144.531 151.67 143.045C153.434 141.156 154.589 138.954 155.254 136.554C156.149 133.325 158.008 130.73 159.988 128.151C160.593 127.366 161.035 126.448 161.5 125.565C162.642 123.376 163.538 121.027 164.933 119.017C166.407 116.884 166.072 113.598 162.458 113.429C162.283 113.421 162.099 113.418 161.925 113.387C160.961 113.231 159.972 113.156 159.036 112.889C157.577 112.479 156.179 111.82 154.6 111.966C154.399 111.985 154.118 111.857 153.973 111.709C153.396 111.105 152.714 110.542 152.344 109.822C151.637 108.46 151.114 107.001 150.525 105.574C150.391 105.247 150.162 104.899 150.182 104.572C150.323 102.009 150.592 99.6007 152.414 97.4262C153.614 95.9934 154.852 94.7999 156.376 93.7755C158.022 92.6671 159.754 91.8554 161.736 91.764C163.43 91.687 165.13 91.7885 166.827 91.8361C168.458 91.8826 168.739 92.2248 169.329 93.7286C170.123 95.7556 171.104 97.6959 173.073 98.9236C173.43 99.1452 173.83 99.6537 173.832 100.032C173.843 101.39 173.844 102.783 173.564 104.098C173.233 105.659 172.568 107.111 171.572 108.441C170.322 110.104 170.425 111.425 171.697 112.391C172.667 113.127 173.782 113.108 174.943 112.835C176.791 112.4 178.66 112.057 180.52 111.681C180.66 111.651 180.823 111.656 180.958 111.696C182.954 112.24 184.953 112.567 187.039 112.227C188.621 111.969 190.259 112.017 191.827 111.701C193.167 111.434 194.428 111.112 195.73 111.783C195.953 111.899 196.258 111.885 196.523 111.895C200.027 112.031 203.271 111.022 206.431 109.65C206.856 109.465 207.341 109.202 207.765 109.254C209.227 109.431 210.622 109.905 211.708 110.951C212.723 111.928 212.534 113.829 211.358 114.547C210.398 115.132 209.408 115.653 208.181 115.584C207.559 115.549 206.873 115.748 206.291 116.006C204.463 116.814 202.301 116.762 200.702 118.165C200.599 118.254 200.423 118.262 200.278 118.301C198.535 118.789 196.765 119.168 194.996 119.546C192.759 120.027 190.644 121.107 188.511 122.006C187.089 122.607 187.062 123.231 188.17 124.302C189.064 125.169 189.857 126.134 190.71 127.039C191.047 127.4 191.422 127.726 191.788 128.063C192.283 128.516 193.097 128.89 193.228 129.427C193.711 131.38 195.223 132.053 196.805 132.715C197.106 132.841 197.464 132.892 197.698 133.093C199.126 134.311 200.625 135.466 201.914 136.817C203.443 138.422 204.82 140.14 206.001 142.084C207.16 143.992 208.993 145.539 210.712 147.037C211.633 147.843 212.638 148.506 213.239 149.618C213.393 149.899 213.625 150.157 213.871 150.367C215.02 151.357 216.275 152.245 217.328 153.324C219.863 155.917 222.313 158.591 224.806 161.249C223.982 161.779 223.095 162.323 222.235 162.909C220.459 164.123 220.258 164.528 220.664 165.891C222.457 165.678 224.253 165.459 226.044 165.26C227.101 165.141 228.114 165.254 229.124 166.086C228.801 166.542 228.565 167.14 228.129 167.436C226.133 168.77 224.047 169.963 222.066 171.31C219.926 172.77 218.299 172.583 216.743 170.528C216.034 169.591 215.291 168.72 214.124 168.309C213.804 168.196 213.518 167.94 213.249 167.71C211.043 165.859 208.852 163.987 206.631 162.162C206.107 161.734 205.575 161.36 205.58 160.608C205.59 159.429 204.875 158.832 203.952 158.253C202.778 157.516 201.661 156.671 200.624 155.752C199.432 154.697 198.302 153.618 196.624 153.387C195.755 153.268 195.048 152.837 194.385 152.218C193.858 151.725 193.106 151.471 192.448 151.107C191.654 153.231 192.166 155.049 192.84 156.862C194.019 160.024 195.12 163.208 195.48 166.583C195.609 167.773 196.014 168.811 196.55 169.865C197.112 170.968 197.624 172.137 197.907 173.336C198.366 175.277 198.609 177.251 199.696 179.013C200.068 179.616 200.231 180.535 200.095 181.229C199.874 182.329 199.772 183.391 199.926 184.492C199.953 184.679 199.913 184.941 199.796 185.066C199.177 185.745 198.611 186.506 197.873 187.025C196.005 188.343 194.059 189.556 192.129 190.787C191.689 191.07 191.187 191.255 190.776 191.454L190.77 191.479Z" fill="white"/>
        <path d="M269.492 70.8782C270.942 71.4043 272.379 71.5403 273.829 70.8495C274.931 70.324 275.734 69.4752 276.19 68.4003C276.936 66.6333 278.135 65.0646 278.417 63.0776C278.503 62.4828 279.124 61.9857 279.403 61.3968C279.874 60.4058 280.277 59.3826 280.697 58.374C280.958 57.7475 281.198 57.1101 281.445 56.472C281.75 55.6731 282.013 54.8523 282.363 54.0716C282.994 52.6689 283.617 51.2538 284.367 49.9107C284.7 49.3127 285.308 49.5175 285.716 49.9937C286.259 50.6265 286.747 51.3045 287.287 51.9409C287.748 52.4837 288.245 52.9964 288.736 53.5163C288.859 53.6447 289.024 53.7421 289.132 53.882C290.281 55.4237 291.42 56.9697 292.557 58.5192C292.75 58.7815 292.901 59.0811 293.115 59.3247C294.6 60.9884 296.12 62.6154 297.569 64.3093C298.12 64.9544 298.481 65.7612 298.986 66.4473C299.454 67.0783 300 67.6547 300.522 68.2405C300.93 68.7001 301.391 69.118 301.763 69.6078C302.539 70.6236 303.262 71.6745 304.017 72.709C304.508 73.3835 304.991 74.0622 305.521 74.7029C307.021 76.5031 308.541 78.2782 310.053 80.0706C310.669 80.7976 311.272 81.5324 311.878 82.2637C312.961 83.5624 314.05 84.854 315.118 86.1707C315.772 86.9759 316.405 87.7997 317.023 88.635C317.981 89.9339 319.037 90.0185 320.213 88.8701C320.566 88.5199 320.924 88.1726 321.45 87.6526C320.197 90.3946 320.245 91.7085 321.592 94.6204C323.062 94.789 324.334 94.4889 325.257 93.2029C325.595 92.7327 326.081 92.365 326.504 91.9515L329.086 88.7485C329.63 87.4241 330.351 86.242 331.668 85.5456L332.455 84.5703C332.439 84.5457 332.406 84.5195 332.407 84.4964C332.519 82.5274 331.425 81.1015 330.327 79.6301C328.87 77.674 327.51 75.6483 326.142 73.6333C325.844 73.198 325.712 72.6464 325.429 72.1996C325.036 71.5805 324.576 71.008 324.137 70.4233C323.732 69.8843 323.266 69.3848 322.921 68.8164C322.429 68.0105 322.038 67.1444 321.573 66.3191C320.648 64.6844 319.705 63.0649 318.758 61.4424C318.596 61.1637 318.424 60.8532 318.173 60.6694C317.016 59.8094 316.42 58.5936 315.872 57.2509C317.764 57.9074 319.594 58.5968 321.458 59.1709C322.793 59.5809 324.195 59.7602 325.528 60.1803C329.371 61.3917 333.145 62.7914 336.688 64.7584C336.894 64.8712 337.123 65.0376 337.337 65.0377C339.621 65.0242 341.335 66.4925 343.278 67.3442C344.888 68.0472 345.838 67.9096 346.786 66.4237C347.773 64.8744 348.618 63.2219 349.702 61.751C350.612 60.5191 351.801 59.4942 352.829 58.3452C353.199 57.9307 353.566 57.4672 353.765 56.9625C354.127 56.0258 353.787 55.4373 352.958 54.9008C351.189 53.7443 349.534 54.1151 347.891 55.1424C347.613 55.3167 347.339 55.4939 347.058 55.6653C347.015 55.6897 346.953 55.6931 346.962 55.6888C347.448 54.7389 347.955 53.7639 348.443 52.7744C348.727 52.2014 348.53 51.6994 347.938 51.5785C345.487 51.0835 343.504 49.5651 341.275 48.6255C337.842 47.1796 334.695 45.1637 331.193 43.8699C329.817 43.3622 328.672 42.2741 327.336 41.6207C324.717 40.3378 322.02 39.2114 319.39 37.943C317.701 37.1299 316.101 36.133 314.42 35.2961C312.79 34.4833 311.111 33.7843 309.462 33.0097C307.87 32.262 306.269 31.5251 304.714 30.701C304.092 30.3727 303.621 29.7684 303.021 29.3918C302.589 29.122 302.059 28.9977 301.564 28.8368C301.256 28.7315 300.934 28.6738 300.619 28.5923C300.728 28.1761 300.761 27.7154 300.975 27.3603C301.179 27.0195 301.553 26.7625 301.881 26.5169C303.34 25.4239 304.616 24.0773 306.616 23.8538C308.689 23.6228 310.324 22.4055 311.744 20.9844C312.67 20.0566 313.678 19.3372 314.851 18.7911C315.809 18.3402 316.637 17.7485 317.138 16.7511C317.327 16.3756 317.706 16.0457 318.074 15.8256C319.302 15.0991 320.019 13.9964 320.47 12.6984C320.779 11.8135 320.634 10.9903 319.887 10.3365C319.753 10.216 319.602 10.107 319.507 9.95931C317.747 7.27251 315.094 7.8254 312.557 8.08628C312.095 8.13561 311.683 8.64665 311.24 8.93728C310.755 9.25879 310.283 9.60852 309.776 9.883C309.054 10.2692 308.283 10.5686 307.566 10.9642C305.375 12.1618 303.204 13.3935 301.013 14.5976C299.786 15.2713 298.577 15.9891 297.301 16.5529C296.113 17.0743 294.876 17.5386 293.609 17.812C291.772 18.2087 289.873 18.3127 288.044 18.7217C285.884 19.2023 283.952 20.1453 282.714 22.1457C282.557 22.3992 282.01 22.5464 281.667 22.5139C281.071 22.4493 280.458 22.199 280.395 21.4722C280.344 20.8856 280.411 20.2864 280.432 19.6921C280.495 18.0277 280.762 16.3381 280.571 14.7008C280.295 12.3423 279.733 10.0275 277.513 8.53761C276.381 7.7803 275.37 6.84224 274.305 5.98555C274.708 5.08087 275.108 4.34735 275.349 3.56188C275.468 3.17094 275.448 2.5382 275.21 2.28732C274.984 2.05165 274.337 2.0352 273.955 2.16143C272.627 2.59928 271.335 3.13189 270.034 3.64569C267.265 4.74047 264.501 5.84466 261.738 6.95535C261.545 7.03181 261.338 7.12627 261.205 7.26871C259.749 8.83845 258.085 10.2759 256.934 12.0433C256.003 13.4716 255.66 15.2908 255.103 16.9488C253.791 20.8418 256.09 25.7834 259.33 27.8979C261.069 29.0312 262.905 30.0753 264.816 30.8777C266.513 31.5847 268.319 31.2933 270.036 30.5805C270.789 30.2666 271.611 30.1097 272.406 29.913C273.262 29.7 273.887 30.2385 274.525 30.6571C274.66 30.748 274.733 31.056 274.708 31.2494C274.654 31.6269 274.573 32.0303 274.395 32.3617C272.964 35.0438 273.133 38.0749 272.559 40.9418C272.354 41.9636 272.727 43.0947 272.583 44.1362C272.327 46.0187 271.75 47.8564 271.54 49.7405C271.221 52.5868 270.176 55.2113 269.4 57.9221C268.682 60.4295 268.086 62.9699 267.384 65.4787C266.945 67.0484 267.15 68.4706 268.119 69.7848L269.515 70.9086L269.492 70.8782ZM323.5 92.8214C322.424 92.1929 322.21 91.3376 322.494 90.3205C322.703 89.5811 322.933 88.8462 323.179 88.1127C323.661 86.6963 324.13 85.2943 323.433 83.7899C322.982 82.8152 322.468 82.6628 321.814 83.5253C321.227 84.2985 320.752 85.1682 320.319 86.0366C319.717 87.2488 318.704 87.5017 317.729 86.5862C317.454 86.3293 317.291 85.9553 317.039 85.6632C316.813 85.4044 316.547 85.1664 316.274 84.9587C315.969 84.7313 315.526 84.6175 315.323 84.33C314.053 82.5184 312.65 80.8557 310.957 79.3919C309.867 78.4492 308.584 77.4645 308.553 75.7245C308.548 75.4717 308.207 75.1793 307.958 74.9789C307.542 74.6384 307.051 74.3915 306.657 74.0324C306.39 73.7879 306.015 73.3739 306.067 73.1185C306.375 71.7107 305.652 70.5774 305.042 69.5045C304.362 68.3108 303.366 67.2955 302.473 66.233C302.133 65.8285 301.627 65.5635 301.305 65.1505C299.847 63.2768 298.479 61.3275 296.78 59.6571C296.337 59.2241 295.868 58.6624 295.32 58.5301C294.144 58.2479 293.372 57.5672 292.733 56.6256C292.336 56.0397 291.946 55.4466 291.528 54.8728C291.3 54.5649 291.067 54.2346 290.763 54.0138C289.492 53.0804 288.476 51.9423 287.714 50.5632C287.427 50.0478 287.072 49.5365 286.632 49.1526C285.92 48.5378 285.451 47.8577 285.324 46.901C285.28 46.5931 284.936 46.1497 284.663 46.0966C284.404 46.0485 283.95 46.3535 283.783 46.628C283.41 47.2302 283.186 47.9219 282.867 48.5611C282.324 49.6551 281.48 50.6793 281.256 51.8281C280.766 54.3177 279.559 56.4431 278.425 58.6396C277.699 60.0492 277.186 61.5709 276.613 63.0563C276.024 64.5762 275.491 66.1166 274.905 67.6395C274.489 68.7167 273.835 69.6087 272.586 69.7422C271.411 69.8708 270.479 69.3224 269.839 68.3743C269.152 67.3524 268.789 66.1939 269.16 64.9734C269.754 63.0188 270.27 61.0132 271.116 59.1664C272.194 56.818 272.596 54.3642 272.47 51.8778C272.301 48.5311 273.247 45.483 274.312 42.4124C274.638 41.4763 274.769 40.4658 274.932 39.4814C275.325 37.0448 275.434 34.5334 276.124 32.187C276.851 29.6984 275.496 26.6855 272.013 27.6624C271.844 27.7101 271.669 27.765 271.494 27.7902C270.53 27.9458 269.568 28.1866 268.595 28.228C267.081 28.2974 265.546 28.1126 264.094 28.7478C263.909 28.8301 263.602 28.797 263.418 28.7016C262.68 28.31 261.855 27.9902 261.277 27.4237C260.176 26.3538 259.22 25.1336 258.21 23.9651C257.98 23.697 257.653 23.4392 257.569 23.1225C256.895 20.6454 256.39 18.2751 257.433 15.6377C258.12 13.9001 258.919 12.3774 260.042 10.9254C261.254 9.35538 262.642 8.03958 264.495 7.32877C266.078 6.72227 267.723 6.28359 269.349 5.79427C270.911 5.3249 271.286 5.5612 272.32 6.80269C273.714 8.47613 275.257 10.0086 277.512 10.554C277.921 10.6518 278.46 11.0087 278.582 11.3674C279.021 12.6526 279.461 13.9739 279.61 15.3099C279.789 16.8959 279.616 18.4833 279.089 20.0591C278.428 22.0309 278.942 23.2521 280.454 23.7684C281.606 24.1618 282.659 23.7928 283.675 23.168C285.292 22.1731 286.957 21.2586 288.603 20.3165C288.727 20.2441 288.883 20.1978 289.024 20.1926C291.09 20.0807 293.09 19.762 294.962 18.7826C296.383 18.0389 297.952 17.5688 299.34 16.7759C300.528 16.0999 301.624 15.3974 303.071 15.6245C303.319 15.6638 303.603 15.5545 303.859 15.4812C307.226 14.5067 309.988 12.5279 312.553 10.2312C312.898 9.9214 313.276 9.51928 313.695 9.4351C315.138 9.14289 316.611 9.15342 317.973 9.80408C319.244 10.4117 319.664 12.2746 318.774 13.3268C318.047 14.1839 317.272 14.9902 316.085 15.3109C315.484 15.4738 314.896 15.8786 314.426 16.3071C312.945 17.6492 310.877 18.2811 309.802 20.1161C309.732 20.2321 309.568 20.2957 309.442 20.3782C307.942 21.3902 306.382 22.3066 304.822 23.223C302.851 24.384 301.185 26.0749 299.444 27.5994C298.284 28.6179 298.454 29.218 299.844 29.8854C300.967 30.4267 302.023 31.0934 303.118 31.6838C303.552 31.9203 304.011 32.1115 304.465 32.3163C305.077 32.5897 305.967 32.6888 306.262 33.1573C307.336 34.8583 308.983 35.0212 310.693 35.1512C311.018 35.1756 311.374 35.1114 311.66 35.2289C313.399 35.9346 315.186 36.5596 316.835 37.4361C318.792 38.4771 320.641 39.6743 322.375 41.147C324.077 42.5935 326.304 43.4839 328.408 44.3645C329.537 44.8394 330.7 45.1527 331.621 46.0182C331.855 46.2365 332.157 46.4082 332.457 46.5308C333.86 47.108 335.331 47.5562 336.67 48.2486C339.894 49.911 343.062 51.6778 346.267 53.4145C345.652 54.1775 344.981 54.9727 344.35 55.7998C343.048 57.5111 342.985 57.9586 343.8 59.1247C345.435 58.3581 347.07 57.585 348.706 56.8314C349.672 56.3863 350.67 56.1745 351.89 56.6462C351.727 57.18 351.692 57.8218 351.372 58.2408C349.899 60.1348 348.296 61.9242 346.84 63.8261C345.269 65.885 343.666 66.2206 341.541 64.76C340.573 64.0937 339.593 63.501 338.356 63.4784C338.016 63.472 337.664 63.3188 337.337 63.186C334.659 62.1232 331.989 61.0366 329.306 60.0041C328.673 59.7624 328.051 59.5756 327.818 58.8604C327.456 57.738 326.589 57.3963 325.53 57.1377C324.184 56.8077 322.857 56.3573 321.583 55.8124C320.119 55.1859 318.706 54.5177 317.041 54.827C316.179 54.988 315.372 54.8012 314.547 54.4222C313.892 54.1204 313.098 54.1164 312.358 53.9782C312.276 56.2434 313.335 57.8079 314.546 59.3166C316.662 61.9457 318.712 64.6214 320.118 67.7112C320.615 68.7994 321.327 69.6575 322.168 70.4887C323.05 71.3584 323.903 72.3066 324.551 73.3558C325.598 75.0531 326.452 76.8499 328.039 78.1804C328.582 78.6355 329.027 79.4564 329.117 80.1573C329.254 81.2708 329.492 82.311 329.986 83.3076C330.07 83.4762 330.115 83.7379 330.043 83.8935C329.67 84.7326 329.373 85.6327 328.836 86.3577C327.479 88.1965 326.014 89.9612 324.571 91.7368C324.243 92.1435 323.825 92.4776 323.497 92.7954L323.5 92.8214Z" fill="white"/>
    </g>
    <defs>
        <clipPath id="clip0_729_2231">
            <rect width="355" height="242" fill="white"/>
        </clipPath>
    </defs>
</svg>
