<svg width="48" height="43" viewBox="0 0 48 43" fill="none" xmlns="http://www.w3.org/2000/svg">
<path fill-rule="evenodd" clip-rule="evenodd" d="M9.87586 3.0159C14.1992 0.362937 19.2143 0.330947 23.7076 0.620836C24.4699 0.670016 25.2099 0.883323 25.781 1.04795L25.7926 1.0513C26.4205 1.23226 26.8808 1.36497 27.3175 1.41128C28.7428 1.56244 29.7618 1.87835 30.8747 2.22339C31.115 2.29788 31.3596 2.37372 31.6137 2.44955C31.8275 2.51337 32.1125 2.56516 32.501 2.61904C32.6187 2.63536 32.7559 2.65305 32.9026 2.67195C33.1784 2.7075 33.4877 2.74735 33.763 2.79052C34.5902 2.92025 35.7993 3.16292 36.6827 3.97568C36.9139 4.18838 37.1612 4.40131 37.4346 4.63683L37.4801 4.67603C37.7266 4.8883 37.9921 5.11768 38.2553 5.35865C38.869 5.12745 39.5953 4.91388 40.3045 4.76043C40.8991 4.63177 41.5368 4.53298 42.1441 4.50698C42.7216 4.48225 43.4113 4.51577 44.0286 4.75671C45.2505 5.23365 45.9361 6.25321 46.3388 7.04763C46.548 7.46029 46.7113 7.87396 46.8412 8.22011C46.8892 8.34816 46.9304 8.46016 46.9673 8.56061C47.0404 8.75959 47.0968 8.91326 47.1573 9.05663C47.9268 10.8812 47.3132 12.5735 46.2509 13.8009C45.223 14.9885 43.6956 15.8734 42.1526 16.4154C41.9506 16.4864 41.7437 16.5115 41.5431 16.4964C41.5376 16.5766 41.5314 16.6561 41.5243 16.7348C41.4426 17.6332 41.1233 18.4669 40.8015 19.1561C40.5939 19.6006 40.3355 20.0813 40.1165 20.4887C40.0135 20.6803 39.9192 20.8557 39.843 21.0035C39.6948 21.291 39.6066 21.5194 39.4958 21.8061C39.4407 21.9486 39.3801 22.1055 39.3037 22.2912C39.2733 22.3654 39.2414 22.4409 39.2075 22.5176C39.4754 22.4811 39.7152 22.5075 39.8983 22.5463C40.3749 22.6473 40.775 22.898 41.0216 23.0734C41.2981 23.27 41.549 23.4944 41.7441 23.6913C41.9027 23.8515 42.142 24.1101 42.2914 24.3803C42.3647 24.5128 42.5028 24.6866 42.7704 24.9934C42.7913 25.0173 42.8132 25.0424 42.8362 25.0685C43.0575 25.3212 43.366 25.6733 43.6059 26.0461C43.8713 26.4586 44.1833 26.8528 44.5483 27.3141C44.6421 27.4328 44.7395 27.5558 44.8404 27.6848C45.301 28.2728 45.826 28.9721 46.2054 29.7563C46.5751 30.5202 46.5165 31.3131 46.4538 31.7976C46.424 32.0279 46.3822 32.2572 46.3494 32.4372C46.3454 32.4592 46.3415 32.4806 46.3378 32.5011C46.2996 32.7115 46.2781 32.8436 46.2692 32.9455C46.1832 33.9301 45.9698 34.8325 45.7115 35.7091C45.5036 36.4147 45.0438 36.9055 44.7164 37.2099C44.5445 37.3697 44.3671 37.5152 44.2241 37.6316C44.2071 37.6455 44.1906 37.6589 44.1745 37.672C44.0441 37.7781 43.944 37.8595 43.8513 37.9417C43.6715 38.1009 43.4906 38.2617 43.3085 38.4235C42.3659 39.2614 41.3923 40.1267 40.38 40.952L40.3685 40.9613C40.3522 40.9747 40.3354 40.9884 40.3184 41.0023C40.0478 41.2235 39.6901 41.516 39.2535 41.7225C38.7389 41.9658 38.2113 42.0544 37.6181 42.0717C36.1571 42.1144 34.6488 42.102 33.1757 42.0898C32.2792 42.0824 31.3957 42.0751 30.5438 42.0804C29.5253 42.0868 28.5018 42.1834 27.4017 42.2872L27.3846 42.2888C26.301 42.3911 25.1406 42.5002 23.9666 42.5002C23.2649 42.5002 22.4251 42.3914 21.7512 42.304C21.4831 42.2693 21.2413 42.238 21.0449 42.2182C18.696 41.9822 16.2797 41.6692 13.9349 41.1395L13.8744 41.1258C12.6263 40.8438 11.644 40.6275 10.5497 40.6275C9.6385 40.6275 8.79414 40.3711 8.18722 40.1868C8.03641 40.141 7.90026 40.0997 7.78139 40.0678C7.65427 40.0338 7.51844 39.9993 7.37569 39.9631C6.40086 39.7158 5.10354 39.3866 4.0564 38.545C2.75528 37.4991 1.92032 36.2396 1.30595 34.9698C1.07238 34.487 0.784186 33.8512 0.625241 33.1651C0.464293 32.4704 0.408162 31.608 0.768506 30.739C0.96787 30.2583 1.19471 29.795 1.39832 29.379L1.42181 29.3311C1.63872 28.8879 1.82951 28.495 1.98981 28.1008C2.30661 27.322 2.89953 26.236 3.70941 25.2967C4.39414 24.5025 5.39938 23.6232 6.68308 23.3329C6.56085 23.1118 6.44196 22.8866 6.32708 22.6568C5.37948 20.7616 5.04065 18.7488 4.9242 16.8177C4.84518 15.5071 4.86752 14.136 4.88844 12.8527C4.89758 12.2915 4.90645 11.7471 4.90645 11.2319C4.90645 11.1403 4.91467 11.0506 4.93039 10.9635C4.91467 10.8765 4.90645 10.7868 4.90645 10.6952C4.90645 10.3194 4.97688 9.95527 5.08536 9.61439C5.08698 9.25914 5.21407 8.90313 5.47042 8.6183C5.50802 8.57651 5.54744 8.53733 5.58845 8.50077C5.67283 8.35339 5.75688 8.21734 5.83521 8.09456C6.05187 7.75493 6.28481 7.42933 6.48175 7.15464L6.48708 7.14721C6.69324 6.85966 6.84921 6.64212 6.96636 6.45629C7.08427 6.26925 7.19836 6.07213 7.31624 5.86846C7.8523 4.94226 8.46678 3.88056 9.87586 3.0159ZM7.89735 12.3664C7.9342 12.3889 7.97064 12.4111 8.00674 12.4332C8.30745 12.6168 8.58433 12.7859 8.88076 12.9813C9.68152 13.509 10.7284 14.1785 11.8512 14.7232C12.9537 15.258 14.2612 15.7391 15.5716 15.7727C16.4329 15.7948 17.3071 15.8259 18.191 15.8573C22.2509 16.0016 26.5169 16.1532 30.6802 15.4755C31.1454 15.3997 31.502 15.3263 31.8109 15.2627C32.3938 15.1427 32.8072 15.0576 33.4607 15.0576C35.1389 15.0576 36.5983 14.6801 38.0402 14.1652C38.2292 14.0977 38.4038 13.9983 38.5448 13.9054C38.5487 14.1371 38.5545 14.3569 38.5602 14.5686C38.5781 15.2419 38.5939 15.833 38.5366 16.4632C38.5011 16.8536 38.3483 17.3192 38.0833 17.8868C37.9074 18.2634 37.7296 18.5928 37.5385 18.947C37.4235 19.1602 37.3036 19.3823 37.1764 19.6289C36.9504 20.0675 36.7725 20.5269 36.6412 20.8657C36.599 20.9749 36.5615 21.0715 36.5289 21.1509C36.3795 21.5146 36.2396 21.7829 35.9993 22.0633C35.8652 22.2198 35.7211 22.3834 35.5707 22.5542C34.8154 23.412 33.9007 24.4508 33.2919 25.6685C32.8705 26.5112 32.5142 27.3755 32.1794 28.1877C32.0712 28.4501 31.9653 28.7071 31.8601 28.9562C31.8316 29.0239 31.7035 29.2071 31.3154 29.5076C31.139 29.6442 30.9446 29.7788 30.7294 29.9241C30.6914 29.9497 30.6518 29.9764 30.611 30.0037C30.4377 30.1203 30.2445 30.2501 30.0749 30.3732C28.4817 31.5296 26.978 31.9159 24.8733 31.9159C24.1425 31.9159 23.4554 31.6775 22.5365 31.3025C22.4599 31.2712 22.3809 31.2386 22.2997 31.2051C21.4844 30.8686 20.443 30.4387 19.2877 30.3232C19.1347 30.3079 18.8526 30.19 18.3494 29.9235C16.8335 29.121 15.3556 28.0116 13.8503 26.8817C13.7696 26.8211 13.6887 26.7604 13.6078 26.6997C13.1753 26.3753 12.6886 26.156 12.4134 26.032C12.3592 26.0076 12.3133 25.9869 12.2775 25.9698C12.0198 25.8466 11.952 25.7854 11.8899 25.7007C11.8264 25.6141 11.7633 25.5283 11.7007 25.443C10.6554 24.0191 9.73674 22.7679 9.01036 21.3152C8.31502 19.9245 8.02272 18.3612 7.91877 16.6372C7.84673 15.4425 7.86626 14.2688 7.88661 13.0457C7.89035 12.8211 7.89412 12.5948 7.89735 12.3664ZM38.0517 10.2219C37.9027 9.83968 37.7119 9.44599 37.4693 9.01287C37.2225 8.57211 36.8409 8.14075 36.3297 7.66389C36.0765 7.42778 35.8091 7.19618 35.5222 6.949L35.467 6.90148C35.2031 6.67422 34.9205 6.4309 34.6516 6.18347C34.4964 6.04068 34.1231 5.88368 33.2982 5.7543C33.0537 5.71595 32.832 5.68761 32.5926 5.657C32.436 5.63697 32.2719 5.61598 32.0888 5.59059C31.6756 5.53328 31.2007 5.45708 30.7556 5.32421C30.4461 5.23184 30.1677 5.14596 29.9099 5.06647C28.8308 4.73364 28.1142 4.5126 27.0011 4.39455C26.2949 4.31965 25.6045 4.11988 25.062 3.96293C25.0259 3.95247 24.9904 3.9422 24.9556 3.93217C24.3396 3.7546 23.9034 3.63971 23.5145 3.61461C19.0708 3.32793 14.9036 3.45048 11.4449 5.57287C10.7236 6.01546 10.5176 6.36429 10.0468 7.16135C9.89966 7.41037 9.72671 7.70314 9.50414 8.05619C9.3379 8.31987 9.13466 8.60321 8.95343 8.85587C8.94216 8.87158 8.93097 8.88718 8.91988 8.90265C8.82409 9.03625 8.73144 9.16589 8.64264 9.29327C8.7275 9.34871 8.8147 9.4046 8.90422 9.46113C9.07828 9.57106 9.27957 9.6944 9.49028 9.8235C9.83856 10.0369 10.2126 10.266 10.5317 10.4764C11.3156 10.9931 12.2253 11.5703 13.1605 12.024C14.1161 12.4875 14.9682 12.7563 15.6485 12.7737C16.5751 12.7975 17.4937 12.8297 18.4051 12.8616C22.4512 13.0032 26.3557 13.14 30.1982 12.5144C30.4233 12.4778 30.6654 12.4287 30.9239 12.3762C31.645 12.2299 32.494 12.0576 33.4607 12.0576C34.6316 12.0576 35.7016 11.8075 36.9268 11.3769C36.9365 11.3698 36.9479 11.3612 36.961 11.3511C37.0487 11.2834 37.1632 11.1849 37.2845 11.0701C37.4052 10.956 37.5143 10.8431 37.5939 10.7524C37.6264 10.7154 37.6486 10.6882 37.6621 10.6708C37.7635 10.4917 37.897 10.3408 38.0517 10.2219ZM36.8857 11.4058C36.8801 11.4093 36.8809 11.4085 36.8876 11.4045L36.8857 11.4058ZM8.3194 25.8929C8.09072 26.0848 7.80267 26.2105 7.48261 26.2376C7.10627 26.2694 6.57727 26.5647 5.98149 27.2557C5.41646 27.911 4.98267 28.7052 4.76875 29.2311C4.56363 29.7354 4.32775 30.218 4.11638 30.6499L4.10954 30.6639C3.89361 31.105 3.70274 31.495 3.53967 31.8882C3.50101 31.9815 3.47063 32.1548 3.54784 32.4881C3.62705 32.83 3.78943 33.2146 4.00648 33.6632C4.49246 34.6677 5.08215 35.5205 5.93588 36.2067C6.44037 36.6122 7.0437 36.7709 8.08068 37.0437C8.23035 37.0831 8.38906 37.1248 8.5578 37.17C8.86995 37.2537 9.11846 37.328 9.32966 37.3912C9.82898 37.5405 10.1197 37.6275 10.5497 37.6275C12.0045 37.6275 13.2841 37.9167 14.4766 38.1863L14.5357 38.1996L14.596 38.2132C16.767 38.7037 19.0448 39.0022 21.3448 39.2333C21.7355 39.2725 22.0827 39.3184 22.4046 39.361C22.9702 39.4358 23.4578 39.5002 23.9666 39.5002C24.977 39.5002 25.9992 39.4063 27.1027 39.3021L27.1779 39.295C28.2372 39.195 29.3735 39.0877 30.5251 39.0805C31.4758 39.0746 32.3958 39.0825 33.3032 39.0904C34.7205 39.1026 36.1068 39.1146 37.5305 39.073C37.86 39.0634 37.9472 39.0218 37.9694 39.0112L37.971 39.0104C38.041 38.9773 38.1238 38.9208 38.4728 38.6362L38.4843 38.6268C39.4427 37.8455 40.3607 37.0297 41.3034 36.192C41.4885 36.0275 41.6746 35.8621 41.8621 35.696C42.0056 35.5689 42.1579 35.4451 42.2818 35.3443C42.2983 35.331 42.3142 35.318 42.3296 35.3055C42.4731 35.1886 42.5815 35.0985 42.6737 35.0127C42.786 34.9083 42.8297 34.8499 42.8425 34.8317C43.0654 34.0713 43.2192 33.3875 43.2805 32.6846C43.3031 32.4256 43.3499 32.1644 43.3859 31.966C43.3898 31.9444 43.3936 31.9233 43.3973 31.9028C43.432 31.7121 43.4594 31.5615 43.4786 31.4129C43.5118 31.1559 43.4963 31.0567 43.495 31.0425C43.2673 30.5786 42.9235 30.1027 42.4785 29.5345C42.4018 29.4365 42.3209 29.3344 42.2372 29.2288C41.8642 28.7582 41.4362 28.2182 41.0831 27.6695C40.9687 27.4917 40.804 27.3028 40.5368 26.9966L40.507 26.9624C40.2813 26.7036 39.9537 26.328 39.7064 25.9031C39.6862 25.8795 39.6547 25.8449 39.6126 25.8025C39.5577 25.747 39.497 25.6905 39.4357 25.6382C39.0831 25.7015 38.7069 25.6395 38.3788 25.4354C38.0669 25.2414 37.851 24.9516 37.7453 24.6279C37.7438 24.6296 37.7423 24.6313 37.7408 24.633C36.9974 25.4826 36.3941 26.1723 35.9751 27.0101C35.6069 27.7466 35.3095 28.4678 34.9859 29.2524C34.8701 29.5333 34.7509 29.8224 34.6239 30.1231C34.2824 30.932 33.6322 31.5079 33.1521 31.8796C32.8944 32.0792 32.6323 32.259 32.4083 32.4103C32.3564 32.4453 32.3075 32.4782 32.2611 32.5094C32.0934 32.6223 31.9587 32.7128 31.8371 32.8011C29.6219 34.4089 27.4607 34.9159 24.8733 34.9159C23.4958 34.9159 22.3214 34.4549 21.403 34.0801C21.3435 34.0558 21.2852 34.032 21.2279 34.0085C20.3296 33.6411 19.6865 33.378 18.9892 33.3083C18.1748 33.2269 17.3911 32.8112 16.9859 32.5962C16.972 32.5888 16.9587 32.5817 16.9457 32.5749C15.2126 31.6573 13.5573 30.4139 12.1001 29.3192C12.0018 29.2453 11.9043 29.1721 11.8078 29.0997C11.6617 28.9901 11.547 28.9375 11.3177 28.8323C11.2271 28.7908 11.1187 28.741 10.9833 28.6763C10.5456 28.467 9.96043 28.1427 9.47066 27.4748C9.39702 27.3744 9.32302 27.2737 9.24877 27.1727C8.94089 26.7537 8.62864 26.3288 8.3194 25.8929ZM41.5404 13.4412C42.5921 13.0185 43.461 12.4401 43.9825 11.8376C44.5315 11.2033 44.5949 10.701 44.3931 10.2224C44.3041 10.0114 44.2086 9.75163 44.1226 9.5178C44.091 9.4318 44.0606 9.34931 44.0324 9.27402C43.914 8.95846 43.7965 8.66748 43.6629 8.404C43.3802 7.84611 43.1325 7.62736 42.9378 7.55138C42.8916 7.53334 42.69 7.48635 42.2724 7.50423C41.8846 7.52083 41.4233 7.58776 40.9389 7.69258C40.7031 7.74359 40.4743 7.80077 40.2579 7.86075C41.2758 9.77983 41.5404 11.2987 41.5404 13.3986C41.5404 13.4127 41.5404 13.4269 41.5404 13.4412Z" fill="#EA5A24"/>
</svg>
