<svg width="24" height="24" viewBox="0 0 24 24" fill="none" xmlns="http://www.w3.org/2000/svg">
<path d="M14.4998 14.3139C13.9949 14.9128 13.957 15.1025 13.5 15.5003C13.1422 15.8118 12.9431 16.0277 12.4944 16.1817C12.1917 16.2857 11.9675 16.3067 11.6844 16.3067C11.1255 16.3067 10.572 16.1236 10.0554 15.8853C9.42269 15.5935 8.64863 15.0064 8.48362 14.0889C8.36218 13.4138 8.33216 13.0976 8.5 12.5003C8.6637 11.9177 9.02544 11.5624 9.28458 11.164C9.52019 10.8018 9.71926 10.407 10.0554 10.1855C10.2799 10.0376 10.3241 10.0668 10.5 10.0003C11.029 9.80019 11.4565 9.64447 11.8988 9.62476C12.1976 9.61145 12.5343 9.61009 12.6645 9.62476C13.02 9.66479 13.5 10.0003 13.5 10.0003C13.5 10.0003 13.8666 10.2138 14.2017 10.489C14.8622 11.0313 15.4161 11.6769 15.2165 12.7425C15.092 13.4071 14.912 13.8251 14.4998 14.3139Z" fill="#EA5A24" stroke="#EA5A24" stroke-width="2" stroke-linecap="round"/>
</svg>
