<svg width="32" height="22" viewBox="0 0 32 22" fill="none" xmlns="http://www.w3.org/2000/svg">
<path fill-rule="evenodd" clip-rule="evenodd" d="M16.0662 0.00225215C15.5152 -0.0344797 15.0387 0.382467 15.002 0.933529L14.7595 4.57067C14.7228 5.12173 15.1397 5.59824 15.6908 5.63497C16.2419 5.6717 16.7184 5.25475 16.7551 4.70369L16.9975 1.06655C17.0343 0.515485 16.6173 0.038984 16.0662 0.00225215ZM2.66783 2.05673C2.14685 2.24003 1.87312 2.81097 2.05643 3.33194C2.29992 4.02399 2.69741 4.6323 3.08308 5.15357C3.26824 5.40384 3.46125 5.64772 3.64076 5.87453L3.66706 5.90776C3.85802 6.14908 4.03268 6.37073 4.19127 6.58858C4.51631 7.03508 5.14177 7.13355 5.58828 6.80851C6.03478 6.48346 6.13325 5.858 5.8082 5.4115C5.62243 5.1563 5.42342 4.90428 5.23543 4.66671L5.21563 4.64169C5.03088 4.40823 4.85615 4.18743 4.69087 3.96404C4.34572 3.49753 4.08757 3.07889 3.94305 2.66813C3.75974 2.14715 3.18881 1.87342 2.66783 2.05673ZM29.2093 3.02224C28.6692 2.90652 28.1377 3.25048 28.0219 3.79051C28.0018 3.88454 27.9269 4.05554 27.7375 4.29876C27.5552 4.53286 27.3088 4.78061 27.0257 5.02653C26.4591 5.51862 25.8251 5.93479 25.4783 6.14676C25.007 6.43475 24.8585 7.05023 25.1465 7.52149C25.4344 7.99274 26.0499 8.14131 26.5212 7.85332C26.9168 7.61153 27.6539 7.12992 28.3371 6.53656C28.6789 6.23975 29.0272 5.89786 29.3156 5.52745C29.5969 5.16615 29.8686 4.71776 29.9775 4.20957C30.0933 3.66954 29.7493 3.13796 29.2093 3.02224ZM12.2951 8.95311C12.5552 8.95841 12.8284 8.96399 13.1249 8.96399C13.8939 8.96399 14.5102 9.03584 15.4768 9.15112C16.0287 9.21696 16.5051 9.24502 16.9303 9.27006C17.0365 9.27631 17.1395 9.28238 17.2396 9.2888C17.7452 9.32119 18.2199 9.36401 18.8038 9.48067C19.3368 9.58712 20.0293 9.79983 20.6145 9.99737C20.9015 10.0942 21.1526 10.184 21.3316 10.2494C21.421 10.2821 21.4922 10.3086 21.5405 10.3267L21.5952 10.3474L21.6086 10.3525L21.6116 10.3536L21.6471 10.3673L21.683 10.378L21.759 10.401C21.8087 10.416 21.8812 10.4381 21.9718 10.4657C22.1531 10.5212 22.4063 10.5992 22.6939 10.6894C23.2726 10.871 23.9774 11.0982 24.5149 11.2899C24.659 11.3413 24.7884 11.3868 24.9083 11.429C25.3894 11.5983 25.7176 11.7138 26.2294 11.9381C27.2317 12.3774 27.7521 12.6852 28.7306 13.2832C29.0587 13.4837 29.4789 13.7636 29.8258 13.9997C29.8366 14.007 29.8473 14.0143 29.8579 14.0216C29.7647 14.1578 29.6528 14.3057 29.5369 14.4504C29.4049 14.6154 29.2764 14.7656 29.1805 14.8751C29.1327 14.9296 29.0937 14.9732 29.0671 15.0027L29.0568 15.014L28.6555 15.3761C28.4142 15.5936 28.131 15.8485 27.9574 16.0035C27.4137 16.489 26.9918 16.8653 26.4728 17.1963C25.9352 17.5391 24.3512 18.167 22.7779 18.525C22.2174 18.6525 21.7292 18.7769 21.2781 18.8919C19.9863 19.2211 18.9977 19.473 17.4818 19.5002C15.7707 19.5309 14.8214 19.3857 13.1089 18.9856C12.7535 18.9026 12.4806 18.8212 12.1914 18.7316C12.1503 18.7188 12.1086 18.7058 12.0661 18.6926C11.8094 18.6125 11.5238 18.5235 11.1723 18.4294C10.8146 18.3337 10.3411 18.1469 9.75351 17.9151C9.47888 17.8068 9.17936 17.6886 8.85512 17.5653C8.48429 17.4243 8.17521 17.313 7.89354 17.2115C7.28063 16.9906 6.79747 16.8166 6.09011 16.4857C5.38287 16.1548 4.37956 15.5805 3.52781 15.0715C3.10751 14.8204 2.73355 14.5909 2.46471 14.4242C2.42957 14.4024 2.39625 14.3817 2.36486 14.3621C2.48963 14.1943 2.60374 14.0229 2.70021 13.878C2.72152 13.8459 2.74197 13.8152 2.76148 13.7861C2.94625 13.5105 3.07585 13.3334 3.193 13.2207C3.53799 12.8889 3.77976 12.6982 4.02407 12.5183C4.08327 12.4747 4.14627 12.4293 4.2133 12.3808C4.42304 12.2294 4.6722 12.0495 4.96766 11.8103C5.79866 11.1376 6.67248 10.5489 7.62808 10.0114C8.39021 9.5827 8.93124 9.30783 9.71543 9.1346C10.6857 8.92028 11.4153 8.93516 12.2951 8.95311ZM0.571747 15.3728C0.51156 15.3443 0.45335 15.3092 0.398058 15.2676C-0.0430756 14.9353 -0.131302 14.3083 0.200998 13.8672L0.20454 13.8625L0.213085 13.8512L0.243509 13.8112C0.269081 13.7778 0.304886 13.7313 0.346144 13.6785C0.425375 13.5772 0.536821 13.4374 0.636461 13.3238C0.754751 13.189 0.870255 13.0163 1.03472 12.7703C1.05573 12.7389 1.07753 12.7063 1.10025 12.6724C1.2748 12.412 1.51322 12.0614 1.80647 11.7794C2.22595 11.3758 2.53733 11.1294 2.83816 10.9079C2.92033 10.8474 2.99706 10.7919 3.07219 10.7377C3.27196 10.5934 3.46033 10.4573 3.70926 10.2558C4.63223 9.50862 5.59973 8.85765 6.64755 8.26825C7.45113 7.81624 8.20197 7.42071 9.28404 7.18168C10.5095 6.91099 11.5249 6.93348 12.4415 6.95378C12.6751 6.95896 12.9023 6.96399 13.1249 6.96399C14.0268 6.96399 14.7538 7.05071 15.7046 7.16413L15.7136 7.1652C16.2006 7.22328 16.6046 7.24718 17.0234 7.27196C17.1364 7.27864 17.2505 7.28539 17.3675 7.29289C17.9142 7.32791 18.4878 7.37802 19.1956 7.51941C19.8605 7.65222 20.6534 7.89964 21.2541 8.10241C21.5602 8.2057 21.8272 8.30116 22.0181 8.3709C22.1136 8.40581 22.1904 8.43439 22.2437 8.45442L22.2929 8.47302L22.3385 8.48678C22.3897 8.5023 22.464 8.52485 22.5565 8.55311C22.7413 8.60962 22.9994 8.68912 23.2928 8.78117C23.876 8.9642 24.6113 9.20086 25.1868 9.40614C25.3155 9.45205 25.4359 9.49436 25.5513 9.53495C26.0438 9.70809 26.4471 9.84989 27.0322 10.1063C28.1584 10.6 28.7693 10.9629 29.7737 11.5768C30.1455 11.804 30.5991 12.1067 30.951 12.3462C31.1289 12.4673 31.2844 12.5746 31.3955 12.6518C31.4511 12.6904 31.4957 12.7215 31.5265 12.7431L31.5622 12.7681L31.5742 12.7765L31.5751 12.7772C31.9111 13.0136 32.0573 13.4194 31.9792 13.7977C32.0118 13.9547 32.007 14.1218 31.9579 14.2862C31.8716 14.5752 31.7046 14.855 31.5701 15.0592C31.4228 15.2831 31.2527 15.5073 31.0984 15.7001C30.9426 15.8948 30.7938 16.0687 30.6845 16.1934C30.6296 16.2561 30.584 16.3071 30.5516 16.3429L30.5025 16.3969L30.4983 16.4015C30.4983 16.4015 30.4976 16.4022 29.7632 15.7235L30.4983 16.4015L30.4335 16.4655L29.9946 16.8616C29.7538 17.0788 29.4671 17.3368 29.2894 17.4955L29.2428 17.537C28.733 17.9924 28.2056 18.4634 27.5482 18.8826C26.7348 19.4013 24.899 20.0934 23.2216 20.4751C22.7617 20.5798 22.3288 20.6904 21.9047 20.7987C20.5496 21.145 19.2848 21.4682 17.5177 21.4999C15.5976 21.5343 14.478 21.3593 12.654 20.9332C12.231 20.8344 11.9061 20.7371 11.5991 20.6419C11.5542 20.6279 11.5101 20.6142 11.4662 20.6005C11.21 20.5207 10.9647 20.4442 10.6552 20.3614C10.1813 20.2346 9.53029 19.9779 8.88025 19.7216C8.63148 19.6235 8.38286 19.5254 8.14435 19.4348C7.83989 19.319 7.56142 19.2186 7.29188 19.1213C6.63762 18.8853 6.03593 18.6683 5.24269 18.2973C4.43474 17.9193 3.35472 17.298 2.50193 16.7884C2.06997 16.5303 1.68636 16.2948 1.4107 16.1239C1.27278 16.0384 1.16166 15.9689 1.08476 15.9206L0.995941 15.8646L0.964622 15.8448C0.780651 15.7281 0.647053 15.5607 0.571747 15.3728ZM17.9999 11.0074C17.8313 10.9996 17.56 10.9937 17.3937 11.0129C17.0821 11.049 16.8144 11.1912 16.7026 11.2533C16.6293 11.294 16.5673 11.3327 16.5233 11.3613C16.5048 11.3734 16.4888 11.3841 16.4759 11.393C16.4692 11.3971 16.4611 11.4022 16.4527 11.4075C16.4222 11.4267 16.3806 11.4535 16.3319 11.4864C16.237 11.5504 16.1036 11.6453 15.9695 11.7585C15.7437 11.9489 15.4505 12.2258 15.2466 12.613C15.0273 13.0293 14.9421 13.5124 15.04 14.0492C15.1377 14.5848 15.3031 14.9991 15.6678 15.4434C15.7584 15.5538 15.8086 15.6237 15.8664 15.7043C15.8878 15.734 15.9102 15.7651 15.936 15.8004C16.0428 15.9459 16.1604 16.0886 16.356 16.2635C16.374 16.2796 16.3939 16.2981 16.4158 16.3185C16.5756 16.4671 16.8437 16.7163 17.2751 16.8684C17.5881 16.9788 17.8379 17 18.0789 17C18.6192 17 19.0983 16.8209 19.4549 16.6519C19.9464 16.419 20.7483 15.8637 20.9264 14.847C20.9616 14.6458 20.998 14.4238 20.9997 14.1893C21.0015 13.934 20.9629 13.7044 20.8964 13.4611C20.8113 13.1503 20.6766 12.9118 20.5591 12.7337C20.5083 12.6567 20.4563 12.5847 20.4184 12.5321C20.4148 12.5271 20.4113 12.5223 20.408 12.5177C20.3646 12.4576 20.3397 12.4222 20.3202 12.3913C20.3149 12.383 20.3038 12.3648 20.289 12.3404C20.2418 12.2627 20.1564 12.1221 20.097 12.0358C19.9957 11.8884 19.8342 11.6804 19.5873 11.5133C19.5301 11.4746 19.468 11.4363 19.4 11.4016C19.3277 11.3648 19.2609 11.3381 19.1982 11.3176C19.1698 11.3083 19.1457 11.3014 19.1308 11.2972C19.1224 11.2948 19.1178 11.2936 19.1154 11.2929C19.1104 11.2909 19.1054 11.289 19.1003 11.287C18.8223 11.1788 18.4329 11.0272 17.9999 11.0074ZM17.6934 13C17.758 13.0001 17.8356 13.0019 17.9085 13.0053C17.9744 13.0083 18.0699 13.0323 18.4059 13.1629C18.4239 13.1699 18.4412 13.1763 18.4579 13.1821C18.4744 13.2069 18.4938 13.2379 18.5203 13.2814C18.5261 13.291 18.5327 13.3019 18.5398 13.3137C18.5655 13.3562 18.5984 13.4107 18.6304 13.4613C18.6863 13.5495 18.7443 13.63 18.7857 13.6875L18.7912 13.695C18.8345 13.7551 18.863 13.7946 18.8897 13.835C18.9389 13.9096 18.957 13.9515 18.9673 13.9888C18.9984 14.1025 18.9999 14.1459 18.9997 14.1753C18.9994 14.2254 18.9918 14.2996 18.9563 14.502C18.9495 14.541 18.9284 14.5925 18.8641 14.6597C18.7954 14.7314 18.6984 14.7972 18.5986 14.8445C18.3542 14.9603 18.1891 15 18.0789 15C18.0213 15 18.0003 14.9977 17.9911 14.9963C17.9854 14.9955 17.972 14.9935 17.9402 14.9822C17.9234 14.9763 17.9173 14.9728 17.9173 14.9728C17.9173 14.9728 17.9133 14.9707 17.903 14.9628C17.8899 14.9528 17.8703 14.9366 17.8333 14.9033C17.8147 14.8866 17.7955 14.869 17.7706 14.8463C17.7468 14.8246 17.719 14.7994 17.689 14.7726C17.6188 14.7097 17.5923 14.6769 17.5482 14.6168C17.5373 14.602 17.5243 14.5838 17.509 14.5625C17.4474 14.4765 17.3499 14.3404 17.2137 14.1745C17.0988 14.0345 17.0547 13.9491 17.0075 13.6903C16.9967 13.6308 16.9997 13.599 17.0016 13.5865C17.0035 13.5744 17.0069 13.5625 17.0161 13.5451C17.0403 13.499 17.1004 13.421 17.259 13.2873C17.3198 13.2359 17.3906 13.1848 17.4511 13.1439C17.4801 13.1244 17.504 13.109 17.5196 13.0991L17.5358 13.089L17.5369 13.0884L17.538 13.0877L17.5718 13.0675L17.6016 13.0461L17.6155 13.0368C17.6304 13.0271 17.6511 13.0142 17.6735 13.0018L17.6766 13.0001C17.682 13 17.6876 13 17.6934 13ZM17.7177 12.9796L17.7166 12.9801L17.7177 12.9796Z" fill="#EA5A24"/>
</svg>
