<svg width="32" height="22" viewBox="0 0 32 22" fill="none" xmlns="http://www.w3.org/2000/svg">
<path fill-rule="evenodd" clip-rule="evenodd" d="M15.9338 0.00225215C16.4848 -0.0344797 16.9613 0.382467 16.998 0.933529L17.2405 4.57067C17.2772 5.12173 16.8603 5.59824 16.3092 5.63497C15.7581 5.6717 15.2816 5.25475 15.2449 4.70369L15.0025 1.06655C14.9657 0.515485 15.3827 0.038984 15.9338 0.00225215ZM29.3322 2.05673C29.8531 2.24003 30.1269 2.81097 29.9436 3.33194C29.7001 4.02399 29.3026 4.6323 28.9169 5.15357C28.7318 5.40384 28.5387 5.64772 28.3592 5.87453L28.3329 5.90776C28.142 6.14908 27.9673 6.37073 27.8087 6.58858C27.4837 7.03508 26.8582 7.13355 26.4117 6.80851C25.9652 6.48346 25.8668 5.858 26.1918 5.4115C26.3776 5.1563 26.5766 4.90428 26.7646 4.66671L26.7844 4.64169C26.9691 4.40823 27.1439 4.18743 27.3091 3.96404C27.6543 3.49753 27.9124 3.07889 28.057 2.66813C28.2403 2.14715 28.8112 1.87342 29.3322 2.05673ZM2.79073 3.02224C3.33076 2.90652 3.86235 3.25048 3.97807 3.79051C3.99821 3.88454 4.07315 4.05554 4.26252 4.29876C4.44479 4.53286 4.69115 4.78061 4.97431 5.02653C5.54094 5.51862 6.17486 5.93479 6.52171 6.14676C6.99297 6.43475 7.14153 7.05023 6.85354 7.52149C6.56556 7.99274 5.95007 8.14131 5.47881 7.85332C5.08315 7.61153 4.34612 7.12992 3.6629 6.53656C3.32114 6.23975 2.97285 5.89786 2.68444 5.52745C2.40313 5.16615 2.13136 4.71776 2.02246 4.20957C1.90674 3.66954 2.25071 3.13796 2.79073 3.02224ZM19.7049 8.95311C19.4448 8.95841 19.1716 8.96399 18.8751 8.96399C18.1061 8.96399 17.4898 9.03584 16.5232 9.15112C15.9713 9.21696 15.4949 9.24502 15.0697 9.27006C14.9635 9.27631 14.8605 9.28238 14.7604 9.2888C14.2548 9.32119 13.7801 9.36401 13.1962 9.48067C12.6632 9.58712 11.9707 9.79983 11.3855 9.99737C11.0985 10.0942 10.8474 10.184 10.6684 10.2494C10.579 10.2821 10.5078 10.3086 10.4595 10.3267L10.4048 10.3474L10.3914 10.3525L10.3884 10.3536L10.3529 10.3673L10.317 10.378L10.241 10.401C10.1913 10.416 10.1188 10.4381 10.0282 10.4657C9.84693 10.5212 9.59367 10.5992 9.30607 10.6894C8.72742 10.871 8.02256 11.0982 7.48506 11.2899C7.34096 11.3413 7.21157 11.3868 7.09167 11.429C6.61056 11.5983 6.28236 11.7138 5.77062 11.9381C4.76832 12.3774 4.24786 12.6852 3.26935 13.2832C2.94132 13.4837 2.52113 13.7636 2.17423 13.9997C2.16341 14.007 2.15269 14.0143 2.14205 14.0216C2.23525 14.1578 2.34721 14.3057 2.46305 14.4504C2.59509 14.6154 2.72355 14.7656 2.81953 14.8751C2.86725 14.9296 2.9063 14.9732 2.93294 15.0027L2.94317 15.014L3.34455 15.3761C3.58576 15.5936 3.86899 15.8485 4.04259 16.0035C4.58634 16.489 5.00821 16.8653 5.52718 17.1963C6.06478 17.5391 7.64881 18.167 9.22214 18.525C9.78263 18.6525 10.2708 18.7769 10.7219 18.8919C12.0137 19.2211 13.0023 19.473 14.5182 19.5002C16.2293 19.5309 17.1786 19.3857 18.8911 18.9856C19.2465 18.9026 19.5194 18.8212 19.8086 18.7316C19.8497 18.7188 19.8914 18.7058 19.9339 18.6926C20.1906 18.6125 20.4762 18.5235 20.8277 18.4294C21.1854 18.3337 21.6589 18.1469 22.2465 17.9151C22.5211 17.8068 22.8206 17.6886 23.1449 17.5653C23.5157 17.4243 23.8248 17.313 24.1065 17.2115C24.7194 16.9906 25.2025 16.8166 25.9099 16.4857C26.6171 16.1548 27.6204 15.5805 28.4722 15.0715C28.8925 14.8204 29.2664 14.5909 29.5353 14.4242C29.5704 14.4024 29.6038 14.3817 29.6351 14.3621C29.5104 14.1943 29.3963 14.0229 29.2998 13.878C29.2785 13.8459 29.258 13.8152 29.2385 13.7861C29.0538 13.5105 28.9242 13.3334 28.807 13.2207C28.462 12.8889 28.2202 12.6982 27.9759 12.5183C27.9167 12.4747 27.8537 12.4293 27.7867 12.3808C27.577 12.2294 27.3278 12.0495 27.0323 11.8103C26.2013 11.1376 25.3275 10.5489 24.3719 10.0114C23.6098 9.5827 23.0688 9.30783 22.2846 9.1346C21.3143 8.92028 20.5847 8.93516 19.7049 8.95311ZM31.4283 15.3728C31.4884 15.3443 31.5466 15.3092 31.6019 15.2676C32.0431 14.9353 32.1313 14.3083 31.799 13.8672L31.7955 13.8625L31.7869 13.8512L31.7565 13.8112C31.7309 13.7778 31.6951 13.7313 31.6539 13.6785C31.5746 13.5772 31.4632 13.4374 31.3635 13.3238C31.2452 13.189 31.1297 13.0163 30.9653 12.7703C30.9443 12.7389 30.9225 12.7063 30.8998 12.6724C30.7252 12.412 30.4868 12.0614 30.1935 11.7794C29.7741 11.3758 29.4627 11.1294 29.1618 10.9079C29.0797 10.8474 29.0029 10.7919 28.9278 10.7377C28.728 10.5934 28.5397 10.4573 28.2907 10.2558C27.3678 9.50862 26.4003 8.85765 25.3524 8.26825C24.5489 7.81624 23.798 7.42071 22.716 7.18168C21.4905 6.91099 20.4751 6.93348 19.5585 6.95378C19.3249 6.95896 19.0977 6.96399 18.8751 6.96399C17.9732 6.96399 17.2462 7.05071 16.2954 7.16413L16.2864 7.1652C15.7994 7.22328 15.3954 7.24718 14.9766 7.27196C14.8636 7.27864 14.7495 7.28539 14.6325 7.29289C14.0858 7.32791 13.5122 7.37802 12.8044 7.51941C12.1395 7.65222 11.3466 7.89964 10.7459 8.10241C10.4398 8.2057 10.1728 8.30116 9.98194 8.3709C9.8864 8.40581 9.80965 8.43439 9.75632 8.45442L9.70706 8.47302L9.66152 8.48678C9.61025 8.5023 9.53601 8.52485 9.44354 8.55311C9.25868 8.60962 9.00057 8.68912 8.70723 8.78117C8.12401 8.9642 7.38874 9.20086 6.8132 9.40614C6.68446 9.45205 6.56412 9.49436 6.44867 9.53495C5.95621 9.70809 5.5529 9.84989 4.96777 10.1063C3.84156 10.6 3.23072 10.9629 2.22632 11.5768C1.8545 11.804 1.40091 12.1067 1.04899 12.3462C0.871121 12.4673 0.71563 12.5746 0.604512 12.6518C0.548913 12.6904 0.504318 12.7215 0.473467 12.7431L0.43781 12.7681L0.425799 12.7765L0.424884 12.7772C0.0888924 13.0136 -0.0573047 13.4194 0.0207502 13.7977C-0.011827 13.9547 -0.0070181 14.1218 0.042093 14.2862C0.128408 14.5752 0.295435 14.855 0.429879 15.0592C0.577222 15.2831 0.747287 15.5073 0.901562 15.7001C1.05741 15.8948 1.2062 16.0687 1.31552 16.1934C1.37043 16.2561 1.41603 16.3071 1.44838 16.3429L1.49749 16.3969L1.50173 16.4015C1.50173 16.4015 1.50237 16.4022 2.23682 15.7235L1.50173 16.4015L1.56645 16.4655L2.0054 16.8616C2.24624 17.0788 2.53291 17.3368 2.71063 17.4955L2.7572 17.537C3.26704 17.9924 3.79443 18.4634 4.45184 18.8826C5.26525 19.4013 7.10097 20.0934 8.77839 20.4751C9.23831 20.5798 9.67121 20.6904 10.0953 20.7987C11.4504 21.145 12.7152 21.4682 14.4823 21.4999C16.4024 21.5343 17.522 21.3593 19.346 20.9332C19.769 20.8344 20.0939 20.7371 20.4009 20.6419C20.4458 20.6279 20.4899 20.6142 20.5338 20.6005C20.79 20.5207 21.0353 20.4442 21.3448 20.3614C21.8187 20.2346 22.4697 19.9779 23.1198 19.7216C23.3685 19.6235 23.6171 19.5254 23.8556 19.4348C24.1601 19.319 24.4386 19.2186 24.7081 19.1213C25.3624 18.8853 25.9641 18.6683 26.7573 18.2973C27.5653 17.9193 28.6453 17.298 29.4981 16.7884C29.93 16.5303 30.3136 16.2948 30.5893 16.1239C30.7272 16.0384 30.8383 15.9689 30.9152 15.9206L31.0041 15.8646L31.0354 15.8448C31.2193 15.7281 31.3529 15.5607 31.4283 15.3728ZM14.0001 11.0074C14.1687 10.9996 14.44 10.9937 14.6063 11.0129C14.9179 11.049 15.1856 11.1912 15.2974 11.2533C15.3707 11.294 15.4327 11.3327 15.4767 11.3613C15.4952 11.3734 15.5112 11.3841 15.5241 11.393C15.5308 11.3971 15.5389 11.4022 15.5473 11.4075C15.5778 11.4267 15.6194 11.4535 15.6681 11.4864C15.763 11.5504 15.8964 11.6453 16.0305 11.7585C16.2563 11.9489 16.5495 12.2258 16.7534 12.613C16.9727 13.0293 17.0579 13.5124 16.96 14.0492C16.8623 14.5848 16.6969 14.9991 16.3322 15.4434C16.2416 15.5538 16.1914 15.6237 16.1336 15.7043C16.1122 15.734 16.0898 15.7651 16.064 15.8004C15.9572 15.9459 15.8396 16.0886 15.644 16.2635C15.626 16.2796 15.6061 16.2981 15.5842 16.3185C15.4244 16.4671 15.1563 16.7163 14.7249 16.8684C14.4119 16.9788 14.1621 17 13.9211 17C13.3808 17 12.9017 16.8209 12.5451 16.6519C12.0536 16.419 11.2517 15.8637 11.0736 14.847C11.0384 14.6458 11.002 14.4238 11.0003 14.1893C10.9985 13.934 11.0371 13.7044 11.1036 13.4611C11.1887 13.1503 11.3234 12.9118 11.4409 12.7337C11.4917 12.6567 11.5437 12.5847 11.5816 12.5321C11.5852 12.5271 11.5887 12.5223 11.592 12.5177C11.6354 12.4576 11.6603 12.4222 11.6798 12.3913C11.6851 12.383 11.6962 12.3648 11.711 12.3404C11.7582 12.2627 11.8436 12.1221 11.903 12.0358C12.0043 11.8884 12.1658 11.6804 12.4127 11.5133C12.4699 11.4746 12.532 11.4363 12.6 11.4016C12.6723 11.3648 12.7391 11.3381 12.8018 11.3176C12.8302 11.3083 12.8543 11.3014 12.8692 11.2972C12.8776 11.2948 12.8822 11.2936 12.8846 11.2929C12.8896 11.2909 12.8946 11.289 12.8997 11.287C13.1777 11.1788 13.5671 11.0272 14.0001 11.0074ZM14.3066 13C14.242 13.0001 14.1644 13.0019 14.0915 13.0053C14.0256 13.0083 13.9301 13.0323 13.5941 13.1629C13.5761 13.1699 13.5588 13.1763 13.5421 13.1821C13.5256 13.2069 13.5062 13.2379 13.4797 13.2814C13.4739 13.291 13.4673 13.3019 13.4602 13.3137C13.4345 13.3562 13.4016 13.4107 13.3696 13.4613C13.3137 13.5495 13.2557 13.63 13.2143 13.6875L13.2088 13.695C13.1655 13.7551 13.137 13.7946 13.1103 13.835C13.0611 13.9096 13.043 13.9515 13.0327 13.9888C13.0016 14.1025 13.0001 14.1459 13.0003 14.1753C13.0006 14.2254 13.0082 14.2996 13.0437 14.502C13.0505 14.541 13.0716 14.5925 13.1359 14.6597C13.2046 14.7314 13.3016 14.7972 13.4014 14.8445C13.6458 14.9603 13.8109 15 13.9211 15C13.9787 15 13.9997 14.9977 14.0089 14.9963C14.0146 14.9955 14.028 14.9935 14.0598 14.9822C14.0766 14.9763 14.0827 14.9728 14.0827 14.9728C14.0827 14.9728 14.0867 14.9707 14.097 14.9628C14.1101 14.9528 14.1297 14.9366 14.1667 14.9033C14.1853 14.8866 14.2045 14.869 14.2294 14.8463C14.2532 14.8246 14.281 14.7994 14.311 14.7726C14.3812 14.7097 14.4077 14.6769 14.4518 14.6168C14.4627 14.602 14.4757 14.5838 14.491 14.5625C14.5526 14.4765 14.6501 14.3404 14.7863 14.1745C14.9012 14.0345 14.9453 13.9491 14.9925 13.6903C15.0033 13.6308 15.0003 13.599 14.9984 13.5865C14.9965 13.5744 14.9931 13.5625 14.9839 13.5451C14.9597 13.499 14.8996 13.421 14.741 13.2873C14.6802 13.2359 14.6094 13.1848 14.5489 13.1439C14.5199 13.1244 14.496 13.109 14.4804 13.0991L14.4642 13.089L14.4631 13.0884L14.462 13.0877L14.4282 13.0675L14.3984 13.0461L14.3845 13.0368C14.3696 13.0271 14.3489 13.0142 14.3265 13.0018L14.3234 13.0001C14.318 13 14.3124 13 14.3066 13ZM14.2823 12.9796L14.2834 12.9801Z" fill="#EA5A24"/>
</svg>
