<svg width="19" height="32" viewBox="0 0 19 32" fill="none" xmlns="http://www.w3.org/2000/svg">
<path d="M12.8306 7.6413H16.8943C18.2489 7.6413 17.8333 4.33352 17.5 3.50018C17.1667 2.66685 16.2072 1.1466 15.5 1.50018C14.5 2.00016 8 2.50007 7 3.50007C5.32029 5.17977 6 7.50007 6 9.50007C6 11.1001 6.61563 11.8555 5.5 12.5001C5.06695 12.7503 4.88473 12.875 4.69451 13.0335C4.35745 13.3144 3.51357 13.0318 3.17496 13.3027C2.90042 13.5223 2.04615 13.2266 2.04615 13.6587L2.04615 13.6845C2.04617 14.3322 2.04619 14.9393 1.92458 15.5777C1.87385 15.844 1.7144 17.8732 1.97668 17.9482C2.49289 18.0957 3.09953 18.1429 3.64385 18.3042C4.16381 18.4583 4.67048 18.413 5.20681 18.4258C5.68437 18.4371 6.15289 18.6815 6.63953 18.5734C6.77933 18.5423 6.66647 19.5416 6.54401 19.8324C6.07834 20.9384 6.42245 22.8704 6.42245 24.0524V29.4012C6.42245 30.129 6.54456 30.6285 7.42969 30.2261C7.96895 29.981 9.10611 30.025 9.70468 29.9917C10.0212 29.9741 11.5802 29.9183 11.5802 29.601V20.3708C11.5802 19.4523 11.5147 19.0509 12.518 19.0509C13.1583 19.0509 15.6439 19.1218 15.6439 18.4258C15.6439 16.7152 16.5705 15.0946 16.8596 13.4243C17.0466 12.3437 16.2034 12.6428 15.4095 12.6428H12.8306C12.1319 12.6428 11.4239 12.9226 11.4239 12.0957C11.4239 11.3778 11.554 10.7014 11.5802 10.0205C11.6153 9.10925 11.5852 7.6413 12.8306 7.6413Z" stroke="#EA5A24" stroke-width="2" stroke-linecap="round"/>
</svg>
