<svg width="123" height="85" viewBox="0 0 123 85" fill="none" xmlns="http://www.w3.org/2000/svg">
<path d="M122.086 21.0226C122.085 20.9712 122.081 20.9199 122.075 20.8688C121.969 20.6706 121.857 20.4761 121.746 20.2817C121.777 20.1016 121.791 19.9192 121.789 19.7365L120.925 18.1276C120.21 17.2475 119.62 16.272 119.17 15.2287C119.155 15.0177 119.138 14.8055 119.138 14.5933C118.867 13.1784 118.728 11.7412 118.722 10.3002C118.71 9.53771 118.698 8.77264 118.685 8.00504C118.889 7.16924 118.83 6.29008 118.515 5.48997C118.492 5.45622 118.467 5.42396 118.44 5.39339C118.405 5.22814 118.357 5.06616 118.295 4.90918C118.486 4.16572 118.408 3.4985 118.053 2.90882C117.592 2.05987 117.233 2.06623 116.431 2.01158C116.528 1.28718 116.66 0.645387 115.867 0.303521C114.985 -0.0777415 113.903 0.464923 113.096 0.860166C112.437 1.17452 111.805 1.54305 111.206 1.96202C110.982 1.41682 110.797 1.08511 110.248 0.741975C109.744 0.428069 108.94 0.0938305 108.365 0.0213906C107.054 -0.143823 105.167 0.684785 104.196 1.24143C103.463 1.86056 102.627 2.34259 101.726 2.66481C101.101 2.88744 100.465 3.07748 99.8201 3.23417C98.9821 3.43513 98.1619 3.70547 97.3678 4.04244C96.1074 4.73028 94.8083 5.34346 93.4772 5.87886C91.1609 6.99977 89.1217 8.56295 86.8407 9.73724C86.0487 10.0737 85.3059 10.5175 84.6327 11.0564C84.0718 11.6131 83.484 12.1405 82.8694 12.6387C80.8724 13.84 79.0031 15.2453 77.291 16.8325C76.5781 17.4256 75.8715 18.0259 75.1712 18.6334C75.1712 18.5762 75.1712 18.5164 75.1712 18.4694C75.1183 17.8569 74.7391 17.2202 74.4671 16.6902C73.7542 15.2922 72.4342 14.4522 71.1923 13.6045C69.8958 12.6439 68.496 11.8339 67.0195 11.1899C65.9178 10.7196 64.796 10.3032 63.6541 9.94058C62.2686 9.47544 60.8604 8.89083 59.3918 8.79679C58.1046 8.71291 56.2518 8.93913 55.1157 9.70928C52.463 9.12957 49.7718 8.74728 47.0636 8.56549C44.7147 8.42861 42.359 8.47109 40.0165 8.69258C36.3412 9.06367 32.681 9.69276 29.1279 10.726C27.2349 11.2582 25.3827 11.9285 23.586 12.7314C22.14 13.3008 20.7256 13.9404 19.3426 14.6504C19.1757 14.6398 19.0084 14.6661 18.8526 14.7276C18.6968 14.789 18.5563 14.8842 18.4408 15.0063C17.918 15.4317 17.5365 16.0082 17.3475 16.6584C14.5929 17.8289 12.3006 19.7174 10.0423 21.6593C8.1454 23.2873 6.43245 25.0716 5.06712 27.1724C3.70179 29.2732 2.47879 31.6319 1.76464 34.0491C1.42099 35.0147 1.2145 36.0244 1.15127 37.0484C0.904137 37.908 0.754134 38.7931 0.70413 39.6867L0.695305 39.7439C0.379764 40.9131 0.195988 42.1145 0.147429 43.3252C0.138612 43.3722 0.129768 43.4193 0.119692 43.4663C-0.0333213 44.9238 -0.0396389 46.3933 0.100811 47.8521C0.345999 49.3 0.547109 50.7535 0.70413 52.2125C0.744435 52.3917 0.785999 52.5709 0.830083 52.7488C0.838899 52.8327 0.851492 52.9165 0.859049 53.0029C1.02699 53.7528 1.19282 54.5026 1.35656 55.2524C2.0896 58.0699 3.49775 60.435 5.26109 62.701C5.23212 62.5892 5.20316 62.4773 5.17545 62.3655C5.21324 62.4392 5.23843 62.5116 5.26866 62.5841L5.32155 62.8522C5.30139 62.9641 5.28251 63.0759 5.26235 63.1865C5.29636 63.292 5.32911 63.3974 5.36312 63.5029C5.38327 63.5309 5.40721 63.5576 5.42736 63.5855C5.42095 63.6753 5.40832 63.7645 5.38957 63.8524C5.36637 63.9064 5.35514 63.9649 5.35666 64.0237C5.35819 64.0825 5.37243 64.1403 5.39839 64.193C5.45421 64.5186 5.6353 64.8086 5.9022 65L7.48793 66.994C8.21009 67.9473 9.06884 68.7868 10.0359 69.4849C10.8001 70.078 11.5558 70.6855 12.3031 71.3074L13.4921 72.5198L14.7315 74.346C15.399 75.1264 16.2631 75.3844 17.112 75.9054C18.4685 76.7366 19.6928 77.8041 21.048 78.6505C22.2788 79.3869 23.5538 80.0452 24.8657 80.6216C26.5473 81.4815 28.3053 82.1797 30.1166 82.7071C32.1151 83.2804 34.1409 83.752 36.1863 84.1204C39.0328 84.6287 41.9373 85.01 44.8317 84.9998C47.9053 84.9895 50.9723 84.7114 53.9985 84.1686C55.6535 83.8967 57.3006 83.5578 58.9396 83.1519C66.3741 81.3545 73.3117 77.8898 79.2369 73.0154C81.5419 71.1091 83.7712 68.9931 85.6353 66.6382C86.5722 65.478 87.4071 64.2376 88.1304 62.931C88.8979 61.6186 89.6885 60.3211 90.5021 59.0383L90.6508 58.4969C90.4979 58.2223 90.3297 57.9567 90.1469 57.7014C90.1721 57.634 90.191 57.5629 90.2137 57.4942C90.4555 57.4726 90.6659 57.3913 90.754 57.1714L90.9694 56.6326C90.8105 56.2115 90.6176 55.8043 90.3926 55.4151C90.2581 55.2313 90.1456 55.0321 90.0575 54.8216C90.3006 54.7021 90.4845 54.5445 90.4719 54.3399C90.4644 54.2128 90.4581 54.0857 90.4492 53.9663C90.982 53.1771 91.7352 52.5988 92.239 51.7854C92.5955 51.2085 93.0968 50.5031 93.3185 49.8944C93.4923 49.3793 93.6404 48.8573 93.763 48.3287C93.763 48.1126 93.7555 47.8978 93.7542 47.6831C94.2316 46.3982 94.0414 45.0066 94.1031 43.662C94.1699 42.203 94.3097 40.7708 94.2417 39.3118C94.2089 38.6154 94.2417 37.1704 93.9532 36.6036C93.8688 36.4333 93.7693 36.268 93.6686 36.1028C93.6547 36.0279 93.6447 35.9516 93.6296 35.8766C93.6293 35.839 93.6251 35.8015 93.617 35.7648C93.6245 35.6898 93.6321 35.6148 93.6371 35.5411C94.2769 35.1687 94.9168 34.7951 95.5617 34.4291C97.5454 33.3056 99.4057 31.9128 101.418 30.8503C102.849 30.0832 104.342 29.442 105.881 28.9338C106.079 28.8716 106.278 28.8207 106.477 28.7673C107.196 28.6123 107.925 28.5104 108.658 28.4623C110.47 28.2819 112.279 28.07 114.086 27.8269C115.584 27.8371 117.098 27.8345 118.539 27.5079C119.74 27.3616 120.898 26.9666 121.94 26.3476C122.152 26.2205 122.4 26.0083 122.38 25.7122C122.324 25.5577 122.256 25.4084 122.174 25.2661C122.56 25.3118 122.804 25.2851 122.804 25.139C122.85 24.9793 122.862 24.8116 122.838 24.647C122.815 24.4824 122.757 24.3247 122.668 24.1846L122.56 24.0359C122.567 24.0088 122.572 23.9812 122.576 23.9533C122.552 23.8592 122.528 23.7639 122.503 23.6699L122.471 23.6203C122.746 23.6203 122.936 23.5529 122.958 23.3661C123.108 22.1664 122.869 22.2172 122.086 21.0226ZM114.403 19.401C114.459 19.8279 114.557 20.2481 114.695 20.6553C114.844 21.1008 114.916 21.5691 114.907 22.0393C114.39 22.0749 113.873 22.0838 113.341 22.1219C111.578 22.249 109.814 22.6303 108.051 22.8565C106.708 23.0306 105.719 23.1857 104.37 23.647C102.809 24.197 101.298 24.8829 99.8554 25.6969C99.0997 26.1125 98.3969 26.6272 97.6789 27.1114C96.6789 27.7862 95.7267 28.4001 94.685 28.9783L91.4103 29.1206C90.846 29.0024 89.686 30.5046 89.822 31.0104C89.8699 31.1884 89.9253 31.3625 89.9769 31.5378C89.6986 31.8543 89.3547 32.2724 89.4454 32.6257C89.4744 32.7388 89.5096 32.8507 89.5399 32.9638C89.4326 33.109 89.3555 33.2745 89.3132 33.4505C89.0184 33.7937 88.7161 34.2054 88.7967 34.532C88.827 34.6591 88.861 34.7786 88.8925 34.9031C88.7124 35.1089 88.5856 35.3565 88.5234 35.6237C88.2224 35.9846 87.9529 36.3862 88.0196 36.6951C88.0448 36.8056 88.0738 36.9162 88.1015 37.0268C87.8496 37.3597 87.6606 37.7003 87.7236 37.9621C87.9755 39.0881 88.2992 40.265 88.3823 41.4215C88.5625 43.9632 87.9063 46.5431 87.4201 49.0213C87.2173 49.1649 87.08 49.3314 87.0888 49.4864C87.1077 49.719 87.1178 49.9503 87.1291 50.1829L87.1065 50.235C86.7488 50.3926 86.4125 50.6023 86.4225 50.8641C86.4517 50.9464 86.4724 51.0316 86.4843 51.1182L86.4515 51.1284C86.4616 51.1564 86.4767 51.1767 86.488 51.2034C86.4994 51.2301 86.488 51.2428 86.488 51.2618C86.2525 51.4055 86.0837 51.5694 86.0862 51.7486C86.0862 51.8185 86.0862 51.882 86.0862 51.9481C85.8128 52.0463 85.5856 52.2439 85.4489 52.5022C85.4489 52.7335 85.4325 52.9458 85.4137 53.1516C85.2441 53.2674 85.0987 53.4155 84.9854 53.5876C84.9665 53.6803 84.9577 53.7744 84.9439 53.8671C84.7537 53.9889 84.5893 54.1474 84.4602 54.3336C84.4575 54.4387 84.4479 54.5436 84.4312 54.6475L84.3456 54.7377C84.1151 54.9817 84.0219 55.1367 84.0282 55.4913L84.1189 55.471L84.0987 55.4939C83.9954 55.9463 83.8468 56.3606 83.7208 56.7991L54.6963 75.7427L54.53 75.7732C52.4547 76.1219 50.3582 76.327 48.2551 76.3871C46.064 76.4476 43.8714 76.3495 41.6942 76.0935C39.1751 75.7948 36.6284 75.331 34.2264 74.5265C31.0023 73.4611 27.886 72.0883 24.9198 70.4267C22.4423 69.0287 20.1915 67.2952 18.0717 65.3902C16.9608 64.3913 16.2278 63.006 15.2403 61.8826C14.4405 60.9726 13.5677 60.1923 12.8094 59.2404C12.1434 58.3834 11.5213 57.4926 10.9454 56.5716C10.9287 56.373 10.9001 56.1757 10.8597 55.9806C10.7337 55.457 10.4201 55.0135 10.1468 54.5636C9.42742 53.4089 8.87999 52.1539 8.52203 50.8386C8.16533 49.4649 7.93426 48.0611 7.83178 46.6448C7.72726 45.6575 7.67934 44.665 7.6882 43.6722C7.72599 42.2513 8.11645 40.8343 8.45148 39.4605C9.11777 36.7154 10.7186 34.1647 12.4341 31.9344C12.9984 31.2722 13.5992 30.6368 14.234 29.9823C15.8185 28.5983 17.408 27.2601 19.1461 26.0642C20.218 25.3233 21.4057 24.8213 22.4965 24.1172C22.6129 24.1497 22.7364 24.1463 22.8509 24.1073C22.9654 24.0683 23.0657 23.9956 23.1388 23.8986C23.2075 23.8626 23.2627 23.8051 23.2963 23.7347C23.3296 23.5798 23.3875 23.4313 23.4676 23.2949C23.5132 23.2482 23.563 23.2056 23.6162 23.1679C24.6219 22.9282 25.5879 22.543 26.4841 22.0241L29.7085 20.7837C32.6143 19.8941 35.4457 19.1316 38.4408 18.6512C41.2544 18.1796 44.0985 17.918 46.9502 17.8683C50.1544 17.8327 53.3373 18.1644 56.5037 18.6308C57.3233 19.0046 58.2497 19.0643 59.1097 18.7986C59.3282 18.7907 59.5426 18.737 59.7394 18.641C61.3466 18.4313 62.9739 19.1621 64.4664 19.6679C66.4074 20.3249 68.2992 21.09 70.0839 22.1143C70.2754 22.2244 70.4677 22.3367 70.6608 22.4511C70.5437 22.6287 70.4381 22.8138 70.3447 23.0052C70.0814 23.3204 70.2477 23.5834 70.5877 23.7677C70.5285 23.8694 70.4719 23.9736 70.419 24.0816C70.1205 24.4286 70.3472 24.6611 70.6457 24.8111C70.5981 24.8726 70.5665 24.9451 70.5538 25.0221C70.4618 25.1301 70.3661 25.2356 70.2741 25.3449C69.9618 25.6931 70.196 25.9206 70.526 26.0718L70.4341 26.1709C70.2603 26.3654 70.2578 26.5204 70.3459 26.6475L70.22 26.7822L70.2099 26.7911L70.0084 27.011C69.8623 27.1724 70.1973 27.3529 70.6482 27.5117C70.5223 27.6388 70.4114 27.7659 70.3233 27.8574C70.3553 28.0021 70.4323 28.1327 70.5431 28.2301C70.6539 28.3275 70.7927 28.3866 70.9391 28.3988C71.5358 28.5739 72.1423 28.7127 72.7554 28.8144C73.5162 28.9711 74.2807 29.0982 75.049 29.1956C75.5831 29.3361 76.1431 29.3422 76.6801 29.2134C78.3637 27.6384 80.0972 26.1226 81.8807 24.6662C83.5399 23.2581 85.2365 21.8974 86.9704 20.5842C88.206 19.7301 89.4101 18.9142 90.5752 17.9623L90.3409 18.1479C91.7629 17.2062 93.2857 16.4284 94.7342 15.5248C97.3023 13.9222 100.014 12.7429 102.761 11.4822C103.541 11.125 104.367 10.8022 105.071 10.3053C105.377 10.1744 105.665 10.0035 105.926 9.79697C105.975 9.75884 106.03 9.72961 106.079 9.69403L106.147 9.67115C105.952 9.83622 105.818 10.0635 105.769 10.3155C105.455 10.3905 105.155 10.5176 105.057 10.684C104.655 11.3602 104.687 11.5381 104.778 12.1951C104.552 12.5929 104.562 12.8979 104.626 13.3173C104.158 13.7951 104.249 14.4611 104.325 15.2821C104.142 15.7829 104.129 16.3314 104.29 16.8402C104.296 17.0003 104.485 17.0283 104.763 16.985C104.705 17.0918 104.637 17.1909 104.587 17.3028C104.431 17.5264 104.545 17.7209 104.797 17.759C105.357 17.8454 105.994 17.562 106.575 17.2646C107.316 16.9937 108.043 16.6853 108.754 16.3407C108.926 16.2594 111.977 15.0991 111.719 14.3747C111.816 13.9845 111.909 13.5931 111.992 13.1991C112.077 13.1248 112.143 13.0305 112.183 12.9245C112.223 12.8186 112.237 12.7042 112.223 12.5916V12.3667C112.304 12.2055 112.366 12.0348 112.405 11.8583C112.444 11.6423 112.438 11.486 112.357 11.3703C112.357 11.3309 112.357 11.2941 112.364 11.2547C112.727 11.0539 113.131 10.8238 113.257 10.4235C113.462 9.77282 113.487 9.57838 113.005 9.10434C113.017 9.0713 113.031 9.04207 113.045 9.0103C113.045 9.0103 113.055 8.99886 113.057 8.99377C113.072 8.95819 113.082 8.92896 113.096 8.89592C113.177 8.73696 113.29 8.59676 113.428 8.48416C113.415 8.61125 113.399 8.73833 113.389 8.87305C113.52 9.37631 113.65 9.87873 113.779 10.3803C113.952 10.4515 114.004 10.5303 113.936 10.6154C113.987 11.6601 114.023 12.7047 114.043 13.7494C114.075 15.6163 114.058 17.6027 114.403 19.4061V19.401ZM113.929 1.72437C113.878 1.74089 113.82 1.76503 113.767 1.78537L114.369 1.49688L114.51 1.53246C114.306 1.59855 114.109 1.66845 113.924 1.72945L113.929 1.72437ZM111.475 3.02828C111.48 2.97931 111.48 2.92984 111.475 2.88086L112.41 2.43351C112.085 2.6216 111.769 2.8224 111.469 3.03337L111.475 3.02828Z" fill="#8FB8DF"/>
</svg>
