<svg width="43" height="32" viewBox="0 0 43 32" fill="none" xmlns="http://www.w3.org/2000/svg">
<path fill-rule="evenodd" clip-rule="evenodd" d="M20.3684 3.70845C19.8263 3.89197 19.3734 4.22698 19.046 5.0358C19.0467 5.03425 19.047 5.03346 19.047 5.03348C19.0475 5.03362 19.0287 5.0915 19.0191 5.22853C19.009 5.3712 19.0124 5.54947 19.0319 5.74886C19.0728 6.16675 19.1696 6.53621 19.2405 6.70876C19.3148 6.88954 19.3741 7.03924 19.4281 7.17585C19.5014 7.36087 19.5651 7.52187 19.6439 7.70351C19.7662 7.98562 19.8649 8.1684 19.9565 8.29517C20.0394 8.40994 20.1024 8.45875 20.1537 8.48725C20.2052 8.51589 20.3184 8.56475 20.5567 8.57763C20.6756 8.58405 20.7904 8.60415 20.8999 8.63629C21.143 8.40619 21.4631 8.25658 21.8175 8.23012C21.822 8.22832 21.827 8.22628 21.8325 8.22399C21.9105 8.19132 22.0242 8.13233 22.1769 8.0399C22.3265 7.94936 22.4821 7.8461 22.6497 7.73333C22.6699 7.71973 22.6908 7.70568 22.7121 7.6913C22.8443 7.60217 22.9953 7.50037 23.1309 7.41569C23.14 7.40695 23.1675 7.38014 23.21 7.32607C23.2826 7.23359 23.3654 7.10438 23.4434 6.9508C23.5209 6.79811 23.5816 6.64523 23.6206 6.5138C23.6558 6.39543 23.6625 6.3311 23.6638 6.31895C23.6641 6.31653 23.6641 6.31618 23.6641 6.31788C23.6641 5.49627 23.6332 4.67973 23.4407 4.07766C23.3497 3.79322 23.2535 3.66172 23.199 3.60913C23.1729 3.58386 23.1304 3.5428 22.9725 3.53331C21.8615 3.46659 21.0154 3.48942 20.3684 3.70845ZM17.0468 9.23358C16.8652 8.86042 16.7169 8.48321 16.5927 8.16761C16.5473 8.05227 16.5052 7.94516 16.4659 7.84948C16.2576 7.34284 16.108 6.67384 16.0462 6.04079C15.9881 5.44742 15.9785 4.61869 16.2651 3.91037C16.9267 2.27576 18.0539 1.32477 19.4064 0.866879C20.654 0.444505 22.0169 0.470516 23.1524 0.538709C24.0024 0.589762 24.7269 0.913671 25.2839 1.45193C25.8125 1.96287 26.1157 2.59346 26.2981 3.1638C26.6523 4.27131 26.6641 5.53516 26.6641 6.31788C26.6641 7.01582 26.399 7.75619 26.1183 8.3091C26.0028 8.53641 25.8532 8.79464 25.6688 9.04753L25.6768 9.05072C26.7369 9.47457 27.9016 9.94022 29.0552 10.7807C29.1671 10.8622 29.2948 10.9285 29.5663 11.0665L29.5718 11.0692C29.8116 11.1911 30.1708 11.3735 30.5245 11.6463C30.6717 11.7599 30.8175 11.8786 30.9472 11.9841L30.9671 12.0002C31.1074 12.1144 31.2314 12.2149 31.3538 12.3087C31.6049 12.5012 31.7842 12.6139 31.9238 12.6751C31.9784 12.699 32.0423 12.7241 32.1136 12.7521C32.5918 12.94 33.4043 13.2593 34.0044 14.2446C34.2657 14.6737 34.616 15.0984 35.0264 15.5908L35.0523 15.6218C35.4658 16.1181 35.8241 16.652 36.1339 17.1137L36.1528 17.1418C36.4824 17.633 36.762 18.0471 37.0684 18.4148C37.7194 19.196 38.2759 20.3574 38.511 21.3729C38.9399 23.2261 39.395 25.8663 39.4843 28.0315C39.5602 28.0364 39.6346 28.0415 39.7071 28.0464L39.7254 28.0476C40.1579 28.077 40.5271 28.1021 40.8902 28.1021C41.7186 28.1021 42.3902 28.7736 42.3902 29.6021C42.3902 30.4305 41.7186 31.1021 40.8902 31.1021C40.4231 31.1021 39.9636 31.0708 39.5607 31.0434L39.5039 31.0395C39.0696 31.01 38.6957 30.9863 38.3302 30.9896C37.8398 30.9939 37.3469 31.0182 36.818 31.0441L36.7447 31.0477C36.1992 31.0745 35.6162 31.1021 35.0248 31.1021C33.7902 31.1021 32.5616 31.138 31.3347 31.2176C31.1374 31.2304 30.967 31.2587 30.7327 31.2976C30.5999 31.3197 30.4466 31.3451 30.2563 31.3731C29.8171 31.4377 29.2105 31.506 28.572 31.3904C26.6257 31.0383 24.6308 30.8772 22.6483 30.8772C21.6835 30.8772 20.7172 30.8378 19.7796 30.7973C19.7133 30.7944 19.6473 30.7915 19.5813 30.7887C18.7041 30.7506 17.8529 30.7137 17.0054 30.7041C15.1846 30.6836 13.4778 30.7925 11.8543 31.2567C11.0781 31.4786 10.3085 31.5083 9.65504 31.4982C9.35823 31.4936 9.06229 31.48 8.79507 31.4677C8.76718 31.4664 8.7396 31.4651 8.71237 31.4639C8.41384 31.4502 8.15126 31.4394 7.90237 31.4394H2C1.17157 31.4394 0.5 30.7678 0.5 29.9394C0.5 29.111 1.17157 28.4394 2 28.4394H3.51296C3.58474 26.8625 3.95037 25.181 4.50466 23.7769C4.5434 23.6788 4.58317 23.5772 4.62406 23.4728C5.01094 22.485 5.49737 21.2431 6.14674 20.2413C6.19131 20.1725 6.22768 20.0851 6.35134 19.7877L6.35643 19.7755C6.4454 19.5616 6.59189 19.2102 6.83378 18.8656C6.83894 18.8406 6.84465 18.8111 6.85208 18.7718C6.85344 18.7647 6.85495 18.7566 6.85663 18.7476C6.87329 18.6583 6.90587 18.4838 6.95474 18.3197C7.00251 18.1593 7.12788 17.7762 7.46557 17.452C7.49699 17.4219 7.55377 17.35 7.71975 17.1007C7.72794 17.0884 7.73657 17.0754 7.74562 17.0617C7.87584 16.8654 8.09354 16.5373 8.37014 16.2564C8.78936 15.8308 9.09159 15.495 9.31304 15.1174C9.75988 14.3554 10.3022 13.8142 10.7699 13.3842C10.9036 13.2614 11.0248 13.1526 11.137 13.0519C11.4483 12.7725 11.6896 12.556 11.9301 12.2781C12.4902 11.631 13.0954 11.2759 13.5475 11.0233C13.5895 10.9998 13.6295 10.9775 13.6678 10.9562C14.066 10.7344 14.278 10.6163 14.4896 10.4188C15.1993 9.75649 16.0716 9.45523 16.7791 9.29098C16.8675 9.27044 16.957 9.25136 17.0468 9.23358ZM6.51697 28.4394H7.90237C8.2281 28.4394 8.55364 28.4535 8.84948 28.467C8.87595 28.4682 8.90217 28.4694 8.92817 28.4706C9.20302 28.4832 9.45306 28.4947 9.70138 28.4986C10.2472 28.507 10.6728 28.4743 11.0297 28.3722C13.0588 27.7921 15.0984 27.6824 17.0392 27.7043C17.9372 27.7144 18.8349 27.7534 19.7024 27.7911C19.7715 27.7941 19.8404 27.7971 19.9091 27.8001C20.8501 27.8407 21.7564 27.8772 22.6483 27.8772C24.7912 27.8772 26.9661 28.0512 29.106 28.4384C29.2427 28.4631 29.4476 28.4597 29.82 28.405C29.8905 28.3946 29.9783 28.3802 30.0777 28.3638C30.3801 28.314 30.7893 28.2467 31.1405 28.2239C32.4383 28.1397 33.732 28.1021 35.0248 28.1021C35.4972 28.1021 35.9748 28.0816 36.4827 28.0569C36.3954 26.1835 35.9925 23.796 35.5882 22.0495C35.4502 21.4533 35.0903 20.7272 34.7638 20.3354C34.3486 19.8372 33.9894 19.302 33.6792 18.8396L33.6617 18.8135C33.3319 18.322 33.053 17.9088 32.7478 17.5426C32.7478 17.5426 32.7478 17.5426 32.7478 17.5426L32.6943 17.4784C32.3145 17.0229 31.8296 16.4412 31.4421 15.805C31.4002 15.7362 31.3767 15.7131 31.3746 15.711C31.3743 15.7106 31.372 15.7076 31.354 15.6971C31.3262 15.6809 31.2773 15.6563 31.1646 15.6089C31.1404 15.5988 31.1056 15.5845 31.0645 15.5676C30.9666 15.5273 30.8326 15.4723 30.7192 15.4226C30.2498 15.2168 29.8454 14.9325 29.5285 14.6896C29.3669 14.5657 29.2109 14.4389 29.074 14.3275L29.0656 14.3207C28.9266 14.2076 28.8078 14.111 28.6921 14.0217C28.5846 13.9388 28.456 13.8673 28.2075 13.7411C28.1916 13.733 28.1749 13.7245 28.1574 13.7157C27.938 13.6047 27.6068 13.4372 27.2887 13.2054C26.4609 12.6023 25.6157 12.2573 24.5062 11.8136L24.4653 11.7972C23.745 11.5091 22.9856 11.4548 22.0911 11.5312C21.6392 11.5698 21.1723 11.6397 20.6618 11.7231C20.5573 11.7402 20.45 11.758 20.3405 11.7761C19.9325 11.8438 19.4946 11.9164 19.0599 11.9744C18.9024 11.9954 18.753 12.0137 18.6095 12.0312C18.1973 12.0816 17.8324 12.1262 17.4575 12.2133C16.9677 12.327 16.6888 12.4699 16.5365 12.6121C16.0388 13.0765 15.5003 13.3727 15.1356 13.5733C15.0913 13.5976 15.0496 13.6205 15.0108 13.6422C14.6273 13.8565 14.4031 14.0049 14.1985 14.2413C13.8214 14.6771 13.3883 15.0647 13.0475 15.3698C12.9577 15.4501 12.8744 15.5247 12.8001 15.593C12.4072 15.9541 12.1226 16.2568 11.9009 16.635C11.4773 17.3572 10.9454 17.917 10.5075 18.3615C10.4519 18.418 10.3845 18.5116 10.2169 18.7633C10.2105 18.7728 10.204 18.7827 10.1971 18.793C10.1064 18.9296 9.97035 19.1344 9.79751 19.3416C9.7779 19.4453 9.74292 19.6288 9.68496 19.8171C9.62483 20.0125 9.514 20.3041 9.29227 20.585C9.27128 20.6116 9.22966 20.6793 9.12638 20.9276C9.11786 20.9481 9.10835 20.9714 9.09788 20.997C9.01434 21.2014 8.86909 21.5568 8.66416 21.873C8.18995 22.6046 7.81491 23.5577 7.4017 24.6078C7.36647 24.6974 7.33097 24.7876 7.2951 24.8785C6.8738 25.9457 6.58752 27.2438 6.51697 28.4394ZM22.7037 15.2452C23.1204 14.5293 24.0387 14.2868 24.7546 14.7035C25.0271 14.8621 25.2692 15.07 25.4004 15.1826C25.4106 15.1914 25.4201 15.1996 25.4289 15.2071C25.5998 15.3531 25.6536 15.3929 25.6816 15.4092C26.1481 15.6808 26.5674 15.9989 26.9295 16.2878C27.0815 16.409 27.2154 16.5183 27.3415 16.6212C27.5448 16.7872 27.728 16.9366 27.9339 17.0931C29.2636 18.1032 30.6867 19.5579 31.5031 21.364C31.5614 21.4928 31.6364 21.6395 31.7202 21.8032C32.0907 22.5274 32.6306 23.5827 32.6306 24.8829C32.6306 25.7114 31.9591 26.3829 31.1306 26.3829C30.3022 26.3829 29.6306 25.7114 29.6306 24.8829C29.6306 24.3598 29.4952 24.0888 29.2056 23.5091C29.0867 23.271 28.9417 22.9808 28.7695 22.5998C28.2272 21.4001 27.2092 20.31 26.1192 19.482C25.8781 19.2989 25.6172 19.0863 25.3829 18.8955C25.2663 18.8005 25.1562 18.7108 25.0585 18.6329C24.7297 18.3705 24.4466 18.1615 24.1723 18.0019C23.8851 17.8347 23.6385 17.6236 23.5001 17.505C23.493 17.499 23.4863 17.4932 23.4799 17.4877C23.3975 17.4173 23.3461 17.3736 23.2986 17.3361C23.2528 17.2999 23.2382 17.2921 23.2454 17.2962C22.5294 16.8795 22.2869 15.9612 22.7037 15.2452Z" fill="#EA5A24"/>
</svg>
