<svg width="995" height="610" viewBox="0 0 995 610" fill="none" xmlns="http://www.w3.org/2000/svg">
<g clip-path="url(#clip0_729_2082)">
<path d="M402.829 392.241C402.366 397.734 398.569 401.102 394.962 404.596C394.786 404.762 394.554 404.959 394.343 404.973C391.427 405.208 388.506 405.43 385.59 405.623C384.272 405.715 382.903 405.527 381.653 405.826C378.571 406.546 375.683 407.324 372.421 405.957C370.752 405.259 368.366 405.591 366.51 406.141C359.957 408.085 353.26 407.513 346.61 407.789C342.235 407.972 337.855 408.224 333.094 408.465C334.694 410.521 336.131 412.617 337.833 414.491C341.112 418.105 344.518 421.611 347.92 425.104C348.91 426.117 350.153 426.872 351.123 427.906C352.355 429.205 353.379 430.693 354.557 432.036C355.708 433.335 356.883 434.625 358.156 435.803C361.511 438.906 364.941 441.945 368.325 445.012C369.739 446.292 371.157 447.584 372.551 448.885C375.347 451.509 378.232 454.037 380.885 456.803C383.01 459.025 385.637 460.76 387.67 462.824C390.613 465.819 394.135 467.775 397.271 470.329C399.602 472.229 402.275 473.692 404.585 475.612C405.823 476.639 407.417 478.184 407.437 479.527C407.49 481.843 406.245 484.272 403.699 484.939C400.917 485.669 397.983 486.098 395.108 486.171C389.493 486.312 384.681 488.715 380.149 490.447C381.055 493.228 381.817 495.61 382.603 497.985C383.493 500.637 384.645 503.014 387.273 504.546C388.372 505.187 389.087 506.641 389.764 507.85C390.902 509.854 391.649 512.107 392.937 513.995C396.196 518.789 399.512 523.551 401.002 529.245C401.863 532.554 408.059 535.272 412.014 533.796C414.489 532.869 417.136 532.223 419.51 533.717C420.696 534.464 421.594 535.939 422.205 537.278C422.737 538.454 422.508 539.945 422.929 541.198C423.743 543.617 422.43 544.841 420.746 546.171C414.678 550.926 407.065 552.716 400.672 556.848C399.846 557.373 398.911 557.731 398.081 558.245C395.813 559.644 394.605 558.459 393.491 556.568C391.98 553.997 390.197 551.583 388.767 548.972C386.024 543.983 380.564 541.578 377.551 536.879C376.841 535.774 376.131 534.67 375.446 533.558C374.961 532.771 374.642 531.876 374.076 531.17C369.369 525.242 364.536 519.422 359.935 513.405C357.468 510.174 355.408 506.622 353.418 503.614C345.288 506.26 337.345 508.9 329.358 511.405C327.88 511.873 326.23 511.776 324.028 512.007C323.892 514.075 323.382 516.278 323.672 518.369C324.886 527.067 322.602 535.622 322.872 544.277C323.005 548.618 322.959 552.95 322.929 557.29C322.897 560.876 322.715 564.457 322.67 568.046C322.643 570.2 322.803 572.347 322.788 574.497C322.763 577.028 322.96 579.622 322.4 582.044C322.137 583.182 320.49 584.541 319.252 584.836C312.524 586.405 305.769 587.849 298.955 588.988C295.132 589.625 291.931 587.618 289.313 585.003C286.592 582.273 287.06 578.411 289.965 575.657C292.037 573.701 293.897 571.504 295.861 569.421C296.142 569.127 296.434 568.573 296.706 568.579C300.042 568.64 299.674 566.061 299.545 564.174C299.292 560.29 298.783 556.408 298.067 552.594C297.703 550.648 296.735 548.791 295.88 546.952C294.318 543.561 295.366 540.238 296.623 537.266C298.196 533.57 298.232 530.077 297.297 526.334C296.772 524.266 296.612 522.119 296.22 519.548C293.791 520.204 291.196 520.927 288.581 521.59C282.205 523.206 275.822 524.799 269.443 526.403C269.118 526.482 268.809 526.609 268.484 526.647C267.417 526.806 266.338 526.928 265.267 527.074C265.161 525.921 264.889 524.755 264.978 523.62C265.474 518.022 268.214 512.691 267.017 506.861C266.864 506.142 266.999 505.356 267.065 504.606C267.363 501.339 267.938 500.787 271.28 500.576C272.476 494.683 273.789 488.778 274.818 482.83C275.502 478.884 275.922 474.875 276.188 470.89C276.582 464.934 276.63 458.955 277.04 453.007C277.291 449.431 277.939 445.874 278.397 442.311C278.479 441.651 278.809 440.842 278.553 440.345C277.04 437.397 277.467 434.277 277.553 431.186C277.588 430.136 277.62 429.073 277.683 427.528C275.256 429.182 273.145 430.732 270.935 432.099C268.171 433.795 265.222 435.214 262.498 436.991C258.275 439.755 254.173 442.723 250.027 445.597C246.96 447.729 243.889 449.848 240.818 451.967C239.046 453.192 237.138 454.245 235.482 455.62C232.017 458.515 226.528 459.128 222.587 456.877C217.337 453.877 215.583 450.684 216.967 445.12C218.051 440.747 218.821 436.031 222.991 433.149C223.753 432.631 224.679 432.37 225.461 431.873C226.78 431.039 228.204 430.278 229.277 429.187C232.804 425.651 235.92 421.601 240.966 419.999C241.125 419.947 241.344 419.876 241.385 419.755C243.52 414.635 249.084 413.093 252.387 409.117C254.868 406.138 258.147 403.829 260.954 401.107C262.7 399.433 264.387 397.656 265.839 395.74C268.715 391.944 271.815 388.425 275.3 385.132C277.576 382.974 278.807 379.714 280.435 376.89C281.046 375.828 282.02 374.472 281.776 373.513C281.266 371.493 279.977 369.767 277.608 369.324C275.41 368.907 273.195 368.521 271.043 367.913C268.028 367.06 265.076 366.024 262.576 365.219C263.338 368.222 264.36 371.735 265.09 375.301C265.808 378.791 264.588 379.971 261.044 379.479C255.747 378.734 250.479 377.791 245.173 377.144C242.966 376.864 240.671 376.977 238.444 377.176C236.136 377.374 234.541 376.369 233.378 374.616C232.186 372.818 232.381 370.893 233.609 369.198C234.964 367.313 236.783 365.696 237.867 363.684C239.899 359.906 241.556 355.926 243.353 352.049C240.854 351.203 238.386 350.496 236.025 349.537C233.587 348.55 232.98 346.602 234.183 344.335C235.247 342.343 236.561 340.459 237.39 338.367C238.768 334.856 240.638 334.598 244.299 336.321C244.42 334.163 244.73 332.093 244.618 330.051C243.942 316.753 249.949 307.337 261.242 300.909C262.784 300.056 264.192 299.206 265.621 298.377C269.911 296.98 274.214 295.58 278.504 294.183C284.533 293.489 290.057 294.888 295.195 298.086C296.257 298.739 297.397 299.299 298.569 299.753C302.515 301.275 305.664 303.785 308.114 307.21C309.367 308.947 310.632 310.681 311.921 312.446C314.369 309.531 317.249 309.228 320.71 311.285C322.345 312.251 324.144 312.933 325.734 313.967C326.828 314.677 327.981 315.61 328.533 316.726C329.245 318.167 328.656 319.546 327.238 320.614C325.539 321.896 324.004 323.394 322.389 324.81C322.285 325.235 322.173 325.677 322.068 326.102C326.652 328.131 331.264 330.083 335.789 332.226C338.113 333.318 340.395 334.572 342.493 336.047C344.647 337.572 344.968 339.923 343.151 341.837C339.79 345.386 336.136 348.653 332.675 352.1C330.332 354.428 328.158 356.943 325.795 359.251C324.506 360.507 322.979 361.53 321.059 363.045L316.425 348.81C315.6 349.793 315.268 350.266 314.864 350.681C311.467 354.201 308.332 358.068 304.537 361.112C302.344 362.864 302.439 364.317 303.05 366.399C303.711 368.679 305.418 368.582 307.264 368.372C307.978 368.288 308.74 368.391 309.436 368.583C318.682 371.105 327.923 373.655 337.181 376.172C337.873 376.352 338.635 376.333 339.357 376.314C340.804 376.288 342.299 375.91 343.679 376.175C349.044 377.208 354.139 379.57 359.848 378.845C363.191 378.431 366.608 377.953 369.884 379.652C370.692 380.064 371.844 379.918 372.834 379.852C375.409 379.689 377.981 379.391 380.565 379.211C382.86 379.057 385.247 378.564 387.446 378.981C390.231 379.505 392.89 380.798 395.591 381.767C395.712 381.808 395.837 382.024 395.872 382.174C396.402 385.253 399.027 386.193 401.296 387.492L402.853 392.273L402.829 392.241ZM285.012 370.368C285.733 371.55 286.354 373.331 287.574 374.431C290.778 377.314 290.483 378.854 287.261 381.792C283.414 385.297 277.34 386.181 275.363 391.87C275.227 392.279 274.613 392.506 274.242 392.856C264.47 402.176 254.11 410.891 245.803 421.689C243.983 424.049 241.342 426.082 238.662 427.414C235.53 428.973 232.797 430.847 230.356 433.288C228.466 435.185 222.95 443.456 222.15 446.051C221.876 446.949 221.82 448.06 222.097 448.955C223.014 451.935 227.73 453.503 230.388 451.855C231.096 451.422 231.917 451.168 232.609 450.727C236.111 448.481 240.778 449.485 244.041 446.506C247.533 443.319 251.141 440.242 254.677 437.108C254.845 436.959 254.895 436.659 254.966 436.421C256.094 432.64 259.551 431.582 262.541 430.002C263.046 429.729 263.986 429.72 264.434 430.019C266.775 431.578 267.747 429.926 269.111 428.443C271.676 425.639 274.406 422.969 277.233 420.43C278.725 419.094 280.496 419.772 280.759 421.737C281.137 424.515 281.487 427.369 281.314 430.151C281.049 434.554 280.98 438.691 284.471 442.128C286.018 443.649 285.972 445.539 285.025 447.682C284.408 449.097 284.443 451.109 284.898 452.634C285.818 455.707 285.55 458.776 284.078 461.252C282.15 464.483 281.196 467.722 281.28 471.418C281.446 479.337 280.039 487.026 277.783 494.588C275.331 502.833 272.923 511.091 270.544 519.353C270.038 521.109 270.687 522.234 272.676 521.843C277.267 520.955 281.874 520.117 286.393 518.969C289.869 518.094 293.183 516.638 296.643 515.714C299.795 514.877 300.349 515.627 300.088 518.802C299.92 520.934 299.998 523.121 300.284 525.241C300.944 530.126 302.856 535.129 302.28 539.822C301.594 545.375 304.644 550.48 303.104 555.892C303.066 556.026 303.162 556.237 303.255 556.356C305.79 559.672 303.964 562.843 302.974 566.053C301.739 570.044 299.568 573.233 295.833 575.339C294.331 576.192 293.009 577.432 291.777 578.656C291.205 579.22 290.54 580.489 290.792 580.933C291.361 581.935 292.447 583.281 293.375 583.316C297.735 583.502 302.141 583.539 306.486 583.136C309.248 582.885 311.893 581.484 314.643 581.155C318.291 580.724 318.387 580.854 317.43 577.375C317.275 576.818 317.04 576.22 317.093 575.677C317.461 571.631 318.035 567.599 318.282 563.552C318.583 558.557 319.157 553.486 318.603 548.553C318.255 545.456 317.995 542.545 318.458 539.454C318.768 537.383 318.385 535.214 318.343 533.096C318.328 532.264 318.358 531.445 318.396 530.61C318.58 526.287 318.775 521.96 318.971 517.633C319.076 515.305 319.193 512.974 319.257 510.646C319.303 508.756 320.286 507.883 322.072 507.45C328.325 505.954 334.583 504.429 340.796 502.771C344.415 501.796 348.058 500.812 350.838 497.964C351.283 497.509 352.752 497.301 353.147 497.645C355.326 499.62 357.481 501.684 359.351 503.949C360.822 505.737 361.731 507.99 363.174 509.814C367.089 514.8 371.243 519.613 375.113 524.627C376.885 526.923 378.116 529.626 379.802 531.991C381.625 534.568 383.676 536.976 385.662 539.433C387.374 541.547 389.23 543.56 390.877 545.722C393.115 548.663 395.214 551.717 397.335 554.669C398.376 554.141 399.096 553.745 399.832 553.398C404.57 551.181 409.352 549.058 414.026 546.727C415.323 546.075 416.434 544.931 417.471 543.851C418.695 542.562 418.096 539.56 416.569 538.721C415.609 541.57 413.232 541.845 410.766 541.973C407.875 542.118 407.034 539.329 405.628 538.033C404.398 538.312 403.158 538.932 402.807 538.601C400.721 536.622 398.33 534.702 397.017 532.242C395.315 529.086 394.721 525.354 393.276 522.033C392.054 519.233 389.93 516.808 388.867 513.957C387.51 510.325 385.584 507.39 382.212 505.438C381.897 505.258 381.682 504.761 381.583 504.375C380.753 501.164 378.334 499.24 375.956 497.276C374.924 496.424 373.892 495.573 372.929 494.645C371.093 492.855 371.463 490.225 373.853 489.366C380.229 487.088 386.688 485.067 393.056 482.764C395.482 481.894 397.725 480.543 400.055 479.42C400.029 479.172 399.994 478.941 399.967 478.693C395.29 476.708 392.831 471.802 388.04 469.921C387.498 469.706 386.723 468.65 386.858 468.404C387.758 466.694 386.473 466.06 385.488 465.396C382.264 463.234 379.264 460.892 377.447 457.342C377.155 456.776 376.599 456.309 376.095 455.88C371.319 451.849 366.391 448.016 362.432 443.058C361.23 441.561 358.996 439.873 357.381 440.008C355.43 440.184 354.486 439.52 353.317 438.497C352.467 437.749 351.584 437.065 350.733 436.357C349.758 437.335 348.966 438.133 347.991 439.112C347.161 436.562 346.571 434.379 345.706 432.3C345.403 431.576 344.433 431.123 343.792 430.522C342.644 429.438 341.143 428.51 340.455 427.183C339.198 424.772 338.731 421.929 337.381 419.603C335.177 415.815 332.999 411.734 328.49 410.18C325.877 409.277 325.88 407.131 326.199 405.421C326.523 403.724 328.464 403.227 330.267 403.382C332.925 403.596 335.59 403.875 338.265 403.976C344.109 404.205 350.009 405.765 355.782 403.373C356.184 403.202 356.75 403.49 357.244 403.518C358.48 403.588 359.719 403.751 360.948 403.675C365.259 403.378 369.551 402.938 373.854 402.658C378.088 402.372 382.334 402.245 386.56 401.975C387.087 401.939 387.557 401.354 388.097 401.232C389.051 401.016 390.091 400.691 390.994 400.896C393.325 401.433 394.663 400.781 395.348 398.494C395.712 397.296 396.138 396.119 396.64 394.97C398.16 391.521 396.672 388.484 392.994 387.455C391.809 387.126 390.404 386.828 389.623 386.003C386.492 382.719 382.515 382.138 378.395 382.319C373.772 382.528 369.301 383.161 364.537 382.067C359.732 380.974 354.532 381.52 349.501 381.552C348.84 381.551 347.957 382.567 347.555 383.319C346.147 385.868 345.151 386.287 342.529 384.982C341.18 384.315 339.777 383.692 338.575 382.815C329.612 376.316 319.029 374.283 308.555 372.378C304.012 371.549 300.131 371.14 299.041 365.761L285.012 370.328L285.012 370.368ZM292.843 363.947C295.07 362.547 297.201 360.936 299.572 359.814C303.61 357.892 306.521 354.867 308.517 351.02C313.935 340.581 314.985 329.851 309.683 319.03C307.592 314.759 306.218 310.04 301.562 307.292C295.393 303.661 289.21 300.156 282.1 298.976C279.237 298.505 276.075 298.482 273.301 299.196C268.725 300.375 264.635 302.637 260.768 305.664C256.725 308.815 254.986 312.915 253.789 317.312C252.23 323 251.371 328.892 250.314 334.713C250.103 335.888 249.881 337.607 250.517 338.317C254.27 342.559 255.799 347.755 257.276 352.994C257.3 353.068 257.372 353.125 257.424 353.202C259.436 356.73 262.703 358.567 266.02 360.766C269.801 363.272 273.617 363.648 277.661 364.518C282.834 365.626 287.746 365.269 292.867 363.939L292.843 363.947ZM237.541 347.114C240.345 347.403 242.508 347.548 244.647 347.864C245.542 348.004 246.772 348.305 247.141 348.941C247.589 349.699 247.725 351.233 247.246 351.875C244.419 355.655 243.716 360.12 242.762 364.518C242.373 366.305 242.183 368.039 240.407 369.252C239.702 369.737 239.652 371.197 239.379 372.015C246.242 373.261 252.687 374.428 260.032 375.747C257.411 361.774 251.51 350.271 241.559 340.531C240.292 342.603 239.177 344.437 237.533 347.131L237.541 347.114ZM323.664 354.98C323.855 354.904 324.472 354.811 324.867 354.453C329.982 349.834 335.089 345.19 340.116 340.464C340.426 340.174 340.293 338.774 339.93 338.528C339.026 337.904 337.795 337.185 336.833 337.337C333.952 337.802 331.921 336.615 329.869 334.868C326.431 331.926 322.248 330.711 317.725 329.863C318.505 335.114 317.793 340.216 320.286 344.976C321.883 348.018 322.536 351.556 323.652 354.984L323.664 354.98ZM317.407 323.585C317.585 323.635 317.763 323.685 317.941 323.735C319.685 321.346 321.432 318.97 323.379 316.299C321.346 316.016 319.593 315.764 317.531 315.477C317.487 318.406 317.441 320.997 317.395 323.589L317.407 323.585Z" fill="white"/>
<path d="M596.099 297.331C600.785 300.234 605.753 299.193 610.709 298.381C610.946 298.338 611.243 298.269 611.381 298.108C613.307 295.907 615.226 293.695 617.12 291.469C617.98 290.465 618.644 289.254 619.63 288.428C622.045 286.383 624.391 284.529 625.239 281.095C625.674 279.338 627.363 277.62 628.911 276.458C634.378 272.357 637.911 266.639 642.097 261.464C644.852 258.06 647.666 254.694 650.697 251.015C651.395 253.525 652.22 255.928 652.711 258.412C653.657 263.2 654.441 268.024 655.218 272.837C655.441 274.236 655.306 275.685 655.558 277.08C655.866 278.843 656.451 280.552 656.827 282.299C657.183 283.997 657.519 285.71 657.705 287.434C658.197 291.978 658.592 296.543 659.037 301.089C659.222 302.987 659.414 304.896 659.627 306.79C660.068 310.599 660.377 314.423 661.016 318.201C661.533 321.233 661.36 324.376 661.805 327.239C662.455 331.387 661.926 335.381 662.107 339.422C662.243 342.425 661.824 345.444 661.988 348.443C662.075 350.049 662.365 352.25 663.432 353.066C665.26 354.49 667.952 354.938 670.006 353.292C672.25 351.494 674.343 349.394 676.115 347.129C679.577 342.705 684.374 340.274 688.466 337.668C690.16 340.053 691.618 342.085 693.056 344.132C694.654 346.427 695.876 348.769 695.54 351.793C695.399 353.057 696.14 354.498 696.707 355.762C697.638 357.871 699.002 359.813 699.749 361.973C701.655 367.448 703.502 372.949 707.186 377.54C709.328 380.203 707.817 386.798 704.275 389.093C702.055 390.528 699.958 392.268 699.742 395.065C699.635 396.463 700.283 398.063 700.994 399.352C701.622 400.48 702.956 401.185 703.71 402.269C705.167 404.366 706.933 404.041 709.004 403.482C716.439 401.445 722.415 396.399 729.543 393.73C730.458 393.38 731.303 392.843 732.21 392.482C734.685 391.496 734.453 389.819 733.6 387.798C732.437 385.052 731.561 382.181 730.317 379.477C727.947 374.3 729.271 368.483 727.294 363.263C726.831 362.034 726.367 360.806 725.883 359.592C725.541 358.733 725.012 357.945 724.783 357.069C722.829 349.755 721.038 342.406 718.95 335.125C717.827 331.218 716.202 327.447 714.974 324.055C721.945 319.106 728.799 314.302 735.572 309.383C736.829 308.475 737.735 307.093 739.234 305.462C740.975 306.586 743.047 307.49 744.553 308.97C750.813 315.13 759.043 318.396 765.831 323.772C769.237 326.467 772.743 329.012 776.245 331.576C779.143 333.688 782.127 335.676 785.035 337.78C786.781 339.043 788.409 340.451 790.144 341.721C792.191 343.209 794.156 344.914 796.434 345.908C797.505 346.375 799.578 345.863 800.553 345.045C805.824 340.579 811.01 336.016 815.986 331.224C818.777 328.534 819.074 324.768 818.535 321.107C817.966 317.295 814.586 315.368 810.643 316.059C807.837 316.557 804.964 316.74 802.121 317.075C801.717 317.126 801.099 317.03 800.942 317.252C799.002 319.966 797.151 318.134 795.712 316.905C792.745 314.386 789.932 311.664 787.296 308.815C785.951 307.363 785.037 305.479 784.07 303.695C782.279 300.42 778.986 299.281 775.851 298.518C771.945 297.578 769.12 295.524 766.672 292.542C765.324 290.887 763.696 289.479 761.865 287.632C763.84 286.073 765.968 284.42 768.059 282.716C773.157 278.561 778.241 274.385 783.332 270.219C783.589 270.006 783.876 269.834 784.1 269.596C784.864 268.833 785.605 268.04 786.361 267.267C785.498 266.495 784.724 265.581 783.76 264.976C778.969 262.037 773.056 261.059 769.088 256.623C768.602 256.071 767.891 255.711 767.249 255.317C764.449 253.608 763.663 253.741 761.501 256.298C756.057 253.745 750.533 251.279 745.144 248.56C741.569 246.756 738.099 244.704 734.741 242.541C729.724 239.306 724.895 235.781 719.875 232.564C716.854 230.634 713.612 229.034 710.479 227.278C709.9 226.949 709.054 226.732 708.808 226.23C707.342 223.259 704.583 221.741 702.05 219.968C701.186 219.37 700.314 218.762 699.036 217.891C701.81 216.928 704.313 216.158 706.729 215.198C709.738 213.99 712.635 212.468 715.686 211.341C720.422 209.598 725.251 208.074 730.03 206.459C733.57 205.267 737.102 204.065 740.635 202.863C742.674 202.17 744.657 201.266 746.748 200.757C751.138 199.7 754.903 195.659 755.445 191.152C756.166 185.149 754.648 181.838 749.356 179.632C745.199 177.895 740.953 175.701 736.153 177.332C735.283 177.634 734.522 178.222 733.656 178.554C732.2 179.115 730.741 179.805 729.225 180.017C724.283 180.74 719.174 180.828 714.88 183.924C714.744 184.02 714.556 184.154 714.433 184.115C709.05 182.776 704.495 186.325 699.335 186.606C695.463 186.822 691.655 188.078 687.796 188.71C685.411 189.113 682.979 189.408 680.575 189.431C675.812 189.477 671.139 189.869 666.418 190.703C663.328 191.245 659.977 190.289 656.739 189.913C655.522 189.771 653.853 189.744 653.228 188.976C651.91 187.363 651.294 185.299 652.35 183.133C653.325 181.119 654.336 179.111 655.131 177.021C656.243 174.092 657.171 171.104 658.015 168.617C659.972 171.019 662.183 173.934 664.612 176.646C666.985 179.303 668.66 179.027 670.377 175.888C672.938 171.191 675.321 166.4 677.964 161.754C679.056 159.815 680.515 158.039 682.002 156.37C683.537 154.635 683.68 152.755 682.966 150.776C682.234 148.748 680.571 147.757 678.479 147.732C676.158 147.696 673.775 148.192 671.513 147.863C667.268 147.242 663.086 146.2 658.901 145.332C659.712 142.821 660.615 140.418 661.253 137.951C661.914 135.405 660.712 133.757 658.175 133.371C655.941 133.038 653.645 132.969 651.472 132.388C647.831 131.401 646.509 132.749 645.709 136.715C643.906 135.526 642.058 134.54 640.486 133.234C630.212 124.763 619.071 123.973 607.178 129.207C605.574 129.937 604.052 130.561 602.535 131.214C598.856 133.826 595.166 136.445 591.487 139.057C587.336 143.484 585.166 148.753 584.67 154.785C584.561 156.026 584.332 157.275 583.998 158.488C582.867 162.563 583.004 166.587 584.294 170.596C584.942 172.638 585.579 174.687 586.229 176.775C582.429 177.002 580.468 179.134 580.057 183.138C579.857 185.027 579.333 186.878 579.215 188.771C579.133 190.073 579.195 191.555 579.761 192.663C580.494 194.093 581.952 194.443 583.656 193.941C585.698 193.341 587.815 193.002 589.915 192.55C590.318 192.719 590.74 192.892 591.143 193.062C590.04 197.951 588.858 202.818 587.88 207.729C587.372 210.246 587.018 212.825 586.952 215.389C586.892 218.028 588.589 219.687 591.208 219.369C596.061 218.787 600.863 217.801 605.694 217.077C608.959 216.583 612.274 216.338 615.535 215.816C617.313 215.53 619.045 214.914 621.406 214.276L612.739 202.069C614.021 201.992 614.598 202.007 615.172 201.93C620.023 201.302 624.997 201.09 629.703 199.857C632.417 199.142 633.527 200.085 634.834 201.815C636.271 203.706 635.175 205.019 633.906 206.376C633.413 206.899 633.042 207.572 632.781 208.245C629.294 217.171 625.832 226.111 622.334 235.045C622.066 235.708 621.596 236.309 621.15 236.877C620.267 238.023 619.072 238.997 618.462 240.264C616.094 245.187 614.952 250.686 610.967 254.837C608.641 257.275 606.221 259.733 605.632 263.376C605.481 264.27 604.677 265.108 604.034 265.864C602.367 267.834 600.595 269.721 598.911 271.688C597.419 273.44 595.599 275.062 594.624 277.076C593.384 279.624 592.837 282.53 592.005 285.276C591.965 285.398 592.065 285.627 592.164 285.745C594.32 288.006 593.51 290.674 593.2 293.27L596.111 297.37L596.099 297.331ZM648.775 189.699C649.293 190.983 650.354 192.543 650.509 194.179C650.914 198.47 652.326 199.151 656.605 198.315C661.713 197.317 666.044 192.967 671.79 194.772C672.2 194.906 672.747 194.548 673.25 194.459C686.558 192.169 699.731 189.046 713.353 188.815C716.333 188.76 719.54 187.853 722.206 186.494C725.325 184.909 728.46 183.832 731.874 183.327C734.523 182.941 744.453 183.443 747.013 184.347C747.898 184.663 748.823 185.28 749.376 186.037C751.222 188.549 749.67 193.27 746.762 194.422C745.992 194.732 745.299 195.24 744.532 195.533C740.642 197.005 738.665 201.35 734.329 202.195C729.688 203.098 725.066 204.161 720.442 205.132C720.223 205.177 719.952 205.039 719.718 204.954C716.01 203.606 713.1 205.751 710.048 207.209C709.529 207.452 708.961 208.202 708.934 208.74C708.79 211.548 706.884 211.344 704.881 211.555C701.1 211.942 697.329 212.542 693.605 213.298C691.643 213.7 691.132 215.526 692.553 216.909C694.558 218.868 696.641 220.85 698.977 222.37C702.671 224.782 706.033 227.193 706.711 232.045C707.01 234.193 708.555 235.284 710.84 235.801C712.344 236.149 713.939 237.376 714.891 238.651C716.811 241.222 719.434 242.836 722.3 243.13C726.043 243.509 729.212 244.673 732.129 246.944C738.389 251.798 745.401 255.253 752.817 257.949C760.898 260.896 768.963 263.886 777.015 266.901C778.727 267.542 779.243 268.733 777.743 270.097C774.294 273.254 770.875 276.453 767.259 279.397C764.484 281.666 761.339 283.459 758.535 285.686C755.984 287.717 756.256 288.61 758.96 290.293C760.773 291.429 762.482 292.795 764.013 294.288C767.542 297.73 770.419 302.248 774.53 304.584C779.397 307.343 781.678 312.836 786.942 314.825C787.071 314.875 787.184 315.078 787.224 315.223C788.375 319.235 792.009 319.66 795.177 320.778C799.117 322.166 802.971 322.324 806.889 320.581C808.47 319.884 810.253 319.561 811.971 319.302C812.764 319.179 814.179 319.401 814.385 319.868C814.851 320.923 815.285 322.597 814.76 323.363C812.309 326.975 809.712 330.534 806.799 333.782C804.95 335.85 802.249 337.138 800.345 339.151C797.824 341.822 797.872 341.977 795.649 339.134C795.294 338.678 794.954 338.133 794.486 337.851C791.019 335.735 787.439 333.792 784.043 331.578C779.853 328.842 775.44 326.279 771.81 322.894C769.53 320.768 767.348 318.824 764.59 317.353C762.743 316.367 761.229 314.767 759.554 313.47C758.895 312.963 758.22 312.498 757.526 312.031C753.946 309.601 750.356 307.179 746.765 304.756C744.834 303.453 742.892 302.157 740.984 300.821C739.44 299.731 738.153 299.999 736.74 301.175C731.811 305.304 726.857 309.419 721.822 313.419C718.881 315.743 715.92 318.082 711.976 318.616C711.345 318.702 710.303 319.757 710.343 320.279C710.629 323.206 711.002 326.167 711.706 329.018C712.264 331.266 713.532 333.339 714.136 335.585C715.805 341.7 717.192 347.905 718.911 354.001C719.698 356.793 721.135 359.392 722.028 362.156C723.011 365.155 723.721 368.238 724.51 371.297C725.186 373.932 725.697 376.622 726.45 379.233C727.477 382.783 728.678 386.289 729.784 389.752C728.739 390.273 727.992 390.615 727.274 390.999C722.67 393.481 718.114 396.055 713.457 398.417C712.16 399.071 710.58 399.28 709.095 399.469C707.329 399.684 705.277 397.413 705.513 395.687C708.373 396.615 710.011 394.87 711.583 392.967C713.424 390.732 711.685 388.394 711.483 386.493C712.44 385.671 713.678 385.045 713.621 384.566C713.276 381.711 713.16 378.647 711.968 376.127C710.448 372.879 707.806 370.177 706.001 367.037C704.481 364.387 703.8 361.236 702.145 358.683C700.038 355.427 698.83 352.132 699.273 348.261C699.316 347.9 699.046 347.431 698.794 347.122C696.711 344.542 696.608 341.453 696.449 338.372C696.381 337.036 696.312 335.7 696.141 334.374C695.799 331.832 693.466 330.562 691.352 331.968C685.723 335.729 680.249 339.71 674.604 343.45C672.459 344.879 670.037 345.875 667.746 347.076C667.563 346.907 667.398 346.741 667.215 346.572C668.41 341.634 665.937 336.734 667.283 331.766C667.434 331.203 667.048 329.951 666.769 329.913C664.86 329.616 665.117 328.207 665.171 327.02C665.358 323.143 665.266 319.338 663.498 315.763C663.218 315.191 663.175 314.466 663.13 313.806C662.741 307.568 662.602 301.327 660.982 295.192C660.496 293.335 660.473 290.535 661.543 289.319C662.848 287.857 662.878 286.703 662.753 285.156C662.659 284.027 662.637 282.91 662.575 281.805C663.943 281.605 665.055 281.445 666.422 281.245C664.87 279.059 663.469 277.285 662.315 275.35C661.915 274.675 662.129 273.626 662.028 272.753C661.843 271.186 661.993 269.427 661.338 268.083C660.151 265.637 658.147 263.567 657.085 261.097C655.357 257.069 653.378 252.888 654.819 248.341C655.651 245.705 653.927 244.427 652.364 243.665C650.808 242.913 649.252 244.175 648.302 245.715C646.889 247.976 645.524 250.283 644.01 252.49C640.71 257.319 638.446 262.986 633.084 266.195C632.707 266.416 632.601 267.042 632.328 267.455C631.648 268.489 631.04 269.582 630.246 270.523C627.438 273.807 624.526 276.991 621.735 280.278C618.982 283.508 616.349 286.84 613.614 290.072C613.27 290.474 612.52 290.503 612.1 290.864C611.358 291.501 610.477 292.142 610.104 292.989C609.145 295.181 607.824 295.867 605.58 295.053C604.4 294.631 603.201 294.271 601.98 293.99C598.305 293.154 596.753 290.149 598.12 286.583C598.562 285.435 599.16 284.129 598.963 283.01C598.193 278.538 600.098 274.999 602.699 271.799C605.623 268.212 608.797 264.999 610.759 260.523C612.745 256.013 616.284 252.163 619.309 248.143C619.702 247.612 621.044 247.509 621.887 247.634C624.773 248.024 625.703 247.474 626.219 244.591C626.487 243.11 626.824 241.612 626.836 240.124C626.962 229.054 631.639 219.345 636.353 209.799C638.396 205.658 640.381 202.298 636.712 198.216L648.742 189.675L648.775 189.699ZM638.951 192.159C636.5 193.112 633.936 193.863 631.621 195.097C627.67 197.194 623.506 197.728 619.227 197.037C607.617 195.164 598.376 189.61 592.849 178.903C590.667 174.678 587.697 170.761 588.266 165.385C589.029 158.267 589.9 151.213 593.192 144.801C594.52 142.222 596.387 139.67 598.613 137.868C602.289 134.897 606.543 132.962 611.278 131.661C616.218 130.294 620.547 131.342 624.791 133.002C630.287 135.142 635.529 137.964 640.833 140.586C641.902 141.117 643.414 141.963 643.606 142.897C644.774 148.44 648.034 152.765 651.36 157.074C651.405 157.137 651.408 157.229 651.439 157.317C653.072 161.035 652.599 164.753 652.387 168.727C652.145 173.257 650.172 176.545 648.459 180.31C646.265 185.125 643.05 188.855 638.93 192.174L638.951 192.159ZM658.404 137.724C656.964 140.147 655.791 141.971 654.77 143.876C654.349 144.678 653.858 145.845 654.148 146.52C654.489 147.332 655.64 148.356 656.44 148.354C661.161 148.338 665.165 150.435 669.265 152.291C670.931 153.043 672.437 153.925 674.469 153.222C675.279 152.946 676.481 153.776 677.301 154.044C674.21 160.297 671.304 166.167 667.985 172.851C658.329 162.416 652.611 150.821 650.724 137.025C653.142 137.243 655.279 137.441 658.422 137.727L658.404 137.724ZM613.377 211.559C613.203 211.667 612.76 212.107 612.237 212.211C605.479 213.564 598.706 214.895 591.915 216.114C591.498 216.19 590.452 215.249 590.471 214.81C590.51 213.713 590.667 212.296 591.361 211.614C593.453 209.578 593.711 207.24 593.531 204.551C593.219 200.037 594.737 195.954 596.752 191.817C600.503 195.573 605.024 198.043 607.359 202.883C608.849 205.978 611.301 208.612 613.388 211.551L613.377 211.559ZM591.901 187.82C591.835 187.992 591.769 188.165 591.703 188.338C588.746 188.313 585.796 188.299 582.491 188.271C583.476 186.47 584.319 184.912 585.317 183.085C587.695 184.796 589.803 186.304 591.912 187.812L591.901 187.82Z" fill="white"/>
<path opacity="0.3" d="M219.155 450.014C217.755 454.047 215.539 457.373 211.524 459.279C208.471 460.728 205.244 460.971 202.137 460.073C197.035 458.589 191.57 458.425 186.807 455.558C185.377 454.705 183.224 455.17 181.472 454.74C178.518 454.022 175.616 453.099 172.713 452.24C170.91 451.707 169.121 451.109 167.318 450.524C165.068 449.784 162.844 448.915 160.555 448.303C156.438 447.208 152.308 446.075 148.112 445.339C146.244 445.01 145.622 446.675 145.935 448.382C146.348 450.653 146.953 452.888 147.379 455.159C147.742 457.097 147.977 459.061 148.237 461.024C148.299 461.512 148.22 462.037 148.333 462.512C149.643 467.673 150.978 472.822 152.326 477.97C152.552 478.843 152.933 479.691 153.083 480.577C154.068 486.673 154.913 492.781 156.026 498.852C156.452 501.163 157.556 503.348 158.148 505.633C158.69 507.739 158.975 509.92 159.324 512.063C159.599 513.744 159.694 515.463 160.097 517.12C160.927 520.56 161.924 523.95 162.831 527.378C163.423 529.612 164.041 531.834 164.493 534.093C165.746 540.459 166.909 546.825 168.124 553.205C168.612 555.797 169.139 558.377 169.653 560.957C170.555 565.553 171.432 570.148 172.398 574.743C172.988 577.554 173.654 580.353 174.372 583.139C175.493 587.466 173.831 589.883 169.31 590.402C167.94 590.55 166.569 590.711 164.533 590.933C172.615 593.032 175.357 595.43 179.266 603.41C177.062 606.864 174.198 609.07 169.821 608.808C168.221 608.712 166.581 609.115 164.954 609.3L153.561 609.252C149.763 608.107 145.963 607.591 142.167 609.204L138.698 609.189C138.673 609.112 138.673 608.996 138.622 608.958C134.193 605.758 133.036 600.918 131.79 595.988C130.128 589.441 128.145 582.981 126.201 576.522C125.785 575.122 124.83 573.874 124.362 572.487C123.717 570.561 123.29 568.571 122.8 566.607C122.346 564.796 122.085 562.923 121.466 561.189C120.593 558.723 119.412 556.371 118.45 553.93C116.55 549.087 114.714 544.231 112.879 539.363C112.562 538.528 112.195 537.616 112.237 536.757C112.407 532.769 110.834 529.363 108.903 525.841C107.012 531.053 105.3 536.188 103.282 541.194C101.833 544.779 99.7707 548.105 98.3472 551.703C94.245 562.074 90.6668 572.626 88.7125 583.673C88.5945 584.314 88.5528 585.096 88.1796 585.556C84.1647 590.438 84.3302 596.685 82.7699 602.347C81.4698 607.035 79.5163 608.835 74.6667 608.276C69.6125 607.69 64.5859 606.617 59.5302 606.378C55.2936 606.18 51.0145 606.944 46.7506 607.144C45.2141 607.215 43.5755 607.195 42.1437 606.74C39.4973 605.882 38.8263 604.122 39.1195 601.405C39.7203 595.585 43.4068 592.676 48.4837 590.941C49.3426 590.649 50.2015 590.371 51.0606 590.067C51.1888 590.016 51.3046 589.888 51.2789 589.901C48.3883 589.286 45.408 588.67 42.4281 587.991C40.7015 587.599 39.9645 586.3 40.7389 584.816C43.9526 578.686 44.1484 571.775 46.0192 565.344C48.9032 555.443 50.0606 545.162 53.3923 535.378C54.7016 531.536 54.3616 527.174 55.2876 523.164C57.1005 515.297 59.3865 507.535 61.2506 499.668C62.4498 494.62 63.0991 489.442 64.2344 484.368C65.3306 479.448 66.7594 474.619 67.9707 469.725C69.143 464.997 70.3536 460.27 71.2956 455.49C71.675 453.581 71.1973 451.514 71.436 449.566C71.6084 448.169 72.267 446.812 72.7848 445.468C73.0956 444.622 73.5343 443.829 73.909 443.01C72.8229 442.518 71.7763 441.783 70.6376 441.624C69.5501 441.465 68.3452 441.819 67.2431 442.097C62.3476 443.32 57.2252 443.709 53.2528 447.616C49.139 451.664 43.6667 453.052 38.1339 453.618C34.5222 453.988 31.2154 454.897 27.9955 456.461C25.3529 457.732 22.6358 458.477 19.6174 457.81C18.479 457.562 17.1082 457.8 15.9927 458.205C12.2872 459.575 8.66589 459.187 5.08687 457.89C2.64546 457.007 1.12947 455.257 1.0259 452.512C1.00243 452.011 1.03021 451.499 0.878547 451.036C-1.82507 442.56 3.99428 437.827 8.98261 432.833C9.8954 431.927 11.7132 431.934 13.1105 431.492C14.6488 431.011 16.2251 430.607 17.6999 429.998C19.7904 429.122 21.7795 427.989 23.8826 427.138C30.2818 424.524 36.7191 422.012 43.131 419.41C46.7218 417.95 50.376 416.606 53.8144 414.851C57.009 413.21 60.1661 411.364 62.9665 409.118C67.0257 405.865 70.5627 401.969 74.6346 398.754C79.4386 394.953 84.8388 392.449 91.3003 393.284C92.1191 393.391 93.3904 392.473 93.9187 391.68C94.8207 390.286 95.353 388.531 93.8996 387.127C92.7266 385.993 91.3222 385.089 90.0079 384.096C86.3199 381.323 82.2206 378.946 79.034 375.675C74.4453 370.962 70.4478 365.712 71.1192 358.34C71.468 354.584 71.2154 350.774 71.2314 346.991C68.5845 346.274 66.3075 345.854 64.1988 344.999C63.1509 344.571 61.8244 343.424 61.7004 342.474C61.589 341.576 62.6832 340.157 63.6202 339.559C66.8808 337.469 70.2811 335.624 73.6561 333.727C80.8423 329.692 88.0411 325.683 95.2528 321.687C95.7532 321.407 96.3177 321.127 96.8555 321.091C102.772 320.705 108.767 319.641 114.577 320.255C119.273 320.75 123.782 323.193 128.319 324.892C138.979 328.875 145.591 342.446 144.483 353.099C143.883 358.816 142.924 364.583 141.313 370.091C139.872 374.971 136.093 378.341 131.564 380.784C129.575 381.853 127.802 383.346 125.991 384.711C124.039 386.177 124.106 388.46 123.893 390.563C123.852 391.012 124.387 391.706 124.847 391.99C125.753 392.533 126.762 393.063 127.786 393.26C136.049 394.872 142.272 400.529 149.438 404.304C151.993 405.649 153.773 408.427 156.263 409.938C160.758 412.676 165.717 414.646 170.134 417.486C176.811 421.773 184.277 424.113 191.459 427.183C198.104 430.02 204.607 433.177 211.226 436.052C215.366 437.852 218.068 440.775 219.201 445.153L219.18 450.116L219.155 450.014ZM172.067 604.367C172.594 600.958 171.13 599.003 168.446 597.837C166.491 596.995 164.51 596.204 162.504 595.452C158.618 594.012 154.784 592.572 152.766 588.447C151.458 585.773 152.027 584.404 155.023 584.506C157.711 584.594 160.41 585.093 163.032 585.681C166.69 586.505 169.001 584.771 168.735 581.076C168.663 580.037 168.142 579.034 167.955 577.982C167.792 577.045 167.745 576.057 167.775 575.108C167.818 574.057 168.348 572.905 168.083 571.967C166.405 566.074 165.278 560.156 165.087 553.961C164.963 549.972 165.084 545.497 161.398 542.39C160.862 541.939 160.829 540.695 160.832 539.81C160.826 538.322 161.152 536.836 161.069 535.361C161.009 534.36 160.773 532.833 160.134 532.497C156.57 530.699 155.394 527.167 154.153 523.981C152.773 520.436 152.329 516.522 151.602 512.749C151.326 511.311 151.64 509.761 151.313 508.348C149.83 501.942 148.026 495.599 147.401 489.03C147.242 487.324 146.854 485.334 147.525 483.926C148.972 480.906 148.856 478.058 147.947 475.041C147.379 473.166 146.785 471.291 146.281 469.39C146.017 468.363 145.714 467.285 145.77 466.246C145.98 461.887 145.307 457.716 143.672 453.669C143.064 452.153 142.585 450.496 142.528 448.88C142.449 446.276 141.806 444.081 139.97 442.136C139.384 441.505 139.032 439.99 139.394 439.312C139.742 438.673 141.19 438.23 142.073 438.349C144.018 438.601 145.897 439.327 147.828 439.758C151.128 440.504 154.802 440.481 157.663 442.006C163.871 445.303 170.549 446.421 177.251 447.822C181.549 448.725 185.715 450.282 189.909 451.646C194.204 453.037 198.448 454.581 202.743 455.984C205.786 456.972 208.845 457.126 211.313 454.674C213.64 452.376 214.088 449.415 213.166 446.384C212.169 443.122 210.312 440.319 207.04 438.984C201.8 436.846 196.587 434.451 191.14 433.043C184.209 431.256 178.232 427.832 173.105 423.219C166.206 417.008 158.001 413.716 149.539 410.64C146.957 409.706 144.557 408.221 142.156 406.851C136.23 403.44 130.641 399.287 124.392 396.67C117.772 393.884 113.659 385.71 121.838 379.935C122.236 379.655 122.66 379.374 123.02 379.042C125.037 377.243 127.233 375.597 129.021 373.579C131.813 370.448 134.094 366.829 137.994 364.819C138.495 364.565 138.959 363.848 139.076 363.284C139.521 361.016 140.274 358.685 140.065 356.453C139.687 352.219 138.731 348.034 137.981 343.824C137.806 342.862 137.824 341.708 137.289 340.974C133.14 335.198 128.925 329.973 121.433 327.607C116.498 326.047 111.83 325.104 106.748 324.98C101.256 324.841 96.0046 325.524 91.2435 328.262C87.1753 330.604 83.3614 333.371 79.4712 336.009C75.7351 338.546 75.5891 339.763 76.4538 344.153C77.6193 350.07 78.2211 356.062 75.4569 361.86C74.9532 362.91 74.7792 364.692 75.3387 365.579C77.3351 368.768 79.408 372.021 82.0211 374.674C85.1185 377.83 88.8337 380.231 93.1411 381.852C98.5349 383.876 100.262 387.115 98.7339 391.264C97.5683 394.427 94.9371 396.044 91.8216 397.134C86.8599 398.87 81.9868 400.85 77.0884 402.74C76.7166 402.88 76.3442 403.135 76.0869 403.429C72.2412 407.67 68.0647 411.41 62.6909 413.721C58.6124 415.474 54.8635 418.023 50.7345 419.621C47.2081 420.992 43.7852 422.118 41.7477 425.624C41.3995 426.225 40.668 426.645 40.0645 427.066C32.091 432.598 23.0168 435.073 13.601 436.572C12.3328 436.772 10.8089 436.881 9.89677 437.634C6.74931 440.224 4.20103 443.407 3.22364 447.468C2.31141 451.26 5.58385 455.417 9.39912 455.343C12.5103 455.279 15.5966 455.023 18.3574 453.034C19.7571 452.027 21.6542 451.471 23.3963 451.209C28.8663 450.373 33.8348 447.034 39.6559 447.93C40.0269 447.983 40.4504 447.741 40.8478 447.615C45.6418 446.16 50.3348 444.41 55.0277 442.661C60.9643 440.454 67.5088 439.828 73.8247 438.752C78.0395 438.039 79.0321 439.454 78.0415 443.605C77.2463 446.961 76.8349 450.397 76.1932 453.78C75.9443 455.125 75.5546 456.445 75.2033 457.777C74.722 459.57 73.3818 461.655 73.8749 463.107C75.6575 468.385 73.1321 472.209 70.4272 476.109C69.9119 476.851 69.1539 477.502 68.9072 478.322C67.3882 483.291 65.6134 488.221 64.619 493.296C63.4412 499.319 62.7882 505.382 62.9279 511.68C63.068 517.862 61.0952 524.202 59.3157 530.26C58.3673 533.514 57.0102 536.561 57.2642 540.05C57.3244 540.935 57.1668 541.884 56.9071 542.742C55.6995 546.764 54.0953 550.707 53.2458 554.795C51.1942 564.623 49.4623 574.516 47.6024 584.435C50.3163 584.446 53.197 584.394 56.077 584.484C62.0291 584.676 63.1017 585.321 64.1866 589.109C59.6839 591.283 55.1684 593.444 50.6912 595.644C48.0485 596.941 45.8519 598.714 44.7363 602.16C46.1676 602.743 47.6098 603.788 49.069 603.832C55.7126 603.976 62.3581 603.658 68.9887 603.853C76.1568 604.076 79.6766 601.218 80.2445 594.102C80.5015 590.859 80.9373 587.718 83.0483 585.021C83.6275 584.28 83.9135 583.255 84.1991 582.32C86.587 574.712 88.9109 567.078 91.3754 559.509C91.9591 557.729 92.6446 556.065 91.5127 554.316C89.7321 551.576 90.5106 549.117 91.8024 546.391C93.4429 542.923 94.7898 539.286 95.8424 535.597C97.051 531.357 98.0802 527.155 101.652 524.118C103.502 522.548 104.509 520.487 105.134 518.053C105.629 516.119 107.006 514.406 108 512.576C113.015 516.355 114.53 521.364 115.66 526.601C117.618 535.741 119.794 544.817 123.983 553.235C125.455 556.204 126.057 559.233 126.376 562.492C126.707 565.905 127.256 569.396 128.381 572.62C130.203 577.834 132.575 582.808 132.666 588.541C132.696 590.503 133.685 592.893 135.036 594.309C137.19 596.55 139.011 598.879 140.292 601.68C140.507 602.156 140.991 602.709 141.452 602.827C143.907 603.491 146.361 604.425 148.857 604.538C155.18 604.834 161.53 604.771 167.867 604.773C169.313 604.779 170.761 604.464 172.016 604.316L172.067 604.367Z" fill="white"/>
<path d="M401.686 393.193C404.829 396.083 408.355 397.962 412.795 397.74C416.17 397.571 419.127 396.256 421.438 393.994C425.229 390.271 429.965 387.538 432.802 382.757C433.658 381.329 435.775 380.719 437.114 379.51C439.376 377.479 441.495 375.292 443.644 373.161C444.979 371.837 446.273 370.463 447.583 369.094C449.214 367.377 450.762 365.558 452.488 363.935C455.596 361.021 458.697 358.067 462.044 355.431C463.533 354.258 464.869 355.429 465.402 357.081C466.114 359.277 466.639 361.531 467.34 363.734C467.938 365.613 468.661 367.453 469.361 369.306C469.538 369.765 469.856 370.19 469.982 370.662C471.272 375.828 472.535 380.995 473.786 386.168C473.999 387.044 474.066 387.971 474.353 388.822C476.372 394.658 478.521 400.438 480.415 406.312C481.135 408.548 481.197 410.996 481.758 413.289C482.278 415.4 483.06 417.456 483.767 419.51C484.321 421.12 485.052 422.679 485.481 424.329C486.379 427.752 487.107 431.21 487.931 434.659C488.468 436.907 488.975 439.156 489.648 441.36C491.559 447.56 493.549 453.718 495.5 459.912C496.298 462.427 497.056 464.949 497.825 467.465C499.207 471.939 500.611 476.401 501.936 480.906C502.748 483.662 503.486 486.442 504.173 489.236C505.235 493.578 507.843 494.919 512.071 493.236C513.348 492.717 514.631 492.21 516.53 491.441C510.406 497.117 509.126 500.527 509.463 509.408C513.039 511.406 516.607 511.993 520.338 509.689C521.701 508.846 523.337 508.425 524.857 507.818L534.869 502.379C537.672 499.573 540.774 497.319 544.881 496.941L547.93 495.285C547.916 495.205 547.861 495.104 547.887 495.046C550.273 490.131 549 485.32 547.763 480.387C546.126 473.833 544.813 467.205 543.466 460.596C543.17 459.166 543.42 457.614 543.175 456.171C542.831 454.169 542.265 452.214 541.767 450.252C541.309 448.443 540.651 446.669 540.376 444.848C539.977 442.263 539.903 439.632 539.595 437.027C538.974 431.861 538.292 426.715 537.603 421.558C537.486 420.673 537.378 419.696 536.934 418.959C534.895 415.527 534.668 411.783 534.7 407.766C538.834 411.461 542.774 415.174 546.922 418.627C549.896 421.098 553.288 423.051 556.245 425.545C564.77 432.737 572.918 440.336 579.871 449.14C580.279 449.649 580.686 450.318 581.232 450.546C587.081 452.945 589.893 458.525 593.948 462.773C597.314 466.287 599.887 466.947 603.893 464.158C608.067 461.248 611.986 457.923 616.326 455.318C619.964 453.137 624.094 451.784 627.945 449.941C629.331 449.275 630.765 448.482 631.811 447.403C633.735 445.394 633.493 443.526 631.948 441.272C628.662 436.43 624.038 435.614 618.745 436.49C617.85 436.64 616.962 436.802 616.061 436.941C615.924 436.957 615.762 436.899 615.79 436.898C618.045 434.988 620.378 433.034 622.681 431.024C624.016 429.861 624.05 428.369 622.665 427.428C616.932 423.551 613.487 417.556 608.794 412.779C601.564 405.424 595.676 396.917 588.109 389.878C585.136 387.114 583.37 383.111 580.655 380.018C575.333 373.947 569.643 368.193 564.276 362.148C560.829 358.269 557.805 354.016 554.402 350.085C551.107 346.27 547.562 342.694 544.177 338.957C540.906 335.349 537.601 331.758 534.507 327.995C533.269 326.493 532.711 324.446 531.578 322.843C530.765 321.694 529.542 320.811 528.449 319.872C527.775 319.275 527.013 318.784 526.295 318.24C527.019 317.293 527.592 316.149 528.52 315.47C529.403 314.815 530.632 314.557 531.734 314.279C536.625 313.038 541.321 310.955 546.67 312.515C552.21 314.132 557.687 312.763 562.828 310.641C566.184 309.256 569.527 308.491 573.104 308.344C576.033 308.212 578.779 307.581 581.122 305.565C582.007 304.807 583.327 304.367 584.501 304.196C588.414 303.647 591.42 301.591 593.957 298.753C595.69 296.82 596.196 294.56 594.987 292.093C594.771 291.642 594.504 291.203 594.418 290.724C592.786 281.978 585.418 280.565 578.66 278.53C577.427 278.163 575.83 279.031 574.389 279.303C572.807 279.608 571.227 279.999 569.639 280.16C567.383 280.379 565.095 280.323 562.84 280.57C555.966 281.298 549.106 282.134 542.227 282.878C538.373 283.293 534.518 283.84 530.658 283.923C527.068 283.99 523.413 283.859 519.883 283.208C514.767 282.265 509.807 280.508 504.698 279.605C498.666 278.532 492.725 278.884 487.429 282.68C486.758 283.161 485.204 282.955 484.363 282.507C482.908 281.706 481.609 280.413 482.224 278.488C482.72 276.934 483.529 275.473 484.216 273.976C486.151 269.787 488.636 265.752 489.894 261.362C491.703 255.037 492.738 248.52 488.655 242.346C486.569 239.203 484.987 235.727 483.182 232.403C485.174 230.518 486.98 229.07 488.432 227.318C489.153 226.445 489.778 224.806 489.437 223.911C489.11 223.067 487.474 222.336 486.366 222.252C482.504 221.956 478.636 221.941 474.765 221.869C466.525 221.718 458.286 221.596 450.041 221.492C449.468 221.482 448.838 221.503 448.347 221.726C442.954 224.188 437.169 226.09 432.344 229.383C428.442 232.042 425.628 236.329 422.436 239.974C414.933 248.53 415.536 263.615 421.557 272.473C424.793 277.224 428.369 281.849 432.396 285.937C435.977 289.553 440.901 290.732 446.047 290.738C448.305 290.738 450.574 291.213 452.815 291.558C455.229 291.925 456.251 293.967 457.435 295.718C457.683 296.094 457.541 296.959 457.27 297.427C456.729 298.334 456.091 299.279 455.283 299.937C448.769 305.27 445.966 313.2 441.443 319.918C439.83 322.312 439.577 325.602 438.099 328.112C435.437 332.652 432.003 336.736 429.458 341.33C425.606 348.267 420.139 353.864 415.267 359.969C410.758 365.614 406.526 371.474 402.058 377.141C399.264 380.688 398.268 384.541 399.343 388.934L401.712 393.295L401.686 393.193ZM516.256 506.842C514.178 504.088 514.541 501.673 516.353 499.375C517.676 497.708 519.046 496.073 520.457 494.46C523.198 491.352 525.893 488.268 525.717 483.678C525.602 480.705 524.452 479.768 521.863 481.277C519.537 482.628 517.396 484.345 515.365 486.105C512.534 488.562 509.676 488.13 508.161 484.749C507.732 483.8 507.716 482.67 507.383 481.655C507.082 480.753 506.656 479.86 506.181 479.039C505.645 478.133 504.633 477.369 504.422 476.418C503.109 470.433 501.299 464.687 498.534 459.14C496.754 455.568 494.527 451.684 496.303 447.202C496.561 446.551 496.001 445.439 495.579 444.662C494.88 443.348 493.889 442.194 493.263 440.855C492.842 439.946 492.328 438.488 492.731 437.89C495.019 434.619 494.381 430.951 493.966 427.557C493.502 423.781 492.04 420.124 490.893 416.456C490.455 415.059 489.444 413.842 489.063 412.444C487.336 406.099 485.921 399.658 483.361 393.577C482.693 391.998 482.093 390.062 480.834 389.14C478.13 387.165 476.883 384.602 476.255 381.514C475.867 379.593 475.502 377.661 475.046 375.748C474.793 374.718 474.548 373.625 474.008 372.737C471.758 368.997 470.376 365.004 469.899 360.666C469.716 359.043 469.354 357.357 468.639 355.906C467.475 353.576 467.002 351.337 467.698 348.755C467.915 347.922 467.508 346.421 466.868 345.995C466.259 345.597 464.773 345.893 464.052 346.416C462.458 347.559 461.148 349.088 459.651 350.382C457.097 352.601 453.851 354.321 452.053 357.02C448.147 362.863 442.795 367.011 437.555 371.418C434.198 374.249 431.265 377.593 428.218 380.781C425.093 384.04 422.087 387.41 418.968 390.68C416.756 392.991 414.135 394.575 410.8 393.584C407.662 392.662 405.865 390.266 405.242 387.161C404.576 383.815 404.883 380.466 407.133 377.741C410.735 373.377 414.192 368.799 418.323 364.979C423.582 360.123 427.225 354.277 429.555 347.786C432.691 339.048 438.358 332.263 444.354 325.547C446.186 323.501 447.597 321.056 449.063 318.713C452.667 312.902 455.623 306.597 459.887 301.333C464.398 295.745 464.15 286.597 454.211 285.385C453.728 285.326 453.222 285.28 452.747 285.158C450.118 284.528 447.405 284.119 444.874 283.188C440.933 281.753 437.21 279.645 432.823 279.722C432.262 279.735 431.514 279.324 431.143 278.883C429.677 277.096 427.911 275.399 427.037 273.334C425.365 269.426 424.225 265.288 422.892 261.225C422.59 260.294 422.028 259.286 422.152 258.387C423.071 251.335 424.309 244.737 429.787 239.105C433.395 235.394 437.06 232.352 441.477 229.836C446.248 227.113 451.197 225.228 456.686 225.384C461.379 225.521 466.048 226.151 470.724 226.633C475.216 227.097 475.921 228.101 477.238 232.377C479.014 238.14 481.321 243.703 486.502 247.5C487.442 248.186 488.44 249.673 488.367 250.719C488.119 254.474 487.834 258.321 486.789 261.895C485.555 266.141 483.42 270.015 480.394 273.483C476.602 277.82 476.614 281.491 479.925 284.421C482.45 286.655 485.533 286.833 488.793 286.318C493.985 285.497 499.215 284.933 504.424 284.278C504.818 284.225 505.267 284.273 505.632 284.41C511.028 286.325 516.478 287.641 522.306 287.132C526.728 286.744 531.237 287.213 535.63 286.666C539.385 286.203 542.933 285.574 546.388 287.697C546.979 288.061 547.823 288.085 548.553 288.17C558.196 289.266 567.36 287.149 576.363 284.01C577.575 283.585 578.969 282.96 580.128 283.191C584.127 283.981 587.879 285.578 590.663 288.692C593.262 291.6 592.349 296.81 588.953 298.552C586.183 299.97 583.343 301.206 579.97 300.761C578.26 300.537 576.326 300.945 574.667 301.54C569.454 303.394 563.496 302.806 558.794 306.353C558.492 306.575 558.005 306.562 557.595 306.639C552.684 307.628 547.722 308.31 542.76 308.991C536.486 309.859 530.425 312.407 524.353 314.45C520.303 315.818 520.099 317.534 522.937 320.721C525.227 323.301 527.217 326.132 529.384 328.808C530.24 329.875 531.208 330.852 532.149 331.859C533.422 333.211 535.59 334.412 535.843 335.924C536.772 341.418 540.808 343.59 545.037 345.744C545.842 346.153 546.818 346.367 547.423 346.972C551.115 350.63 555.013 354.132 558.292 358.13C562.181 362.877 565.628 367.908 568.487 373.521C571.291 379.032 576.031 383.682 580.468 388.175C582.844 390.592 585.482 392.632 586.911 395.826C587.277 396.634 587.865 397.395 588.5 398.028C591.468 400.998 594.749 403.712 597.433 406.909C603.894 414.594 610.105 422.488 616.44 430.343C614.055 431.638 611.493 432.956 608.999 434.399C603.848 437.387 603.209 438.464 604.047 442.314C609.042 442.096 614.043 441.861 619.028 441.678C621.97 441.569 624.744 442.09 627.358 444.597C626.374 445.788 625.598 447.391 624.334 448.122C618.551 451.394 612.547 454.261 606.8 457.573C600.592 461.164 596.138 460.314 592.268 454.316C590.506 451.581 588.635 449.021 585.498 447.645C584.637 447.267 583.9 446.5 583.206 445.811C577.5 440.241 571.838 434.619 566.083 429.119C564.725 427.828 563.333 426.686 563.502 424.61C563.773 421.354 561.923 419.557 559.494 417.767C556.407 415.489 553.498 412.924 550.824 410.174C547.752 407.012 544.855 403.798 540.271 402.814C537.898 402.308 536.035 400.97 534.332 399.122C532.98 397.653 530.956 396.796 529.215 395.655C526.587 401.359 527.625 406.487 529.11 411.635C531.713 420.612 534.095 429.637 534.392 439.035C534.501 442.347 535.406 445.3 536.668 448.322C537.993 451.484 539.163 454.819 539.698 458.191C540.564 463.646 540.829 469.15 543.464 474.243C544.367 475.986 544.628 478.558 544.109 480.446C543.273 483.439 542.772 486.353 542.97 489.427C543.006 489.948 542.841 490.664 542.491 490.986C540.644 492.734 538.925 494.718 536.78 496C531.351 499.255 525.729 502.207 520.148 505.209C518.877 505.9 517.453 506.308 516.277 506.772L516.256 506.842Z" fill="white"/>
<path d="M758.427 189.897C762.321 191.649 766.26 192.321 770.403 190.711C773.553 189.487 775.945 187.307 777.425 184.432C779.85 179.704 783.483 175.618 784.669 170.186C785.031 168.561 786.848 167.316 787.738 165.746C789.244 163.106 790.566 160.362 791.935 157.662C792.785 155.985 793.579 154.274 794.392 152.562C795.398 150.418 796.294 148.205 797.42 146.12C799.452 142.375 801.464 138.594 803.81 135.038C804.853 133.455 806.49 134.146 807.516 135.545C808.884 137.405 810.093 139.379 811.453 141.249C812.612 142.843 813.878 144.362 815.127 145.9C815.439 146.279 815.875 146.583 816.143 146.991C818.996 151.487 821.822 155.993 824.639 160.508C825.118 161.272 825.474 162.131 826.014 162.848C829.77 167.751 833.63 172.559 837.279 177.537C838.667 179.433 839.497 181.736 840.752 183.735C841.911 185.575 843.301 187.28 844.619 189.006C845.653 190.36 846.837 191.609 847.765 193.039C849.696 196.005 851.476 199.058 853.345 202.071C854.563 204.036 855.753 206.01 857.086 207.889C860.854 213.172 864.683 218.389 868.487 223.652C870.036 225.787 871.55 227.942 873.073 230.087C875.794 233.898 878.533 237.691 881.21 241.549C882.849 243.908 884.426 246.314 885.959 248.749C888.335 252.535 891.233 252.986 894.715 250.056C895.763 249.161 896.821 248.275 898.381 246.947C894.358 254.264 894.218 257.904 897.336 266.226C901.359 266.995 904.93 266.428 907.745 263.065C908.773 261.836 910.193 260.921 911.445 259.865L919.233 251.549C921.008 248.002 923.242 244.885 927.021 243.233L929.392 240.701C929.354 240.629 929.269 240.55 929.276 240.487C929.991 235.07 927.267 230.906 924.539 226.614C920.92 220.91 917.585 215.034 914.224 209.185C913.493 207.921 913.241 206.37 912.554 205.077C911.596 203.286 910.442 201.609 909.352 199.904C908.347 198.331 907.164 196.855 906.329 195.214C905.135 192.886 904.236 190.413 903.122 188.037C900.906 183.33 898.636 178.662 896.357 173.985C895.968 173.181 895.557 172.288 894.903 171.728C891.887 169.114 890.492 165.632 889.257 161.81C894.344 164.014 899.253 166.296 904.278 168.266C907.879 169.674 911.713 170.458 915.306 171.893C925.663 176.032 935.791 180.677 945.164 186.841C945.711 187.195 946.308 187.702 946.899 187.747C953.205 188.18 957.633 192.589 962.82 195.343C967.121 197.617 969.771 197.433 972.695 193.523C975.739 189.446 978.411 185.055 981.708 181.215C984.474 178 987.967 175.414 991.04 172.451C992.147 171.382 993.257 170.178 993.91 168.824C995.103 166.311 994.285 164.615 992.108 162.962C987.464 159.403 982.818 160.086 978.071 162.585C977.269 163.009 976.477 163.443 975.666 163.858C975.541 163.917 975.368 163.913 975.395 163.903C976.933 161.379 978.532 158.79 980.084 156.157C980.985 154.633 980.547 153.205 978.936 152.749C972.273 150.877 967.114 146.273 961.154 143.218C951.976 138.516 943.707 132.298 934.306 128.002C930.614 126.316 927.676 123.074 924.125 120.993C917.161 116.91 909.948 113.242 902.949 109.195C898.456 106.601 894.246 103.517 889.777 100.859C885.448 98.2773 880.956 96.0003 876.566 93.5205C872.325 91.1267 868.057 88.7609 863.935 86.1638C862.286 85.1286 861.112 83.3621 859.531 82.1978C858.397 81.3637 856.959 80.9111 855.626 80.3643C854.798 80.01 853.92 79.7842 853.067 79.4941C853.455 78.3668 853.639 77.1009 854.306 76.164C854.937 75.2646 856.022 74.6317 856.98 74.021C861.231 71.3019 865.031 67.8448 870.599 67.6399C876.367 67.4288 881.133 64.4031 885.344 60.7698C888.092 58.3977 891.024 56.6181 894.372 55.351C897.111 54.3028 899.518 52.839 901.106 50.1867C901.707 49.1886 902.821 48.3553 903.882 47.8229C907.422 46.0692 909.627 43.1706 911.141 39.6776C912.176 37.2968 911.944 34.9926 910.019 33.0325C909.672 32.6719 909.28 32.34 909.048 31.9122C904.742 24.1268 897.305 25.1073 890.25 25.3052C888.964 25.3462 887.721 26.6731 886.44 27.3847C885.034 28.1729 883.658 29.0417 882.203 29.6955C880.13 30.6137 877.941 31.2818 875.879 32.2269C869.584 35.0837 863.337 38.0387 857.043 40.9137C853.516 42.5219 850.03 44.2557 846.393 45.5502C843.007 46.746 839.497 47.7735 835.942 48.2676C830.789 48.9849 825.528 48.8808 820.395 49.6338C814.333 50.5161 808.805 52.723 804.975 57.994C804.49 58.6622 802.95 58.9561 802.011 58.7956C800.378 58.4942 798.737 57.6763 798.714 55.6555C798.695 54.0244 799.002 52.3829 799.183 50.7455C799.699 46.1603 800.786 41.5478 800.596 36.9851C800.32 30.4127 799.248 23.902 793.428 19.3285C790.458 17.0029 787.861 14.2031 785.1 11.617C786.397 9.20062 787.655 7.25684 788.481 5.13648C788.889 4.08098 788.966 2.32898 788.361 1.58683C787.784 0.889084 786.002 0.710261 784.923 0.98036C781.165 1.91607 777.489 3.12113 773.793 4.27244C765.925 6.72619 758.067 9.20682 750.21 11.7056C749.663 11.8771 749.072 12.0954 748.676 12.4615C744.334 16.498 739.443 20.1259 735.901 24.7714C733.035 28.525 731.716 33.4803 729.836 37.9459C725.411 48.4301 730.737 62.5557 739.243 69.065C743.811 72.5544 748.663 75.8171 753.773 78.428C758.311 80.7308 763.355 80.2979 768.241 78.6826C770.384 77.9707 772.686 77.7069 774.922 77.3273C777.329 76.9152 778.942 78.5317 780.617 79.8198C780.971 80.0986 781.109 80.9645 781 81.4937C780.772 82.5253 780.465 83.6229 779.905 84.502C775.403 91.6165 775.243 100.025 773.067 107.827C772.29 110.607 773.087 113.809 772.476 116.657C771.38 121.804 769.408 126.762 768.44 131.924C766.971 139.721 763.546 146.756 760.846 154.085C758.346 160.864 756.176 167.759 753.721 174.546C752.187 178.792 752.457 182.763 754.862 186.593L758.484 189.985L758.427 189.897ZM902.974 261.649C900.134 259.691 899.718 257.284 900.713 254.533C901.443 252.534 902.229 250.55 903.059 248.575C904.681 244.761 906.267 240.985 904.653 236.685C903.607 233.899 902.221 233.373 900.239 235.62C898.457 237.635 896.967 239.94 895.594 242.25C893.681 245.475 890.833 245.964 888.329 243.234C887.624 242.468 887.252 241.401 886.616 240.542C886.046 239.781 885.36 239.068 884.65 238.438C883.856 237.747 882.655 237.342 882.156 236.505C879.023 231.239 875.495 226.357 871.122 221.964C868.307 219.134 864.97 216.15 865.243 211.337C865.283 210.637 864.401 209.759 863.755 209.154C862.678 208.128 861.374 207.345 860.358 206.271C859.672 205.54 858.724 204.32 858.919 203.625C860.059 199.799 858.298 196.519 856.834 193.43C855.205 189.992 852.664 186.981 850.42 183.862C849.564 182.675 848.221 181.838 847.419 180.631C843.781 175.154 840.408 169.487 836.061 164.522C834.93 163.235 833.75 161.586 832.265 161.108C829.076 160.086 827.086 158.046 825.516 155.313C824.543 153.613 823.587 151.894 822.552 150.222C821.987 149.325 821.411 148.364 820.617 147.692C817.303 144.851 814.734 141.498 812.914 137.531C812.229 136.048 811.354 134.562 810.218 133.411C808.379 131.566 807.225 129.59 807.072 126.921C807.015 126.061 806.156 124.765 805.415 124.562C804.71 124.376 803.394 125.125 802.874 125.849C801.722 127.436 800.96 129.3 799.948 131.001C798.223 133.911 795.684 136.566 794.828 139.694C792.963 146.471 789.191 152.093 785.607 157.928C783.313 161.672 781.583 165.77 779.696 169.756C777.757 173.833 775.966 177.979 774.037 182.065C772.666 184.955 770.677 187.285 767.2 187.396C763.931 187.509 761.471 185.802 759.901 183.051C758.214 180.086 757.451 176.811 758.727 173.516C760.77 168.238 762.609 162.804 765.326 157.877C768.786 151.611 770.401 144.915 770.567 138.02C770.789 128.74 774.029 120.514 777.604 112.251C778.697 109.732 779.266 106.967 779.919 104.281C781.508 97.6313 782.326 90.7158 784.715 84.3758C787.235 77.6507 784.116 69.0478 774.302 71.0288C773.825 71.1256 773.33 71.2411 772.841 71.2748C770.148 71.5058 767.444 71.9728 764.748 71.8865C760.556 71.7664 756.358 70.9394 752.219 72.395C751.69 72.5841 750.851 72.4295 750.36 72.1279C748.406 70.8939 746.195 69.8404 744.715 68.1562C741.897 64.9736 739.51 61.4056 736.965 57.9696C736.385 57.1813 735.534 56.4017 735.368 55.5096C734.018 48.5273 733.114 41.8752 736.538 34.8041C738.792 30.1453 741.312 26.1035 744.711 22.3238C748.381 18.2363 752.484 14.8873 757.743 13.3055C762.239 11.9564 766.869 11.0835 771.459 10.0669C775.868 9.09227 776.853 9.82229 779.451 13.4651C782.953 18.3754 786.895 22.9272 793.009 24.8987C794.117 25.2532 795.532 26.3502 795.793 27.3663C796.741 31.0073 797.683 34.7483 797.817 38.4697C797.984 42.8881 797.179 47.2378 795.4 51.4826C793.168 56.7933 794.337 60.2733 798.402 62.011C801.502 63.3353 804.485 62.5331 807.416 61.0164C812.085 58.6012 816.871 56.418 821.608 54.1548C821.965 53.9802 822.406 53.8846 822.796 53.8993C828.52 54.0159 834.107 53.5476 839.477 51.2279C843.552 49.4662 847.979 48.491 851.976 46.5868C855.394 44.9639 858.563 43.2493 862.511 44.1749C863.187 44.3346 863.995 44.0913 864.715 43.9414C874.212 41.9433 882.242 37.0459 889.797 31.23C890.813 30.4452 891.938 29.4121 893.112 29.2659C897.156 28.7562 901.22 29.0889 904.843 31.167C908.227 33.1078 909.002 38.3408 906.328 41.064C904.146 43.282 901.84 45.3498 898.499 45.9912C896.805 46.3172 895.098 47.3144 893.712 48.4011C889.348 51.8037 883.509 53.1231 880.164 57.9707C879.948 58.2768 879.481 58.4186 879.116 58.6206C874.767 61.1071 870.272 63.3173 865.778 65.5275C860.097 68.3285 855.148 72.6562 850.029 76.5089C846.617 79.0835 846.964 80.7766 850.662 82.9068C853.648 84.6336 856.428 86.6933 859.328 88.5498C860.478 89.2927 861.704 89.9153 862.914 90.5747C864.548 91.4563 866.984 91.9134 867.701 93.2684C870.314 98.1889 874.828 98.9787 879.521 99.6901C880.414 99.8248 881.408 99.7206 882.173 100.104C886.829 102.412 891.632 104.507 896.004 107.268C901.191 110.548 906.047 114.236 910.53 118.662C914.928 123.009 920.892 125.928 926.518 128.794C929.535 130.339 932.682 131.444 935.044 134.025C935.646 134.677 936.444 135.213 937.246 135.614C940.999 137.497 944.968 139.039 948.522 141.228C957.076 146.485 965.458 152.019 973.946 157.477C972.091 159.458 970.075 161.517 968.162 163.672C964.215 168.131 963.948 169.354 965.957 172.744C970.629 170.963 975.301 169.164 979.974 167.419C982.731 166.389 985.529 166.009 988.8 167.564C988.241 169.005 988.01 170.771 987.041 171.862C982.583 176.791 977.789 181.404 973.378 186.358C968.618 191.722 964.124 192.319 958.561 187.846C956.026 185.806 953.444 183.966 950.034 183.649C949.097 183.561 948.156 183.065 947.28 182.631C940.109 179.143 932.964 175.591 925.769 172.185C924.074 171.387 922.393 170.743 921.899 168.719C921.13 165.543 918.808 164.421 915.939 163.488C912.291 162.299 908.722 160.781 905.317 159.013C901.405 156.981 897.643 154.844 892.983 155.355C890.571 155.622 888.382 154.94 886.183 153.722C884.437 152.754 882.246 152.579 880.234 152.045C879.538 158.286 882.138 162.826 885.17 167.243C890.47 174.943 895.574 182.757 898.818 191.583C899.965 194.692 901.754 197.209 903.905 199.679C906.158 202.263 908.32 205.058 909.89 208.09C912.431 212.995 914.417 218.135 918.523 222.138C919.929 223.507 920.987 225.866 921.089 227.821C921.239 230.926 921.682 233.849 922.839 236.703C923.037 237.187 923.107 237.919 922.876 238.334C921.673 240.575 920.667 243 919.036 244.893C914.909 249.693 910.504 254.266 906.153 258.874C905.165 259.93 903.942 260.766 902.972 261.577L902.974 261.649Z" fill="white"/>
</g>
<defs>
<clipPath id="clip0_729_2082">
<rect width="995" height="610" fill="white"/>
</clipPath>
</defs>
</svg>
