<svg width="995" height="610" viewBox="0 0 995 610" fill="none" xmlns="http://www.w3.org/2000/svg">
<g clip-path="url(#clip0_729_1059)">
<path d="M60.8083 310.736C53.6434 308.531 46.8588 297.394 42 291.928" stroke="white" stroke-width="3" stroke-linecap="round"/>
<path d="M112.531 275L112.531 297.57" stroke="white" stroke-width="3" stroke-linecap="round"/>
<path d="M161.434 312.617C162.212 309.112 169.928 306.489 172.719 305.093" stroke="white" stroke-width="3" stroke-linecap="round"/>
<path d="M169.898 359.637C177.192 359.637 184.312 360.534 191.528 361.518" stroke="white" stroke-width="3" stroke-linecap="round"/>
<path d="M57.1871 372.93C51.7373 377.471 42.6964 379.501 38.6523 385.567" stroke="white" stroke-width="3" stroke-linecap="round"/>
<path d="M402.828 392.241C402.365 397.734 398.568 401.102 394.961 404.596C394.786 404.762 394.553 404.959 394.342 404.973C391.426 405.208 388.506 405.43 385.59 405.623C384.272 405.715 382.903 405.527 381.652 405.826C378.57 406.546 375.683 407.324 372.421 405.957C370.751 405.259 368.365 405.591 366.509 406.141C359.957 408.085 353.26 407.513 346.61 407.789C342.235 407.972 337.855 408.224 333.094 408.465C334.693 410.521 336.13 412.617 337.832 414.491C341.112 418.105 344.517 421.611 347.919 425.104C348.909 426.117 350.153 426.872 351.123 427.906C352.354 429.205 353.378 430.693 354.557 432.036C355.707 433.335 356.882 434.625 358.155 435.803C361.511 438.906 364.94 441.945 368.324 445.012C369.739 446.292 371.157 447.584 372.551 448.885C375.346 451.509 378.231 454.037 380.884 456.803C383.009 459.025 385.637 460.76 387.67 462.824C390.613 465.819 394.134 467.775 397.271 470.329C399.601 472.229 402.275 473.692 404.585 475.612C405.822 476.639 407.417 478.184 407.436 479.527C407.489 481.843 406.245 484.272 403.698 484.939C400.916 485.669 397.983 486.098 395.108 486.171C389.493 486.312 384.681 488.715 380.149 490.447C381.054 493.228 381.816 495.61 382.603 497.985C383.493 500.637 384.644 503.014 387.273 504.546C388.371 505.187 389.087 506.641 389.764 507.85C390.901 509.854 391.648 512.107 392.937 513.995C396.196 518.789 399.512 523.551 401.001 529.245C401.863 532.554 408.059 535.272 412.013 533.796C414.488 532.869 417.136 532.223 419.509 533.717C420.696 534.464 421.594 535.939 422.205 537.278C422.736 538.454 422.507 539.945 422.928 541.198C423.743 543.617 422.429 544.841 420.746 546.171C414.678 550.926 407.064 552.716 400.672 556.848C399.845 557.373 398.911 557.731 398.08 558.245C395.813 559.644 394.605 558.459 393.49 556.568C391.98 553.997 390.196 551.583 388.767 548.972C386.024 543.983 380.563 541.578 377.551 536.879C376.841 535.774 376.131 534.67 375.445 533.558C374.96 532.771 374.642 531.876 374.075 531.17C369.368 525.242 364.535 519.422 359.934 513.405C357.467 510.174 355.408 506.622 353.418 503.614C345.288 506.26 337.345 508.9 329.358 511.405C327.879 511.873 326.23 511.776 324.027 512.007C323.892 514.075 323.382 516.278 323.672 518.369C324.886 527.067 322.602 535.622 322.871 544.277C323.004 548.618 322.958 552.95 322.929 557.29C322.896 560.876 322.714 564.457 322.669 568.046C322.643 570.2 322.802 572.347 322.788 574.497C322.762 577.028 322.96 579.622 322.4 582.044C322.137 583.182 320.49 584.541 319.251 584.836C312.524 586.405 305.768 587.849 298.954 588.988C295.131 589.625 291.93 587.618 289.313 585.003C286.591 582.273 287.059 578.411 289.964 575.657C292.037 573.701 293.896 571.504 295.86 569.421C296.142 569.127 296.434 568.573 296.705 568.579C300.041 568.64 299.673 566.061 299.544 564.174C299.291 560.29 298.782 556.408 298.066 552.594C297.703 550.648 296.734 548.791 295.879 546.952C294.317 543.561 295.365 540.238 296.622 537.266C298.196 533.57 298.232 530.077 297.296 526.334C296.771 524.266 296.611 522.119 296.219 519.548C293.791 520.204 291.196 520.927 288.58 521.59C282.205 523.206 275.822 524.799 269.442 526.403C269.117 526.482 268.808 526.609 268.484 526.647C267.416 526.806 266.337 526.928 265.266 527.074C265.16 525.921 264.889 524.755 264.977 523.62C265.474 518.022 268.214 512.691 267.017 506.861C266.864 506.142 266.999 505.356 267.065 504.606C267.363 501.339 267.938 500.787 271.28 500.576C272.475 494.683 273.788 488.778 274.818 482.83C275.501 478.884 275.922 474.875 276.188 470.89C276.581 464.934 276.63 458.955 277.039 453.007C277.29 449.431 277.939 445.874 278.397 442.311C278.478 441.651 278.808 440.842 278.552 440.345C277.04 437.397 277.466 434.277 277.552 431.186C277.588 430.136 277.619 429.073 277.682 427.528C275.255 429.182 273.145 430.732 270.934 432.099C268.17 433.795 265.222 435.214 262.497 436.991C258.275 439.755 254.173 442.723 250.026 445.597C246.959 447.729 243.888 449.848 240.817 451.967C239.046 453.192 237.137 454.245 235.482 455.62C232.017 458.515 226.528 459.128 222.586 456.877C217.337 453.877 215.583 450.684 216.967 445.12C218.05 440.747 218.82 436.031 222.991 433.149C223.752 432.631 224.678 432.37 225.46 431.873C226.779 431.039 228.203 430.278 229.277 429.187C232.803 425.651 235.92 421.601 240.966 419.999C241.124 419.947 241.343 419.876 241.385 419.755C243.519 414.635 249.084 413.093 252.386 409.117C254.867 406.138 258.146 403.829 260.954 401.107C262.7 399.433 264.386 397.656 265.838 395.74C268.714 391.944 271.815 388.425 275.299 385.132C277.576 382.974 278.806 379.714 280.435 376.89C281.046 375.828 282.02 374.472 281.775 373.513C281.266 371.493 279.976 369.767 277.608 369.324C275.409 368.907 273.195 368.521 271.042 367.913C268.028 367.06 265.076 366.024 262.576 365.219C263.338 368.222 264.36 371.735 265.09 375.301C265.808 378.791 264.588 379.971 261.044 379.479C255.747 378.734 250.479 377.791 245.173 377.144C242.965 376.864 240.67 376.977 238.443 377.176C236.135 377.374 234.541 376.369 233.377 374.616C232.185 372.818 232.381 370.893 233.609 369.198C234.963 367.313 236.782 365.696 237.866 363.684C239.898 359.906 241.555 355.926 243.353 352.049C240.853 351.203 238.385 350.496 236.025 349.537C233.587 348.55 232.98 346.602 234.183 344.335C235.246 342.343 236.56 340.459 237.39 338.367C238.767 334.856 240.638 334.598 244.299 336.321C244.419 334.163 244.729 332.093 244.617 330.051C243.941 316.753 249.948 307.337 261.241 300.909C262.784 300.056 264.192 299.206 265.62 298.377C269.911 296.98 274.213 295.58 278.504 294.183C284.532 293.489 290.056 294.888 295.195 298.086C296.257 298.739 297.396 299.299 298.569 299.753C302.515 301.275 305.664 303.785 308.113 307.21C309.366 308.947 310.631 310.681 311.921 312.446C314.369 309.531 317.249 309.228 320.709 311.285C322.344 312.251 324.144 312.933 325.734 313.967C326.828 314.677 327.981 315.61 328.533 316.726C329.244 318.167 328.655 319.546 327.237 320.614C325.538 321.896 324.004 323.394 322.389 324.81C322.285 325.235 322.172 325.677 322.068 326.102C326.651 328.131 331.263 330.083 335.789 332.226C338.112 333.318 340.394 334.572 342.492 336.047C344.647 337.572 344.967 339.923 343.15 341.837C339.79 345.386 336.135 348.653 332.674 352.1C330.332 354.428 328.158 356.943 325.795 359.251C324.505 360.507 322.978 361.53 321.059 363.045L316.425 348.81C315.599 349.793 315.268 350.266 314.863 350.681C311.467 354.201 308.331 358.068 304.536 361.112C302.343 362.864 302.439 364.317 303.049 366.399C303.711 368.679 305.418 368.582 307.264 368.372C307.978 368.288 308.739 368.391 309.435 368.583C318.681 371.105 327.923 373.655 337.181 376.172C337.873 376.352 338.635 376.333 339.357 376.314C340.804 376.288 342.298 375.91 343.679 376.175C349.043 377.208 354.139 379.57 359.848 378.845C363.191 378.431 366.607 377.953 369.883 379.652C370.691 380.064 371.844 379.918 372.833 379.852C375.409 379.689 377.981 379.391 380.564 379.211C382.86 379.057 385.247 378.564 387.445 378.981C390.231 379.505 392.889 380.798 395.591 381.767C395.712 381.808 395.836 382.024 395.872 382.174C396.402 385.253 399.026 386.193 401.296 387.492L402.852 392.273L402.828 392.241ZM285.011 370.368C285.733 371.55 286.353 373.331 287.574 374.431C290.777 377.314 290.483 378.854 287.26 381.792C283.414 385.297 277.339 386.181 275.363 391.87C275.226 392.279 274.613 392.506 274.241 392.856C264.469 402.176 254.109 410.891 245.802 421.689C243.982 424.049 241.342 426.082 238.661 427.414C235.529 428.973 232.796 430.847 230.356 433.288C228.466 435.185 222.949 443.456 222.149 446.051C221.875 446.949 221.819 448.06 222.097 448.955C223.013 451.935 227.729 453.503 230.388 451.855C231.096 451.422 231.916 451.168 232.609 450.727C236.11 448.481 240.777 449.485 244.041 446.506C247.532 443.319 251.141 440.242 254.677 437.108C254.844 436.959 254.895 436.659 254.965 436.421C256.094 432.64 259.551 431.582 262.541 430.002C263.045 429.729 263.986 429.72 264.434 430.019C266.775 431.578 267.747 429.926 269.111 428.443C271.675 425.639 274.406 422.969 277.232 420.43C278.725 419.094 280.496 419.772 280.758 421.737C281.137 424.515 281.486 427.369 281.313 430.151C281.048 434.554 280.979 438.691 284.471 442.128C286.017 443.649 285.972 445.539 285.025 447.682C284.407 449.097 284.442 451.109 284.898 452.634C285.818 455.707 285.549 458.776 284.077 461.252C282.15 464.483 281.196 467.722 281.28 471.418C281.445 479.337 280.039 487.026 277.782 494.588C275.33 502.833 272.923 511.091 270.544 519.353C270.037 521.109 270.687 522.234 272.676 521.843C277.266 520.955 281.873 520.117 286.393 518.969C289.869 518.094 293.183 516.638 296.643 515.714C299.794 514.877 300.349 515.627 300.088 518.802C299.919 520.934 299.998 523.121 300.283 525.241C300.943 530.126 302.855 535.129 302.28 539.822C301.594 545.375 304.644 550.48 303.103 555.892C303.066 556.026 303.162 556.237 303.254 556.356C305.789 559.672 303.964 562.843 302.973 566.053C301.738 570.044 299.568 573.233 295.832 575.339C294.331 576.192 293.009 577.432 291.776 578.656C291.205 579.22 290.539 580.489 290.792 580.933C291.361 581.935 292.446 583.281 293.374 583.316C297.735 583.502 302.141 583.539 306.485 583.136C309.248 582.885 311.892 581.484 314.643 581.155C318.29 580.724 318.387 580.854 317.429 577.375C317.275 576.818 317.04 576.22 317.092 575.677C317.46 571.631 318.035 567.599 318.281 563.552C318.583 558.557 319.156 553.486 318.602 548.553C318.254 545.456 317.994 542.545 318.457 539.454C318.767 537.383 318.385 535.214 318.342 533.096C318.328 532.264 318.358 531.445 318.396 530.61C318.579 526.287 318.775 521.96 318.97 517.633C319.075 515.305 319.193 512.974 319.257 510.646C319.302 508.756 320.285 507.883 322.072 507.45C328.325 505.954 334.582 504.429 340.796 502.771C344.414 501.796 348.057 500.812 350.837 497.964C351.282 497.509 352.751 497.301 353.146 497.645C355.326 499.62 357.48 501.684 359.35 503.949C360.822 505.737 361.731 507.99 363.174 509.814C367.088 514.8 371.243 519.613 375.113 524.627C376.885 526.923 378.115 529.626 379.802 531.991C381.624 534.568 383.676 536.976 385.661 539.433C387.374 541.547 389.229 543.56 390.876 545.722C393.114 548.663 395.214 551.717 397.334 554.669C398.376 554.141 399.096 553.745 399.832 553.398C404.57 551.181 409.351 549.058 414.025 546.727C415.323 546.075 416.433 544.931 417.47 543.851C418.695 542.562 418.095 539.56 416.568 538.721C415.609 541.57 413.231 541.845 410.766 541.973C407.874 542.118 407.034 539.329 405.628 538.033C404.398 538.312 403.157 538.932 402.807 538.601C400.72 536.622 398.329 534.702 397.016 532.242C395.315 529.086 394.72 525.354 393.275 522.033C392.054 519.233 389.93 516.808 388.867 513.957C387.509 510.325 385.583 507.39 382.212 505.438C381.897 505.258 381.681 504.761 381.582 504.375C380.753 501.164 378.334 499.24 375.955 497.276C374.923 496.424 373.891 495.573 372.929 494.645C371.092 492.855 371.463 490.225 373.852 489.366C380.228 487.088 386.688 485.067 393.056 482.764C395.482 481.894 397.724 480.543 400.055 479.42C400.028 479.172 399.993 478.941 399.967 478.693C395.29 476.708 392.83 471.802 388.039 469.921C387.497 469.706 386.722 468.65 386.858 468.404C387.757 466.694 386.472 466.06 385.488 465.396C382.263 463.234 379.263 460.892 377.447 457.342C377.155 456.776 376.599 456.309 376.095 455.88C371.318 451.849 366.391 448.016 362.431 443.058C361.229 441.561 358.995 439.873 357.381 440.008C355.43 440.184 354.486 439.52 353.317 438.497C352.467 437.749 351.584 437.065 350.733 436.357C349.757 437.335 348.966 438.133 347.99 439.112C347.16 436.562 346.571 434.379 345.705 432.3C345.402 431.576 344.432 431.123 343.792 430.522C342.644 429.438 341.142 428.51 340.454 427.183C339.198 424.772 338.73 421.929 337.38 419.603C335.176 415.815 332.999 411.734 328.489 410.18C325.877 409.277 325.879 407.131 326.199 405.421C326.522 403.724 328.464 403.227 330.266 403.382C332.924 403.596 335.59 403.875 338.265 403.976C344.109 404.205 350.009 405.765 355.781 403.373C356.184 403.202 356.749 403.49 357.244 403.518C358.48 403.588 359.719 403.751 360.948 403.675C365.259 403.378 369.551 402.938 373.854 402.658C378.088 402.372 382.333 402.245 386.559 401.975C387.086 401.939 387.557 401.354 388.097 401.232C389.051 401.016 390.091 400.691 390.993 400.896C393.325 401.433 394.663 400.781 395.347 398.494C395.712 397.296 396.138 396.119 396.64 394.97C398.159 391.521 396.672 388.484 392.994 387.455C391.808 387.126 390.404 386.828 389.623 386.003C386.491 382.719 382.514 382.138 378.395 382.319C373.772 382.528 369.3 383.161 364.536 382.067C359.732 380.974 354.531 381.52 349.5 381.552C348.839 381.551 347.957 382.567 347.554 383.319C346.147 385.868 345.151 386.287 342.529 384.982C341.179 384.315 339.777 383.692 338.575 382.815C329.611 376.316 319.028 374.283 308.554 372.378C304.011 371.549 300.131 371.14 299.04 365.761L285.011 370.328L285.011 370.368ZM292.842 363.947C295.069 362.547 297.2 360.936 299.571 359.814C303.61 357.892 306.521 354.867 308.517 351.02C313.935 340.581 314.985 329.851 309.683 319.03C307.592 314.759 306.217 310.04 301.562 307.292C295.392 303.661 289.21 300.156 282.099 298.976C279.236 298.505 276.075 298.482 273.301 299.196C268.724 300.375 264.635 302.637 260.767 305.664C256.724 308.815 254.986 312.915 253.788 317.312C252.23 323 251.371 328.892 250.314 334.713C250.103 335.888 249.88 337.607 250.516 338.317C254.269 342.559 255.799 347.755 257.275 352.994C257.299 353.068 257.372 353.125 257.424 353.202C259.435 356.73 262.702 358.567 266.019 360.766C269.801 363.272 273.617 363.648 277.661 364.518C282.834 365.626 287.746 365.269 292.866 363.939L292.842 363.947ZM237.541 347.114C240.344 347.403 242.508 347.548 244.646 347.864C245.541 348.004 246.771 348.305 247.14 348.941C247.589 349.699 247.724 351.233 247.246 351.875C244.419 355.655 243.716 360.12 242.761 364.518C242.372 366.305 242.182 368.039 240.406 369.252C239.702 369.737 239.651 371.197 239.378 372.015C246.241 373.261 252.687 374.428 260.031 375.747C257.41 361.774 251.509 350.271 241.558 340.531C240.292 342.603 239.177 344.437 237.533 347.131L237.541 347.114ZM323.663 354.98C323.854 354.904 324.471 354.811 324.867 354.453C329.982 349.834 335.089 345.19 340.115 340.464C340.425 340.174 340.293 338.774 339.93 338.528C339.026 337.904 337.794 337.185 336.832 337.337C333.951 337.802 331.92 336.615 329.869 334.868C326.431 331.926 322.247 330.711 317.725 329.863C318.504 335.114 317.792 340.216 320.286 344.976C321.882 348.018 322.535 351.556 323.651 354.984L323.663 354.98ZM317.407 323.585C317.585 323.635 317.763 323.685 317.941 323.735C319.684 321.346 321.431 318.97 323.379 316.299C321.346 316.016 319.592 315.764 317.531 315.477C317.487 318.406 317.441 320.997 317.395 323.589L317.407 323.585Z" fill="white"/>
<path d="M596.098 297.331C600.784 300.234 605.751 299.193 610.708 298.381C610.945 298.338 611.242 298.269 611.379 298.108C613.306 295.907 615.225 293.695 617.119 291.469C617.978 290.465 618.643 289.254 619.629 288.428C622.044 286.383 624.39 284.529 625.238 281.095C625.673 279.338 627.361 277.62 628.91 276.458C634.376 272.357 637.909 266.639 642.095 261.464C644.851 258.06 647.664 254.694 650.696 251.015C651.393 253.525 652.219 255.928 652.709 258.412C653.656 263.2 654.44 268.024 655.216 272.837C655.44 274.236 655.305 275.685 655.556 277.08C655.865 278.843 656.45 280.552 656.825 282.299C657.182 283.997 657.517 285.71 657.704 287.434C658.195 291.978 658.591 296.543 659.036 301.089C659.22 302.987 659.412 304.896 659.625 306.79C660.066 310.599 660.376 314.423 661.015 318.201C661.532 321.233 661.359 324.376 661.803 327.239C662.453 331.387 661.925 335.381 662.106 339.422C662.242 342.425 661.823 345.444 661.987 348.443C662.074 350.049 662.363 352.25 663.43 353.066C665.258 354.49 667.951 354.938 670.004 353.292C672.249 351.494 674.342 349.394 676.114 347.129C679.575 342.705 684.373 340.274 688.465 337.668C690.158 340.053 691.617 342.085 693.054 344.132C694.653 346.427 695.875 348.769 695.538 351.793C695.398 353.057 696.138 354.498 696.706 355.762C697.637 357.871 699 359.813 699.748 361.973C701.654 367.448 703.5 372.949 707.184 377.54C709.327 380.203 707.816 386.798 704.273 389.093C702.053 390.528 699.956 392.268 699.741 395.065C699.633 396.463 700.282 398.063 700.993 399.352C701.62 400.48 702.954 401.185 703.709 402.269C705.166 404.366 706.931 404.041 709.003 403.482C716.438 401.445 722.414 396.399 729.542 393.73C730.456 393.38 731.301 392.843 732.208 392.482C734.683 391.496 734.452 389.819 733.598 387.798C732.435 385.052 731.56 382.181 730.316 379.477C727.945 374.3 729.27 368.483 727.293 363.263C726.829 362.034 726.366 360.806 725.882 359.592C725.539 358.733 725.011 357.945 724.782 357.069C722.828 349.755 721.036 342.406 718.948 335.125C717.825 331.218 716.201 327.447 714.972 324.055C721.943 319.106 728.798 314.302 735.571 309.383C736.828 308.475 737.733 307.093 739.232 305.462C740.973 306.586 743.046 307.49 744.552 308.97C750.812 315.13 759.042 318.396 765.829 323.772C769.236 326.467 772.741 329.012 776.244 331.576C779.142 333.688 782.125 335.676 785.034 337.78C786.779 339.043 788.408 340.451 790.143 341.721C792.19 343.209 794.155 344.914 796.433 345.908C797.503 346.375 799.576 345.863 800.551 345.045C805.822 340.579 811.008 336.016 815.985 331.224C818.776 328.534 819.073 324.768 818.533 321.107C817.964 317.295 814.584 315.368 810.642 316.059C807.835 316.557 804.963 316.74 802.12 317.075C801.715 317.126 801.097 317.03 800.94 317.252C799 319.966 797.149 318.134 795.711 316.905C792.744 314.386 789.93 311.664 787.295 308.815C785.949 307.363 785.036 305.479 784.068 303.695C782.277 300.42 778.985 299.281 775.849 298.518C771.944 297.578 769.118 295.524 766.671 292.542C765.323 290.887 763.694 289.479 761.864 287.632C763.838 286.073 765.966 284.42 768.057 282.716C773.156 278.561 778.24 274.385 783.331 270.219C783.588 270.006 783.874 269.834 784.099 269.596C784.862 268.833 785.603 268.04 786.359 267.267C785.497 266.495 784.722 265.581 783.758 264.976C778.968 262.037 773.054 261.059 769.087 256.623C768.601 256.071 767.889 255.711 767.248 255.317C764.447 253.608 763.661 253.741 761.5 256.298C756.055 253.745 750.532 251.279 745.143 248.56C741.567 246.756 738.098 244.704 734.739 242.541C729.723 239.306 724.893 235.781 719.874 232.564C716.853 230.634 713.611 229.034 710.478 227.278C709.899 226.949 709.052 226.732 708.806 226.23C707.341 223.259 704.581 221.741 702.049 219.968C701.184 219.37 700.313 218.762 699.034 217.891C701.809 216.928 704.312 216.158 706.727 215.198C709.737 213.99 712.633 212.468 715.684 211.341C720.421 209.598 725.249 208.074 730.029 206.459C733.568 205.267 737.101 204.065 740.633 202.863C742.672 202.17 744.655 201.266 746.746 200.757C751.137 199.7 754.901 195.659 755.443 191.152C756.164 185.149 754.646 181.838 749.354 179.632C745.197 177.895 740.952 175.701 736.151 177.332C735.282 177.634 734.52 178.222 733.655 178.554C732.199 179.115 730.739 179.805 729.223 180.017C724.282 180.74 719.172 180.828 714.878 183.924C714.742 184.02 714.554 184.154 714.432 184.115C709.049 182.776 704.494 186.325 699.333 186.606C695.462 186.822 691.654 188.078 687.795 188.71C685.409 189.113 682.977 189.408 680.573 189.431C675.811 189.477 671.137 189.869 666.416 190.703C663.327 191.245 659.976 190.289 656.738 189.913C655.52 189.771 653.851 189.744 653.227 188.976C651.909 187.363 651.292 185.299 652.349 183.133C653.324 181.119 654.335 179.111 655.13 177.021C656.242 174.092 657.17 171.104 658.014 168.617C659.971 171.019 662.181 173.934 664.61 176.646C666.984 179.303 668.658 179.027 670.376 175.888C672.936 171.191 675.319 166.4 677.963 161.754C679.054 159.815 680.513 158.039 682 156.37C683.535 154.635 683.678 152.755 682.965 150.776C682.232 148.748 680.57 147.757 678.477 147.732C676.157 147.696 673.774 148.192 671.512 147.863C667.267 147.242 663.084 146.2 658.9 145.332C659.711 142.821 660.614 140.418 661.252 137.951C661.912 135.405 660.711 133.757 658.173 133.371C655.94 133.038 653.643 132.969 651.47 132.388C647.83 131.401 646.507 132.749 645.708 136.715C643.904 135.526 642.057 134.54 640.485 133.234C630.211 124.763 619.07 123.973 607.176 129.207C605.572 129.937 604.051 130.561 602.533 131.214C598.854 133.826 595.165 136.445 591.486 139.057C587.334 143.484 585.165 148.753 584.669 154.785C584.56 156.026 584.33 157.275 583.996 158.488C582.865 162.563 583.003 166.587 584.293 170.596C584.941 172.638 585.578 174.687 586.227 176.775C582.427 177.002 580.467 179.134 580.056 183.138C579.856 185.027 579.331 186.878 579.213 188.771C579.131 190.073 579.193 191.555 579.76 192.663C580.493 194.093 581.951 194.443 583.654 193.941C585.696 193.341 587.813 193.002 589.913 192.55C590.317 192.719 590.738 192.892 591.142 193.062C590.039 197.951 588.857 202.818 587.879 207.729C587.37 210.246 587.017 212.825 586.951 215.389C586.89 218.028 588.587 219.687 591.207 219.369C596.06 218.787 600.861 217.801 605.692 217.077C608.958 216.583 612.273 216.338 615.534 215.816C617.311 215.53 619.043 214.914 621.404 214.276L612.737 202.069C614.019 201.992 614.596 202.007 615.17 201.93C620.022 201.302 624.996 201.09 629.701 199.857C632.416 199.142 633.525 200.085 634.833 201.815C636.269 203.706 635.174 205.019 633.905 206.376C633.412 206.899 633.04 207.572 632.779 208.245C629.292 217.171 625.83 226.111 622.332 235.045C622.064 235.708 621.595 236.309 621.149 236.877C620.265 238.023 619.071 238.997 618.461 240.264C616.092 245.187 614.95 250.686 610.965 254.837C608.64 257.275 606.219 259.733 605.631 263.376C605.479 264.27 604.675 265.108 604.033 265.864C602.366 267.834 600.594 269.721 598.909 271.688C597.417 273.44 595.598 275.062 594.623 277.076C593.382 279.624 592.836 282.53 592.003 285.276C591.964 285.398 592.063 285.627 592.163 285.745C594.319 288.006 593.509 290.674 593.198 293.27L596.109 297.37L596.098 297.331ZM648.773 189.699C649.292 190.983 650.352 192.543 650.508 194.179C650.913 198.47 652.324 199.151 656.604 198.315C661.711 197.317 666.043 192.967 671.789 194.772C672.198 194.906 672.746 194.548 673.249 194.459C686.557 192.169 699.73 189.046 713.352 188.815C716.331 188.76 719.538 187.853 722.205 186.494C725.324 184.909 728.458 183.832 731.872 183.327C734.522 182.941 744.452 183.443 747.012 184.347C747.896 184.663 748.822 185.28 749.374 186.037C751.221 188.549 749.668 193.27 746.76 194.422C745.991 194.732 745.298 195.24 744.531 195.533C740.64 197.005 738.664 201.35 734.327 202.195C729.687 203.098 725.065 204.161 720.441 205.132C720.221 205.177 719.95 205.039 719.717 204.954C716.009 203.606 713.099 205.751 710.047 207.209C709.528 207.452 708.959 208.202 708.933 208.74C708.789 211.548 706.883 211.344 704.879 211.555C701.098 211.942 697.327 212.542 693.604 213.298C691.641 213.7 691.13 215.526 692.552 216.909C694.556 218.868 696.639 220.85 698.976 222.37C702.669 224.782 706.032 227.193 706.71 232.045C707.009 234.193 708.553 235.284 710.838 235.801C712.343 236.149 713.937 237.376 714.89 238.651C716.809 241.222 719.433 242.836 722.298 243.13C726.041 243.509 729.21 244.673 732.128 246.944C738.388 251.798 745.399 255.253 752.815 257.949C760.897 260.896 768.962 263.886 777.013 266.901C778.726 267.542 779.242 268.733 777.742 270.097C774.293 273.254 770.873 276.453 767.257 279.397C764.483 281.666 761.338 283.459 758.533 285.686C755.982 287.717 756.254 288.61 758.959 290.293C760.771 291.429 762.48 292.795 764.012 294.288C767.54 297.73 770.418 302.248 774.529 304.584C779.396 307.343 781.676 312.836 786.94 314.825C787.07 314.875 787.182 315.078 787.222 315.223C788.374 319.235 792.008 319.66 795.175 320.778C799.116 322.166 802.97 322.324 806.888 320.581C808.468 319.884 810.251 319.561 811.969 319.302C812.762 319.179 814.178 319.401 814.384 319.868C814.849 320.923 815.283 322.597 814.758 323.363C812.308 326.975 809.71 330.534 806.797 333.782C804.949 335.85 802.248 337.138 800.344 339.151C797.823 341.822 797.87 341.977 795.647 339.134C795.292 338.678 794.952 338.133 794.485 337.851C791.017 335.735 787.438 333.792 784.042 331.578C779.851 328.842 775.438 326.279 771.808 322.894C769.529 320.768 767.347 318.824 764.589 317.353C762.741 316.367 761.228 314.767 759.553 313.47C758.894 312.963 758.218 312.498 757.525 312.031C753.945 309.601 750.354 307.179 746.764 304.756C744.832 303.453 742.89 302.157 740.983 300.821C739.438 299.731 738.151 299.999 736.739 301.175C731.81 305.304 726.856 309.419 721.82 313.419C718.88 315.743 715.918 318.082 711.975 318.616C711.344 318.702 710.301 319.757 710.341 320.279C710.628 323.206 711.001 326.167 711.705 329.018C712.263 331.266 713.53 333.339 714.134 335.585C715.804 341.7 717.191 347.905 718.909 354.001C719.697 356.793 721.133 359.392 722.027 362.156C723.009 365.155 723.72 368.238 724.508 371.297C725.185 373.932 725.695 376.622 726.449 379.233C727.476 382.783 728.676 386.289 729.783 389.752C728.738 390.273 727.99 390.615 727.272 390.999C722.668 393.481 718.113 396.055 713.455 398.417C712.159 399.071 710.578 399.28 709.093 399.469C707.328 399.684 705.275 397.413 705.512 395.687C708.371 396.615 710.009 394.87 711.582 392.967C713.422 390.732 711.684 388.394 711.482 386.493C712.439 385.671 713.676 385.045 713.619 384.566C713.274 381.711 713.158 378.647 711.966 376.127C710.446 372.879 707.804 370.177 706 367.037C704.48 364.387 703.799 361.236 702.143 358.683C700.036 355.427 698.828 352.132 699.272 348.261C699.314 347.9 699.044 347.431 698.793 347.122C696.71 344.542 696.607 341.453 696.448 338.372C696.379 337.036 696.311 335.7 696.14 334.374C695.797 331.832 693.465 330.562 691.351 331.968C685.721 335.729 680.247 339.71 674.603 343.45C672.457 344.879 670.036 345.875 667.745 347.076C667.562 346.907 667.397 346.741 667.214 346.572C668.408 341.634 665.936 336.734 667.282 331.766C667.432 331.203 667.046 329.951 666.768 329.913C664.859 329.616 665.116 328.207 665.169 327.02C665.356 323.143 665.264 319.338 663.496 315.763C663.216 315.191 663.173 314.466 663.129 313.806C662.74 307.568 662.6 301.327 660.98 295.192C660.495 293.335 660.472 290.535 661.542 289.319C662.847 287.857 662.876 286.703 662.752 285.156C662.658 284.027 662.635 282.91 662.574 281.805C663.941 281.605 665.053 281.445 666.421 281.245C664.868 279.059 663.467 277.285 662.314 275.35C661.913 274.675 662.127 273.626 662.027 272.753C661.841 271.186 661.992 269.427 661.336 268.083C660.15 265.637 658.146 263.567 657.083 261.097C655.355 257.069 653.377 252.888 654.818 248.341C655.65 245.705 653.925 244.427 652.362 243.665C650.807 242.913 649.25 244.175 648.3 245.715C646.888 247.976 645.523 250.283 644.009 252.49C640.709 257.319 638.444 262.986 633.083 266.195C632.705 266.416 632.599 267.042 632.327 267.455C631.646 268.489 631.038 269.582 630.245 270.523C627.436 273.807 624.525 276.991 621.734 280.278C618.981 283.508 616.348 286.84 613.612 290.072C613.268 290.474 612.519 290.503 612.099 290.864C611.357 291.501 610.476 292.142 610.102 292.989C609.143 295.181 607.822 295.867 605.578 295.053C604.399 294.631 603.2 294.271 601.978 293.99C598.303 293.154 596.752 290.149 598.118 286.583C598.561 285.435 599.159 284.129 598.962 283.01C598.192 278.538 600.096 274.999 602.698 271.799C605.622 268.212 608.795 264.999 610.757 260.523C612.743 256.013 616.282 252.163 619.307 248.143C619.701 247.612 621.042 247.509 621.886 247.634C624.772 248.024 625.702 247.474 626.217 244.591C626.486 243.11 626.822 241.612 626.835 240.124C626.96 229.054 631.637 219.345 636.351 209.799C638.395 205.658 640.379 202.298 636.711 198.216L648.74 189.675L648.773 189.699ZM638.949 192.159C636.498 193.112 633.934 193.863 631.619 195.097C627.669 197.194 623.505 197.728 619.226 197.037C607.615 195.164 598.374 189.61 592.847 178.903C590.665 174.678 587.695 170.761 588.264 165.385C589.027 158.267 589.898 151.213 593.19 144.801C594.519 142.222 596.385 139.67 598.612 137.868C602.287 134.897 606.541 132.962 611.277 131.661C616.217 130.294 620.545 131.342 624.789 133.002C630.285 135.142 635.528 137.964 640.832 140.586C641.901 141.117 643.413 141.963 643.604 142.897C644.773 148.44 648.032 152.765 651.359 157.074C651.403 157.137 651.406 157.229 651.437 157.317C653.071 161.035 652.598 164.753 652.385 168.727C652.143 173.257 650.171 176.545 648.458 180.31C646.264 185.125 643.049 188.855 638.928 192.174L638.949 192.159ZM658.403 137.724C656.963 140.147 655.79 141.971 654.769 143.876C654.348 144.678 653.856 145.845 654.147 146.52C654.487 147.332 655.639 148.356 656.439 148.354C661.159 148.338 665.164 150.435 669.264 152.291C670.93 153.043 672.436 153.925 674.468 153.222C675.278 152.946 676.48 153.776 677.299 154.044C674.209 160.297 671.303 166.167 667.984 172.851C658.327 162.416 652.61 150.821 650.722 137.025C653.141 137.243 655.278 137.441 658.421 137.727L658.403 137.724ZM613.376 211.559C613.201 211.667 612.759 212.107 612.235 212.211C605.477 213.564 598.704 214.895 591.914 216.114C591.496 216.19 590.451 215.249 590.47 214.81C590.508 213.713 590.665 212.296 591.36 211.614C593.451 209.578 593.709 207.24 593.529 204.551C593.217 200.037 594.735 195.954 596.75 191.817C600.502 195.573 605.022 198.043 607.358 202.883C608.848 205.978 611.299 208.612 613.386 211.551L613.376 211.559ZM591.9 187.82C591.834 187.992 591.768 188.165 591.702 188.338C588.745 188.313 585.795 188.299 582.489 188.271C583.474 186.47 584.317 184.912 585.316 183.085C587.694 184.796 589.802 186.304 591.91 187.812L591.9 187.82Z" fill="white"/>
<path d="M219.155 450.014C217.755 454.047 215.539 457.373 211.524 459.279C208.471 460.728 205.244 460.971 202.137 460.073C197.035 458.589 191.569 458.425 186.806 455.558C185.376 454.705 183.223 455.17 181.471 454.74C178.517 454.022 175.615 453.099 172.713 452.24C170.91 451.707 169.12 451.109 167.318 450.524C165.068 449.784 162.844 448.915 160.555 448.303C156.437 447.208 152.307 446.075 148.111 445.339C146.243 445.01 145.622 446.675 145.935 448.382C146.348 450.653 146.953 452.888 147.378 455.159C147.741 457.097 147.976 459.061 148.237 461.024C148.299 461.512 148.22 462.037 148.333 462.512C149.642 467.673 150.977 472.822 152.325 477.97C152.552 478.843 152.932 479.691 153.082 480.577C154.068 486.673 154.912 492.781 156.026 498.852C156.451 501.163 157.556 503.348 158.148 505.633C158.689 507.739 158.975 509.92 159.324 512.063C159.598 513.744 159.694 515.463 160.096 517.12C160.927 520.56 161.924 523.95 162.831 527.378C163.423 529.612 164.041 531.834 164.492 534.093C165.745 540.459 166.909 546.825 168.123 553.205C168.612 555.797 169.138 558.377 169.652 560.957C170.555 565.553 171.431 570.148 172.397 574.743C172.987 577.554 173.654 580.353 174.372 583.139C175.493 587.466 173.831 589.883 169.31 590.402C167.939 590.55 166.569 590.711 164.532 590.933C172.614 593.032 175.356 595.43 179.266 603.41C177.062 606.864 174.198 609.07 169.82 608.808C168.221 608.712 166.58 609.115 164.954 609.3L153.56 609.252C149.763 608.107 145.963 607.591 142.167 609.204L138.697 609.189C138.672 609.112 138.673 608.996 138.622 608.958C134.193 605.758 133.036 600.918 131.789 595.988C130.127 589.441 128.145 582.981 126.201 576.522C125.784 575.122 124.829 573.874 124.362 572.487C123.717 570.561 123.29 568.571 122.799 566.607C122.346 564.796 122.085 562.923 121.465 561.189C120.592 558.723 119.412 556.371 118.449 553.93C116.549 549.087 114.714 544.231 112.878 539.363C112.562 538.528 112.194 537.616 112.236 536.757C112.407 532.769 110.834 529.363 108.903 525.841C107.012 531.053 105.3 536.188 103.282 541.194C101.833 544.779 99.7702 548.105 98.3467 551.703C94.2445 562.074 90.6664 572.626 88.712 583.673C88.594 584.314 88.5523 585.096 88.1791 585.556C84.1642 590.438 84.3297 596.685 82.7694 602.347C81.4693 607.035 79.5158 608.835 74.6663 608.276C69.612 607.69 64.5854 606.617 59.5297 606.378C55.2931 606.18 51.014 606.944 46.7501 607.144C45.2136 607.215 43.5751 607.195 42.1432 606.74C39.4968 605.882 38.8258 604.122 39.119 601.405C39.7198 595.585 43.4063 592.676 48.4832 590.941C49.3421 590.649 50.201 590.371 51.0601 590.067C51.1883 590.016 51.3041 589.888 51.2784 589.901C48.3878 589.286 45.4076 588.67 42.4276 587.991C40.701 587.599 39.964 586.3 40.7384 584.816C43.9521 578.686 44.1479 571.775 46.0187 565.344C48.9027 555.443 50.0601 545.162 53.3918 535.378C54.7011 531.536 54.3611 527.174 55.2871 523.164C57.1 515.297 59.3861 507.535 61.2501 499.668C62.4493 494.62 63.0986 489.442 64.2339 484.368C65.3302 479.448 66.7589 474.619 67.9702 469.725C69.1425 464.997 70.3531 460.27 71.2951 455.49C71.6745 453.581 71.1968 451.514 71.4355 449.566C71.6079 448.169 72.2665 446.812 72.7843 445.468C73.0951 444.622 73.5338 443.829 73.9085 443.01C72.8224 442.518 71.7758 441.783 70.6371 441.624C69.5496 441.465 68.3447 441.819 67.2426 442.097C62.3471 443.32 57.2247 443.709 53.2523 447.616C49.1385 451.664 43.6662 453.052 38.1334 453.618C34.5217 453.988 31.2149 454.897 27.995 456.461C25.3524 457.732 22.6353 458.477 19.6169 457.81C18.4786 457.562 17.1077 457.8 15.9923 458.205C12.2867 459.575 8.6654 459.187 5.08639 457.89C2.64497 457.007 1.12898 455.257 1.02542 452.512C1.00194 452.011 1.02972 451.499 0.878059 451.036C-1.82556 442.56 3.99379 437.827 8.98213 432.833C9.89491 431.927 11.7127 431.934 13.11 431.492C14.6483 431.011 16.2246 430.607 17.6995 429.998C19.7899 429.122 21.779 427.989 23.8821 427.138C30.2813 424.524 36.7186 422.012 43.1306 419.41C46.7213 417.95 50.3755 416.606 53.8139 414.851C57.0085 413.21 60.1656 411.364 62.966 409.118C67.0252 405.865 70.5622 401.969 74.6341 398.754C79.4381 394.953 84.8384 392.449 91.2998 393.284C92.1186 393.391 93.3899 392.473 93.9182 391.68C94.8202 390.286 95.3525 388.531 93.8991 387.127C92.7261 385.993 91.3218 385.089 90.0074 384.096C86.3194 381.323 82.2201 378.946 79.0335 375.675C74.4448 370.962 70.4473 365.712 71.1187 358.34C71.4675 354.584 71.2149 350.774 71.2309 346.991C68.584 346.274 66.307 345.854 64.1983 344.999C63.1504 344.571 61.8239 343.424 61.6999 342.474C61.5885 341.576 62.6827 340.157 63.6198 339.559C66.8803 337.469 70.2806 335.624 73.6556 333.727C80.8418 329.692 88.0407 325.683 95.2523 321.687C95.7528 321.407 96.3172 321.127 96.8551 321.091C102.771 320.705 108.767 319.641 114.576 320.255C119.273 320.75 123.781 323.193 128.319 324.892C138.979 328.875 145.591 342.446 144.483 353.099C143.883 358.816 142.924 364.583 141.313 370.091C139.871 374.971 136.093 378.341 131.564 380.784C129.575 381.853 127.802 383.346 125.991 384.711C124.039 386.177 124.106 388.46 123.892 390.563C123.852 391.012 124.387 391.706 124.846 391.99C125.753 392.533 126.762 393.063 127.785 393.26C136.048 394.872 142.272 400.529 149.438 404.304C151.992 405.649 153.773 408.427 156.263 409.938C160.757 412.676 165.716 414.646 170.133 417.486C176.811 421.773 184.277 424.113 191.459 427.183C198.104 430.02 204.606 433.177 211.226 436.052C215.366 437.852 218.067 440.775 219.201 445.153L219.18 450.116L219.155 450.014ZM172.067 604.367C172.593 600.958 171.129 599.003 168.446 597.837C166.491 596.995 164.51 596.204 162.503 595.452C158.618 594.012 154.783 592.572 152.765 588.447C151.458 585.773 152.027 584.404 155.022 584.506C157.71 584.594 160.409 585.093 163.031 585.681C166.689 586.505 169.001 584.771 168.735 581.076C168.662 580.037 168.142 579.034 167.954 577.982C167.792 577.045 167.745 576.057 167.774 575.108C167.817 574.057 168.347 572.905 168.082 571.967C166.405 566.074 165.277 560.156 165.086 553.961C164.962 549.972 165.084 545.497 161.397 542.39C160.861 541.939 160.828 540.695 160.832 539.81C160.826 538.322 161.152 536.836 161.069 535.361C161.009 534.36 160.772 532.833 160.133 532.497C156.569 530.699 155.394 527.167 154.153 523.981C152.772 520.436 152.328 516.522 151.602 512.749C151.326 511.311 151.64 509.761 151.313 508.348C149.83 501.942 148.026 495.599 147.401 489.03C147.242 487.324 146.853 485.334 147.525 483.926C148.972 480.906 148.856 478.058 147.947 475.041C147.379 473.166 146.785 471.291 146.281 469.39C146.016 468.363 145.714 467.285 145.769 466.246C145.98 461.887 145.306 457.716 143.672 453.669C143.064 452.153 142.584 450.496 142.527 448.88C142.449 446.276 141.805 444.081 139.97 442.136C139.384 441.505 139.032 439.99 139.393 439.312C139.741 438.673 141.19 438.23 142.073 438.349C144.018 438.601 145.896 439.327 147.828 439.758C151.127 440.504 154.802 440.481 157.663 442.006C163.87 445.303 170.548 446.421 177.251 447.822C181.548 448.725 185.715 450.282 189.908 451.646C194.204 453.037 198.447 454.581 202.743 455.984C205.785 456.972 208.844 457.126 211.313 454.674C213.64 452.376 214.088 449.415 213.166 446.384C212.168 443.122 210.311 440.319 207.04 438.984C201.8 436.846 196.587 434.451 191.139 433.043C184.208 431.256 178.232 427.832 173.105 423.219C166.205 417.008 158 413.716 149.539 410.64C146.957 409.706 144.556 408.221 142.155 406.851C136.23 403.44 130.64 399.287 124.391 396.67C117.772 393.884 113.658 385.71 121.838 379.935C122.236 379.655 122.659 379.374 123.019 379.042C125.037 377.243 127.233 375.597 129.021 373.579C131.812 370.448 134.094 366.829 137.994 364.819C138.494 364.565 138.958 363.848 139.076 363.284C139.521 361.016 140.273 358.685 140.065 356.453C139.686 352.219 138.731 348.034 137.981 343.824C137.805 342.862 137.823 341.708 137.289 340.974C133.14 335.198 128.924 329.973 121.433 327.607C116.498 326.047 111.829 325.104 106.747 324.98C101.256 324.841 96.0041 325.524 91.243 328.262C87.1748 330.604 83.3609 333.371 79.4708 336.009C75.7346 338.546 75.5887 339.763 76.4533 344.153C77.6188 350.07 78.2206 356.062 75.4564 361.86C74.9527 362.91 74.7787 364.692 75.3382 365.579C77.3346 368.768 79.4075 372.021 82.0206 374.674C85.1181 377.83 88.8332 380.231 93.1406 381.852C98.5344 383.876 100.262 387.115 98.7334 391.264C97.5678 394.427 94.9366 396.044 91.8211 397.134C86.8594 398.87 81.9863 400.85 77.0879 402.74C76.7161 402.88 76.3437 403.135 76.0865 403.429C72.2407 407.67 68.0642 411.41 62.6904 413.721C58.6119 415.474 54.863 418.023 50.734 419.621C47.2076 420.992 43.7848 422.118 41.7472 425.624C41.399 426.225 40.6675 426.645 40.064 427.066C32.0905 432.598 23.0163 435.073 13.6005 436.572C12.3323 436.772 10.8084 436.881 9.89628 437.634C6.74882 440.224 4.20054 443.407 3.22315 447.468C2.31092 451.26 5.58336 455.417 9.39863 455.343C12.5098 455.279 15.5961 455.023 18.357 453.034C19.7566 452.027 21.6537 451.471 23.3958 451.209C28.8658 450.373 33.8343 447.034 39.6554 447.93C40.0264 447.983 40.4499 447.741 40.8473 447.615C45.6414 446.16 50.3343 444.41 55.0272 442.661C60.9638 440.454 67.5083 439.828 73.8242 438.752C78.039 438.039 79.0316 439.454 78.041 443.605C77.2458 446.961 76.8344 450.397 76.1927 453.78C75.9438 455.125 75.5541 456.445 75.2028 457.777C74.7215 459.57 73.3813 461.655 73.8744 463.107C75.657 468.385 73.1316 472.209 70.4267 476.109C69.9115 476.851 69.1534 477.502 68.9067 478.322C67.3877 483.291 65.613 488.221 64.6185 493.296C63.4407 499.319 62.7877 505.382 62.9274 511.68C63.0676 517.862 61.0948 524.202 59.3152 530.26C58.3668 533.514 57.0097 536.561 57.2637 540.05C57.324 540.935 57.1663 541.884 56.9066 542.742C55.699 546.764 54.0948 550.707 53.2453 554.795C51.1937 564.623 49.4618 574.516 47.6019 584.435C50.3158 584.446 53.1965 584.394 56.0765 584.484C62.0286 584.676 63.1012 585.321 64.1861 589.109C59.6834 591.283 55.1679 593.444 50.6907 595.644C48.048 596.941 45.8514 598.714 44.7358 602.16C46.1671 602.743 47.6093 603.788 49.0685 603.832C55.7121 603.976 62.3576 603.658 68.9882 603.853C76.1563 604.076 79.6762 601.218 80.244 594.102C80.5011 590.859 80.9368 587.718 83.0478 585.021C83.627 584.28 83.913 583.255 84.1986 582.32C86.5865 574.712 88.9104 567.078 91.3749 559.509C91.9586 557.729 92.6441 556.065 91.5122 554.316C89.7316 551.576 90.5101 549.117 91.8019 546.391C93.4424 542.923 94.7893 539.286 95.8419 535.597C97.0505 531.357 98.0797 527.155 101.651 524.118C103.502 522.548 104.509 520.487 105.134 518.053C105.628 516.119 107.006 514.406 107.999 512.576C113.014 516.355 114.529 521.364 115.659 526.601C117.617 535.741 119.793 544.817 123.982 553.235C125.455 556.204 126.056 559.233 126.375 562.492C126.707 565.905 127.255 569.396 128.381 572.62C130.202 577.834 132.575 582.808 132.666 588.541C132.696 590.503 133.684 592.893 135.035 594.309C137.189 596.55 139.01 598.879 140.291 601.68C140.507 602.156 140.991 602.709 141.451 602.827C143.906 603.491 146.36 604.425 148.856 604.538C155.179 604.834 161.529 604.771 167.866 604.773C169.313 604.779 170.761 604.464 172.016 604.316L172.067 604.367Z" fill="white"/>
<path d="M401.685 393.193C404.828 396.083 408.354 397.962 412.794 397.74C416.169 397.571 419.126 396.256 421.437 393.994C425.228 390.271 429.964 387.538 432.801 382.757C433.657 381.329 435.774 380.719 437.113 379.51C439.375 377.479 441.494 375.292 443.643 373.161C444.978 371.837 446.272 370.463 447.583 369.094C449.213 367.377 450.761 365.558 452.487 363.935C455.595 361.021 458.696 358.067 462.043 355.431C463.532 354.258 464.868 355.429 465.401 357.081C466.113 359.277 466.638 361.531 467.339 363.734C467.937 365.613 468.66 367.453 469.36 369.306C469.537 369.765 469.855 370.19 469.981 370.662C471.271 375.828 472.534 380.995 473.785 386.168C473.998 387.044 474.065 387.971 474.352 388.822C476.371 394.658 478.52 400.438 480.414 406.312C481.134 408.548 481.196 410.996 481.757 413.289C482.277 415.4 483.059 417.456 483.766 419.51C484.32 421.12 485.051 422.679 485.48 424.329C486.378 427.752 487.106 431.21 487.93 434.659C488.467 436.907 488.974 439.156 489.647 441.36C491.558 447.56 493.548 453.718 495.499 459.912C496.297 462.427 497.055 464.949 497.824 467.465C499.206 471.939 500.61 476.401 501.935 480.906C502.747 483.662 503.485 486.442 504.172 489.236C505.234 493.578 507.842 494.919 512.07 493.236C513.347 492.717 514.63 492.21 516.529 491.441C510.405 497.117 509.125 500.527 509.462 509.408C513.038 511.406 516.606 511.993 520.337 509.689C521.7 508.846 523.336 508.425 524.856 507.818L534.868 502.379C537.671 499.573 540.773 497.319 544.88 496.941L547.929 495.285C547.915 495.205 547.86 495.104 547.886 495.046C550.272 490.131 548.999 485.32 547.762 480.387C546.125 473.833 544.812 467.205 543.465 460.596C543.169 459.166 543.419 457.614 543.174 456.171C542.83 454.169 542.264 452.214 541.766 450.252C541.308 448.443 540.65 446.669 540.375 444.848C539.976 442.263 539.902 439.632 539.594 437.027C538.973 431.861 538.291 426.715 537.602 421.558C537.485 420.673 537.377 419.696 536.933 418.959C534.894 415.527 534.667 411.783 534.699 407.766C538.833 411.461 542.773 415.174 546.921 418.627C549.895 421.098 553.287 423.051 556.244 425.545C564.769 432.737 572.917 440.336 579.87 449.14C580.278 449.649 580.685 450.318 581.231 450.546C587.08 452.945 589.892 458.525 593.947 462.773C597.313 466.287 599.886 466.947 603.892 464.158C608.066 461.248 611.986 457.923 616.325 455.318C619.963 453.137 624.094 451.784 627.944 449.941C629.33 449.275 630.764 448.482 631.81 447.403C633.734 445.394 633.492 443.526 631.947 441.272C628.661 436.43 624.037 435.614 618.744 436.49C617.849 436.64 616.961 436.802 616.06 436.941C615.923 436.957 615.761 436.899 615.789 436.898C618.044 434.988 620.377 433.034 622.68 431.024C624.015 429.861 624.049 428.369 622.664 427.428C616.931 423.551 613.486 417.556 608.793 412.779C601.563 405.424 595.675 396.917 588.108 389.878C585.135 387.114 583.369 383.111 580.654 380.018C575.332 373.947 569.642 368.193 564.275 362.148C560.828 358.269 557.804 354.016 554.401 350.085C551.106 346.27 547.561 342.694 544.176 338.957C540.905 335.349 537.6 331.758 534.507 327.995C533.268 326.493 532.71 324.446 531.577 322.843C530.764 321.694 529.541 320.811 528.448 319.872C527.774 319.275 527.012 318.784 526.294 318.24C527.018 317.293 527.591 316.149 528.519 315.47C529.402 314.815 530.631 314.557 531.733 314.279C536.624 313.038 541.32 310.955 546.669 312.515C552.209 314.132 557.686 312.763 562.827 310.641C566.183 309.256 569.526 308.491 573.103 308.344C576.032 308.212 578.778 307.581 581.121 305.565C582.006 304.807 583.326 304.367 584.501 304.196C588.413 303.647 591.419 301.591 593.956 298.753C595.689 296.82 596.195 294.56 594.986 292.093C594.77 291.642 594.503 291.203 594.417 290.724C592.785 281.978 585.418 280.565 578.659 278.53C577.426 278.163 575.829 279.031 574.388 279.303C572.806 279.608 571.226 279.999 569.639 280.16C567.382 280.379 565.094 280.323 562.839 280.57C555.965 281.298 549.105 282.134 542.226 282.878C538.372 283.293 534.517 283.84 530.657 283.923C527.067 283.99 523.412 283.859 519.882 283.208C514.766 282.265 509.806 280.508 504.697 279.605C498.666 278.532 492.724 278.884 487.428 282.68C486.757 283.161 485.203 282.955 484.362 282.507C482.907 281.706 481.608 280.413 482.223 278.488C482.719 276.934 483.528 275.473 484.215 273.976C486.15 269.787 488.635 265.752 489.893 261.362C491.702 255.037 492.737 248.52 488.654 242.346C486.568 239.203 484.987 235.727 483.181 232.403C485.173 230.518 486.979 229.07 488.431 227.318C489.152 226.445 489.777 224.806 489.436 223.911C489.109 223.067 487.473 222.336 486.365 222.252C482.503 221.956 478.635 221.941 474.764 221.869C466.524 221.718 458.285 221.596 450.04 221.492C449.467 221.482 448.837 221.503 448.346 221.726C442.953 224.188 437.168 226.09 432.343 229.383C428.441 232.042 425.627 236.329 422.435 239.974C414.932 248.53 415.536 263.615 421.556 272.473C424.792 277.224 428.368 281.849 432.395 285.937C435.976 289.553 440.9 290.732 446.046 290.738C448.304 290.738 450.573 291.213 452.814 291.558C455.228 291.925 456.25 293.967 457.434 295.718C457.682 296.094 457.54 296.959 457.269 297.427C456.728 298.334 456.09 299.279 455.282 299.937C448.768 305.27 445.965 313.2 441.442 319.918C439.829 322.312 439.576 325.602 438.098 328.112C435.436 332.652 432.002 336.736 429.457 341.33C425.605 348.267 420.138 353.864 415.266 359.969C410.757 365.614 406.525 371.474 402.057 377.141C399.263 380.688 398.267 384.541 399.342 388.934L401.711 393.295L401.685 393.193ZM516.255 506.842C514.177 504.088 514.54 501.673 516.352 499.375C517.675 497.708 519.045 496.073 520.456 494.46C523.197 491.352 525.892 488.268 525.716 483.678C525.601 480.705 524.451 479.768 521.862 481.277C519.536 482.628 517.395 484.345 515.364 486.105C512.533 488.562 509.675 488.13 508.16 484.749C507.731 483.8 507.715 482.67 507.382 481.655C507.081 480.753 506.655 479.86 506.18 479.039C505.644 478.133 504.632 477.369 504.421 476.418C503.108 470.433 501.298 464.687 498.533 459.14C496.753 455.568 494.526 451.684 496.302 447.202C496.56 446.551 496 445.439 495.578 444.662C494.879 443.348 493.888 442.194 493.263 440.855C492.841 439.946 492.327 438.488 492.73 437.89C495.018 434.619 494.38 430.951 493.965 427.557C493.501 423.781 492.039 420.124 490.892 416.456C490.454 415.059 489.443 413.842 489.062 412.444C487.335 406.099 485.92 399.658 483.36 393.577C482.692 391.998 482.092 390.062 480.833 389.14C478.129 387.165 476.882 384.602 476.254 381.514C475.866 379.593 475.501 377.661 475.045 375.748C474.792 374.718 474.547 373.625 474.007 372.737C471.757 368.997 470.375 365.004 469.898 360.666C469.715 359.043 469.353 357.357 468.638 355.906C467.474 353.576 467.001 351.337 467.697 348.755C467.914 347.922 467.507 346.421 466.867 345.995C466.258 345.597 464.772 345.893 464.051 346.416C462.457 347.559 461.147 349.088 459.65 350.382C457.097 352.601 453.85 354.321 452.052 357.02C448.146 362.863 442.794 367.011 437.554 371.418C434.197 374.249 431.264 377.593 428.217 380.781C425.092 384.04 422.086 387.41 418.967 390.68C416.755 392.991 414.134 394.575 410.799 393.584C407.661 392.662 405.864 390.266 405.241 387.161C404.575 383.815 404.882 380.466 407.132 377.741C410.734 373.377 414.191 368.799 418.322 364.979C423.581 360.123 427.224 354.277 429.554 347.786C432.69 339.048 438.357 332.263 444.353 325.547C446.185 323.501 447.596 321.056 449.062 318.713C452.666 312.902 455.622 306.597 459.886 301.333C464.397 295.745 464.149 286.597 454.21 285.385C453.727 285.326 453.221 285.28 452.747 285.158C450.117 284.528 447.404 284.119 444.873 283.188C440.932 281.753 437.209 279.645 432.822 279.722C432.261 279.735 431.513 279.324 431.142 278.883C429.676 277.096 427.91 275.399 427.036 273.334C425.364 269.426 424.224 265.288 422.891 261.225C422.589 260.294 422.027 259.286 422.151 258.387C423.07 251.335 424.308 244.737 429.786 239.105C433.394 235.394 437.059 232.352 441.476 229.836C446.247 227.113 451.196 225.228 456.685 225.384C461.378 225.521 466.047 226.151 470.723 226.633C475.215 227.097 475.92 228.101 477.237 232.377C479.013 238.14 481.32 243.703 486.501 247.5C487.441 248.186 488.439 249.673 488.366 250.719C488.118 254.474 487.833 258.321 486.788 261.895C485.554 266.141 483.419 270.015 480.393 273.483C476.601 277.82 476.613 281.491 479.924 284.421C482.449 286.655 485.532 286.833 488.792 286.318C493.984 285.497 499.214 284.933 504.423 284.278C504.817 284.225 505.266 284.273 505.631 284.41C511.027 286.325 516.477 287.641 522.305 287.132C526.727 286.744 531.236 287.213 535.629 286.666C539.384 286.203 542.932 285.574 546.387 287.697C546.978 288.061 547.822 288.085 548.552 288.17C558.195 289.266 567.359 287.149 576.362 284.01C577.574 283.585 578.968 282.96 580.127 283.191C584.126 283.981 587.878 285.578 590.662 288.692C593.261 291.6 592.348 296.81 588.952 298.552C586.182 299.97 583.342 301.206 579.969 300.761C578.259 300.537 576.325 300.945 574.666 301.54C569.453 303.394 563.495 302.806 558.793 306.353C558.491 306.575 558.004 306.562 557.594 306.639C552.683 307.628 547.721 308.31 542.759 308.991C536.485 309.859 530.424 312.407 524.352 314.45C520.302 315.818 520.098 317.534 522.936 320.721C525.226 323.301 527.216 326.132 529.383 328.808C530.239 329.875 531.207 330.852 532.148 331.859C533.421 333.211 535.589 334.412 535.842 335.924C536.771 341.418 540.807 343.59 545.036 345.744C545.841 346.153 546.817 346.367 547.422 346.972C551.114 350.63 555.012 354.132 558.291 358.13C562.18 362.877 565.627 367.908 568.486 373.521C571.29 379.032 576.03 383.682 580.467 388.175C582.843 390.592 585.481 392.632 586.91 395.826C587.276 396.634 587.864 397.395 588.499 398.028C591.467 400.998 594.748 403.712 597.432 406.909C603.893 414.594 610.104 422.488 616.439 430.343C614.054 431.638 611.492 432.956 608.998 434.399C603.847 437.387 603.208 438.464 604.046 442.314C609.041 442.096 614.042 441.861 619.027 441.678C621.969 441.569 624.743 442.09 627.357 444.597C626.373 445.788 625.597 447.391 624.333 448.122C618.55 451.394 612.546 454.261 606.799 457.573C600.591 461.164 596.137 460.314 592.267 454.316C590.505 451.581 588.634 449.021 585.497 447.645C584.636 447.267 583.899 446.5 583.205 445.811C577.499 440.241 571.837 434.619 566.082 429.119C564.724 427.828 563.332 426.686 563.501 424.61C563.772 421.354 561.922 419.557 559.493 417.767C556.406 415.489 553.497 412.924 550.823 410.174C547.751 407.012 544.854 403.798 540.27 402.814C537.897 402.308 536.034 400.97 534.331 399.122C532.979 397.653 530.955 396.796 529.214 395.655C526.586 401.359 527.624 406.487 529.109 411.635C531.712 420.612 534.094 429.637 534.391 439.035C534.5 442.347 535.405 445.3 536.667 448.322C537.992 451.484 539.162 454.819 539.697 458.191C540.563 463.646 540.828 469.15 543.463 474.243C544.366 475.986 544.627 478.558 544.108 480.446C543.272 483.439 542.771 486.353 542.969 489.427C543.005 489.948 542.84 490.664 542.49 490.986C540.643 492.734 538.924 494.718 536.779 496C531.35 499.255 525.728 502.207 520.147 505.209C518.876 505.9 517.452 506.308 516.276 506.772L516.255 506.842Z" fill="white"/>
<path d="M758.426 189.897C762.32 191.649 766.259 192.321 770.402 190.711C773.552 189.487 775.944 187.307 777.424 184.432C779.849 179.704 783.482 175.618 784.668 170.186C785.03 168.561 786.847 167.316 787.737 165.746C789.243 163.106 790.565 160.362 791.934 157.662C792.784 155.985 793.578 154.274 794.391 152.562C795.397 150.418 796.293 148.205 797.419 146.12C799.451 142.375 801.463 138.594 803.809 135.038C804.852 133.455 806.489 134.146 807.515 135.545C808.883 137.405 810.092 139.379 811.452 141.249C812.611 142.843 813.877 144.362 815.126 145.9C815.438 146.279 815.874 146.583 816.142 146.991C818.995 151.487 821.821 155.993 824.638 160.508C825.117 161.272 825.473 162.131 826.014 162.848C829.769 167.751 833.629 172.559 837.278 177.537C838.666 179.433 839.496 181.736 840.751 183.735C841.91 185.575 843.3 187.28 844.618 189.006C845.652 190.36 846.836 191.609 847.764 193.039C849.695 196.005 851.475 199.058 853.344 202.071C854.562 204.036 855.752 206.01 857.085 207.889C860.853 213.172 864.682 218.389 868.486 223.652C870.035 225.787 871.549 227.942 873.072 230.087C875.793 233.898 878.532 237.691 881.209 241.549C882.848 243.908 884.425 246.314 885.958 248.749C888.334 252.535 891.232 252.986 894.714 250.056C895.762 249.161 896.82 248.275 898.38 246.947C894.357 254.264 894.217 257.904 897.335 266.226C901.358 266.995 904.929 266.428 907.744 263.065C908.772 261.836 910.192 260.921 911.444 259.865L919.232 251.549C921.007 248.002 923.241 244.885 927.02 243.233L929.391 240.701C929.353 240.629 929.268 240.55 929.275 240.487C929.99 235.07 927.266 230.906 924.538 226.614C920.919 220.91 917.584 215.034 914.223 209.185C913.492 207.921 913.24 206.37 912.553 205.077C911.595 203.286 910.441 201.609 909.351 199.904C908.346 198.331 907.163 196.855 906.328 195.214C905.134 192.886 904.235 190.413 903.121 188.037C900.905 183.33 898.635 178.662 896.356 173.985C895.967 173.181 895.556 172.288 894.902 171.728C891.886 169.114 890.491 165.632 889.256 161.81C894.343 164.014 899.252 166.296 904.277 168.266C907.878 169.674 911.712 170.458 915.305 171.893C925.662 176.032 935.79 180.677 945.163 186.841C945.71 187.195 946.307 187.702 946.898 187.747C953.204 188.18 957.632 192.589 962.819 195.343C967.121 197.617 969.771 197.433 972.694 193.523C975.738 189.446 978.41 185.055 981.707 181.215C984.473 178 987.966 175.414 991.039 172.451C992.146 171.382 993.256 170.178 993.909 168.824C995.102 166.311 994.284 164.615 992.107 162.962C987.463 159.403 982.817 160.086 978.07 162.585C977.268 163.009 976.476 163.443 975.665 163.858C975.54 163.917 975.367 163.913 975.394 163.903C976.932 161.379 978.531 158.79 980.083 156.157C980.984 154.633 980.546 153.205 978.935 152.749C972.272 150.877 967.113 146.273 961.153 143.218C951.975 138.516 943.706 132.298 934.305 128.002C930.613 126.316 927.675 123.074 924.124 120.993C917.16 116.91 909.947 113.242 902.948 109.195C898.455 106.601 894.245 103.517 889.776 100.859C885.447 98.2773 880.955 96.0003 876.565 93.5205C872.324 91.1267 868.056 88.7609 863.934 86.1638C862.285 85.1286 861.111 83.3621 859.53 82.1978C858.396 81.3637 856.958 80.9111 855.625 80.3643C854.797 80.01 853.919 79.7842 853.066 79.4941C853.454 78.3668 853.638 77.1009 854.305 76.164C854.936 75.2646 856.021 74.6317 856.979 74.021C861.23 71.3019 865.03 67.8448 870.598 67.6399C876.366 67.4288 881.132 64.4031 885.343 60.7698C888.091 58.3977 891.023 56.6181 894.371 55.351C897.11 54.3028 899.517 52.839 901.105 50.1867C901.706 49.1886 902.82 48.3553 903.881 47.8229C907.421 46.0692 909.626 43.1706 911.14 39.6776C912.175 37.2968 911.943 34.9926 910.018 33.0325C909.671 32.6719 909.279 32.34 909.047 31.9122C904.741 24.1268 897.304 25.1073 890.249 25.3052C888.963 25.3462 887.72 26.6731 886.439 27.3847C885.033 28.1729 883.657 29.0417 882.202 29.6955C880.129 30.6137 877.94 31.2818 875.878 32.2269C869.583 35.0837 863.336 38.0387 857.042 40.9137C853.515 42.5219 850.029 44.2557 846.392 45.5502C843.006 46.746 839.496 47.7735 835.941 48.2676C830.788 48.9849 825.527 48.8808 820.394 49.6338C814.332 50.5161 808.804 52.723 804.974 57.994C804.489 58.6622 802.949 58.9561 802.01 58.7956C800.377 58.4942 798.736 57.6763 798.713 55.6555C798.694 54.0244 799.001 52.3829 799.182 50.7455C799.698 46.1603 800.785 41.5478 800.595 36.9851C800.319 30.4127 799.247 23.902 793.427 19.3285C790.457 17.0029 787.861 14.2031 785.099 11.617C786.396 9.20062 787.654 7.25684 788.48 5.13648C788.888 4.08098 788.965 2.32898 788.36 1.58683C787.783 0.889084 786.001 0.710261 784.922 0.98036C781.164 1.91607 777.488 3.12113 773.792 4.27244C765.924 6.72619 758.066 9.20682 750.209 11.7056C749.662 11.8771 749.071 12.0954 748.675 12.4615C744.333 16.498 739.442 20.1259 735.9 24.7714C733.034 28.525 731.715 33.4803 729.835 37.9459C725.41 48.4301 730.736 62.5557 739.242 69.065C743.81 72.5544 748.662 75.8171 753.772 78.428C758.31 80.7308 763.354 80.2979 768.24 78.6826C770.383 77.9707 772.686 77.7069 774.921 77.3273C777.328 76.9152 778.941 78.5317 780.617 79.8198C780.97 80.0986 781.108 80.9645 780.999 81.4937C780.771 82.5253 780.464 83.6229 779.904 84.502C775.403 91.6165 775.242 100.025 773.066 107.827C772.289 110.607 773.086 113.809 772.475 116.657C771.379 121.804 769.407 126.762 768.439 131.924C766.97 139.721 763.545 146.756 760.845 154.085C758.345 160.864 756.175 167.759 753.72 174.546C752.186 178.792 752.456 182.763 754.861 186.593L758.483 189.985L758.426 189.897ZM902.973 261.649C900.133 259.691 899.717 257.284 900.712 254.533C901.442 252.534 902.228 250.55 903.058 248.575C904.68 244.761 906.266 240.985 904.652 236.685C903.606 233.899 902.22 233.373 900.238 235.62C898.456 237.635 896.966 239.94 895.593 242.25C893.68 245.475 890.832 245.964 888.328 243.234C887.623 242.468 887.251 241.401 886.615 240.542C886.045 239.781 885.36 239.068 884.649 238.438C883.855 237.747 882.654 237.342 882.155 236.505C879.022 231.239 875.494 226.357 871.121 221.964C868.306 219.134 864.969 216.15 865.242 211.337C865.282 210.637 864.4 209.759 863.755 209.154C862.677 208.128 861.373 207.345 860.358 206.271C859.671 205.54 858.723 204.32 858.918 203.625C860.058 199.799 858.297 196.519 856.833 193.43C855.204 189.992 852.664 186.981 850.419 183.862C849.563 182.675 848.22 181.838 847.418 180.631C843.78 175.154 840.407 169.487 836.06 164.522C834.929 163.235 833.749 161.586 832.264 161.108C829.075 160.086 827.085 158.046 825.515 155.313C824.542 153.613 823.586 151.894 822.551 150.222C821.986 149.325 821.41 148.364 820.616 147.692C817.302 144.851 814.733 141.498 812.913 137.531C812.228 136.048 811.353 134.562 810.217 133.411C808.378 131.566 807.224 129.59 807.071 126.921C807.014 126.061 806.155 124.765 805.414 124.562C804.709 124.376 803.393 125.125 802.873 125.849C801.721 127.436 800.959 129.3 799.947 131.001C798.222 133.911 795.683 136.566 794.827 139.694C792.962 146.471 789.19 152.093 785.606 157.928C783.312 161.672 781.582 165.77 779.695 169.756C777.756 173.833 775.965 177.979 774.036 182.065C772.665 184.955 770.676 187.285 767.199 187.396C763.93 187.509 761.47 185.802 759.9 183.051C758.213 180.086 757.45 176.811 758.726 173.516C760.769 168.238 762.608 162.804 765.325 157.877C768.785 151.611 770.4 144.915 770.566 138.02C770.788 128.74 774.028 120.514 777.603 112.251C778.696 109.732 779.265 106.967 779.918 104.281C781.507 97.6313 782.325 90.7158 784.714 84.3758C787.234 77.6507 784.115 69.0478 774.301 71.0288C773.824 71.1256 773.329 71.2411 772.84 71.2748C770.147 71.5058 767.443 71.9728 764.747 71.8865C760.555 71.7664 756.357 70.9394 752.218 72.395C751.689 72.5841 750.85 72.4295 750.359 72.1279C748.405 70.8939 746.194 69.8404 744.714 68.1562C741.896 64.9736 739.509 61.4056 736.964 57.9696C736.384 57.1813 735.533 56.4017 735.367 55.5096C734.017 48.5273 733.113 41.8752 736.537 34.8041C738.791 30.1453 741.311 26.1035 744.71 22.3238C748.38 18.2363 752.483 14.8873 757.742 13.3055C762.238 11.9564 766.868 11.0835 771.458 10.0669C775.867 9.09227 776.852 9.82229 779.45 13.4651C782.952 18.3754 786.894 22.9272 793.008 24.8987C794.116 25.2532 795.531 26.3502 795.792 27.3663C796.74 31.0073 797.682 34.7483 797.816 38.4697C797.983 42.8881 797.178 47.2378 795.399 51.4826C793.167 56.7933 794.336 60.2733 798.401 62.011C801.501 63.3353 804.484 62.5331 807.415 61.0164C812.084 58.6012 816.87 56.418 821.607 54.1548C821.964 53.9802 822.405 53.8846 822.795 53.8993C828.519 54.0159 834.106 53.5476 839.476 51.2279C843.551 49.4662 847.978 48.491 851.975 46.5868C855.393 44.9639 858.562 43.2493 862.51 44.1749C863.186 44.3346 863.994 44.0913 864.714 43.9414C874.211 41.9433 882.241 37.0459 889.796 31.23C890.812 30.4452 891.938 29.4121 893.111 29.2659C897.155 28.7562 901.219 29.0889 904.842 31.167C908.226 33.1078 909.001 38.3408 906.327 41.064C904.145 43.282 901.839 45.3498 898.498 45.9912C896.804 46.3172 895.097 47.3144 893.711 48.4011C889.347 51.8037 883.508 53.1231 880.163 57.9707C879.947 58.2768 879.48 58.4186 879.115 58.6206C874.766 61.1071 870.271 63.3173 865.777 65.5275C860.096 68.3285 855.147 72.6562 850.028 76.5089C846.616 79.0835 846.963 80.7766 850.661 82.9068C853.647 84.6336 856.427 86.6933 859.327 88.5498C860.477 89.2927 861.703 89.9153 862.913 90.5747C864.547 91.4563 866.983 91.9134 867.7 93.2684C870.313 98.1889 874.827 98.9787 879.52 99.6901C880.413 99.8248 881.407 99.7206 882.172 100.104C886.828 102.412 891.631 104.507 896.003 107.268C901.19 110.548 906.046 114.236 910.529 118.662C914.927 123.009 920.891 125.928 926.517 128.794C929.534 130.339 932.681 131.444 935.043 134.025C935.645 134.677 936.443 135.213 937.245 135.614C940.998 137.497 944.967 139.039 948.521 141.228C957.075 146.485 965.457 152.019 973.945 157.477C972.09 159.458 970.074 161.517 968.161 163.672C964.214 168.131 963.947 169.354 965.956 172.744C970.628 170.963 975.3 169.164 979.973 167.419C982.731 166.389 985.528 166.009 988.799 167.564C988.24 169.005 988.009 170.771 987.04 171.862C982.582 176.791 977.788 181.404 973.377 186.358C968.617 191.722 964.123 192.319 958.56 187.846C956.025 185.806 953.443 183.966 950.033 183.649C949.096 183.561 948.155 183.065 947.279 182.631C940.108 179.143 932.963 175.591 925.768 172.185C924.073 171.387 922.392 170.743 921.898 168.719C921.129 165.543 918.807 164.421 915.938 163.488C912.29 162.299 908.721 160.781 905.316 159.013C901.404 156.981 897.642 154.844 892.982 155.355C890.57 155.622 888.381 154.94 886.182 153.722C884.436 152.754 882.245 152.579 880.233 152.045C879.537 158.286 882.137 162.826 885.169 167.243C890.469 174.943 895.573 182.757 898.817 191.583C899.964 194.692 901.753 197.209 903.904 199.679C906.157 202.263 908.319 205.058 909.889 208.09C912.43 212.995 914.416 218.135 918.522 222.138C919.928 223.507 920.986 225.866 921.088 227.821C921.238 230.926 921.681 233.849 922.838 236.703C923.036 237.187 923.106 237.919 922.875 238.334C921.672 240.575 920.666 243 919.035 244.893C914.909 249.693 910.503 254.266 906.152 258.874C905.164 259.93 903.941 260.766 902.971 261.577L902.973 261.649Z" fill="white"/>
</g>
<defs>
<clipPath id="clip0_729_1059">
<rect width="995" height="610" fill="white"/>
</clipPath>
</defs>
</svg>
