<svg width="195" height="289" viewBox="0 0 195 289" fill="none" xmlns="http://www.w3.org/2000/svg">
    <path
        d="M194.987 131.725C192.847 136.805 188.194 138.832 183.682 141.038C183.464 141.141 183.182 141.256 182.977 141.205C180.131 140.525 177.286 139.832 174.453 139.114C173.171 138.793 171.928 138.19 170.646 138.088C167.493 137.818 164.506 137.664 161.827 135.355C160.456 134.175 158.084 133.751 156.149 133.7C149.317 133.521 143.126 130.904 136.717 129.107C132.5 127.927 128.257 126.811 123.656 125.567C124.54 128.017 125.258 130.455 126.296 132.764C128.296 137.215 130.449 141.603 132.602 145.977C133.23 147.247 134.179 148.35 134.781 149.633C135.551 151.25 136.063 152.982 136.768 154.624C137.46 156.214 138.178 157.805 139.024 159.319C141.255 163.309 143.575 167.26 145.843 171.224C146.792 172.879 147.74 174.547 148.663 176.214C150.509 179.575 152.47 182.872 154.136 186.323C155.47 189.094 157.431 191.557 158.725 194.149C160.597 197.908 163.34 200.858 165.532 204.258C167.16 206.785 169.249 209.004 170.851 211.544C171.71 212.904 172.748 214.867 172.351 216.15C171.684 218.369 169.749 220.294 167.121 220.14C164.25 219.973 161.327 219.472 158.571 218.651C153.188 217.048 147.869 217.843 143.023 218.087C143.023 221.012 143.011 223.514 143.023 226.015C143.049 228.812 143.408 231.429 145.433 233.699C146.279 234.649 146.51 236.252 146.779 237.612C147.24 239.87 147.253 242.243 147.894 244.437C149.509 250.005 151.188 255.559 150.842 261.435C150.637 264.847 155.687 269.35 159.905 269.171C162.545 269.055 165.262 269.26 167.057 271.416C167.954 272.493 168.352 274.174 168.518 275.636C168.659 276.919 167.98 278.266 167.993 279.588C168.018 282.14 166.39 282.897 164.378 283.641C157.136 286.284 149.343 285.63 141.985 287.58C141.037 287.824 140.037 287.875 139.088 288.106C136.499 288.734 135.717 287.233 135.243 285.091C134.602 282.179 133.653 279.331 133.102 276.406C132.038 270.813 127.591 266.836 126.181 261.435C125.847 260.165 125.514 258.895 125.206 257.625C124.989 256.727 124.963 255.778 124.642 254.931C122.002 247.837 119.208 240.807 116.695 233.661C115.35 229.825 114.491 225.81 113.529 222.333C104.98 222.333 96.6097 222.385 88.2396 222.295C86.6887 222.282 85.1505 221.679 82.9843 221.217C82.2152 223.141 81.0488 225.079 80.6771 227.157C79.1389 235.803 74.3194 243.231 71.8968 251.544C70.6791 255.713 69.2948 259.819 67.9232 263.937C66.7824 267.336 65.5007 270.684 64.347 274.084C63.6549 276.124 63.1422 278.215 62.4628 280.255C61.6553 282.654 61.04 285.181 59.7582 287.31C59.1558 288.311 57.169 289.094 55.9 288.991C49.0168 288.401 42.1464 287.682 35.3145 286.656C31.4819 286.079 29.0593 283.18 27.3802 279.883C25.637 276.445 27.2777 272.917 30.8923 271.198C33.4687 269.979 35.9169 268.465 38.4292 267.092C38.7881 266.9 39.2368 266.464 39.4931 266.554C42.6463 267.644 43.0949 265.078 43.5564 263.244C44.5177 259.472 45.2355 255.624 45.7354 251.775C45.9918 249.812 45.6457 247.747 45.4022 245.733C44.9664 242.025 46.9916 239.19 49.1065 236.753C51.747 233.725 52.8622 230.415 53.1314 226.567C53.2724 224.437 53.7851 222.346 54.2081 219.78C51.6958 219.652 49.004 219.537 46.3122 219.357C39.7495 218.921 33.1867 218.459 26.6239 218.01C26.2907 217.984 25.9574 218.01 25.637 217.946C24.5731 217.766 23.5092 217.548 22.4453 217.356C22.7017 216.227 22.8042 215.034 23.24 213.982C25.4447 208.812 29.7002 204.591 30.3668 198.677C30.4437 197.946 30.8154 197.24 31.1102 196.548C32.4048 193.533 33.1226 193.187 36.3656 194.02C39.3265 188.786 42.4028 183.578 45.2227 178.241C47.0941 174.701 48.7348 171.019 50.2217 167.311C52.4392 161.769 54.3363 156.099 56.5666 150.57C57.9125 147.247 59.6301 144.066 61.1682 140.82C61.4502 140.217 62.0142 139.55 61.9245 138.998C61.3989 135.727 62.7704 132.892 63.8087 129.98C64.1676 128.992 64.5265 127.991 65.0648 126.542C62.2449 127.363 59.7582 128.184 57.2331 128.8C54.0799 129.557 50.837 129.993 47.6966 130.839C42.8258 132.161 38.0062 133.713 33.1739 135.163C29.5977 136.24 26.0215 137.305 22.4453 138.37C20.3816 138.986 18.241 139.396 16.2414 140.191C12.05 141.872 6.64082 140.756 3.59016 137.395C-0.47312 132.918 -1.15247 129.338 1.88538 124.476C4.26951 120.653 6.46137 116.407 11.3194 114.958C12.2038 114.701 13.1651 114.739 14.0624 114.509C15.5749 114.124 17.1643 113.841 18.523 113.136C22.9708 110.865 27.1879 107.979 32.4817 108.017C32.6484 108.017 32.8791 108.017 32.956 107.915C36.5706 103.707 42.3387 103.963 46.7096 101.205C49.991 99.1398 53.8235 97.9595 57.3356 96.2405C59.5147 95.1886 61.6681 94.0212 63.6421 92.6485C67.5515 89.9288 71.5892 87.5427 75.9216 85.4901C78.7544 84.1431 80.9334 81.4234 83.356 79.2426C84.2661 78.4215 85.612 77.4337 85.676 76.4459C85.817 74.3677 85.1249 72.3279 83.0099 71.1733C81.0488 70.0957 79.062 69.0438 77.2034 67.7994C74.6014 66.0547 72.1147 64.1561 69.9869 62.6166C69.7818 65.7083 69.6665 69.3645 69.2563 72.9822C68.8589 76.5229 67.3336 77.2669 64.1163 75.7018C59.3096 73.3542 54.5926 70.827 49.7474 68.5691C47.735 67.6198 45.5175 67.0168 43.3385 66.5165C41.0825 65.9906 39.8777 64.5409 39.3137 62.514C38.7369 60.4358 39.5188 58.6654 41.2107 57.4339C43.0821 56.0612 45.3125 55.0862 46.966 53.5083C50.0679 50.5449 52.875 47.2736 55.7847 44.1434C53.6697 42.5654 51.542 41.1286 49.5936 39.4866C47.5812 37.7932 47.6069 35.7534 49.4526 33.9703C51.0805 32.4052 52.9135 31.0197 54.3491 29.2878C56.746 26.3757 58.6046 26.7092 61.5527 29.4802C62.3346 27.4661 63.2703 25.5932 63.7959 23.6175C67.2695 10.7632 75.896 3.66899 88.6242 1.05195C90.3546 0.718404 91.9568 0.346373 93.5719 0C98.0838 0 102.609 0 107.12 0C113.068 1.20589 117.887 4.24628 121.784 8.87742C122.592 9.82674 123.502 10.7119 124.476 11.5073C127.757 14.1757 129.975 17.5368 131.244 21.5521C131.897 23.5919 132.564 25.6316 133.243 27.7099C136.473 25.6958 139.306 26.2987 141.959 29.3263C143.216 30.7503 144.715 31.9562 145.907 33.4315C146.728 34.4449 147.535 35.6893 147.715 36.9208C147.945 38.5116 146.958 39.6405 145.279 40.2178C143.267 40.9106 141.344 41.8599 139.37 42.7066C139.14 43.0786 138.896 43.4635 138.665 43.8355C142.395 47.1838 146.177 50.4679 149.817 53.906C151.688 55.6635 153.47 57.5621 155.008 59.6147C156.585 61.7314 156.162 64.0663 153.842 65.3235C149.548 67.6583 145.061 69.6339 140.703 71.8404C137.755 73.3285 134.91 75.0476 131.949 76.51C130.334 77.3054 128.565 77.8057 126.27 78.6524V63.6814C125.181 64.3613 124.719 64.7077 124.207 64.9771C119.887 67.2734 115.708 69.9803 111.158 71.6993C108.53 72.6871 108.171 74.0983 108.107 76.2663C108.03 78.6396 109.684 79.0758 111.504 79.4478C112.209 79.5889 112.901 79.9225 113.504 80.3202C121.515 85.5799 129.513 90.8653 137.537 96.1251C138.14 96.5099 138.87 96.728 139.563 96.9333C140.947 97.3566 142.485 97.4592 143.716 98.1392C148.497 100.782 152.611 104.605 158.264 105.682C161.571 106.324 164.968 106.927 167.557 109.557C168.198 110.198 169.339 110.416 170.3 110.66C172.799 111.301 175.337 111.814 177.85 112.443C180.08 113.008 182.503 113.277 184.464 114.355C186.95 115.714 189.078 117.767 191.347 119.524C191.449 119.601 191.501 119.845 191.488 119.999C191.039 123.091 193.244 124.797 195 126.734V131.763L194.987 131.725ZM89.7265 74.4575C90.047 75.8045 90.0854 77.6903 90.9057 79.1143C93.0592 82.8474 92.3029 84.2201 88.3293 86.0161C83.5867 88.1585 77.5367 87.1193 73.8964 91.9173C73.64 92.2636 72.9863 92.2893 72.5249 92.5074C60.3479 98.3444 47.7991 103.425 36.5578 111.122C34.0968 112.802 30.9564 113.918 27.9955 114.355C24.5346 114.868 21.3558 115.804 18.2795 117.369C15.8953 118.588 8.08924 124.746 6.52546 126.965C5.98711 127.735 5.58975 128.774 5.57693 129.71C5.52566 132.828 9.52485 135.778 12.5627 135.034C13.3702 134.842 14.229 134.855 15.0237 134.649C19.0486 133.598 23.1759 135.996 27.2007 134.175C31.5076 132.225 35.8913 130.416 40.2237 128.53C40.4288 128.44 40.5698 128.171 40.7108 127.966C42.954 124.72 46.5686 124.784 49.9013 124.207C50.4652 124.104 51.3625 124.387 51.6958 124.81C53.439 127.016 54.8746 125.746 56.6307 124.759C59.9377 122.886 63.3601 121.192 66.8337 119.653C68.6667 118.845 70.1407 120.038 69.7818 121.988C69.2819 124.746 68.7308 127.568 67.7053 130.159C66.0903 134.265 64.7444 138.177 67.0004 142.526C68.0001 144.451 67.3721 146.234 65.8083 147.978C64.7829 149.133 64.1932 151.057 64.1548 152.648C64.0779 155.855 62.873 158.69 60.7068 160.589C57.874 163.065 55.9641 165.849 54.9002 169.389C52.6058 176.971 48.8886 183.847 44.4024 190.339C39.5188 197.42 34.6736 204.527 29.8541 211.647C28.8286 213.161 29.0978 214.431 31.1102 214.675C35.7503 215.252 40.3904 215.88 45.0433 216.188C48.6195 216.432 52.2213 216.073 55.7975 216.265C59.0532 216.445 59.3481 217.33 58.1175 220.268C57.2972 222.243 56.6947 224.347 56.3102 226.451C55.4258 231.301 55.695 236.65 53.6954 240.935C51.3241 246.002 52.6443 251.801 49.5039 256.47C49.427 256.586 49.4526 256.817 49.5039 256.958C50.8882 260.896 48.1708 263.346 46.2353 266.092C43.8256 269.504 40.7749 271.865 36.5706 272.711C34.8787 273.058 33.238 273.827 31.687 274.61C30.9692 274.969 29.9438 275.97 30.0463 276.47C30.277 277.599 30.8923 279.215 31.7639 279.536C35.8528 281.063 40.0315 282.461 44.287 283.423C46.9916 284.039 49.9397 283.526 52.6571 284.065C56.2589 284.783 56.3102 284.937 56.4768 281.332C56.5025 280.755 56.464 280.114 56.6819 279.613C58.2842 275.88 60.0787 272.224 61.5656 268.452C63.3985 263.795 65.5135 259.151 66.5133 254.289C67.1413 251.236 67.7951 248.388 69.1922 245.592C70.1279 243.719 70.4355 241.538 71.0508 239.511C71.2943 238.715 71.5763 237.946 71.8712 237.163C73.3837 233.109 74.909 229.055 76.4343 225.002C77.2547 222.821 78.0878 220.64 78.8697 218.446C79.4978 216.663 80.7027 216.137 82.5357 216.278C88.9446 216.791 95.3664 217.279 101.788 217.625C105.531 217.818 109.299 218.01 112.824 216.163C113.388 215.868 114.85 216.124 115.119 216.573C116.58 219.126 117.99 221.756 119.067 224.488C119.913 226.644 120.079 229.068 120.887 231.249C123.066 237.202 125.527 243.064 127.655 249.03C128.629 251.762 128.962 254.713 129.834 257.484C130.769 260.499 131.974 263.423 133.102 266.374C134.076 268.914 135.217 271.403 136.115 273.969C137.332 277.458 138.383 281.012 139.486 284.475C140.639 284.296 141.447 284.142 142.254 284.039C147.446 283.398 152.65 282.859 157.815 282.089C159.251 281.871 160.661 281.127 161.981 280.421C163.545 279.575 163.904 276.534 162.712 275.264C160.917 277.676 158.571 277.201 156.187 276.56C153.393 275.803 153.457 272.891 152.521 271.223C151.265 271.108 149.894 271.313 149.663 270.89C148.292 268.362 146.612 265.797 146.125 263.051C145.484 259.524 146.074 255.79 145.728 252.186C145.433 249.145 144.164 246.182 144.036 243.141C143.869 239.267 142.946 235.88 140.344 232.981C140.101 232.712 140.05 232.173 140.075 231.775C140.28 228.465 138.576 225.887 136.922 223.283C136.204 222.154 135.486 221.025 134.858 219.845C133.666 217.574 134.833 215.188 137.371 215.111C144.139 214.918 150.906 214.995 157.674 214.777C160.251 214.7 162.801 214.11 165.365 213.764C165.416 213.52 165.455 213.289 165.506 213.045C161.673 209.71 160.853 204.283 156.88 201.012C156.431 200.64 156.021 199.396 156.226 199.203C157.61 197.856 156.585 196.856 155.854 195.919C153.457 192.866 151.329 189.71 150.701 185.772C150.599 185.143 150.214 184.527 149.868 183.963C146.574 178.652 143.075 173.482 140.844 167.542C140.165 165.746 138.563 163.45 136.986 163.078C135.076 162.642 134.384 161.718 133.589 160.384C133.013 159.409 132.385 158.485 131.795 157.549C130.564 158.177 129.565 158.69 128.334 159.319C128.334 156.638 128.449 154.38 128.27 152.135C128.206 151.352 127.424 150.621 127.001 149.851C126.245 148.466 125.104 147.119 124.86 145.644C124.412 142.962 124.848 140.114 124.284 137.485C123.361 133.2 122.553 128.646 118.746 125.772C116.542 124.104 117.208 122.065 118.041 120.538C118.874 119.024 120.874 119.152 122.54 119.858C125.001 120.884 127.45 121.975 129.962 122.898C135.448 124.925 140.575 128.235 146.805 127.748C147.24 127.709 147.689 128.158 148.151 128.338C149.304 128.787 150.432 129.326 151.624 129.633C155.816 130.685 160.033 131.596 164.211 132.661C168.326 133.7 172.402 134.893 176.504 135.945C177.016 136.073 177.645 135.663 178.196 135.714C179.17 135.804 180.259 135.817 181.054 136.292C183.105 137.523 184.579 137.318 185.938 135.355C186.656 134.329 187.425 133.341 188.258 132.404C190.77 129.595 190.296 126.247 187.117 124.13C186.092 123.45 184.848 122.732 184.361 121.705C182.4 117.613 178.798 115.83 174.825 114.727C170.364 113.495 165.916 112.712 161.725 110.198C157.495 107.671 152.38 106.58 147.587 105.054C146.958 104.849 145.805 105.541 145.19 106.131C143.062 108.12 141.985 108.21 139.896 106.157C138.819 105.105 137.678 104.079 136.807 102.873C130.295 93.9185 120.861 88.7101 111.491 83.6556C107.428 81.4619 103.865 79.8712 104.493 74.419H89.7393L89.7265 74.4575ZM99.1605 70.7756C101.711 70.1342 104.236 69.2619 106.838 68.9283C111.273 68.351 114.978 66.3754 118.067 63.335C126.45 55.0862 130.769 45.2082 129.077 33.2775C128.411 28.5694 128.565 23.656 124.989 19.6022C120.246 14.2398 115.452 8.99288 109.056 5.67026C106.479 4.33608 103.48 3.33545 100.622 3.15585C95.9047 2.86079 91.3159 3.74597 86.7015 5.42652C81.8819 7.17121 78.9595 10.5323 76.46 14.3424C73.217 19.2686 70.5765 24.6053 67.7694 29.8138C67.2054 30.8657 66.462 32.4308 66.8465 33.3032C69.1025 38.4988 68.9487 43.9125 68.7308 49.3518C68.7308 49.4288 68.782 49.5057 68.8077 49.5956C69.628 53.5724 72.166 56.3306 74.6398 59.4479C77.4598 63.0015 80.9719 64.5409 84.5481 66.6192C89.1241 69.2747 93.9051 70.4549 99.1861 70.7756H99.1605ZM51.7855 37.6521C54.3619 38.7938 56.3743 39.602 58.3098 40.5642C59.1173 40.9747 60.194 41.6418 60.3479 42.3602C60.5401 43.2197 60.194 44.7207 59.5403 45.1825C55.6821 47.9022 53.6313 51.9304 51.3625 55.8174C50.4396 57.3954 49.7218 58.9861 47.6581 59.5891C46.8378 59.8328 46.3379 61.2055 45.8252 61.8982C51.9649 65.208 57.733 68.3125 64.3086 71.8404C66.1415 57.7417 64.0907 44.9772 57.6433 32.6361C55.7975 34.214 54.1696 35.6123 51.7727 37.6649L51.7855 37.6521ZM131.244 71.7891C131.449 71.7763 132.064 71.8789 132.551 71.6608C138.845 68.8513 145.138 66.0162 151.381 63.0785C151.765 62.8989 152.073 61.5262 151.804 61.1798C151.137 60.3075 150.189 59.2427 149.227 59.0887C146.343 58.6397 144.779 56.8822 143.369 54.5859C141.011 50.7245 137.409 48.2742 133.371 46.0677C132.487 51.3018 130.231 55.9329 131.128 61.2311C131.705 64.6179 131.231 68.1843 131.231 71.7891H131.244ZM135.012 39.9997C135.166 40.1024 135.32 40.205 135.474 40.3076C137.871 38.5757 140.268 36.8567 142.946 34.9196C141.101 34.0216 139.511 33.239 137.64 32.3282C136.691 35.0992 135.845 37.5494 134.999 39.9997H135.012Z"
        fill="#b6c5cd" />
</svg>