<svg width="200" height="81" viewBox="0 0 200 81" fill="none" xmlns="http://www.w3.org/2000/svg">
<path d="M17.238 0C25.3009 2.01742 28.549 9.60105 34.0427 14.5871C36.8678 17.1481 39.3692 20.1063 42.3666 22.4268C50.3303 28.5941 58.4611 34.5523 66.5866 40.5052C67.8921 41.4617 69.4796 42.1098 71.0254 42.622C72.6494 43.1603 74.216 42.7631 75.0046 41.0592C79.0047 32.446 86.1067 26.676 93.4019 21.1725C96.5613 18.7892 100.227 17.0801 103.575 14.9268C104.431 14.378 104.89 13.2491 105.642 12.4965C106.875 11.2578 108.013 9.73171 109.522 9.02091C111.695 7.99129 114.222 7.7561 116.483 6.87805C124.035 3.95122 130.238 7.28049 136.709 10.5836C142.009 13.2909 147.779 15.0523 153.289 17.3571C154.84 18.0052 156.385 18.9042 157.628 20.0279C161.545 23.5662 163.294 23.7648 167.722 21C175.958 15.8624 184.908 15.1202 192.987 22.0662C195.848 24.5279 197.41 26.5767 196.966 30.392C196.674 32.9321 197.013 35.6341 197.561 38.1533C197.922 39.8153 199.154 41.2892 200 42.8467V46.5052C195.869 48.4233 193.958 52.0087 192.71 56.122C192.381 57.1986 191.974 58.2753 191.441 59.2631C191.002 60.0784 190.418 60.8728 189.733 61.4948C187.686 63.3659 185.462 65.0436 183.488 66.9878C178.955 71.446 173.649 74.676 167.869 77.1794C167.268 77.4408 166.443 77.6498 165.874 77.4512C160.688 75.6481 155.487 73.8293 151.978 69.1986C151.44 68.4878 150.928 67.7509 150.176 66.7056C150.025 67.5314 150.04 67.9077 149.889 68.1899C149.33 69.2404 148.714 70.2596 148.119 71.2892C147.226 70.5314 145.753 69.9094 145.534 68.9895C144.526 64.8084 143.743 60.5592 143.126 56.2944C142.526 52.1341 143.012 48.2613 147.309 46.0139C147.456 45.9355 147.57 45.7892 147.685 45.6585C149.09 44.0697 148.829 43.0087 146.813 42.507C144.876 42.0261 142.881 41.7753 140.949 41.2631C138.5 40.6098 137.252 41.5139 136.526 43.892C135.131 48.4652 133.596 53.0017 131.993 57.5122C130.562 61.5261 129.011 65.4983 127.408 69.4443C126.52 71.6237 125.053 73.3589 122.421 72.3449C120.625 71.6551 119.465 72.2718 118.186 73.3119C116.974 74.2944 115.789 75.4547 114.384 76.0348C110.076 77.8171 105.669 79.3589 101.303 81H91.9032C88.3313 79.0871 84.3782 77.6551 81.2763 75.1568C75.0725 70.1551 72.686 63.1254 72.5815 55.27C72.5241 50.9791 72.3674 51.0679 68.5292 49.4634C66.5187 48.622 64.832 46.9547 63.0669 45.5749C49.4634 34.9652 36.9827 23.1167 25.045 10.6986C20.8047 6.28746 16.2824 5.13763 10.794 8.17944C8.51719 9.43902 6.03149 10.3118 3.70245 11.4721C2.28204 12.1829 1.07575 12.2927 0 10.9652C0 10.0923 0 9.22474 0 8.35192C2.17238 6.7108 4.20899 4.82927 6.55892 3.49652C9.09684 2.06969 11.9272 1.14983 14.627 0C15.4991 0 16.366 0 17.238 0ZM80.9786 53.0906C80.9786 54.8362 80.8219 56.0801 81.0099 57.2718C81.4799 60.2561 81.2449 63.8467 82.8533 66.047C85.5584 69.7422 89.0467 73.2962 92.9841 75.5697C99.6475 79.4111 106.812 76.6254 112.113 72.899C122.64 65.5035 130.531 55.8188 131.34 41.8798C131.643 36.6638 131.262 32.0645 127.492 28.1498C124.353 24.8833 121.444 20.8589 116.609 20.6289C110.854 20.3519 104.964 21.324 100.337 25.061C95.6317 28.8659 91.2556 33.1516 87.1407 37.5993C83.0518 42.0209 79.9916 47.1115 80.9786 53.0854V53.0906ZM191.509 35.3049C191.065 31.7875 187.921 27.2613 183.31 23.7073C182.475 23.0645 180.913 22.8868 179.832 23.1324C174.036 24.4495 168.615 26.9634 164.918 31.5836C161.534 35.8118 158.547 40.6098 156.526 45.6167C153.759 52.4686 152.631 59.7439 156.85 66.7003C158.375 69.2143 160.276 72.0627 163.284 71.8118C169.111 71.3258 175.075 69.7631 179.321 65.6603C187.086 58.1655 191.566 48.8624 191.509 35.2997V35.3049ZM115.016 13.6882C119.168 15.8049 123.486 17.4721 127.194 20.0279C131.57 23.0436 133.706 27.8153 134.933 32.9634C135.142 33.8362 135.899 35.1847 136.515 35.2526C140.474 35.6812 144.458 36.0052 148.437 35.9895C152.714 35.9739 157.362 32.2631 158.861 28.0505C155.811 25.8293 152.892 23.3415 149.638 21.4129C143.962 18.047 138.134 14.9111 132.265 11.8902C125.993 8.66551 120.196 10.3328 115.016 13.6829V13.6882Z" fill="#8FB8DF"/>
</svg>
