<svg width="31" height="44" viewBox="0 0 31 44" fill="none" xmlns="http://www.w3.org/2000/svg">
<path fill-rule="evenodd" clip-rule="evenodd" d="M17.2953 0.51133C17.7573 0.491747 18.3946 0.481349 18.978 0.622283C19.51 0.750782 19.8134 1.09337 19.9735 1.34843C20.2666 1.31978 20.5355 1.3434 20.7627 1.38276C21.0836 1.43835 21.3802 1.53682 21.5958 1.61174C21.6751 1.6393 21.7438 1.6637 21.8061 1.68586C21.9421 1.73417 22.0482 1.77188 22.1697 1.80856C23.7435 2.28374 24.5142 3.45572 24.855 4.59112C24.9176 4.79955 24.9673 5.01169 25.0068 5.22339C25.1652 5.23097 25.2944 5.23908 25.4082 5.24623C25.5941 5.25789 25.7389 5.26698 25.9025 5.26698C25.9416 5.26698 25.9843 5.26664 26.0302 5.26627C26.3782 5.26349 26.904 5.25928 27.3618 5.3927C28.0751 5.60058 28.5278 6.06177 28.8654 6.57548C29.2891 7.22029 29.5448 8.00174 29.7103 8.50754C29.7508 8.63123 29.7859 8.73844 29.8167 8.82313C30.2562 10.0308 30.4035 11.3623 30.4588 12.5769C30.4927 13.3204 30.4932 14.1297 30.4936 14.8568C30.4938 15.2707 30.494 15.6579 30.5004 15.9913C30.535 17.8065 30.4541 19.5801 30.376 21.2941C30.3668 21.4945 30.3577 21.694 30.3489 21.8928C30.2632 23.8101 30.1975 25.6644 30.2968 27.5525C30.3085 27.7742 30.3552 28.0602 30.4283 28.4906L30.4315 28.5091C30.4976 28.8981 30.5803 29.3851 30.6171 29.8763C30.6874 30.8145 30.6346 32.2786 29.4349 33.2929C28.9939 33.6658 28.5812 34.0915 28.1442 34.569C28.0161 34.7089 27.8814 34.8585 27.7423 35.013C27.4312 35.3585 27.0978 35.7286 26.7667 36.0708C26.3016 36.5513 26.085 37.2758 26.0624 38.3892C26.0514 38.9354 26.0873 39.5085 26.1317 40.1264C26.1359 40.1851 26.1402 40.2445 26.1446 40.3045C26.1662 40.6021 26.1889 40.9141 26.2051 41.226C26.4766 41.4975 26.6446 41.8725 26.6446 42.2868C26.6446 43.1153 25.973 43.7868 25.1446 43.7868H11.1525C10.324 43.7868 9.65246 43.1153 9.65246 42.2868C9.65246 41.6978 9.99202 41.188 10.4861 40.9426C10.4976 40.8477 10.5033 40.7164 10.4979 40.5409C10.4908 40.3077 10.467 40.0622 10.4391 39.7786L10.4358 39.7451C10.4114 39.4986 10.38 39.1801 10.38 38.897C10.38 38.2881 10.128 37.7924 9.25896 36.8531C8.92506 36.4922 8.60728 36.087 8.33664 35.7418C8.2531 35.6353 8.17406 35.5345 8.10042 35.4424C7.7588 35.0156 7.45993 34.678 7.12135 34.4035C6.87338 34.2025 6.65513 34.0481 6.40623 33.872C6.29283 33.7918 6.17306 33.7071 6.04123 33.6114C5.64901 33.3267 5.20846 32.983 4.78849 32.5075C4.78849 32.5075 4.78905 32.5082 4.78677 32.5062C4.77628 32.4968 4.72649 32.452 4.59455 32.3567C4.56422 32.3348 4.51606 32.301 4.45877 32.2608C4.33171 32.1716 4.15974 32.0509 4.03781 31.9588C3.83363 31.8045 3.55227 31.5759 3.31629 31.2756C3.09914 30.9993 2.86759 30.5941 2.81789 30.0758C2.77873 30.0233 2.726 29.9593 2.64508 29.8644C2.63278 29.85 2.61942 29.8344 2.6052 29.8178C2.53114 29.7314 2.43406 29.6181 2.34472 29.5055C0.777752 27.5296 0.5 25.7258 0.5 23.655C0.5 22.3328 1.25607 20.8271 2.26062 19.7082C3.29768 18.5531 4.87629 17.5002 6.81333 17.5002C6.90852 17.5002 7.00164 17.5091 7.09191 17.526C7.09967 17.4807 7.10726 17.4376 7.11445 17.3969L7.11795 17.3769C7.17442 17.0561 7.20207 16.8834 7.20207 16.7024C7.20207 16.3642 7.17239 16.0316 7.13625 15.6267C7.11134 15.3476 7.08336 15.0341 7.05993 14.6607C7.01182 13.8944 6.98934 12.8853 7.2929 11.9871C7.46773 11.4698 7.59962 10.5992 7.63097 9.91031C7.63495 9.82276 7.63107 9.70722 7.61964 9.51545C7.61823 9.49177 7.61667 9.46648 7.61503 9.43982C7.60507 9.27837 7.592 9.06666 7.59028 8.85854C7.58635 8.38506 7.62916 7.62774 8.10033 6.93063C8.56269 6.24657 9.27579 5.9063 9.85713 5.74372C10.464 5.57401 11.123 5.53947 11.7325 5.61501C12.0553 5.65502 12.3992 5.7304 12.7359 5.85448C12.7496 5.52178 12.7575 5.19082 12.7575 4.86025V2.70257C12.7575 1.99287 13.1129 1.44071 13.5716 1.10396C13.9605 0.818462 14.389 0.706875 14.6688 0.654067C15.1592 0.561527 15.715 0.567016 15.9819 0.569651C16.0181 0.570008 16.049 0.570314 16.0737 0.570314C16.2714 0.570314 16.4577 0.558709 16.69 0.544237C16.8597 0.533663 17.054 0.521559 17.2953 0.51133ZM12.4414 9.69346C12.0701 9.47952 11.799 9.11113 11.7159 8.67602C11.6381 8.64561 11.5213 8.61179 11.3635 8.59223C11.1054 8.56025 10.8498 8.58121 10.6651 8.63287C10.638 8.64044 10.6152 8.64782 10.5961 8.65465C10.5924 8.69591 10.5895 8.75414 10.5902 8.83366C10.5912 8.95548 10.5986 9.0772 10.6086 9.2417C10.6104 9.27194 10.6123 9.30363 10.6143 9.33703C10.6257 9.52739 10.6398 9.78469 10.6279 10.0466C10.5893 10.8944 10.4319 12.0692 10.135 12.9476C10.0358 13.2411 10.0074 13.7296 10.054 14.4728C10.0663 14.6677 10.0864 14.9026 10.1079 15.1538C10.152 15.6689 10.2021 16.2529 10.2021 16.7024C10.2021 17.1639 10.13 17.572 10.0796 17.857C10.0772 17.8706 10.0748 17.884 10.0725 17.897C10.0179 18.2072 9.9884 18.3958 9.9884 18.5992C9.9884 18.7025 9.99199 18.8047 9.99663 18.9366C9.99778 18.9692 9.99898 19.0035 10.0002 19.0402C10.0059 19.209 10.0117 19.4202 10.0033 19.6403C9.98818 20.0316 9.92621 20.5536 9.66427 21.0786V23.4919C9.66427 23.5641 9.65916 23.6352 9.64929 23.7047C10.0049 23.7929 10.2994 23.9335 10.5464 24.0793C10.6817 24.1591 10.8236 24.2542 10.9167 24.3165C10.9391 24.3315 10.9586 24.3445 10.9745 24.355C11.0805 24.4251 11.1403 24.4602 11.1899 24.4842C12.3629 25.0509 13.6139 26.0928 14.5704 27.2196C15.4786 28.2895 16.4058 29.7692 16.4058 31.2541C16.4058 32.0826 15.7342 32.7541 14.9058 32.7541C14.0774 32.7541 13.4058 32.0826 13.4058 31.2541C13.4058 30.886 13.0891 30.1103 12.2833 29.161C11.5257 28.2685 10.5925 27.5273 9.88494 27.1855C9.65201 27.073 9.45928 26.9495 9.32138 26.8585C9.27111 26.8253 9.23093 26.7984 9.19699 26.7757C9.12193 26.7256 9.07739 26.6958 9.02186 26.663C8.96189 26.6277 8.93824 26.6198 8.93226 26.6179C8.93226 26.6179 8.91694 26.6123 8.87555 26.6123C8.66719 26.6123 8.4195 26.5861 8.25289 26.5684C8.2096 26.5638 8.16758 26.5593 8.12662 26.5549C7.97506 26.5385 7.83781 26.5237 7.70301 26.5129C7.65001 26.5087 7.6028 26.5055 7.56116 26.5034C7.14313 26.6717 6.65426 26.6505 6.23642 26.4034C5.52336 25.9817 5.28718 25.0617 5.7089 24.3487C5.99117 23.8714 6.42294 23.6884 6.61508 23.622C6.63297 23.6159 6.65077 23.61 6.66843 23.6045C6.66567 23.5673 6.66427 23.5298 6.66427 23.4919V20.5053C5.903 20.5567 5.13407 20.9983 4.49294 21.7124C3.77741 22.5094 3.5 23.3311 3.5 23.655C3.5 25.3472 3.70279 26.3899 4.69528 27.6414C4.74611 27.7054 4.79877 27.767 4.87151 27.852C4.88881 27.8722 4.90726 27.8938 4.92708 27.917C5.01846 28.0241 5.13963 28.1675 5.25418 28.325C5.42897 28.5653 5.69274 28.9746 5.77943 29.5132C5.79842 29.5284 5.82048 29.5457 5.84601 29.5649C5.93947 29.6355 6.00903 29.6839 6.09458 29.7434C6.16285 29.7909 6.2413 29.8455 6.35022 29.9241C6.53081 30.0545 6.80569 30.2596 7.0369 30.5214C7.24153 30.7531 7.47604 30.9458 7.80349 31.1835C7.87989 31.239 7.96729 31.3008 8.06246 31.3682C8.33914 31.564 8.68152 31.8064 9.01049 32.0731C9.60472 32.5548 10.0645 33.0955 10.4426 33.5678C10.5578 33.7118 10.6621 33.8447 10.7602 33.9697C11.0089 34.2867 11.2174 34.5524 11.461 34.8157C12.4323 35.8655 13.38 37.0912 13.38 38.897C13.38 39.014 13.3952 39.1857 13.4246 39.4845L13.4269 39.5071C13.4528 39.7699 13.486 40.1071 13.4965 40.4487C13.4996 40.5474 13.5017 40.6614 13.4996 40.7868H23.1714C23.165 40.6962 23.1583 40.6032 23.1514 40.5078C23.1474 40.4532 23.1434 40.3977 23.1394 40.3414C23.0952 39.7267 23.0489 39.0283 23.0631 38.3283C23.0911 36.9492 23.3553 35.2819 24.6109 33.9845C24.9049 33.6807 25.1754 33.3802 25.4658 33.0576C25.6138 32.8931 25.7671 32.7228 25.9312 32.5435C26.3949 32.0369 26.9095 31.4995 27.4981 31.0019C27.5326 30.9727 27.6804 30.8326 27.6255 30.1005C27.6003 29.7644 27.5411 29.4073 27.4707 28.993C27.4679 28.9764 27.465 28.9597 27.4621 28.9427C27.3996 28.5753 27.3227 28.123 27.3009 27.71C27.1933 25.6624 27.2661 23.6793 27.3518 21.7589C27.3608 21.5589 27.3698 21.3598 27.3789 21.1613C27.4574 19.4351 27.5336 17.7607 27.5009 16.0485C27.4922 15.5915 27.4926 15.1559 27.4929 14.7246C27.4934 14.0646 27.4939 13.4146 27.4619 12.7135C27.4113 11.602 27.2815 10.6293 26.9976 9.84913C26.8987 9.57739 26.8256 9.35643 26.7633 9.16833C26.6352 8.78145 26.5532 8.53359 26.3877 8.26888C26.3413 8.26764 26.2868 8.26699 26.2203 8.26676C26.1628 8.26656 26.1075 8.26667 26.0455 8.2668C26.0021 8.26689 25.9555 8.26698 25.9025 8.26698C25.6839 8.26698 25.3929 8.25093 25.1428 8.23633C25.1455 8.2783 25.148 8.31876 25.1498 8.3478C25.1531 8.40296 25.1589 8.49946 25.1589 8.58345C25.1589 9.53132 25.3406 10.4984 25.5592 11.6337L25.5701 11.6903C25.7765 12.7621 26.0136 13.9929 26.0136 15.2572C26.0136 16.1428 25.8925 16.9915 25.7885 17.7196L25.7849 17.7453C25.6752 18.5138 25.5863 19.1495 25.5863 19.7733C25.5863 20.6017 24.9147 21.2733 24.0863 21.2733C23.2578 21.2733 22.5863 20.6017 22.5863 19.7733C22.5863 18.9227 22.7045 18.0951 22.8067 17.3794L22.815 17.3214C22.9239 16.5579 23.0136 15.9068 23.0136 15.2572C23.0136 14.3051 22.8318 13.3355 22.6133 12.2009L22.6014 12.1389C22.3953 11.0692 22.1589 9.84195 22.1589 8.58345C22.1589 8.58345 22.1551 8.53108 22.1408 8.2993C22.1296 8.11814 22.1163 7.87699 22.1131 7.63329C22.1102 7.41624 22.1138 7.12802 22.1535 6.85509C22.141 6.32514 22.1018 5.8539 21.9817 5.45362C21.8414 4.98642 21.6506 4.78561 21.3025 4.68051C21.1064 4.62128 20.8973 4.54696 20.7392 4.49077C20.6912 4.47372 20.648 4.45833 20.6112 4.44555C20.572 4.43194 20.5366 4.41994 20.5045 4.40935C20.4726 4.57196 20.4584 4.7472 20.4584 4.88036C20.4584 5.56602 20.4954 6.20825 20.5355 6.90264C20.5657 7.42635 20.5976 7.97972 20.6166 8.60376C20.657 9.92817 20.6221 11.3865 20.2373 12.7692C20.1655 13.0271 20.1436 13.3549 20.1353 13.8731C20.1345 13.9231 20.1338 13.9759 20.1331 14.0309C20.1277 14.4703 20.1204 15.0575 20.0187 15.6162C19.9881 15.7842 19.98 16.0064 19.9911 16.3318C19.9938 16.4124 19.9988 16.5152 20.0044 16.6295C20.0164 16.8776 20.0311 17.1796 20.0311 17.425C20.0311 18.2535 19.3595 18.925 18.5311 18.925C17.7026 18.925 17.0311 18.2535 17.0311 17.425C17.0311 17.2418 17.0231 17.0868 17.0134 16.8982C17.0067 16.7668 16.9991 16.6191 16.9928 16.4341C16.9798 16.0532 16.9776 15.5714 17.0672 15.0791C17.121 14.7831 17.126 14.4583 17.1334 13.9732C17.1341 13.9253 17.1348 13.8759 17.1357 13.8247C17.1437 13.3239 17.1597 12.6384 17.3471 11.9648C17.6076 11.0288 17.6559 9.93752 17.618 8.69516C17.6046 8.25659 17.5771 7.75625 17.5486 7.2385C17.5109 6.55373 17.4716 5.83852 17.4611 5.19547C17.3237 4.96889 17.2446 4.70302 17.2446 4.41868C17.2446 4.32423 17.2513 4.21209 17.256 4.13684C17.2593 4.08369 17.2636 4.01956 17.268 3.95355C17.2707 3.91316 17.2734 3.87206 17.276 3.83236C17.2826 3.7303 17.2893 3.62323 17.295 3.51481C17.212 3.51922 17.1194 3.52468 17.0216 3.53044C16.7096 3.54884 16.3454 3.57031 16.0737 3.57031C16.0176 3.57031 15.966 3.57 15.9165 3.56969C15.862 3.56936 15.8101 3.56904 15.7575 3.56918V4.86025C15.7575 6.03376 15.6704 7.18211 15.5755 8.27928C15.5579 8.48337 15.54 8.68505 15.5223 8.88483C15.4434 9.77668 15.3678 10.6307 15.3286 11.4918C15.2882 12.3793 15.1334 13.291 14.9965 14.0968C14.984 14.1705 14.9716 14.2433 14.9595 14.3151C14.8072 15.2181 14.6891 15.9924 14.6891 16.7024C14.6891 17.5309 14.0175 18.2024 13.1891 18.2024C12.3607 18.2024 11.6891 17.5309 11.6891 16.7024C11.6891 15.7066 11.8526 14.6978 12.0013 13.8161C12.0118 13.7541 12.0222 13.6926 12.0324 13.6318C12.176 12.7831 12.3001 12.0498 12.3317 11.3555C12.357 10.7988 12.3967 10.2422 12.4414 9.69346Z" fill="#EA5A24"/>
</svg>
