<svg width="46" height="43" viewBox="0 0 46 43" fill="none" xmlns="http://www.w3.org/2000/svg">
<path fill-rule="evenodd" clip-rule="evenodd" d="M13.7297 3.80926C14.9047 1.45912 17.5155 0.51416 19.6493 0.51416C20.5778 0.51416 21.4582 0.596274 22.2854 0.687981C22.5061 0.712451 22.7205 0.737256 22.931 0.761612C23.5309 0.831007 24.0991 0.896749 24.6919 0.940662C24.7853 0.947584 24.9164 0.954853 25.075 0.963646C25.6069 0.99315 26.4481 1.0398 27.214 1.14798C27.7223 1.21978 28.2863 1.32857 28.7942 1.50867C29.2451 1.66858 29.9392 1.98109 30.3637 2.64148C30.6133 3.02964 31.052 3.40932 31.7328 3.90451C31.8408 3.9831 31.958 4.06645 32.0812 4.1542C32.6382 4.55065 33.3211 5.03673 33.8615 5.57711C34.7059 6.4215 35.8475 7.63026 36.5057 8.94661C37.1772 10.2897 37.4932 11.5803 37.4336 12.9067C37.3748 14.2156 36.955 15.4402 36.3458 16.6586C35.8246 17.701 35.0628 18.9306 34.227 19.8648C34.0372 20.0769 33.6309 20.5783 33.3075 21.0862C33.2857 21.1203 33.2649 21.1537 33.245 21.1861C34.1539 21.5738 34.8514 22.1846 35.4027 22.7358C37.2177 24.5508 39.0537 26.3898 40.7946 28.3483C43.5147 31.4084 45.1994 35.5445 45.2909 39.6766C45.4239 39.9006 45.5003 40.1621 45.5003 40.4415C45.5003 41.2699 44.8287 41.9415 44.0003 41.9415H37.4285C37.1596 42.1963 36.7965 42.3525 36.3969 42.3525C35.982 42.3525 35.6064 42.1841 35.3349 41.9118C34.8068 41.8768 34.3028 41.8157 33.8323 41.7547C33.7229 41.7405 33.6158 41.7264 33.5105 41.7126C32.8996 41.6322 32.3519 41.5601 31.7906 41.5281C30.9398 41.4795 30.1193 41.4174 29.313 41.3565C27.7177 41.2359 26.178 41.1195 24.5697 41.1195C23.5515 41.1195 22.5374 41.2145 21.5112 41.3175C21.443 41.3244 21.3746 41.3313 21.3059 41.3382C20.3735 41.4323 19.4003 41.5305 18.5076 41.5305H9.48164C9.2128 41.7853 8.84969 41.9415 8.45008 41.9415C8.05047 41.9415 7.68736 41.7853 7.41851 41.5305H5.07061C4.72746 41.5305 4.35002 41.5594 3.89954 41.594C3.76819 41.604 3.63064 41.6146 3.48591 41.625C2.90313 41.667 2.19621 41.7075 1.54856 41.6355C0.954461 41.5695 0.615999 41.1961 0.484251 41.0146C0.348628 40.8277 0.285725 40.6519 0.259624 40.5721C0.203816 40.4015 0.184443 40.2474 0.176476 40.177C0.157775 40.0118 0.154577 39.8375 0.154314 39.714C0.153751 39.45 0.16758 39.1843 0.170856 39.1253C0.23756 37.9247 0.479128 36.7315 0.696723 35.6567C0.706496 35.6084 0.71622 35.5604 0.725878 35.5126C0.95905 34.359 1.15843 33.33 1.19712 32.3239C1.23233 31.4086 1.72727 30.7283 2.04912 30.3397C2.19974 30.1579 2.36202 29.9838 2.48641 29.8503C2.50257 29.8329 2.5181 29.8163 2.53288 29.8004C2.67936 29.6428 2.76381 29.5476 2.82031 29.4723C2.94038 29.3122 3.06845 29.1334 3.20502 28.9427C3.67839 28.2817 4.25396 27.478 4.95311 26.8167C5.52292 26.2777 6.16493 25.8958 6.70564 25.5963C6.87323 25.5034 7.02702 25.4203 7.17076 25.3426C7.53535 25.1456 7.83524 24.9836 8.13153 24.786C8.66224 24.4322 9.17429 24.0308 9.73728 23.5867L9.78932 23.5456C10.3229 23.1247 10.9056 22.6649 11.5252 22.2458C11.9938 21.9289 12.4799 21.646 12.9693 21.3914C12.7618 21.0622 12.5388 20.7298 12.3016 20.3784C12.2806 20.3474 12.2595 20.3161 12.2383 20.2847C11.8907 19.7703 11.5134 19.2116 11.1656 18.6231C10.4659 17.4391 9.82675 16.1528 9.82675 14.4351C9.82675 13.9011 9.88835 13.392 9.93788 12.9826L9.94035 12.9622C9.9939 12.5195 10.0322 12.1911 10.0322 11.8779C10.0322 10.1044 10.8232 8.51978 11.5957 7.2404C11.8954 6.74399 12.2215 6.24866 12.5229 5.79091C12.6138 5.65283 12.7025 5.51817 12.7875 5.38793C13.1692 4.80304 13.4898 4.28894 13.7297 3.80926ZM10.1583 38.5305C10.2471 38.2489 10.3697 38.0096 10.5357 37.8067C10.7983 37.4857 11.1348 37.2114 11.6135 36.8529C11.666 36.8136 11.7208 36.7728 11.7776 36.7307C12.1997 36.4171 12.728 36.0245 13.2096 35.5429C13.7954 34.9571 13.7954 34.0073 13.2096 33.4215C12.6238 32.8358 11.6741 32.8358 11.0883 33.4215C10.7721 33.7377 10.4285 33.994 9.99037 34.3208C9.93368 34.3631 9.87541 34.4065 9.81542 34.4515C9.32719 34.817 8.72826 35.2782 8.21387 35.9069C7.54835 36.7203 7.23215 37.6519 7.08258 38.5305H5.07061C4.60027 38.5305 4.06801 38.5716 3.60115 38.6077C3.4862 38.6166 3.37522 38.6252 3.27011 38.6328C3.25429 38.6339 3.23856 38.635 3.22293 38.6361C3.31193 37.8605 3.4748 37.0548 3.65456 36.1656L3.66641 36.1069C3.89082 34.9967 4.13915 33.7554 4.19294 32.4879C4.20755 32.4597 4.25021 32.3853 4.35952 32.2534C4.45066 32.1433 4.55039 32.0362 4.68233 31.8943C4.69789 31.8776 4.7139 31.8604 4.73039 31.8427C4.86875 31.6938 5.05625 31.491 5.22031 31.2723C5.4263 30.9976 5.60616 30.7472 5.77265 30.5153C6.20266 29.9165 6.54342 29.4419 7.01471 28.9961C7.29797 28.7281 7.66441 28.4947 8.15957 28.2204C8.26211 28.1636 8.37535 28.1025 8.49566 28.0375C8.89536 27.8217 9.37313 27.5638 9.79563 27.2822C10.4414 26.8517 11.0443 26.3767 11.5952 25.9421L11.6112 25.9295C12.1711 25.4879 12.6788 25.0874 13.2061 24.7307C13.7761 24.3451 14.4088 24.0064 15.0774 23.6999C15.1043 23.695 15.1416 23.6883 15.1787 23.6811C15.251 23.6673 15.3857 23.6406 15.5262 23.5959C15.5982 23.5731 15.7045 23.5354 15.8217 23.4756C15.9279 23.4215 16.1239 23.3089 16.3066 23.1034C16.66 22.7058 16.7315 22.2411 16.7049 21.9062C16.6812 21.6076 16.5814 21.3767 16.5208 21.2539C16.3987 21.0059 16.2334 20.8018 16.145 20.696C16.0609 20.5952 15.9672 20.4923 15.9076 20.4268C15.8963 20.4144 15.8863 20.4034 15.8778 20.394C15.8718 20.3874 15.8664 20.3814 15.8616 20.376C15.5155 19.7801 15.1385 19.2189 14.7879 18.6997C14.7714 18.6753 14.755 18.6509 14.7386 18.6267C14.379 18.0943 14.0485 17.6049 13.7484 17.0969C13.1281 16.0473 12.8268 15.3325 12.8268 14.4351C12.8268 14.1009 12.8658 13.7592 12.9186 13.3224C12.9204 13.3077 12.9222 13.2928 12.924 13.2778C12.9724 12.8785 13.0322 12.3849 13.0322 11.8779C13.0322 10.9655 13.4481 9.97645 14.1639 8.79104C14.4304 8.34958 14.7115 7.9225 15.0059 7.47526C15.1025 7.3286 15.2004 7.17976 15.2998 7.02755C15.6871 6.43403 16.0901 5.79651 16.4129 5.15091C16.9047 4.16738 18.1987 3.51416 19.6493 3.51416C20.4084 3.51416 21.1567 3.58123 21.9548 3.66971C22.1443 3.69072 22.3392 3.71328 22.5383 3.73633C23.1541 3.80762 23.81 3.88356 24.4703 3.93247C24.6406 3.94508 24.8296 3.95562 25.0326 3.96692C25.5553 3.99605 26.1701 4.03032 26.7944 4.1185C27.2165 4.17811 27.556 4.25263 27.7915 4.33617C27.8514 4.35738 27.8944 4.37558 27.9237 4.38932C28.5027 5.23129 29.3147 5.85532 29.9681 6.33056C30.134 6.45129 30.2903 6.56302 30.4377 6.66845C30.9743 7.05218 31.3941 7.35234 31.7402 7.69843C32.5879 8.54616 33.4047 9.4528 33.8224 10.2883C34.31 11.2635 34.4692 12.0478 34.4366 12.772C34.4033 13.5135 34.1636 14.3149 33.6626 15.3169C33.2201 16.2019 32.5976 17.1867 31.9912 17.8645C31.7138 18.1746 31.2032 18.8053 30.7769 19.475C30.5651 19.8076 30.343 20.1978 30.1865 20.5932C30.06 20.9125 29.8386 21.5599 30.0343 22.245C30.1476 22.6415 30.3923 22.8915 30.454 22.9545L30.4569 22.9574C30.5577 23.0605 30.66 23.1427 30.7342 23.1988C30.8867 23.3143 31.0559 23.4209 31.1959 23.5042C31.4512 23.6561 31.7933 23.8385 31.9998 23.9179C32.4037 24.0732 32.7961 24.3719 33.2814 24.8572C35.1046 26.6803 36.8791 28.459 38.5524 30.3414C40.6401 32.6901 41.9911 35.8116 42.2495 38.9415H37.7445C37.3888 36.7304 36.3483 34.3221 33.9853 33.1406C33.2443 32.7701 32.3433 33.0704 31.9729 33.8114C31.6024 34.5524 31.9027 35.4534 32.6437 35.8238C33.6681 36.3361 34.3471 37.4601 34.6727 38.8362C34.5241 38.8187 34.3728 38.7997 34.218 38.7796C34.1207 38.767 34.0214 38.7539 33.9203 38.7405C33.3139 38.6605 32.6433 38.5719 31.9617 38.533C31.2271 38.491 30.4659 38.4337 29.6879 38.3752C28.0263 38.2502 26.2882 38.1195 24.5697 38.1195C23.3834 38.1195 22.2322 38.23 21.2115 38.3325C21.1599 38.3377 21.1086 38.3429 21.0578 38.348C20.0726 38.4471 19.243 38.5305 18.5076 38.5305H10.1583ZM15.8241 20.3335C15.8177 20.3259 15.8196 20.3275 15.8271 20.337L15.8241 20.3335ZM28.6372 9.04784C28.3941 8.75204 28.0385 8.54867 27.6275 8.50757C26.8663 8.43145 26.1812 8.93846 26.0158 9.66564C26.0101 9.67543 26.0032 9.68693 25.9952 9.70039C25.9923 9.70523 25.9891 9.71056 25.9856 9.71636C25.9459 9.78269 25.8698 9.90954 25.8027 10.048C25.7252 10.2081 25.6348 10.4314 25.5891 10.7052C25.5195 11.1233 25.5005 11.5025 25.5005 11.8731C25.5005 12.3769 25.7005 12.8986 26.1506 13.2654C26.5256 13.571 26.9329 13.6497 27.1413 13.6768C27.3692 13.7065 27.5786 13.6994 27.6936 13.6942C27.7504 13.6917 27.8193 13.6876 27.8469 13.6861C27.8792 13.6843 27.8903 13.684 27.8903 13.684C28.6006 13.6833 29.3577 13.3923 29.836 12.7185C30.3274 12.0263 30.3423 11.1887 30.0667 10.4802C29.897 10.0436 29.6086 9.58997 29.1132 9.27602C28.9551 9.17587 28.7948 9.10195 28.6372 9.04784ZM27.7691 11.9101L27.7662 11.9099L27.7691 11.9101ZM19.87 12.3014C19.6025 12.6836 19.2387 12.9404 18.8645 13.105C18.724 13.1668 18.5114 13.2593 18.2844 13.3325C18.0746 13.4002 17.7272 13.4946 17.333 13.4746C16.8892 13.452 16.3027 13.2718 15.8937 12.7114C15.5356 12.2206 15.4884 11.6674 15.5027 11.2822C15.5065 11.1795 15.514 11.0153 15.5313 10.8427C15.5451 10.7048 15.5764 10.4281 15.6676 10.1646C15.6684 10.1623 15.6692 10.1601 15.6699 10.1578C15.6817 10.1022 15.6967 10.0466 15.7151 9.99132C15.8435 9.60618 16.0757 9.20674 16.4679 8.90874C16.8695 8.60364 17.3266 8.49075 17.7421 8.50073C18.5014 8.51897 19.109 8.92894 19.4739 9.29903C19.8443 9.67478 20.2436 10.2919 20.2519 11.0611C20.2563 11.4745 20.1433 11.9111 19.87 12.3014ZM25.0005 15.5001C25.8289 15.5001 26.5005 16.1717 26.5005 17.0001C26.5005 17.5093 26.2949 17.9135 26.1278 18.1628C25.9486 18.4302 25.7249 18.6533 25.4996 18.8296C25.075 19.162 24.4384 19.4853 23.7107 19.4947C23.6691 19.4952 23.6232 19.4963 23.5733 19.4974C23.1164 19.5078 22.3341 19.5256 21.5892 19.2266C21.5745 19.2207 21.5586 19.2144 21.5414 19.2075C21.3296 19.1232 20.9387 18.9675 20.6064 18.7466C20.556 18.7131 20.5137 18.6818 20.4846 18.6597C20.483 18.6584 20.4813 18.6571 20.4796 18.6559C19.8673 18.4295 19.4529 17.8184 19.5048 17.1351C19.5676 16.3091 20.2881 15.6903 21.1141 15.7531C21.607 15.7906 21.9578 16.0207 22.0988 16.1191C22.1725 16.1706 22.2381 16.2225 22.2678 16.246L22.2738 16.2508C22.2766 16.253 22.2792 16.255 22.2815 16.2569C22.2869 16.2599 22.2936 16.2636 22.3018 16.268C22.3249 16.2802 22.3554 16.2952 22.3956 16.3134C22.4792 16.3512 22.5696 16.3875 22.6948 16.4377L22.7067 16.4425C22.8424 16.497 22.9964 16.503 23.5873 16.496C23.7944 15.9156 24.3489 15.5001 25.0005 15.5001Z" fill="#EA5A24"/>
</svg>
