<svg width="27" height="27" viewBox="0 0 27 27" fill="none" xmlns="http://www.w3.org/2000/svg">
<path fill-rule="evenodd" clip-rule="evenodd" d="M8.96768 0.347116C9.43318 0.392524 9.85205 0.426422 10.2395 0.426422C11.0529 0.426422 11.8496 0.516264 12.5852 0.599201L12.6153 0.602595C13.3774 0.688513 14.0774 0.766177 14.779 0.766177H17.6292C18.5734 0.766177 19.4867 0.87906 20.3368 0.995272C20.4559 1.01155 20.5734 1.02784 20.6896 1.04394C21.422 1.14544 22.1013 1.23959 22.781 1.27735C24.3889 1.36668 25.2237 2.56361 25.6217 3.63329C26.0204 4.70469 26.1038 5.9183 26.1038 6.69263V11.1C26.1038 12.2806 26.1455 13.466 26.1881 14.6678L26.1888 14.6886C26.2309 15.8777 26.2737 17.0834 26.2737 18.2821C26.2737 18.5476 26.2754 18.8208 26.2771 19.1C26.288 20.8543 26.3004 22.8438 25.9007 24.6429C25.8012 25.0905 25.5071 25.3885 25.3073 25.5548C25.0912 25.7347 24.8452 25.875 24.6375 25.9804C24.4241 26.0887 24.208 26.1812 24.0372 26.253C24.0021 26.2677 23.9701 26.2812 23.9408 26.2935C23.8081 26.3491 23.7317 26.381 23.6823 26.4057C23.042 26.7259 22.338 26.7764 21.7741 26.7749C21.4839 26.7742 21.196 26.7586 20.9439 26.745C20.6814 26.7308 20.4617 26.7189 20.2623 26.7189C19.7236 26.7189 19.2032 26.624 18.7769 26.5445L18.7249 26.5348C18.293 26.4541 17.9548 26.391 17.6285 26.3784C17.1246 26.3591 16.6141 26.3647 16.0781 26.373C16.0336 26.3737 15.9889 26.3744 15.944 26.3751C15.4562 26.3828 14.9458 26.3908 14.4349 26.3789C13.7302 26.3625 13.0448 26.2808 12.4121 26.2054C12.3694 26.2003 12.3269 26.1952 12.2848 26.1902C11.7745 26.1296 11.2948 26.0756 10.8195 26.052C10.757 26.1141 10.6945 26.1607 10.642 26.1943C10.5208 26.2718 10.4064 26.3109 10.3349 26.3313C10.117 26.3935 9.91699 26.4018 9.76864 26.3984C9.64699 26.3957 9.52266 26.3832 9.44496 26.3753C9.43337 26.3742 9.42281 26.3731 9.41346 26.3722C9.35312 26.3663 9.31449 26.3643 9.29228 26.3635C8.6619 26.6121 7.96341 26.6348 7.40374 26.6214C7.1304 26.6149 6.85628 26.598 6.61088 26.5829C6.58701 26.5814 6.56341 26.58 6.54011 26.5786C6.26699 26.5619 6.03593 26.5491 5.83209 26.5491C5.22507 26.5491 4.73504 26.4097 4.31506 26.2476C4.13761 26.1791 3.96383 26.1029 3.81116 26.0359C3.79137 26.0272 3.77193 26.0187 3.75289 26.0103C3.5789 25.9342 3.42382 25.8678 3.26306 25.8093C2.25365 25.4423 1.60831 24.5947 1.22825 23.7776C0.843024 22.9494 0.660647 22.012 0.660647 21.2172C0.660647 20.594 0.550206 19.9271 0.419474 19.1438L0.418202 19.1362C0.293265 18.3876 0.151014 17.5354 0.151014 16.6777V11.6946C0.151014 11.3582 0.140646 11.0074 0.129026 10.6348L0.127194 10.5762C0.116245 10.226 0.104724 9.85752 0.102119 9.48874C0.0966478 8.71403 0.129122 7.87995 0.306954 7.07971C0.563829 5.92377 0.636873 4.6292 0.655153 3.33506C0.466026 3.04693 0.431106 2.6687 0.596342 2.33823C0.631327 2.26826 0.669113 2.20074 0.70963 2.13568C0.796034 1.87044 0.990313 1.65391 1.24066 1.53789C1.80308 1.0884 2.48302 0.959482 2.95324 0.889074C3.09606 0.867689 3.23957 0.849612 3.36933 0.833267C3.38027 0.831888 3.39112 0.830522 3.40186 0.829168C3.54484 0.81113 3.67161 0.794792 3.79217 0.775704C4.03977 0.736499 4.20151 0.693981 4.31231 0.644737C5.37655 0.171739 6.51685 0.152633 7.51066 0.215337C7.90084 0.239956 8.29706 0.279871 8.66702 0.31714C8.76949 0.327462 8.86993 0.337581 8.96768 0.347116ZM2.65884 3.00636C2.64853 4.44475 2.58555 6.04555 2.25933 7.51357C2.13054 8.09313 2.09695 8.74955 2.10207 9.47462C2.1045 9.81842 2.11531 10.1646 2.12644 10.5207L2.12805 10.5725C2.13957 10.9418 2.15101 11.3225 2.15101 11.6946V16.6777C2.15101 17.3455 2.26261 18.0382 2.39219 18.8146C2.39592 18.8369 2.39967 18.8594 2.40343 18.8819C2.52483 19.6085 2.66065 20.4214 2.66065 21.2172C2.66065 21.7385 2.78667 22.3859 3.04169 22.9342C3.30187 23.4935 3.6286 23.8141 3.94655 23.9298C4.17212 24.0118 4.37758 24.1006 4.55485 24.1782C4.57507 24.187 4.59482 24.1957 4.61416 24.2042C4.77208 24.2734 4.90258 24.3306 5.03511 24.3817C5.31352 24.4892 5.5508 24.5491 5.83209 24.5491C6.10593 24.5491 6.39556 24.566 6.66223 24.5823C6.68453 24.5837 6.7067 24.585 6.72876 24.5864C6.98071 24.6019 7.21769 24.6164 7.45139 24.622C7.98175 24.6346 8.3449 24.5932 8.57733 24.4953C8.82461 24.3912 9.07166 24.3637 9.26862 24.3622C9.34364 24.2913 9.41778 24.2421 9.47495 24.2096C9.59285 24.1426 9.70222 24.1097 9.77058 24.0926C9.84435 24.0741 9.9135 24.0635 9.97085 24.0568C10.0842 24.0436 10.2078 24.0394 10.3339 24.0394C11.1042 24.0394 11.8421 24.1236 12.5206 24.2042C12.5555 24.2083 12.5902 24.2124 12.6247 24.2165C13.2786 24.2943 13.8755 24.3654 14.4814 24.3795C14.9513 24.3904 15.4234 24.383 15.9184 24.3752C15.9612 24.3746 16.0042 24.3739 16.0473 24.3732C16.5817 24.365 17.1413 24.3582 17.7053 24.3799C18.1842 24.3983 18.6588 24.4874 19.0518 24.5612C19.0829 24.567 19.1135 24.5728 19.1436 24.5784C19.5841 24.6605 19.9333 24.7189 20.2623 24.7189C20.5177 24.7189 20.7853 24.7334 21.0275 24.7466L21.052 24.7479C21.3111 24.7619 21.5486 24.7743 21.7793 24.775C22.2569 24.7762 22.5759 24.7229 22.7879 24.6169C22.9038 24.5589 23.0607 24.4934 23.192 24.4386C23.2165 24.4284 23.2401 24.4186 23.2624 24.4092C23.4275 24.3398 23.5874 24.2705 23.7326 24.1968C23.8455 24.1396 23.9271 24.0907 23.9818 24.0524C24.2943 22.5337 24.2856 20.8572 24.2766 19.1439C24.2752 18.8575 24.2737 18.57 24.2737 18.2821C24.2737 17.1189 24.232 15.9429 24.1895 14.7418L24.1893 14.7386C24.147 13.5425 24.1038 12.3218 24.1038 11.1V6.69263C24.1038 6.01369 24.0245 5.07592 23.7473 4.33074C23.4694 3.58384 23.115 3.29899 22.67 3.27427C21.9013 3.23156 21.1317 3.12465 20.405 3.02369C20.2908 3.00784 20.1778 2.99213 20.0659 2.97684C19.2224 2.86153 18.4261 2.76618 17.6292 2.76618H14.779C13.9538 2.76618 13.1496 2.67551 12.41 2.59213L12.3912 2.59C11.6282 2.50399 10.9328 2.42642 10.2395 2.42642C9.7478 2.42642 9.24634 2.38379 8.77351 2.33767C8.66179 2.32677 8.55214 2.31574 8.44403 2.30486C8.08024 2.26825 7.73386 2.2334 7.38472 2.21137C6.47625 2.15405 5.73514 2.20101 5.12459 2.47236C4.77489 2.62778 4.40988 2.70281 4.10495 2.7511C3.94923 2.77575 3.79329 2.79564 3.65218 2.81344C3.64271 2.81464 3.6333 2.81582 3.62396 2.817C3.48933 2.83397 3.36812 2.84925 3.24941 2.86702C2.96785 2.90918 2.78313 2.95664 2.65884 3.00636ZM24.0493 23.9978C24.0493 23.9978 24.0471 24.0005 24.0413 24.0059C24.0461 24.0004 24.0493 23.9978 24.0493 23.9978ZM22.2601 6.25888C22.5388 6.67185 22.6147 7.17366 22.5035 7.67412C22.4442 7.94072 22.2869 8.30772 21.8997 8.53013C21.516 8.75061 21.1313 8.69949 20.8999 8.62737C20.5289 8.51174 20.2322 8.2552 20.035 8.0324C19.9215 8.03549 19.8056 8.01917 19.6916 7.98118C19.1676 7.80653 18.8845 7.24021 19.0591 6.71627C19.4046 5.6799 20.4248 5.35531 21.1968 5.53638C21.5924 5.62914 21.9922 5.86186 22.2601 6.25888ZM13.7632 8.06541C13.9821 8.06831 14.1955 8.07115 14.4021 8.07115C14.6229 8.07115 14.827 8.14271 14.9925 8.26391C16.1848 8.5513 17.2919 9.1497 18.1433 9.98898C19.3888 11.2167 20.0972 12.9802 19.6642 14.9828C19.3645 16.3689 18.6703 17.8048 17.6071 18.8627C16.5259 19.9387 15.0368 20.64 13.2494 20.4165C10.5782 20.0826 9.22032 18.7244 7.67354 17.1771L7.57943 17.083C7.00607 16.5096 6.65726 15.9056 6.5281 15.198C6.40732 14.5364 6.49798 13.8702 6.61372 13.2336C6.62158 13.1904 6.62952 13.1464 6.63759 13.1017C6.76057 12.4208 6.91254 11.5794 7.23332 10.8246C7.5915 9.98182 8.18869 9.17171 9.23942 8.70472C10.7674 8.02561 12.3758 8.04698 13.7632 8.06541ZM13.2606 10.0638C12.0445 10.0576 11.0373 10.0943 10.0517 10.5323C9.58683 10.739 9.29394 11.0893 9.07399 11.6069C8.84351 12.1492 8.72744 12.788 8.59181 13.5344C8.58838 13.5533 8.58493 13.5723 8.58146 13.5914C8.46972 14.206 8.44497 14.5616 8.49559 14.8389C8.53783 15.0703 8.64726 15.3224 8.99365 15.6688L9.03315 15.7083C10.612 17.2873 11.54 18.1873 13.4975 18.432C14.566 18.5655 15.4678 18.17 16.1964 17.445C16.943 16.7021 17.4774 15.6331 17.7094 14.5602C17.98 13.309 17.56 12.2223 16.7393 11.4133C15.8993 10.5853 14.6522 10.0711 13.3829 10.0711C13.3415 10.0711 13.3007 10.0686 13.2606 10.0638Z" fill="#EA5A24"/>
</svg>
