<svg width="688" height="712" viewBox="0 0 688 712" fill="none" xmlns="http://www.w3.org/2000/svg">
<g clip-path="url(#clip0_739_5905)">
<path d="M460.23 537.167C461.325 541.294 463.287 544.774 467.149 546.975C470.086 548.647 473.286 549.13 476.451 548.465C481.649 547.366 487.112 547.609 492.075 545.104C493.565 544.361 495.677 544.985 497.456 544.686C500.456 544.19 503.419 543.486 506.377 542.846C508.214 542.448 510.044 541.985 511.885 541.536C514.184 540.965 516.466 540.265 518.794 539.824C522.982 539.039 527.185 538.217 531.424 537.795C533.311 537.607 533.807 539.313 533.368 540.992C532.787 543.227 532.017 545.41 531.424 547.643C530.917 549.549 530.537 551.489 530.131 553.428C530.033 553.909 530.072 554.439 529.924 554.905C528.234 559.954 526.519 564.989 524.792 570.023C524.5 570.876 524.058 571.694 523.842 572.566C522.406 578.571 521.109 584.6 519.546 590.571C518.95 592.843 517.686 594.94 516.925 597.175C516.228 599.234 515.781 601.388 515.273 603.5C514.874 605.156 514.652 606.863 514.127 608.484C513.042 611.854 511.796 615.16 510.636 618.511C509.879 620.695 509.097 622.864 508.479 625.083C506.755 631.339 505.121 637.6 503.435 643.871C502.755 646.421 502.037 648.954 501.332 651.489C500.091 656.004 498.874 660.521 497.568 665.032C496.771 667.791 495.898 670.533 494.974 673.257C493.534 677.489 495.011 680.023 499.481 680.877C500.837 681.127 502.192 681.39 504.206 681.763C495.99 683.254 493.077 685.44 488.584 693.108C490.525 696.716 493.217 699.13 497.601 699.194C499.204 699.217 500.81 699.741 502.418 700.048L513.783 700.848C517.655 699.989 521.483 699.757 525.149 701.648L528.61 701.892C528.641 701.817 528.649 701.702 528.702 701.667C533.357 698.806 534.872 694.066 536.482 689.242C538.627 682.836 541.085 676.543 543.504 670.246C544.024 668.881 545.069 667.708 545.639 666.359C546.425 664.486 546.999 662.534 547.635 660.612C548.222 658.84 548.621 656.991 549.369 655.308C550.423 652.914 551.775 650.656 552.917 648.294C555.172 643.606 557.364 638.9 559.557 634.182C559.935 633.373 560.369 632.491 560.391 631.631C560.518 627.642 562.341 624.363 564.528 620.994C566.026 626.332 567.351 631.581 568.991 636.723C570.169 640.406 571.978 643.876 573.129 647.57C576.448 658.218 579.23 669.007 580.356 680.169C580.426 680.817 580.41 681.6 580.748 682.087C584.388 687.254 583.758 693.471 584.892 699.233C585.839 704.006 587.653 705.946 592.531 705.75C597.615 705.542 602.707 704.846 607.767 704.984C612.006 705.102 616.217 706.183 620.454 706.7C621.981 706.885 623.616 706.987 625.078 706.64C627.781 705.982 628.581 704.277 628.491 701.545C628.326 695.696 624.866 692.521 619.932 690.412C619.097 690.058 618.262 689.716 617.428 689.349C617.304 689.289 617.198 689.153 617.222 689.167C620.151 688.769 623.168 688.378 626.191 687.922C627.942 687.659 628.773 686.419 628.112 684.881C625.363 678.53 625.683 671.622 624.296 665.071C622.157 654.982 621.769 644.644 619.175 634.639C618.156 630.71 618.819 626.385 618.195 622.317C616.973 614.337 615.271 606.426 613.998 598.443C613.178 593.319 612.916 588.107 612.162 582.963C611.435 577.975 610.37 573.053 609.526 568.082C608.709 563.28 607.854 558.476 607.271 553.639C607.035 551.707 607.665 549.682 607.572 547.721C607.504 546.315 606.948 544.913 606.532 543.534C606.285 542.668 605.907 541.844 605.594 540.999C606.714 540.589 607.812 539.934 608.96 539.86C610.056 539.783 611.231 540.226 612.309 540.585C617.1 542.169 622.18 542.938 625.85 547.131C629.651 551.474 635.005 553.265 640.48 554.242C644.054 554.879 647.284 556.033 650.378 557.832C652.919 559.296 655.573 560.242 658.633 559.801C659.786 559.638 661.136 559.978 662.218 560.465C665.811 562.107 669.451 561.99 673.117 560.963C675.617 560.265 677.259 558.632 677.567 555.902C677.628 555.405 677.638 554.891 677.824 554.442C681.151 546.19 675.701 541.037 671.098 535.686C670.255 534.714 668.442 534.586 667.082 534.04C665.583 533.446 664.041 532.926 662.616 532.209C660.597 531.18 658.697 529.902 656.664 528.897C650.477 525.813 644.245 522.828 638.044 519.756C634.572 518.033 631.028 516.421 627.73 514.415C624.666 512.54 621.656 510.464 619.03 508.017C615.224 504.47 611.987 500.321 608.166 496.812C603.659 492.663 598.46 489.765 591.954 490.116C591.13 490.161 589.93 489.151 589.463 488.321C588.667 486.864 588.267 485.074 589.821 483.782C591.075 482.739 592.543 481.943 593.927 481.05C597.811 478.559 602.076 476.494 605.498 473.469C610.425 469.111 614.802 464.173 614.681 456.772C614.613 453.001 615.149 449.22 615.415 445.446C618.108 444.928 620.41 444.679 622.576 443.983C623.653 443.635 625.061 442.59 625.256 441.652C625.434 440.764 624.448 439.268 623.558 438.601C620.462 436.275 617.209 434.181 613.985 432.039C607.119 427.48 600.239 422.945 593.345 418.423C592.866 418.107 592.324 417.786 591.791 417.709C585.92 416.885 580.02 415.376 574.181 415.557C569.461 415.7 564.783 417.801 560.131 419.157C549.204 422.335 541.6 435.376 541.911 446.082C542.084 451.828 542.611 457.651 543.807 463.263C544.882 468.237 548.398 471.879 552.733 474.653C554.637 475.867 556.294 477.487 557.998 478.983C559.835 480.591 559.598 482.863 559.655 484.975C559.662 485.426 559.077 486.079 558.597 486.328C557.653 486.801 556.607 487.255 555.572 487.375C547.212 488.368 540.584 493.545 533.157 496.776C530.509 497.927 528.527 500.564 525.932 501.886C521.245 504.281 516.154 505.877 511.537 508.38C504.559 512.158 496.939 513.935 489.549 516.462C482.711 518.796 475.991 521.46 469.177 523.834C464.914 525.321 462.002 528.035 460.546 532.316L460.197 537.267L460.23 537.167ZM495.692 694.598C495.421 691.16 497.026 689.318 499.789 688.356C501.801 687.662 503.836 687.021 505.893 686.42C509.875 685.273 513.806 684.123 516.126 680.159C517.628 677.591 517.163 676.182 514.168 676.062C511.481 675.95 508.752 676.246 506.094 676.637C502.385 677.186 500.209 675.284 500.749 671.62C500.899 670.589 501.493 669.628 501.758 668.592C501.99 667.67 502.11 666.689 502.151 665.74C502.187 664.688 501.744 663.5 502.078 662.585C504.19 656.833 505.755 651.016 506.407 644.852C506.828 640.883 507.04 636.411 510.947 633.588C511.515 633.178 511.641 631.94 511.703 631.057C511.82 629.574 511.606 628.067 511.799 626.603C511.933 625.609 512.283 624.104 512.945 623.816C516.633 622.289 518.068 618.854 519.543 615.77C521.183 612.337 521.918 608.467 522.923 604.758C523.305 603.345 523.108 601.776 523.539 600.392C525.495 594.114 527.766 587.923 528.879 581.419C529.165 579.729 529.7 577.774 529.135 576.32C527.917 573.2 528.245 570.369 529.376 567.427C530.082 565.6 530.814 563.774 531.458 561.917C531.798 560.912 532.181 559.859 532.202 558.819C532.317 554.456 533.299 550.347 535.231 546.433C535.95 544.966 536.551 543.35 536.729 541.743C537.001 539.152 537.806 537.01 539.781 535.208C540.413 534.623 540.877 533.138 540.567 532.435C540.267 531.771 538.855 531.222 537.966 531.275C536.008 531.381 534.08 531.965 532.122 532.252C528.776 532.749 525.114 532.453 522.147 533.761C515.711 536.586 508.969 537.204 502.181 538.102C497.828 538.682 493.557 539.925 489.273 540.973C484.886 542.04 480.539 543.264 476.151 544.343C473.044 545.101 469.982 545.027 467.703 542.398C465.553 539.933 465.327 536.947 466.472 533.993C467.71 530.815 469.77 528.157 473.132 527.07C478.517 525.328 483.894 523.328 489.431 522.329C496.476 521.064 502.691 518.094 508.147 513.876C515.49 508.196 523.917 505.524 532.585 503.087C535.229 502.347 537.733 501.045 540.23 499.858C546.393 496.898 552.276 493.172 558.703 491.028C565.511 488.743 570.222 480.898 562.495 474.53C562.119 474.221 561.717 473.91 561.383 473.552C559.505 471.607 557.438 469.803 555.805 467.656C553.255 464.327 551.249 460.547 547.51 458.253C547.03 457.962 546.62 457.213 546.545 456.642C546.27 454.347 545.693 451.966 546.067 449.756C546.76 445.562 548.025 441.46 549.086 437.317C549.333 436.37 549.401 435.218 549.989 434.527C554.556 429.076 559.149 424.179 566.796 422.378C571.833 421.19 576.559 420.597 581.636 420.851C587.123 421.122 592.309 422.194 596.853 425.278C600.736 427.917 604.333 430.961 608.016 433.881C611.553 436.689 611.607 437.914 610.418 442.227C608.815 448.041 607.769 453.972 610.094 459.959C610.518 461.043 610.559 462.833 609.935 463.676C607.706 466.708 605.397 469.798 602.593 472.249C599.27 475.165 595.386 477.283 590.97 478.579C585.44 480.195 583.477 483.297 584.692 487.548C585.618 490.789 588.122 492.598 591.148 493.917C595.966 496.017 600.678 498.355 605.422 500.604C605.783 500.771 606.135 501.053 606.37 501.365C609.889 505.882 613.775 509.922 618.962 512.627C622.899 514.679 626.448 517.5 630.446 519.401C633.861 521.03 637.19 522.409 638.961 526.056C639.263 526.682 639.961 527.155 640.532 527.62C648.071 533.73 656.936 536.874 666.214 539.07C667.464 539.364 668.975 539.586 669.829 540.405C672.775 543.222 675.079 546.586 675.751 550.709C676.378 554.558 672.806 558.459 669.006 558.102C665.909 557.807 662.85 557.321 660.245 555.132C658.924 554.024 657.074 553.328 655.356 552.937C649.963 551.696 645.257 547.996 639.386 548.457C639.012 548.482 638.607 548.209 638.221 548.053C633.548 546.246 628.999 544.151 624.449 542.057C618.693 539.414 612.214 538.302 605.995 536.759C601.845 535.734 600.75 537.071 601.429 541.284C601.972 544.691 602.126 548.147 602.514 551.569C602.662 552.929 602.953 554.274 603.204 555.629C603.55 557.453 604.731 559.632 604.131 561.042C601.961 566.174 604.194 570.175 606.601 574.266C607.06 575.044 607.767 575.749 607.952 576.585C609.097 581.654 610.5 586.703 611.114 591.837C611.839 597.931 612.039 604.026 611.431 610.296C610.831 616.45 612.326 622.92 613.649 629.094C614.353 632.409 615.479 635.548 614.966 639.009C614.84 639.887 614.927 640.845 615.122 641.72C616.026 645.821 617.333 649.873 617.875 654.012C619.189 663.966 620.18 673.961 621.296 683.99C618.588 683.8 615.72 683.533 612.841 683.408C606.891 683.156 605.773 683.72 604.409 687.417C608.738 689.92 613.08 692.411 617.381 694.938C619.919 696.428 621.978 698.36 622.834 701.879C621.363 702.354 619.847 703.289 618.389 703.225C611.753 702.873 605.149 702.061 598.523 701.762C591.358 701.45 588.061 698.338 588.024 691.2C588.009 687.946 587.809 684.782 585.904 681.935C585.382 681.153 585.173 680.11 584.958 679.156C583.143 671.391 581.394 663.606 579.5 655.874C579.051 654.055 578.491 652.345 579.75 650.685C581.73 648.086 581.137 645.575 580.052 642.761C578.674 639.179 577.602 635.453 576.827 631.695C575.937 627.377 575.224 623.11 571.888 619.815C570.16 618.112 569.309 615.982 568.867 613.509C568.518 611.543 567.272 609.732 566.418 607.833C561.135 611.229 559.251 616.11 557.734 621.249C555.101 630.217 552.255 639.106 547.451 647.189C545.761 650.04 544.936 653.016 544.375 656.242C543.791 659.621 542.984 663.061 541.621 666.192C539.416 671.257 536.68 676.04 536.162 681.75C535.986 683.705 534.822 686.014 533.37 687.326C531.055 689.4 529.066 691.587 527.58 694.285C527.329 694.743 526.805 695.259 526.337 695.342C523.839 695.822 521.323 696.57 518.825 696.497C512.498 696.322 506.17 695.786 499.851 695.316C498.408 695.214 496.987 694.793 495.747 694.551L495.692 694.598Z" fill="#8FB8DF"/>
<path d="M313.468 407.945C311.783 413.194 313.992 417.763 315.978 422.376C316.076 422.596 316.215 422.867 316.404 422.962C319.006 424.3 321.616 425.628 324.233 426.929C325.415 427.52 326.751 427.873 327.79 428.63C330.358 430.48 332.724 432.309 336.261 432.302C338.07 432.3 340.145 433.524 341.647 434.746C346.947 439.06 353.349 441.108 359.382 443.921C363.35 445.772 367.296 447.69 371.598 449.743C369.33 451.026 367.198 452.408 364.906 453.483C360.489 455.558 355.997 457.484 351.513 459.4C350.209 459.954 348.771 460.173 347.478 460.754C345.842 461.479 344.324 462.459 342.72 463.246C341.158 464.002 339.577 464.741 337.949 465.338C333.658 466.912 329.324 468.399 325.02 469.928C323.223 470.566 321.416 471.213 319.63 471.877C316.04 473.224 312.404 474.448 308.892 475.981C306.075 477.215 302.983 477.806 300.312 478.928C296.444 480.561 292.44 481.012 288.563 482.164C285.681 483.021 282.65 483.343 279.78 484.227C278.243 484.699 276.176 485.512 275.642 486.744C274.702 488.862 274.917 491.582 277.01 493.178C279.297 494.921 281.841 496.446 284.466 497.618C289.595 499.909 293.113 503.978 296.63 507.319C294.725 509.538 293.105 511.444 291.465 513.334C289.624 515.439 287.647 517.191 284.631 517.594C283.371 517.763 282.151 518.829 281.061 519.686C279.24 521.098 277.684 522.89 275.769 524.137C270.916 527.309 266.023 530.429 262.458 535.113C260.391 537.835 253.626 537.961 250.543 535.078C248.615 533.27 246.42 531.655 243.655 532.121C242.272 532.354 240.876 533.371 239.796 534.372C238.854 535.253 238.491 536.717 237.621 537.712C235.938 539.632 236.68 541.267 237.722 543.142C241.495 549.865 247.834 554.446 252.146 560.718C252.707 561.521 253.432 562.211 254.001 563.004C255.556 565.168 257.127 564.539 258.882 563.222C261.266 561.43 263.841 559.888 266.164 558.028C270.615 554.477 276.58 554.358 281.169 551.179C282.249 550.432 283.329 549.686 284.39 548.923C285.14 548.383 285.778 547.68 286.573 547.246C293.198 543.584 299.898 540.071 306.459 536.286C309.979 534.253 313.246 531.766 316.24 529.755C322.727 535.325 329.043 540.816 335.452 546.201C336.637 547.202 338.197 547.746 340.141 548.807C339.471 550.768 339.094 552.998 338.022 554.817C333.556 562.379 332.374 571.154 328.796 579.039C327.004 582.995 325.38 587.012 323.738 591.029C322.388 594.352 321.18 597.727 319.84 601.058C319.036 603.056 318.063 604.977 317.25 606.967C316.299 609.313 315.12 611.631 314.705 614.082C314.51 615.233 315.508 617.121 316.537 617.87C322.144 621.907 327.824 625.837 333.676 629.51C336.96 631.568 340.687 630.947 344.108 629.54C347.671 628.067 348.724 624.321 347.102 620.662C345.941 618.059 345.07 615.316 344.058 612.638C343.911 612.258 343.855 611.635 343.602 611.536C340.499 610.309 341.83 608.07 342.675 606.378C344.403 602.89 346.366 599.503 348.494 596.257C349.578 594.601 351.186 593.259 352.683 591.89C355.429 589.361 355.739 585.891 355.723 582.664C355.692 578.647 357.002 575.409 359.305 572.314C360.585 570.606 361.559 568.686 362.909 566.464C364.899 568.003 367.016 569.669 369.175 571.286C374.439 575.231 379.718 579.156 384.99 583.091C385.26 583.288 385.496 583.525 385.781 583.685C386.705 584.242 387.654 584.77 388.586 585.317C389.127 584.293 389.827 583.321 390.182 582.239C391.877 576.881 391.398 570.906 394.745 565.985C395.163 565.38 395.341 564.603 395.568 563.885C396.55 560.754 396.231 560.024 393.228 558.544C394.391 552.644 395.45 546.688 396.787 540.803C397.674 536.897 398.828 533.035 400.115 529.254C402.043 523.604 404.298 518.067 406.208 512.419C407.352 509.021 408.121 505.488 409.069 502.024C409.247 501.383 409.254 500.509 409.682 500.149C412.211 498.01 413.018 494.965 414.127 492.08C414.498 491.096 414.878 490.103 415.414 488.653C417.019 491.113 418.37 493.356 419.885 495.468C421.784 498.096 423.96 500.54 425.791 503.228C428.626 507.404 431.271 511.721 433.993 515.969C436.004 519.116 438.024 522.254 440.043 525.392C441.208 527.203 442.564 528.909 443.563 530.815C445.648 534.821 450.479 537.498 454.983 536.935C460.983 536.186 463.83 533.913 464.693 528.245C465.374 523.791 466.478 519.142 463.736 514.877C463.232 514.107 462.478 513.509 461.948 512.75C461.051 511.472 460.029 510.223 459.458 508.802C457.563 504.182 456.244 499.245 452.202 495.825C452.076 495.717 451.901 495.566 451.909 495.439C451.908 489.891 447.365 486.328 445.846 481.388C444.702 477.684 442.563 474.291 441.018 470.699C440.05 468.482 439.177 466.193 438.574 463.866C437.379 459.255 435.871 454.815 433.921 450.435C432.649 447.568 432.768 444.085 432.351 440.852C432.195 439.636 431.818 438.01 432.412 437.219C433.659 435.55 435.513 434.453 437.87 434.955C440.06 435.415 442.253 435.912 444.473 436.178C447.584 436.55 450.708 436.729 453.325 436.948C451.466 439.427 449.172 442.276 447.126 445.288C445.121 448.233 445.794 449.791 449.254 450.7C454.43 452.05 459.655 453.205 464.802 454.649C466.947 455.24 469.023 456.227 471.002 457.267C473.056 458.337 474.914 458.023 476.663 456.852C478.454 455.651 479.014 453.799 478.533 451.762C478.007 449.502 476.951 447.309 476.724 445.035C476.301 440.766 476.303 436.455 476.134 432.185C478.767 432.365 481.317 432.661 483.865 432.685C486.495 432.711 487.804 431.147 487.566 428.592C487.35 426.344 486.862 424.098 486.901 421.849C486.98 418.078 485.353 417.121 481.311 417.302C482.03 415.265 482.54 413.234 483.428 411.393C489.167 399.378 487.244 388.376 479.292 378.098C478.197 376.718 477.223 375.392 476.224 374.077C472.801 371.138 469.368 368.19 465.945 365.25C460.647 362.291 455.01 361.458 449.036 362.433C447.805 362.627 446.538 362.706 445.281 362.674C441.053 362.561 437.181 363.666 433.603 365.886C431.778 367.008 429.943 368.121 428.074 369.255C426.935 365.623 424.393 364.235 420.408 364.803C418.527 365.065 416.604 365.003 414.739 365.346C413.456 365.58 412.033 365.998 411.094 366.816C409.883 367.872 409.896 369.372 410.794 370.904C411.869 372.74 412.71 374.713 413.656 376.641C413.588 377.074 413.522 377.525 413.455 377.957C408.444 378.067 403.436 378.096 398.434 378.333C395.869 378.447 393.281 378.727 390.777 379.282C388.201 379.861 387.001 381.908 387.942 384.373C389.679 388.942 391.796 393.363 393.665 397.876C394.932 400.926 395.971 404.084 397.265 407.122C397.972 408.778 398.988 410.31 400.177 412.447L409.93 401.089C410.314 402.314 410.438 402.878 410.652 403.416C412.433 407.972 413.84 412.748 416.172 417.017C417.522 419.478 416.875 420.783 415.511 422.469C414.023 424.32 412.485 423.574 410.862 422.67C410.235 422.318 409.492 422.12 408.776 422.029C399.272 420.801 389.76 419.6 380.246 418.363C379.538 418.263 378.842 417.952 378.183 417.657C376.857 417.076 375.623 416.152 374.247 415.866C368.898 414.756 363.286 414.976 358.295 412.111C355.368 410.444 352.398 408.688 348.721 408.997C347.817 409.066 346.809 408.488 345.921 408.047C343.607 406.905 341.347 405.641 339.031 404.481C336.972 403.456 334.958 402.083 332.768 401.623C329.996 401.034 327.044 401.205 324.178 401.061C324.05 401.052 323.852 401.204 323.762 401.329C322.088 403.967 319.304 403.825 316.71 404.151L313.433 407.966L313.468 407.945ZM430.635 433.071C429.514 433.885 428.256 435.29 426.706 435.836C422.641 437.265 422.32 438.8 424.165 442.751C426.367 447.466 431.634 450.619 431.27 456.63C431.239 457.06 431.718 457.506 431.926 457.972C437.362 470.333 443.573 482.362 447.087 495.525C447.86 498.404 449.515 501.296 451.477 503.556C453.769 506.2 455.57 508.981 456.885 512.173C457.899 514.651 459.81 524.408 459.551 527.11C459.458 528.045 459.082 529.092 458.482 529.811C456.49 532.21 451.534 531.843 449.714 529.299C449.226 528.627 448.567 528.077 448.097 527.404C445.729 523.984 441.035 523.115 439.168 519.111C437.171 514.826 435.023 510.598 432.965 506.344C432.868 506.143 432.937 505.847 432.963 505.599C433.376 501.675 430.592 499.369 428.439 496.76C428.078 496.315 427.214 495.944 426.685 496.048C423.925 496.587 423.663 494.688 422.975 492.795C421.686 489.219 420.192 485.705 418.56 482.274C417.696 480.467 415.8 480.411 414.802 482.125C413.385 484.543 411.964 487.043 411.054 489.677C409.605 493.844 408.077 497.689 403.532 499.519C401.52 500.328 400.835 502.09 400.885 504.432C400.911 505.976 400.104 507.82 399.097 509.052C397.066 511.535 396.133 514.471 396.54 517.323C397.076 521.047 396.711 524.403 395.212 527.782C392.013 535.029 390.354 542.668 389.529 550.515C388.621 559.069 387.667 567.617 386.685 576.159C386.476 577.975 385.445 578.764 383.759 577.638C379.863 575.053 375.933 572.507 372.202 569.709C369.33 567.564 366.832 564.945 363.993 562.762C361.406 560.777 360.606 561.256 359.626 564.287C358.961 566.32 358.047 568.309 356.968 570.155C354.48 574.411 350.791 578.294 349.517 582.847C348.015 588.237 343.236 591.776 342.576 597.364C342.559 597.502 342.389 597.66 342.258 597.734C338.642 599.82 339.108 603.45 338.788 606.793C338.393 610.952 339.17 614.73 341.808 618.112C342.866 619.477 343.609 621.129 344.276 622.734C344.586 623.474 344.713 624.901 344.309 625.214C343.398 625.92 341.879 626.745 341.008 626.421C336.912 624.915 332.83 623.254 328.975 621.212C326.522 619.917 324.62 617.607 322.207 616.245C319.006 614.444 318.867 614.527 321.089 611.684C321.446 611.229 321.893 610.768 322.053 610.246C323.27 606.37 324.29 602.427 325.619 598.597C327.262 593.87 328.683 588.969 331.092 584.629C332.605 581.903 333.964 579.317 334.726 576.285C335.236 574.254 336.424 572.399 337.277 570.46C337.611 569.698 337.898 568.931 338.184 568.145C339.678 564.084 341.161 560.015 342.645 555.945C343.444 553.756 344.232 551.559 345.068 549.385C345.753 547.623 345.182 546.439 343.699 545.352C338.503 541.566 333.313 537.753 328.215 533.832C325.25 531.54 322.266 529.231 320.795 525.533C320.559 524.941 319.284 524.184 318.787 524.349C316.015 525.334 313.232 526.411 310.635 527.783C308.589 528.867 306.883 530.598 304.85 531.726C299.319 534.823 293.632 537.667 288.132 540.807C285.613 542.245 283.438 544.267 280.971 545.801C278.297 547.479 275.478 548.913 272.7 550.417C270.306 551.709 267.819 552.854 265.467 554.216C262.27 556.07 259.157 558.081 256.064 559.991C255.306 559.103 254.794 558.46 254.248 557.857C250.727 553.988 247.13 550.189 243.713 546.24C242.766 545.139 242.181 543.656 241.639 542.261C241.004 540.599 242.712 538.059 244.444 537.872C244.234 540.871 246.323 542.039 248.55 543.105C251.163 544.352 253.011 542.1 254.808 541.445C255.836 542.176 256.743 543.225 257.194 543.054C259.881 542.03 262.826 541.177 264.984 539.412C267.768 537.153 269.753 533.936 272.364 531.427C274.569 529.312 277.462 527.891 279.54 525.668C282.19 522.837 285.097 520.869 288.96 520.364C289.32 520.318 289.71 519.943 289.949 519.625C291.95 516.98 294.923 516.134 297.874 515.236C299.154 514.847 300.434 514.458 301.68 513.972C304.063 513.026 304.733 510.455 302.858 508.744C297.848 504.189 292.664 499.838 287.671 495.263C285.766 493.527 284.216 491.417 282.496 489.484C282.616 489.266 282.738 489.066 282.857 488.847C287.938 488.814 292.096 485.231 297.241 485.338C297.824 485.348 298.946 484.671 298.916 484.391C298.743 482.468 300.173 482.376 301.337 482.142C305.145 481.387 308.815 480.379 311.857 477.8C312.345 477.39 313.037 477.173 313.668 476.971C319.627 475.087 325.65 473.445 331.211 470.391C332.897 469.471 335.608 468.773 337.047 469.518C338.78 470.431 339.907 470.181 341.379 469.687C342.452 469.323 343.53 469.031 344.587 468.705C345.112 469.983 345.536 471.024 346.06 472.303C347.807 470.268 349.19 468.48 350.789 466.894C351.347 466.342 352.417 466.297 353.239 465.988C354.715 465.43 356.458 465.151 357.604 464.19C359.691 462.448 361.216 460.004 363.357 458.376C366.849 455.726 370.428 452.797 375.189 453.097C377.948 453.268 378.771 451.287 379.133 449.586C379.487 447.894 377.887 446.689 376.163 446.139C373.627 445.314 371.059 444.546 368.551 443.611C363.069 441.574 357.023 440.745 352.614 436.317C352.309 436.004 351.676 436.052 351.209 435.888C350.041 435.477 348.834 435.151 347.729 434.608C343.864 432.676 340.071 430.619 336.207 428.705C332.409 426.813 328.539 425.063 324.742 423.188C324.269 422.952 324.06 422.231 323.608 421.911C322.811 421.345 321.976 420.644 321.064 420.487C318.706 420.085 317.721 418.969 317.969 416.595C318.093 415.349 318.153 414.098 318.131 412.845C318.055 409.077 320.596 406.845 324.387 407.31C325.608 407.463 327.019 407.728 328.057 407.266C332.211 405.439 336.105 406.433 339.839 408.184C344.025 410.156 347.91 412.46 352.728 413.283C357.583 414.121 362.174 416.626 366.805 418.59C367.415 418.844 367.839 420.121 367.922 420.969C368.241 423.864 368.999 424.634 371.921 424.438C373.423 424.341 374.958 424.306 376.404 423.958C387.178 421.407 397.728 423.601 408.13 425.871C412.642 426.854 416.382 427.968 419.457 423.422L430.65 433.034L430.635 433.071ZM425.876 424.132C424.359 421.984 423.011 419.677 421.254 417.729C418.266 414.401 416.742 410.489 416.379 406.17C415.393 394.451 418.551 384.142 427.607 376.193C431.18 373.055 434.264 369.228 439.619 368.482C446.71 367.503 453.765 366.645 460.782 368.292C463.606 368.958 466.534 370.153 468.819 371.878C472.59 374.728 475.495 378.389 477.901 382.67C480.421 387.133 480.449 391.587 479.863 396.106C479.114 401.956 477.64 407.725 476.377 413.505C476.12 414.671 475.664 416.343 474.804 416.754C469.708 419.226 466.298 423.434 462.919 427.702C462.869 427.761 462.78 427.786 462.702 427.837C459.489 430.32 455.767 430.759 451.859 431.512C447.405 432.371 443.737 431.251 439.67 430.498C434.468 429.532 430.072 427.312 425.857 424.115L425.876 424.132ZM483.397 429.865C480.699 429.053 478.646 428.355 476.55 427.824C475.67 427.609 474.419 427.414 473.834 427.859C473.128 428.386 472.413 429.75 472.608 430.526C473.763 435.103 472.695 439.495 471.884 443.922C471.556 445.721 471.065 447.395 472.237 449.197C472.701 449.916 472.186 451.283 472.124 452.143C465.309 450.654 458.911 449.252 451.624 447.645C459.418 435.754 469.29 427.406 482.221 422.243C482.593 424.643 482.917 426.764 483.399 429.883L483.397 429.865ZM400.875 404C400.728 403.857 400.194 403.534 399.967 403.051C397.022 396.819 394.094 390.568 391.272 384.273C391.097 383.886 391.758 382.644 392.188 382.557C393.262 382.329 394.675 382.139 395.505 382.649C397.986 384.187 400.317 383.872 402.883 383.049C407.188 381.656 411.516 382.143 416.017 383.099C413.278 387.647 411.973 392.63 407.841 396.065C405.197 398.259 403.233 401.273 400.885 404.008L400.875 404ZM418.726 377.427C418.542 377.405 418.358 377.382 418.175 377.36C417.485 374.484 416.786 371.619 416.015 368.404C418.001 368.925 419.717 369.367 421.73 369.895C420.644 372.615 419.69 375.025 418.735 377.435L418.726 377.427Z" fill="#8FB8DF"/>
<path d="M312.684 410.381C308.495 411.205 304.506 410.968 300.835 408.461C298.045 406.555 296.208 403.89 295.418 400.754C294.127 395.6 291.514 390.797 291.589 385.238C291.605 383.573 290.118 381.948 289.606 380.218C288.737 377.305 288.071 374.333 287.35 371.394C286.902 369.568 286.516 367.721 286.112 365.869C285.618 363.553 285.247 361.194 284.622 358.909C283.492 354.801 282.389 350.662 280.909 346.667C280.252 344.889 278.501 345.191 277.184 346.322C275.43 347.823 273.806 349.472 272.058 350.985C270.567 352.275 268.99 353.468 267.426 354.683C267.036 354.982 266.542 355.179 266.189 355.516C262.392 359.248 258.618 362.997 254.851 366.756C254.211 367.392 253.671 368.148 252.982 368.724C248.213 372.648 243.364 376.457 238.682 380.479C236.901 382.011 235.571 384.066 233.895 385.729C232.35 387.259 230.61 388.604 228.935 389.987C227.621 391.071 226.185 392.02 224.957 393.202C222.404 395.654 219.979 398.224 217.476 400.735C215.845 402.373 214.238 404.026 212.514 405.555C207.647 409.846 202.736 414.06 197.839 418.325C195.846 420.054 193.883 421.809 191.914 423.554C188.4 426.649 184.873 429.723 181.391 432.874C179.261 434.8 177.18 436.787 175.135 438.811C171.964 441.96 169.039 441.743 166.311 438.101C165.492 436.992 164.662 435.889 163.444 434.242C165.705 442.28 165.017 445.857 160.095 453.256C156.002 453.094 152.652 451.732 150.672 447.82C149.949 446.39 148.774 445.176 147.794 443.865L142.092 434C141.166 430.144 139.697 426.602 136.39 424.136L134.654 421.132C134.708 421.072 134.808 421.014 134.816 420.95C135.347 415.513 138.943 412.074 142.573 408.512C147.39 403.776 151.969 398.808 156.568 393.873C157.567 392.807 158.163 391.353 159.125 390.25C160.464 388.722 161.967 387.351 163.416 385.937C164.751 384.633 166.238 383.463 167.423 382.053C169.113 380.056 170.549 377.851 172.172 375.789C175.397 371.707 178.665 367.674 181.945 363.635C182.506 362.941 183.109 362.164 183.872 361.767C187.402 359.904 189.55 356.829 191.619 353.386C186.164 354.379 180.866 355.49 175.525 356.27C171.699 356.826 167.787 356.721 163.962 357.305C152.937 358.99 142.02 361.219 131.494 365.1C130.881 365.321 130.185 365.68 129.599 365.589C123.359 364.583 118.048 367.874 112.371 369.381C107.667 370.622 105.127 369.842 103.166 365.372C101.124 360.711 99.5165 355.829 97.1748 351.342C95.2098 347.583 92.3928 344.273 90.0708 340.691C89.2354 339.4 88.4265 337.975 88.0976 336.509C87.5044 333.791 88.686 332.324 91.1809 331.207C96.5102 328.792 100.88 330.51 104.938 334.02C105.623 334.615 106.297 335.216 106.992 335.805C107.101 335.89 107.269 335.926 107.246 335.91C106.32 333.103 105.349 330.219 104.434 327.303C103.902 325.614 104.652 324.323 106.324 324.244C113.238 323.93 119.306 320.614 125.802 318.989C135.808 316.488 145.27 312.306 155.4 310.251C159.378 309.445 162.973 306.953 166.904 305.731C174.612 303.331 182.468 301.392 190.202 299.037C195.166 297.528 199.966 295.478 204.92 293.901C209.722 292.368 214.613 291.167 219.45 289.746C224.124 288.376 228.817 287.038 233.42 285.443C235.26 284.808 236.804 283.353 238.607 282.577C239.901 282.022 241.404 281.907 242.826 281.676C243.713 281.519 244.619 281.498 245.516 281.408C245.393 280.222 245.501 278.948 245.064 277.884C244.653 276.865 243.739 276.003 242.944 275.191C239.42 271.58 236.502 267.352 231.125 265.891C225.555 264.378 221.598 260.352 218.32 255.859C216.18 252.926 213.728 250.528 210.754 248.536C208.324 246.894 206.311 244.923 205.366 241.98C205.006 240.872 204.11 239.808 203.197 239.049C200.147 236.539 198.656 233.216 197.972 229.471C197.504 226.917 198.252 224.726 200.57 223.252C200.99 222.98 201.447 222.745 201.77 222.381C207.727 215.774 214.749 218.414 221.576 220.205C222.819 220.536 223.729 222.11 224.816 223.093C226.006 224.18 227.15 225.337 228.419 226.304C230.23 227.668 232.211 228.815 234.006 230.202C239.49 234.411 244.904 238.704 250.383 242.93C253.454 245.296 256.457 247.774 259.706 249.859C262.733 251.791 265.919 253.587 269.27 254.873C274.126 256.739 279.274 257.83 284.103 259.726C289.808 261.959 294.692 265.361 297.228 271.362C297.549 272.123 298.983 272.758 299.934 272.815C301.593 272.891 303.376 272.466 303.856 270.503C304.244 268.919 304.317 267.25 304.512 265.614C305.048 261.031 305.034 256.293 306.253 251.892C308.011 245.553 310.53 239.454 317.234 236.318C320.654 234.726 323.818 232.587 327.093 230.694C326.378 228.046 325.593 225.868 325.268 223.616C325.11 222.495 325.432 220.771 326.189 220.186C326.909 219.637 328.686 219.866 329.675 220.374C333.123 222.136 336.431 224.143 339.77 226.102C346.878 230.274 353.969 234.47 361.056 238.684C361.55 238.975 362.076 239.322 362.379 239.768C365.694 244.683 369.636 249.325 372.033 254.652C373.974 258.957 374.136 264.083 374.956 268.858C376.89 280.072 368.502 292.624 358.744 297.037C353.503 299.4 348.039 301.479 342.47 302.865C337.528 304.08 332.714 302.515 328.32 299.835C326.395 298.656 324.211 297.877 322.12 297.001C319.869 296.055 317.931 297.264 316.008 298.139C315.6 298.33 315.27 299.142 315.256 299.682C315.244 300.739 315.295 301.878 315.641 302.861C318.414 310.81 316.666 319.036 317.017 327.128C317.144 330.012 315.642 332.95 315.592 335.862C315.493 341.124 316.291 346.4 316.065 351.647C315.729 359.574 317.472 367.202 318.441 374.952C319.34 382.121 319.892 389.329 320.745 396.495C321.277 400.978 320.115 404.785 316.905 407.971L312.608 410.454L312.684 410.381ZM155.64 447.521C158.849 446.258 159.801 444.008 159.455 441.102C159.196 438.989 158.88 436.88 158.519 434.768C157.804 430.686 157.114 426.648 159.66 422.826C161.31 420.35 162.78 420.151 164.201 422.789C165.48 425.155 166.409 427.738 167.223 430.298C168.356 433.873 171.019 434.995 174.076 432.903C174.937 432.316 175.54 431.361 176.355 430.669C177.082 430.056 177.911 429.518 178.746 429.065C179.675 428.572 180.937 428.449 181.613 427.748C185.858 423.328 190.4 419.372 195.654 416.083C199.037 413.966 202.963 411.814 203.788 407.065C203.907 406.374 204.965 405.719 205.731 405.276C207.013 404.52 208.461 404.053 209.693 403.237C210.527 402.681 211.727 401.707 211.695 400.986C211.451 397.002 213.909 394.206 216.035 391.528C218.401 388.549 221.557 386.192 224.45 383.663C225.553 382.7 227.05 382.189 228.105 381.195C232.89 376.685 237.459 371.93 242.817 368.078C244.21 367.081 245.733 365.742 247.287 365.613C250.625 365.34 253.026 363.804 255.174 361.498C256.507 360.062 257.827 358.604 259.214 357.211C259.968 356.465 260.747 355.66 261.672 355.184C265.543 353.168 268.806 350.484 271.477 347.033C272.48 345.743 273.669 344.494 275.036 343.63C277.245 342.25 278.817 340.587 279.571 338.022C279.821 337.198 280.951 336.13 281.719 336.1C282.447 336.079 283.56 337.106 283.902 337.929C284.665 339.736 284.985 341.724 285.586 343.61C286.606 346.835 288.477 349.997 288.602 353.237C288.884 360.26 291.285 366.591 293.453 373.086C294.84 377.253 295.596 381.636 296.531 385.945C297.495 390.356 298.301 394.799 299.254 399.217C299.935 402.342 301.344 405.062 304.706 405.958C307.864 406.809 310.647 405.703 312.8 403.379C315.114 400.874 316.599 397.856 316.103 394.358C315.308 388.755 314.749 383.045 313.219 377.63C311.268 370.744 311.212 363.856 312.612 357.103C314.498 348.013 313.206 339.268 311.596 330.409C311.102 327.708 311.174 324.887 311.147 322.123C311.106 315.285 311.875 308.364 310.985 301.648C310.054 294.527 315.04 286.854 324.151 291.007C324.594 291.21 325.05 291.434 325.518 291.578C328.089 292.413 330.617 293.48 333.262 294.007C337.372 294.84 341.648 294.985 345.35 297.341C345.822 297.644 346.675 297.684 347.221 297.501C349.404 296.742 351.796 296.217 353.62 294.912C357.085 292.451 360.218 289.516 363.476 286.746C364.219 286.109 365.224 285.543 365.588 284.712C368.485 278.217 370.873 271.943 369.14 264.28C367.999 259.231 366.46 254.724 364.006 250.272C361.358 245.459 358.12 241.268 353.356 238.536C349.283 236.203 344.971 234.304 340.731 232.274C336.657 230.326 335.532 230.814 332.176 233.774C327.654 237.763 322.782 241.303 316.381 241.838C315.221 241.932 313.594 242.68 313.11 243.611C311.362 246.943 309.597 250.373 308.623 253.967C307.459 258.233 307.258 262.652 308.029 267.189C309.001 272.868 307.074 275.992 302.72 276.764C299.401 277.352 296.678 275.895 294.166 273.753C290.166 270.343 285.999 267.132 281.897 263.855C281.59 263.604 281.182 263.411 280.798 263.337C275.196 262.154 269.861 260.432 265.156 256.956C261.586 254.317 257.495 252.364 254.033 249.604C251.072 247.249 248.374 244.861 244.319 244.868C243.624 244.87 242.893 244.45 242.225 244.141C233.428 240.044 226.716 233.454 220.675 226.078C219.863 225.084 219.001 223.822 217.891 223.414C214.067 222.001 210.034 221.405 206.034 222.608C202.299 223.732 200.359 228.653 202.346 231.911C203.969 234.566 205.746 237.102 208.855 238.484C210.431 239.185 211.868 240.543 212.972 241.916C216.451 246.219 221.84 248.827 224 254.306C224.141 254.653 224.563 254.897 224.873 255.176C228.546 258.583 232.423 261.754 236.3 264.925C241.198 268.94 245.038 274.277 249.151 279.189C251.891 282.47 251.17 284.04 247.085 285.277C243.785 286.283 240.611 287.659 237.366 288.81C236.078 289.273 234.742 289.602 233.415 289.97C231.623 290.459 229.147 290.352 228.142 291.509C224.482 295.71 219.906 295.456 215.174 295.086C214.274 295.015 213.33 294.689 212.497 294.889C207.44 296.082 202.287 297.034 197.403 298.734C191.608 300.752 186.042 303.245 180.674 306.54C175.405 309.778 168.935 311.27 162.805 312.787C159.517 313.608 156.202 313.972 153.316 315.95C152.582 316.448 151.684 316.79 150.812 316.998C146.729 317.983 142.515 318.585 138.557 319.912C129.035 323.094 119.617 326.586 110.113 329.979C111.471 332.329 112.968 334.791 114.343 337.323C117.178 342.56 117.16 343.812 114.436 346.659C110.289 343.866 106.146 341.055 101.989 338.297C99.537 336.669 96.8981 335.666 93.3604 336.439C93.5782 337.969 93.4027 339.741 94.0997 341.024C97.3246 346.834 100.949 352.413 104.123 358.238C107.544 364.541 111.787 366.14 118.218 363.044C121.149 361.631 124.081 360.424 127.474 360.888C128.407 361.014 129.436 360.745 130.387 360.52C138.162 358.747 145.926 356.906 153.706 355.219C155.537 354.826 157.32 354.579 158.26 352.72C159.728 349.801 162.245 349.234 165.25 348.975C169.073 348.644 172.893 347.974 176.609 347.023C180.88 345.93 185.028 344.7 189.452 346.254C191.74 347.061 194.028 346.892 196.445 346.205C198.365 345.657 200.538 345.983 202.619 345.918C201.884 352.155 198.322 355.988 194.368 359.604C187.462 365.902 180.72 372.357 175.561 380.218C173.739 382.986 171.426 385.033 168.773 386.951C165.992 388.958 163.254 391.191 161.037 393.788C157.451 397.99 154.352 402.546 149.447 405.515C147.767 406.53 146.202 408.588 145.659 410.469C144.81 413.459 143.716 416.205 141.943 418.724C141.641 419.15 141.407 419.847 141.537 420.304C142.201 422.759 142.632 425.349 143.792 427.562C146.724 433.172 149.979 438.624 153.172 444.098C153.896 445.35 154.897 446.442 155.658 447.451L155.64 447.521Z" fill="#8FB8DF"/>
<path d="M151.46 35.5125C147.145 38.943 146.447 43.97 145.538 48.9096C145.498 49.1471 145.462 49.4498 145.567 49.6335C146.989 52.1905 148.423 54.7441 149.878 57.2785C150.532 58.4264 151.448 59.4612 151.892 60.6679C153.002 63.6319 153.955 66.4664 156.9 68.4239C158.407 69.4266 159.453 71.5961 160.024 73.4462C162.039 79.9769 166.227 85.2336 169.684 90.9214C171.957 94.6644 174.175 98.4493 176.614 102.545C174.016 102.354 171.475 102.32 168.972 101.942C164.146 101.216 159.341 100.325 154.548 99.4301C153.155 99.1676 151.837 98.5515 150.439 98.3171C148.676 98.0121 146.87 97.9851 145.098 97.7487C143.38 97.5109 141.654 97.2484 139.969 96.8416C135.526 95.7691 131.095 94.5998 126.666 93.4833C124.817 93.0159 122.955 92.5519 121.101 92.1126C117.367 91.2409 113.663 90.2409 109.891 89.5663C106.863 89.0293 103.963 87.8046 101.118 87.2563C96.994 86.4671 93.4134 84.6207 89.5488 83.4262C86.6764 82.5396 83.9761 81.1258 81.0982 80.2674C79.5572 79.8068 77.3872 79.336 76.2589 80.0644C74.3013 81.3044 72.9698 83.6868 73.8263 86.1758C74.7607 88.8958 76.0301 91.5753 77.5635 94.008C80.5586 98.7601 81.2263 104.097 82.2973 108.829C79.4806 109.617 77.0751 110.303 74.6626 110.965C71.9625 111.694 69.3456 112.054 66.6131 110.716C65.4709 110.157 63.8645 110.367 62.4824 110.474C60.1837 110.638 57.8948 111.266 55.6096 111.24C49.8127 111.185 44.0109 111.065 38.446 112.982C35.2151 114.099 29.5178 110.449 28.5542 106.339C27.9538 103.765 27.0238 101.204 24.4647 100.057C23.1851 99.483 21.4597 99.5533 20.0064 99.787C18.733 99.9969 17.6189 101.014 16.343 101.358C13.8777 102.021 13.5875 103.793 13.4133 105.931C12.8202 113.618 15.5506 120.946 15.6557 128.557C15.6766 129.536 15.8966 130.513 15.9299 131.489C16.0223 134.151 17.6785 134.5 19.8694 134.379C22.8464 134.212 25.8447 134.357 28.8099 134.1C34.483 133.617 39.5114 136.828 45.0924 136.731C46.4053 136.709 47.7181 136.688 49.0241 136.642C49.9476 136.61 50.8687 136.379 51.7704 136.459C59.3138 137.09 66.8369 137.886 74.3951 138.38C78.4517 138.642 82.5499 138.387 86.1569 138.376C88.4611 146.609 90.6674 154.683 93.0097 162.719C93.44 164.21 94.4352 165.528 95.4637 167.49C93.8179 168.749 92.2668 170.394 90.3657 171.312C82.4536 175.124 76.5996 181.767 69.2471 186.34C65.5602 188.637 61.98 191.076 58.384 193.507C55.4177 195.521 52.5387 197.658 49.5758 199.685C47.7981 200.902 45.9226 201.959 44.1414 203.163C42.0488 204.587 39.7809 205.861 38.0756 207.669C37.2743 208.519 37.0562 210.643 37.497 211.837C39.9203 218.307 42.4638 224.729 45.2933 231.032C46.8821 234.567 50.3271 236.119 53.9545 236.847C57.7352 237.599 60.6904 235.069 61.3717 231.124C61.851 228.315 62.6489 225.549 63.2937 222.76C63.3823 222.362 63.6814 221.813 63.5259 221.59C61.6259 218.848 63.9758 217.724 65.6181 216.785C68.9911 214.843 72.5038 213.115 76.0753 211.596C77.8964 210.82 79.9786 210.597 81.9838 210.288C85.6716 209.709 87.856 206.995 89.6333 204.301C91.8372 200.942 94.724 198.976 98.3576 197.68C100.37 196.97 102.246 195.913 104.603 194.814C105.403 197.199 106.24 199.76 107.138 202.304C109.327 208.506 111.541 214.702 113.742 220.9C113.856 221.215 113.921 221.542 114.069 221.834C114.529 222.81 115.026 223.776 115.498 224.748C116.516 224.197 117.637 223.777 118.533 223.074C122.917 219.557 125.835 214.322 131.35 212.086C132.034 211.815 132.613 211.267 133.201 210.796C135.755 208.737 135.895 207.952 134.218 205.054C138.461 200.792 142.647 196.426 147.026 192.272C149.932 189.516 153.035 186.943 156.205 184.512C160.944 180.883 165.893 177.528 170.617 173.89C173.454 171.699 176.055 169.187 178.766 166.831C179.27 166.397 179.761 165.674 180.316 165.612C183.608 165.237 185.969 163.152 188.493 161.367C189.348 160.755 190.215 160.14 191.465 159.231C191.435 162.168 191.314 164.784 191.402 167.381C191.523 170.622 191.977 173.862 192.008 177.115C192.048 182.161 191.852 187.221 191.758 192.265C191.684 195.999 191.623 199.73 191.561 203.461C191.524 205.614 191.706 207.786 191.479 209.926C190.99 214.416 193.523 219.324 197.582 221.356C202.988 224.062 206.618 223.752 210.482 219.516C213.521 216.19 217.019 212.935 217.106 207.866C217.114 206.945 216.818 206.029 216.799 205.103C216.762 203.543 216.605 201.936 216.919 200.438C217.907 195.542 219.55 190.703 218.086 185.616C218.041 185.455 217.979 185.233 218.057 185.132C221.135 180.517 219.333 175.031 220.811 170.079C221.916 166.362 222.02 162.353 222.729 158.508C223.154 156.126 223.698 153.737 224.488 151.467C226.054 146.969 227.263 142.437 228.072 137.712C228.606 134.621 230.638 131.79 232.085 128.869C232.63 127.771 233.219 126.209 234.153 125.881C236.116 125.185 238.267 125.302 239.949 127.028C241.515 128.626 243.064 130.256 244.763 131.71C247.144 133.746 249.643 135.629 251.699 137.263C248.777 138.293 245.287 139.39 241.914 140.76C238.611 142.097 238.306 143.766 240.68 146.443C244.236 150.439 247.941 154.3 251.421 158.358C252.878 160.04 254.056 162.013 255.125 163.976C256.24 166.007 257.96 166.777 260.064 166.773C262.221 166.769 263.715 165.539 264.445 163.577C265.263 161.405 265.6 158.995 266.674 156.977C268.692 153.191 271.086 149.607 273.316 145.961C275.406 147.572 277.363 149.234 279.469 150.668C281.642 152.149 283.6 151.575 284.819 149.317C285.888 147.328 286.728 145.189 288.009 143.34C290.167 140.247 289.345 138.547 285.882 136.454C287.611 135.159 289.163 133.753 290.923 132.714C302.366 125.905 306.873 115.686 305.963 102.723C305.818 100.967 305.744 99.3237 305.642 97.675C304.426 93.3301 303.207 88.9728 301.991 84.6278C299.227 79.2253 295 75.4035 289.49 72.8992C288.358 72.3774 287.261 71.7395 286.232 71.0158C282.778 68.5749 278.944 67.3453 274.735 67.2055C272.594 67.1257 270.451 67.0335 268.266 66.9394C269.335 63.286 267.991 60.7206 264.36 58.9814C262.651 58.1555 261.085 57.0363 259.343 56.2859C258.146 55.769 256.73 55.3267 255.496 55.4858C253.902 55.6924 253.081 56.9471 252.977 58.7197C252.852 60.8443 252.456 62.9517 252.173 65.0808C251.877 65.4033 251.572 65.7415 251.276 66.064C247.046 63.3743 242.865 60.6181 238.573 58.0391C236.376 56.7105 234.067 55.5065 231.676 54.5784C229.213 53.6306 227.078 54.6672 226.493 57.2402C225.402 62.0046 224.708 66.8573 223.758 71.6488C223.119 74.8889 222.231 78.0925 221.62 81.338C221.29 83.1076 221.285 84.9459 221.088 87.3836L235.505 83.3488C235.144 84.5813 234.934 85.119 234.813 85.6853C233.766 90.464 232.285 95.2176 231.856 100.063C231.613 102.859 230.351 103.585 228.281 104.231C226.016 104.945 225.15 103.47 224.301 101.818C223.975 101.177 223.468 100.6 222.922 100.127C215.698 93.8301 208.453 87.5521 201.225 81.2425C200.692 80.766 200.285 80.1212 199.901 79.51C199.12 78.291 198.607 76.8374 197.62 75.8357C193.787 71.9437 188.997 69.0117 186.435 63.8586C184.927 60.8468 183.43 57.7382 180.2 55.9535C179.41 55.5092 178.892 54.4694 178.398 53.6093C177.107 51.3752 175.929 49.0694 174.646 46.8195C173.502 44.8238 172.59 42.5635 171.023 40.9653C169.044 38.9372 166.493 37.4413 164.19 35.7301C164.088 35.6521 163.839 35.6684 163.694 35.7223C160.838 36.9875 158.601 35.3243 156.262 34.1552L151.419 35.5105L151.46 35.5125ZM234.976 121.445C233.593 121.499 231.766 121.97 230.174 121.564C225.999 120.497 224.88 121.595 224.222 125.905C223.437 131.05 226.068 136.596 222.429 141.395C222.164 141.735 222.316 142.371 222.23 142.874C219.891 156.174 218.381 169.628 213.998 182.527C213.043 185.35 212.814 188.675 213.192 191.644C213.631 195.115 213.586 198.429 212.907 201.813C212.376 204.437 208.55 213.614 206.834 215.718C206.238 216.444 205.345 217.107 204.446 217.372C201.458 218.261 197.539 215.205 197.437 212.079C197.404 211.25 197.161 210.426 197.144 209.605C197.072 205.446 193.65 202.118 194.319 197.751C195.036 193.078 195.597 188.369 196.245 183.689C196.277 183.467 196.498 183.259 196.658 183.068C199.179 180.033 198.143 176.569 197.801 173.204C197.747 172.633 197.234 171.845 196.736 171.638C194.142 170.554 194.978 168.83 195.456 166.872C196.368 163.183 197.077 159.431 197.623 155.671C197.907 153.688 196.361 152.59 194.58 153.461C192.059 154.686 189.489 155.977 187.27 157.663C183.752 160.325 180.347 162.675 175.551 161.675C173.428 161.231 171.88 162.316 170.622 164.292C169.786 165.591 168.092 166.677 166.57 167.143C163.503 168.081 161.097 170.006 159.853 172.604C158.232 175.999 156.066 178.588 152.943 180.567C146.26 184.82 140.64 190.253 135.598 196.322C130.095 202.934 124.556 209.515 118.999 216.075C117.817 217.47 116.522 217.554 115.745 215.681C113.938 211.368 112.082 207.069 110.532 202.672C109.333 199.294 108.708 195.728 107.559 192.336C106.509 189.249 105.577 189.204 103.08 191.181C101.398 192.503 99.5345 193.65 97.6121 194.588C93.1807 196.746 87.9565 197.929 84.3692 201.009C80.1284 204.658 74.1886 204.95 70.5381 209.232C70.4477 209.337 70.2184 209.375 70.0687 209.364C65.9029 209.092 64.2757 212.369 62.1535 214.973C59.5168 218.213 58.0659 221.787 58.3836 226.064C58.506 227.787 58.2069 229.574 57.8713 231.279C57.7189 232.067 57.0316 233.324 56.5222 233.36C55.3728 233.442 53.6504 233.285 53.1067 232.532C50.5346 229.006 48.0618 225.359 45.9884 221.52C44.6665 219.082 44.3662 216.104 43.1149 213.633C41.4524 210.358 41.2903 210.35 44.7169 209.218C45.2659 209.037 45.8939 208.902 46.317 208.557C49.4802 206.008 52.5175 203.294 55.7488 200.846C59.7393 197.826 63.6415 194.538 68.0542 192.265C70.8252 190.837 73.3916 189.44 75.7082 187.341C77.2597 185.935 79.277 185.051 81.0631 183.912C81.7634 183.463 82.4287 182.984 83.1028 182.489C86.599 179.94 90.0918 177.379 93.5846 174.817C95.4637 173.44 97.3393 172.05 99.2411 170.705C100.789 169.62 100.971 168.318 100.341 166.591C98.1195 160.557 95.9194 154.504 93.8551 148.414C92.6611 144.861 91.4602 141.284 92.2892 137.392C92.4213 136.769 91.7804 135.431 91.2755 135.293C88.4232 134.574 85.5107 133.925 82.5891 133.624C80.2857 133.39 77.9058 133.883 75.588 133.693C69.2685 133.199 62.9595 132.409 56.6415 131.968C53.7475 131.766 50.8163 132.24 47.9129 132.148C44.7576 132.059 41.6161 131.687 38.4707 131.396C35.7621 131.143 33.058 130.715 30.3454 130.542C26.6569 130.31 22.9516 130.255 19.3189 130.127C19.181 128.968 19.1116 128.149 18.9928 127.344C18.2114 122.172 17.3278 117.015 16.6769 111.833C16.5 110.392 16.8365 108.833 17.1602 107.372C17.5541 105.638 20.3852 104.473 21.9296 105.278C20.0906 107.656 21.1799 109.787 22.4401 111.91C23.9221 114.397 26.7092 113.551 28.5674 114.002C29.0171 115.181 29.1891 116.557 29.6589 116.665C32.4623 117.305 35.3856 118.23 38.1606 117.96C41.7307 117.626 45.1668 116.052 48.7316 115.414C51.7389 114.878 54.9347 115.302 57.8971 114.606C61.6729 113.722 65.1831 113.698 68.6763 115.423C69.0014 115.584 69.5341 115.489 69.9102 115.357C73.0422 114.267 75.9848 115.214 78.9383 116.104C80.2189 116.491 81.4995 116.878 82.8053 117.165C85.3133 117.701 87.2967 115.935 86.6869 113.47C85.0482 106.901 83.1501 100.404 81.5362 93.8279C80.916 91.3261 80.7968 88.7106 80.4394 86.1486C80.6604 86.0335 80.8724 85.9342 81.0933 85.8192C85.3382 88.611 90.785 87.9385 95.0062 90.8834C95.4853 91.2152 96.7942 91.2748 96.9243 91.0255C97.8484 89.3293 99.0883 90.0471 100.187 90.4983C103.773 91.9838 107.386 93.1823 111.348 92.7257C111.981 92.655 112.677 92.8594 113.314 93.0405C119.317 94.7815 125.238 96.758 131.559 97.305C133.472 97.4752 136.115 98.3993 136.898 99.8173C137.833 101.539 138.909 101.957 140.408 102.362C141.502 102.655 142.561 103.011 143.622 103.326C143.348 104.681 143.123 105.782 142.85 107.136C145.432 106.414 147.575 105.694 149.785 105.262C150.556 105.113 151.471 105.669 152.326 105.868C153.864 106.223 155.469 106.959 156.955 106.796C159.658 106.505 162.283 105.318 164.968 105.152C169.343 104.886 173.946 104.437 177.739 107.328C179.94 109.002 181.724 107.81 182.97 106.597C184.203 105.386 183.541 103.495 182.412 102.081C180.76 99.9873 179.051 97.9235 177.484 95.7531C174.053 91.0163 169.484 86.9708 168.275 80.8405C168.195 80.4104 167.641 80.0994 167.344 79.7034C166.601 78.7135 165.778 77.7725 165.16 76.7075C163.017 72.9546 161.004 69.139 158.852 65.402C156.743 61.7197 154.495 58.116 152.377 54.4495C152.115 53.9903 152.341 53.2749 152.143 52.7579C151.794 51.844 151.488 50.7982 150.817 50.1609C149.078 48.5178 148.879 47.0429 150.403 45.2056C151.197 44.2377 151.941 43.2309 152.619 42.1762C154.647 38.9996 157.999 38.554 160.894 41.0447C161.826 41.849 162.852 42.8527 163.972 43.0452C168.441 43.8308 171.129 46.8188 173.263 50.348C175.651 54.3117 177.603 58.384 181.154 61.7428C184.728 65.1351 187.156 69.7663 189.918 73.9714C190.285 74.5209 189.929 75.8185 189.527 76.5701C188.185 79.155 188.389 80.2161 190.929 81.6749C192.232 82.4283 193.528 83.2503 194.924 83.7646C205.302 87.622 212.86 95.3032 220.253 102.964C223.46 106.286 225.953 109.289 231.034 107.214L235.01 121.422L234.976 121.445ZM235.979 111.368C235.91 108.738 236.069 106.071 235.689 103.476C235.05 99.0494 235.954 94.9496 238.049 91.1554C243.734 80.8596 252.082 74.0376 264.027 72.4516C268.741 71.8246 273.431 70.3523 278.299 72.7036C284.741 75.8256 291.085 79.0281 296.009 84.2921C297.988 86.4136 299.76 89.0323 300.703 91.7365C302.259 96.1995 302.643 100.857 302.268 105.754C301.887 110.865 299.438 114.585 296.442 118.019C292.572 122.47 288.145 126.451 283.886 130.558C283.025 131.384 281.718 132.522 280.774 132.387C275.163 131.615 269.991 133.222 264.811 134.898C264.737 134.918 264.649 134.89 264.556 134.889C260.505 135.171 257.165 133.47 253.496 131.928C249.314 130.17 246.885 127.203 243.92 124.319C240.13 120.628 237.704 116.342 235.972 111.343L235.979 111.368ZM280.645 148.063C278.851 145.889 277.531 144.169 276.082 142.565C275.469 141.898 274.537 141.04 273.804 141.086C272.924 141.132 271.572 141.87 271.303 142.624C269.724 147.073 266.398 150.133 263.266 153.366C261.995 154.68 260.657 155.8 260.632 157.949C260.618 158.805 259.431 159.656 258.902 160.337C254.06 155.316 249.516 150.598 244.347 145.217C257.43 139.652 270.275 138.187 283.897 141.07C282.875 143.273 281.967 145.217 280.636 148.078L280.645 148.063ZM226.357 80.7445C226.314 80.5436 226.049 79.9788 226.128 79.4509C227.137 72.633 228.171 65.8082 229.318 59.0051C229.387 58.5864 230.626 57.9202 231.032 58.0861C232.052 58.4929 233.333 59.1193 233.741 60.0036C234.95 62.6599 237.064 63.6922 239.655 64.4311C244.01 65.6617 247.34 68.4699 250.553 71.7635C245.751 74.0258 241.899 77.4464 236.555 78.0102C233.138 78.3675 229.832 79.7854 226.36 80.7569L226.357 80.7445ZM255.954 68.5482C255.814 68.4277 255.674 68.3072 255.533 68.1868C256.555 65.4118 257.565 62.6402 258.708 59.5383C260.07 61.0738 261.252 62.3935 262.634 63.9502C260.221 65.6104 258.089 67.0855 255.958 68.5605L255.954 68.5482Z" fill="#8FB8DF"/>
</g>
<defs>
<clipPath id="clip0_739_5905">
<rect width="687.757" height="711.668" fill="white"/>
</clipPath>
</defs>
</svg>
