<svg width="505" height="351" viewBox="0 0 505 351" fill="none" xmlns="http://www.w3.org/2000/svg">
<path d="M306.365 289.055C305.635 289.021 305.185 287.123 305.185 287.123L303.175 285.125C303.175 285.125 302.011 283.041 301.372 282.642C300.355 282.007 300.257 280.175 299.43 279.814C297.694 279.058 296.377 278.272 296.377 278.272L294.298 275.941L291.654 273.564L290.975 271.88L290.451 271.297L290.158 270.709L287.412 268.237L285.303 264.995L283.449 262.765L281.454 260.801L279.642 259.333L277.218 256.764L273.534 251.388L271.804 249.646C271.804 249.646 269.7 253.003 267.811 252.58C267.438 252.496 266.898 252.226 266.898 252.226L259.388 256.008L254.556 257.956L250.187 258.505L249.495 258.68C249.495 258.68 250.352 259.569 250.178 260.194C250.061 260.615 249.442 261.037 249.442 261.037L250.095 265.243L250.666 269.844L250.952 272.464L250.307 274.386L250.706 282.025L250.753 288.49L251.602 294.478L251.884 298.401L251.587 304.034L252.348 306.439L251.781 309.131C251.781 309.131 252.842 310.796 252.261 311.578C252.035 311.882 251.714 311.691 251.483 312.156C251.082 312.964 250.069 312.847 250.069 312.847C250.069 312.847 249.319 313.439 248.758 313.656C248.136 313.896 247.717 313.763 247.073 313.934C246.148 314.18 245.725 314.588 244.816 314.884C243.511 315.31 241.368 315.568 241.368 315.568L237.542 316.469C237.542 316.469 236.356 316.739 235.583 316.745C234.082 316.757 233.199 316.47 231.86 315.79C230.635 315.168 229.831 314.769 229.101 313.605C228.915 313.308 228.807 313.138 228.691 312.807C228.164 311.291 229.651 309.164 230.131 308.956C230.612 308.748 231.034 308.227 231.034 308.227C231.034 308.227 231.911 305.676 233.312 305.199C233.703 305.065 233.728 304.913 233.989 304.592C234.294 304.218 234.195 304.108 234.122 303.805C234.067 303.578 235.438 303.909 235.921 303.412C237.324 301.969 236.585 297.732 236.585 297.732L236.66 295.808L235.672 292.323L234.531 289.316C234.531 289.316 233.779 288.818 233.461 288.355C232.87 287.491 233.461 286.222 233.075 285.702C232.457 284.873 232.281 286.423 232.549 283.106C232.816 279.788 233.631 278.512 234.325 275.569C234.325 275.569 233.596 273.827 233.391 272.335C233.152 270.594 232.024 269.536 232.364 267.719C232.526 266.851 232.414 266.2 231.948 265.694C231.36 265.053 228.604 266.116 228.604 266.116L221.97 268.549L215.556 271.071L210.249 272.079C210.249 272.079 209.423 273.173 208.954 272.826C208.502 272.493 209.158 271.404 209.158 271.404L209.379 268.466L209.758 265.368L210.419 262.646C210.419 262.646 208.77 254.977 210.429 255.111C211.327 255.183 212.765 254.832 212.765 254.832L212.933 249.339L214.093 245.469L214.391 240.574L214.332 237.284L214.561 235.603L214.67 232.967L215.05 228.256L214.518 225.245L214.719 223.037L215.022 220.564L214.423 218.181L214.819 212.854L215.055 208.345L213.666 205.736L214.164 202.373C214.164 202.373 213.656 202.074 213.583 201.749C213.506 201.401 213.896 200.892 213.896 200.892L213.354 197.339L208.302 201.527L204.711 204.323L201.163 206.411L198.385 207.9L196.728 209.7L193.918 211.667L190.146 215.788L187.373 217.805C187.373 217.805 184.677 219.122 183.221 220.345C181.911 221.445 182.196 221.736 181.15 222.295C180.517 222.634 179.849 223.281 179.537 223.17C178.426 222.774 177.844 224.127 176.664 224.104C175.461 224.081 174.867 223.535 173.78 223.02C172.822 222.567 172.2 222.401 171.42 221.685C170.388 220.738 169.963 219.94 169.623 218.581C169.306 217.319 169.519 216.542 169.668 215.249C169.89 213.324 170.729 212.385 170.972 210.462C171 210.237 170.984 210.105 171.035 209.883C171.237 209 172.537 208.114 172.537 208.114L173.725 206.584L174.737 206.545L175.76 205.94L177.193 204.656L180.722 200.353L183.165 198.092L186.186 196.529L188.471 192.703L191.87 190.426L194.475 186.976L197.147 184.727L201.24 179.891L203.885 176.361L206.058 172.733L209.595 169.245L211.083 167.064L212.894 162.859C212.894 162.859 213.365 161.77 213.858 161.211C214.19 160.834 214.825 160.364 214.825 160.364L212.308 156.331C212.308 156.331 209.317 155.223 207.325 154.857C205.323 154.49 204.084 155.197 202.184 154.466C200.127 153.675 197.02 152.187 197.02 152.187L195.738 151.993L195.762 153.067L198.53 157.584L199.724 162.736C199.724 162.736 199.958 163.177 199.608 163.581C199.244 164.001 198.647 163.845 198.647 163.845L193.639 163.585L188.827 163.174L184.428 162.732L180.068 163.383C180.068 163.383 178.739 162.99 178.208 162.351C177.935 162.022 177.826 161.794 177.678 161.393C176.946 159.424 180.118 156.598 180.118 156.598L182.832 151.251L182.905 149.32L184.846 145.239L184.945 144.429L180.324 143.796L177.58 142.84L176.861 141.654L177.861 139.357L180.117 134.563L181.516 134.352L185.566 137.133L185.561 138.074L184.414 135.03L184.432 129.622C184.432 129.622 183.868 126.342 184.054 124.245C184.297 121.509 184.972 120.02 186.109 117.519C187.143 115.241 187.786 113.928 189.428 112.04C191.059 110.166 194.354 108.016 194.354 108.016C194.354 108.016 199.27 105.017 202.711 103.764C205.596 102.713 207.264 101.867 210.335 101.837C214.236 101.799 216.265 103.306 219.896 104.732C221.863 105.504 223.083 105.755 224.841 106.927C226.6 108.098 227.364 109.07 228.772 110.646C230.726 112.834 233.088 116.794 233.088 116.794L233.89 118.284C233.89 118.284 231.955 112.889 234.242 112.092C234.661 111.946 234.92 111.943 235.362 111.905C237.847 111.691 238.888 113.623 241.3 114.253C242.004 114.437 242.579 114.172 243.117 114.66C243.707 115.195 243.647 116.63 243.647 116.63L240.235 119.891L238.517 122.517L240.85 123.029L247.103 126.118L253.674 128.484L255.917 130.107L256.196 131.575L254.571 134.172L251.453 136.649L249.557 139.411L245.917 142.404L243.215 146.968L241.885 147.809L241.141 146.103L240.904 144.36L236.622 136.466L236.522 135.262L235.641 139.686L232.969 143.387L230.328 146.907L226.433 149.826C226.433 149.826 226.516 154.552 228.709 155.432C229.671 155.818 231.357 155.592 231.357 155.592L231.97 155.281L238.258 156.846L244.762 158.108L250.107 158.946L255.135 160.033L256.892 159.116L260.803 159.601L264.751 160.737L268.656 160.768L272.47 160.298C272.47 160.298 275.884 159.711 276.389 160.066C276.892 160.419 277.52 161.159 277.52 161.159L281.107 160.563L283.258 160.145L285.964 159.712L289.747 159.84C289.747 159.84 291.794 158.615 292.943 159.169C293.48 159.429 293.534 159.941 294.072 160.199C294.823 160.559 295.451 159.914 296.204 160.27C297.225 160.754 296.978 161.888 297.739 162.725C298.83 163.926 300.314 163.643 301.226 164.986C302.618 167.035 301.996 169.061 300.989 171.324C300.26 172.964 299.157 173.445 298.059 174.865C297.751 175.264 297.278 175.894 297.278 175.894L294.674 176.101L293.566 176.917L289.493 176.625L284.324 178.316L281.481 177.512L277.18 177.971L271.394 179.701L268.178 179.866L261.727 180.285L258.306 181.214L254.659 181.144L252.641 181.275L250.491 181.934L253.81 186.004L256.58 188.715L259.651 190.759L262.024 193.799L264.668 195.999L267.797 198.027L268.894 200.112L270.532 201.747L275.368 204.684L277.681 206.6L280.772 210.048L283.276 211.543L287.559 214.663L289.32 216.521L292.906 220.042L294.99 220.654L296.528 222.578L299.952 224.463L305.893 228.231L309.279 230.14C309.279 230.14 310.113 230.68 310.12 231.213C310.124 231.458 309.955 231.817 309.955 231.817C309.955 231.817 309.769 232.631 309.556 233.118C308.169 236.283 301.125 235.811 301.125 235.811L298.065 236.622L295.32 237.775L290.324 240.029L289.787 241.962C289.787 241.962 291.771 243.186 292.118 244.481C292.213 244.834 292.161 245.053 292.244 245.409C292.62 247.032 292.873 247.367 293.631 248.85C294.117 249.801 295.817 251.327 295.817 251.327C295.817 251.327 296.782 251.636 297.302 252.004C298.583 252.912 299.137 255.582 299.137 255.582L300.908 258.142L303.045 260.257L303.653 261.328L304.619 263.723L305.469 263.702L307.026 266.829L307.49 268.119L308.874 270.835L313.219 272.854L316.883 272.629C316.883 272.629 319.834 270.959 321.664 271.528C322.532 271.798 323.235 271.925 323.657 272.731C323.839 273.078 323.913 273.703 323.913 273.703L324.86 277.606L324.183 278.553L323.16 279.359L322.106 279.631L320.012 281.703L315.303 283.835L311.925 286.504L309.019 287.596L308.332 288.619C308.332 288.619 307.417 288.834 307.09 289.2C306.586 289.765 306.504 289.4 306.504 289.4C306.504 289.4 306.387 289.056 306.365 289.055ZM248.556 180.218L255.064 180.219L262.535 180.34L266.012 180.007L268.613 179.494C268.613 179.494 268.869 179.006 269.165 178.871C269.617 178.663 270.103 179.079 270.403 179.174C270.88 179.325 271.179 178.91 271.653 179.071C272.123 179.231 272.906 178.853 272.906 178.853L274.692 178.648L275.727 178.231L277.937 177.741L280.123 177.41L284.639 177.447L290.21 176.336L292.238 176.389L294.064 174.967L295.41 175.5C295.41 175.5 297.475 175.239 298.32 174.358C299.195 173.448 298.993 172.504 299.329 171.288C299.829 169.477 300.858 168.358 300.277 166.572C299.745 164.936 298.518 164.519 297.177 163.441C296.178 162.638 295.692 163.278 294.827 162.908C294.159 162.622 293.518 162.247 293.235 161.944C292.497 161.158 292.282 160.734 291.211 160.606C289.871 160.445 287.855 159.776 287.855 159.776L284.41 159.961L279.542 160.823L276.163 160.402L272.901 160.272L270.006 160.602L266.704 160.753L265.64 161.11C265.64 161.11 265.464 160.766 265.108 160.846C264.454 160.993 263.449 160.713 263.449 160.713L261.419 161.13C261.419 161.13 260.826 163.925 260.055 164.236C259.364 164.514 250.218 159.72 250.218 159.72C250.218 159.72 247.01 158.535 245.324 158.196C243.754 157.881 243.534 157.746 242.018 157.316C240.313 156.832 239.556 157.619 237.878 156.999C236.162 156.366 234.878 156.524 233.101 156.097C231.701 155.76 230.857 156.623 229.438 155.968C228.777 155.663 228.214 155.698 227.673 155.211C226.497 154.153 225.983 151.596 225.983 151.596L226.059 150.988L220.341 154.143L213.88 155.512C213.88 155.512 214.142 158.178 215.019 159.571C215.836 160.868 217.58 161.059 217.915 162.219C218.353 163.733 216.462 164.035 215.5 165.283C213.897 167.365 209.885 168.991 209.885 168.991L208.357 172.464L204.927 175.781L200.783 180.431L197.9 183.838L193.804 187.864L191.87 190.426L188.985 194.654L186.728 197.795L183.678 200.3L180.083 202.231L177.758 204.645C177.758 204.645 175.898 206.802 174.472 207.92C173.665 208.553 172.709 208.456 172.3 209.397C172.026 210.027 172.279 210.47 172.221 211.154C172.116 212.404 171.949 213.093 171.719 214.326C171.492 215.54 170.897 216.193 171.056 217.418C171.198 218.517 171.511 219.165 172.247 219.995C173.18 221.048 174.221 220.958 175.458 221.629C176.332 222.104 176.384 221.83 177.377 221.894C178.592 221.973 178.96 221.069 179.999 220.436C181.007 219.823 182.076 219.614 182.966 218.839C183.865 218.056 185.707 219.093 186.536 218.236C188.315 216.397 189.953 215.866 189.953 215.866L192.032 213.727L194.521 210.678L196.848 208.785C196.848 208.785 197.368 207.057 197.857 206.014C198.017 205.673 201.236 203.449 201.903 203.112C202.565 202.777 202.987 203.571 203.724 203.649C206.885 203.983 207.043 199.928 209.517 197.932C210.218 197.366 211.352 196.534 211.352 196.534C211.352 196.534 212.625 194.594 213.151 194.926C213.677 195.257 213.277 196.043 213.655 196.435C214.378 197.185 214.196 199.427 214.196 199.427L214.265 201.807C214.265 201.807 214.028 203.366 214.367 204.173C214.827 205.266 214.12 206.017 214.57 207.141C215.365 209.13 219.696 211.552 217.779 213.63C217.138 214.326 217.58 215.45 217.372 216.603C217.19 217.619 219.141 218.924 218.419 220.193C217.917 221.074 218.81 222.741 218.151 223.511C216.739 225.162 216.542 227.061 216.542 227.061L216.048 229.836L216.614 235.201L216.146 239.891L215.643 246.048L214.361 250.649L212.819 256.936L212.33 261.338L210.527 268.348L210.993 269.565L210.373 270.874L213.677 270.649C213.677 270.649 219.003 269.294 221.671 268.667C222.779 268.407 223.385 268.267 223.976 267.814C224.679 267.274 225.102 267.487 225.724 267.172C226.475 266.792 226.591 266.898 227.122 266.659C228.92 265.853 229.384 265.246 231.011 264.84C231.396 264.744 231.49 264.893 232.007 264.639C232.647 264.325 232.592 264.741 232.592 264.741L232.333 268.119L233.004 271.018L234.036 274.534L235.473 281.241L235.385 284.566L235.832 288.262L236.013 288.871L237.023 290.181L237.12 290.88L236.447 292.973L238.116 296.337L237.354 299.284C237.354 299.284 236.472 303.396 234.958 305.004C234.184 305.826 233.496 306.312 233.496 306.312L232.8 306.817C232.8 306.817 230.652 308.542 229.925 309.441C229.013 310.569 228.728 310.765 228.582 311.988C228.49 312.769 229.511 313.421 229.917 314.094C230.34 314.797 231.755 315.111 231.755 315.111L234.951 314.817C234.951 314.817 236.44 314.488 237.407 314.501C238.298 314.513 238.813 315.086 239.665 314.827C240.428 314.594 241.118 314.449 241.878 314.207C242.348 314.057 243.757 313.855 244.032 313.579C245.411 312.197 247.36 312.238 247.36 312.238L247.935 312.231L250.936 311.695L251.232 309.722L250.203 306.991L250.864 303.892L250.402 299.801L250.661 296.383L250.362 293.711L250.288 291.02L250.151 286.598L249.088 283.961L249.775 277.425L248.834 274.755L249.043 271.132L249.209 267.165L248.459 262.597L248.459 259.692L248.703 257.868L252.078 256.507L254.835 255.821L257.573 255.03L262.9 253.115L263.218 253.228L268.949 250.604L271.117 248.398L272.709 249.024L274.818 251.031L278.394 256.177L283.092 260.606L286.4 264.472L291.138 269.993L292.504 272.507L295.803 276.57L299.628 279.369L303.303 284.861L305.13 286.21L306.787 288.447L308.112 288.788L308.952 287.807L309.887 287.719L310.867 287.003L313.511 285.343L316.129 283.437L316.898 282.975L320.218 282.054L320.895 281.444L323.519 277.882L323.015 276.633C323.015 276.633 323.205 275.341 322.862 274.64C322.429 273.755 320.825 273.15 320.825 273.15L319.726 273.152C319.726 273.152 319.676 275.938 318.628 275.685C318.214 275.585 317.644 276.085 317.248 276.241C316.806 276.416 315.081 275.843 315.081 275.843C315.081 275.843 313.418 272.923 312.149 273.406C311.612 273.61 310.916 274.208 310.916 274.208C310.916 274.208 307.423 272.344 306.879 270.187C306.749 269.67 306.826 269.354 306.711 268.834C306.396 267.409 305.865 266.684 304.988 265.516C303.997 264.196 304.267 263.407 303.246 262.11C302.097 260.651 301.041 257.896 301.041 257.896C301.041 257.896 299.952 257.351 299.546 256.733C298.784 255.576 298.989 254.841 298.399 253.749C297.576 252.226 295.224 252.258 294.315 250.785C293.528 249.51 292.528 247.389 292.528 247.389C292.528 247.389 291.252 246.838 290.146 245.842C289.714 245.452 287.751 243.939 287.751 243.939C287.751 243.939 286.423 243.28 286.426 242.523C286.428 242.039 286.973 241.412 286.973 241.412L290.866 239.802L297.213 236.914L302.463 235.11L308.134 231.083L307.21 230.942L302.26 228.119L300.454 225.866C300.454 225.866 299.28 225.572 298.564 225.28C297.728 224.938 296.521 224.193 296.521 224.193L296.901 223.583L296.181 222.144L295.124 221.366L292.77 219.908L290.833 218.683L288.267 215.304L284.804 212.688L281.426 210.439L278.561 207.582L276.159 205.34C276.159 205.34 273.77 204.451 273.655 203.942C273.311 202.412 270.822 203.881 270.822 203.881L266.736 200.713L265.428 202.444L262.785 195.887C262.785 195.887 262.555 197.71 261.361 197.332C259.241 196.659 260.167 194.386 258.56 192.374C258.028 191.708 257.102 189.752 257.102 189.752L255.029 187.198L252.493 184.389L248.565 182.67L248.56 180.209L248.556 180.218ZM189.625 138.979C191.242 139.52 190.82 143.191 192.271 145.543C193.373 147.329 195.655 149.716 195.655 149.716L197.712 150.997L200.087 151.653L202.056 153.154L204.244 153.924L210.322 154.13L214.196 154.663L221.136 152.531L224.534 150.728L225.404 149.583L226.992 148.806L229.855 146.272L232.123 142.821C232.123 142.821 234.038 138.422 234.625 135.433C235.333 131.83 234.957 126.862 234.957 126.862C234.957 126.862 234.664 123.668 233.775 121.941C233.255 120.93 233.609 120.149 232.523 118.835C231.932 118.121 231.555 116.661 230.718 115.551C229.806 114.343 229.112 112.466 228.17 111.282C227.277 110.161 225.299 108.997 225.299 108.997L217.132 104.923L208.288 102.968C208.288 102.968 205.03 102.767 203.191 103.562C201.987 104.083 201.225 104.376 200.031 104.92C198.784 105.487 198.25 105.724 197.015 106.317C195.215 107.181 193.235 109.759 193.235 109.759C193.235 109.759 191.126 110.47 190.348 112.748C189.958 113.889 190.101 114.039 188.494 117.107C187.748 118.53 188.203 122.738 187.893 124.571C187.419 127.368 186.258 133.275 186.258 133.275C186.258 133.275 186.303 134.304 186.594 134.985C187 135.934 187.074 136.453 187.825 137.161C188.552 137.846 188.952 138.754 189.625 138.979ZM179.99 161.416L181.671 162.022L184.994 161.966L188.888 162.29L195.116 163.386L197.58 162.951C197.58 162.951 198.651 163.207 199.007 163.026C199.723 162.659 197.375 162.196 197.447 161.287C197.475 160.93 197.776 160.432 197.776 160.432L197.313 159.102L196.012 155.598L194.266 152.242L194.624 151.697L194.334 150.979L193.79 150.147L193.049 149.443L192.436 148.599L188.007 141.774L187.172 140.738C187.172 140.738 186.644 140.249 186.138 140.124C185.106 139.867 184.656 138.478 184.656 138.478L181.115 135.348L177.644 141.944L178.891 143.046L183.316 144.07C183.316 144.07 184.696 142.882 185.181 143.72C185.51 144.288 185.459 144.41 185.459 144.41L183.535 147.994L182.71 152.52L182.137 156.691C182.137 156.691 181.025 157.589 180.589 158.366C180.001 159.416 180.681 160.397 180.005 161.394C179.999 161.403 179.99 161.416 179.99 161.416ZM235.235 113.738C235.392 113.809 235.179 114.178 235.179 114.178L235.458 119.786L235.749 123.473L237.004 131.144L236.615 132.031L236.93 132.891L239.722 138.442L241.43 144.43L241.974 145.462L244.337 144.196L248.848 139.994L252.834 135.378L255.903 132.043L255.648 130.215L252.929 128.647L249.254 129.046L246.133 126.918L242.96 125.356L237.769 124.263C237.769 124.263 237.637 123.206 237.741 122.541C237.925 121.355 238.531 120.841 239.111 119.79C239.739 118.653 240.016 117.952 240.849 116.955C241.283 116.436 241.713 116.296 242.057 115.714C243.471 113.322 235.225 113.734 235.225 113.734C235.225 113.734 235.231 113.736 235.235 113.738Z" fill="white"/>
<path d="M191.87 190.426L188.471 192.703L186.186 196.529L183.165 198.092L180.722 200.353L177.193 204.656L175.76 205.94L174.737 206.545L173.725 206.584L172.537 208.114C172.537 208.114 171.237 209 171.035 209.883C170.984 210.105 171 210.237 170.972 210.462C170.729 212.385 169.89 213.324 169.668 215.249C169.519 216.542 169.306 217.319 169.623 218.581C169.963 219.94 170.388 220.738 171.42 221.685C172.2 222.401 172.822 222.567 173.78 223.02C174.867 223.535 175.461 224.081 176.664 224.104C177.844 224.127 178.426 222.774 179.537 223.17C179.849 223.281 180.517 222.634 181.15 222.295C182.196 221.736 181.911 221.445 183.221 220.345C184.677 219.122 187.373 217.805 187.373 217.805L190.146 215.788L193.918 211.667L196.728 209.7L198.385 207.9L201.163 206.411L204.711 204.323L208.302 201.527L213.354 197.339L213.896 200.892C213.896 200.892 213.506 201.401 213.583 201.749C213.656 202.074 214.164 202.373 214.164 202.373L213.666 205.736L215.055 208.345L214.819 212.854L214.423 218.181L215.022 220.564L214.719 223.037L214.518 225.245L215.05 228.256L214.67 232.967L214.561 235.603L214.332 237.284L214.391 240.574L214.093 245.469L212.933 249.339L212.765 254.832C212.765 254.832 211.327 255.183 210.429 255.111C208.77 254.977 210.419 262.646 210.419 262.646L209.758 265.368L209.379 268.466L209.158 271.404C209.158 271.404 208.502 272.493 208.954 272.826C209.423 273.173 210.249 272.079 210.249 272.079L215.556 271.071L221.97 268.549L228.604 266.116C228.604 266.116 231.36 265.053 231.948 265.694C232.413 266.2 232.526 266.851 232.364 267.719C232.024 269.536 233.152 270.594 233.391 272.335C233.596 273.827 234.325 275.569 234.325 275.569C233.631 278.512 232.816 279.788 232.549 283.106C232.281 286.423 232.457 284.873 233.075 285.702C233.461 286.222 232.87 287.491 233.461 288.355C233.779 288.818 234.531 289.316 234.531 289.316L235.672 292.323L236.66 295.808L236.585 297.732C236.585 297.732 237.324 301.969 235.921 303.412C235.438 303.909 234.067 303.578 234.122 303.805C234.195 304.108 234.294 304.218 233.989 304.592C233.728 304.913 233.703 305.065 233.312 305.199C231.911 305.676 231.034 308.227 231.034 308.227C231.034 308.227 230.612 308.748 230.131 308.956C229.651 309.164 228.164 311.291 228.691 312.807C228.807 313.138 228.915 313.308 229.101 313.605C229.831 314.769 230.635 315.168 231.86 315.79C233.199 316.47 234.082 316.757 235.583 316.745C236.356 316.739 237.542 316.469 237.542 316.469L241.368 315.568C241.368 315.568 243.511 315.31 244.816 314.884C245.725 314.588 246.148 314.18 247.073 313.934C247.717 313.763 248.136 313.896 248.758 313.656C249.319 313.439 250.069 312.847 250.069 312.847C250.069 312.847 251.082 312.964 251.483 312.156C251.714 311.691 252.035 311.882 252.261 311.578C252.842 310.796 251.781 309.131 251.781 309.131L252.348 306.439L251.587 304.034L251.884 298.401L251.602 294.478L250.753 288.49L250.706 282.025L250.307 274.386L250.952 272.464L250.666 269.844L250.095 265.243L249.442 261.037C249.442 261.037 250.061 260.615 250.178 260.194C250.352 259.569 249.495 258.68 249.495 258.68L250.187 258.505L254.556 257.956L259.388 256.008L266.898 252.226C266.898 252.226 267.438 252.496 267.811 252.58C269.7 253.003 271.804 249.646 271.804 249.646L273.534 251.388L277.218 256.764L279.642 259.333L281.454 260.801L283.449 262.765L285.303 264.995L287.412 268.237L290.158 270.709L290.451 271.297L290.975 271.88L291.654 273.564L294.298 275.941L296.377 278.272C296.377 278.272 297.694 279.058 299.43 279.814C300.257 280.175 300.355 282.007 301.372 282.642C302.011 283.041 303.175 285.125 303.175 285.125L305.185 287.123C305.185 287.123 305.635 289.021 306.365 289.055C306.387 289.056 306.504 289.4 306.504 289.4C306.504 289.4 306.586 289.765 307.09 289.2C307.417 288.834 308.332 288.619 308.332 288.619L309.019 287.596L311.925 286.504L315.303 283.835L320.012 281.703L322.106 279.631L323.16 279.359L324.183 278.553L324.86 277.606L323.913 273.703C323.913 273.703 323.839 273.078 323.657 272.731C323.235 271.925 322.532 271.798 321.664 271.528C319.834 270.959 316.883 272.629 316.883 272.629L313.219 272.854L308.874 270.835L307.49 268.119L307.026 266.829L305.469 263.702L304.619 263.723L303.653 261.328L303.045 260.257L300.908 258.142L299.137 255.582C299.137 255.582 298.583 252.912 297.302 252.004C296.782 251.636 295.817 251.327 295.817 251.327C295.817 251.327 294.117 249.801 293.631 248.85C292.873 247.367 292.62 247.032 292.244 245.409C292.161 245.053 292.213 244.834 292.118 244.481C291.771 243.186 289.787 241.962 289.787 241.962L290.324 240.029L295.32 237.775L298.065 236.622L301.125 235.811C301.125 235.811 308.169 236.283 309.556 233.118C309.769 232.631 309.955 231.817 309.955 231.817C309.955 231.817 310.124 231.458 310.12 231.213C310.113 230.68 309.279 230.14 309.279 230.14L305.893 228.231L299.952 224.463L296.528 222.578L294.99 220.654L292.906 220.042L289.32 216.521L287.559 214.663L283.276 211.543L280.772 210.048L277.681 206.6L275.368 204.684L270.532 201.747L268.894 200.112L267.797 198.027L264.668 195.999L262.024 193.799L259.651 190.759L256.58 188.715L253.81 186.004L250.491 181.934L252.641 181.275L254.659 181.144L258.306 181.214L261.727 180.285L268.178 179.866L271.394 179.701L277.18 177.971L281.481 177.512L284.324 178.316L289.493 176.625L293.566 176.917L294.674 176.101L297.278 175.894C297.278 175.894 297.751 175.264 298.059 174.865C299.157 173.445 300.26 172.964 300.989 171.324C301.996 169.061 302.618 167.035 301.226 164.986C300.314 163.643 298.83 163.926 297.739 162.725C296.978 161.888 297.225 160.754 296.204 160.27C295.451 159.914 294.823 160.559 294.072 160.199C293.534 159.941 293.48 159.429 292.943 159.169C291.794 158.615 289.747 159.84 289.747 159.84L285.964 159.712L283.258 160.145L281.107 160.563L277.52 161.159C277.52 161.159 276.892 160.419 276.389 160.066C275.884 159.711 272.47 160.298 272.47 160.298L268.656 160.768L264.751 160.737L260.803 159.601L256.892 159.116L255.135 160.033L250.107 158.946L244.762 158.108L238.258 156.846L231.97 155.281L231.357 155.592C231.357 155.592 229.671 155.818 228.709 155.432C226.516 154.552 226.433 149.826 226.433 149.826L230.328 146.907L232.969 143.387L235.641 139.686L236.522 135.262L236.622 136.466L240.904 144.36L241.141 146.103L241.885 147.809L243.215 146.968L245.917 142.404L249.557 139.411L251.453 136.649L254.571 134.172L256.196 131.575L255.917 130.107L253.674 128.484L247.103 126.118L240.85 123.029L238.517 122.517L240.235 119.891L243.647 116.63C243.647 116.63 243.707 115.195 243.117 114.66C242.579 114.172 242.004 114.437 241.3 114.253C238.888 113.623 237.847 111.691 235.362 111.905C234.92 111.943 234.661 111.946 234.242 112.092C231.955 112.889 233.89 118.284 233.89 118.284L233.088 116.794C233.088 116.794 230.726 112.834 228.772 110.646C227.364 109.07 226.6 108.098 224.841 106.927C223.083 105.755 221.863 105.504 219.896 104.732C216.265 103.306 214.236 101.799 210.335 101.837C207.264 101.867 205.596 102.713 202.711 103.764C199.27 105.017 194.354 108.016 194.354 108.016C194.354 108.016 191.059 110.166 189.428 112.04C187.786 113.928 187.143 115.241 186.109 117.519C184.972 120.02 184.297 121.509 184.054 124.245C183.868 126.342 184.432 129.622 184.432 129.622L184.414 135.03L185.561 138.074L185.566 137.133L181.516 134.352L180.117 134.563L177.861 139.357L176.861 141.654L177.58 142.84L180.324 143.796L184.945 144.429L184.846 145.239L182.905 149.32L182.832 151.251L180.118 156.598C180.118 156.598 176.946 159.424 177.678 161.393C177.826 161.794 177.935 162.022 178.208 162.351C178.739 162.99 180.068 163.383 180.068 163.383L184.428 162.732L188.827 163.174L193.639 163.585L198.647 163.845C198.647 163.845 199.244 164.001 199.608 163.581C199.958 163.177 199.724 162.736 199.724 162.736L198.53 157.584L195.762 153.067L195.738 151.993L197.02 152.187C197.02 152.187 200.127 153.675 202.184 154.466C204.084 155.197 205.323 154.49 207.325 154.857C209.317 155.223 212.308 156.331 212.308 156.331L214.825 160.364C214.825 160.364 214.19 160.834 213.858 161.211C213.365 161.77 212.894 162.859 212.894 162.859L211.083 167.064L209.595 169.245L206.058 172.733L203.885 176.361L201.24 179.891L197.147 184.727L194.475 186.976L191.87 190.426ZM191.87 190.426L193.804 187.864L197.9 183.838L200.783 180.431L204.927 175.781L208.357 172.464L209.885 168.991C209.885 168.991 213.897 167.365 215.5 165.283C216.462 164.035 218.353 163.733 217.915 162.219C217.58 161.059 215.836 160.868 215.019 159.571C214.142 158.178 213.88 155.512 213.88 155.512L220.341 154.143L226.059 150.988L225.983 151.596C225.983 151.596 226.497 154.153 227.673 155.211C228.214 155.698 228.777 155.663 229.438 155.968C230.857 156.623 231.701 155.76 233.101 156.097C234.878 156.524 236.162 156.366 237.878 156.999C239.556 157.619 240.313 156.832 242.018 157.316C243.534 157.746 243.754 157.881 245.324 158.196C247.01 158.535 250.218 159.72 250.218 159.72C250.218 159.72 259.364 164.514 260.055 164.236C260.826 163.925 261.419 161.13 261.419 161.13L263.449 160.713C263.449 160.713 264.454 160.993 265.108 160.846C265.464 160.766 265.64 161.11 265.64 161.11L266.704 160.753L270.006 160.602L272.901 160.272L276.163 160.402L279.542 160.823L284.41 159.961L287.855 159.776C287.855 159.776 289.871 160.445 291.211 160.606C292.282 160.734 292.497 161.158 293.235 161.944C293.518 162.247 294.159 162.622 294.827 162.908C295.692 163.278 296.178 162.638 297.177 163.441C298.518 164.519 299.745 164.936 300.277 166.572C300.858 168.358 299.829 169.477 299.329 171.288C298.993 172.504 299.195 173.448 298.32 174.358C297.475 175.239 295.41 175.5 295.41 175.5L294.064 174.967L292.238 176.389L290.21 176.336L284.639 177.447L280.123 177.41L277.937 177.741L275.727 178.231L274.692 178.648L272.906 178.853C272.906 178.853 272.123 179.231 271.653 179.071C271.179 178.91 270.88 179.325 270.403 179.174C270.103 179.079 269.617 178.663 269.165 178.871C268.869 179.006 268.613 179.494 268.613 179.494L266.012 180.007L262.535 180.34L255.064 180.219L248.556 180.218L248.56 180.209L248.565 182.67L252.493 184.389L255.029 187.198L257.102 189.752C257.102 189.752 258.028 191.708 258.56 192.374C260.167 194.386 259.241 196.659 261.361 197.332C262.555 197.71 262.785 195.887 262.785 195.887L265.428 202.444L266.736 200.713L270.822 203.881C270.822 203.881 273.311 202.412 273.655 203.942C273.77 204.451 276.159 205.34 276.159 205.34L278.561 207.582L281.426 210.439L284.804 212.688L288.267 215.304L290.833 218.683L292.77 219.908L295.124 221.366L296.181 222.144L296.901 223.583L296.521 224.193C296.521 224.193 297.728 224.938 298.564 225.28C299.28 225.572 300.454 225.866 300.454 225.866L302.26 228.119L307.21 230.942L308.134 231.083L302.463 235.11L297.213 236.914L290.866 239.802L286.973 241.412C286.973 241.412 286.428 242.039 286.426 242.523C286.423 243.28 287.751 243.939 287.751 243.939C287.751 243.939 289.714 245.452 290.146 245.842C291.252 246.838 292.528 247.389 292.528 247.389C292.528 247.389 293.528 249.51 294.315 250.785C295.224 252.258 297.576 252.226 298.399 253.749C298.989 254.841 298.784 255.576 299.546 256.733C299.952 257.351 301.041 257.896 301.041 257.896C301.041 257.896 302.097 260.651 303.246 262.11C304.267 263.407 303.997 264.196 304.988 265.516C305.865 266.684 306.396 267.409 306.711 268.834C306.826 269.354 306.749 269.67 306.879 270.187C307.423 272.344 310.916 274.208 310.916 274.208C310.916 274.208 311.612 273.61 312.149 273.406C313.418 272.923 315.081 275.843 315.081 275.843C315.081 275.843 316.806 276.416 317.248 276.241C317.644 276.085 318.214 275.585 318.628 275.685C319.676 275.938 319.726 273.152 319.726 273.152L320.825 273.15C320.825 273.15 322.429 273.755 322.862 274.64C323.205 275.341 323.015 276.633 323.015 276.633L323.519 277.882L320.895 281.444L320.218 282.054L316.898 282.975L316.129 283.437L313.511 285.343L310.867 287.003L309.887 287.719L308.952 287.807L308.112 288.788L306.787 288.447L305.13 286.21L303.303 284.861L299.628 279.369L295.803 276.57L292.504 272.507L291.138 269.993L286.4 264.472L283.092 260.606L278.394 256.177L274.818 251.031L272.709 249.024L271.117 248.398L268.949 250.604L263.218 253.228L262.9 253.115L257.573 255.03L254.835 255.821L252.078 256.507L248.703 257.868L248.459 259.692L248.459 262.597L249.209 267.165L249.043 271.132L248.834 274.755L249.775 277.425L249.088 283.961L250.151 286.598L250.288 291.02L250.362 293.711L250.661 296.383L250.402 299.801L250.864 303.892L250.203 306.991L251.232 309.722L250.936 311.695L247.935 312.231L247.36 312.238C247.36 312.238 245.411 312.197 244.032 313.579C243.757 313.855 242.348 314.057 241.878 314.207C241.118 314.449 240.428 314.594 239.665 314.827C238.813 315.086 238.298 314.513 237.407 314.501C236.44 314.488 234.951 314.817 234.951 314.817L231.755 315.111C231.755 315.111 230.34 314.797 229.917 314.094C229.511 313.421 228.49 312.769 228.582 311.988C228.728 310.765 229.013 310.569 229.925 309.441C230.652 308.542 232.8 306.817 232.8 306.817L233.496 306.312C233.496 306.312 234.184 305.826 234.958 305.004C236.472 303.396 237.354 299.284 237.354 299.284L238.116 296.337L236.447 292.973L237.12 290.88L237.023 290.181L236.013 288.871L235.832 288.262L235.385 284.566L235.473 281.241L234.036 274.534L233.004 271.018L232.333 268.119L232.592 264.741C232.592 264.741 232.647 264.325 232.007 264.639C231.49 264.893 231.396 264.744 231.011 264.84C229.384 265.246 228.92 265.853 227.122 266.659C226.591 266.898 226.475 266.792 225.724 267.172C225.102 267.487 224.679 267.274 223.976 267.814C223.385 268.267 222.779 268.407 221.671 268.667C219.003 269.294 213.677 270.649 213.677 270.649L210.373 270.874L210.993 269.565L210.527 268.348L212.33 261.338L212.819 256.936L214.361 250.649L215.643 246.048L216.146 239.891L216.614 235.201L216.048 229.836L216.542 227.061C216.542 227.061 216.739 225.162 218.151 223.511C218.81 222.741 217.917 221.074 218.419 220.193C219.141 218.924 217.19 217.619 217.372 216.603C217.58 215.45 217.138 214.326 217.779 213.63C219.696 211.552 215.365 209.13 214.57 207.141C214.12 206.017 214.827 205.266 214.367 204.173C214.028 203.366 214.265 201.807 214.265 201.807L214.196 199.427C214.196 199.427 214.378 197.185 213.655 196.435C213.277 196.043 213.677 195.257 213.151 194.926C212.625 194.594 211.352 196.534 211.352 196.534C211.352 196.534 210.218 197.366 209.517 197.932C207.043 199.928 206.885 203.983 203.724 203.649C202.987 203.571 202.565 202.777 201.903 203.112C201.236 203.449 198.017 205.673 197.857 206.014C197.368 207.057 196.848 208.785 196.848 208.785L194.521 210.678L192.032 213.727L189.953 215.866C189.953 215.866 188.315 216.397 186.536 218.236C185.707 219.093 183.865 218.056 182.966 218.839C182.076 219.614 181.007 219.823 179.999 220.436C178.96 221.069 178.592 221.973 177.377 221.894C176.384 221.83 176.332 222.104 175.458 221.629C174.221 220.958 173.18 221.048 172.247 219.995C171.511 219.165 171.198 218.517 171.056 217.418C170.897 216.193 171.492 215.54 171.719 214.326C171.949 213.093 172.116 212.404 172.221 211.154C172.279 210.47 172.026 210.027 172.3 209.397C172.709 208.456 173.665 208.553 174.472 207.92C175.898 206.802 177.758 204.645 177.758 204.645L180.083 202.231L183.678 200.3L186.728 197.795L188.985 194.654L191.87 190.426ZM189.625 138.979C191.242 139.52 190.82 143.191 192.271 145.543C193.373 147.329 195.655 149.716 195.655 149.716L197.712 150.997L200.087 151.653L202.056 153.154L204.244 153.924L210.322 154.13L214.196 154.663L221.136 152.531L224.534 150.728L225.404 149.583L226.992 148.806L229.855 146.272L232.123 142.821C232.123 142.821 234.038 138.422 234.625 135.433C235.333 131.83 234.957 126.862 234.957 126.862C234.957 126.862 234.664 123.668 233.775 121.941C233.255 120.93 233.609 120.149 232.523 118.835C231.932 118.121 231.555 116.661 230.718 115.551C229.806 114.343 229.112 112.466 228.17 111.282C227.277 110.161 225.299 108.997 225.299 108.997L217.132 104.923L208.288 102.968C208.288 102.968 205.03 102.767 203.191 103.562C201.987 104.083 201.225 104.376 200.031 104.92C198.784 105.487 198.25 105.724 197.015 106.317C195.215 107.181 193.235 109.759 193.235 109.759C193.235 109.759 191.126 110.47 190.348 112.748C189.958 113.889 190.101 114.039 188.494 117.107C187.748 118.53 188.203 122.738 187.893 124.571C187.419 127.368 186.258 133.275 186.258 133.275C186.258 133.275 186.303 134.304 186.594 134.985C187 135.934 187.074 136.453 187.825 137.161C188.552 137.846 188.952 138.754 189.625 138.979ZM179.99 161.416L181.671 162.022L184.994 161.966L188.888 162.29L195.116 163.386L197.58 162.951C197.58 162.951 198.651 163.207 199.007 163.026C199.723 162.659 197.375 162.196 197.447 161.287C197.475 160.93 197.776 160.432 197.776 160.432L197.313 159.102L196.012 155.598L194.266 152.242L194.624 151.697L194.334 150.979L193.79 150.147L193.049 149.443L192.436 148.599L188.007 141.774L187.172 140.738C187.172 140.738 186.644 140.249 186.138 140.124C185.106 139.867 184.656 138.478 184.656 138.478L181.115 135.348L177.644 141.944L178.891 143.046L183.316 144.07C183.316 144.07 184.696 142.882 185.181 143.72C185.51 144.288 185.459 144.41 185.459 144.41L183.535 147.994L182.71 152.52L182.137 156.691C182.137 156.691 181.025 157.589 180.589 158.366C180.001 159.416 180.681 160.397 180.005 161.394C179.999 161.403 179.99 161.416 179.99 161.416ZM235.235 113.738C235.392 113.809 235.179 114.178 235.179 114.178L235.458 119.786L235.749 123.473L237.004 131.144L236.615 132.031L236.93 132.891L239.722 138.442L241.43 144.43L241.974 145.462L244.337 144.196L248.848 139.994L252.834 135.378L255.903 132.043L255.648 130.215L252.929 128.647L249.254 129.046L246.133 126.918L242.96 125.356L237.769 124.263C237.769 124.263 237.637 123.206 237.741 122.541C237.925 121.355 238.531 120.841 239.111 119.79C239.739 118.653 240.016 117.952 240.849 116.955C241.283 116.436 241.713 116.296 242.057 115.714C243.471 113.322 235.225 113.734 235.225 113.734C235.225 113.734 235.231 113.736 235.235 113.738Z" stroke="white" stroke-width="3"/>
<path d="M56.7758 332.709L53.0051 332.959L49.1743 333.143C49.1743 333.143 45.1251 332.432 44.8071 332.115C44.0989 331.408 46.1529 327.543 46.1529 327.543L46.9612 323.31L47.2736 320.567L47.4428 316.245L48.8827 312.11L49.052 307.787L49.3971 303.492L50.4616 299.304L51.3744 295.095L51.9111 290.826L51.9292 286.491L52.3783 282.212L53.4186 278.018L54.1234 273.776L54.4848 269.488L55.6932 265.321L55.7753 260.997L56.52 256.761L56.9371 252.476L57.8977 248.272L58.6666 244.042L59.5316 239.828L60.0689 235.567L60.6619 231.31C60.6619 231.31 59.9629 228.62 60.1443 226.893C60.328 225.144 63.0643 223.999 61.5989 222.631C60.1301 221.258 58.8972 221.145 57.1865 221.756C55.5742 222.331 55.2579 221.778 53.3072 222.821C51.6761 223.693 50.8361 223.174 48.6687 224.335C47.044 225.205 44.0559 228.441 44.0559 228.441L39.9142 230.83L35.3917 232.193L30.6902 233.039C30.6902 233.039 28.6476 234.25 27.2791 234.91C25.9223 235.564 25.1965 236.091 23.7227 236.402C22.2039 236.723 21.2781 236.192 19.7481 236.454C18.275 236.706 17.5895 237.41 16.116 237.66C14.6405 237.91 13.7563 237.986 12.2842 237.717C10.7255 237.431 9.59865 237.348 8.52949 236.179C7.464 235.013 7.70339 233.851 7.33132 232.317C6.98156 230.874 6.47822 230.05 6.65581 228.576C6.83174 227.116 7.47852 226.426 8.17617 225.131C8.86636 223.85 9.29363 223.142 10.1932 221.999C11.1495 220.783 11.5943 219.907 12.9418 219.147C14.3069 218.378 15.4358 218.934 16.8586 218.277C18.3731 217.579 20.2326 215.659 20.2326 215.659L24.2066 214.255L28.0885 212.668L31.8588 210.843L35.4832 208.744L39.0441 206.531L42.8418 204.76L46.6216 202.959L50.0203 200.465L53.3928 196.929L56.8457 193.41L60.2684 189.689L64.5858 186.987C64.5858 186.987 67.5219 185.945 69.4821 185.653C70.7711 185.46 71.7943 186.307 72.811 185.418C73.8471 184.511 74.3616 182.757 74.2818 181.383C74.1693 179.447 70.7084 177.934 70.7084 177.934C70.7084 177.934 68.7317 176.651 67.3314 175.697C65.9074 174.727 63.7669 173.157 63.7669 173.157C63.7669 173.157 61.2379 172.148 60.0217 170.97C58.8172 169.802 57.7324 167.335 57.7324 167.335C57.7324 167.335 55.8339 165.369 55.2665 163.776C54.6937 162.168 54.9349 159.418 54.9349 159.418L54.213 155.246L54.198 150.778C54.198 150.778 51.7924 150.542 50.3218 150.095C48.8621 149.651 46.9734 150.029 46.7464 148.52C46.5195 147.012 48.486 146.889 49.6977 145.963C50.8318 145.096 52.7245 143.914 52.7245 143.914L56.1436 141.26L59.5536 138.592L63.263 136.352L67.1732 133.822L71.2305 131.471L75.9451 131.035L80.4163 129.952L85.0723 129.694L89.5912 130.854L93.7756 132.093L97.9294 133.682L101.416 136.457L104.394 139.766L106.252 143.795L107.812 147.853L108.07 152.177L108.11 156.437L107.259 160.617L106.677 165.032L104.629 168.965L101.405 172.024L97.6435 174.196L94.8662 177.762L94.6052 182.352L98.9833 183.869L103.556 184.669L107.481 187.057L111.682 188.864L115.787 190.876L119.32 193.877L123.312 196.086L127.663 197.558L131.873 199.484L135.976 201.701L140.456 202.982L144.835 204.516L149.326 205.733L153.561 207.688C153.561 207.688 156.532 208.134 158.349 208.733C160.197 209.343 161.155 209.906 162.891 210.785C164.495 211.598 165.658 211.741 166.91 213.032C168.224 214.388 168.713 215.502 169.074 217.356C169.428 219.181 169.348 220.355 168.713 222.103C168.189 223.547 167.654 224.309 166.582 225.409C165.489 226.53 163.26 227.653 163.26 227.653L159.151 228.259L154.869 227.32C154.869 227.32 152.166 227.294 150.491 226.918C148.801 226.538 148.021 225.746 146.326 225.393C144.637 225.041 143.631 225.317 141.917 225.127C140.216 224.938 139.252 224.834 137.589 224.428C135.913 224.019 135.078 223.42 133.394 223.04C131.721 222.663 130.705 222.891 129.037 222.493C127.354 222.093 126.555 221.38 124.867 221.001C123.192 220.625 122.208 220.646 120.494 220.566C118.346 220.466 116.443 219.087 114.989 220.67C113.534 222.254 114.939 224.055 115.353 226.165C115.678 227.82 116.219 228.657 116.602 230.3C116.989 231.955 116.804 232.972 117.317 234.592C117.832 236.223 118.69 236.911 119.217 238.539C119.739 240.154 119.511 241.188 119.986 242.818C120.459 244.447 121.162 245.208 121.63 246.839C122.099 248.473 121.925 249.487 122.368 251.129C122.809 252.763 123.443 253.555 123.881 255.19C124.321 256.831 124.226 257.824 124.603 259.481C124.978 261.127 125.158 262.073 125.798 263.636C126.454 265.235 127.453 265.855 127.923 267.519C128.395 269.189 127.733 270.27 128.142 271.956C128.543 273.612 129.323 274.344 129.934 275.935C130.538 277.51 130.789 278.427 131.252 280.049C131.717 281.674 131.777 282.641 132.308 284.245C132.842 285.858 133.464 286.644 133.976 288.264C134.485 289.877 134.421 290.875 134.915 292.492C135.411 294.114 136.091 294.888 136.506 296.532C136.929 298.21 136.707 299.231 137.022 300.933C137.333 302.613 138.097 305.175 138.097 305.175C138.097 305.175 139.308 307.589 139.877 309.217C140.442 310.831 140.665 311.772 140.999 313.448C141.335 315.141 141.161 316.156 141.585 317.828C142.007 319.494 142.662 320.293 143.149 321.941C143.61 323.503 144.331 324.26 143.407 325.601C142.641 326.712 140.752 327.093 140.752 327.093L137.158 327.711L133.509 327.779L133.367 328.24L136.547 329.359L141.307 329.909L145.182 332.918L148.077 337.063L145.384 340.259L141.08 340.911L136.772 341.508L132.474 342.238L128.083 341.655L123.746 341.732L119.463 343.015L115.564 339.652L114.133 335.404L112.679 331.172C112.679 331.172 111.251 328.815 110.602 327.182C109.953 325.553 109.371 322.864 109.371 322.864C109.371 322.864 108.637 320.223 107.895 318.642C107.141 317.035 106.149 316.42 105.548 314.751C104.939 313.061 105.514 311.882 104.878 310.203C104.248 308.536 102.393 306.376 102.393 306.376L100.96 302.539L99.4266 298.748L97.4098 295.165L95.6921 291.451L95.1097 287.237L93.0772 283.655L91.2809 279.836L90.6213 284.493L89.429 288.888L88.1643 293.264L86.9152 297.639L84.8924 301.807L83.4562 306.108L82.3747 310.503L81.4381 314.935L80.2436 319.298L79.5566 323.792L79.0702 328.326L76.9299 332.4L76.5571 336.864L75.7274 341.241C75.7274 341.241 75.7166 343.607 74.5718 344.699C73.4353 345.783 71.0624 345.738 71.0624 345.738L66.3145 345.702C66.3145 345.702 63.4336 344.773 61.5369 344.956C59.6621 345.137 57.9326 344.981 56.0312 345.345C54.2117 345.693 52.8763 345.442 51.3283 345.946C49.5475 346.525 48.8756 346.868 47.1851 346.634C45.4645 346.395 44.3727 344.887 44.3727 344.887L44.9576 340.069L48.3779 336.537L52.8306 334.743L56.6602 333.199L56.7949 332.755L56.7758 332.709ZM110.538 216.666C112.172 216.224 114.849 217.121 114.849 217.121L118.964 217.827L123.149 218.18L127.064 219.857L131.114 220.876L135.289 221.308L139.469 221.701L143.389 223.346L147.569 223.731L151.712 224.285L155.717 225.552C155.717 225.552 158.122 226.621 159.757 226.651C161.503 226.683 162.673 226.577 164.093 225.561C166.05 224.162 166.649 222.347 166.615 219.942C166.588 218.06 166.017 216.972 164.958 215.416C163.925 213.898 163.083 213.134 161.462 212.27C160.063 211.525 157.562 211.146 157.562 211.146L153.582 210.328L149.876 208.588L145.113 207.667L140.557 206.099C140.557 206.099 138.316 204.197 136.569 203.494C134.821 202.791 132.42 200.442 130.754 199.563C129.348 198.82 128.432 198.401 127.057 197.601C125.68 196.8 125.285 196.746 124.203 196.388C122.895 195.954 122.369 196.272 120.977 195.5C119.582 194.726 118.943 195.056 117.463 194.459C115.927 193.839 114.872 194.079 113.349 193.429C111.884 192.803 109.883 191.277 109.883 191.277L105.877 189.085L101.64 187.336L97.6018 185.137C97.6018 185.137 94.322 184.514 92.9633 183.069C91.3909 181.396 90.6982 179.659 91.2764 177.438C91.668 175.933 92.522 175.332 93.5695 174.184C94.6614 172.986 95.5101 172.78 96.7418 171.508C97.9991 170.209 98.5542 169.299 99.6456 167.83C100.687 166.429 101.02 165.446 102.211 164.169C103.475 162.813 105.924 161.21 105.924 161.21L106.58 156.608L106.366 152.012L104.737 147.754L103.688 143.209L100.589 139.758L97.3848 136.386L93.5084 134.469L89.3119 133.618L85.3759 131.753L81.0917 132.459L76.8377 132.475L72.6169 133.295L68.6085 134.883L64.9587 137.182L61.6734 139.937L58.3442 142.631C58.3442 142.631 56.6676 143.774 56.1903 145.504C55.5763 147.729 56.9781 149.189 57.3705 151.463C57.5962 152.772 57.5471 154.86 57.5471 154.86C57.5471 154.86 57.8827 157.377 57.8632 158.998C57.8408 160.853 56.1443 162.761 56.5952 164.56C56.9871 166.124 58.7728 168.068 58.7728 168.068L61.3446 171.335L65.2636 174.079L68.8925 176.298C68.8925 176.298 72.3748 176.878 73.4661 177.897C74.5574 178.917 75.5169 178.939 75.9938 180.091C76.4707 181.244 75.9103 183.387 75.9103 183.387C75.9103 183.387 74.8849 185.371 73.2739 186.373C71.7093 187.347 68.7535 187.99 68.7535 187.99L64.709 190.411L60.3371 192.452L57.2511 196.126L53.8804 199.465C53.8804 199.465 51.8787 200.069 50.4603 201.32C49.0512 202.562 48.045 202.985 46.4393 203.961C44.8384 204.933 43.9243 205.455 42.2549 206.305C40.5882 207.153 39.4507 207.254 37.9039 208.304C36.4794 209.272 36.399 210.709 34.7621 212.196C33.4132 213.422 30.8671 215.39 30.8671 215.39L26.5191 217.097L22.3013 219.079C22.3013 219.079 19.3305 220.11 17.3896 220.644C15.5959 221.138 14.3089 220.719 12.7531 221.739C11.4888 222.568 10.9663 223.356 10.2321 224.677C9.53756 225.928 8.62956 226.238 8.3535 227.641C8.08129 229.025 7.21691 230.242 7.65834 231.582C8.10134 232.926 8.27693 234.711 9.51025 235.405C10.694 236.072 11.4114 236.717 12.7693 236.757C14.0952 236.796 16.1671 236.311 17.4634 236.03C19.1485 235.665 20.4546 233.906 22.1569 233.27C23.7857 232.662 26.5015 232.299 26.5015 232.299C26.5015 232.299 29.4708 230.274 31.6611 229.886C32.943 229.659 34.9939 229.809 34.9939 229.809L39.1316 228.259L43.318 226.84L47.1495 224.426L51.2675 222.823L55.5527 221.682L59.8387 220.888C59.8387 220.888 63.1239 220.041 63.4552 220.918C63.8248 221.896 63.2139 223.995 63.2139 223.995L62.3837 228.254L62.6562 232.672C62.6562 232.672 61.1901 235.599 61.0849 237.299C60.9804 238.987 62.2447 239.488 62.1184 241.18C61.9923 242.869 61.4656 243.952 60.8924 245.545C60.3449 247.068 58.5806 248.983 58.5806 248.983L57.9499 253.267L56.4563 258.545L55.8099 262.83L55.5345 267.777L55.2956 272.12L56.231 275.51L55.9438 279.84L54.9057 284.066L54.5622 288.385L53.0362 292.534L53.3082 296.944L52.8051 301.243L51.4629 305.418L50.6243 309.669L50.2573 313.99L49.9863 318.327L49.2354 322.588L49.0285 326.937L47.7665 331.352L52.0917 330.778L56.212 330.55L60.2942 331.013L61.0849 332.578L57.6578 334.11L54.8483 336.436L51.6798 337.822L48.8969 339.964L46.9722 343.62L50.4988 345.735L54.4561 344.768L58.4857 344.934L62.4479 344.148L66.4893 344.258C66.4893 344.258 69.0042 344.133 70.4459 343.504C71.9646 342.841 72.8996 342.317 73.8323 340.947C74.8325 339.478 74.9442 336.535 74.9442 336.535L75.0906 331.89L77.1517 327.703L77.6123 323.138L78.6583 320.257L79.8669 315.869L80.4798 311.333C80.4798 311.333 81.7783 308.864 81.8056 307.15C81.8384 305.098 79.9301 304.234 80.0789 302.187C80.2045 300.458 81.8639 298.122 81.8639 298.122L83.0858 293.923L83.5985 289.537L84.7715 285.318L88.7899 280.288L89.5201 275.958L90.8934 274.35L93.7927 277.214L95.5759 281.296L96.8439 285.588L98.3195 289.794L99.5494 294.105L101.564 298.099L103.409 302.16C103.409 302.16 105.018 304.433 105.577 306.096C106.148 307.794 106.222 310.638 106.222 310.638L107.451 315.494L109.35 319.536C109.35 319.536 110.807 321.874 111.364 323.53C111.931 325.213 112.178 328.004 112.178 328.004C112.178 328.004 112.661 330.778 113.639 332.219C114.613 333.657 117 335.13 117 335.13L119.485 339.288L124.282 340.476L128.617 340.257L132.912 339.479L137.271 339.606L141.145 339.475L144.583 338.662L143.633 334.395L139.566 332.136L135.257 331.135L131.049 329.574C131.049 329.574 127.845 326.304 128.224 325.518C128.599 324.742 132.764 324.842 132.764 324.842L136.936 325.694L140.644 323.992L140.444 320.044C140.444 320.044 138.605 316.844 139.431 316.786C140.571 316.706 139.612 314.404 139.153 312.851C138.695 311.299 138.399 311.328 137.955 309.772C137.512 308.216 137.109 307.379 136.819 305.787C136.524 304.162 136.724 303.205 136.482 301.572C136.244 299.968 136.013 299.082 135.602 297.513C135.192 295.947 134.882 295.09 134.381 293.55C133.88 292.01 132.856 293.129 132.383 291.58C131.911 290.031 132.468 287.161 131.962 285.622C131.426 283.989 128.966 283.962 128.301 282.377C127.632 280.785 125.722 278.608 125.345 276.923C124.957 275.192 124.278 274.545 123.915 272.809C123.564 271.125 124.133 269.941 123.597 268.307C123.065 266.681 122.538 264.056 122.538 264.056L120.602 260.056L120.131 255.629C120.131 255.629 118.503 252.053 119.007 249.784C119.314 248.401 120.289 247.105 119.758 245.413C119.233 243.743 118.943 243.266 118.693 241.534C118.448 239.838 117.593 239.441 117.031 237.823C116.46 236.183 117.245 235.348 116.661 233.713C116.086 232.101 116.189 231.072 115.641 229.451C115.083 227.802 114.348 227.04 113.826 225.379C113.31 223.733 113.327 222.733 112.99 221.041C112.642 219.291 109.521 218.059 110.499 216.677C110.508 216.664 110.538 216.666 110.538 216.666Z" fill="white" stroke="white" stroke-width="2"/>
<path d="M460.976 192.142L464.155 190.098L467.342 187.965C467.342 187.965 470.172 184.983 470.238 184.538C470.386 183.549 466.435 181.667 466.435 181.667L463.266 178.747L461.382 176.729L458.672 173.357L455.053 170.892L452.344 167.52L449.509 164.275L446.16 161.544L442.921 158.706L439.948 155.595L437.352 152.123L434.444 148.952L431.111 146.202L428.019 143.214L425.175 139.984L421.724 137.356L419.083 133.93L415.963 130.97L413.077 127.776L409.802 124.97L406.665 122.029L403.462 119.159L400.493 116.055L397.481 112.988C397.481 112.988 396.442 110.411 395.268 109.131C394.079 107.835 391.199 108.545 391.561 106.573C391.924 104.596 392.847 103.771 394.585 103.243C396.223 102.745 396.148 102.112 398.336 101.789C400.166 101.518 400.532 100.602 402.964 100.243C404.788 99.9749 409.115 100.796 409.115 100.796L413.865 100.249L418.31 98.6519L422.592 96.5325C422.592 96.5325 424.953 96.2888 426.446 96.0042C427.925 95.7219 428.822 95.7136 430.192 95.0862C431.603 94.4396 432.03 93.4614 433.416 92.761C434.75 92.0867 435.719 92.244 437.052 91.5672C438.386 90.8895 439.142 90.4247 440.164 89.3316C441.247 88.1744 442.103 87.4366 442.265 85.8604C442.427 84.2897 441.543 83.4987 440.929 82.0442C440.351 80.6769 440.264 79.715 439.244 78.6366C438.234 77.5684 437.303 77.3987 435.972 76.774C434.654 76.156 433.89 75.8415 432.486 75.4585C430.994 75.0512 430.115 74.6116 428.58 74.8039C427.025 74.9987 426.449 76.1174 424.915 76.4371C423.282 76.7774 420.645 76.3418 420.645 76.3418L416.616 77.58L412.553 78.6161L408.437 79.3951L404.276 79.8668L400.097 80.2089L395.991 81.0472L391.882 81.8504L387.666 81.8701L382.851 81.0369L377.982 80.2661L373.017 79.3137L367.94 79.7138C367.94 79.7138 364.96 80.6246 363.211 81.5569C362.061 82.1699 361.743 83.4595 360.397 83.3499C359.024 83.2383 357.567 82.136 356.813 80.984C355.75 79.3615 357.63 76.0855 357.63 76.0855C357.63 76.0855 358.454 73.8777 359.011 72.2776C359.578 70.6502 360.363 68.1145 360.363 68.1145C360.363 68.1145 361.794 65.7986 362.07 64.1273C362.342 62.4721 361.745 59.8441 361.745 59.8441C361.745 59.8441 362.1 57.1341 361.607 55.5166C361.11 53.8837 359.279 51.8177 359.279 51.8177L357.375 48.0356L354.727 44.4373C354.727 44.4373 356.519 42.8153 357.434 41.5805C358.343 40.3549 360.085 39.5341 359.369 38.1868C358.654 36.8401 357 37.9118 355.476 37.8893C354.048 37.8681 351.824 38.0454 351.824 38.0454L347.497 37.949L343.168 37.835L338.855 38.2443L334.206 38.5395L329.547 39.0665L325.5 41.5234L321.262 43.3153L317.368 45.8804L314.428 49.5028L311.804 52.9894L309.413 56.7391L308.264 61.0442L307.841 65.4761L308.747 69.8196L309.91 74.0086L312.277 77.6361L314.781 81.0826L317.954 83.9346L321.05 87.1352L325.037 89.0761L329.449 89.6142L333.764 89.1195L338.118 90.3305L341.061 93.8627L338.447 97.6888L335.25 101.054L333.518 105.31L331.218 109.263L329.118 113.323L328.066 117.838L326.174 121.99L323.555 125.763L321.319 129.816L319.343 134.04L316.506 137.737L313.901 141.577L311.017 145.228L308.778 149.321C308.778 149.321 306.658 151.447 305.555 153.011C304.433 154.602 303.998 155.624 303.127 157.364C302.322 158.972 301.473 159.78 301.236 161.562C300.987 163.434 301.258 164.621 302.072 166.324C302.873 168.002 303.637 168.898 305.188 169.924C306.469 170.772 307.352 171.066 308.869 171.311C310.414 171.561 312.873 171.136 312.873 171.136L316.536 169.177L319.417 165.873C319.417 165.873 321.573 164.242 322.695 162.943C323.827 161.632 323.981 160.531 325.133 159.238C326.281 157.95 327.253 157.572 328.517 156.399C329.772 155.235 330.484 154.578 331.578 153.261C332.681 151.934 332.996 150.955 334.122 149.648C335.241 148.349 336.193 147.927 337.297 146.615C338.411 145.291 338.629 144.242 339.759 142.932C340.881 141.633 341.684 141.065 343.014 139.98C344.68 138.62 345.387 136.379 347.499 136.786C349.611 137.192 349.553 139.475 350.478 141.417C351.202 142.94 351.266 143.935 351.936 145.483C352.611 147.043 353.364 147.75 353.917 149.357C354.474 150.974 354.194 152.038 354.74 153.659C355.283 155.268 356.081 155.963 356.671 157.555C357.26 159.146 357.148 160.176 357.743 161.764C358.34 163.356 359.083 164.068 359.705 165.65C360.323 167.226 360.286 168.24 360.907 169.814C361.531 171.395 362.198 172.136 362.882 173.692C363.561 175.237 363.98 176.105 364.395 177.741C364.821 179.417 364.387 180.51 365 182.127C365.615 183.749 366.791 184.224 367.466 185.822C368.13 187.391 367.939 188.443 368.396 190.085C368.848 191.71 369.192 192.596 369.786 194.176C370.38 195.758 370.908 196.571 371.436 198.176C371.967 199.79 371.935 200.791 372.489 202.398C373.04 203.997 373.686 204.76 374.251 206.354C374.818 207.952 374.733 208.979 375.379 210.547C376.038 212.147 376.824 212.835 377.584 214.39C378.335 215.925 379.246 218.438 379.246 218.438C379.246 218.438 379.711 221.098 380.223 222.746C380.73 224.378 381.111 225.267 381.841 226.813C382.578 228.373 383.323 229.084 383.978 230.681C384.63 232.271 384.58 233.303 385.17 234.916C385.729 236.446 385.6 237.483 387.141 238.01C388.419 238.447 390.163 237.629 390.163 237.629L393.418 235.985L396.391 233.867L396.779 234.153L394.891 236.946L391.394 240.222L390.072 244.946L390.214 250L394.28 250.964L398.126 248.925L401.943 246.84L405.831 244.868L409.012 241.785L412.542 239.265L416.747 237.746L417.878 232.722L416.498 228.456L415.147 224.191C415.147 224.191 414.89 221.447 414.44 219.749C413.991 218.054 412.857 215.547 412.857 215.547C412.857 215.547 411.875 212.988 411.53 211.276C411.179 209.536 411.61 208.451 411.099 206.752C410.582 205.033 409.418 204.427 408.929 202.699C408.443 200.985 408.647 198.146 408.647 198.146L407.514 194.209L406.489 190.25L405.976 186.171L405.145 182.164L403.104 178.432L402.604 174.344L401.773 170.206L405.076 173.555L408.651 176.376L412.272 179.139L415.88 181.91L419.988 184.055L423.702 186.655L427.188 189.542L430.579 192.545L434.137 195.34L437.364 198.541L440.455 201.894L444.6 203.893L447.557 207.257L450.829 210.28C450.829 210.28 452.247 212.175 453.817 212.371C455.376 212.565 457.255 211.116 457.255 211.116L461.048 208.26C461.048 208.26 462.81 205.798 464.443 204.816C466.057 203.845 467.353 202.69 469.098 201.85C470.767 201.047 471.691 200.051 473.234 199.533C475.009 198.938 475.754 198.814 476.972 197.619C478.213 196.403 478.192 194.541 478.192 194.541L474.853 191.018L470.002 190.217L465.357 191.427L461.361 192.467L460.988 192.19L460.976 192.142ZM348.691 130.919C347.115 131.536 345.498 133.851 345.498 133.851L342.612 136.868L339.46 139.643L337.313 143.321L334.666 146.551L331.569 149.385L328.444 152.189L326.274 155.845L323.145 158.643L320.146 161.555L317.683 164.957C317.683 164.957 316.387 167.248 315.091 168.245C313.707 169.31 312.704 169.922 310.959 169.952C308.554 169.993 306.992 168.891 305.587 166.938C304.488 165.41 304.299 164.196 304.223 162.316C304.149 160.481 304.372 159.366 305.159 157.706C305.839 156.275 307.623 154.481 307.623 154.481L310.334 151.454L312.276 147.85L315.554 144.274L318.28 140.302C318.28 140.302 318.948 137.439 319.934 135.834C320.919 134.229 321.45 130.912 322.265 129.214C322.953 127.78 323.439 126.898 324.068 125.436C324.697 123.973 324.982 123.694 325.638 122.762C326.431 121.635 327.042 121.577 327.701 120.128C328.362 118.676 329.072 118.561 329.905 117.2C330.769 115.787 331.76 115.352 332.597 113.923C333.401 112.548 334.1 110.13 334.1 110.13L336.014 105.983L338.376 102.056L340.312 97.8851C340.312 97.8851 342.576 95.4312 342.807 93.4613C343.075 91.1815 342.597 89.3736 340.81 87.933C339.599 86.9573 338.555 86.983 337.03 86.6836C335.439 86.3715 334.635 86.7113 332.888 86.4225C331.104 86.1276 330.117 85.7272 328.365 85.197C326.695 84.6912 325.841 84.1001 324.125 83.7827C322.301 83.4454 319.379 83.6162 319.379 83.6162L316.112 80.3093L313.548 76.4894L312.322 72.0977L310.458 67.8219L310.893 63.2043L311.46 58.5872L313.433 54.7391L316.298 51.5573L318.35 47.7152L322.212 45.7316L325.64 43.2115L329.519 41.3574L333.685 40.2468L337.986 39.9203L342.266 40.1777L346.545 40.3607C346.545 40.3607 348.573 40.2807 349.986 41.3864C351.804 42.8086 351.547 44.8157 352.586 46.8769C353.184 48.0628 354.466 49.7107 354.466 49.7107C354.466 49.7107 355.695 51.933 356.676 53.2234C357.798 54.7004 360.297 55.2234 361.007 56.9376C361.623 58.4276 361.346 61.0526 361.346 61.0526L361.224 65.2084L359.71 69.7467L358.115 73.6903C358.115 73.6903 355.662 76.2292 355.393 77.6979C355.123 79.1667 354.365 79.7557 354.668 80.9658C354.971 82.1758 356.698 83.5642 356.698 83.5642C356.698 83.5642 358.703 84.5477 360.594 84.3936C362.43 84.244 365.188 83.0008 365.188 83.0008L369.879 82.538L374.607 81.5747L379.274 82.6894L383.97 83.3647C383.97 83.3647 385.938 82.6584 387.822 82.8188C389.694 82.9781 390.754 82.719 392.625 82.5465C394.49 82.3746 395.535 82.2499 397.382 81.9384C399.226 81.6275 400.2 81.0313 402.069 80.9546C403.79 80.8841 404.71 81.9905 406.91 82.2108C408.724 82.3923 411.941 82.4575 411.941 82.4575L416.451 81.2403L421.02 80.3219C421.02 80.3219 424.02 79.3811 425.898 78.6548C427.633 77.9836 428.417 76.8804 430.275 76.7738C431.784 76.6872 432.673 77.0088 434.05 77.6336C435.352 78.2247 436.266 77.9333 437.324 78.8966C438.366 79.8464 439.785 80.3094 440.228 81.6485C440.673 82.9923 441.594 84.5309 441.017 85.8232C440.463 87.0635 440.271 88.009 439.203 88.8495C438.161 89.6701 436.208 90.5143 434.999 91.0602C433.428 91.7698 431.331 91.1345 429.585 91.6375C427.914 92.1188 425.516 93.4439 425.516 93.4439C425.516 93.4439 421.925 93.585 419.934 94.5773C418.769 95.158 417.21 96.4995 417.21 96.4995L412.963 97.7179L408.755 99.0706L404.239 99.4123L399.976 100.576L395.854 102.21L391.938 104.125C391.938 104.125 388.794 105.4 389.05 106.302C389.335 107.308 391.076 108.631 391.076 108.631L394.279 111.558L396.69 115.269C396.69 115.269 399.611 116.748 400.707 118.051C401.797 119.346 401.079 120.501 402.188 121.785C403.295 123.067 404.363 123.623 405.772 124.563C407.118 125.46 409.676 125.948 409.676 125.948L412.733 129.014L417.076 132.365L420.147 135.423L423.313 139.234L426.091 142.581L427.358 145.862L430.167 149.17L433.517 151.947L436.364 155.212L440.061 157.637L442.468 161.342L445.431 164.496L448.996 167.052L452.201 169.968L455.068 173.221L457.868 176.545L461.008 179.521L463.764 182.892L467.407 185.688L463.59 187.801L460.144 190.071L457.14 192.874L457.436 194.602L461.102 193.792L464.744 193.988L468.115 193.216L471.626 193.28L475.349 195.071L473.775 198.87L470.02 200.449L466.881 202.982L463.23 204.709L460.048 207.204C460.048 207.204 457.953 208.601 456.42 208.954C454.806 209.326 453.742 209.461 452.177 208.916C450.499 208.331 448.657 206.033 448.657 206.033L445.774 202.388L441.625 200.251L438.537 196.858L435.981 195.166L432.397 192.36L429.204 189.081C429.204 189.081 426.691 187.87 425.649 186.51C424.401 184.881 425.419 183.05 424.081 181.494C422.951 180.179 420.227 179.291 420.227 179.291L416.745 176.645L413.721 173.426L410.267 170.734L404.044 169.086L400.879 166.042L398.818 165.568L398.194 169.595L399.192 173.936L400.728 178.139L402.047 182.397L403.626 186.593L404.385 191.001L405.321 195.363C405.321 195.363 405.381 198.147 405.922 199.816C406.475 201.52 408.108 203.849 408.108 203.849L410.012 208.482L410.893 212.86C410.893 212.86 411.115 215.606 411.653 217.268C412.2 218.958 413.663 221.348 413.663 221.348C413.663 221.348 414.926 223.864 414.999 225.604C415.072 227.339 414.031 229.944 414.031 229.944L414.511 234.764L411.364 238.575L407.751 240.979L403.837 242.912L400.41 245.609L397.219 247.81L393.973 249.205L392.196 245.211L394.118 240.974L396.985 237.604L399.436 233.845C399.436 233.845 400.064 229.31 399.291 228.904C398.527 228.504 395.241 231.064 395.241 231.064L392.396 234.233L388.404 235.073L386.213 231.782C386.213 231.782 385.786 228.116 385.087 228.561C384.124 229.175 383.524 226.755 382.968 225.234C382.412 223.714 382.668 223.562 382.098 222.047C381.527 220.533 381.353 219.621 380.637 218.169C379.907 216.688 379.176 216.038 378.398 214.582C377.635 213.151 377.293 212.302 376.689 210.797C376.086 209.294 375.825 208.422 375.31 206.886C374.796 205.35 376.285 205.639 375.742 204.113C375.2 202.587 373.043 200.613 372.533 199.076C371.992 197.445 373.953 195.958 373.543 194.289C373.132 192.612 373.371 189.726 372.671 188.147C371.951 186.525 372.112 185.602 371.37 183.99C370.65 182.428 369.488 181.816 368.945 180.184C368.405 178.561 367.265 176.138 367.265 176.138L366.439 171.772L364.181 167.934C364.181 167.934 363.361 164.092 361.605 162.569C360.534 161.64 358.979 161.18 358.399 159.504C357.826 157.85 357.775 157.294 356.945 155.753C356.132 154.245 356.582 153.418 356.071 151.783C355.552 150.125 354.425 149.922 353.92 148.26C353.423 146.623 352.727 145.857 352.203 144.228C351.669 142.571 351.806 141.522 351.236 139.877C350.671 138.246 350.062 137.453 349.325 135.893C348.563 134.28 350.337 131.432 348.728 130.904C348.713 130.899 348.691 130.919 348.691 130.919Z" fill="white" stroke="white" stroke-width="2"/>
</svg>
