<svg width="300" height="293" viewBox="0 0 300 293" fill="none" xmlns="http://www.w3.org/2000/svg">
    <path fill-rule="evenodd" clip-rule="evenodd"
        d="M64.1374 0.877266L64.6897 1.30016L64.0283 1.11041L64.0278 1.1121L64.0275 1.11309C63.9512 1.37662 63.8207 1.49741 63.7029 1.5673C63.5854 1.63696 63.452 1.67016 63.3455 1.68271C63.2829 1.67691 63.2263 1.67336 63.1767 1.67249C63.1507 1.67203 63.087 1.67118 63.0151 1.68112C62.9943 1.68398 62.9586 1.68963 62.9155 1.70099C62.8868 1.70854 62.786 1.73539 62.6761 1.80733C62.5858 1.86641 62.2391 2.1347 62.3209 2.61944C62.3812 2.97639 62.6443 3.14234 62.6819 3.16605L62.6842 3.16755C62.7089 3.18326 62.7333 3.19686 62.7566 3.20857C61.5937 5.01269 60.6616 6.62418 59.7665 8.17149L59.7632 8.17721C58.5661 10.2468 57.4372 12.1977 55.8933 14.3877L55.831 14.476L55.7941 14.5777C54.6301 17.7847 53.4396 19.0428 51.9745 20.591L51.9642 20.6018C50.767 21.867 49.3946 23.3174 47.805 26.0407L47.7152 26.1946L47.6984 26.372C47.4364 29.1418 46.4075 32.2794 45.0363 35.4928C43.6681 38.6992 41.9848 41.9238 40.4459 44.8711L40.4418 44.8789C39.8655 45.9828 39.3088 47.0489 38.8002 48.0547L38.7836 48.0875L38.77 48.1217C36.9657 52.6761 35.2265 56.9311 33.5544 61.0216L33.5471 61.0397C28.1268 74.3002 23.4119 85.8347 19.551 100.091C13.0592 115.441 8.35882 129.796 3.54133 149.949L3.51276 150.068L3.52099 150.191C3.56813 150.894 3.42704 152.129 3.17877 153.626C2.93491 155.096 2.6037 156.732 2.30691 158.197L2.30557 158.204L2.30533 158.205C2.11611 159.139 1.94021 160.007 1.81328 160.707C1.69246 161.372 1.59623 161.982 1.60485 162.338L1.60658 162.409L1.62086 162.48C1.83323 163.523 2.1004 164.234 2.28635 164.729L2.28712 164.731C2.40109 165.034 2.45443 165.184 2.47579 165.287C2.46815 165.294 2.45899 165.302 2.44811 165.311C2.39412 165.358 2.31157 165.419 2.18596 165.498C1.93037 165.66 1.56216 165.858 1.02471 166.135L0.764672 166.269L0.650591 166.539C0.293368 167.382 0.195639 168.134 0.435806 168.725C0.288005 168.851 0.151941 169.05 0.132714 169.321C0.113481 169.593 0.225855 169.792 0.275986 169.872C0.334874 169.965 0.401806 170.038 0.445843 170.083C0.527791 170.166 0.630638 170.253 0.705639 170.316L0.719898 170.329C0.844416 170.434 0.950479 170.524 1.04099 170.619C1.09812 170.679 1.1335 170.725 1.1546 170.757C1.12851 170.787 1.08272 170.832 1.00491 170.89L0.719106 171.104L0.684318 171.459C0.566749 172.659 0.34288 173.471 0.187363 174.035L0.174522 174.081C0.107269 174.324 0.0316843 174.597 0.00817081 174.825C-0.0176803 175.075 -0.0108818 175.593 0.477214 175.908C0.66515 176.029 0.86139 176.072 1.00427 176.09C1.15191 176.109 1.30549 176.11 1.45011 176.104C1.61668 176.097 1.81301 176.079 2.03506 176.056C2.15499 176.179 2.33078 176.303 2.57243 176.344C2.61081 176.351 2.64812 176.355 2.68426 176.357C2.70373 176.461 2.72411 176.58 2.74536 176.717C2.7191 176.794 2.70102 176.867 2.6882 176.934C2.65339 177.115 2.64651 177.303 2.65312 177.481C2.6663 177.837 2.73719 178.243 2.83986 178.658C3.04651 179.495 3.41029 180.483 3.84949 181.407C4.28531 182.323 4.82115 183.23 5.39253 183.872C5.67589 184.191 6.00685 184.489 6.37964 184.674C6.59094 184.778 6.833 184.853 7.08975 184.864C12.4877 191.538 17.046 200.308 21.5271 208.936L21.5309 208.944C23.5253 212.784 25.5035 216.593 27.5244 220.147L27.5372 220.17L27.5514 220.192C35.041 231.599 43.5627 247.029 47.3008 258.189L47.3396 258.305L47.4111 258.405C52.0552 264.862 54.203 269.929 56.4529 275.24L56.4575 275.25C58.0104 278.916 59.616 282.706 62.1197 287.107C61.8483 287.423 61.789 287.819 61.7794 288.087C61.7616 288.585 61.899 289.154 62.0845 289.627C62.0409 289.807 62.0195 289.988 62.0113 290.152C61.9961 290.456 62.0216 290.789 62.0985 291.095C62.1675 291.369 62.3135 291.766 62.6495 292.032C62.8141 292.162 63.0214 292.257 63.2597 292.279C63.4566 292.513 63.686 292.697 63.9476 292.821C64.3812 293.028 64.8217 293.034 65.1956 292.946C65.5611 292.86 65.878 292.683 66.1184 292.49C66.2271 292.403 66.34 292.297 66.4404 292.175C66.9342 292.02 67.3816 291.716 67.7672 291.403C68.2602 291.003 68.7624 290.494 69.2429 290.006L69.2629 289.986C70.0186 289.219 70.737 288.495 71.4767 288.021C72.1992 287.559 72.8202 287.411 73.43 287.608L73.6954 287.693L73.9571 287.597C81.6182 284.78 87.2721 280.981 92.814 277.257L92.8368 277.241C97.45 274.141 101.979 271.1 107.58 268.636L107.708 268.579L107.81 268.483C112.001 264.522 118.1 261.713 124.543 258.754L124.6 258.728C130.726 255.916 137.134 252.974 142.138 248.78C150.272 245.533 157.479 241.616 164.312 237.903L164.328 237.894C171.221 234.148 177.719 230.618 184.469 228.127L184.488 228.12L184.507 228.112C194.069 224.023 202.783 221.439 213.376 218.299L213.385 218.296C215.087 217.791 216.838 217.272 218.648 216.73C225.248 216.807 231.48 214.487 237.67 212.182L237.743 212.155C241.2 210.868 244.649 209.584 248.209 208.671L248.287 208.651L248.359 208.616C254.618 205.6 259.53 203.929 264.041 203.632L264.111 203.627L264.18 203.61C268.385 202.583 272.012 202.298 275.187 202.048L275.278 202.041C278.298 201.804 281.002 201.592 283.306 200.723C287.257 201.195 291.071 200.228 294.275 199.416L294.332 199.402C295.035 199.223 295.707 199.053 296.35 198.904C296.409 198.996 296.512 199.129 296.676 199.229C296.925 199.38 297.237 199.405 297.515 199.272C297.727 199.171 297.848 199.01 297.899 198.936C297.957 198.853 298 198.769 298.031 198.702C298.55 198.545 299.018 198.149 299.404 197.614L299.815 197.045L299.309 196.558C299.105 196.362 298.846 196.177 298.534 196.104L300 195.423L297.863 194.842C297.547 194.756 297.266 194.749 297.026 194.78C297.038 194.443 297.059 194.005 297.087 193.433L297.096 193.255L297.029 193.091C291.133 178.46 283.03 163.859 275.059 149.498L275.046 149.475C272.502 144.891 269.971 140.331 267.526 135.796L267.487 135.724L267.434 135.661C265.178 132.966 263.761 129.258 262.388 125.642L262.367 125.587C261.436 123.137 260.516 120.712 259.355 118.841C256.988 112.093 252.695 104.127 248.235 98.8221L248.169 98.7432L248.085 98.6835C246.841 97.7991 245.662 96.4308 244.558 94.8628C243.458 93.301 242.468 91.5958 241.582 90.0667L241.576 90.0563C241.072 89.1883 240.598 88.3698 240.163 87.6862C239.734 87.0123 239.306 86.4079 238.889 86.0069L238.88 85.9981L238.871 85.9897C236.635 83.969 235.337 81.1509 233.988 78.1914L233.932 78.0686C232.297 74.4823 230.553 70.6542 226.711 68.7538C226.634 68.5042 226.497 68.2638 226.312 68.0404C225.977 67.6342 225.455 67.2429 224.72 66.8609L224.706 66.8535L224.691 66.8466C223.275 66.1804 222.802 65.3123 222.679 64.5404C222.57 63.8628 222.719 63.1655 222.937 62.6049C223.242 62.4334 223.353 62.1377 223.388 61.965C223.426 61.7756 223.408 61.5966 223.388 61.473C223.367 61.3375 223.33 61.1998 223.287 61.0684C223.119 60.5564 222.781 59.9096 222.372 59.3696C222.166 59.0969 221.924 58.8274 221.654 58.611C221.392 58.4011 221.047 58.1949 220.639 58.1426C220.188 58.0847 219.751 58.2286 219.402 58.562C219.151 58.8015 218.964 59.1194 218.821 59.484C218.315 59.768 218.04 59.8161 217.896 59.8157C217.744 59.8152 217.636 59.7685 217.338 59.6041L217.315 59.5915C217.035 59.4363 216.612 59.2024 216.02 59.1567C215.49 59.1158 214.898 59.2278 214.186 59.5264C213.188 59.2011 212.17 58.8393 211.269 58.5188L211.232 58.5056C210.302 58.175 209.471 57.8793 208.953 57.7336C208.82 57.6961 208.688 57.6628 208.57 57.6418C208.512 57.6314 208.441 57.6212 208.367 57.6175C208.307 57.6146 208.176 57.6112 208.029 57.6554C207.943 57.6812 207.795 57.7441 207.666 57.8714C207.129 57.8412 206.449 57.7044 205.645 57.4742C204.524 57.1528 203.285 56.6878 202.053 56.2249L202.03 56.2163C200.907 55.7947 199.783 55.3724 198.82 55.0965C198.334 54.9573 197.864 54.8479 197.438 54.7967C197.045 54.7495 196.62 54.7424 196.234 54.8573C192.535 55.5641 190.041 54.0249 186.246 51.6292L186.24 51.6259C185.163 50.9462 183.989 50.2048 182.674 49.4546C182.603 49.3728 182.535 49.3222 182.512 49.3058L182.51 49.3041C182.46 49.2675 182.41 49.2361 182.368 49.2116C182.209 49.1179 181.966 49.0002 181.695 48.8758C181.138 48.6202 180.325 48.2719 179.466 47.9039L179.455 47.8995C178.353 47.4274 177.17 46.9207 176.291 46.5103C176.18 46.4584 176.075 46.4087 175.977 46.3615L176.414 46.0255L174.771 45.6294C167.738 43.9341 159.812 41.4865 154.762 35.4814C153.089 33.2323 151.662 31.9294 150.154 31.1081C148.673 30.3017 147.17 29.9948 145.47 29.6481L145.411 29.6361C144.249 29.3988 142.964 29.1361 141.438 28.6891C133.488 26.0219 125.351 23.472 117.295 20.9475L117.292 20.9465C105.373 17.2113 93.6335 13.5325 82.8986 9.6007L82.869 9.58986L82.8387 9.58136C78.2471 8.29467 71.1981 5.93724 66.5487 1.11744L66.3718 0.934079C66.3618 0.853106 66.3459 0.771344 66.3214 0.692776C66.2781 0.553221 66.1609 0.269667 65.8474 0.105254C65.5061 -0.0736979 65.1784 0.0122285 64.9967 0.0947413C64.8188 0.175492 64.6708 0.297399 64.5565 0.405873C64.4344 0.521724 64.3075 0.664364 64.1746 0.829522L64.2935 0.925147L64.2889 0.922883L64.1737 0.830605L64.1592 0.848761L64.1933 0.876065L64.1527 0.856228L64.1374 0.877266ZM64.7442 1.51329C64.7614 1.47022 64.7773 1.42531 64.792 1.37845L64.7977 1.35994L64.8043 1.33752L64.8053 1.33625C64.5314 2.2852 63.7297 2.47175 63.3385 2.49469C63.433 2.48913 63.5512 2.47399 63.6803 2.44091C63.7152 2.43198 63.7508 2.42173 63.787 2.41001C63.7958 2.40715 63.8047 2.40419 63.8136 2.40115C63.8479 2.38943 63.8825 2.37636 63.9174 2.36182C64.0082 2.32391 64.1004 2.27594 64.1899 2.21545C64.3139 2.13174 64.4329 2.02406 64.5369 1.88593C64.6163 1.78044 64.6869 1.65719 64.7442 1.51329ZM63.1499 2.48077C63.1352 2.48085 63.1258 2.48164 63.1214 2.48283L63.1184 2.48431L63.1193 2.48606C63.1259 2.49027 63.1625 2.49565 63.2209 2.49703C63.2316 2.49728 63.2431 2.4974 63.2552 2.49736C63.1772 2.49763 63.1271 2.49102 63.1193 2.48606C63.1149 2.48324 63.1247 2.48094 63.1499 2.48077ZM1.91305 168.965C1.40091 168.855 0.719972 168.45 1.39579 166.854C3.53494 165.752 3.49519 165.646 3.0447 164.447C2.86259 163.962 2.61337 163.298 2.41383 162.318C2.40144 161.807 2.71925 160.237 3.10004 158.358C3.69236 155.433 4.43706 151.756 4.32839 150.137C9.1422 129.999 13.8345 115.678 20.3177 100.356C24.1683 86.1229 28.8719 74.6157 34.3036 61.3275C35.9754 57.2374 37.7163 52.9785 39.5224 48.4195C40.0287 47.4183 40.5834 46.356 41.1609 45.25L41.1633 45.2453C44.2361 39.3604 47.9565 32.2353 48.504 26.4482C50.0467 23.8052 51.3689 22.4079 52.5522 21.1575C54.0549 19.5695 55.3335 18.2184 56.5548 14.8535C58.1221 12.6303 59.2675 10.6502 60.4637 8.58217C61.5274 6.74333 62.6314 4.83472 64.1079 2.62389C63.7428 2.55004 63.4948 2.51241 63.3385 2.49469C63.4351 2.50564 63.5662 2.52422 63.7387 2.5542C63.7954 2.56407 63.8566 2.57517 63.9224 2.58764C63.9804 2.59863 64.0426 2.61068 64.1079 2.62389C64.0448 2.71842 63.9817 2.81239 63.9199 2.90583C63.84 3.02661 63.7612 3.1465 63.6835 3.26554L63.6251 3.35511C62.3841 5.261 61.4083 6.94911 60.4637 8.58217C59.2675 10.6502 58.1221 12.6303 56.5548 14.8535C55.3335 18.2184 54.0549 19.5695 52.5522 21.1575C51.3689 22.4079 50.0467 23.8052 48.504 26.4482C48.3331 28.2553 47.852 30.1929 47.1786 32.1824C46.583 33.9423 45.8363 35.7428 45.019 37.5296C43.8014 40.1918 42.4278 42.8235 41.1633 45.2453L41.1597 45.2509C40.5824 46.3566 40.0286 47.4186 39.5224 48.4195C37.7163 52.9785 35.9754 57.2374 34.3036 61.3275C28.8719 74.6157 24.1683 86.1229 20.3177 100.356C13.8345 115.678 9.1422 129.999 4.32839 150.137C4.43706 151.756 3.69236 155.433 3.10004 158.358C2.71925 160.237 2.40144 161.807 2.41383 162.318C2.61337 163.298 2.86259 163.962 3.0447 164.447C3.49519 165.646 3.53494 165.752 1.39579 166.854C1.05308 167.663 1.05863 168.166 1.21479 168.48C1.22145 168.493 1.2284 168.506 1.23559 168.519C1.30329 168.638 1.39378 168.728 1.4942 168.796C1.52051 168.813 1.5475 168.83 1.57494 168.844C1.68539 168.904 1.80313 168.941 1.91305 168.965ZM2.10281 168.995C2.13934 168.999 2.17334 169.002 2.20393 169.004C2.23262 169.006 2.25832 169.007 2.2803 169.008C2.33235 169.011 2.36358 169.013 2.36449 169.019C2.36535 169.025 2.33917 169.034 2.27797 169.053C2.2508 169.061 2.21672 169.071 2.17504 169.083L2.13337 169.095L2.13186 169.096C2.0604 169.116 1.9702 169.142 1.85964 169.175C1.81876 169.187 1.77504 169.2 1.72834 169.214L1.63977 169.241L1.59102 169.256C1.553 169.267 1.51335 169.279 1.47202 169.292M64.8056 1.33502L64.8053 1.33625C65.1101 0.957366 65.3018 0.809868 65.418 0.808759C65.3143 0.809269 65.1504 0.926676 64.8993 1.22173C64.8787 1.24592 64.8575 1.2713 64.8358 1.29791C64.8262 1.30961 64.8165 1.32154 64.8067 1.33372L64.8056 1.33502ZM64.8056 1.33502L64.8055 1.33337L64.8038 1.33561L64.7901 1.35441L64.7974 1.34533L64.8056 1.33502ZM65.4743 2.53385C65.5285 2.53454 65.668 2.3056 65.9671 1.67917C65.9396 1.73676 65.9131 1.79056 65.8882 1.84156C65.8568 1.90599 65.8275 1.96527 65.8 2.01966C65.7003 2.21772 65.6263 2.35097 65.5724 2.4321C65.5259 2.50226 65.4944 2.53344 65.4743 2.53385ZM181.361 49.6117C181.57 49.7081 181.742 49.7905 181.863 49.8552L182.044 49.2056C182.029 49.2052 181.991 49.2046 181.941 49.2114C181.902 49.2165 181.785 49.2341 181.654 49.3107C181.557 49.3681 181.441 49.4673 181.361 49.6117ZM182.021 50.0138C182.024 50.0138 182.027 50.0139 182.03 50.0139L182.021 50.0138ZM0.939702 169.391C0.93294 169.34 0.98442 169.307 1.1228 169.294C0.787483 169.326 0.964137 169.476 1.24262 169.711C1.72266 170.117 2.50529 170.779 1.48968 171.538C2.23669 170.98 2.0102 170.474 1.64747 170.084C1.60074 170.034 1.55174 169.985 1.50226 169.939C1.4833 169.921 1.46426 169.904 1.44525 169.887C1.37623 169.825 1.3075 169.767 1.24408 169.713L1.24262 169.711C1.07866 169.573 0.949366 169.464 0.939702 169.391ZM3.11782 175.324C3.2205 175.325 3.32494 175.474 3.44001 176.012L3.44724 176.047L3.44885 176.054C3.49143 176.26 3.53548 176.519 3.58144 176.843C2.89039 177.707 5.28451 183.713 7.00688 184.043C5.28455 183.712 2.89048 177.707 3.58144 176.843C3.40721 175.613 3.26114 175.324 3.11782 175.324ZM22.2447 208.564C24.2419 212.409 26.2141 216.207 28.2274 219.748C29.9146 222.318 31.6555 225.093 33.3834 227.98C38.2628 236.132 43.0391 245.17 46.2139 252.968C46.9153 254.691 47.5386 256.354 48.0675 257.933C52.7675 264.467 54.9439 269.605 57.1975 274.924C58.7513 278.592 60.342 282.347 62.8219 286.706C62.9775 286.979 63.1366 287.255 63.2995 287.534C60.5417 282.818 58.8489 278.822 57.1975 274.924C54.9439 269.605 52.7675 264.467 48.0675 257.933C44.2969 246.676 35.7317 231.178 28.2274 219.748C26.2141 216.207 24.2419 212.409 22.2447 208.564ZM62.9059 287.516C62.7356 287.573 62.6419 287.729 62.6051 287.94C62.5269 288.388 62.7049 289.083 62.95 289.591C62.5896 288.844 62.3747 287.692 62.9059 287.516ZM63.6335 291.386C63.6934 291.501 63.7568 291.601 63.8227 291.689C63.9857 291.904 64.1648 292.039 64.3479 292.115C64.0909 292.009 63.8412 291.785 63.6335 291.386ZM283.204 199.895C287.075 200.407 290.84 199.453 294.133 198.618C295.077 198.379 295.983 198.149 296.841 197.967C296.96 198.389 297.052 198.55 297.135 198.55C297.24 198.551 297.331 198.298 297.442 197.989L297.451 197.963M297.451 197.963C297.466 197.921 297.481 197.879 297.497 197.836C297.504 197.816 297.512 197.796 297.519 197.776C297.539 197.722 297.56 197.669 297.582 197.615C297.723 197.269 297.903 196.946 298.164 196.888M65.7275 4.64687C69.8146 7.36897 74.2632 9.1249 78.9038 10.9566L78.9066 10.9577L78.9091 10.9587C79.9109 11.3541 80.9217 11.7531 81.9397 12.1661C83.3383 12.6578 84.7333 13.1489 86.1242 13.6386L86.1903 13.6618L86.1197 13.6372C84.73 13.148 83.337 12.6573 81.9397 12.1661C80.9228 11.7535 79.9124 11.355 78.9117 10.9599L78.91 10.9593L78.9066 10.9577L78.9038 10.9566C74.5555 9.24027 70.3751 7.59047 66.5034 5.15C66.254 4.99277 66.0058 4.83226 65.759 4.66824L65.7491 4.66165L65.7275 4.64687ZM108.12 113.137C113.672 110.116 118.114 108.029 122.457 105.989C127.061 103.826 131.553 101.716 137.138 98.6012C149.622 90.3892 161.44 85.1592 176.036 78.7001L176.043 78.6971L176.077 78.6818C177.069 78.2428 178.074 77.798 179.093 77.3462C185.875 74.2427 192.575 71.5823 198.982 69.0382C203.508 67.2411 207.888 65.502 212.047 63.7058C212.407 63.2898 212.44 63.2891 212.575 63.2858C212.712 63.2826 212.954 63.2768 213.75 62.8325L213.801 62.8036L213.839 62.7823C213.843 62.7761 213.847 62.7699 213.852 62.7638C213.856 62.7579 213.86 62.7521 213.865 62.7463C213.914 62.6831 213.978 62.6195 214.05 62.5574C214.138 62.4803 214.236 62.4054 214.327 62.3361C214.572 62.1494 214.763 62.0038 214.559 61.9669C214.764 62.0036 214.572 62.1493 214.327 62.3361C214.149 62.4718 213.942 62.6293 213.839 62.7823C212.971 63.2763 212.717 63.2824 212.575 63.2858C212.44 63.2891 212.407 63.2898 212.047 63.7058C207.888 65.502 203.508 67.2411 198.982 69.0382C192.575 71.5823 185.875 74.2427 179.093 77.3462C178.074 77.798 177.069 78.2428 176.077 78.6818L176.043 78.6971L176.036 78.7001C161.44 85.1592 149.622 90.3892 137.138 98.6012C131.553 101.716 127.061 103.826 122.457 105.989C118.114 108.029 113.672 110.116 108.12 113.137ZM196.586 57.6267L196.738 57.6347C197.988 58.0365 199.27 58.5435 200.599 59.0696C203.424 60.1872 206.465 61.3906 209.879 61.8526M65.3622 8.107C65.7564 7.39288 66.0952 6.66907 66.3083 5.98153C70.1782 8.38199 74.3316 10.0214 78.5674 11.6933L78.6052 11.7082L78.6106 11.7103L78.6119 11.7108C79.6142 12.1065 80.6213 12.504 81.635 12.9153L81.6528 12.9225L81.6708 12.9288C83.0698 13.4207 84.4652 13.9119 85.8567 14.4018L85.8686 14.4059L85.9366 14.4299C104.241 20.8736 121.944 27.1059 139.707 31.9086L139.807 31.9357L139.911 31.9366C145.399 31.9842 148.134 34.056 149.58 36.1056L149.639 36.1903L149.718 36.2572C157.37 42.7214 165.942 46.6583 174.616 49.3699C175.694 50.3153 176.888 50.751 177.989 51.153L178.038 51.171C179.24 51.6099 180.381 52.032 181.519 52.9846C183.088 55.395 185.085 56.6816 187.579 57.3956C190.031 58.0975 192.991 58.2505 196.462 58.43L196.59 58.4366C197.779 58.8236 199.003 59.3076 200.302 59.8214L200.352 59.8413C203.667 61.1531 207.409 62.6336 211.75 62.8339C211.687 62.895 211.624 62.9633 211.559 63.0357C207.463 64.8008 203.151 66.5129 198.684 68.2867L198.676 68.2899C192.275 70.8315 185.561 73.4977 178.761 76.609C177.738 77.0628 176.728 77.5096 175.731 77.9508L175.716 77.9574L175.709 77.9607L175.68 77.9736C161.114 84.4194 149.249 89.6701 136.719 97.9095C131.172 101.001 126.709 103.098 122.114 105.257L122.109 105.259C117.766 107.299 113.307 109.395 107.734 112.426L107.624 112.486L107.538 112.576C107.475 112.641 107.412 112.71 107.354 112.78C107.233 112.781 107.102 112.784 106.958 112.791L106.779 112.799L106.62 112.882C100.65 116.008 95.3117 118.357 90.0948 120.652L90.0859 120.656C85.6371 122.614 81.272 124.534 76.7067 126.856L76.6523 126.884L76.6027 126.92C74.5434 128.394 72.4381 129.282 70.2425 130.206L70.2091 130.22C67.6896 131.28 65.0602 132.386 62.493 134.487C57.8219 137.16 54.1252 138.449 49.9919 139.888L49.9851 139.891C47.0907 140.899 43.9824 141.982 40.2177 143.66C28.4215 147.58 16.7109 152.281 8.98102 158.647L8.90244 158.712L8.84236 158.794C8.42376 159.367 7.66067 159.818 6.68958 160.37L6.6575 160.388C6.241 160.625 5.7897 160.882 5.37159 161.169C5.36616 161.159 5.36062 161.15 5.35499 161.141C6.58046 158.878 6.49624 156.587 6.41843 154.47L6.41564 154.394C6.32267 151.859 6.25207 149.507 7.90543 147.045L7.98492 146.927L8.01913 146.788C13.103 126.222 19.5072 107.088 28.9469 86.6633L28.9589 86.6374L28.969 86.6107C29.6949 84.6959 30.3976 82.8834 31.0743 81.1379L31.0835 81.114C33.6346 74.5337 35.8211 68.8936 37.4238 62.4552C39.3792 57.5356 41.0665 52.8974 42.6866 48.4438L42.689 48.4373L42.6901 48.4343C45.2387 41.4282 47.6194 34.8853 50.6314 28.3589C51.2477 27.374 51.8197 26.4024 52.381 25.4488L52.3838 25.4441C53.9868 22.7213 55.5165 20.1267 57.8797 17.4873C58.9177 16.5312 61.0102 14.2735 62.8644 11.8413C63.8023 10.611 64.6944 9.31658 65.3622 8.107ZM65.8034 287.998C65.9202 288.056 66.0291 288.112 66.1232 288.165L66.0646 287.794C66.0603 287.796 66.0553 287.798 66.0497 287.8C66.0456 287.802 66.0413 287.804 66.0366 287.806C66.0125 287.817 65.9021 287.87 65.8034 287.998ZM67.0564 288.68C67.0882 288.569 67.1501 288.411 67.2587 288.194C71.9977 284.761 77.7577 281.868 83.6229 278.923C77.8622 281.816 72.2023 284.658 67.5123 288.011C67.4272 288.072 67.3431 288.133 67.2587 288.194C67.252 288.207 67.2449 288.22 67.2385 288.233C67.1421 288.43 67.0863 288.576 67.0564 288.68ZM83.6229 278.923C89.2402 276.102 94.9547 273.233 99.9605 269.793C94.9547 273.233 89.2416 276.102 83.6244 278.922L83.6229 278.923ZM253.592 204.481C257.418 203.788 259.236 203.043 262.241 201.81C261.693 202.035 261.184 202.243 260.696 202.438C258.59 203.279 256.859 203.868 253.948 204.416C253.831 204.438 253.713 204.459 253.592 204.481ZM295.512 196.097L295.506 196.217C295.513 196.091 295.52 195.974 295.526 195.865C295.57 195.091 295.591 194.721 295.423 194.483C295.336 194.359 295.197 194.271 294.984 194.181C295.194 194.27 295.331 194.356 295.419 194.478L295.423 194.483C295.591 194.721 295.57 195.091 295.526 195.865L295.524 195.889C295.52 195.956 295.516 196.025 295.512 196.097ZM294.352 193.953L294.337 193.948C290.43 186.004 286.297 178.436 282.203 170.94C276.263 160.062 270.404 149.333 265.428 137.812C264.626 135.965 263.948 134.105 263.275 132.257C261.547 127.516 259.845 122.848 256.145 118.634C254.215 116.882 252.527 114.261 251.009 111.345C249.594 108.627 248.327 105.653 247.147 102.885L247.145 102.88L247.146 102.883L247.147 102.885C247.243 103.109 247.338 103.334 247.434 103.56C247.491 103.692 247.547 103.825 247.604 103.958C248.653 106.41 249.775 108.975 251.009 111.345C252.527 114.261 254.215 116.882 256.145 118.634C258.169 120.939 259.594 123.38 260.753 125.893C260.772 125.933 260.79 125.973 260.808 126.013C260.838 126.078 260.867 126.143 260.897 126.208C261.631 127.834 262.259 129.489 262.872 131.157C262.957 131.389 263.042 131.621 263.127 131.854C263.176 131.988 263.225 132.122 263.274 132.257L263.275 132.257C263.948 134.105 264.626 135.965 265.428 137.812C270.404 149.333 276.263 160.062 282.203 170.94C286.297 178.436 290.43 186.004 294.337 193.948L294.352 193.953ZM246.057 107.302C241.075 103.538 238.494 94.4617 237.03 88.1636C232.298 80.9936 228.969 76.3651 223.531 69.8082C223.497 69.5391 223.3 69.3932 223.043 69.2024C222.724 68.9654 222.311 68.6592 222.002 67.9613C222.186 68.376 222.406 68.6533 222.622 68.859C222.769 68.9991 222.914 69.1065 223.043 69.2024C223.3 69.3932 223.497 69.5391 223.531 69.8082C228.969 76.3651 232.298 80.9936 237.03 88.1636C238.435 94.2076 240.868 102.81 245.465 106.821L245.49 106.843C245.675 107.004 245.865 107.157 246.057 107.302ZM12.6899 164.135L12.7081 164.132C12.7672 164.138 12.8519 164.146 12.9597 164.156C13.1869 164.178 13.5167 164.21 13.9259 164.251C14.7445 164.334 15.8803 164.453 17.1488 164.6C19.6948 164.895 22.7434 165.298 24.8402 165.736L24.8682 165.742C29.227 166.653 33.9196 167.633 39.1305 167.688C47.1472 169.347 55.6312 170.03 63.7599 170.685L63.7857 170.687C71.8973 171.341 79.6389 171.966 86.3242 173.483C91.933 175.133 97.9563 175.574 104.006 176.018L104.053 176.021C110.213 176.473 116.415 176.93 122.439 178.612L122.486 178.625L122.535 178.633C125.204 179.038 125.342 179.09 125.962 179.323L126.021 179.346C126.361 179.474 126.826 179.648 127.683 179.918C129.112 180.541 131.837 180.916 134.504 180.553C137.138 180.195 139.973 179.077 141.401 176.468C147.27 172.456 150.786 167.395 153.6 163.346L153.612 163.328L153.616 163.322L153.619 163.318L153.62 163.317C153.966 162.819 154.3 162.337 154.628 161.874C155.452 160.837 156.224 159.93 156.976 159.047L156.977 159.045C157.073 158.932 157.169 158.819 157.264 158.707C157.386 158.564 157.507 158.421 157.629 158.277C158.589 157.141 159.524 156.001 160.472 154.661L160.508 154.611L161.044 153.533C161.659 152.661 162.242 151.813 162.822 150.967L162.823 150.966C164.547 148.454 166.259 145.959 168.789 142.942L168.793 142.938L168.796 142.934C171.325 139.834 173.905 136.488 176.559 133.046L176.563 133.04C183.419 124.149 190.776 114.611 199.173 106.766L199.179 106.76L199.186 106.753C206.594 99.5012 211.236 92.7903 214.053 85.4104C218.337 79.4235 220.934 75.0949 222.397 69.7283C222.454 69.7726 222.508 69.8129 222.559 69.8501L222.561 69.8518C222.628 69.9019 222.674 69.936 222.713 69.9677C222.723 69.9753 222.731 69.982 222.738 69.9879L222.757 70.1425L222.908 70.3243C228.293 76.8171 231.598 81.4059 236.275 88.4881C237.007 91.6242 238.021 95.456 239.476 98.9908C240.925 102.514 242.854 105.849 245.469 107.871C245.494 107.899 245.522 107.927 245.553 107.954C245.743 108.119 246.051 108.229 246.381 108.112C246.624 108.026 246.754 107.855 246.797 107.796C246.853 107.718 246.889 107.642 246.911 107.593C246.99 107.412 247.048 107.166 247.093 106.955C247.18 106.549 247.271 105.99 247.359 105.436C248.267 107.536 249.238 109.695 250.291 111.718C251.813 114.642 253.543 117.352 255.566 119.201C259.132 123.277 260.786 127.792 262.514 132.533L262.518 132.544L262.519 132.546C263.19 134.387 263.874 136.264 264.685 138.134C269.676 149.688 275.55 160.445 281.484 171.311L281.493 171.327C285.588 178.826 289.712 186.379 293.611 194.305L293.759 194.606L294.092 194.719C294.41 194.827 294.592 194.889 294.718 194.947C294.727 194.951 294.735 194.955 294.742 194.959C294.744 194.973 294.745 194.99 294.746 195.011C294.752 195.15 294.745 195.337 294.729 195.629C293.006 196.172 291.85 196.023 290.862 195.896L290.801 195.888C290.287 195.822 289.708 195.747 289.135 195.835C288.559 195.923 288.027 196.163 287.506 196.617C283.734 197.404 280.782 197.575 277.884 197.743L277.875 197.743C273.926 197.971 270.092 198.193 264.608 199.982L264.585 199.99L264.562 199.999C263.571 200.39 262.714 200.742 261.94 201.059L261.933 201.062L261.905 201.074C258.298 202.553 256.46 203.307 250.621 204.136L250.568 204.143L250.517 204.158C247.216 205.081 244.205 205.898 241.354 206.671L241.342 206.675L241.334 206.677L241.329 206.678L241.328 206.678L241.319 206.681C234.834 208.441 229.173 209.977 222.856 212.01L222.838 212.015L222.821 212.022C217.701 213.936 212.478 215.255 207.209 216.585L207.168 216.595C199.352 218.567 191.44 220.564 183.87 224.578C166.527 231.839 153.58 237.763 136.68 247.757C123.119 254.537 109.505 261.656 99.4893 269.136C94.5402 272.534 88.8828 275.377 83.2604 278.2L83.2231 278.219C77.3844 281.151 71.5759 284.067 66.7837 287.539L66.7234 287.583C66.6364 287.526 66.5487 287.476 66.474 287.435C66.3359 287.36 66.1771 287.281 66.0278 287.206L66.0216 287.203C65.8422 287.114 65.6694 287.028 65.511 286.941L65.9534 286.755L65.5583 285.98C61.4394 277.906 57.1256 269.88 52.7912 261.815L52.7881 261.81C45.2289 247.745 37.6067 233.563 30.8076 218.744C26.4036 208.619 22.4237 202.681 16.6482 194.312C14.6038 189.01 11.731 184.571 9.12861 180.549L9.11226 180.524C7.77353 178.455 6.51288 176.506 5.45128 174.588C5.47358 174.442 5.45919 174.318 5.44703 174.245C5.41095 174.028 5.30297 173.785 5.23678 173.635L5.21985 173.597C5.03534 173.177 4.86135 172.758 4.87076 172.299L4.89679 171.031L4.33036 171.281C4.3714 171.057 4.42567 170.809 4.48464 170.541L4.49912 170.476C4.61833 169.935 4.76835 169.254 4.75663 168.734C4.751 168.484 4.70922 168.045 4.38857 167.716C4.37389 167.701 4.35905 167.686 4.34404 167.672C4.38125 167.576 4.42497 167.483 4.47767 167.396C4.61253 167.174 4.7645 167.057 5.00653 167.038L5.76898 166.977L5.75028 166.212C5.74018 165.799 5.81398 165.567 5.8946 165.43C5.97073 165.3 6.09425 165.183 6.32591 165.077C6.57095 164.965 6.908 164.879 7.36779 164.809C7.82521 164.74 8.35103 164.695 8.96564 164.642C9.5478 164.593 10.5177 164.459 11.3219 164.342C11.7284 164.283 12.0998 164.226 12.3694 164.185L12.5082 164.163C12.5807 164.152 12.642 164.143 12.6899 164.135ZM3.68875 171.561C3.68628 171.562 3.68483 171.562 3.68483 171.562L3.68727 171.562C3.68955 171.561 3.69343 171.56 3.69905 171.558C3.69461 171.559 3.69114 171.56 3.68875 171.561ZM186.575 116.212C187.879 114.718 189.179 113.228 190.465 111.742C192.157 108.737 195.267 105.739 198.592 102.533C200.459 100.733 202.393 98.8677 204.183 96.8989C208.82 91.4326 210.973 86.495 213.214 81.3554C214.61 78.1524 216.041 74.8705 218.129 71.3335C218.382 70.7189 218.593 70.2511 218.774 69.8515L218.774 69.8504C219.281 68.7258 219.545 68.1412 219.819 66.3465C219.882 65.8663 219.669 65.5285 219.464 65.204C219.149 64.7048 218.853 64.2371 219.614 63.3311C219.285 63.7229 219.153 64.033 219.135 64.2989C219.112 64.6476 219.285 64.9207 219.464 65.204C219.669 65.5285 219.882 65.8663 219.819 66.3465C219.545 68.1412 219.281 68.7258 218.774 69.8504C218.594 70.2504 218.383 70.7179 218.129 71.3335C216.041 74.8705 214.61 78.1524 213.214 81.3554C210.973 86.495 208.82 91.4326 204.183 96.8989C202.393 98.8677 200.459 100.733 198.592 102.533C195.267 105.739 192.157 108.737 190.465 111.742C189.187 113.219 187.895 114.7 186.599 116.185L186.575 116.212ZM216.718 63.877C216.552 63.8683 216.452 63.8316 216.452 63.7561C216.452 63.7737 216.457 63.7894 216.467 63.8029C216.502 63.8473 216.591 63.8704 216.718 63.877ZM185.935 115.717C177.074 125.875 167.958 136.327 161.425 147.445L105.579 172.617C100.273 171.841 95.0913 171.082 90.2531 170.204C80.1536 168.356 70.19 167.329 59.7599 166.255L59.7585 166.255L59.7429 166.253C55.8324 165.85 51.8557 165.441 47.7758 164.978C39.1502 163.049 29.1677 162.124 19.7986 161.256L19.7669 161.253C17.5771 161.05 15.4199 160.85 13.3178 160.641L13.0798 160.617L12.8673 160.727C12.8109 160.756 12.504 160.912 12.1731 161.01C12.0056 161.059 11.873 161.082 11.7855 161.082L11.7788 161.082L11.5273 160.855C11.6221 160.714 11.7199 160.566 11.8099 160.429C11.926 160.252 12.0338 160.087 12.1136 159.964L12.2312 159.915C12.4544 159.821 12.7757 159.685 13.1686 159.518C13.9541 159.182 15.0267 158.72 16.1744 158.21C18.4055 157.218 20.9959 156.016 22.2689 155.227C25.478 153.959 28.8605 152.421 32.129 150.935L32.1306 150.934L32.1407 150.929C34.6051 149.808 37.0036 148.718 39.2345 147.783C41.82 147.058 44.7454 145.865 47.706 144.658L47.7386 144.645C50.4351 143.545 53.171 142.43 55.7887 141.596C56.5049 141.571 57.2824 141.282 58.0836 140.902C58.9516 140.489 59.9711 139.906 61.1365 139.24L61.1613 139.225C62.4839 138.469 64.0249 137.588 65.8378 136.663L65.8591 136.652L65.8798 136.64C72.8184 132.564 80.175 129.358 89.9944 125.08L90.4136 124.898C93.6131 123.776 95.3938 122.727 96.9781 121.794C97.7862 121.318 98.5196 120.886 99.3704 120.482L99.3772 120.479C104.632 117.921 110.454 115.022 116.386 112.07L116.388 112.068C122.912 108.821 129.569 105.507 135.758 102.503L135.762 102.501L135.766 102.499C140.542 100.116 144.994 97.5657 149.257 95.1232L149.266 95.1182C154.271 92.2507 159.007 89.5378 163.755 87.3783L163.758 87.3771C165.082 86.7693 166.493 86.114 167.97 85.4283L167.974 85.4261C175.627 81.8725 185.043 77.5007 193.452 74.5437L193.47 74.5374L193.488 74.5301C196.065 73.484 199.385 71.9812 202.803 70.4341L202.818 70.4276C207.743 68.1985 212.858 65.8841 216.37 64.6408C216.548 64.6859 216.73 64.6897 216.864 64.6869C217.17 64.6804 217.549 64.627 217.91 64.5624C218.048 64.5379 218.188 64.5107 218.328 64.4818C218.363 64.9808 218.614 65.375 218.756 65.5987L218.78 65.6357C218.991 65.9709 219.036 66.0801 219.018 66.2347C218.761 67.912 218.528 68.429 218.049 69.4891L218.037 69.5172L218.036 69.5192C217.86 69.9082 217.652 70.3706 217.403 70.9721C215.306 74.5327 213.866 77.8362 212.478 81.0174L212.472 81.0323C210.234 86.1648 208.122 91.0018 203.575 96.3653C201.809 98.3073 199.897 100.151 198.03 101.951L197.959 102.019C194.715 105.148 191.559 108.19 189.801 111.274C188.533 112.738 187.252 114.206 185.966 115.681L185.963 115.684L185.935 115.717ZM105.601 172.62L161.425 147.445C154.102 158.024 148.204 165.637 138.618 174.193L138.459 174.335L138.391 174.536C138.274 174.879 137.87 175.325 137.089 175.782C136.34 176.221 135.369 176.594 134.35 176.854C133.331 177.114 132.303 177.25 131.45 177.237C130.545 177.224 130.023 177.047 129.824 176.872L129.669 176.737L129.467 176.692C121.793 174.988 113.569 173.785 105.619 172.623L105.601 172.62ZM208.866 57.9812C208.863 57.9781 208.862 57.9774 208.864 57.979L208.866 57.9812ZM242.855 162.124L243.107 161.893L243.148 160.479C244.272 159.977 245.421 159.707 246.61 159.43L246.665 159.418C248.023 159.102 249.465 158.767 250.772 157.996C250.855 157.952 250.913 157.906 250.935 157.888C250.984 157.849 251.026 157.809 251.061 157.775C251.13 157.706 251.203 157.623 251.273 157.54C251.415 157.372 251.579 157.158 251.737 156.937C251.894 156.717 252.054 156.478 252.184 156.259C252.295 156.073 252.444 155.802 252.5 155.555L252.709 154.621L251.753 154.571C251.419 154.554 250.872 154.56 250.397 154.58C250.157 154.59 249.922 154.604 249.731 154.622C249.637 154.631 249.542 154.642 249.459 154.656L249.453 154.657C249.404 154.665 249.251 154.69 249.109 154.761C246.388 156.123 243.048 157.803 240.475 159.387C240.053 159.636 239.632 159.885 239.21 160.134L238.652 160.463L238.646 160.466C233.189 163.685 227.815 166.855 222.964 169.974L222.96 169.976C217.907 173.268 212.809 176.745 207.889 180.1L207.887 180.101L207.885 180.103C206.636 180.954 205.399 181.798 204.176 182.629C204.015 182.731 203.926 182.785 203.871 182.818L203.87 182.818C203.84 182.836 203.751 182.887 203.67 182.954C203.617 182.998 203.572 183.046 203.555 183.064L203.552 183.068L204.043 183.536L203.284 183.331C202.936 183.639 202.601 184.012 202.459 184.39C202.397 184.554 202.268 185.011 202.602 185.408C202.854 185.709 203.194 185.756 203.413 185.752C203.418 185.755 203.429 185.762 203.501 185.836L203.513 185.848C203.573 185.911 203.722 186.064 203.927 186.169C204.156 186.286 204.401 186.323 204.65 186.296C204.775 186.296 204.873 186.274 204.912 186.265L204.916 186.265C205.015 186.243 205.115 186.211 205.202 186.18C205.38 186.117 205.579 186.031 205.758 185.948C205.94 185.865 206.117 185.777 206.255 185.704C206.323 185.668 206.388 185.632 206.443 185.599C206.455 185.591 206.469 185.583 206.484 185.573C206.501 185.562 206.519 185.551 206.537 185.538C206.543 185.534 206.55 185.529 206.558 185.523C206.561 185.52 206.565 185.518 206.568 185.515L206.577 185.509C208.617 184.178 210.452 182.564 212.222 181.006L212.243 180.987C213.606 179.788 214.93 178.623 216.319 177.596L216.323 177.593C219.832 174.967 223.816 173.088 227.928 171.152L227.976 171.129C233.08 168.725 238.369 166.235 242.855 162.124ZM204.284 183.513C204.344 183.477 204.443 183.418 204.621 183.305C205.847 182.471 207.088 181.624 208.34 180.77C213.263 177.414 218.355 173.941 223.402 170.654C228.239 167.544 233.6 164.381 239.063 161.159L240.893 160.079C241.108 159.947 241.328 159.814 241.553 159.681C241.719 159.582 241.889 159.482 242.061 159.383C242.477 159.142 242.906 158.9 243.344 158.658C245.361 157.545 247.558 156.441 249.471 155.484C246.741 156.85 243.43 158.516 240.893 160.079L240.253 160.458L239.622 160.83L239.063 161.159C233.6 164.381 228.239 167.544 223.402 170.654C218.355 173.941 213.263 177.414 208.34 180.77C207.088 181.624 205.847 182.471 204.621 183.305C204.443 183.418 204.344 183.477 204.284 183.513C204.231 183.545 204.209 183.558 204.189 183.575C204.186 183.577 204.183 183.58 204.18 183.582C204.176 183.586 204.173 183.589 204.168 183.593C204.16 183.602 204.151 183.611 204.139 183.624L204.138 183.625L204.137 183.626C204.093 183.672 204.015 183.754 203.829 183.928C203.208 184.477 203.001 184.944 203.385 184.944C203.114 184.944 203.136 184.713 203.389 184.385C203.433 184.328 203.485 184.268 203.542 184.206C203.552 184.195 203.562 184.185 203.572 184.174C203.582 184.164 203.592 184.153 203.602 184.143C203.67 184.073 203.746 184.002 203.829 183.928C204.015 183.754 204.093 183.672 204.137 183.626L204.138 183.625L204.043 183.536L204.189 183.575C204.209 183.558 204.231 183.545 204.284 183.513ZM209.722 192.613L211.295 192.859L210.897 192.089C213.704 190.268 215.814 188.557 217.815 186.936L217.824 186.929C219.938 185.216 221.921 183.61 224.507 182.029C228.549 179.582 233.32 177.059 238.135 174.513L238.15 174.505C243.329 171.767 248.561 169 252.927 166.298L252.985 166.263L253.036 166.218C253.192 166.081 253.298 165.91 253.361 165.802C253.428 165.686 253.495 165.552 253.554 165.434L253.561 165.42C253.699 165.146 253.84 164.866 254.034 164.594L254.642 163.738L253.659 163.369C253.649 163.365 253.628 163.355 253.562 163.325L253.546 163.317C253.38 163.24 253.063 163.092 252.659 163.052C252.221 163.009 251.738 163.094 251.223 163.382L251.218 163.384L250.656 163.689L250.645 163.695L250.643 163.696C246.472 165.956 242.648 168.029 238.849 170.39C236.178 172.019 233.238 173.602 230.194 175.241L230.183 175.247L230.18 175.249C226.957 176.985 223.621 178.781 220.414 180.739L220.41 180.742L220.406 180.745C218.478 181.953 216.738 183.302 214.993 184.654L214.979 184.665C213.034 186.173 211.075 187.69 208.776 189.099C208.211 189.421 208.02 189.921 207.906 190.218L207.891 190.257C207.779 190.546 207.693 190.761 207.444 191.003L205.977 192.437L208.028 192.39C208.662 192.376 209.04 192.464 209.352 192.537L209.356 192.538L209.368 192.54C209.472 192.565 209.598 192.594 209.722 192.613ZM251.613 164.09L251.042 164.399L251.041 164.4C246.861 166.665 243.054 168.729 239.274 171.078C236.58 172.721 233.619 174.315 230.578 175.953C227.347 177.693 224.025 179.482 220.836 181.429C218.942 182.617 217.229 183.945 215.475 185.304C213.53 186.812 211.534 188.359 209.187 189.796C208.868 189.973 208.767 190.235 208.646 190.548C208.527 190.855 208.39 191.211 208.01 191.582C208.297 191.302 208.445 191.031 208.551 190.782C208.586 190.702 208.616 190.624 208.645 190.549L208.646 190.548C208.767 190.235 208.868 189.973 209.187 189.796C211.534 188.359 213.53 186.812 215.475 185.304C217.229 183.945 218.942 182.617 220.836 181.429C224.024 179.483 227.343 177.695 230.572 175.956L230.575 175.954L230.576 175.954L230.578 175.953C233.619 174.315 236.58 172.721 239.274 171.078C243.054 168.729 246.861 166.665 251.041 164.4L251.042 164.399L251.613 164.09ZM208.836 191.619C208.895 191.626 208.951 191.634 209.005 191.642C209.216 191.675 209.389 191.715 209.539 191.75C209.645 191.775 209.74 191.797 209.827 191.812L209.847 191.815C209.809 191.809 209.771 191.801 209.73 191.793C209.671 191.781 209.607 191.766 209.539 191.75C209.351 191.706 209.127 191.654 208.836 191.619Z"
        fill="white" />
</svg>