<svg width="154" height="647" viewBox="0 0 154 647" fill="none" xmlns="http://www.w3.org/2000/svg">
<path d="M0 0H148.315V10.1094V20.2187L147.451 25.2252L148.315 30.3281L149.421 35.9982L146.937 42.3683L147.451 48.9423L146.505 55.0673L146.937 58.248L145.559 61.1922L146.505 64.7783L144.666 68.2614L145.559 71.3086L143.774 75.3306L145.097 78.8185L146.505 81.7571L145.139 85.7482L143.774 89.8384L144.666 94.328L145.559 97.1033L146.505 99.8787L145.559 103.226L146.032 106.98L145.139 110.572L145.559 114.08L147.305 117.018L145.559 121.837L147.305 126.95L149.218 131.147L148.434 135.903L147.305 140.733L149.218 144.886L150.578 149.454L149.218 153.773L150.578 157.012L152.151 160.417L151.539 163.49L153.325 166.276L152.151 170.633L153.325 173.433L152.151 176.019V179.528L152.914 182.176L152.339 184.677V187.224L151.36 188.887L153.325 189.933L152.151 191.534L152.339 194.366L150.327 198.277L149.741 200.769L148.315 202.187L149.288 204.094L147.626 206.453L148.315 208.834L146.957 212.097L147.626 215.114L146.592 217.182L145.559 219.25L145.986 221.333L144.87 223.515L145.559 227.92L144.87 230.018L145.559 232.969L144.496 234.754L142.803 236.312L144.181 239.31V242.506L143.331 245.528L144.87 248.607L145.731 251.727L144.87 254.763L146.633 257.842L147.54 261.105L146.947 267.356L146.355 273.607L143.331 279.271L142.803 284.849L146.633 294.147L144.718 302.63V307.459L142.803 311.113L143.377 315.808L145.428 320.801V327.511L143.377 332.427L147.808 339.839L151.172 344.286L150.598 347.641L152.01 351.133L151.583 354.039L153.306 358.799L151.583 363.246L152.01 368.63L152.699 371.594L150.82 376.384V379.138L150.193 381.268L150.82 383.73L149.567 386.151L148.628 388.368L149.825 389.806L148.628 392.033L148.941 393.702L150.193 395.372L148.941 397.58L149.567 399.361L148.941 401.457L150.193 403.953L149.567 406.995L148.941 408.962L149.825 410.539L150.193 412.534L149.191 413.879L150.82 418.073L150.193 420.836L151.446 423.611L151.093 426.078L151.583 427.614L152.072 429.15L151.583 431.875L152.072 433.499L152.699 434.688L152.072 437.488L152.699 438.857L153.325 440.227L152.667 443.026L152.41 445.697L152.072 447.506L151.142 449.083L150.695 451.423V453.443L150.037 455.232L150.41 456.644L149.727 457.943L148.722 459.82L149.386 462.071L148.974 463.504L149.386 465.178L148.152 466.372L148.722 468.286L148.152 470.466L147.337 471.95L146.679 475.273L146.383 477.101L145.07 478.481L145.385 480.018L143.936 481.746L144.202 483.393L142.803 485.012L143.46 487.245L144.202 488.779L143.936 491.406L145.07 493.747V496.04L146.521 497.329L146.169 498.906L147.406 500.645L147.676 502.918L148.731 504.16V506.644L149.541 507.73L148.731 508.77L149.312 510.366L150.024 511.405L150.501 511.831L150.854 512.946L150.501 513.872L151.296 515.178L151.932 515.613L151.525 516.411L152.415 517.209L152.135 518.201L152.972 518.999L152.644 519.603L152.972 520.74L152.415 522.978L153.149 524.881L152.644 527.404L153.149 528.776L152.644 530.989L153.082 533.248L153.104 535.749L152.36 538.442L153.557 541.013L153.082 543.5L152.36 547.083L154 547.799L152.644 551.213L153.557 553.911L152.984 555.989L154 558.294L152.984 560.149L151.712 565.05L152.644 567.749L150.439 569.951L151.057 572.613L150.439 574.848L151.712 576.82L149.803 578.286L147.894 579.753L147.257 582.203L146.621 584.654L147.257 587.402L145.348 589.555L146.621 592.463L144.076 594.455L145.348 596.999L142.803 599.356L143.492 605.312L145.348 608.609L143.492 612.209L145.559 618.563L147.894 625.129L147.257 631.8L145.559 636.142L147.626 641.045L148.315 647H0V0Z" fill="white"/>
</svg>
