<svg width="224" height="50" viewBox="0 0 224 50" fill="none" xmlns="http://www.w3.org/2000/svg">
<g clip-path="url(#clip0_815_2246)">
<path d="M0 13.1543H7.10298L13.2957 30.9118L19.4885 13.1543H26.2035L16.6681 38.5744H9.4607L0 13.1543Z" fill="white"/>
<path d="M42.3196 35.0758C41.3468 36.3499 40.0853 37.3748 38.639 38.0662C37.1927 38.7575 35.6029 39.0956 34.0005 39.0525C29.4343 39.0525 25.7932 36.4188 25.7932 31.5467C25.7932 26.3239 30.2699 24.287 35.5897 23.0708L42.0809 21.5786C41.5213 19.0418 39.7978 17.9749 37.2088 17.9749C34.3213 17.9749 32.4411 19.2433 31.7323 21.8323L25.5918 20.7131C26.8602 15.8932 30.919 12.5059 37.3132 12.5059C44.0655 12.5059 48.5049 16.0574 48.5049 23.1604V38.4855H42.8195L42.3196 35.0758ZM35.3733 33.8298C38.7681 33.8298 42.2226 31.6511 42.2226 27.0327V26.4731L35.9777 27.9653C33.8438 28.4727 32.3217 29.2337 32.3217 31.1139C32.3217 32.9941 33.5453 33.8298 35.3733 33.8298Z" fill="white"/>
<path d="M52.9805 13.1546H59.024L59.3821 16.139C60.1739 15.0318 61.2272 14.1377 62.4483 13.5362C63.6694 12.9348 65.0203 12.6448 66.3806 12.692C67.2215 12.6869 68.0586 12.8051 68.8652 13.0427L68.1191 19.3399C67.2592 19.1186 66.3731 19.0157 65.4853 19.0339C62.1353 19.0339 59.4418 21.317 59.4418 25.4804V38.5671H52.9805V13.1546Z" fill="white"/>
<path d="M82.7368 18.7877L79.2376 38.5745H72.7912L76.2904 18.7877H69.6426L70.0007 16.7582L73.4477 13.1545H77.3051L77.917 9.69998C79.0361 3.10435 83.6471 0.000540392 88.9296 0.000540392C90.574 -0.0156192 92.2019 0.330824 93.6972 1.01524L91.4141 6.34994C90.7123 6.02949 89.9472 5.87138 89.1758 5.88736C87.9621 5.82261 86.7706 6.23124 85.8522 7.02725C84.9337 7.82325 84.3599 8.94458 84.2515 10.1551L83.7441 13.1396H92.5258L91.5559 18.7727L82.7368 18.7877Z" fill="white"/>
<path d="M89.6152 27.8159C89.6152 19.9519 95.5841 12.5952 104.284 12.5952C107.328 12.5952 109.917 13.6099 111.693 16.3258L112.707 13.1324H118.49L114.013 38.5525H108.335L108.484 35.4113C107.459 36.5946 106.183 37.5351 104.75 38.1648C103.316 38.7945 101.76 39.0977 100.195 39.0524C93.6442 39.0524 89.6152 34.4638 89.6152 27.8159ZM109.813 24.5181C109.813 20.7876 107.88 18.3776 104.179 18.3776C99.3595 18.3776 96.0094 22.5409 96.0094 27.2638C96.0094 30.9123 98.0388 33.3521 101.695 33.3521C106.589 33.3521 109.835 29.1366 109.835 24.5181H109.813Z" fill="white"/>
<path d="M123.28 13.1544H128.764V15.639C129.673 14.654 130.781 13.8733 132.015 13.3485C133.248 12.8237 134.579 12.5668 135.919 12.5948C137.308 12.5661 138.676 12.9323 139.865 13.6508C141.054 14.3693 142.014 15.4107 142.634 16.6537C143.639 15.3699 144.926 14.3356 146.397 13.6316C147.867 12.9275 149.48 12.5727 151.11 12.5948C156.437 12.5948 160.25 16.7582 159.026 23.5552L156.392 38.5745H149.976L152.565 23.7119C153.169 20.3097 151.647 18.3772 148.909 18.3772C146.171 18.3772 143.985 20.3619 143.38 23.9656L140.791 38.5745H134.382L136.971 23.7119C137.628 20.3097 136.053 18.3772 133.367 18.3772C130.831 18.3772 128.495 20.056 127.936 23.406L125.25 38.5745H118.855L123.28 13.1544Z" fill="white"/>
<path d="M165.1 13.147H171.546L167.077 38.5745H160.578L165.1 13.147Z" fill="white"/>
<path d="M169.719 1.38099C170.486 1.38541 171.234 1.61659 171.87 2.04542C172.506 2.47426 173.001 3.08158 173.292 3.79096C173.583 4.50034 173.659 5.28007 173.508 6.03203C173.357 6.78399 172.987 7.47456 172.445 8.01685C171.903 8.55914 171.212 8.92889 170.46 9.0796C169.708 9.2303 168.929 9.15522 168.219 8.86379C167.51 8.57235 166.903 8.0776 166.474 7.44178C166.045 6.80597 165.814 6.05751 165.809 5.29061C165.784 4.77041 165.867 4.25061 166.055 3.76466C166.242 3.27872 166.529 2.8374 166.897 2.46912C167.266 2.10084 167.707 1.81374 168.193 1.62633C168.679 1.43892 169.199 1.35535 169.719 1.38099Z" fill="white"/>
<path d="M178.493 0.515625H184.991L178.276 38.5673H171.785L178.493 0.515625Z" fill="white"/>
<path d="M190.932 13.155L195.244 30.0992L204.578 13.1475H211.636L190.678 49.7071H183.672L190.678 37.5753L184.075 13.1177L190.932 13.155Z" fill="white"/>
<path d="M223.998 5.97727C224.028 7.07873 223.728 8.16398 223.137 9.09415C222.547 10.0243 221.692 10.7571 220.683 11.1986C219.673 11.6402 218.555 11.7705 217.471 11.5728C216.387 11.3752 215.386 10.8585 214.598 10.089C213.809 9.31957 213.268 8.33224 213.044 7.25346C212.819 6.17468 212.922 5.05351 213.339 4.03344C213.755 3.01337 214.467 2.14082 215.382 1.52744C216.297 0.914071 217.375 0.587795 218.477 0.590364C219.194 0.576514 219.908 0.705403 220.575 0.969545C221.242 1.23369 221.85 1.6278 222.364 2.12902C222.878 2.63023 223.287 3.22854 223.567 3.88917C223.848 4.5498 223.994 5.25957 223.998 5.97727ZM214.299 5.97727C214.281 6.53907 214.378 7.09854 214.582 7.62219C214.786 8.14584 215.094 8.62291 215.487 9.02484C215.88 9.42677 216.35 9.74533 216.869 9.9614C217.387 10.1775 217.945 10.2866 218.507 10.2824C219.605 10.2177 220.636 9.73593 221.391 8.93568C222.145 8.13542 222.566 7.07713 222.566 5.97727C222.566 4.87742 222.145 3.81913 221.391 3.01887C220.636 2.21862 219.605 1.73688 218.507 1.67221C217.946 1.66998 217.39 1.78062 216.872 1.9975C216.355 2.21438 215.886 2.5331 215.494 2.93472C215.102 3.33633 214.795 3.81263 214.591 4.33532C214.387 4.858 214.29 5.41638 214.306 5.97727H214.299ZM217.619 8.80507H216.365V3.41067C217.05 3.29106 217.744 3.2361 218.439 3.24652C219.089 3.19384 219.74 3.33124 220.312 3.64196C220.483 3.7877 220.619 3.97003 220.709 4.17543C220.799 4.38083 220.842 4.60399 220.835 4.82828C220.812 5.1293 220.691 5.4145 220.49 5.63974C220.289 5.86498 220.019 6.0177 219.723 6.07427V6.14144C219.991 6.24997 220.224 6.42959 220.398 6.661C220.571 6.8924 220.679 7.16682 220.708 7.45461C220.761 7.92417 220.895 8.38104 221.103 8.80507H219.753C219.547 8.38824 219.403 7.9432 219.327 7.48444C219.23 6.89501 218.895 6.63386 218.208 6.63386H217.619V8.80507ZM217.619 5.74598H218.208C218.902 5.74598 219.462 5.51469 219.462 4.9551C219.462 4.39552 219.096 4.1344 218.313 4.1344C218.08 4.13157 217.847 4.15406 217.619 4.20152V5.74598Z" fill="white"/>
</g>
<defs>
<clipPath id="clip0_815_2246">
<rect width="224" height="50" fill="white"/>
</clipPath>
</defs>
</svg>
