<svg width="156" height="35" viewBox="0 0 156 35" fill="none" xmlns="http://www.w3.org/2000/svg">
<path d="M0 9.16113H4.94672L9.25951 21.528L13.5723 9.16113H18.2488L11.6082 26.8644H6.5887L0 9.16113Z" fill="black"/>
<path d="M29.474 24.4278C28.7964 25.3151 27.9179 26.0289 26.9107 26.5104C25.9034 26.9919 24.7963 27.2273 23.6803 27.1973C20.5002 27.1973 17.9645 25.3631 17.9645 21.97C17.9645 18.3327 21.0822 16.9142 24.787 16.0672L29.3077 15.028C28.918 13.2613 27.7177 12.5183 25.9146 12.5183C23.9037 12.5183 22.5943 13.4016 22.1006 15.2046L17.8242 14.4252C18.7076 11.0685 21.5343 8.70947 25.9873 8.70947C30.6899 8.70947 33.7816 11.1828 33.7816 16.1296V26.8024H29.8221L29.474 24.4278ZM24.6363 23.56C27.0006 23.56 29.4064 22.0428 29.4064 18.8264V18.4367L25.0572 19.4759C23.5711 19.8292 22.5111 20.3592 22.5111 21.6686C22.5111 22.9781 23.3633 23.56 24.6363 23.56Z" fill="black"/>
<path d="M36.8984 9.16107H41.1073L41.3567 11.2395C41.9081 10.4684 42.6417 9.84572 43.4921 9.42687C44.3425 9.00801 45.2833 8.80603 46.2307 8.83891C46.8163 8.83538 47.3993 8.91768 47.961 9.08314L47.4414 13.4687C46.8425 13.3146 46.2254 13.2429 45.6072 13.2556C43.2741 13.2556 41.3983 14.8457 41.3983 17.7451V26.8591H36.8984V9.16107Z" fill="black"/>
<path d="M57.6192 13.0843L55.1822 26.8644H50.6928L53.1298 13.0843H48.5L48.7494 11.6709L51.15 9.16116H53.8364L54.2625 6.75534C55.0419 2.16195 58.2531 0.000376344 61.932 0.000376344C63.0773 -0.0108776 64.2109 0.230395 65.2523 0.707044L63.6623 4.42228C63.1735 4.19911 62.6407 4.08899 62.1035 4.10012C61.2582 4.05503 60.4285 4.33961 59.7888 4.89397C59.1492 5.44834 58.7495 6.22926 58.674 7.07233L58.3207 9.15079H64.4366L63.7611 13.0739L57.6192 13.0843Z" fill="black"/>
<path d="M62.4102 19.3716C62.4102 13.8949 66.5671 8.77148 72.6258 8.77148C74.7458 8.77148 76.5488 9.47816 77.7855 11.3696L78.4922 9.14562H82.5192L79.4015 26.8489H75.4473L75.5512 24.6613C74.837 25.4853 73.9485 26.1403 72.9501 26.5789C71.9517 27.0174 70.8683 27.2286 69.7783 27.197C65.2161 27.197 62.4102 24.0014 62.4102 19.3716ZM76.4761 17.0749C76.4761 14.4769 75.1303 12.7985 72.553 12.7985C69.1963 12.7985 66.8633 15.698 66.8633 18.9871C66.8633 21.528 68.2766 23.2271 70.8227 23.2271C74.2314 23.2271 76.4917 20.2913 76.4917 17.0749H76.4761Z" fill="black"/>
<path d="M85.8567 9.16117H89.6759V10.8915C90.3091 10.2055 91.0807 9.66181 91.9397 9.29634C92.7988 8.93087 93.7256 8.75195 94.659 8.77146C95.6261 8.75142 96.5791 9.00644 97.407 9.50686C98.2349 10.0073 98.9037 10.7325 99.3355 11.5982C100.035 10.7041 100.932 9.98381 101.956 9.49348C102.98 9.00315 104.103 8.75603 105.238 8.77146C108.948 8.77146 111.604 11.6709 110.751 16.4046L108.917 26.8644H104.448L106.252 16.5137C106.672 14.1443 105.612 12.7985 103.705 12.7985C101.798 12.7985 100.276 14.1807 99.8551 16.6904L98.0521 26.8644H93.5886L95.3916 16.5137C95.8489 14.1443 94.7525 12.7985 92.8819 12.7985C91.1152 12.7985 89.4888 13.9676 89.0991 16.3007L87.2285 26.8644H82.7754L85.8567 9.16117Z" fill="black"/>
<path d="M114.981 9.15625H119.47L116.358 26.8647H111.832L114.981 9.15625Z" fill="black"/>
<path d="M118.197 0.961645C118.731 0.964729 119.252 1.12573 119.695 1.42438C120.138 1.72303 120.482 2.14599 120.685 2.64002C120.888 3.13405 120.94 3.67708 120.835 4.20076C120.73 4.72445 120.473 5.20538 120.095 5.58305C119.718 5.96072 119.237 6.21822 118.713 6.32318C118.189 6.42813 117.646 6.37585 117.152 6.17288C116.658 5.96991 116.235 5.62535 115.937 5.18256C115.638 4.73976 115.477 4.21851 115.474 3.68442C115.456 3.32213 115.514 2.96013 115.645 2.6217C115.775 2.28328 115.975 1.97593 116.232 1.71945C116.488 1.46297 116.796 1.26302 117.134 1.13251C117.472 1.00199 117.834 0.943794 118.197 0.961645Z" fill="black"/>
<path d="M124.308 0.358887H128.834L124.157 26.8592H119.637L124.308 0.358887Z" fill="black"/>
<path d="M132.97 9.16123L135.973 20.9617L142.474 9.15606H147.389L132.793 34.6171H127.914L132.793 26.1682L128.195 9.13525L132.97 9.16123Z" fill="black"/>
<path d="M155.999 4.16246C156.019 4.92954 155.811 5.68534 155.399 6.33314C154.988 6.98093 154.393 7.49125 153.69 7.79877C152.987 8.10629 152.208 8.19704 151.453 8.05937C150.698 7.9217 150.001 7.5619 149.452 7.02601C148.903 6.49012 148.526 5.80252 148.37 5.05123C148.214 4.29994 148.285 3.51912 148.575 2.80871C148.865 2.09831 149.361 1.49064 149.998 1.06347C150.636 0.636298 151.386 0.409069 152.154 0.410859C152.653 0.401213 153.15 0.490975 153.615 0.674931C154.08 0.858888 154.503 1.13336 154.861 1.48242C155.219 1.83148 155.503 2.24816 155.699 2.70824C155.894 3.16832 155.996 3.66263 155.999 4.16246ZM149.244 4.16246C149.232 4.55371 149.299 4.94334 149.441 5.30802C149.583 5.67271 149.798 6.00495 150.071 6.28487C150.345 6.56479 150.672 6.78663 151.034 6.93711C151.395 7.08759 151.783 7.16362 152.174 7.16064C152.939 7.1156 153.658 6.78009 154.183 6.22277C154.708 5.66545 155.001 4.92843 155.001 4.16246C155.001 3.39648 154.708 2.65946 154.183 2.10214C153.658 1.54482 152.939 1.20933 152.174 1.16429C151.784 1.16274 151.396 1.23978 151.036 1.39083C150.676 1.54187 150.349 1.76384 150.076 2.04353C149.804 2.32323 149.59 2.65494 149.447 3.01895C149.305 3.38296 149.238 3.77183 149.249 4.16246H149.244ZM151.556 6.13181H150.683V2.375C151.16 2.2917 151.644 2.25342 152.128 2.26068C152.58 2.22399 153.033 2.31968 153.432 2.53608C153.551 2.63757 153.645 2.76456 153.708 2.9076C153.771 3.05064 153.801 3.20606 153.796 3.36226C153.78 3.5719 153.696 3.77052 153.556 3.92739C153.416 4.08425 153.228 4.19061 153.021 4.23001V4.27679C153.208 4.35237 153.371 4.47746 153.491 4.63862C153.612 4.79978 153.687 4.99089 153.707 5.19131C153.744 5.51833 153.837 5.83651 153.983 6.13181H153.042C152.899 5.84152 152.799 5.53159 152.746 5.21209C152.678 4.80159 152.445 4.61972 151.967 4.61972H151.556V6.13181ZM151.556 4.00138H151.967C152.45 4.00138 152.84 3.8403 152.84 3.45059C152.84 3.06088 152.585 2.87902 152.039 2.87902C151.877 2.87706 151.715 2.89272 151.556 2.92577V4.00138Z" fill="black"/>
</svg>
