<svg width="1008" height="726" viewBox="0 0 1008 726" fill="none" xmlns="http://www.w3.org/2000/svg">
<g clip-path="url(#clip0_729_636)">
<path d="M406.389 480.022C406.337 485.535 402.801 489.176 399.464 492.929C399.301 493.107 399.084 493.321 398.875 493.351C395.984 493.802 393.089 494.241 390.195 494.651C388.888 494.841 387.509 494.755 386.284 495.146C383.264 496.094 380.443 497.085 377.088 495.965C375.371 495.394 373.016 495.902 371.206 496.589C364.817 499.015 358.096 498.943 351.485 499.714C347.135 500.222 342.786 500.8 338.057 501.395C339.805 503.326 341.394 505.309 343.231 507.051C346.77 510.411 350.427 513.653 354.08 516.883C355.143 517.82 356.439 518.48 357.483 519.439C358.808 520.642 359.94 522.05 361.215 523.302C362.459 524.511 363.727 525.71 365.084 526.79C368.662 529.635 372.308 532.41 375.911 535.216C377.417 536.388 378.927 537.571 380.414 538.763C383.397 541.173 386.463 543.479 389.314 546.039C391.599 548.097 394.348 549.632 396.529 551.538C399.687 554.305 403.345 555.994 406.663 558.308C409.128 560.028 411.903 561.289 414.349 563.031C415.66 563.963 417.365 565.385 417.485 566.723C417.71 569.029 416.65 571.544 414.16 572.398C411.44 573.334 408.547 573.98 405.685 574.266C400.096 574.825 395.476 577.58 391.086 579.644C392.196 582.35 393.134 584.67 394.095 586.979C395.18 589.557 396.505 591.842 399.24 593.174C400.383 593.732 401.205 595.128 401.97 596.284C403.254 598.197 404.167 600.388 405.592 602.175C409.199 606.713 412.861 611.215 414.77 616.782C415.876 620.017 422.257 622.267 426.09 620.5C428.489 619.392 431.081 618.55 433.56 619.863C434.799 620.52 435.804 621.924 436.513 623.214C437.13 624.347 437.013 625.851 437.526 627.069C438.519 629.421 437.3 630.739 435.721 632.191C430.023 637.384 422.564 639.736 416.497 644.333C415.712 644.918 414.807 645.345 414.017 645.919C411.86 647.483 410.567 646.391 409.315 644.589C407.617 642.138 405.659 639.863 404.039 637.366C400.932 632.594 395.307 630.603 391.953 626.141C391.163 625.093 390.373 624.044 389.606 622.986C389.064 622.238 388.68 621.369 388.062 620.707C382.927 615.146 377.674 609.702 372.638 604.044C369.937 601.006 367.619 597.617 365.41 594.765C357.5 598.01 349.775 601.234 341.997 604.327C340.557 604.904 338.906 604.93 336.726 605.324C336.745 607.397 336.401 609.631 336.845 611.695C338.704 620.279 337.063 628.98 337.977 637.59C338.432 641.91 338.709 646.233 339.003 650.564C339.238 654.142 339.323 657.726 339.545 661.309C339.679 663.459 339.998 665.588 340.144 667.733C340.307 670.259 340.697 672.831 340.319 675.288C340.141 676.442 338.6 677.92 337.387 678.307C330.795 680.373 324.166 682.315 317.455 683.958C313.691 684.879 310.349 683.116 307.544 680.702C304.627 678.183 304.806 674.296 307.498 671.334C309.419 669.229 311.11 666.899 312.913 664.676C313.172 664.362 313.422 663.788 313.693 663.774C317.024 663.586 316.465 661.042 316.196 659.17C315.654 655.315 314.858 651.482 313.86 647.732C313.352 645.819 312.248 644.039 311.259 642.268C309.448 639.003 310.246 635.612 311.278 632.554C312.572 628.751 312.348 625.265 311.136 621.603C310.459 619.579 310.14 617.45 309.557 614.915C307.184 615.75 304.65 616.665 302.091 617.52C295.854 619.607 289.607 621.67 283.365 623.745C283.047 623.848 282.748 623.998 282.427 624.06C281.375 624.298 280.308 624.5 279.25 624.726C279.059 623.584 278.701 622.441 278.705 621.302C278.783 615.683 281.119 610.163 279.491 604.438C279.285 603.732 279.361 602.939 279.371 602.186C279.424 598.905 279.957 598.312 283.274 597.853C284.027 591.887 284.897 585.901 285.48 579.893C285.868 575.907 285.989 571.878 285.958 567.884C285.906 561.915 285.509 555.949 285.475 549.987C285.459 546.402 285.841 542.807 286.032 539.22C286.064 538.555 286.333 537.724 286.041 537.248C284.313 534.421 284.506 531.277 284.361 528.189C284.319 527.139 284.271 526.077 284.219 524.531C281.921 526.361 279.932 528.064 277.83 529.592C275.2 531.489 272.365 533.123 269.781 535.098C265.776 538.169 261.906 541.434 257.985 544.609C255.085 546.964 252.181 549.306 249.276 551.648C247.6 553.001 245.776 554.193 244.228 555.688C240.987 558.833 235.559 559.853 231.461 557.901C226.003 555.301 224.016 552.247 224.982 546.596C225.737 542.154 226.153 537.394 230.098 534.209C230.819 533.636 231.723 533.307 232.465 532.753C233.718 531.823 235.082 530.959 236.071 529.79C239.325 526.001 242.131 521.731 247.043 519.757C247.197 519.694 247.411 519.606 247.443 519.482C249.191 514.218 254.624 512.266 257.622 508.055C259.874 504.899 262.972 502.353 265.569 499.43C267.186 497.629 268.735 495.732 270.04 493.713C272.625 489.713 275.455 485.973 278.685 482.43C280.795 480.109 281.779 476.766 283.192 473.829C283.723 472.724 284.593 471.299 284.278 470.361C283.619 468.385 282.205 466.76 279.81 466.495C277.587 466.242 275.349 466.022 273.157 465.576C270.088 464.95 267.067 464.137 264.514 463.52C265.497 466.458 266.778 469.885 267.772 473.387C268.748 476.814 267.619 478.081 264.048 477.854C258.71 477.506 253.387 476.958 248.047 476.708C245.825 476.593 243.545 476.877 241.339 477.241C239.052 477.61 237.387 476.726 236.096 475.065C234.774 473.361 234.825 471.427 235.923 469.645C237.134 467.665 238.827 465.917 239.759 463.829C241.504 459.91 242.86 455.818 244.364 451.818C241.808 451.161 239.294 450.639 236.869 449.859C234.364 449.056 233.614 447.159 234.645 444.809C235.557 442.743 236.727 440.766 237.398 438.619C238.51 435.015 240.357 434.618 244.136 436.063C244.095 433.903 244.25 431.815 243.986 429.788C242.322 416.577 247.611 406.739 258.394 399.488C259.868 398.523 261.21 397.57 262.572 396.637C266.747 394.925 270.933 393.208 275.107 391.496C281.068 390.354 286.68 391.338 292.043 394.144C293.15 394.716 294.328 395.19 295.532 395.556C299.58 396.779 302.907 399.048 305.605 402.281C306.984 403.92 308.375 405.554 309.792 407.219C312.016 404.13 314.866 403.613 318.469 405.407C320.172 406.248 322.017 406.794 323.68 407.707C324.823 408.333 326.043 409.178 326.676 410.25C327.493 411.634 327.009 413.053 325.674 414.224C324.075 415.629 322.657 417.237 321.152 418.769C321.079 419.201 321 419.649 320.928 420.081C325.649 421.763 330.394 423.367 335.067 425.166C337.465 426.082 339.834 427.163 342.036 428.478C344.298 429.838 344.793 432.159 343.123 434.202C340.037 437.992 336.636 441.522 333.441 445.218C331.278 447.713 329.298 450.384 327.113 452.86C325.921 454.209 324.474 455.343 322.673 456.997L316.991 443.146C316.241 444.189 315.946 444.684 315.574 445.128C312.449 448.892 309.61 452.982 306.052 456.299C303.996 458.21 304.199 459.652 304.963 461.682C305.792 463.907 307.488 463.683 309.313 463.337C310.019 463.2 310.786 463.246 311.494 463.385C320.902 465.211 330.308 467.066 339.727 468.887C340.431 469.015 341.19 468.939 341.908 468.866C343.349 468.733 344.811 468.244 346.208 468.406C351.634 469.037 356.892 471.012 362.53 469.864C365.833 469.203 369.205 468.471 372.598 469.922C373.435 470.272 374.573 470.041 375.555 469.902C378.111 469.547 380.654 469.058 383.217 468.687C385.494 468.362 387.838 467.692 390.061 467.945C392.878 468.26 395.626 469.351 398.392 470.116C398.516 470.149 398.656 470.355 398.702 470.502C399.46 473.533 402.148 474.275 404.507 475.4L406.416 480.053L406.389 480.022ZM287.27 466.984C288.078 468.109 288.829 469.839 290.129 470.845C293.538 473.482 293.359 475.039 290.364 478.208C286.789 481.99 280.797 483.325 279.25 489.145C279.144 489.563 278.549 489.835 278.205 490.212C269.154 500.233 259.472 509.695 251.993 521.083C250.353 523.571 247.871 525.796 245.298 527.323C242.29 529.111 239.705 531.184 237.452 533.799C235.709 535.832 230.824 544.491 230.219 547.138C230.013 548.054 230.04 549.166 230.383 550.038C231.519 552.941 236.339 554.154 238.867 552.312C239.541 551.828 240.34 551.514 240.998 551.022C244.322 548.522 249.051 549.175 252.084 545.962C255.328 542.524 258.698 539.187 261.991 535.798C262.146 535.637 262.174 535.334 262.227 535.091C263.071 531.237 266.439 529.924 269.304 528.125C269.786 527.816 270.724 527.737 271.193 528.002C273.643 529.382 274.489 527.662 275.739 526.082C278.088 523.094 280.612 520.229 283.241 517.486C284.63 516.043 286.447 516.587 286.855 518.528C287.439 521.269 288 524.09 288.035 526.876C288.098 531.287 288.338 535.418 292.076 538.585C293.731 539.986 293.826 541.875 293.042 544.082C292.531 545.54 292.716 547.544 293.284 549.03C294.43 552.026 294.391 555.107 293.107 557.685C291.426 561.051 290.715 564.351 291.075 568.031C291.829 575.916 291 583.689 289.312 591.397C287.481 599.802 285.696 608.216 283.938 616.632C283.564 618.422 284.295 619.495 286.25 618.957C290.762 617.73 295.293 616.551 299.715 615.07C303.116 613.938 306.312 612.239 309.694 611.06C312.774 609.991 313.383 610.698 313.359 613.883C313.35 616.022 313.591 618.197 314.034 620.289C315.056 625.111 317.335 629.959 317.111 634.682C316.84 640.27 320.262 645.134 319.128 650.646C319.101 650.782 319.212 650.986 319.313 651.097C322.089 654.215 320.504 657.513 319.755 660.788C318.821 664.86 316.894 668.201 313.326 670.58C311.892 671.543 310.666 672.877 309.528 674.19C309 674.795 308.431 676.11 308.716 676.534C309.358 677.49 310.54 678.752 311.469 678.718C315.831 678.579 320.228 678.287 324.53 677.562C327.266 677.106 329.799 675.512 332.517 674.979C336.122 674.277 336.228 674.4 335.014 671.002C334.819 670.458 334.54 669.879 334.552 669.334C334.618 665.272 334.89 661.208 334.835 657.154C334.763 652.15 334.958 647.051 334.038 642.173C333.46 639.11 332.984 636.227 333.216 633.109C333.37 631.021 332.827 628.887 332.628 626.778C332.551 625.95 332.52 625.131 332.496 624.295C332.357 619.97 332.229 615.641 332.102 611.311C332.034 608.982 331.977 606.648 331.868 604.322C331.772 602.434 332.687 601.49 334.437 600.925C340.561 598.968 346.687 596.982 352.76 594.865C356.296 593.623 359.856 592.371 362.416 589.324C362.826 588.837 364.275 588.52 364.694 588.833C367.015 590.64 369.318 592.539 371.351 594.658C372.951 596.331 374.026 598.511 375.6 600.222C379.875 604.903 384.377 609.393 388.61 614.104C390.548 616.263 391.976 618.866 393.834 621.099C395.844 623.533 398.068 625.782 400.232 628.084C402.097 630.064 404.097 631.934 405.901 633.967C408.351 636.734 410.672 639.623 413.007 642.409C414.006 641.805 414.694 641.356 415.403 640.955C419.962 638.391 424.572 635.918 429.06 633.245C430.305 632.499 431.327 631.275 432.281 630.121C433.406 628.745 432.585 625.796 431 625.073C430.255 627.985 427.904 628.436 425.455 628.748C422.583 629.108 421.537 626.389 420.038 625.201C418.832 625.571 417.641 626.281 417.267 625.977C415.039 624.16 412.512 622.423 411.02 620.068C409.088 617.047 408.217 613.37 406.528 610.166C405.102 607.465 402.803 605.204 401.531 602.44C399.906 598.919 397.767 596.136 394.26 594.441C393.932 594.284 393.68 593.805 393.553 593.427C392.487 590.287 389.931 588.548 387.413 586.766C386.32 585.994 385.228 585.222 384.199 584.369C382.234 582.72 382.408 580.07 384.727 579.036C390.915 576.289 397.206 573.792 403.385 571.022C405.74 569.973 407.876 568.459 410.116 567.166C410.071 566.921 410.019 566.693 409.974 566.448C405.162 564.816 402.344 560.107 397.426 558.588C396.87 558.414 396.018 557.419 396.135 557.163C396.904 555.391 395.576 554.855 394.545 554.265C391.168 552.35 388.002 550.238 385.926 546.832C385.593 546.29 385.004 545.866 384.469 545.475C379.406 541.811 374.206 538.356 369.889 533.707C368.579 532.303 366.225 530.787 364.625 531.041C362.693 531.362 361.702 530.77 360.46 529.837C359.557 529.154 358.625 528.538 357.724 527.895C356.824 528.944 356.094 529.798 355.194 530.847C354.176 528.366 353.426 526.233 352.408 524.224C352.052 523.525 351.051 523.145 350.368 522.593C349.142 521.598 347.576 520.785 346.79 519.512C345.358 517.202 344.68 514.402 343.161 512.183C340.681 508.569 338.205 504.662 333.593 503.448C330.92 502.741 330.763 500.601 330.954 498.873C331.15 497.156 333.049 496.516 334.859 496.536C337.525 496.552 340.204 496.632 342.879 496.533C348.724 496.326 354.723 497.443 360.302 494.628C360.691 494.427 361.276 494.672 361.771 494.663C363.009 494.64 364.257 494.711 365.477 494.543C369.754 493.926 374.001 493.168 378.271 492.568C382.472 491.968 386.696 491.525 390.89 490.941C391.413 490.866 391.839 490.247 392.368 490.086C393.303 489.799 394.316 489.397 395.232 489.535C397.596 489.896 398.882 489.147 399.395 486.815C399.669 485.593 400.006 484.388 400.421 483.205C401.68 479.652 399.97 476.734 396.226 475.982C395.019 475.743 393.596 475.55 392.756 474.785C389.389 471.743 385.38 471.46 381.285 471.947C376.69 472.501 372.278 473.464 367.446 472.729C362.573 471.996 357.428 472.928 352.413 473.335C351.754 473.383 350.95 474.462 350.605 475.241C349.391 477.888 348.428 478.38 345.716 477.274C344.321 476.709 342.876 476.193 341.612 475.408C332.19 469.594 321.485 468.355 310.898 467.235C306.306 466.747 302.405 466.628 300.917 461.345L287.268 466.944L287.27 466.984ZM294.601 459.998C296.718 458.436 298.723 456.671 301.004 455.375C304.888 453.158 307.566 449.924 309.27 445.939C313.896 435.126 314.143 424.347 308.05 413.951C305.647 409.848 303.925 405.244 299.078 402.851C292.655 399.689 286.229 396.654 279.05 396.007C276.16 395.75 273.005 395.963 270.292 396.882C265.816 398.399 261.907 400.959 258.275 404.265C254.478 407.708 253.05 411.927 252.183 416.4C251.052 422.189 250.635 428.128 250.014 434.012C249.891 435.2 249.798 436.93 250.484 437.591C254.543 441.542 256.455 446.609 258.318 451.724C258.347 451.795 258.424 451.847 258.482 451.92C260.75 455.288 264.144 456.877 267.616 458.823C271.574 461.04 275.407 461.132 279.505 461.697C284.746 462.418 289.618 461.695 294.625 459.988L294.601 459.998ZM238.2 447.33C241.017 447.409 243.186 447.393 245.342 447.548C246.245 447.622 247.494 447.83 247.909 448.437C248.413 449.159 248.662 450.679 248.233 451.354C245.695 455.335 245.326 459.84 244.702 464.297C244.447 466.107 244.387 467.851 242.706 469.192C242.04 469.729 242.098 471.189 241.887 472.024C248.823 472.757 255.338 473.44 262.761 474.209C259.106 460.469 252.365 449.438 241.716 440.466C240.607 442.627 239.632 444.538 238.193 447.347L238.2 447.33ZM324.669 448.76C324.854 448.67 325.462 448.532 325.83 448.145C330.587 443.158 335.334 438.146 339.994 433.059C340.282 432.747 340.046 431.36 339.665 431.142C338.718 430.588 337.436 429.963 336.488 430.185C333.649 430.864 331.536 429.832 329.36 428.242C325.712 425.565 321.45 424.664 316.877 424.155C318.045 429.333 317.715 434.474 320.556 439.036C322.375 441.95 323.289 445.43 324.657 448.765L324.669 448.76ZM316.092 417.919C316.273 417.955 316.455 417.992 316.636 418.028C318.196 415.516 319.762 413.016 321.505 410.207C319.457 410.077 317.689 409.956 315.612 409.824C315.786 412.747 315.933 415.335 316.08 417.923L316.092 417.919Z" fill="black"/>
<path d="M592.054 370.984C596.944 373.53 601.82 372.122 606.702 370.942C606.935 370.882 607.226 370.791 607.351 370.621C609.108 368.281 610.857 365.932 612.58 363.572C613.363 362.507 613.935 361.25 614.857 360.353C617.113 358.133 619.314 356.109 619.904 352.622C620.207 350.838 621.763 348.999 623.22 347.725C628.367 343.228 631.464 337.262 635.253 331.79C637.747 328.191 640.302 324.624 643.051 320.73C643.934 323.181 644.936 325.516 645.61 327.957C646.911 332.66 648.052 337.412 649.185 342.155C649.511 343.534 649.485 344.988 649.84 346.36C650.279 348.096 650.989 349.757 651.494 351.471C651.976 353.137 652.438 354.82 652.752 356.526C653.58 361.021 654.315 365.543 655.097 370.043C655.423 371.923 655.756 373.812 656.11 375.685C656.833 379.451 657.426 383.241 658.345 386.961C659.087 389.945 659.148 393.093 659.805 395.915C660.762 400.003 660.532 404.025 661.013 408.041C661.372 411.026 661.18 414.068 661.567 417.046C661.773 418.641 662.226 420.815 663.35 421.549C665.279 422.833 667.998 423.08 669.923 421.285C672.027 419.324 673.958 417.075 675.556 414.684C678.679 410.014 683.282 407.233 687.169 404.329C689.035 406.581 690.641 408.499 692.227 410.434C693.992 412.604 695.385 414.848 695.274 417.888C695.229 419.159 696.074 420.541 696.734 421.76C697.82 423.793 699.324 425.629 700.23 427.727C702.539 433.044 704.79 438.393 708.805 442.696C711.14 445.193 710.125 451.883 706.763 454.435C704.656 456.031 702.694 457.923 702.688 460.727C702.684 462.129 703.451 463.677 704.255 464.909C704.965 465.987 706.348 466.591 707.181 467.616C708.79 469.599 710.527 469.143 712.551 468.432C719.814 465.846 725.397 460.37 732.307 457.177C733.192 456.76 733.995 456.161 734.873 455.734C737.267 454.566 736.912 452.911 735.91 450.959C734.546 448.308 733.459 445.51 732.017 442.906C729.268 437.92 730.155 432.02 727.795 426.962C727.241 425.771 726.688 424.58 726.114 423.406C725.709 422.576 725.123 421.828 724.83 420.972C722.336 413.825 720.003 406.628 717.378 399.523C715.967 395.711 714.066 392.071 712.589 388.781C719.172 383.326 725.65 378.025 732.037 372.616C733.224 371.616 734.023 370.171 735.397 368.433C737.217 369.424 739.351 370.171 740.963 371.534C747.664 377.211 756.114 379.855 763.284 384.711C766.881 387.144 770.566 389.422 774.25 391.718C777.297 393.608 780.421 395.368 783.478 397.25C785.312 398.379 787.041 399.662 788.866 400.799C791.018 402.131 793.105 403.684 795.45 404.506C796.553 404.893 798.582 404.227 799.493 403.339C804.417 398.493 809.249 393.556 813.855 388.407C816.438 385.517 816.453 381.739 815.643 378.129C814.791 374.369 811.277 372.699 807.397 373.682C804.636 374.387 801.785 374.784 798.974 375.33C798.575 375.411 797.951 375.361 797.811 375.594C796.079 378.445 794.097 376.756 792.571 375.638C789.424 373.347 786.416 370.841 783.575 368.197C782.126 366.849 781.074 365.038 779.977 363.332C777.947 360.199 774.579 359.308 771.395 358.78C767.43 358.134 764.46 356.297 761.797 353.505C760.33 351.955 758.601 350.672 756.638 348.966C758.491 347.265 760.49 345.458 762.448 343.603C767.223 339.079 771.981 334.537 776.748 330.004C776.989 329.771 777.262 329.578 777.467 329.325C778.172 328.507 778.852 327.661 779.549 326.834C778.631 326.128 777.791 325.275 776.784 324.743C771.788 322.169 765.818 321.634 761.532 317.505C761.006 316.991 760.269 316.685 759.6 316.34C756.68 314.844 755.906 315.036 753.941 317.747C748.322 315.606 742.63 313.558 737.053 311.248C733.353 309.715 729.741 307.927 726.231 306.021C720.987 303.168 715.909 300.013 710.663 297.178C707.507 295.478 704.155 294.125 700.899 292.607C700.298 292.322 699.438 292.169 699.155 291.687C697.472 288.832 694.607 287.524 691.95 285.944C691.043 285.413 690.128 284.871 688.789 284.098C691.484 282.931 693.923 281.977 696.26 280.84C699.171 279.411 701.946 277.678 704.905 276.326C709.498 274.236 714.2 272.356 718.846 270.389C722.287 268.937 725.72 267.475 729.153 266.014C731.135 265.171 733.045 264.121 735.093 263.458C739.392 262.078 742.845 257.767 743.05 253.233C743.322 247.193 741.561 244.003 736.12 242.198C731.845 240.775 727.448 238.904 722.783 240.887C721.938 241.254 721.222 241.897 720.384 242.292C718.974 242.96 717.57 243.757 716.073 244.081C711.2 245.17 706.111 245.638 702.059 249.045C701.931 249.152 701.753 249.299 701.629 249.269C696.161 248.335 691.883 252.213 686.757 252.878C682.913 253.381 679.209 254.918 675.407 255.835C673.058 256.415 670.655 256.89 668.26 257.092C663.514 257.493 658.883 258.231 654.237 259.415C651.196 260.185 647.783 259.481 644.526 259.348C643.302 259.296 641.635 259.394 640.956 258.675C639.521 257.164 638.753 255.152 639.644 252.914C640.467 250.833 641.326 248.755 641.963 246.611C642.853 243.607 643.557 240.559 644.213 238.016C646.343 240.266 648.765 243.007 651.389 245.531C653.954 248.004 655.603 247.604 657.082 244.346C659.285 239.471 661.305 234.516 663.595 229.686C664.539 227.671 665.862 225.792 667.221 224.016C668.622 222.172 668.625 220.287 667.766 218.366C666.884 216.398 665.153 215.534 663.064 215.665C660.747 215.802 658.408 216.474 656.128 216.314C651.849 216.011 647.6 215.284 643.362 214.73C643.984 212.165 644.706 209.701 645.158 207.194C645.627 204.606 644.306 203.052 641.747 202.856C639.495 202.69 637.2 202.792 634.989 202.375C631.286 201.662 630.067 203.104 629.565 207.119C627.678 206.067 625.763 205.222 624.097 204.036C613.221 196.354 602.052 196.396 590.582 202.501C589.037 203.349 587.565 204.084 586.101 204.848C582.627 207.727 579.143 210.614 575.668 213.492C571.858 218.216 570.087 223.632 570.041 229.684C570.025 230.93 569.889 232.193 569.646 233.427C568.822 237.575 569.259 241.578 570.844 245.479C571.642 247.467 572.43 249.463 573.233 251.497C569.461 252.007 567.664 254.278 567.553 258.302C567.494 260.2 567.109 262.086 567.132 263.982C567.147 265.286 567.319 266.76 567.967 267.822C568.804 269.194 570.284 269.434 571.946 268.807C573.937 268.057 576.023 267.561 578.084 266.953C578.499 267.093 578.932 267.234 579.347 267.373C578.611 272.331 577.795 277.272 577.185 282.242C576.866 284.79 576.705 287.388 576.83 289.95C576.967 292.586 578.782 294.114 581.371 293.602C586.167 292.66 590.882 291.319 595.645 290.237C598.865 289.502 602.153 289.01 605.366 288.247C607.117 287.829 608.798 287.086 611.105 286.274L601.553 274.746C602.826 274.575 603.402 274.547 603.969 274.427C608.76 273.439 613.705 272.858 618.306 271.278C620.959 270.362 622.136 271.22 623.569 272.848C625.142 274.627 624.147 276.017 622.983 277.465C622.53 278.024 622.21 278.722 622 279.413C619.187 288.574 616.4 297.747 613.578 306.917C613.359 307.597 612.936 308.232 612.534 308.831C611.738 310.04 610.619 311.101 610.105 312.41C608.11 317.495 607.381 323.064 603.716 327.5C601.579 330.104 599.348 332.736 599.032 336.413C598.948 337.315 598.208 338.211 597.624 339.012C596.108 341.101 594.481 343.115 592.948 345.202C591.591 347.06 589.897 348.813 589.075 350.894C588.028 353.528 587.699 356.466 587.073 359.267C587.043 359.391 587.159 359.612 587.267 359.722C589.585 361.817 588.976 364.537 588.86 367.149L592.069 371.021L592.054 370.984ZM636.568 259.728C637.181 260.969 638.354 262.446 638.631 264.066C639.355 268.314 640.813 268.889 645.018 267.737C650.037 266.36 654.033 261.7 659.897 263.072C660.316 263.175 660.835 262.778 661.33 262.651C674.43 259.377 687.334 255.282 700.901 254.037C703.869 253.76 706.999 252.616 709.557 251.063C712.549 249.25 715.595 247.943 718.962 247.185C721.575 246.602 731.515 246.363 734.135 247.075C735.041 247.324 736.01 247.87 736.617 248.583C738.646 250.951 737.449 255.775 734.635 257.14C733.89 257.507 733.237 258.065 732.494 258.414C728.724 260.172 727.076 264.652 722.815 265.818C718.255 267.064 713.725 268.468 709.186 269.78C708.97 269.842 708.69 269.724 708.45 269.656C704.652 268.588 701.91 270.944 698.975 272.626C698.476 272.907 697.965 273.696 697.978 274.235C698.044 277.046 696.128 276.984 694.146 277.344C690.404 278.012 686.689 278.892 683.032 279.922C681.105 280.47 680.731 282.329 682.251 283.601C684.396 285.406 686.621 287.228 689.064 288.569C692.927 290.699 696.46 292.854 697.497 297.642C697.955 299.761 699.576 300.734 701.894 301.079C703.42 301.314 705.102 302.42 706.146 303.62C708.252 306.04 710.989 307.455 713.868 307.535C717.629 307.634 720.876 308.559 723.954 310.606C730.558 314.98 737.808 317.904 745.404 320.04C753.682 322.376 761.948 324.758 770.201 327.165C771.957 327.676 772.56 328.826 771.166 330.298C767.961 333.703 764.789 337.147 761.403 340.353C758.805 342.822 755.802 344.844 753.171 347.274C750.779 349.489 751.117 350.359 753.939 351.836C755.831 352.834 757.637 354.07 759.275 355.444C763.05 358.614 766.256 362.905 770.53 364.928C775.589 367.317 778.272 372.625 783.669 374.217C783.802 374.256 783.93 374.451 783.98 374.592C785.427 378.508 789.083 378.661 792.325 379.54C796.358 380.63 800.213 380.501 803.99 378.471C805.514 377.658 807.269 377.204 808.962 376.817C809.744 376.635 811.172 376.752 811.412 377.202C811.955 378.219 812.513 379.856 812.046 380.659C809.872 384.443 807.546 388.186 804.883 391.642C803.194 393.842 800.596 395.328 798.847 397.476C796.532 400.328 796.591 400.479 794.163 397.81C793.775 397.381 793.395 396.863 792.908 396.617C789.292 394.764 785.578 393.094 782.027 391.139C777.644 388.722 773.052 386.496 769.181 383.39C766.749 381.44 764.428 379.664 761.568 378.402C759.653 377.556 758.024 376.073 756.257 374.905C755.562 374.448 754.854 374.035 754.128 373.621C750.377 371.464 746.616 369.316 742.855 367.168C740.832 366.012 738.799 364.864 736.797 363.674C735.175 362.702 733.912 363.065 732.591 364.343C727.983 368.828 723.349 373.3 718.626 377.664C715.866 380.201 713.087 382.753 709.194 383.58C708.572 383.712 707.61 384.842 707.69 385.36C708.193 388.258 708.786 391.182 709.7 393.973C710.424 396.173 711.842 398.146 712.612 400.34C714.732 406.314 716.577 412.399 718.745 418.35C719.738 421.075 721.364 423.56 722.461 426.25C723.664 429.168 724.602 432.189 725.616 435.181C726.487 437.758 727.196 440.403 728.143 442.951C729.431 446.414 730.889 449.821 732.25 453.192C731.247 453.789 730.527 454.186 729.84 454.622C725.434 457.441 721.083 460.346 716.614 463.049C715.369 463.797 713.809 464.124 712.342 464.423C710.598 464.769 708.382 462.657 708.489 460.918C711.41 461.63 712.913 459.768 714.34 457.753C716.008 455.387 714.101 453.186 713.757 451.305C714.651 450.414 715.838 449.697 715.746 449.224C715.189 446.403 714.845 443.356 713.469 440.931C711.711 437.806 708.875 435.308 706.842 432.311C705.129 429.782 704.215 426.69 702.374 424.267C700.031 421.178 698.58 417.981 698.734 414.089C698.75 413.726 698.446 413.278 698.172 412.988C695.902 410.571 695.57 407.497 695.182 404.437C695.014 403.11 694.846 401.783 694.577 400.473C694.046 397.964 691.626 396.871 689.622 398.431C684.288 402.601 679.126 406.978 673.776 411.128C671.743 412.713 669.402 413.886 667.207 415.255C667.012 415.1 666.835 414.947 666.64 414.792C667.463 409.778 664.632 405.076 665.605 400.022C665.713 399.449 665.235 398.229 664.954 398.212C663.029 398.058 663.18 396.633 663.145 395.446C663.043 391.566 662.668 387.778 660.638 384.345C660.316 383.795 660.219 383.076 660.126 382.42C659.274 376.229 658.67 370.015 656.597 364.019C655.975 362.202 655.743 359.412 656.72 358.119C657.912 356.565 657.856 355.412 657.616 353.878C657.439 352.759 657.333 351.647 657.189 350.55C658.538 350.249 659.635 350.006 660.984 349.705C659.273 347.64 657.744 345.975 656.45 344.132C656 343.489 656.135 342.427 655.97 341.564C655.668 340.015 655.687 338.25 654.933 336.958C653.568 334.608 651.415 332.693 650.172 330.308C648.149 326.42 645.865 322.398 646.963 317.756C647.596 315.065 645.782 313.92 644.166 313.276C642.559 312.642 641.101 314.016 640.268 315.623C639.028 317.983 637.838 320.385 636.493 322.699C633.562 327.76 631.726 333.58 626.618 337.179C626.258 337.428 626.199 338.06 625.958 338.493C625.356 339.574 624.831 340.709 624.11 341.707C621.554 345.191 618.888 348.583 616.349 352.069C613.844 355.494 611.467 359.013 608.979 362.44C608.666 362.866 607.921 362.951 607.529 363.342C606.836 364.033 606.006 364.738 605.697 365.61C604.903 367.867 603.637 368.65 601.339 368.005C600.131 367.673 598.909 367.403 597.67 367.214C593.943 366.653 592.171 363.772 593.269 360.114C593.624 358.936 594.123 357.59 593.844 356.489C592.743 352.087 594.378 348.415 596.734 345.031C599.383 341.236 602.309 337.796 603.932 333.185C605.577 328.541 608.819 324.438 611.536 320.204C611.889 319.645 613.219 319.442 614.07 319.504C616.977 319.678 617.863 319.06 618.162 316.146C618.32 314.649 618.544 313.131 618.446 311.647C617.746 300.597 621.687 290.567 625.677 280.697C627.407 276.415 629.135 272.917 625.173 269.119L636.534 259.706L636.568 259.728ZM626.955 262.912C624.581 264.045 622.08 264.985 619.864 266.388C616.08 268.773 611.968 269.616 607.649 269.245C595.931 268.242 586.302 263.392 579.993 253.126C577.503 249.075 574.249 245.39 574.416 239.987C574.647 232.832 574.991 225.733 577.796 219.094C578.928 216.422 580.6 213.738 582.686 211.776C586.13 208.539 590.228 206.293 594.853 204.643C599.678 202.912 604.073 203.635 608.428 204.974C614.068 206.698 619.506 209.123 624.991 211.342C626.097 211.793 627.668 212.523 627.928 213.44C629.506 218.88 633.078 222.951 636.717 227C636.766 227.059 636.775 227.151 636.813 227.237C638.719 230.823 638.524 234.566 638.608 238.545C638.704 243.08 636.982 246.506 635.554 250.388C633.725 255.353 630.797 259.312 626.935 262.928L626.955 262.912ZM642.3 207.18C641.045 209.703 640.011 211.609 639.134 213.585C638.774 214.416 638.371 215.617 638.711 216.268C639.111 217.053 640.335 217.988 641.133 217.926C645.839 217.559 649.989 219.352 654.216 220.897C655.933 221.524 657.501 222.29 659.475 221.438C660.262 221.102 661.523 221.84 662.359 222.047C659.743 228.513 657.283 234.583 654.47 241.495C644.063 231.809 637.499 220.671 634.589 207.055C637.017 207.092 639.163 207.13 642.318 207.181L642.3 207.18ZM602.897 284.162C602.731 284.283 602.322 284.755 601.808 284.898C595.169 286.75 588.514 288.582 581.833 290.303C581.423 290.41 580.31 289.549 580.296 289.111C580.253 288.014 580.304 286.589 580.946 285.857C582.88 283.671 582.963 281.32 582.584 278.652C581.936 274.174 583.146 269.989 584.847 265.714C588.868 269.18 593.56 271.307 596.249 275.959C597.966 278.935 600.607 281.378 602.907 284.154L602.897 284.162ZM579.712 262.088C579.659 262.266 579.606 262.443 579.553 262.62C576.603 262.816 573.66 263.021 570.362 263.239C571.21 261.37 571.934 259.753 572.794 257.858C575.293 259.386 577.507 260.733 579.722 262.08L579.712 262.088Z" fill="black"/>
<path d="M227.528 551.313C226.433 555.44 224.47 558.92 220.608 561.121C217.672 562.793 214.472 563.276 211.306 562.611C206.108 561.512 200.646 561.755 195.682 559.25C194.193 558.507 192.081 559.131 190.301 558.832C187.302 558.336 184.339 557.632 181.381 556.992C179.543 556.594 177.714 556.131 175.873 555.682C173.574 555.111 171.292 554.411 168.964 553.97C164.776 553.185 160.573 552.363 156.334 551.941C154.447 551.753 153.951 553.459 154.39 555.138C154.971 557.373 155.741 559.556 156.334 561.789C156.841 563.695 157.221 565.635 157.627 567.574C157.725 568.055 157.685 568.585 157.834 569.051C159.524 574.1 161.239 579.135 162.966 584.169C163.257 585.022 163.7 585.84 163.915 586.712C165.352 592.717 166.649 598.746 168.212 604.717C168.808 606.989 170.072 609.086 170.833 611.321C171.53 613.38 171.976 615.534 172.484 617.646C172.883 619.302 173.106 621.009 173.631 622.63C174.715 626 175.962 629.306 177.122 632.657C177.879 634.841 178.66 637.01 179.279 639.229C181.003 645.485 182.637 651.746 184.323 658.017C185.003 660.567 185.721 663.1 186.425 665.635C187.667 670.15 188.884 674.667 190.189 679.178C190.987 681.937 191.86 684.679 192.783 687.403C194.224 691.635 192.746 694.169 188.276 695.023C186.921 695.273 185.566 695.536 183.552 695.909C191.768 697.4 194.681 699.586 199.173 707.254C197.233 710.862 194.541 713.276 190.156 713.34C188.554 713.363 186.948 713.887 185.34 714.194L173.974 714.994C170.102 714.135 166.274 713.903 162.609 715.794L159.148 716.038C159.117 715.963 159.109 715.848 159.055 715.813C154.401 712.952 152.886 708.212 151.276 703.388C149.131 696.982 146.673 690.689 144.253 684.392C143.734 683.027 142.689 681.854 142.119 680.505C141.332 678.632 140.759 676.68 140.123 674.758C139.536 672.986 139.136 671.137 138.389 669.454C137.335 667.06 135.983 664.802 134.841 662.44C132.586 657.752 130.394 653.046 128.201 648.328C127.823 647.519 127.388 646.637 127.366 645.777C127.239 641.788 125.417 638.509 123.229 635.14C121.732 640.478 120.407 645.727 118.767 650.869C117.589 654.552 115.78 658.022 114.628 661.716C111.31 672.364 108.528 683.153 107.401 694.315C107.331 694.963 107.348 695.746 107.01 696.233C103.37 701.4 104 707.617 102.866 713.379C101.919 718.152 100.105 720.092 95.2268 719.896C90.143 719.688 85.0504 718.992 79.9909 719.13C75.7514 719.248 71.5411 720.329 67.3039 720.846C65.7769 721.031 64.1415 721.133 62.6797 720.786C59.9768 720.128 59.1766 718.423 59.2666 715.691C59.4323 709.842 62.8919 706.667 67.8255 704.558C68.6604 704.204 69.4962 703.862 70.3301 703.495C70.4542 703.435 70.5602 703.299 70.5355 703.313C67.6071 702.915 64.5894 702.524 61.5671 702.068C59.8161 701.805 58.9844 700.565 59.6462 699.027C62.3945 692.676 62.0749 685.768 63.4617 679.217C65.6004 669.128 65.9889 658.79 68.5827 648.785C69.6022 644.856 68.9384 640.531 69.5632 636.463C70.7851 628.483 72.4868 620.572 73.7599 612.589C74.5798 607.465 74.8417 602.253 75.596 597.109C76.3228 592.121 77.3879 587.199 78.2314 582.228C79.0484 577.426 79.9036 572.622 80.4871 567.785C80.7232 565.853 80.0929 563.828 80.1858 561.867C80.2537 560.461 80.8095 559.059 81.2257 557.68C81.4727 556.814 81.8511 555.99 82.1637 555.145C81.0441 554.735 79.9456 554.08 78.7982 554.006C77.7019 553.929 76.5268 554.372 75.4483 554.731C70.6575 556.315 65.5783 557.084 61.9079 561.277C58.107 565.62 52.7532 567.411 47.278 568.388C43.7038 569.025 40.474 570.179 37.3795 571.978C34.8389 573.442 32.1847 574.388 29.1251 573.947C27.9714 573.784 26.6221 574.124 25.5399 574.611C21.9466 576.253 18.3066 576.136 14.6408 575.109C12.1405 574.411 10.4983 572.778 10.1906 570.048C10.13 569.551 10.1195 569.037 9.9338 568.588C6.60648 560.336 12.0572 555.183 16.6598 549.832C17.5025 548.86 19.3159 548.732 20.6763 548.186C22.1745 547.592 23.7164 547.072 25.1417 546.355C27.1611 545.326 29.0603 544.048 31.0943 543.043C37.281 539.959 43.5133 536.974 49.7137 533.902C53.1858 532.179 56.7298 530.567 60.0279 528.561C63.0915 526.686 66.1023 524.61 68.7277 522.163C72.5333 518.616 75.7704 514.467 79.5915 510.958C84.0992 506.809 89.2979 503.911 95.8036 504.262C96.6281 504.307 97.8275 503.297 98.2952 502.467C99.091 501.01 99.4911 499.22 97.9372 497.928C96.683 496.885 95.2153 496.089 93.8306 495.196C89.9463 492.705 85.6814 490.64 82.26 487.615C77.3331 483.257 72.9558 478.319 73.0763 470.918C73.1444 467.147 72.6087 463.366 72.343 459.592C69.65 459.074 67.3481 458.825 65.1816 458.129C64.1047 457.781 62.6965 456.736 62.5021 455.798C62.3241 454.91 63.3096 453.414 64.1995 452.747C67.2954 450.421 70.5488 448.327 73.7732 446.185C80.6389 441.626 87.5192 437.091 94.4132 432.569C94.8915 432.253 95.4335 431.932 95.9672 431.855C101.838 431.031 107.738 429.522 113.577 429.703C118.297 429.846 122.975 431.947 127.627 433.303C138.553 436.481 146.158 449.522 145.847 460.228C145.674 465.974 145.147 471.797 143.951 477.409C142.876 482.383 139.36 486.025 135.025 488.799C133.121 490.013 131.464 491.633 129.76 493.129C127.922 494.737 128.159 497.009 128.103 499.121C128.096 499.572 128.681 500.225 129.161 500.474C130.105 500.947 131.151 501.401 132.186 501.521C140.546 502.514 147.174 507.691 154.601 510.922C157.248 512.073 159.231 514.71 161.826 516.032C166.512 518.427 171.604 520.023 176.221 522.526C183.199 526.304 190.818 528.081 198.209 530.608C205.047 532.942 211.766 535.606 218.581 537.98C222.844 539.467 225.756 542.181 227.212 546.462L227.561 551.413L227.528 551.313ZM192.066 708.744C192.337 705.306 190.732 703.464 187.969 702.502C185.956 701.808 183.922 701.167 181.865 700.566C177.883 699.419 173.952 698.269 171.632 694.305C170.129 691.737 170.595 690.328 173.59 690.208C176.277 690.096 179.005 690.392 181.664 690.783C185.373 691.332 187.549 689.43 187.009 685.766C186.859 684.735 186.265 683.774 186 682.738C185.768 681.816 185.648 680.835 185.606 679.886C185.571 678.834 186.013 677.646 185.679 676.731C183.568 670.979 182.003 665.162 181.351 658.998C180.93 655.029 180.718 650.557 176.81 647.734C176.242 647.324 176.117 646.086 176.055 645.203C175.937 643.72 176.152 642.213 175.959 640.749C175.825 639.755 175.475 638.25 174.813 637.962C171.125 636.435 169.69 633 168.215 629.916C166.574 626.483 165.84 622.613 164.835 618.904C164.453 617.491 164.65 615.922 164.219 614.538C162.263 608.26 159.992 602.069 158.879 595.565C158.593 593.875 158.058 591.92 158.623 590.466C159.84 587.346 159.513 584.515 158.382 581.573C157.675 579.746 156.944 577.92 156.3 576.063C155.959 575.058 155.577 574.005 155.555 572.965C155.441 568.602 154.458 564.493 152.527 560.579C151.808 559.112 151.207 557.496 151.029 555.889C150.757 553.298 149.952 551.156 147.977 549.354C147.345 548.769 146.881 547.284 147.191 546.581C147.491 545.917 148.902 545.368 149.792 545.421C151.75 545.527 153.677 546.111 155.635 546.398C158.982 546.895 162.644 546.599 165.611 547.907C172.047 550.732 178.789 551.35 185.577 552.248C189.93 552.828 194.201 554.071 198.484 555.119C202.872 556.186 207.218 557.41 211.607 558.489C214.714 559.247 217.776 559.173 220.055 556.544C222.204 554.079 222.431 551.093 221.286 548.139C220.048 544.961 217.987 542.303 214.625 541.216C209.241 539.474 203.864 537.474 198.327 536.475C191.282 535.21 185.067 532.24 179.611 528.022C172.268 522.342 163.841 519.67 155.173 517.233C152.529 516.493 150.025 515.191 147.528 514.004C141.365 511.044 135.482 507.318 129.055 505.174C122.247 502.889 117.536 495.044 125.263 488.676C125.639 488.367 126.04 488.056 126.374 487.698C128.252 485.753 130.32 483.949 131.953 481.802C134.503 478.473 136.508 474.693 140.248 472.399C140.728 472.108 141.138 471.359 141.213 470.788C141.488 468.493 142.064 466.112 141.691 463.902C140.997 459.708 139.733 455.606 138.672 451.463C138.425 450.516 138.357 449.364 137.769 448.673C133.202 443.222 128.609 438.325 120.962 436.524C115.924 435.336 111.198 434.743 106.122 434.997C100.635 435.268 95.4488 436.34 90.9047 439.424C87.0223 442.063 83.425 445.107 79.7421 448.027C76.2053 450.835 76.1504 452.06 77.3396 456.373C78.9425 462.187 79.9889 468.118 77.6641 474.105C77.2399 475.189 77.1991 476.979 77.8232 477.822C80.0515 480.854 82.3609 483.944 85.1643 486.395C88.4882 489.311 92.3718 491.429 96.788 492.725C102.317 494.341 104.281 497.443 103.066 501.694C102.139 504.935 99.6359 506.744 96.6102 508.063C91.7916 510.163 87.0794 512.501 82.3354 514.75C81.975 514.917 81.6227 515.199 81.388 515.511C77.8688 520.028 73.9824 524.068 68.7956 526.773C64.859 528.825 61.3103 531.646 57.3118 533.547C53.8973 535.176 50.5678 536.555 48.797 540.202C48.4945 540.828 47.7963 541.301 47.2259 541.766C39.6865 547.876 30.8218 551.02 21.5438 553.216C20.294 553.51 18.7824 553.732 17.9289 554.551C14.9831 557.368 12.6789 560.732 12.0067 564.855C11.3794 568.704 14.9522 572.605 18.7515 572.248C21.8492 571.953 24.9079 571.467 27.513 569.278C28.8337 568.17 30.6841 567.474 32.4019 567.083C37.7944 565.842 42.5005 562.142 48.3721 562.603C48.7461 562.628 49.1504 562.355 49.5372 562.199C54.2097 560.392 58.7593 558.297 63.3088 556.203C69.0647 553.56 75.5443 552.448 81.7625 550.905C85.9126 549.88 87.0077 551.217 86.329 555.43C85.7861 558.837 85.6316 562.293 85.2437 565.715C85.0956 567.075 84.8053 568.42 84.5542 569.775C84.2078 571.599 83.0265 573.778 83.6263 575.188C85.7971 580.32 83.5635 584.321 81.1565 588.412C80.698 589.19 79.9905 589.895 79.8055 590.731C78.6609 595.8 77.2581 600.849 76.6443 605.983C75.9184 612.077 75.7187 618.172 76.327 624.442C76.9272 630.596 75.432 637.066 74.1085 643.24C73.4051 646.555 72.2786 649.694 72.7918 653.155C72.9178 654.033 72.8312 654.991 72.6362 655.866C71.7314 659.967 70.4253 664.019 69.8826 668.158C68.5686 678.112 67.5783 688.107 66.4621 698.136C69.1694 697.946 72.0382 697.679 74.9169 697.554C80.8667 697.302 81.9844 697.866 83.3484 701.563C79.0201 704.066 74.6781 706.557 70.3772 709.084C67.8384 710.574 65.7799 712.506 64.924 716.025C66.3948 716.5 67.9108 717.435 69.3693 717.371C76.0051 717.019 82.6085 716.207 89.2351 715.908C96.3999 715.596 99.6972 712.484 99.7336 705.346C99.7484 702.092 99.9491 698.928 101.853 696.081C102.376 695.299 102.585 694.256 102.8 693.302C104.614 685.537 106.363 677.752 108.257 670.02C108.707 668.201 109.267 666.491 108.008 664.831C106.028 662.232 106.621 659.721 107.706 656.907C109.084 653.325 110.156 649.599 110.931 645.841C111.821 641.523 112.534 637.256 115.87 633.961C117.598 632.258 118.449 630.128 118.891 627.655C119.24 625.689 120.486 623.878 121.34 621.979C126.623 625.375 128.507 630.256 130.023 635.395C132.657 644.363 135.503 653.252 140.307 661.335C141.997 664.186 142.822 667.162 143.383 670.388C143.967 673.767 144.774 677.207 146.137 680.338C148.341 685.403 151.078 690.186 151.596 695.896C151.772 697.851 152.935 700.16 154.388 701.472C156.703 703.546 158.692 705.733 160.178 708.431C160.429 708.889 160.953 709.405 161.421 709.488C163.918 709.968 166.435 710.716 168.932 710.643C175.26 710.468 181.588 709.932 187.907 709.462C189.35 709.36 190.771 708.939 192.011 708.697L192.066 708.744Z" fill="black"/>
<path d="M405.32 481.057C408.67 483.705 412.326 485.316 416.737 484.764C420.09 484.344 422.941 482.813 425.077 480.384C428.58 476.39 433.1 473.311 435.573 468.332C436.32 466.844 438.385 466.079 439.631 464.774C441.735 462.579 443.685 460.241 445.67 457.955C446.903 456.536 448.091 455.07 449.296 453.607C450.794 451.773 452.202 449.844 453.802 448.097C456.684 444.959 459.557 441.782 462.698 438.905C464.096 437.624 465.515 438.693 466.17 440.3C467.044 442.437 467.735 444.646 468.598 446.79C469.335 448.619 470.193 450.401 471.029 452.196C471.239 452.641 471.588 453.041 471.748 453.502C473.42 458.558 475.064 463.616 476.697 468.682C476.975 469.54 477.11 470.459 477.46 471.286C479.908 476.956 482.482 482.56 484.808 488.277C485.692 490.453 485.936 492.889 486.666 495.134C487.342 497.2 488.275 499.193 489.133 501.188C489.806 502.753 490.65 504.253 491.202 505.866C492.352 509.213 493.335 512.607 494.414 515.985C495.116 518.187 495.79 520.392 496.625 522.539C498.993 528.58 501.436 534.573 503.843 540.604C504.826 543.053 505.769 545.511 506.724 547.963C508.434 552.322 510.167 556.667 511.824 561.061C512.839 563.748 513.782 566.466 514.675 569.201C516.057 573.451 518.758 574.595 522.849 572.601C524.084 571.989 525.326 571.388 527.162 570.48C521.478 576.596 520.455 580.092 521.452 588.923C525.168 590.649 528.769 590.969 532.318 588.393C533.615 587.451 535.215 586.909 536.686 586.191L546.265 580.022C548.851 577.014 551.777 574.535 555.844 573.853L558.761 571.975C558.741 571.896 558.678 571.799 558.701 571.739C560.713 566.66 559.086 561.957 557.485 557.131C555.364 550.717 553.562 544.205 551.726 537.714C551.325 536.31 551.459 534.744 551.107 533.323C550.614 531.352 549.904 529.445 549.261 527.525C548.67 525.755 547.882 524.036 547.472 522.24C546.881 519.692 546.612 517.074 546.11 514.499C545.107 509.394 544.043 504.313 542.972 499.222C542.79 498.347 542.609 497.381 542.111 496.679C539.823 493.409 539.317 489.692 539.051 485.684C543.448 489.061 547.653 492.47 552.047 495.604C555.197 497.847 558.725 499.542 561.86 501.809C570.896 508.346 579.588 515.318 587.177 523.579C587.621 524.056 588.077 524.693 588.639 524.88C594.65 526.837 597.87 532.192 602.231 536.126C605.848 539.379 608.463 539.846 612.251 536.766C616.197 533.554 619.857 529.946 623.991 527.025C627.456 524.579 631.475 522.922 635.177 520.797C636.51 520.03 637.881 519.132 638.843 517.979C640.613 515.832 640.232 513.988 638.523 511.854C634.886 507.271 630.214 506.802 625.001 508.069C624.12 508.286 623.246 508.513 622.358 508.718C622.223 508.745 622.056 508.699 622.085 508.696C624.191 506.623 626.373 504.501 628.519 502.326C629.764 501.066 629.687 499.575 628.236 498.74C622.23 495.301 618.347 489.58 613.311 485.165C605.555 478.369 599.049 470.324 590.978 463.868C587.808 461.333 585.749 457.473 582.811 454.59C577.052 448.933 570.949 443.619 565.147 437.989C561.421 434.379 558.088 430.362 554.402 426.695C550.832 423.137 547.03 419.835 543.377 416.36C539.846 413.005 536.283 409.671 532.918 406.148C531.571 404.743 530.862 402.743 529.613 401.229C528.716 400.144 527.431 399.355 526.271 398.5C525.555 397.954 524.758 397.521 524.002 397.032C524.653 396.034 525.14 394.851 526.014 394.104C526.846 393.386 528.052 393.036 529.13 392.677C533.915 391.075 538.443 388.648 543.893 389.806C549.539 391.006 554.898 389.232 559.867 386.734C563.111 385.103 566.388 384.091 569.943 383.678C572.855 383.328 575.546 382.495 577.732 380.309C578.558 379.487 579.842 378.951 581.001 378.693C584.861 377.854 587.706 375.58 590.025 372.561C591.608 370.504 591.945 368.213 590.556 365.843C590.307 365.408 590.007 364.991 589.886 364.52C587.607 355.92 580.155 355.059 573.264 353.533C572.007 353.259 570.479 354.243 569.062 354.622C567.507 355.044 565.961 355.551 564.39 355.831C562.156 356.216 559.87 356.331 557.64 356.745C550.839 357.983 544.061 359.327 537.256 360.582C533.443 361.283 529.64 362.116 525.797 362.485C522.221 362.82 518.567 362.962 514.998 362.575C509.827 362.016 504.749 360.633 499.587 360.113C493.493 359.492 487.593 360.286 482.596 364.466C481.962 364.995 480.397 364.905 479.525 364.521C478.015 363.831 476.622 362.638 477.092 360.672C477.471 359.086 478.169 357.569 478.743 356.024C480.361 351.703 482.538 347.494 483.465 343.023C484.799 336.581 485.345 330.005 480.815 324.152C478.5 321.173 476.664 317.825 474.616 314.644C476.462 312.616 478.155 311.038 479.473 309.182C480.126 308.258 480.628 306.578 480.221 305.71C479.832 304.893 478.147 304.286 477.035 304.285C473.162 304.277 469.303 304.55 465.438 304.766C457.209 305.23 448.984 305.722 440.755 306.231C440.182 306.264 439.556 306.332 439.083 306.591C433.888 309.448 428.261 311.775 423.694 315.418C420.001 318.361 417.514 322.845 414.602 326.718C407.758 335.809 409.483 350.807 416.146 359.192C419.727 363.689 423.638 368.035 427.958 371.812C431.798 375.151 436.796 375.96 441.928 375.583C444.18 375.415 446.478 375.72 448.738 375.896C451.173 376.083 452.344 378.043 453.655 379.701C453.93 380.057 453.853 380.931 453.619 381.418C453.146 382.363 452.58 383.352 451.824 384.068C445.725 389.872 443.52 397.988 439.51 405.025C438.079 407.533 438.072 410.832 436.786 413.445C434.47 418.171 431.349 422.499 429.152 427.269C425.829 434.474 420.793 440.463 416.39 446.914C412.313 452.879 408.529 459.038 404.495 465.022C401.973 468.767 401.268 472.684 402.667 476.984L405.354 481.157L405.32 481.057ZM528.036 585.858C525.758 583.267 525.941 580.831 527.576 578.405C528.771 576.643 530.016 574.911 531.303 573.198C533.804 569.894 536.263 566.618 535.745 562.054C535.409 559.098 534.193 558.249 531.723 559.946C529.504 561.467 527.497 563.339 525.603 565.245C522.962 567.907 520.081 567.688 518.318 564.43C517.82 563.515 517.72 562.39 517.312 561.402C516.945 560.524 516.453 559.666 515.918 558.882C515.316 558.019 514.25 557.333 513.969 556.4C512.213 550.529 509.981 544.934 506.81 539.609C504.769 536.179 502.26 532.471 503.697 527.87C503.906 527.201 503.264 526.135 502.785 525.391C501.991 524.133 500.916 523.055 500.193 521.767C499.705 520.891 499.083 519.476 499.441 518.849C501.479 515.417 500.57 511.807 499.903 508.454C499.16 504.722 497.429 501.184 496.012 497.612C495.471 496.252 494.373 495.114 493.889 493.747C491.694 487.549 489.803 481.231 486.797 475.357C486.013 473.833 485.27 471.947 483.947 471.121C481.103 469.353 479.669 466.89 478.812 463.857C478.283 461.971 477.775 460.071 477.178 458.198C476.848 457.189 476.523 456.117 475.918 455.272C473.395 451.71 471.72 447.831 470.921 443.54C470.618 441.935 470.132 440.281 469.311 438.888C467.976 436.65 467.338 434.453 467.839 431.827C467.994 430.98 467.476 429.513 466.807 429.136C466.169 428.784 464.71 429.19 464.03 429.765C462.526 431.023 461.332 432.646 459.936 434.048C457.555 436.451 454.445 438.408 452.854 441.233C449.393 447.351 444.365 451.886 439.468 456.671C436.331 459.744 433.656 463.298 430.854 466.703C427.981 470.186 425.234 473.77 422.367 477.264C420.333 479.733 417.837 481.508 414.438 480.768C411.24 480.082 409.27 477.827 408.417 474.776C407.503 471.49 407.561 468.127 409.601 465.242C412.868 460.622 415.975 455.799 419.81 451.682C424.693 446.448 427.89 440.347 429.731 433.7C432.207 424.753 437.353 417.565 442.832 410.421C444.507 408.244 445.732 405.701 447.019 403.255C450.18 397.193 452.658 390.685 456.519 385.117C460.601 379.209 459.672 370.106 449.671 369.636C449.184 369.614 448.676 369.605 448.195 369.519C445.526 369.087 442.789 368.881 440.196 368.141C436.16 367.003 432.289 365.179 427.92 365.582C427.362 365.637 426.585 365.283 426.183 364.87C424.588 363.198 422.7 361.637 421.675 359.643C419.717 355.87 418.271 351.828 416.64 347.876C416.27 346.97 415.634 346.007 415.69 345.101C416.081 338 416.825 331.328 421.868 325.304C425.189 321.335 428.618 318.028 432.835 315.19C437.39 312.12 442.185 309.871 447.671 309.618C452.361 309.405 457.064 309.686 461.763 309.818C466.276 309.947 467.054 310.895 468.687 315.061C470.887 320.676 473.602 326.051 479.051 329.452C480.04 330.066 481.145 331.475 481.15 332.524C481.183 336.286 481.185 340.144 480.409 343.786C479.495 348.112 477.654 352.134 474.895 355.818C471.436 360.425 471.722 364.085 475.242 366.76C477.926 368.8 481.014 368.748 484.227 367.991C489.343 366.786 494.516 365.834 499.663 364.793C500.051 364.711 500.502 364.726 500.877 364.835C506.4 366.342 511.933 367.249 517.706 366.307C522.087 365.591 526.619 365.724 530.96 364.851C534.669 364.109 538.161 363.218 541.764 365.077C542.381 365.397 543.224 365.358 543.959 365.388C553.656 365.763 562.637 362.969 571.382 359.169C572.558 358.655 573.901 357.927 575.075 358.071C579.122 358.562 582.982 359.875 585.99 362.773C588.799 365.479 588.276 370.743 585.02 372.733C582.363 374.353 579.623 375.797 576.226 375.605C574.504 375.509 572.605 376.06 570.996 376.776C565.935 379.013 559.95 378.871 555.525 382.758C555.241 383.002 554.754 383.026 554.351 383.133C549.527 384.485 544.629 385.534 539.732 386.583C533.54 387.915 527.686 390.907 521.783 393.397C517.846 395.063 517.77 396.79 520.838 399.756C523.314 402.159 525.508 404.833 527.869 407.34C528.802 408.341 529.84 409.244 530.853 410.178C532.223 411.431 534.475 412.468 534.84 413.956C536.176 419.365 540.362 421.231 544.74 423.064C545.573 423.412 546.562 423.553 547.211 424.111C551.164 427.484 555.312 430.686 558.88 434.429C563.112 438.873 566.924 443.633 570.193 449.018C573.4 454.305 578.473 458.589 583.232 462.739C585.782 464.972 588.564 466.811 590.227 469.889C590.652 470.668 591.295 471.382 591.976 471.966C595.157 474.707 598.63 477.169 601.545 480.158C608.56 487.34 615.342 494.749 622.244 502.11C619.963 503.58 617.506 505.085 615.126 506.71C610.212 510.073 609.655 511.194 610.777 514.971C615.743 514.382 620.712 513.775 625.669 513.222C628.595 512.894 631.4 513.207 634.194 515.512C633.301 516.773 632.647 518.43 631.441 519.252C625.917 522.947 620.144 526.253 614.659 529.983C608.736 534.026 604.231 533.51 599.925 527.817C597.964 525.221 595.908 522.808 592.677 521.669C591.79 521.356 590.998 520.646 590.254 520.011C584.15 514.882 578.084 509.696 571.936 504.64C570.486 503.454 569.013 502.419 569.027 500.336C569.055 497.069 567.076 495.415 564.52 493.811C561.272 491.769 558.18 489.428 555.309 486.884C552.009 483.959 548.882 480.97 544.237 480.331C541.833 480.003 539.875 478.807 538.04 477.091C536.582 475.727 534.5 475.023 532.678 474.015C530.483 479.898 531.899 484.935 533.764 489.958C537.028 498.717 540.076 507.539 541.072 516.889C541.427 520.184 542.549 523.061 544.033 525.98C545.59 529.035 547.005 532.273 547.79 535.597C549.059 540.972 549.733 546.441 552.74 551.323C553.77 552.994 554.222 555.54 553.845 557.461C553.235 560.508 552.952 563.451 553.379 566.502C553.453 567.019 553.342 567.746 553.017 568.092C551.305 569.973 549.739 572.08 547.695 573.518C542.524 577.168 537.137 580.531 531.795 583.94C530.579 584.723 529.189 585.237 528.051 585.787L528.036 585.858Z" fill="black"/>
<path d="M745.931 251.758C749.944 253.216 753.922 253.593 757.934 251.679C760.984 250.223 763.207 247.872 764.469 244.894C766.535 239.999 769.854 235.653 770.632 230.148C770.872 228.501 772.591 227.124 773.362 225.492C774.667 222.747 775.781 219.912 776.945 217.118C777.668 215.383 778.332 213.617 779.015 211.849C779.859 209.636 780.587 207.362 781.555 205.199C783.302 201.313 785.027 197.393 787.102 193.673C788.025 192.016 789.708 192.583 790.836 193.902C792.339 195.655 793.691 197.534 795.186 199.297C796.461 200.8 797.837 202.221 799.196 203.661C799.536 204.017 799.994 204.287 800.291 204.674C803.471 208.945 806.625 213.228 809.77 217.521C810.305 218.247 810.723 219.077 811.316 219.752C815.426 224.361 819.634 228.868 823.644 233.561C825.168 235.348 826.168 237.583 827.568 239.483C828.861 241.231 830.374 242.828 831.817 244.451C832.949 245.724 834.223 246.882 835.254 248.239C837.401 251.053 839.403 253.964 841.492 256.83C842.852 258.699 844.187 260.579 845.656 262.354C849.806 267.341 854.014 272.258 858.199 277.224C859.903 279.238 861.573 281.274 863.251 283.299C866.249 286.897 869.262 290.475 872.22 294.123C874.03 296.353 875.781 298.636 877.491 300.95C880.142 304.548 883.066 304.782 886.32 301.601C887.299 300.631 888.288 299.669 889.745 298.228C886.278 305.824 886.409 309.464 890.138 317.531C894.208 317.998 897.726 317.167 900.283 313.604C901.217 312.302 902.564 311.283 903.734 310.137L910.881 301.264C912.387 297.595 914.383 294.32 918.028 292.391L920.205 289.689C920.161 289.621 920.071 289.549 920.073 289.485C920.383 284.03 917.356 280.08 914.316 276.004C910.282 270.585 906.519 264.973 902.732 259.391C901.908 258.185 901.541 256.657 900.76 255.419C899.671 253.704 898.396 252.118 897.181 250.498C896.062 249.005 894.773 247.621 893.818 246.046C892.454 243.814 891.373 241.415 890.086 239.128C887.525 234.6 884.914 230.113 882.293 225.619C881.845 224.846 881.368 223.986 880.675 223.477C877.473 221.095 875.822 217.727 874.306 214.007C879.543 215.825 884.608 217.735 889.766 219.326C893.462 220.462 897.344 220.958 901.034 222.122C911.669 225.478 922.116 229.356 931.922 234.805C932.494 235.117 933.127 235.578 933.719 235.579C940.04 235.541 944.784 239.609 950.162 241.968C954.621 243.916 957.249 243.534 959.874 239.418C962.606 235.126 964.943 230.548 967.945 226.473C970.464 223.061 973.755 220.221 976.599 217.038C977.622 215.89 978.64 214.606 979.19 213.208C980.193 210.613 979.251 208.983 976.957 207.496C972.061 204.293 967.479 205.32 962.93 208.166C962.163 208.649 961.405 209.14 960.627 209.614C960.507 209.682 960.335 209.691 960.361 209.679C961.706 207.048 963.108 204.347 964.46 201.606C965.244 200.018 964.701 198.628 963.061 198.293C956.277 196.922 950.789 192.715 944.619 190.112C935.116 186.107 926.407 180.522 916.712 176.938C912.905 175.531 909.734 172.517 906.037 170.707C898.789 167.153 891.323 164.032 884.042 160.518C879.368 158.266 874.939 155.504 870.285 153.186C865.776 150.934 861.127 148.998 856.565 146.852C852.156 144.781 847.724 142.739 843.42 140.456C841.699 139.547 840.397 137.873 838.734 136.829C837.541 136.082 836.073 135.738 834.703 135.292C833.851 135 832.958 134.84 832.086 134.614C832.389 133.461 832.479 132.185 833.073 131.201C833.636 130.257 834.671 129.545 835.581 128.865C839.617 125.837 843.149 122.106 848.687 121.488C854.423 120.847 858.95 117.475 862.879 113.538C865.443 110.968 868.234 108.975 871.478 107.462C874.131 106.213 876.423 104.574 877.809 101.811C878.334 100.771 879.383 99.8569 880.401 99.2469C883.801 97.2345 885.784 94.1798 887.033 90.5837C887.888 88.1324 887.485 85.8519 885.42 84.0406C885.047 83.7069 884.631 83.405 884.368 82.9958C879.495 75.5526 872.151 77.0842 865.13 77.8069C863.851 77.9436 862.711 79.3593 861.486 80.1645C860.143 81.0551 858.835 82.024 857.432 82.7844C855.434 83.8543 853.301 84.6837 851.314 85.7797C845.25 89.0974 839.241 92.5093 833.178 95.845C829.781 97.7114 826.434 99.7 822.903 101.262C819.615 102.706 816.191 103.992 812.683 104.75C807.598 105.849 802.344 106.137 797.281 107.27C791.301 108.601 785.953 111.214 782.527 116.755C782.093 117.458 780.579 117.866 779.63 117.776C777.979 117.597 776.282 116.903 776.109 114.89C775.968 113.265 776.153 111.605 776.211 109.958C776.384 105.347 777.124 100.667 776.595 96.131C775.83 89.5975 774.277 83.1846 768.132 79.0573C764.997 76.9593 762.199 74.3606 759.253 71.9873C760.366 69.4811 761.476 67.4491 762.142 65.2731C762.47 64.1901 762.417 62.4372 761.758 61.7422C761.131 61.0893 759.34 61.0438 758.284 61.3934C754.606 62.6064 751.03 64.0819 747.43 65.5053C739.767 68.5381 732.116 71.597 724.466 74.6739C723.933 74.8858 723.36 75.1475 722.993 75.5421C718.963 79.8907 714.356 83.8727 711.17 88.7691C708.592 92.7257 707.645 97.7655 706.103 102.359C702.472 113.143 708.835 126.833 717.801 132.691C722.617 135.83 727.698 138.723 732.988 140.946C737.685 142.904 742.683 142.097 747.435 140.122C749.519 139.253 751.796 138.818 753.997 138.273C756.366 137.683 758.096 139.175 759.862 140.335C760.236 140.586 760.438 141.439 760.368 141.975C760.218 143.021 759.993 144.139 759.5 145.057C755.541 152.487 756.007 160.884 754.418 168.826C753.851 171.657 754.884 174.79 754.487 177.676C753.777 182.89 752.18 187.982 751.598 193.201C750.714 201.086 747.822 208.357 745.676 215.866C743.688 222.812 742.037 229.85 740.095 236.8C738.881 241.149 739.446 245.089 742.129 248.729L745.994 251.843L745.931 251.758ZM895.42 312.547C892.442 310.806 891.847 308.437 892.635 305.619C893.214 303.571 893.85 301.535 894.531 299.503C895.864 295.579 897.164 291.695 895.235 287.527C893.985 284.827 892.563 284.405 890.754 286.794C889.127 288.936 887.812 291.346 886.615 293.751C884.948 297.11 882.144 297.81 879.444 295.274C878.683 294.562 878.234 293.526 877.535 292.717C876.91 292 876.173 291.341 875.418 290.765C874.575 290.135 873.347 289.82 872.787 289.024C869.27 284.005 865.389 279.399 860.701 275.344C857.683 272.732 854.133 270.004 854.047 265.184C854.035 264.484 853.09 263.673 852.401 263.118C851.25 262.175 849.891 261.491 848.798 260.496C848.06 259.819 847.024 258.672 847.165 257.965C848.018 254.065 846.018 250.925 844.328 247.953C842.447 244.646 839.689 241.833 837.219 238.89C836.277 237.769 834.875 237.035 833.986 235.891C829.949 230.7 826.164 225.3 821.459 220.673C820.236 219.473 818.936 217.917 817.42 217.551C814.164 216.769 812.027 214.883 810.258 212.275C809.161 210.651 808.08 209.008 806.923 207.419C806.293 206.566 805.646 205.651 804.805 205.039C801.289 202.453 798.477 199.3 796.366 195.48C795.573 194.052 794.59 192.636 793.372 191.572C791.4 189.869 790.102 187.985 789.75 185.335C789.63 184.482 788.677 183.253 787.922 183.106C787.206 182.973 785.949 183.818 785.485 184.578C784.454 186.247 783.833 188.163 782.95 189.934C781.447 192.964 779.113 195.802 778.492 198.984C777.136 205.881 773.794 211.769 770.654 217.854C768.645 221.759 767.226 225.975 765.64 230.089C764.011 234.3 762.533 238.567 760.914 242.786C759.762 245.77 757.952 248.242 754.493 248.611C751.241 248.968 748.661 247.448 746.89 244.822C744.988 241.991 743.983 238.781 745.01 235.401C746.654 229.985 748.083 224.429 750.425 219.313C753.41 212.808 754.521 206.01 754.174 199.122C753.704 189.851 756.323 181.407 759.272 172.9C760.175 170.307 760.536 167.507 760.987 164.78C762.076 158.03 762.378 151.073 764.287 144.573C766.299 137.679 762.549 129.332 752.909 132.038C752.44 132.17 751.956 132.322 751.471 132.392C748.802 132.823 746.14 133.49 743.446 133.605C739.257 133.798 735.009 133.285 730.989 135.045C730.476 135.273 729.628 135.182 729.116 134.917C727.075 133.832 724.792 132.946 723.19 131.377C720.143 128.413 717.498 125.033 714.704 121.796C714.067 121.053 713.16 120.339 712.928 119.462C711.061 112.599 709.664 106.033 712.552 98.7265C714.454 93.9128 716.666 89.6946 719.774 85.6722C723.129 81.3227 726.971 77.6776 732.097 75.7084C736.481 74.0283 741.033 72.813 745.534 71.4574C749.858 70.1572 750.896 70.8118 753.757 74.251C757.615 78.8869 761.886 83.1324 768.129 84.6433C769.261 84.9141 770.754 85.9028 771.089 86.8965C772.306 90.4569 773.523 94.1174 773.935 97.8185C774.43 102.212 773.951 106.61 772.493 110.975C770.663 116.437 772.087 119.821 776.271 121.251C779.461 122.341 782.375 121.318 785.186 119.588C789.662 116.832 794.272 114.298 798.827 111.688C799.17 111.488 799.603 111.359 799.993 111.345C805.71 111.035 811.247 110.152 816.429 107.439C820.361 105.379 824.704 104.076 828.548 101.88C831.835 100.007 834.868 98.0609 838.873 98.69C839.56 98.7989 840.347 98.4961 841.054 98.293C850.376 95.5933 858.019 90.1115 865.12 83.749C866.074 82.8908 867.12 81.7767 868.279 81.5435C872.274 80.7341 876.351 80.7632 880.12 82.5657C883.638 84.2491 884.801 89.4099 882.338 92.3246C880.326 94.699 878.181 96.9328 874.897 97.8213C873.232 98.2724 871.604 99.394 870.302 100.581C866.204 104.299 860.48 106.05 857.505 111.133C857.312 111.454 856.857 111.63 856.508 111.859C852.356 114.663 848.039 117.201 843.721 119.74C838.265 122.956 833.653 127.641 828.835 131.864C825.623 134.685 826.096 136.348 829.942 138.197C833.049 139.696 835.974 141.543 839.004 143.179C840.206 143.834 841.475 144.363 842.731 144.931C844.426 145.688 846.89 145.963 847.705 147.261C850.678 151.973 855.238 152.424 859.971 152.784C860.871 152.852 861.854 152.674 862.646 153C867.461 154.955 872.406 156.686 876.972 159.114C882.389 161.998 887.507 165.315 892.306 169.394C897.016 173.402 903.181 175.869 909.005 178.308C912.128 179.624 915.348 180.491 917.896 182.889C918.545 183.494 919.381 183.97 920.211 184.309C924.094 185.908 928.166 187.15 931.874 189.068C940.795 193.673 949.566 198.568 958.437 203.379C956.734 205.493 954.877 207.696 953.131 209.987C949.526 214.728 949.351 215.967 951.607 219.198C956.133 217.074 960.658 214.932 965.189 212.845C967.862 211.612 970.623 211.025 974 212.332C973.551 213.81 973.452 215.589 972.567 216.749C968.489 221.996 964.051 226.953 960.021 232.222C955.674 237.926 951.236 238.855 945.356 234.809C942.676 232.963 939.964 231.321 936.54 231.259C935.599 231.241 934.624 230.817 933.718 230.449C926.307 227.504 918.917 224.494 911.489 221.634C909.739 220.964 908.015 220.447 907.371 218.466C906.368 215.356 903.969 214.41 901.038 213.693C897.312 212.779 893.64 211.531 890.113 210.022C886.06 208.286 882.15 206.435 877.54 207.292C875.155 207.738 872.921 207.221 870.638 206.171C868.825 205.335 866.627 205.323 864.58 204.941C864.351 211.216 867.282 215.55 870.635 219.729C876.493 227.013 882.165 234.425 886.057 242.985C887.433 246 889.405 248.377 891.733 250.679C894.173 253.089 896.536 255.715 898.328 258.622C901.227 263.324 903.591 268.302 907.983 271.987C909.487 273.248 910.718 275.522 910.966 277.464C911.346 280.549 912.006 283.431 913.372 286.191C913.605 286.658 913.729 287.383 913.53 287.815C912.498 290.139 911.675 292.632 910.189 294.641C906.432 299.735 902.379 304.624 898.384 309.543C897.476 310.669 896.319 311.595 895.412 312.475L895.42 312.547Z" fill="black"/>
</g>
<defs>
<clipPath id="clip0_729_636">
<rect width="1007.52" height="725.814" fill="white"/>
</clipPath>
</defs>
</svg>
