<svg width="50" height="50" viewBox="0 0 50 50" fill="none" xmlns="http://www.w3.org/2000/svg">
<circle cx="25" cy="25" r="24.5" fill="white" stroke="#EA5A24"/>
<g clip-path="url(#clip0_729_1948)">
<path d="M38.3809 21.0101C38.6391 21.0101 38.8866 21.0068 39.1337 21.0106C39.7974 21.021 40.4625 21.0172 41.1244 21.0549C41.404 21.0708 41.6904 21.1487 41.9511 21.2477C42.9553 21.6297 42.9658 22.846 42.416 23.3935C42.1043 23.7038 41.7142 23.8797 41.2781 23.9888C41.2247 24.0022 41.1712 24.0158 41.0724 24.0407C41.222 24.0735 41.3283 24.0957 41.4337 24.1198C42.0349 24.2578 42.5532 24.5105 42.9157 24.9874C43.1736 25.3268 43.2781 25.7115 43.3169 26.1115C43.3574 26.5316 43.3226 26.9499 43.1838 27.3555C42.8679 28.2786 42.1439 28.7656 41.1256 28.933C40.982 28.9565 40.8358 28.9803 40.6908 28.9811C39.9253 28.9858 39.1601 28.9833 38.3812 28.9833V21.0101H38.3809ZM39.2694 24.2398V28.5895C39.6637 28.5895 40.0457 28.5843 40.4274 28.5906C41.1571 28.6024 41.6835 28.5089 42.0073 27.9305C42.4559 27.1288 42.5151 26.3322 42.2397 25.4777C42.0256 24.8129 41.5319 24.5039 40.7808 24.324C40.2875 24.2056 39.7869 24.2524 39.2694 24.2398ZM39.2694 23.8616C39.6673 23.8616 40.0439 23.8643 40.4205 23.8602C40.5493 23.8589 40.679 23.8471 40.8064 23.828C41.2493 23.7615 41.6481 23.4971 41.801 23.1072C41.9118 22.7506 41.9286 22.3814 41.8064 21.968C41.619 21.5644 41.273 21.3858 40.8043 21.3585C40.3496 21.3382 39.8938 21.3355 39.4382 21.3355C39.2259 21.3355 39.2595 21.3924 39.2544 21.6327C39.2598 22.4709 39.2658 23.805 39.2697 23.8613L39.2694 23.8616Z" fill="#4D4D4D"/>
<path d="M28.9665 28.9677C28.6482 28.9677 28.3608 28.9746 28.0746 28.9617C28.0196 28.9592 27.9494 28.8901 27.919 28.8362C27.3476 27.828 26.7809 26.8176 26.213 25.8078C26.0217 25.4676 25.8296 25.1277 25.6257 24.7662C25.3668 25.0749 25.1193 25.365 24.8806 25.6612C24.8494 25.7 24.8584 25.7692 24.8584 25.8244C24.8572 26.8119 24.8575 27.799 24.8575 28.7864V28.9819H23.9824V21.0216H24.8569V25.0566C25.0665 24.8222 27.0229 22.5709 28.0142 21.0987C28.0467 21.0506 28.1313 21.0172 28.1977 21.006C28.2896 20.9904 28.6169 21.0101 28.7494 21.0101C28.6953 21.0787 27.1542 23.1001 26.3872 24.0093C26.3034 24.1085 26.2974 24.1805 26.3605 24.2926C27.2193 25.8212 28.016 27.2505 28.8698 28.7812C28.8995 28.8346 28.9259 28.8895 28.9662 28.9674L28.9665 28.9677Z" fill="#4D4D4D"/>
<path d="M6 21.0195C6.04745 21.0159 6.08619 21.0105 6.12492 21.0105C6.84534 21.0121 7.56695 20.9946 8.28647 21.0214C9.19127 21.055 9.95012 21.3561 10.4147 22.1133C10.5985 22.413 10.6828 22.7414 10.7219 23.078C10.7973 23.7296 10.6994 24.3525 10.3078 24.9186C9.8324 25.606 9.26934 26.1286 8.24983 26.1663C7.82161 26.1849 6.91531 26.1748 6.87267 26.1748C6.87267 27.2049 6.87597 27.956 6.87597 28.9878H6V21.0195ZM6.87537 21.3293V22.2188C6.87537 23.3536 6.87777 24.4887 6.87207 25.6235C6.87146 25.7575 6.87207 25.8242 6.87207 25.8242C7.14504 25.8609 7.6132 25.8746 7.88527 25.8562C8.80178 25.7835 9.09007 25.5713 9.47595 24.8945C9.78375 24.3364 9.83601 23.7406 9.77955 23.1319C9.73781 22.6804 9.6318 22.244 9.36154 21.8521C9.14772 21.5418 8.88947 21.428 8.49217 21.3457C8.05434 21.2552 6.87567 21.314 6.87567 21.3293H6.87537Z" fill="#4D4D4D"/>
<path d="M45.0005 21.0205V28.9825H44.1348V21.0205H45.0005Z" fill="#4D4D4D"/>
<path d="M32.7471 28.9903C30.4817 29.0288 28.8529 27.9315 28.2592 25.9359C27.9832 25.0081 28.2018 24.1538 28.9547 23.4532C29.621 22.833 30.2294 22.1273 31.0009 21.6403C33.6964 19.9383 36.5609 21.9966 37.3303 23.9476C38.1002 25.8998 37.0903 27.3097 35.7393 28.5104C35.233 28.9605 34.1231 28.8519 33.2862 28.9864C33.1117 29.0143 32.927 28.9906 32.7471 28.9906V28.9903ZM29.2369 25.179C29.2093 26.8615 30.6691 28.1976 32.5633 28.223C35.2684 28.2593 36.5468 27.1306 36.578 24.6775C36.5964 23.244 34.7678 21.672 33.051 21.6446C31.4294 21.6189 29.2625 23.6269 29.2369 25.1787V25.179Z" fill="#4D4D4D"/>
<path d="M16.1132 21.0231V25.8697C16.0002 25.8705 15.7498 25.8847 15.3624 25.9752C14.8171 26.1029 14.0534 26.6091 13.3678 26.926C12.8741 27.154 12.5057 27.1688 12.3372 27.1592V21.022H11.4688V28.9859H12.3393C12.3393 28.9123 12.3417 28.8308 12.336 27.5929C12.336 27.5771 12.3366 27.5631 12.3375 27.5497C12.5075 27.544 12.878 27.5131 13.3471 27.3662C13.9964 27.1628 14.3931 26.7105 15.097 26.4592C15.6177 26.2733 15.9903 26.2563 16.1261 26.2574V28.9864H16.9912V21.0231H16.1132Z" fill="#4D4D4D"/>
<path d="M22.3319 21.0231V24.6424H18.556V21.022H17.6875V28.9859H18.5581V28.7819C18.5581 27.544 18.5605 26.3061 18.5548 25.0685C18.5548 25.0575 18.5554 25.0482 18.556 25.0384C18.5923 25.0209 18.6346 25.0086 18.6842 25.0072C18.8884 25.0012 21.9926 25.0067 22.3448 25.0072V28.9867H23.21V21.0231H22.3319Z" fill="#4D4D4D"/>
</g>
<defs>
<clipPath id="clip0_729_1948">
<rect width="39" height="8" fill="white" transform="translate(6 21)"/>
</clipPath>
</defs>
</svg>
