<svg width="81" height="196" viewBox="0 0 81 196" fill="none" xmlns="http://www.w3.org/2000/svg">
<path d="M30.7316 79.8847L30.719 79.8826L30.7188 79.8792L30.7316 79.8847Z" fill="#8FB8DF"/>
<path fill-rule="evenodd" clip-rule="evenodd" d="M47.3292 177.945L48.0639 170.268L46.5732 164.729L47.6416 163.006L45.5715 157.034L46.6172 154.648L45.7594 150.947L46.4491 146.202L45.1408 140.309C45.5221 140.027 45.8986 139.703 46.2798 139.376C47.1615 138.618 48.0676 137.84 49.1123 137.51C49.7676 137.303 50.2652 136.852 50.7538 136.41C51.4404 135.788 52.1094 135.182 53.1738 135.292C53.6328 134.161 54.5682 133.556 55.5039 132.95C55.9154 132.684 56.3271 132.418 56.6982 132.107C57.1817 131.7 57.7044 131.321 58.2269 130.942C59.3385 130.136 60.4492 129.331 61.1772 128.262C61.2594 128.141 61.3419 128.021 61.4244 127.9C63.3563 125.072 65.312 122.209 65.1552 118.38C64.9687 113.882 62.9138 110.441 59.774 107.568C59.4712 107.291 59.2381 106.935 59.0048 106.578C58.542 105.871 58.0785 105.163 57.0682 105.068C55.6491 103.369 53.7946 102.259 51.9399 101.149C51.0224 100.6 50.1049 100.051 49.24 99.4301C47.7732 98.3795 46.4209 97.2149 45.0811 96.0611C44.2068 95.3081 43.3377 94.5597 42.4456 93.8505L42.089 86.321L42.9056 84.7267L41.4531 83.8134L42.6273 79.9702L42.0473 77.028L41.9318 68.009L41.3016 64.2039L41.501 60.6001L41.9858 59.8237L41.0154 59.2812L41.1251 54.136L41.4799 51.1219L40.7695 48.0199L41.1294 45.094L40.4748 42.9526L40.0443 35.5491L43.0078 35.2838C43.3366 34.6092 43.5372 34.0337 43.7355 33.4651C43.9275 32.9142 44.1174 32.3696 44.4192 31.7477C44.1309 30.788 44.3065 30.1706 44.4384 29.7067C44.5923 29.1653 44.6867 28.8331 43.9155 28.4099C43.5249 28.4326 43.4994 28.1081 43.4736 27.7791C43.4472 27.4425 43.4205 27.1012 43.0016 27.1223C42.9558 27.125 42.905 27.081 42.797 26.9876C42.7289 26.9288 42.6381 26.8504 42.5117 26.7517C42.8576 26.7131 43.1369 26.5389 43.4026 26.3731C43.852 26.0929 44.2625 25.8369 44.8899 26.3021C45.3323 25.447 46.1197 25.2031 46.931 24.9518C47.0771 24.9065 47.2242 24.861 47.37 24.8116C47.8456 24.6523 48.2979 24.4213 48.7513 24.1897C49.1562 23.9829 49.562 23.7757 49.986 23.6187C50.4736 23.4369 50.9804 23.3076 51.487 23.1783C51.9266 23.0662 52.3661 22.954 52.7929 22.8076C53.8778 22.4388 55.0798 21.7634 56.2758 21.0913C57.3955 20.4622 58.51 19.836 59.5182 19.467C60.1683 19.2309 60.7029 19.502 61.2451 19.7771C61.7588 20.0376 62.2793 20.3016 62.911 20.1407C63.5916 19.9676 64.3176 19.9588 65.0443 19.9499C65.3689 19.946 65.6937 19.942 66.0147 19.9234L69.9234 19.6969C70.5961 19.3131 71.1958 18.9494 71.7521 18.6119C72.8655 17.9367 73.8054 17.3666 74.8098 16.9509C78.4754 15.4415 80.129 13.6996 80.9254 10.1056C81.1982 8.88117 80.6679 7.28198 80.2188 5.9273C80.0562 5.43704 79.9043 4.9788 79.8049 4.58194C79.7864 4.50884 79.766 4.41776 79.7426 4.31341C79.5395 3.40889 79.1127 1.50728 77.8124 1.67766C76.1446 0.059622 74.1363 -0.216826 71.9398 0.134922C71.7827 0.16017 71.6244 0.177964 71.4671 0.195645C71.017 0.246235 70.5751 0.295906 70.1946 0.516632C67.572 1.70364 64.9431 2.89102 61.7909 4.31448L59.1058 7.32579C59.5831 7.83914 59.3748 8.30331 59.1668 8.76711C59.0583 9.0089 58.9499 9.25059 58.9386 9.49909C58.3519 9.48533 58.0158 10.1161 57.6756 10.7548C57.3052 11.4503 56.9298 12.155 56.2202 12.0466C56.058 12.0193 55.8622 12.1691 55.6743 12.3129C55.6066 12.3648 55.5398 12.4159 55.476 12.4576C53.1348 13.9549 50.6567 15.1993 48.1783 16.4439C46.1057 17.4847 44.033 18.5256 42.0401 19.7145C41.8723 19.815 41.7287 19.9551 41.5819 20.0984C41.5069 20.1716 41.431 20.2456 41.3506 20.3156C39.0129 18.9921 36.6311 17.8768 33.8702 19.4771L33.4389 20.0797C32.9696 20.7357 32.4606 21.4471 31.7734 22.4044C31.7331 22.624 31.6702 22.8637 31.6029 23.1197C31.2822 24.3406 30.8636 25.9342 32.3384 27.5033C31.7733 27.7387 31.1525 27.7895 30.5494 27.8387C29.4087 27.932 28.331 28.02 27.8115 29.3431C28.0933 29.8326 27.7221 29.8544 27.3462 29.8766C26.9344 29.9008 26.5168 29.9254 26.9458 30.5655C27.1055 30.8029 27.0027 31.0988 26.8975 31.4017C26.7234 31.9026 26.5429 32.4222 27.5336 32.7262C27.2858 32.8249 27.0728 32.9115 26.8687 32.9945C26.6808 33.0709 26.5002 33.1443 26.3071 33.2213C26.138 34.5341 25.3469 35.4762 24.5543 36.4202C24.1371 36.9171 23.7194 37.4145 23.3918 37.9668C22.7574 39.0313 22.3773 40.2455 21.9804 41.5133C21.8042 42.0762 21.6247 42.6497 21.4181 43.2252C21.3291 43.2669 21.1159 43.3592 20.8455 43.4763L20.5289 43.6135C20.718 43.815 20.8805 43.9852 21.0736 44.1873L21.2141 44.3344C20.1157 47.7838 19.5308 51.3655 19.9398 55.0705C20.0438 55.9997 20.0794 56.9329 20.1024 57.8669C20.2101 62.0819 20.988 66.1146 23.2972 69.7406C24.7086 74.9029 27.2618 78.386 30.1122 82.2745C30.8339 83.2591 31.5747 84.2697 32.3208 85.3401C32.6609 85.8299 33.1006 86.2487 33.5425 86.6697C34.3228 87.413 35.1101 88.163 35.3689 89.3223C36.9927 89.646 37.8082 90.8894 38.6106 92.4454L41.3954 110.528L42.0011 119.778L41.4489 141.258C39.8465 142.18 38.2468 143.108 36.6467 144.035L36.6421 144.038C33.0061 146.147 29.3683 148.256 25.6934 150.296C24.1003 151.18 22.4414 151.947 20.7815 152.713C19.7374 153.196 18.6927 153.678 17.6639 154.19L17.278 154.383C15.4271 155.306 13.5728 156.23 11.8323 157.328C11.0141 157.842 10.1643 157.966 9.34088 158.085C8.33925 158.23 7.37674 158.37 6.55791 159.201C5.67506 160.096 4.81475 160.75 4.02881 161.347C2.19492 162.741 0.766032 163.827 0.401003 166.947C0.35853 167.317 0.288856 167.69 0.219403 168.061C0.0110072 169.174 -0.195406 170.277 0.34092 171.284C0.653925 171.871 0.827449 172.486 1.00177 173.103C1.19047 173.772 1.38011 174.444 1.74862 175.087C3.28495 177.773 4.96126 180.288 7.33175 182.283C10.464 184.92 13.6314 187.517 16.8043 190.102C16.9933 190.254 17.2505 190.324 17.5264 190.398C17.6618 190.435 17.8018 190.473 17.9404 190.522C18.3681 191.904 19.0611 192.053 20.2666 192.31C20.5784 192.377 20.9246 192.451 21.3093 192.555C22.5593 192.894 23.1606 193.897 23.1606 193.897L24.6824 196L26.1211 195.259L26.9884 195.072C26.9884 195.072 28.0864 195.206 28.5725 195.296C30.0629 195.583 31.1294 195.362 32.2149 195.138C33.1994 194.934 34.1995 194.727 35.5457 194.892C39.2892 195.351 42.3953 195.217 45.7433 195.071C47.1207 195.012 48.539 194.95 50.0595 194.928C51.4196 194.905 56.1211 193.489 56.1211 193.489C56.1211 193.489 59.5416 194.432 60.8131 193.854C61.3894 193.593 62.0346 193.501 62.7001 193.406C63.3137 193.318 63.9444 193.228 64.5543 193.001C65.5799 192.617 66.3544 192.609 67.0463 192.601C68.0697 192.59 68.9123 192.581 70.1194 191.361C71.4908 191.357 71.9845 189.678 72.412 188.225C72.5178 187.866 72.6195 187.52 72.7295 187.216L72.5491 184.114C72.4517 183.668 72.3974 183.348 72.3533 183.088C72.2435 182.439 72.1968 182.164 71.7019 181.24C71.5971 181.045 71.2222 181.013 70.8218 180.978C70.5533 180.955 70.2732 180.931 70.0558 180.856C66.2511 179.542 62.3389 178.958 58.3245 178.549C56.8217 178.395 55.3469 178.43 53.878 178.464C52.8354 178.489 51.7955 178.513 50.7508 178.47C50.0343 178.44 49.3227 178.303 48.5397 178.151C48.1599 178.078 47.7632 178.001 47.3409 177.932L47.3292 177.945ZM41.3957 142.384L45.1408 174.151L43.5202 178.92L40.0471 179.122C39.5317 179.151 39.0041 179.148 38.4761 179.144C37.3081 179.135 36.1387 179.127 35.0971 179.483C33.6629 179.98 32.1941 180.308 30.7251 180.635C29.3411 180.944 27.9569 181.252 26.6016 181.703C23.2684 182.806 20.2119 184.156 17.9447 186.837C17.9189 187.268 17.8957 187.679 17.8723 188.092C17.8525 188.441 17.8327 188.792 17.8111 189.158C17.3724 188.854 16.9321 188.56 16.4962 188.27C14.3851 186.863 12.3771 185.525 11.1538 183.359C9.60138 183.081 8.40584 182.389 7.74541 180.912C7.5656 180.505 7.30378 180.084 6.96865 179.798C4.54114 177.681 3.36298 175.785 2.0017 172.566C1.18346 170.63 1.08563 168.84 1.53532 166.8C1.95393 164.905 2.74642 164.345 3.75419 163.633C4.38884 163.184 5.10886 162.675 5.87465 161.735C7.37663 159.885 9.29616 159.185 11.2468 158.475C12.808 157.906 14.389 157.33 15.7919 156.151C17.5003 155.743 19.0236 154.93 20.5511 154.114L20.552 154.113C21.062 153.841 21.5725 153.568 22.0904 153.31L22.5254 153.095L22.5264 153.095C24.5351 152.102 26.5349 151.113 28.4655 149.961C29.4977 149.346 30.6642 148.786 31.7958 148.271C33.7042 147.403 35.5086 146.301 37.3448 145.18C38.1077 144.714 38.8764 144.245 39.66 143.788C39.6337 143.764 39.8561 143.938 39.9348 144.002C40.1765 143.735 40.404 143.482 40.6889 143.164C40.8881 142.942 41.1154 142.689 41.3954 142.378L41.3957 142.384ZM30.719 79.8826C29.6491 79.6989 29.1031 78.8066 28.6448 78.0575C28.5937 77.974 28.5437 77.8922 28.4941 77.8134C27.4784 76.1936 26.6127 74.4844 25.7463 72.7735C25.409 72.1076 25.0717 71.4414 24.7253 70.7802L24.7651 70.7225C24.8774 70.5598 25.0076 70.3712 25.1512 70.157C24.6746 70.0162 24.306 69.9066 24.6109 69.995C23.6685 69.0548 23.4043 68.0708 23.1524 67.1327C22.9844 66.5068 22.8218 65.9014 22.4669 65.343C22.0225 64.6441 21.8916 63.747 21.7604 62.8486C21.7008 62.4407 21.6412 62.0325 21.5523 61.6425C21.4632 61.2433 21.3647 60.8459 21.2662 60.4486C21.0564 59.6022 20.8466 58.7559 20.7285 57.893C20.5851 56.8436 20.7378 55.799 20.8907 54.7528C21.074 53.4986 21.2576 52.2421 20.9318 50.9726C21.5257 50.2947 21.473 49.5173 21.4203 48.7404C21.3852 48.2225 21.3501 47.7048 21.5066 47.2169C21.6574 46.7489 21.8479 46.2832 22.0383 45.818C22.4424 44.8304 22.8454 43.8456 22.8638 42.8484C22.8845 41.7922 23.3513 40.9977 23.8142 40.2098C24.1256 39.6798 24.4352 39.1528 24.6061 38.5512C24.8853 37.5648 25.5692 36.8509 26.242 36.1486C26.7929 35.5736 27.3363 35.0063 27.6441 34.3035C28.1495 34.6033 28.9923 34.553 29.8217 34.5035C30.6267 34.4554 31.4192 34.4081 31.8781 34.6825L36.1613 35.6806L37.701 45.8498L39.6121 58.2507L38.336 90.0857C37.4734 88.9733 36.6197 88.0817 35.8114 87.2376C34.2219 85.5777 32.8083 84.1014 31.8492 81.491C31.5067 81.3986 31.1449 81.3011 30.7958 81.2029L30.719 79.8826ZM62.6262 113.014C62.7443 113.262 62.8694 113.498 62.9914 113.729C63.2515 114.22 63.4976 114.685 63.6328 115.182C64.8373 119.57 62.665 125.925 59.049 128.716C58.7992 128.909 58.5498 129.103 58.3003 129.296L58.298 129.298C57.3902 130.003 56.4821 130.708 55.5572 131.387C53.0941 133.205 50.6208 135.017 48.0835 136.876C47.1171 137.584 46.1414 138.299 45.1535 139.023L45.457 133.977L44.2559 129.243L44.9507 125.27L43.6441 121.768L44.6017 119.268L43.7034 117.173L43.7443 114.789L44.2424 113.088L43.0391 111.363L43.7536 109.624L43.2789 106.785L42.6541 96.0395C43.3971 96.579 44.123 97.1052 44.8388 97.6243L44.8398 97.625C45.8323 98.3446 46.8056 99.0502 47.779 99.758C48.5256 100.302 49.2607 100.867 49.9959 101.432C51.7266 102.762 53.4582 104.092 55.3434 105.156C57.1834 106.19 58.4187 107.565 59.5623 109.189C59.8954 109.656 60.2473 110.122 60.6519 110.528C60.7647 110.643 60.9222 110.715 61.0789 110.787C61.2448 110.863 61.4098 110.939 61.5199 111.064C61.7045 111.281 61.8299 111.549 61.9471 111.799C62.0002 111.912 62.0515 112.022 62.1059 112.121L62.1051 112.123C61.9022 112.383 61.7803 112.54 61.6116 112.749C61.7377 112.782 61.8585 112.813 61.986 112.846C62.1727 112.895 62.3737 112.947 62.6262 113.014ZM24.4869 187.64L22.6579 185.083V189.832H28.5118L37.4152 192.023L49.9775 189.832L54.3683 187.64H61.9301L70.5896 185.083L68.5162 182.405L60.9544 183.379L53.5145 184.231L47.6602 187.64L39.2446 186.544L29.9753 187.64H24.4869ZM72.8399 2.63329L75.4389 2.97341L75.3576 5.8611L74.2229 8.23841L69.5121 11.1454L65.6213 9.86394L61.3237 10.1513L62.9082 7.45356L72.8399 2.63329Z" fill="#8FB8DF"/>
</svg>
