<svg width="50" height="50" viewBox="0 0 50 50" fill="none" xmlns="http://www.w3.org/2000/svg">
<circle cx="25" cy="25" r="24.5" fill="white" stroke="#EA5A24"/>
<g clip-path="url(#clip0_729_1775)">
<path d="M32.625 27.8261C32.625 30.8174 31.7426 33.5053 30.3409 35.433C28.9387 37.3612 27.0442 38.4998 25 38.4998C22.9558 38.4998 21.0613 37.3612 19.6591 35.433C18.2574 33.5053 17.375 30.8174 17.375 27.8261C17.375 24.8347 18.2574 22.1469 19.6591 20.2191C21.0613 18.2909 22.9558 17.1523 25 17.1523C27.0442 17.1523 28.9387 18.2909 30.3409 20.2191C31.7426 22.1469 32.625 24.8347 32.625 27.8261Z" stroke="#4D4D4D"/>
<path d="M25 28.2866V31.3101" stroke="#4D4D4D"/>
<ellipse cx="22.4284" cy="27.1694" rx="0.541667" ry="0.525822" fill="#4D4D4D"/>
<ellipse cx="27.4362" cy="27.1694" rx="0.541667" ry="0.525822" fill="#4D4D4D"/>
<ellipse cx="0.784315" cy="1.13144" rx="0.784315" ry="1.13144" transform="matrix(0.94535 -0.326057 0.343707 0.939077 20.125 28.9951)" fill="#4D4D4D"/>
<path d="M16.7449 28.8161C16.8486 29.0993 16.8495 29.3669 16.7903 29.563C16.7312 29.7593 16.6265 29.8515 16.5331 29.8837C16.4396 29.9159 16.2985 29.9085 16.125 29.7925C15.9516 29.6765 15.7784 29.4684 15.6748 29.1852C15.5711 28.902 15.5702 28.6344 15.6294 28.4383C15.6886 28.242 15.7932 28.1498 15.8866 28.1176C15.9801 28.0853 16.1212 28.0928 16.2947 28.2088C16.4681 28.3248 16.6413 28.5329 16.7449 28.8161Z" stroke="#4D4D4D"/>
<mask id="path-8-inside-1_729_1775" fill="white">
<ellipse cx="0.994106" cy="1.44037" rx="0.994106" ry="1.44037" transform="matrix(-0.94535 -0.326057 -0.343707 0.939077 35.1836 27.9487)"/>
</mask>
<path d="M33.7543 28.9791C33.6785 29.1864 33.6847 29.3538 33.7074 29.4394C33.7314 29.5298 33.7371 29.439 33.5974 29.3908L32.91 31.2689C32.2512 31.0417 31.8979 30.486 31.7609 29.9695C31.6226 29.4483 31.6661 28.8668 31.8636 28.327L33.7543 28.9791ZM33.5974 29.3908C33.4577 29.3426 33.403 29.4166 33.4804 29.3611C33.5537 29.3086 33.6673 29.1826 33.7432 28.9753L35.6339 29.6274C35.4363 30.1672 35.0921 30.6449 34.646 30.9646C34.2041 31.2814 33.5687 31.4961 32.91 31.2689L33.5974 29.3908ZM33.7432 28.9753C33.819 28.768 33.8128 28.6006 33.7901 28.515C33.7661 28.4246 33.7604 28.5155 33.9001 28.5637L34.5875 26.6855C35.2463 26.9127 35.5996 27.4685 35.7366 27.9849C35.8749 28.5062 35.8314 29.0877 35.6339 29.6274L33.7432 28.9753ZM33.9001 28.5637C34.0398 28.6119 34.0945 28.5379 34.0171 28.5933C33.9438 28.6458 33.8302 28.7719 33.7543 28.9791L31.8636 28.327C32.0612 27.7873 32.4054 27.3095 32.8515 26.9898C33.2934 26.673 33.9288 26.4583 34.5875 26.6855L33.9001 28.5637Z" fill="#4D4D4D" mask="url(#path-8-inside-1_729_1775)"/>
<ellipse cx="0.784315" cy="1.13144" rx="0.784315" ry="1.13144" transform="matrix(-0.94535 -0.326057 -0.343707 0.939077 29.9688 28.9951)" fill="#4D4D4D"/>
<path d="M27.0313 32.4272C27.0313 33.7341 26.1218 34.7934 25 34.7934C23.8782 34.7934 22.9688 33.7341 22.9688 32.4272" stroke="#4D4D4D"/>
<ellipse cx="15.6562" cy="25.3286" rx="3.65625" ry="3.5493" fill="#4D4D4D"/>
<ellipse cx="32.8542" cy="19.8077" rx="3.79167" ry="3.68075" fill="#4D4D4D"/>
<ellipse cx="29.8086" cy="16.324" rx="4.26562" ry="4.14085" fill="#4D4D4D"/>
<ellipse cx="34.0716" cy="24.9343" rx="3.92708" ry="3.81221" fill="#4D4D4D"/>
<ellipse cx="19.3125" cy="16.1269" rx="3.65625" ry="3.5493" fill="#4D4D4D"/>
<ellipse cx="30.0117" cy="19.9389" rx="3.65625" ry="3.5493" fill="#4D4D4D"/>
<ellipse cx="24.3229" cy="20.0704" rx="3.79167" ry="3.68075" fill="#4D4D4D"/>
<ellipse cx="23.7135" cy="14.8779" rx="3.99479" ry="3.87793" fill="#4D4D4D"/>
<ellipse cx="17.349" cy="20.2675" rx="4.53646" ry="4.40376" fill="#4D4D4D"/>
</g>
<defs>
<clipPath id="clip0_729_1775">
<rect width="26" height="28" fill="white" transform="translate(12 11)"/>
</clipPath>
</defs>
</svg>
