<svg width="22" height="18" viewBox="0 0 22 18" fill="none" xmlns="http://www.w3.org/2000/svg">
<path fill-rule="evenodd" clip-rule="evenodd" d="M0.953125 10.5115C0.953125 11.0637 1.40084 11.5115 1.95313 11.5115C3.77581 11.5115 5.54822 11.3205 7.25976 11.1121C7.5295 11.0792 7.7973 11.046 8.06351 11.013C9.50299 10.8345 10.8958 10.6618 12.2967 10.584C13.5921 10.512 14.8706 10.5357 16.1876 10.5602C16.8656 10.5728 17.5538 10.5855 18.2597 10.5855C18.3263 10.5855 18.3927 10.5841 18.4589 10.5812C18.156 10.8944 17.8114 11.2151 17.4428 11.5356C16.5942 12.2737 15.6959 12.9473 14.9598 13.4994C14.6678 13.7183 14.4014 13.9181 14.1736 14.0952C13.9164 14.2953 13.6645 14.5099 13.4295 14.7104L13.4137 14.7239C13.1789 14.9243 12.9594 15.1116 12.7366 15.2874C12.2774 15.6497 11.8693 15.9092 11.4621 16.045C10.9382 16.2196 10.655 16.7859 10.8296 17.3099C11.0043 17.8338 11.5706 18.117 12.0945 17.9423C12.8285 17.6977 13.4518 17.2707 13.9754 16.8575C14.229 16.6575 14.4744 16.448 14.7009 16.2547L14.7277 16.2319C14.9674 16.0274 15.1856 15.8419 15.4015 15.6739C15.5872 15.5295 15.8237 15.3521 16.0942 15.1493C16.8413 14.5889 17.8473 13.8344 18.7553 13.0447C19.3811 12.5005 19.9978 11.9088 20.4911 11.3087C20.9684 10.728 21.4101 10.045 21.5552 9.31938C21.6635 8.77782 21.3123 8.251 20.7708 8.14268C20.5522 8.09897 20.336 8.13011 20.1488 8.2184C20.0041 7.99904 19.8177 7.82645 19.6426 7.70038C19.3068 7.45868 18.8888 7.29218 18.4335 7.21185C18.3859 7.20344 18.2034 7.13258 17.8632 6.8567C17.5489 6.60171 17.2007 6.25661 16.8229 5.86035C16.6835 5.71415 16.5341 5.55446 16.3823 5.39222C16.1488 5.14269 15.9097 4.88712 15.6926 4.66531C15.3317 4.29642 14.9302 3.91277 14.5374 3.65595C14.3694 3.54609 14.0596 3.36822 13.7131 3.16927C13.6092 3.10963 13.5021 3.0481 13.3944 2.98594C12.9007 2.7008 12.3393 2.37033 11.8377 2.04348C11.4428 1.78613 11.1286 1.55857 10.9185 1.37807C10.9428 1.18811 10.9129 0.989118 10.8208 0.804958C10.5738 0.31098 9.97316 0.110755 9.47918 0.357745C9.29175 0.45146 9.06687 0.614185 8.91712 0.888002C8.76062 1.17416 8.74672 1.47057 8.794 1.71142C8.87403 2.1191 9.13801 2.42665 9.29636 2.59388C9.65902 2.97685 10.2174 3.37475 10.7458 3.71908C11.2949 4.07691 11.8952 4.42966 12.3942 4.71787C12.5332 4.79811 12.6609 4.87151 12.7766 4.93797C13.099 5.12318 13.3277 5.25452 13.4429 5.32989C13.6373 5.45696 13.9077 5.7008 14.2631 6.06405C14.4723 6.27784 14.6761 6.49596 14.8915 6.72636C15.0449 6.89055 15.2042 7.06097 15.3754 7.2405C15.7628 7.64677 16.1841 8.06993 16.6034 8.40998C16.6687 8.46299 16.7374 8.51687 16.8092 8.57033C16.649 8.56758 16.488 8.56465 16.3263 8.5617C14.9632 8.53687 13.5519 8.51116 12.1857 8.58706C10.7109 8.66899 9.24068 8.85148 7.80253 9.02998C7.53991 9.06258 7.27835 9.09504 7.01804 9.12673C5.31538 9.33404 3.64579 9.51145 1.95313 9.51145C1.40084 9.51145 0.953125 9.95917 0.953125 10.5115ZM10.6906 1.15012C10.6904 1.1501 10.6921 1.15292 10.6964 1.15864C10.693 1.153 10.6908 1.15014 10.6906 1.15012Z" fill="#EA5A24"/>
</svg>
