<svg width="22" height="18" viewBox="0 0 22 18" fill="none" xmlns="http://www.w3.org/2000/svg">
    <path fill-rule="evenodd" clip-rule="evenodd"
        d="M21.0469 10.5115C21.0469 11.0637 20.5992 11.5115 20.0469 11.5115C18.2242 11.5115 16.4518 11.3205 14.7402 11.1121C14.4705 11.0792 14.2027 11.046 13.9365 11.013C12.497 10.8345 11.1042 10.6618 9.70332 10.584C8.40793 10.512 7.1294 10.5357 5.81239 10.5602C5.13439 10.5728 4.44619 10.5855 3.74025 10.5855C3.67374 10.5855 3.60729 10.5841 3.54112 10.5812C3.84404 10.8944 4.1886 11.2151 4.5572 11.5356C5.4058 12.2737 6.3041 12.9473 7.04023 13.4994C7.33219 13.7183 7.59864 13.9181 7.82635 14.0952C8.08362 14.2953 8.33546 14.5099 8.57046 14.7104L8.58627 14.7239C8.82107 14.9243 9.04063 15.1116 9.26341 15.2874C9.7226 15.6497 10.1307 15.9092 10.5379 16.045C11.0618 16.2196 11.345 16.7859 11.1704 17.3099C10.9957 17.8338 10.4294 18.117 9.90545 17.9423C9.17153 17.6977 8.54817 17.2707 8.02457 16.8575C7.771 16.6575 7.52557 16.448 7.29909 16.2547L7.27226 16.2319C7.0326 16.0274 6.81435 15.8419 6.59847 15.6739C6.41278 15.5295 6.17627 15.3521 5.90583 15.1493C5.15871 14.5889 4.15275 13.8344 3.24473 13.0447C2.61892 12.5005 2.00218 11.9088 1.50894 11.3087C1.03157 10.728 0.589899 10.045 0.444784 9.31938C0.336473 8.77782 0.687688 8.251 1.22925 8.14268C1.44781 8.09897 1.66397 8.13011 1.8512 8.2184C1.99585 7.99904 2.18232 7.82645 2.35745 7.70038C2.69319 7.45868 3.11124 7.29218 3.56647 7.21185C3.61408 7.20344 3.79664 7.13258 4.13676 6.8567C4.45113 6.60171 4.7993 6.25661 5.17714 5.86035C5.31654 5.71415 5.46595 5.55446 5.61775 5.39222C5.85122 5.14269 6.09034 4.88712 6.30737 4.66531C6.66832 4.29642 7.06979 3.91277 7.46257 3.65595C7.63058 3.54609 7.94039 3.36822 8.28689 3.16927C8.39076 3.10963 8.49794 3.0481 8.60557 2.98594C9.09931 2.7008 9.66072 2.37033 10.1623 2.04348C10.5572 1.78613 10.8714 1.55857 11.0815 1.37807C11.0572 1.18811 11.0871 0.989118 11.1792 0.804958C11.4262 0.31098 12.0268 0.110755 12.5208 0.357745C12.7083 0.45146 12.9331 0.614185 13.0829 0.888002C13.2394 1.17416 13.2533 1.47057 13.206 1.71142C13.126 2.1191 12.862 2.42665 12.7036 2.59388C12.341 2.97685 11.7826 3.37475 11.2542 3.71908C10.7051 4.07691 10.1048 4.42966 9.60578 4.71787C9.46684 4.79811 9.33907 4.87151 9.22337 4.93797C8.90097 5.12318 8.67233 5.25452 8.55707 5.32989C8.36271 5.45696 8.09232 5.7008 7.73688 6.06405C7.5277 6.27784 7.32385 6.49596 7.10852 6.72636C6.95507 6.89055 6.7958 7.06097 6.62461 7.2405C6.23723 7.64677 5.81589 8.06993 5.39665 8.40998C5.3313 8.46299 5.2626 8.51687 5.19083 8.57033C5.35102 8.56758 5.51204 8.56465 5.67374 8.5617C7.03676 8.53687 8.44806 8.51116 9.81426 8.58706C11.2891 8.66899 12.7593 8.85148 14.1975 9.02998C14.4601 9.06258 14.7216 9.09504 14.982 9.12673C16.6846 9.33404 18.3542 9.51145 20.0469 9.51145C20.5992 9.51145 21.0469 9.95917 21.0469 10.5115ZM11.3094 1.15012C11.3096 1.1501 11.3079 1.15292 11.3036 1.15864C11.307 1.153 11.3092 1.15014 11.3094 1.15012Z"
        fill="#b6c5cd" />
</svg>