<svg width="43" height="40" viewBox="0 0 43 40" fill="none" xmlns="http://www.w3.org/2000/svg">
<path fill-rule="evenodd" clip-rule="evenodd" d="M40.0432 2.04667C40.0652 2.31326 40.0272 2.55946 39.9921 2.7323C39.905 3.16232 39.7605 3.53328 39.6606 3.78975L39.6515 3.81303C39.5411 4.09658 39.4798 4.26042 39.4419 4.43489C39.2012 5.54506 39.3367 6.35944 39.8965 7.02926C40.0196 7.17655 40.1758 7.34066 40.3867 7.56227C40.4084 7.58507 40.4306 7.60849 40.4535 7.63256C40.6803 7.87104 40.9543 8.16186 41.2057 8.47271C41.6371 9.00622 42.356 10.0098 42.1736 11.2337C42.004 12.3713 41.3659 13.2738 40.6273 13.8911L40.0679 14.3586C40.1916 14.6938 40.3594 15.2144 40.3416 15.7969C40.3375 15.9319 40.3622 16.2288 40.4265 16.6014C40.4898 16.9681 40.568 17.2731 40.6204 17.4178C41.0264 18.5392 40.9194 19.6757 40.7962 20.5338C40.7528 20.8363 40.7092 21.1009 40.6698 21.34C40.5804 21.8832 40.5127 22.2947 40.5171 22.7205C40.5213 23.1168 40.5953 23.5097 40.6996 24.0636C40.7085 24.1108 40.7176 24.1592 40.7269 24.2088C40.8353 24.7872 40.9688 25.5379 40.9116 26.3486C40.8442 27.3054 40.8481 28.4454 41.032 29.0901C41.1871 29.6336 41.1693 30.22 41.1145 30.6951C41.0561 31.2009 40.9367 31.7307 40.7869 32.229C40.5089 33.1536 40.0375 34.2613 39.4236 34.9199C39.387 34.9592 39.36 34.9962 39.2829 35.1055L39.279 35.1111C39.2479 35.1551 39.1834 35.2467 39.1085 35.3355C39.0337 35.4241 38.8745 35.6015 38.6274 35.7453C38.3406 35.9121 37.979 36.008 37.5835 35.9567C37.2311 35.9111 36.9681 35.7632 36.8125 35.6574C36.5299 35.4654 36.296 35.1968 36.1343 35.0033C35.4894 34.2317 35.1754 33.4842 34.8847 32.7922L34.8805 32.7819C34.3858 31.6045 34.3195 30.3469 34.2787 29.3467C34.2751 29.2603 34.2718 29.1756 34.2685 29.0925C34.2302 28.1249 34.2006 27.3785 34.0057 26.6953C33.9303 26.4313 33.8344 26.1144 33.7317 25.7752C33.5717 25.2472 33.3955 24.6651 33.255 24.1439C33.0098 23.2334 32.7875 22.2206 32.7529 21.2376C32.742 20.9249 32.7034 20.6259 32.6547 20.2487C32.6415 20.1462 32.6275 20.0379 32.6132 19.922C32.5508 19.4193 32.4879 18.8098 32.5344 18.1507C32.5512 17.9125 32.5901 17.6214 32.6244 17.3655C32.6282 17.3373 32.6319 17.3096 32.6355 17.2824C32.6756 16.9814 32.7133 16.6867 32.7354 16.4032C32.7579 16.1148 32.7599 15.8872 32.7436 15.7219C32.738 15.6646 32.7313 15.6273 32.7268 15.6062C32.4581 15.1507 32.4571 14.6046 32.6848 14.16C32.3202 13.848 31.9883 13.5012 31.7092 13.1673C31.0581 12.3886 30.3662 11.2895 30.2372 10.1927C30.0674 8.75002 30.7431 7.67753 31.4298 6.94833C31.768 6.58909 32.1393 6.27894 32.4632 6.02095C32.608 5.90568 32.7334 5.80817 32.8487 5.71853C33.0218 5.58396 33.1721 5.46712 33.3308 5.33455C33.6342 5.08097 33.9085 4.79408 34.2477 4.43613L34.2724 4.41003C34.5888 4.07612 34.9687 3.67521 35.4105 3.30591C35.5588 3.18199 35.8908 2.90087 36.1767 2.61444C36.2845 2.50633 36.3664 2.4166 36.4226 2.34899C36.4628 2.19241 36.5141 2.07934 36.5353 2.0325L36.5361 2.03081C36.5992 1.89159 36.6732 1.76627 36.7394 1.66503C36.8673 1.46955 37.0454 1.24349 37.2525 1.05425C37.3485 0.966538 37.5213 0.820909 37.7554 0.710077C37.9309 0.626992 38.5738 0.361735 39.2592 0.764439C39.9369 1.16268 40.0268 1.84712 40.0432 2.04667ZM35.717 15.3179C35.7217 15.3556 35.7257 15.3923 35.7292 15.4278C35.7701 15.843 35.7551 16.2676 35.7263 16.6366C35.7233 16.6745 35.7202 16.7123 35.7169 16.75C36.1424 16.7124 36.533 16.7316 36.8397 16.7525C37.0401 16.7661 37.2397 16.7844 37.4173 16.8008L37.4211 16.8011C37.369 16.4366 37.333 16.0446 37.3429 15.7087C37.3426 15.704 37.3403 15.678 37.326 15.6225C37.305 15.5413 37.2704 15.4408 37.2096 15.2811C37.1995 15.2546 37.1878 15.2246 37.1749 15.1915C37.1706 15.1805 37.1662 15.1692 37.1617 15.1575C36.7407 15.2389 36.2454 15.315 35.717 15.3179ZM38.4313 11.8166C38.1708 11.8616 37.918 11.9165 37.686 11.969C37.572 11.9949 37.464 12.0199 37.3597 12.0441C37.0998 12.1043 36.8633 12.1591 36.6163 12.2074C35.9146 12.3446 35.4822 12.3482 35.1877 12.2519C35.0267 12.1993 34.5395 11.8755 34.0108 11.2431C33.4851 10.6144 33.2431 10.0676 33.2166 9.84217C33.1913 9.62737 33.2454 9.39621 33.6138 9.00498C33.8031 8.804 34.0407 8.59973 34.332 8.36778C34.4178 8.2995 34.5181 8.22128 34.6246 8.13832C34.8324 7.97628 35.0636 7.79612 35.2546 7.63645C35.704 7.26091 36.0877 6.85593 36.4065 6.51947L36.4252 6.49972L36.4286 6.49622C36.5866 7.34171 36.9464 8.17752 37.5946 8.95312C37.7845 9.18032 38.0123 9.41941 38.2079 9.6246C38.2323 9.6502 38.2561 9.67527 38.2794 9.69973C38.5075 9.93968 38.7057 10.1522 38.8729 10.359C39.0429 10.5692 39.1373 10.7212 39.183 10.8229C39.1881 10.8343 39.1921 10.844 39.1952 10.852C39.1427 11.092 38.9869 11.3522 38.7034 11.5892L38.4313 11.8166ZM39.2055 10.8829L39.2051 10.8809L39.2055 10.8829ZM37.8613 19.8449C37.8433 19.8439 37.8255 19.8429 37.8079 19.8419C37.5934 19.8293 37.3786 19.8098 37.1864 19.7922L37.1499 19.7888C36.9649 19.7719 36.7994 19.7567 36.6362 19.7456C35.9703 19.7003 35.7237 19.7661 35.6248 19.8208C35.6751 20.2073 35.735 20.6731 35.7511 21.1322C35.7736 21.7712 35.9253 22.5227 36.1518 23.3635C36.2904 23.878 36.4293 24.3341 36.5709 24.7989C36.6757 25.1428 36.7819 25.4915 36.8905 25.8722C37.1906 26.9236 37.2318 28.0377 37.2651 28.935C37.2688 29.0342 37.2723 29.1308 37.2762 29.2243C37.3183 30.2568 37.3872 31.0032 37.6463 31.6201C37.6816 31.7041 37.7151 31.7833 37.7473 31.8584C37.8043 31.7071 37.8608 31.5421 37.9139 31.3653C38.0247 30.997 38.1005 30.6439 38.1343 30.3509C38.1661 30.0756 38.1502 29.9419 38.1472 29.9167C38.1468 29.9127 38.147 29.9128 38.147 29.9128C37.8044 28.7115 37.8514 27.0981 37.919 26.1377C37.9463 25.7514 37.8869 25.3412 37.7782 24.7616C37.7682 24.708 37.7576 24.6524 37.7466 24.5949C37.6497 24.0871 37.5244 23.43 37.5173 22.7518C37.5099 22.0428 37.6419 21.2446 37.7458 20.6159C37.7767 20.4292 37.8051 20.2574 37.8267 20.1073C37.8398 20.0161 37.8513 19.9287 37.8613 19.8449ZM21.2859 5.68273C22.8499 6.07712 24.2232 6.94447 25.4442 8.62215C25.6754 8.93976 25.8398 9.21785 25.97 9.43786C25.9928 9.47655 26.0147 9.51344 26.0356 9.54844C26.2559 9.91677 26.4819 10.2622 26.726 10.6352C26.8395 10.8085 26.9568 10.9877 27.0792 11.178C27.4474 11.7503 27.8346 12.3822 28.1594 13.0745C28.2975 13.3689 28.4315 13.6115 28.5684 13.853C28.5854 13.8831 28.6031 13.9141 28.6212 13.9459C28.7396 14.1538 28.8783 14.3972 28.9973 14.645C29.3146 15.3057 29.5006 16.0032 29.5006 16.9999C29.5006 18.3501 28.7296 19.4105 28.1242 20.0804C27.8018 20.4371 27.4646 20.7493 27.1852 20.9995C27.0797 21.094 26.9893 21.1738 26.9104 21.2435C26.7563 21.3796 26.6463 21.4769 26.5538 21.5681C26.451 21.6694 26.3266 21.7888 26.2176 21.8933C26.1502 21.958 26.0887 22.0169 26.042 22.0624C25.8915 22.2088 25.7797 22.3237 25.6906 22.4278C25.5209 22.6261 25.485 22.7268 25.4713 22.7951C25.4704 22.7996 25.4698 22.8033 25.4693 22.8063C25.4721 22.8136 25.4768 22.8247 25.4843 22.8399C25.51 22.8923 25.5546 22.9677 25.6418 23.0952C25.6841 23.1571 25.7295 23.2213 25.7847 23.2995L25.7874 23.3032C25.8194 23.3485 25.8543 23.3979 25.8906 23.4501C25.8924 23.4513 25.8943 23.4526 25.8961 23.4539C25.9798 23.5118 26.1122 23.5921 26.2975 23.6919C26.6655 23.8901 27.1418 24.1119 27.6326 24.3257C28.118 24.5372 28.5932 24.7303 28.9488 24.8711C29.126 24.9413 29.2722 24.998 29.3735 25.0369C29.4241 25.0564 29.4634 25.0713 29.4896 25.0813L29.519 25.0924L29.5274 25.0955L29.706 25.1626L29.8622 25.2721C30.3054 25.5831 30.5115 26.0122 30.6109 26.2934C30.7155 26.5896 30.7609 26.89 30.7828 27.1408C30.8268 27.6443 30.7951 28.1996 30.7497 28.6739C30.703 29.1617 30.6338 29.638 30.5801 29.9971C30.5729 30.0448 30.5662 30.0897 30.5598 30.1319C30.5413 30.2551 30.5261 30.3558 30.5143 30.4409C30.5064 30.4974 30.5025 30.5305 30.5007 30.5459C30.5018 31.1788 30.526 31.4347 30.5422 31.6052C30.543 31.6139 30.5438 31.6224 30.5446 31.6307L30.5447 31.6321C30.555 31.7413 30.5688 31.8885 30.5675 32.0737C30.5662 32.2529 30.5514 32.4375 30.5269 32.6545C30.5167 32.7453 30.508 32.8433 30.4989 32.9475C30.4419 33.5958 30.3636 34.4873 29.7347 35.4207C29.3781 35.9499 28.9831 36.273 28.6156 36.5171C28.4886 36.6014 28.35 36.6854 28.241 36.7515C28.2134 36.7683 28.1877 36.7839 28.1646 36.798C28.0351 36.8773 27.926 36.9467 27.8172 37.0258C27.7608 37.0668 27.705 37.1082 27.6483 37.1501C27.4278 37.3135 27.1945 37.4863 26.861 37.6867C25.3967 38.5667 24.1094 38.7716 22.9191 38.9611C22.877 38.9678 22.8351 38.9745 22.7932 38.9812C21.2167 39.2333 19.6145 39.484 17.6145 39.4417C16.9647 39.428 16.5801 39.3809 15.9864 39.2912C15.4834 39.2153 14.9975 39.2034 14.4254 39.1894C14.3631 39.1879 14.2997 39.1864 14.2352 39.1847C13.6221 39.1689 12.8756 39.143 12.1312 38.9538C10.6056 38.5661 9.59036 38.2408 7.90679 37.6224C7.2812 37.3927 6.88364 37.225 6.26301 36.8733C4.3205 35.7726 3.3027 34.152 2.63988 32.5498C2.3148 31.7639 2.0645 30.956 1.83949 30.2204C1.82764 30.1817 1.81587 30.1432 1.80415 30.1048C1.5866 29.3932 1.39115 28.7538 1.15528 28.1524C0.860059 27.3995 0.705644 26.528 0.589395 25.8719C0.561168 25.7126 0.535192 25.566 0.509996 25.4369C-0.0437773 22.5988 0.0853266 19.6371 0.211139 16.995C0.273426 15.687 0.417869 14.7461 0.777334 13.8261C1.08382 13.0418 1.53511 12.3178 2.06303 11.4709C2.1167 11.3848 2.17116 11.2975 2.22634 11.2086C2.22634 11.2086 2.22587 11.2093 2.22733 11.2067C2.23178 11.1988 2.24737 11.171 2.27985 11.1094C2.30368 11.0642 2.32721 11.0189 2.35472 10.9659C2.37583 10.9252 2.39928 10.8801 2.427 10.827C2.54548 10.6001 2.7024 10.3052 2.89127 9.98749C3.25394 9.37748 3.79862 8.57111 4.52488 7.97068C4.98332 7.59167 5.51469 7.275 5.94654 7.04902C6.35475 6.83543 6.79734 6.63872 7.09823 6.55493C8.48842 6.16779 9.38577 6.14665 10.2343 6.16189C10.31 6.16325 10.3845 6.16483 10.4582 6.1664C11.1335 6.18078 11.749 6.19388 12.7454 6.02184C13.2081 5.94196 13.5592 5.85965 13.9333 5.77192C14.1414 5.72314 14.3565 5.67269 14.602 5.62005C15.2545 5.48011 15.9539 5.36877 16.8553 5.37259C17.0412 5.37338 17.2298 5.37308 17.4204 5.37279C18.6862 5.37081 20.0407 5.3687 21.2859 5.68273ZM27.8039 27.6444C27.4332 27.4972 26.9421 27.2973 26.4344 27.0761C25.9136 26.8492 25.3501 26.5891 24.875 26.3332C24.6388 26.206 24.3989 26.0663 24.1875 25.9197C24.0144 25.7998 23.7105 25.5761 23.4903 25.2536C23.4594 25.2083 23.4194 25.1543 23.3731 25.0919C23.0081 24.5994 22.2537 23.5817 22.5299 22.205C22.6792 21.461 23.0457 20.9044 23.4114 20.4771C23.6532 20.1947 23.9646 19.8963 24.2183 19.6533C24.3026 19.5725 24.3806 19.4978 24.4475 19.4318C24.6014 19.2801 24.8093 19.0963 24.9972 18.9303C25.063 18.8722 25.1263 18.8162 25.1839 18.7646C25.4384 18.5367 25.6828 18.3075 25.8985 18.0689C26.3693 17.5479 26.5006 17.201 26.5006 16.9999C26.5006 16.4455 26.4126 16.1927 26.2931 15.944C26.2227 15.7976 26.1414 15.6544 26.0183 15.4378C25.9994 15.4045 25.9796 15.3695 25.9586 15.3325C25.8096 15.0697 25.6308 14.7482 25.4434 14.3486C25.205 13.8404 24.9045 13.3423 24.5564 12.8014C24.461 12.6531 24.3589 12.4971 24.2534 12.3358C23.9937 11.9389 23.7135 11.5105 23.461 11.0884C23.4303 11.0371 23.4022 10.9897 23.3757 10.9451C23.2487 10.7311 23.1603 10.5822 23.0186 10.3875C22.1894 9.24819 21.4019 8.8059 20.5524 8.59166C19.6975 8.37607 18.7605 8.37514 17.4476 8.37385C17.2544 8.37365 17.053 8.37346 16.8426 8.37256C16.2214 8.36993 15.7468 8.44275 15.231 8.55336C15.0849 8.5847 14.9174 8.62373 14.7331 8.66667C14.3104 8.76518 13.7995 8.88424 13.2558 8.9781C11.9674 9.20054 11.1024 9.18146 10.3975 9.1659C10.3235 9.16427 10.2512 9.16268 10.1804 9.16141C9.51452 9.14945 8.92638 9.15998 7.90305 9.44496C7.90305 9.44496 7.90166 9.44562 7.896 9.44782C7.85552 9.46361 7.64854 9.54432 7.33742 9.70712C7.00648 9.88029 6.67417 10.0863 6.43643 10.2828C6.11244 10.5507 5.77886 11.001 5.46995 11.5206C5.32304 11.7677 5.19584 12.0058 5.08622 12.2157C5.07119 12.2445 5.05485 12.276 5.0376 12.3093C4.95568 12.4675 4.85332 12.6651 4.7748 12.7915C4.73879 12.8494 4.70379 12.9058 4.66975 12.9605C4.07259 13.9212 3.77229 14.4043 3.57159 14.9179C3.38125 15.4051 3.26294 15.9786 3.20774 17.1377C3.07961 19.8285 2.98073 22.4344 3.45447 24.8623C3.50124 25.102 3.54087 25.3222 3.57774 25.5271C3.68724 26.1355 3.77243 26.6089 3.9482 27.0571C4.22803 27.7707 4.45525 28.5146 4.66408 29.1982C4.67889 29.2468 4.69362 29.295 4.70827 29.3428C4.93626 30.0881 5.14894 30.767 5.41204 31.403C5.92559 32.6444 6.58493 33.6076 7.74207 34.2633C8.1824 34.5128 8.42193 34.6157 8.94106 34.8063C10.5509 35.3976 11.4658 35.6893 12.8701 36.0462C13.2507 36.143 13.6876 36.1696 14.3123 36.1857C14.3741 36.1873 14.4379 36.1888 14.5035 36.1903C15.0546 36.2031 15.7326 36.2189 16.4344 36.3249C16.9544 36.4034 17.2016 36.4323 17.6779 36.4424C19.3827 36.4784 20.7496 36.2699 22.3196 36.0188C23.569 35.819 24.3553 35.6925 25.3157 35.1153C25.5165 34.9946 25.6186 34.9192 25.8105 34.7774C25.8778 34.7277 25.9561 34.6698 26.0536 34.599C26.258 34.4504 26.4459 34.3326 26.5991 34.2388C26.6442 34.2113 26.6837 34.1873 26.7193 34.1657C26.8167 34.1065 26.8847 34.0653 26.9559 34.0179C27.1013 33.9214 27.1707 33.8571 27.2469 33.7442C27.423 33.4828 27.4336 33.3809 27.4949 32.7916C27.5086 32.6603 27.5247 32.5048 27.5458 32.318C27.5648 32.1496 27.5673 32.082 27.5675 32.0527C27.5677 32.0301 27.5672 32.0127 27.5577 31.9107L27.5569 31.9026C27.5337 31.6551 27.5006 31.3025 27.5006 30.4999C27.5006 30.3303 27.5281 30.1337 27.5419 30.0348L27.543 30.0268C27.5573 29.924 27.576 29.7999 27.5953 29.6715C27.6012 29.6322 27.6072 29.5926 27.6131 29.553C27.666 29.1997 27.7248 28.7906 27.7634 28.3878C27.7909 28.0998 27.8047 27.8482 27.8039 27.6444ZM16.1163 10.0433C16.1596 10.0573 16.1809 10.0641 16.2203 10.074C17.8119 10.4719 19.2334 11.2707 20.367 12.5486C20.4375 12.628 20.5336 12.7231 20.6792 12.8669C20.7554 12.9423 20.8452 13.031 20.9519 13.1379C21.2233 13.4098 21.5593 13.7571 21.8604 14.136C22.1488 14.4989 22.4839 14.9866 22.6656 15.5474C22.8596 16.1463 22.9123 16.9663 22.3877 17.724C21.8453 18.5074 20.7808 19.3808 19.4964 19.4405C18.1123 19.5049 16.6777 19.3633 15.2526 18.5987L15.2392 18.5915C14.9412 18.4316 14.4368 18.161 14.0128 17.7677C13.5461 17.3347 13.0822 16.6659 13.0646 15.7355C13.0496 14.9372 13.0687 14.0778 13.2724 13.1612C13.3194 12.9497 13.3971 12.6723 13.452 12.4767C13.4746 12.3962 13.4933 12.3295 13.5043 12.287C13.5622 12.0644 13.5812 11.9342 13.5812 11.8307C13.5812 11.6128 13.5952 11.198 13.8052 10.7945C13.9274 10.5597 14.1226 10.3155 14.4147 10.1355C14.7017 9.95854 14.9897 9.90062 15.2114 9.88878C15.5627 9.87002 15.873 9.96694 15.9638 9.99529C15.9685 9.99677 15.9727 9.99807 15.9762 9.99915C16.0436 10.0199 16.0855 10.0334 16.1163 10.0433ZM16.5826 11.7976C16.5826 11.7976 16.5829 11.8068 16.5813 11.8223C16.5815 11.805 16.5826 11.7976 16.5826 11.7976ZM16.3471 13.2676C16.3294 13.3313 16.3137 13.3859 16.2993 13.4361C16.2625 13.5639 16.234 13.6632 16.2009 13.812C16.0804 14.3542 16.0531 14.906 16.0624 15.5768C16.1059 15.6157 16.1739 15.6671 16.2776 15.7322C16.3897 15.8025 16.515 15.8715 16.6711 15.9552C17.4478 16.372 18.2816 16.4938 19.3571 16.4438C19.3655 16.4424 19.4467 16.4287 19.582 16.3405C19.6217 16.3146 19.66 16.2861 19.6962 16.2562C19.6512 16.1869 19.5911 16.1023 19.5117 16.0024C19.3197 15.7608 19.0815 15.5105 18.8288 15.2575C18.776 15.2045 18.7174 15.1466 18.6563 15.0863C18.4707 14.9027 18.2623 14.6967 18.1228 14.5394C17.6237 13.9768 17.033 13.5575 16.3471 13.2676ZM10.5489 20.1963C10.8996 20.4876 11.2781 20.8729 11.5236 21.3149C11.8297 21.8658 12.1515 22.7764 12.1786 23.6651C12.1922 24.1126 12.1366 24.7169 11.8087 25.277C11.4374 25.9113 10.8144 26.3201 10.056 26.4284C9.54236 26.5018 8.85796 26.5123 8.19503 26.3926C7.59884 26.2849 6.65055 26.0065 6.06139 25.1882C5.64701 24.6127 5.53168 24.0079 5.49928 23.544C5.48012 23.2696 5.49089 22.8795 5.49711 22.6543C5.49906 22.5839 5.50056 22.5296 5.50056 22.5C5.50056 22.4861 5.49869 22.4472 5.48376 22.3388C5.48149 22.3223 5.47834 22.3005 5.47464 22.2749C5.46114 22.1817 5.44028 22.0375 5.42753 21.9106C5.39078 21.5445 5.37471 20.9719 5.66388 20.3595C6.05825 19.5244 6.80328 19.1129 7.5581 19.0473C8.20866 18.9907 8.81799 19.1857 9.26373 19.3867C9.73506 19.5993 10.18 19.89 10.5489 20.1963ZM8.49894 22.4001C8.49998 22.4328 8.50056 22.4662 8.50056 22.5C8.50056 22.6349 8.4961 22.7839 8.49258 22.9017C8.4914 22.9413 8.49032 22.9774 8.48955 23.0082C8.48592 23.1541 8.48632 23.2537 8.49199 23.335C8.49323 23.3528 8.49465 23.3683 8.49614 23.3819C8.55113 23.4011 8.62786 23.4222 8.72816 23.4403C8.86374 23.4648 9.0077 23.4777 9.14606 23.4818C9.13022 23.401 9.10883 23.3141 9.08179 23.2238C9.02014 23.0179 8.9474 22.855 8.90115 22.7718C8.90213 22.7735 8.90129 22.7725 8.89845 22.7688C8.88275 22.7484 8.80584 22.6484 8.63222 22.5042C8.58923 22.4685 8.54459 22.4337 8.49894 22.4001ZM9.17555 23.8629L9.17601 23.8607L9.17555 23.8629ZM15.0296 29.029C15.3047 28.7053 15.7149 28.5 16.1729 28.5C16.8082 28.5 17.7366 28.5845 18.5003 29.0871C18.9181 29.362 19.2964 29.7701 19.5084 30.3335C19.7162 30.8856 19.718 31.4632 19.6033 32.0111C19.4726 32.6354 19.0556 33.1239 18.4823 33.3491C18.0247 33.5288 17.5918 33.492 17.361 33.4585C16.9342 33.3966 16.5016 33.225 16.3636 33.1702C16.3497 33.1647 16.3388 33.1604 16.3312 33.1575C14.7313 32.5458 14.5006 30.9831 14.5006 30.1723C14.5006 29.7142 14.706 29.3041 15.0296 29.029Z" fill="#EA5A24"/>
</svg>
