<svg width="32" height="33" viewBox="0 0 32 33" fill="none" xmlns="http://www.w3.org/2000/svg">
    <path fill-rule="evenodd" clip-rule="evenodd"
        d="M16.3802 0.49201C17.3078 0.461596 18.3041 0.53347 19.312 0.937661C19.8647 1.15933 20.4129 1.43417 20.9177 1.68725C21.0276 1.74233 21.1354 1.79638 21.2408 1.84863C21.854 2.15272 22.4114 2.41071 22.968 2.57604C23.4257 2.71202 23.8816 2.90333 24.2946 3.12552C26.0659 4.07844 27.0156 5.33077 28.0159 6.74051C28.1366 6.9106 28.2653 7.07983 28.4065 7.26565C28.4234 7.28791 28.4405 7.3104 28.4578 7.33317C28.6148 7.53996 28.7852 7.76593 28.9469 8.00224C29.2692 8.47319 29.5935 9.03566 29.7599 9.7007C29.8191 9.93739 29.9136 10.1824 30.0379 10.4898C30.0479 10.5146 30.0581 10.5399 30.0686 10.5657C30.1793 10.8386 30.3119 11.1658 30.4107 11.5047C30.5236 11.8921 30.6163 12.2806 30.7024 12.6415L30.7075 12.6628C30.7969 13.0379 30.8799 13.3839 30.9789 13.7207C31.2817 14.7511 31.1769 15.6976 31.0403 16.5477C30.9772 16.9403 30.8868 17.3219 30.8041 17.6667L30.7916 17.7188C30.7113 18.0539 30.6392 18.3544 30.5859 18.655C30.4941 19.172 30.3035 19.6157 30.1398 19.9718C30.1027 20.0526 30.0675 20.1277 30.0344 20.1987C29.9091 20.467 29.8116 20.6757 29.7363 20.9063C29.723 20.947 29.7142 20.9973 29.6898 21.1645L29.6884 21.1735C29.6684 21.3111 29.6337 21.548 29.5418 21.7925C29.3721 22.244 29.1232 22.6505 28.9329 22.9613L28.9152 22.9902L28.9066 23.0042C28.4586 23.7362 27.9614 24.4499 27.4924 25.1232L27.4842 25.1349L27.4772 25.1449C27.1096 25.6726 26.6027 25.967 26.2139 26.1609C26.0207 26.2573 25.8719 26.3245 25.7447 26.382C25.5607 26.4652 25.4221 26.5279 25.2599 26.6286C25.1175 26.7169 24.9943 26.7927 24.8857 26.8597C24.2016 27.2809 24.0885 27.3505 23.3227 27.9876C22.8981 28.3408 22.2676 28.2829 21.9144 27.8583C21.5612 27.4337 21.6191 26.8031 22.0437 26.45C22.9167 25.7238 23.1094 25.6051 23.8483 25.1497C23.9548 25.0841 24.0726 25.0115 24.2054 24.9291C24.4679 24.7663 24.8202 24.6041 25.0779 24.4855C25.1762 24.4402 25.2607 24.4013 25.3213 24.3711C25.6247 24.2198 25.7614 24.1089 25.8361 24.0017L25.8431 23.9917C26.3205 23.3064 26.7863 22.6373 27.2007 21.9602L27.2094 21.9461C27.4198 21.6022 27.5731 21.346 27.6697 21.0889C27.6784 21.0658 27.6891 21.0238 27.7108 20.875C27.7123 20.8653 27.7138 20.8548 27.7154 20.8435C27.7333 20.7185 27.7643 20.5024 27.835 20.2857C27.9521 19.927 28.1144 19.5811 28.2444 19.3041C28.2722 19.2448 28.2986 19.1887 28.3227 19.1363C28.4733 18.8087 28.5718 18.558 28.6166 18.3056C28.6808 17.9438 28.7661 17.5886 28.8432 17.2673C28.8486 17.2448 28.8539 17.2225 28.8592 17.2005C28.9431 16.8505 29.0162 16.5381 29.0656 16.2305C29.193 15.4377 29.2305 14.8647 29.0601 14.2847C28.9443 13.8907 28.8499 13.4951 28.7623 13.1277C28.6726 12.7519 28.5895 12.4037 28.4906 12.0643C28.4216 11.8276 28.3264 11.5922 28.2078 11.2992C28.1999 11.2795 28.1918 11.2595 28.1836 11.2393C28.062 10.9384 27.9169 10.5746 27.8197 10.1861C27.7361 9.85187 27.5594 9.51613 27.2964 9.13176C27.1654 8.9404 27.022 8.74943 26.865 8.54273C26.8482 8.52054 26.8311 8.4981 26.8139 8.47544C26.6753 8.29319 26.5259 8.09665 26.3849 7.89793C25.4087 6.52227 24.683 5.6055 23.3471 4.88682C23.048 4.7259 22.7184 4.58827 22.3984 4.49323C21.6646 4.27525 20.9756 3.94954 20.3522 3.6404C20.2296 3.5796 20.1101 3.51976 19.993 3.46113C19.4922 3.21032 19.0354 2.9816 18.5675 2.79395C17.9152 2.53233 17.2266 2.46533 16.4458 2.49094C16.0532 2.50381 15.6506 2.53934 15.2195 2.58114C15.1526 2.58763 15.0848 2.5943 15.0162 2.60103C14.6522 2.6368 14.2669 2.67465 13.8808 2.6997C13.5501 2.72114 13.2466 2.7324 12.9603 2.74302C12.3295 2.76642 11.7828 2.7867 11.2151 2.90595C11.1527 2.91906 11.0896 2.94845 10.8909 3.04106C10.8704 3.05062 10.8484 3.06085 10.8249 3.07181C10.4973 3.22418 10.1412 3.39413 9.77954 3.56671C9.34335 3.77485 8.89914 3.98683 8.48742 4.17643C8.06461 4.37113 7.87555 4.5343 7.64633 4.74211C7.62919 4.75765 7.61178 4.7735 7.59405 4.78964C7.33467 5.02579 7.00612 5.32491 6.42578 5.64764C6.41012 5.66069 6.38632 5.6817 6.35472 5.71178C6.28345 5.7796 6.19656 5.87051 6.10954 5.96947C6.0222 6.0688 5.94584 6.16359 5.89235 6.23736C5.87723 6.25821 5.86594 6.27465 5.85792 6.28676C5.67675 6.77288 5.31726 7.07947 5.15044 7.22175C5.13884 7.23164 5.12817 7.24074 5.11855 7.24905C5.01244 7.34078 4.9671 7.3871 4.95078 7.40389C4.76557 8.01115 4.55408 8.60754 4.35069 9.18107C4.30915 9.29821 4.26795 9.41439 4.22738 9.52952C4.16783 9.6985 4.1266 9.88178 4.07236 10.1344C4.07018 10.1446 4.06797 10.1549 4.06574 10.1653C4.0166 10.3946 3.95419 10.6858 3.85456 10.9788C3.83291 11.0425 3.81128 11.106 3.78971 11.1693C3.29066 12.6345 2.82031 14.0155 2.82031 15.3394C2.82031 16.2557 3.01733 17.1367 3.24287 18.1452C3.28343 18.3265 3.3249 18.5119 3.36632 18.7025C3.42459 18.9705 3.47007 19.21 3.51259 19.4339C3.58868 19.8345 3.65531 20.1854 3.76882 20.5609C4.1144 21.7043 4.77852 22.585 5.58214 23.6508C5.75661 23.8822 5.93765 24.1223 6.12344 24.3757C6.5036 24.8942 7.08136 25.4942 7.73513 25.9558C8.40281 26.4272 9.04524 26.6814 9.57488 26.6814C10.1272 26.6814 10.5749 27.1291 10.5749 27.6814C10.5749 28.2337 10.1272 28.6814 9.57488 28.6814C8.46072 28.6814 7.41268 28.1764 6.58159 27.5896C5.73659 26.993 5.0073 26.2358 4.51051 25.5583C4.3635 25.3577 4.20805 25.153 4.04847 24.9428C3.2345 23.8707 2.31298 22.657 1.85436 21.1396C1.71134 20.6664 1.60893 20.1326 1.52035 19.6708C1.48239 19.4729 1.44696 19.2883 1.41197 19.1273C1.37637 18.9636 1.33852 18.7957 1.29984 18.6241C1.07418 17.623 0.820312 16.4967 0.820312 15.3394C0.820312 13.6706 1.39358 11.9945 1.86557 10.6146C1.89793 10.52 1.92983 10.4267 1.96103 10.335C2.02108 10.1583 2.06189 9.97098 2.11692 9.71466L2.11908 9.70457C2.16971 9.46869 2.23428 9.16787 2.34107 8.86481C2.38441 8.74181 2.42748 8.62033 2.47013 8.50001C2.67677 7.91705 2.87382 7.36116 3.04667 6.79119C3.21124 6.24853 3.6036 5.91309 3.78122 5.76123C3.79181 5.75218 3.80163 5.74377 3.8106 5.73602C3.92918 5.63351 3.97513 5.58588 3.98943 5.5713C4.06542 5.3541 4.20345 5.15953 4.2732 5.06333C4.37236 4.92657 4.49034 4.78215 4.60763 4.64877C4.72524 4.51502 4.8533 4.37971 4.97593 4.263C5.0758 4.16796 5.24367 4.01493 5.42846 3.91369C5.82072 3.6988 6.01197 3.52494 6.254 3.30491C6.27009 3.29028 6.2864 3.27545 6.30301 3.26039C6.61342 2.97898 6.97356 2.67169 7.65085 2.3598C8.08481 2.15995 8.48175 1.97022 8.88547 1.77724C9.23604 1.60967 9.59173 1.43965 9.98121 1.25845C9.99732 1.25095 10.0163 1.24189 10.0378 1.23161C10.1963 1.15582 10.4929 1.01402 10.8039 0.948669C11.5483 0.792293 12.3627 0.761735 13.0606 0.735544C13.3083 0.726251 13.5413 0.717507 13.7513 0.703888C14.1014 0.681186 14.4485 0.647122 14.8127 0.611382C14.8833 0.604454 14.9545 0.597463 15.0265 0.59048C15.4611 0.548339 15.9186 0.507145 16.3802 0.49201ZM15.4553 6.86769C13.9254 6.86769 12.6267 7.06283 11.5629 7.82447C10.6028 8.5118 9.72913 9.52194 8.98686 10.5666C8.21502 11.6529 8.0348 13.0151 8.20138 14.5143C8.25369 14.9851 8.29844 15.4769 8.34206 15.9563C8.37056 16.2696 8.39858 16.5776 8.42792 16.871C8.4388 16.9797 8.44701 17.0895 8.45384 17.181C8.45589 17.2083 8.45781 17.2341 8.45965 17.2576C8.46838 17.3698 8.47637 17.4524 8.48765 17.5255C8.50776 17.6559 8.53636 17.7425 8.5909 17.8334C8.63647 17.9093 8.68643 17.9862 8.74843 18.0813L8.75226 18.0872C8.8101 18.1759 8.8791 18.2817 8.94569 18.3927C9.13359 18.7059 9.26877 19.0389 9.37149 19.292C9.38072 19.3147 9.38969 19.3368 9.39841 19.3582C9.51574 19.6458 9.6015 19.8398 9.70913 20.0012C9.79687 20.1328 9.90714 20.2615 10.0637 20.4367C10.0771 20.4517 10.0909 20.4671 10.1051 20.483C10.2435 20.6374 10.4202 20.8346 10.579 21.053C10.9039 21.4996 10.8051 22.125 10.3585 22.4499C9.91183 22.7747 9.28641 22.676 8.96158 22.2293C8.86556 22.0973 8.75577 21.9745 8.60433 21.8051C8.59386 21.7934 8.58319 21.7815 8.57231 21.7693C8.41738 21.5959 8.21993 21.373 8.04503 21.1106C7.81197 20.761 7.6601 20.392 7.54657 20.1136L7.53399 20.0828C7.41588 19.7932 7.33585 19.5969 7.23071 19.4217C7.18501 19.3455 7.13497 19.2685 7.073 19.1735L7.06893 19.1673C7.01118 19.0787 6.94231 18.973 6.87592 18.8624C6.51691 18.264 6.47644 17.6382 6.4515 17.2526C6.44703 17.1835 6.44306 17.1221 6.43785 17.07C6.4043 16.7345 6.37521 16.4135 6.34659 16.0978C6.30526 15.6419 6.26492 15.197 6.21361 14.7351C6.01838 12.9781 6.18985 11.0501 7.3565 9.4082C8.15677 8.28189 9.18069 7.0702 10.3987 6.19825C11.9815 5.06505 13.8026 4.86769 15.4553 4.86769H16.6699C17.7297 4.86769 18.648 5.38141 19.2756 5.73251L19.3075 5.75035C19.7426 5.99365 20.1211 6.27513 20.4544 6.53405C20.5431 6.60299 20.6272 6.6691 20.7084 6.73293C20.9472 6.92068 21.1607 7.0886 21.3934 7.25018C21.434 7.27839 21.4787 7.30806 21.5267 7.33996C21.7271 7.47302 21.9858 7.64482 22.2522 7.91123C22.7523 8.41135 23.1387 8.95644 23.4745 9.45555C23.5506 9.56869 23.6234 9.67818 23.6941 9.78465C23.9487 10.1678 24.1773 10.5119 24.4436 10.8462C24.7471 11.2274 24.8784 11.7063 24.9389 11.9268C24.9491 11.9642 24.9574 11.9942 24.964 12.0149C25.3131 13.1021 25.5276 14.2121 25.7145 15.2685L25.7162 15.2779C25.7213 15.3067 25.7266 15.3364 25.732 15.3668C25.8554 16.0558 26.0455 17.1178 25.545 18.1189C25.5256 18.1575 25.5064 18.196 25.4872 18.2344C25.0946 19.0193 24.7291 19.75 24.4166 20.5191C24.2938 20.8213 24.1316 21.0944 24.0115 21.2964C24.0033 21.3104 23.9952 21.3239 23.9874 21.3371C23.8512 21.5668 23.7673 21.7162 23.7136 21.8605C23.521 22.3781 22.9453 22.6416 22.4277 22.449C21.9101 22.2564 21.6466 21.6806 21.8392 21.163C21.9634 20.8293 22.1371 20.5363 22.2641 20.3221L22.2669 20.3172C22.4086 20.0783 22.4997 19.9237 22.5637 19.7663C22.9065 18.9226 23.3043 18.1275 23.6887 17.3592C23.7112 17.3142 23.7337 17.2693 23.7561 17.2245C23.9334 16.87 23.8918 16.4458 23.7468 15.6264L23.7451 15.6171C23.5599 14.5705 23.3644 13.5749 23.0598 12.6264C23.0332 12.5437 23.0097 12.4622 22.9912 12.3982C22.9884 12.3886 22.9857 12.3793 22.9832 12.3706C22.9618 12.2968 22.9468 12.2471 22.9317 12.2041C22.9046 12.1264 22.8882 12.1036 22.879 12.0921C22.5536 11.6834 22.2638 11.2468 22.0035 10.8546C21.939 10.7573 21.8762 10.6627 21.8151 10.572C21.4938 10.0944 21.1953 9.68276 20.838 9.32545C20.7225 9.20994 20.6567 9.16591 20.5005 9.06144C20.4364 9.01851 20.357 8.96539 20.2526 8.89292C19.9663 8.69413 19.688 8.47514 19.4388 8.2791C19.3657 8.22154 19.295 8.16597 19.2274 8.11346C18.9131 7.86928 18.6309 7.66341 18.3315 7.49601C17.6315 7.10461 17.1457 6.86769 16.6699 6.86769H15.4553ZM16.8849 10.7606C17.0236 10.7655 17.1391 10.7696 17.2505 10.7696C17.7889 10.7696 18.2279 11.195 18.2497 11.728C18.5141 11.9337 18.7376 12.1804 18.9126 12.4457C19.3806 13.1552 19.5902 14.1371 19.1961 15.0383C18.8291 15.8776 18.2738 16.4589 17.3697 16.8462C16.9361 17.0319 16.5104 17.009 16.2548 16.9846C16.1636 16.9759 16.0595 16.9627 15.9798 16.9525C15.9509 16.9488 15.9252 16.9455 15.9045 16.943C15.8058 16.9311 15.7491 16.9269 15.7103 16.9269C15.2409 16.9269 14.8302 16.8282 14.4606 16.6969C13.5044 16.3572 12.9612 15.6436 12.8391 14.7974C12.7297 14.0383 12.9713 13.2844 13.2873 12.7128C13.6096 12.1301 14.0297 11.5046 14.8455 11.0722C15.3269 10.817 15.8375 10.763 16.2293 10.7519C16.431 10.7462 16.6279 10.7518 16.797 10.7576C16.8274 10.7586 16.8566 10.7596 16.8849 10.7606ZM15.828 12.8186C15.8105 12.8253 15.7954 12.8323 15.7821 12.8393C15.4734 13.0029 15.2884 13.2271 15.0375 13.6807C14.8484 14.0228 14.7924 14.3296 14.8187 14.512C14.8297 14.5888 14.8528 14.6317 14.8776 14.6616C14.9025 14.6918 14.9671 14.7544 15.13 14.8122C15.3526 14.8913 15.5314 14.9269 15.7103 14.9269C15.8738 14.9269 16.0281 14.9434 16.1441 14.9574C16.1942 14.9635 16.2354 14.9688 16.272 14.9735C16.3355 14.9816 16.3855 14.988 16.4446 14.9936C16.5407 15.0028 16.5867 15.0005 16.6015 14.9994C17.0109 14.8204 17.197 14.6183 17.3636 14.2371C17.4284 14.089 17.4251 13.823 17.2431 13.5469C17.0685 13.2822 16.8148 13.1419 16.5643 13.1419C16.273 13.1419 16.0108 13.0173 15.828 12.8186ZM15.0938 20.3281C15.0769 20.3503 15.0535 20.3842 15.022 20.4359C14.9829 20.5002 14.9447 20.5692 14.8929 20.6627C14.8867 20.6739 14.8803 20.6854 14.8737 20.6973C14.8517 20.737 14.8282 20.8015 14.8181 20.9447C14.8129 21.0186 14.8118 21.1031 14.8129 21.2115C14.8132 21.2425 14.8139 21.2809 14.8146 21.3228C14.8159 21.4033 14.8175 21.4971 14.8175 21.5773C14.8175 22.0319 14.8521 22.5451 14.9014 23.0226C14.9237 23.2396 14.9623 23.4531 15.0086 23.709C15.022 23.7834 15.0361 23.8613 15.0506 23.9439C15.1104 24.2841 15.1742 24.69 15.1742 25.1115C15.1742 25.2422 15.1728 25.3607 15.1715 25.4712C15.1683 25.7358 15.1657 25.9548 15.1842 26.1873C15.1968 26.3455 15.2271 26.4258 15.292 26.598C15.3306 26.7001 15.3813 26.8347 15.4479 27.0372C15.5595 27.3768 15.6397 27.7306 15.7062 28.0242C15.7245 28.1045 15.7416 28.1804 15.7582 28.2502C15.842 28.6042 15.9236 28.8804 16.0509 29.1324C16.1143 29.258 16.1698 29.4022 16.2148 29.5284C16.2404 29.4105 16.2692 29.289 16.3021 29.1709C16.499 28.4623 16.5994 27.7244 16.6966 26.9165C16.7064 26.8348 16.7162 26.7522 16.7261 26.6688C16.8115 25.9495 16.9038 25.1713 17.0757 24.4017C17.295 23.4193 17.3057 22.2991 17.0603 21.3978C17.0136 21.226 16.8689 21.0202 16.5603 20.7906C16.2713 20.5757 15.9252 20.4034 15.5979 20.255C15.5785 20.2548 15.5487 20.2557 15.5064 20.2598C15.4463 20.2656 15.3774 20.2759 15.2952 20.2906C15.2544 20.2978 15.2137 20.3055 15.1694 20.3139L15.1627 20.3151C15.1408 20.3193 15.1175 20.3237 15.0938 20.3281ZM15.6219 20.2563L15.62 20.2561L15.6219 20.2563ZM15.4726 32.0499C15.2281 31.9121 15.0564 31.7225 14.9447 31.5713C14.7781 31.3459 14.6622 31.0947 14.5811 30.8953C14.5078 30.715 14.4435 30.5271 14.3936 30.3809C14.3872 30.3622 14.381 30.3442 14.3751 30.3269C14.3133 30.1468 14.2826 30.0677 14.2659 30.0345C14.0296 29.5669 13.9053 29.105 13.812 28.7112C13.7862 28.6022 13.7633 28.5013 13.7416 28.406C13.6791 28.1313 13.6271 27.9029 13.5478 27.6615C13.535 27.6226 13.5155 27.5708 13.492 27.5085C13.3941 27.2485 13.2271 26.8053 13.1905 26.3459C13.1642 26.0147 13.1685 25.66 13.172 25.3667C13.1731 25.2747 13.1742 25.1888 13.1742 25.1115C13.1742 24.8757 13.1379 24.6153 13.0808 24.29C13.0705 24.2318 13.0594 24.1701 13.0477 24.1058C12.9995 23.84 12.9429 23.5285 12.9119 23.2278C12.8583 22.7083 12.8175 22.1225 12.8175 21.5773C12.8175 21.5368 12.8166 21.485 12.8156 21.4258C12.8127 21.2498 12.8086 21.0085 12.8231 20.8036C12.8453 20.489 12.9127 20.1096 13.1245 19.7275C13.1363 19.7063 13.1495 19.6817 13.1641 19.6542C13.3464 19.3129 13.7626 18.5335 14.683 18.37C14.7033 18.3664 14.7301 18.3613 14.7618 18.3553C14.8944 18.33 15.1138 18.2883 15.3154 18.2689C15.5575 18.2457 15.9687 18.2291 16.3672 18.408C16.7269 18.5695 17.2641 18.8215 17.754 19.186C18.239 19.5468 18.7773 20.0909 18.9901 20.8724C19.3361 22.1433 19.3041 23.5994 19.0276 24.8376C18.8793 25.5019 18.7989 26.1768 18.7115 26.9102C18.7019 26.9912 18.6922 27.0729 18.6822 27.1553C18.5851 27.9633 18.4707 28.8366 18.2291 29.7063C18.1824 29.8741 18.152 30.0308 18.114 30.2264C18.0996 30.301 18.084 30.3811 18.066 30.4697C18.0066 30.7627 17.9248 31.1189 17.767 31.483C17.7084 31.6183 17.6381 31.7326 17.5835 31.8151C17.5372 31.885 17.4866 31.9547 17.4514 32.0033C17.446 32.0108 17.4409 32.0179 17.4362 32.0243C17.4032 32.07 17.3843 32.0971 17.3725 32.1152C17.194 32.6049 16.664 32.8793 16.1558 32.7326C15.8138 32.6338 15.5651 32.3683 15.4726 32.0499Z"
        fill="#FFFFFF" />
</svg>