<svg width="50" height="50" viewBox="0 0 50 50" fill="none" xmlns="http://www.w3.org/2000/svg">
<circle cx="25" cy="25" r="24.5" fill="white" stroke="#EA5A24"/>
<path d="M12.687 31.5047C12.8655 31.1761 13.0017 30.8143 13.0928 30.4298C13.1574 30.1564 13.2097 29.9045 13.2524 29.659C13.2899 29.4446 13.3138 29.2267 13.3369 29.0159L13.3382 29.0048C13.3435 28.957 13.3491 28.9095 13.3547 28.8617C13.3759 28.6804 13.3983 28.4928 13.4004 28.3041C13.4014 28.217 13.403 28.13 13.4046 28.0429C13.4115 27.6631 13.419 27.2706 13.3813 26.8809C13.3677 26.74 13.355 26.5993 13.3422 26.4584C13.3281 26.3024 13.3141 26.1463 13.2989 25.9905C13.2944 25.9448 12.0289 26.0683 12.031 26.0948C12.0371 26.1712 12.044 26.2477 12.0509 26.3241C12.0629 26.4589 12.0746 26.5935 12.0838 26.7283C12.2575 29.3076 11.7574 30.529 11.6029 30.8738C11.5468 30.9983 11.4645 31.1063 11.3583 31.1944C11.3357 31.213 11.3019 31.2348 11.2672 31.2313C11.2419 31.2289 11.2172 31.2133 11.1936 31.1846C11.12 31.0957 11.0632 31.0092 11.0241 30.9271C10.8563 30.5749 10.7341 30.3037 10.6279 30.0476C10.562 29.8886 10.4999 29.7238 10.4396 29.5643C10.3737 29.3899 10.2991 29.2123 10.2319 29.034C9.97718 28.3588 9.56924 27.7239 9.48026 27.5785L9.4298 27.4962C9.42529 27.4887 9.42051 27.4813 9.41573 27.4741C9.43644 27.4625 9.45742 27.4511 9.47814 27.4394C9.57641 27.385 9.67786 27.3287 9.77534 27.265C10.0893 27.0593 10.3719 26.8135 10.6149 26.5346C10.7607 26.3674 10.8903 26.1861 11.0156 26.0107L11.034 25.9852C11.136 25.8427 11.2138 25.6893 11.2892 25.5409C11.3112 25.4974 11.3333 25.4536 11.3561 25.4103C11.4836 25.1677 11.5914 24.8909 11.6958 24.539C11.826 24.1 11.9075 23.7027 11.9452 23.3247C11.9516 23.2607 11.9585 23.1968 11.9654 23.1325C11.9861 22.9393 12.0076 22.7397 12.0143 22.5402C12.0206 22.3544 12.0129 22.1678 12.0055 21.9873C12.0023 21.913 11.9994 21.8387 11.9973 21.7641C11.9864 21.3816 11.9133 21.0156 11.8509 20.7396C11.7402 20.2494 11.5694 19.825 11.329 19.4425C10.9867 18.8979 10.5256 18.4985 9.95912 18.2548C9.51851 18.0653 9.04788 17.9692 8.56052 17.9692H8.55601C8.43039 17.9692 8.30503 17.9761 8.18339 17.9828C8.1223 17.9862 8.06148 17.9894 8.00066 17.9921C7.69868 18.0045 7.40919 18.0658 7.16564 18.1242C6.77788 18.2174 6.01298 18.5056 5.75589 18.6041C5.70729 18.6227 5.68205 18.676 5.69826 18.7254C5.76518 18.9279 5.93038 19.4261 6.00634 19.6315C6.02626 19.6849 6.06796 19.7109 6.07805 19.7167L6.10886 19.7432L6.15056 19.7486C6.16516 19.7517 6.19942 19.7589 6.24033 19.7467C6.26954 19.7379 6.29849 19.7281 6.32744 19.7183L6.34258 19.713C6.42119 19.6862 6.49954 19.6586 6.57789 19.631C6.83047 19.5418 7.09128 19.4497 7.35448 19.3908C7.35501 23.6676 7.35527 27.9453 7.35527 32.2192C7.31703 32.2221 7.27852 32.2247 7.24001 32.2277C7.06791 32.2399 6.11709 32.3304 5.94552 32.3731L5.83105 32.4015L6.01006 33.6335L6.20049 33.6152C6.26662 33.6086 10.0481 33.1993 10.0481 33.1993L10.0454 33.099C10.0364 32.7572 9.99631 32.423 9.95434 32.1127L9.93575 31.9742C9.93575 31.9742 8.72307 32.0912 8.63728 32.0995V28.6842C8.65932 28.7224 8.68163 28.7603 8.70421 28.798C8.82718 29.0032 8.91774 29.2213 9.01336 29.452C9.03938 29.5144 9.06515 29.5767 9.09171 29.6388C9.21786 29.934 9.33738 30.2389 9.45317 30.5338C9.49408 30.6381 9.53498 30.7422 9.57614 30.8462C9.71664 31.201 9.89937 31.6122 10.1883 31.971C10.3894 32.2208 10.6183 32.3819 10.8887 32.4636C11.2717 32.5796 11.6613 32.5085 12.0467 32.2518C12.2979 32.0843 12.5014 31.8473 12.687 31.5052V31.5047ZM8.63808 26.4324V19.2424C8.66729 19.2422 8.69571 19.2427 8.72147 19.2459C9.20113 19.3021 9.56393 19.4394 9.86272 19.6774C10.0412 19.8197 10.1926 20.0095 10.3256 20.2579C10.5017 20.5862 10.6173 20.9633 10.6791 21.4103C10.7309 21.7861 10.7431 22.1911 10.7174 22.6848C10.6866 23.2714 10.6088 23.7467 10.4722 24.1815C10.3668 24.5172 10.2425 24.8123 10.0919 25.0839C9.86723 25.4894 9.5796 25.823 9.23751 26.0757C9.02318 26.2341 8.83169 26.3483 8.63861 26.4324H8.63808Z" fill="#4D4D4D"/>
<path d="M44.2971 24.0917C44.2928 24.0383 44.2886 23.9879 44.2888 23.939C44.2907 23.6511 44.2612 23.3509 44.2017 23.0467C44.1321 22.6929 44.015 22.2364 43.7237 21.8434C43.4573 21.4843 43.1043 21.2958 42.6746 21.2831C42.3171 21.2725 41.9907 21.4038 41.6489 21.6971C41.6194 21.7223 41.5912 21.7481 41.5639 21.7746L41.604 21.0278C41.6072 20.9659 41.5716 20.9088 41.5145 20.8847L41.5015 20.8783C41.4813 20.8682 39.1316 20.8521 39.1316 20.8521L39.1361 20.9487C39.1422 21.0806 39.1337 22.0414 39.1337 22.0414L39.3114 22.0549C39.3507 22.0581 39.3866 22.0613 39.4227 22.0623L40.2418 22.0875C40.2383 22.1451 40.2341 22.2025 40.2298 22.2601C40.2253 22.32 40.2208 22.38 40.2173 22.4403C40.1998 22.7293 40.1825 23.0186 40.1663 23.3076C40.1554 23.5017 40.1451 23.6957 40.1345 23.8897L40.1018 24.4906C40.0893 24.7212 40.0766 24.9516 40.0628 25.1822C40.0484 25.4158 40.0333 25.6491 40.0181 25.8824L39.9871 26.3676C39.9693 26.6481 39.9517 26.9289 39.9358 27.2097C39.9241 27.4143 39.9132 27.6192 39.9023 27.8241L39.7775 30.1064C39.769 30.2633 39.76 30.4201 39.7499 30.577C39.7432 30.6768 39.7363 30.7763 39.7292 30.8761C39.7204 31.0014 39.7114 31.1269 39.7037 31.2522C39.697 31.3562 39.6917 31.4605 39.6861 31.5646C39.6832 31.6211 39.6803 31.6776 39.6771 31.7342C39.6739 31.7342 39.6707 31.7342 39.6676 31.7342C39.3303 31.7429 38.4121 31.8024 38.4121 31.8024L38.4145 31.9282C38.4161 32.003 38.4164 32.0779 38.4166 32.1525C38.4177 32.398 38.4187 32.6517 38.462 32.907L38.4828 33.0294H38.6071C38.6681 33.0294 38.7282 33.0299 38.7879 33.0304C38.8479 33.031 43.065 32.838 43.065 32.838L43.014 31.6331C43.014 31.6331 41.1509 31.6875 40.9841 31.684C40.9897 31.6301 40.9942 31.5784 40.9968 31.5264C41.0037 31.3886 41.0091 31.2511 41.0146 31.1134C41.0191 31.004 41.0234 30.8944 41.0284 30.7851C41.0353 30.6375 41.0433 30.4902 41.0545 30.3432C41.0582 30.2922 41.0638 30.2415 41.0696 30.1927C41.1416 30.1927 41.2112 30.1927 41.2805 30.1929C41.7272 30.1959 42.1283 30.035 42.515 29.6987C42.8677 29.3919 43.1564 28.989 43.4233 28.4309C43.6214 28.0166 43.7837 27.5545 43.9197 27.0176C44.0485 26.5093 44.1866 25.9047 44.2365 25.2746L44.245 25.169C44.2673 24.8898 44.2904 24.6012 44.3058 24.3159C44.3101 24.2382 44.304 24.1639 44.2981 24.0917H44.2971ZM42.9455 25.1918C42.921 25.3763 42.8876 25.5628 42.8618 25.7653C42.8273 26.0395 42.7622 26.3163 42.6995 26.5839L42.678 26.6765C42.5917 27.0467 42.4717 27.4194 42.3208 27.7841C42.1933 28.0922 42.0241 28.4428 41.7349 28.7045C41.5859 28.8393 41.4438 28.9081 41.2885 28.9211C41.2159 28.9269 41.1719 28.9129 41.1318 28.8664L41.1344 28.8266C41.144 28.675 41.183 28.1076 41.187 28.0179C41.1928 27.8862 41.1984 27.7549 41.2053 27.6232C41.2218 27.309 41.2398 26.9947 41.2579 26.6807C41.272 26.4398 41.2869 26.199 41.3017 25.9583L41.3209 25.647C41.3341 25.4269 41.3477 25.2072 41.3631 24.9874C41.3652 24.9596 41.3764 24.9243 41.3888 24.886L41.4042 24.838C41.528 24.4539 41.656 24.0566 41.8183 23.6837C41.9559 23.3668 42.0966 23.0608 42.3035 22.8004C42.3784 22.7062 42.4517 22.6422 42.5351 22.599C42.6424 22.5433 42.6913 22.574 42.7357 22.6417C42.7901 22.7253 42.831 22.8148 42.8536 22.8997C42.9508 23.266 43.0862 24.1344 42.9455 25.1923V25.1918Z" fill="#4D4D4D"/>
<path d="M32.6676 30.2913C32.8257 29.9842 32.9683 29.6373 33.1035 29.2304C33.2325 28.8426 33.3287 28.4445 33.4161 28.07C33.4756 27.8142 33.5212 27.553 33.5653 27.3001L33.5943 27.1347C33.6256 26.9587 33.6501 26.7799 33.6737 26.6071L33.6782 26.5734C33.7005 26.412 33.7196 26.2504 33.7377 26.0885C33.7544 25.9393 33.7688 25.7899 33.7815 25.6405C33.785 25.6014 33.7799 25.5661 33.7759 25.5404C33.7749 25.5332 33.7738 25.5263 33.7733 25.5194L33.7635 25.4146L33.6609 25.3904C33.5162 25.3562 32.7747 25.2832 32.6318 25.3259L32.5505 25.3501L32.5258 25.4509C32.5189 25.4762 32.512 25.503 32.5085 25.5308C32.4987 25.6168 32.4894 25.7026 32.4801 25.7886C32.4645 25.9345 32.4485 26.0808 32.4299 26.2265L32.4119 26.3693C32.3803 26.6196 32.3476 26.8783 32.303 27.1289C32.2305 27.5389 32.1553 27.9628 32.0546 28.371C31.9744 28.6953 31.8717 29.0749 31.7176 29.4308C31.5917 29.7217 31.4472 30.025 31.192 30.2562C31.1073 30.3329 31.0374 30.373 30.9652 30.3868C30.711 30.4346 30.6215 30.3754 30.5363 30.2414C30.4311 30.076 30.3684 29.9284 30.3389 29.7769L30.3286 29.7243C30.297 29.5638 30.2672 29.4119 30.2608 29.2567C30.2569 29.1579 30.2489 29.0595 30.2407 28.9607C30.2303 28.8357 30.2205 28.7176 30.2192 28.5987C30.2168 28.3975 30.2263 28.1908 30.2354 27.9909L30.2423 27.8399C30.2476 27.7149 30.2585 27.5864 30.2691 27.462L30.2712 27.4383C30.2781 27.3574 30.2858 27.2764 30.2935 27.1955C30.302 27.1071 30.3102 27.0185 30.3177 26.9298C30.3235 26.8595 30.328 26.7889 30.3328 26.7183C30.3376 26.6445 30.3424 26.5705 30.3488 26.4969C30.3655 26.3034 30.3833 26.1097 30.4011 25.9162L30.4345 25.5515C30.4478 25.405 30.4614 25.2585 30.4752 25.112C30.481 25.0504 30.4874 24.9891 30.4938 24.9276C30.5036 24.832 30.5134 24.7365 30.5214 24.6409C30.5275 24.5663 30.5323 24.4915 30.5371 24.4166C30.5418 24.3429 30.5466 24.2688 30.5527 24.195C30.5583 24.1313 30.5657 24.0679 30.5737 24.0047H30.5774C30.6624 23.9962 30.7453 23.9885 30.8282 23.9822L31.0202 23.9678C31.2956 23.9471 31.5713 23.9264 31.847 23.9097C32.052 23.8972 32.2573 23.8871 32.4626 23.8771C32.6278 23.8688 32.793 23.8609 32.9585 23.8513C33.0405 23.8465 33.1221 23.838 33.2105 23.8285C33.2514 23.824 33.2936 23.8197 33.338 23.8152L33.4833 23.8012L33.4702 23.656C33.458 23.519 33.4509 23.3805 33.4437 23.2464C33.4341 23.0649 33.4243 22.877 33.402 22.6875L33.3868 22.5577L33.1988 22.5572C33.1571 22.5566 33.1197 22.5561 33.0825 22.5585C32.9154 22.5688 32.7481 22.58 32.581 22.5911L31.882 22.636C31.635 22.6522 31.3883 22.6681 31.1413 22.6851C31.1118 22.6872 31.0823 22.6904 31.0526 22.6936C31.0236 22.6968 30.9947 22.7002 30.9655 22.7018C30.8691 22.7069 30.7724 22.7114 30.6738 22.7156C30.7378 22.0914 30.7896 21.4626 30.8396 20.8532C30.8683 20.5045 30.8969 20.1565 30.9277 19.8088L30.9392 19.6812L30.8143 19.6525C30.5904 19.6013 29.9233 19.5442 29.7698 19.5843L29.6739 19.6092L29.6537 19.7603C29.6471 19.8057 29.6402 19.8526 29.637 19.9001C29.6317 19.9798 29.6274 20.0596 29.6229 20.1395C29.6171 20.2465 29.6115 20.3532 29.603 20.4599C29.5908 20.6133 29.5764 20.7667 29.5621 20.9198C29.5528 21.0204 29.5432 21.121 29.5345 21.2216C29.5281 21.2951 29.5225 21.3684 29.5172 21.4419C29.5124 21.5085 29.5074 21.5754 29.5018 21.642C29.4959 21.7094 29.4896 21.7771 29.4832 21.8445C29.4742 21.9382 29.4654 22.0322 29.4582 22.1261C29.4521 22.2079 29.4473 22.2899 29.4428 22.3719C29.438 22.4558 29.4333 22.5394 29.4269 22.623C29.4226 22.6777 29.4157 22.7321 29.4086 22.787L29.3934 22.7881C29.2914 22.7955 28.5268 22.7937 28.5268 22.7937L28.4941 24.0379L29.2694 24.0958C29.2633 24.1963 29.2574 24.2919 29.2489 24.3872C29.2386 24.504 29.2266 24.6205 29.215 24.737C29.2019 24.866 29.1889 24.995 29.1778 25.124C29.16 25.3283 29.144 25.533 29.1281 25.7376C29.1185 25.8599 29.109 25.9823 29.0989 26.1047C29.0729 26.4229 29.0463 26.7411 29.0197 27.0593C29.0099 27.1772 28.9998 27.295 28.9879 27.4126C28.9836 27.4553 28.9778 27.4981 28.9719 27.5405C28.9603 27.6257 28.9483 27.7138 28.947 27.8051C28.9422 28.117 28.9422 28.4522 28.947 28.8596C28.9486 29.0101 28.9589 29.1455 28.978 29.2742C29.0104 29.4926 29.0514 29.7124 29.0907 29.9247L29.0992 29.9709C29.1634 30.3183 29.2954 30.6541 29.4906 30.9686C29.5706 31.0976 29.6577 31.2048 29.7496 31.2879C30.055 31.5636 30.4122 31.703 30.8135 31.703C30.8635 31.703 30.9139 31.7009 30.9649 31.6966C31.3503 31.6642 31.6913 31.505 32.0076 31.2101C32.2538 30.9803 32.4639 30.688 32.669 30.2902L32.6676 30.2913Z" fill="#4D4D4D"/>
<path d="M24.658 27.1795C24.7685 26.2397 24.7404 25.7116 24.7369 25.6407C24.729 25.4753 24.721 25.3044 24.7085 25.1356L24.704 25.0735C24.6915 24.9013 24.6788 24.7232 24.644 24.5477C24.5545 24.0928 24.4426 23.6095 24.2299 23.1572C24.0004 22.6694 23.7314 22.3292 23.3829 22.0871C23.1402 21.9183 22.8648 21.8119 22.5408 21.7609C22.3208 21.7264 22.1049 21.7352 21.8994 21.7867C21.5397 21.8769 21.22 22.0667 20.9485 22.3507C20.7297 22.5797 20.5422 22.8409 20.3749 23.149C20.1151 23.6278 19.9133 24.1602 19.7202 24.8758C19.6047 25.3039 19.5401 25.7519 19.483 26.1474C19.4272 26.5346 19.3752 27.7775 19.4344 28.458C19.444 28.5682 19.4501 28.6858 19.4684 28.8017C19.5032 29.0215 19.5436 29.2513 19.5882 29.4852C19.6904 30.021 19.8474 30.4842 20.0681 30.9011C20.2389 31.2236 20.4466 31.4683 20.7031 31.6496C20.9602 31.8311 21.2542 31.9224 21.5804 31.9224C21.6919 31.9224 21.8069 31.9118 21.9259 31.8903C22.383 31.808 22.7851 31.571 23.1553 31.1655C23.4167 30.8794 23.6443 30.5335 23.8517 30.1084C24.0644 29.672 24.2373 29.2033 24.3659 28.7155C24.4936 28.2306 24.5954 27.7143 24.6583 27.1798L24.658 27.1795ZM23.277 27.549C23.2432 27.7459 23.2018 27.9474 23.1593 28.1419C23.1402 28.2295 23.1211 28.3174 23.1027 28.4052C23.0321 28.7463 22.9224 29.0985 22.7766 29.4523C22.6496 29.7604 22.4799 30.1123 22.1859 30.3881C22.0178 30.5458 21.834 30.6315 21.6239 30.6498C21.4741 30.6631 21.3554 30.597 21.2418 30.4356C21.1236 30.2679 21.0367 30.0693 20.9833 29.8456C20.927 29.6091 20.8728 29.366 20.8179 29.1022C20.8027 29.0303 20.6946 27.7608 20.7533 26.8114L20.7592 26.7241C20.7722 26.5293 20.7857 26.3278 20.8112 26.1338C20.8381 25.9303 20.8755 25.7227 20.9116 25.5218L20.9408 25.3594C21.0176 24.9254 21.135 24.4997 21.2893 24.0939C21.4433 23.6897 21.6162 23.411 21.8502 23.1909C21.9612 23.0866 22.1243 23.0338 22.2882 23.0338C22.4404 23.0338 22.5928 23.0792 22.7052 23.171C22.9309 23.3558 23.0536 23.6114 23.1436 23.8375C23.2695 24.1531 23.3468 24.5034 23.3872 24.9397C23.405 25.133 23.4204 25.3264 23.4358 25.517C23.4358 25.517 23.4701 26.4191 23.2772 27.5487L23.277 27.549Z" fill="#4D4D4D"/>
<path d="M17.5729 31.2319C17.7806 31.0103 17.9679 30.7443 18.1453 30.4192C18.3702 30.0073 18.5532 29.5696 18.6895 29.1187C18.779 28.8225 18.851 28.548 18.9097 28.28C18.9543 28.0769 18.9877 27.8699 19.0204 27.6695C19.0318 27.5984 19.0435 27.5273 19.0555 27.4561C19.1147 27.1069 19.1513 26.7268 19.1675 26.2944C19.1705 26.2177 19.1702 26.141 19.1694 26.0643L19.1707 25.8942C19.1707 25.8745 19.171 25.8546 19.1705 25.835C19.1675 25.7591 19.1657 25.6832 19.1638 25.6073C19.1596 25.4284 19.1551 25.2434 19.1365 25.06C19.1195 24.8907 19.0871 24.7237 19.056 24.5621C19.043 24.4939 19.0297 24.4259 19.0177 24.3577C18.9306 23.8617 18.7665 23.3898 18.5288 22.955C18.3323 22.5951 18.0948 22.3257 17.8029 22.1315C17.383 21.8522 16.9408 21.7445 16.4864 21.8111C16.1945 21.8541 15.9207 21.9664 15.6724 22.1455C15.4025 22.3398 15.1723 22.5975 14.9476 22.9561C14.7245 23.3123 14.5404 23.7037 14.3845 24.1531C14.2183 24.6327 14.1006 25.0714 14.0246 25.4947C14.0146 25.551 14.0037 25.6073 13.993 25.6633C13.9678 25.7947 13.9418 25.9305 13.9243 26.0675C13.895 26.2942 13.8783 26.5256 13.865 26.7247L13.8549 26.869C13.839 27.096 13.8223 27.3303 13.8223 27.5636C13.8223 27.8516 13.8454 28.1451 13.8658 28.4039C13.8844 28.6393 13.9051 28.9063 13.9495 29.1648C14.0236 29.5985 14.1168 30.0625 14.2969 30.5158C14.4748 30.9633 14.6807 31.2905 14.9447 31.5456C15.2333 31.8243 15.59 31.9689 16.0049 31.975C16.0131 31.975 16.0211 31.975 16.0293 31.975C16.2309 31.975 16.4367 31.9376 16.6577 31.8609C16.9825 31.7484 17.2818 31.5424 17.5727 31.2319H17.5729ZM17.0157 29.9083C16.8752 30.1591 16.6914 30.4367 16.3942 30.597C16.2054 30.6989 16.0461 30.7247 15.8925 30.6782C15.832 30.6599 15.7786 30.6217 15.7247 30.558C15.5699 30.3746 15.4851 30.1453 15.4169 29.925C15.3351 29.6609 15.2782 29.3716 15.2384 29.0144L15.2256 28.9018C15.065 28.0294 15.2198 26.498 15.2758 25.9372C15.2984 25.7105 15.5263 24.4772 15.8081 23.927C15.9276 23.6934 16.0463 23.4736 16.2147 23.2993C16.4612 23.0437 16.8088 23.0039 17.1004 23.1981C17.1751 23.2478 17.2494 23.3231 17.3347 23.4354C17.4906 23.6403 17.5809 23.8882 17.6492 24.1035C17.7187 24.3232 17.7695 24.5621 17.8141 24.8777C17.8287 24.9817 17.8385 25.0945 17.8452 25.2328L17.8515 25.366C17.8614 25.563 17.8715 25.7668 17.8688 25.9645C17.8667 26.1285 17.8513 26.2981 17.8364 26.4619L17.821 26.6357C17.8069 26.8022 17.7926 26.9744 17.7689 27.1406C17.7225 27.471 17.6797 27.7412 17.6338 27.9915C17.595 28.2027 17.5509 28.4286 17.4885 28.651C17.3711 29.0696 17.2378 29.5117 17.0157 29.9077V29.9083Z" fill="#4D4D4D"/>
<path d="M39.0454 28.715C39.2021 28.1138 39.2953 27.6207 39.3386 27.1634L39.3553 26.9917C39.3827 26.7156 39.4109 26.4303 39.4119 26.1445C39.4119 26.0972 39.4119 26.0497 39.4119 26.0025C39.4119 26.0025 39.4172 25.7033 39.4143 25.628C39.4074 25.4576 39.4002 25.2816 39.3832 25.1072L39.3758 25.0295C39.3503 24.7664 39.324 24.4947 39.2635 24.23C39.1578 23.7672 38.9878 23.1676 38.6109 22.6368C38.3469 22.2647 38.0396 22.0168 37.672 21.8793C37.275 21.7309 36.9183 21.7007 36.581 21.7875C36.1866 21.8889 35.8498 22.1022 35.5513 22.4396C35.2562 22.7732 35.0135 23.1785 34.7875 23.7149C34.6292 24.0907 34.5128 24.4389 34.4316 24.7795L34.4 24.9108C34.3511 25.1139 34.3004 25.3238 34.2627 25.5345C34.2342 25.6933 34.2138 25.8544 34.1939 26.0102C34.1808 26.1142 34.1676 26.2182 34.1519 26.3218C34.1049 26.6341 34.0813 26.9412 34.0821 27.2348L34.0839 28.0416C34.0839 28.0767 34.085 28.112 34.0887 28.1465L34.1036 28.2839C34.12 28.4379 34.1365 28.5918 34.1567 28.7452L34.171 28.858C34.1944 29.0433 34.2186 29.2352 34.256 29.4236C34.3051 29.672 34.3718 29.9112 34.4241 30.0919C34.554 30.5394 34.7272 30.9086 34.954 31.2207C35.1282 31.4609 35.3208 31.6334 35.5425 31.7484C35.7712 31.867 36.0134 31.9262 36.2668 31.9262C36.5026 31.9262 36.7483 31.875 37.0025 31.7722C37.3839 31.6183 37.7135 31.3471 38.0401 30.9195C38.233 30.6671 38.4048 30.3756 38.5812 30.0022C38.7716 29.5993 38.9278 29.1664 39.0451 28.7152L39.0454 28.715ZM38.1259 25.9478C38.1084 26.2843 38.0348 28.3832 37.3369 29.7225C37.2253 29.9367 37.0869 30.1838 36.8758 30.3772C36.7677 30.4765 36.6599 30.5474 36.5465 30.5938C36.432 30.6408 36.3218 30.6586 36.2182 30.6472C36.1013 30.6342 36.0081 30.567 35.9157 30.4293C35.801 30.2586 35.7215 30.0832 35.6798 29.908C35.598 29.5638 35.5141 29.1972 35.465 28.8336C35.393 28.3017 35.3935 27.7566 35.4047 27.247C35.414 26.8181 35.4536 26.3844 35.5226 25.9579L35.5444 25.8212C35.5962 25.4977 35.6496 25.1632 35.7351 24.8445C35.8397 24.4549 35.9584 24.0437 36.1584 23.6769C36.2809 23.4524 36.4068 23.2913 36.555 23.1697C36.6702 23.0752 36.8182 23.0288 36.9674 23.0288C37.1361 23.0288 37.3066 23.0882 37.4335 23.205C37.6027 23.3608 37.7074 23.5625 37.7873 23.739C37.9169 24.0252 37.9745 24.3298 38.0354 24.6523L38.0378 24.6648C38.08 24.8891 38.105 25.1117 38.1121 25.3273C38.1153 25.4263 38.1235 25.5253 38.1307 25.6128C38.1336 25.6465 38.1299 25.869 38.1259 25.9473V25.9478Z" fill="#4D4D4D"/>
<path d="M24.9713 24.8172L25.5902 24.7917C25.588 24.8618 25.5854 24.9321 25.5827 25.0022C25.5766 25.1649 25.5705 25.3329 25.5694 25.4996C25.5687 25.6171 25.5737 25.7347 25.5785 25.8486C25.5817 25.925 25.5849 26.0017 25.5864 26.0782C25.5915 26.3303 25.5957 26.5827 25.6003 26.8351C25.6056 27.1417 25.6109 27.4482 25.6173 27.7548C25.6194 27.8609 25.6255 27.9674 25.6316 28.0735L25.6515 28.4605C25.6645 28.7161 25.6773 28.9719 25.6908 29.2275C25.7006 29.4144 25.7113 29.601 25.7216 29.7878L25.7554 30.4041C25.7609 30.51 25.7665 30.6156 25.7726 30.7215L25.7747 30.7584C25.7814 30.8752 25.788 30.992 25.7987 31.1085C25.8034 31.1608 25.8127 31.2109 25.8218 31.2595C25.8257 31.2807 25.8297 31.3028 25.8334 31.3253L25.8555 31.4572L25.9891 31.4477C26.0401 31.444 26.0903 31.4413 26.1397 31.4387C26.2515 31.4326 26.3673 31.4265 26.481 31.4089C26.5365 31.4004 26.5957 31.3986 26.6584 31.3967C26.7572 31.3935 26.869 31.3901 26.9827 31.3577L27.0894 31.3275V31.2165C27.0894 31.1865 27.09 31.1576 27.0905 31.1295C27.0918 31.0644 27.0929 31.0031 27.0878 30.9386C27.0785 30.8216 27.0674 30.7048 27.0562 30.5878C27.0437 30.459 27.0315 30.3306 27.022 30.2016C27.0002 29.9139 26.9837 29.6243 26.9702 29.3756C26.9508 29.0229 26.9335 28.6699 26.9168 28.3172C26.907 28.1093 26.8979 27.9015 26.8916 27.6937C26.8889 27.6072 26.886 27.5207 26.8831 27.4341C26.8743 27.1807 26.8655 26.9187 26.8663 26.6626C26.8682 26.1655 26.8756 25.6593 26.8831 25.1702L26.89 24.6895C26.9149 24.6877 26.9396 24.6858 26.9646 24.684C27.1088 24.6733 27.8604 24.6149 27.8604 24.6149L27.7659 23.3773C27.7659 23.3773 27.0329 23.4002 26.9635 23.4015C26.9667 23.3081 26.9696 23.2146 26.9726 23.1212C26.9781 22.9394 26.9835 22.7576 26.992 22.5758C27.0034 22.3306 27.0185 22.0407 27.0427 21.7522C27.0716 21.4074 27.108 21.0629 27.1431 20.7399L27.1582 20.5985C27.1837 20.3593 27.21 20.1122 27.248 19.8731C27.3008 19.5424 27.3678 19.1833 27.4525 18.7754C27.4737 18.6732 27.5037 18.5729 27.5356 18.4664C27.5582 18.3911 27.5808 18.3157 27.6002 18.2398C27.6538 18.0293 27.746 17.8167 27.8992 17.5508C27.922 17.5107 27.9515 17.4711 27.9861 17.4332C28.0918 17.318 28.1922 17.2739 28.3109 17.2899C28.4434 17.3079 28.5515 17.3575 28.6413 17.4417C28.7964 17.5874 28.9292 17.7498 29.0359 17.925C29.0694 17.9799 29.1082 18.0304 29.1454 18.0789C29.1621 18.1007 29.1794 18.1233 29.1964 18.1466L29.2766 18.2562L29.3921 18.1851C29.5876 18.0646 29.7682 17.933 29.9424 17.8056C30.025 17.7453 30.1079 17.6848 30.1926 17.6251L30.3118 17.5412L30.1658 17.3305C29.94 17.0037 29.7068 16.6656 29.3825 16.4005C29.0651 16.142 28.6978 16.0071 28.2902 16.0002C27.9159 15.9936 27.5768 16.1329 27.2751 16.4129C27.1104 16.5658 26.9885 16.7431 26.9006 16.8806C26.6286 17.3063 26.4717 17.7726 26.3426 18.213C26.2974 18.3666 26.2626 18.5238 26.2289 18.6753C26.2093 18.7637 26.1899 18.8518 26.1681 18.9397C26.0648 19.3593 26.0079 19.7898 25.9527 20.2062L25.9232 20.4283C25.9009 20.5924 25.882 20.7569 25.8632 20.9215L25.8345 21.1678C25.821 21.2824 25.8074 21.3974 25.7971 21.5123C25.7888 21.6052 25.7827 21.6983 25.7769 21.7912C25.7732 21.8478 25.7697 21.904 25.7655 21.9606C25.7405 22.3 25.7147 22.6398 25.689 22.9792C25.6807 23.0888 25.6712 23.1984 25.6611 23.3081C25.6555 23.3686 25.6494 23.4288 25.643 23.4896C25.5705 23.4997 25.4948 23.5026 25.4159 23.5058C25.2744 23.5114 25.1278 23.5172 24.9761 23.5644L24.8731 23.5966V23.7043C24.872 24.0329 24.9118 24.3535 24.9506 24.6638L24.9711 24.8177L24.9713 24.8172Z" fill="#4D4D4D"/>
</svg>
