<svg width="18" height="80" viewBox="0 0 18 80" fill="none" xmlns="http://www.w3.org/2000/svg">
<path d="M10.2593 0C10.2593 8.29975 9.33335 21.9518 9.33335 30.2686C9.33335 37.4852 10.2593 44.8024 10.2593 52.0279C10.2593 55.0028 10.2593 57.9778 10.2593 60.9528C10.2593 64.4681 9.52247 67.8368 9.33335 71.2409C9.22254 73.2355 9.33335 75.2605 9.33335 77.2594C9.33335 78.9765 8.17749 78.5799 7.94446 77.2594C7.72508 76.0162 5.00853 74.1641 4.24075 72.9898C3.75035 72.2398 1.51369 67.8987 1 68.9261" stroke="#EA5A24" stroke-width="2" stroke-linecap="round"/>
<path d="M8.87109 79.5741C10.8015 79.1881 13.4653 75.2877 14.6324 73.7871C15.3684 72.8408 16.3611 71.9189 16.7415 70.7778" stroke="#EA5A24" stroke-width="2" stroke-linecap="round"/>
</svg>
