<svg width="153" height="155" viewBox="0 0 153 155" fill="none" xmlns="http://www.w3.org/2000/svg">
<g clip-path="url(#clip0_729_908)">
<path d="M123.678 53.2732C125.264 53.6327 126.77 54.505 128.371 54.7626C128.954 54.8595 129.632 54.3959 129.413 53.728C127.96 49.343 121.202 49.1841 118.17 51.8035C118.086 51.8941 118.029 52.0072 118.007 52.1292C117.985 52.2513 117.998 52.3771 118.046 52.4917C118.093 52.6063 118.173 52.7048 118.275 52.7755C118.376 52.8461 118.497 52.8859 118.621 52.89C120.316 52.802 122.016 52.9308 123.678 53.2732Z" fill="#8FB8DF"/>
<path d="M109.454 70.6952C109.64 69.6479 108.194 69.1498 107.922 70.1409C107.581 71.5325 106.925 72.8273 106.004 73.9255C104.888 75.3559 103.891 74.8747 103.433 75.4312C102.599 76.4462 104.031 77.053 104.565 76.9568C108.024 76.3117 109.064 72.8671 109.454 70.6952Z" fill="#8FB8DF"/>
<path d="M103.433 86.7651C107.729 84.0388 111.11 80.0891 113.142 75.4245C114.157 73.0058 114.844 67.9785 116.017 65.6368C117.37 62.9321 120.281 61.5739 123.097 63.0458C124.731 63.8981 126.172 61.4265 124.53 60.5582C122.044 59.24 118.992 59.1508 116.559 60.6881C114.033 62.265 112.921 65.1037 111.988 67.8004C110.912 70.9044 110.184 75.5124 108.273 78.2146C105.207 82.513 103.785 82.4133 101.126 84.4667C99.4838 85.7561 101.633 87.8438 103.433 86.7651Z" fill="#8FB8DF"/>
<path d="M113.715 53.2891C111.6 54.4052 109.605 57.5348 108.9 59.6933C108.324 61.456 107.263 66.8834 109.386 66.9035C110.535 66.9138 110.371 63.2676 111.157 61.0907C112.81 56.5349 115.16 55.7968 115.477 54.6457C115.532 54.417 115.519 54.1775 115.441 53.9558C115.362 53.7342 115.222 53.54 115.035 53.3965C114.849 53.2531 114.625 53.1667 114.391 53.1476C114.157 53.1285 113.922 53.1777 113.715 53.2891Z" fill="#8FB8DF"/>
<path d="M92.2273 96.133C89.5775 97.0346 85.4793 96.4557 84.6156 97.8726C84.5203 97.9988 84.4786 98.1575 84.4996 98.3143C84.5206 98.4711 84.6027 98.6133 84.7279 98.7099C86.694 100.153 92.491 98.52 94.1 97.9154C96.415 97.0457 100.582 94.3064 99.8687 92.5892C98.2145 91.0555 99.0654 93.8128 92.2273 96.133Z" fill="#8FB8DF"/>
<path d="M102.264 49.2772C100.818 49.2778 99.1736 52.3388 98.8309 54.5667C98.3605 57.6672 97.8514 60.8251 97.8074 63.9524C97.7395 67.1312 97.8614 70.3113 98.1726 73.4756C98.4405 76.0133 98.6778 77.9375 100.005 80.9358C100.278 81.5494 101.197 81.1224 101.401 80.5618C102.195 78.3864 100.587 72.8287 100.617 64.2659C100.642 56.4958 102.965 52.6493 103.581 51.5771C103.707 51.3435 103.771 51.0818 103.768 50.8165C103.764 50.5512 103.693 50.2912 103.562 50.0611C103.43 49.8309 103.241 49.6381 103.014 49.5009C102.787 49.3638 102.529 49.2868 102.264 49.2772Z" fill="#8FB8DF"/>
<path d="M108.117 50.756C105.341 52.631 104.016 57.034 103.66 60.169C103.124 64.8305 103.318 66.0433 103.731 71.0614C103.845 72.4331 105.656 71.8251 105.613 70.5208C105.441 65.5757 105.845 64.0073 106.344 60.6641C107.054 55.9201 109.646 53.2412 109.652 51.6422C109.653 50.9046 108.774 50.3089 108.117 50.756Z" fill="#8FB8DF"/>
<path d="M69.9417 109.766C71.4231 107.768 72.8434 104.409 72.2668 101.893C71.9921 100.719 70.4789 100.926 70.098 101.892C69.6499 103.038 70.307 103.441 69.6655 105.43C68.9094 107.802 68.5072 107.851 68.0563 108.988C67.6054 110.124 69.3149 110.61 69.9417 109.766Z" fill="#8FB8DF"/>
<path d="M84.1385 64.2649C85.4248 63.5082 86.4023 63.6222 87.7463 64.1331C89.5788 64.8348 90.2546 62.2177 88.9543 61.2361C85.9762 58.9837 80.4944 62.0355 80.936 65.788C80.9361 65.8106 80.9412 65.8328 80.951 65.8531C80.9608 65.8734 80.9751 65.8912 80.9927 65.9052C81.0104 65.9192 81.031 65.9291 81.0529 65.9341C81.0749 65.9391 81.0977 65.939 81.1197 65.934C82.1933 65.6246 83.1859 64.8238 84.1385 64.2649Z" fill="#8FB8DF"/>
<path d="M116.402 58.1065C116.482 58.2496 116.61 58.3598 116.763 58.4179C116.767 58.4379 116.774 58.4569 116.785 58.4736C116.797 58.4903 116.811 58.5045 116.829 58.515C116.846 58.5254 116.865 58.5321 116.885 58.5344C116.905 58.5367 116.926 58.5346 116.945 58.5284L116.982 58.5184C117.751 58.7858 118.873 58.0513 119.641 57.9072C120.846 57.724 122.073 57.7446 123.271 57.968C124.045 58.2921 124.79 58.6995 125.621 58.5746C125.763 58.5361 125.893 58.4611 125.997 58.357C126.102 58.2529 126.178 58.1234 126.217 57.9811C127.265 55.2968 122.258 54.8857 120.72 55.0013C119.348 55.1015 115.056 55.8215 116.402 58.1065Z" fill="#8FB8DF"/>
<path d="M57.6402 58.1952C56.6266 59.0523 56.0004 60.2899 54.9721 61.1328C54.3817 61.6271 54.8986 62.5982 55.5795 62.6037C56.392 62.6281 57.1025 61.7186 57.5952 61.1564C58.2061 60.5218 58.626 59.7279 58.8066 58.8657C58.8444 58.7179 58.8327 58.5618 58.7734 58.4212C58.7141 58.2806 58.6104 58.1634 58.4781 58.0873C58.3459 58.0113 58.1923 57.9807 58.041 58.0001C57.8897 58.0196 57.7489 58.0881 57.6402 58.1952Z" fill="#8FB8DF"/>
<path d="M58.2419 63.947C58.0477 64.3821 58.2635 65.0255 58.8405 64.9937C60.0322 64.9093 61.2853 63.2327 61.9152 62.3194C62.6342 61.2665 63.3656 59.6393 62.6778 58.4213C62.3995 57.9357 61.5285 57.8546 61.2791 58.4347C60.8525 59.4055 60.8715 60.4341 60.2895 61.378C59.7076 62.3218 58.6694 62.9795 58.2419 63.947Z" fill="#8FB8DF"/>
<path d="M51.3278 64.4472C56.246 69.3134 57.2928 70.0774 61.8042 76.191C64.0083 79.2476 65.9826 82.4636 67.711 85.8124C70.1421 90.6365 71.1087 95.7952 71.3168 95.8298C75.8493 96.6538 82.1663 95.4237 86.5694 94.2403C93.3139 92.65 97.2844 89.7175 97.711 89.1514C97.8949 88.907 95.8499 80.8567 95.3255 70.928C94.923 63.2616 95.606 55.7887 96.582 52.1877C97.0096 50.6274 95.0673 51.1479 94.8899 51.5785C92.8603 56.2245 92.7719 67.4812 92.835 68.7148C92.9012 74.0606 93.1464 78.6175 94.2728 84.2104C94.3606 84.7001 94.44 85.0909 94.513 85.3496C94.8274 86.5231 95.0744 87.9171 94.0466 88.7888C92.7533 89.8835 87.8935 91.4532 85.6373 92.0432L85.1236 92.1628C85.442 91.3547 85.2275 90.6893 84.7908 89.9497C84.5901 89.6043 84.3713 89.2696 84.1355 88.9471C84.0552 88.8438 83.9675 88.7465 83.8731 88.656C85.4117 88.309 86.8323 87.5645 87.9931 86.4967C88.5535 85.9851 87.8364 85.2375 87.2261 85.5095C84.7012 86.6338 82.0377 87.4167 79.306 87.8377C78.9597 87.8943 79.0172 88.3921 79.3067 88.488C80.52 88.8812 81.808 88.9876 83.0694 88.799C83.0644 88.9558 83.0576 89.1058 83.0656 89.2301C83.0832 89.6194 83.1099 90.0026 83.1241 90.3927C83.1527 91.1874 83.1655 91.896 83.8051 92.4619C81.036 93.0717 78.2329 93.5151 75.4107 93.7895C74.2375 93.916 73.0762 92.7923 72.7607 91.6552C71.9991 88.9209 70.718 86.3114 69.3671 83.8326C67.6433 80.5656 65.637 77.4558 63.371 74.5387C59.0405 68.7091 54.6682 64.7738 52.1466 63.2809C51.6616 62.9952 50.5991 63.5618 51.3278 64.4472Z" fill="#8FB8DF"/>
<path d="M36.3582 124.508C36.3482 124.475 36.3284 124.446 36.3014 124.425C36.2744 124.404 36.2415 124.391 36.2072 124.389C36.0248 124.37 36.0158 124.39 35.8464 124.486C35.7602 124.538 35.6977 124.621 35.6724 124.719C35.6472 124.816 35.6611 124.919 35.7112 125.007C37.0082 127.149 40.3589 130.213 43.0391 128.548C43.7615 128.101 43.7558 126.704 42.7727 126.555C42.2063 126.465 41.662 126.524 41.0988 126.472C40.5268 126.391 39.9678 126.236 39.4355 126.011C38.5673 125.698 37.1543 125.267 36.3964 124.61L36.3582 124.508Z" fill="#8FB8DF"/>
<path d="M91.8948 55.1312C92.8154 54.6821 92.1707 53.2068 91.2083 53.4864C89.9569 53.847 88.8852 53.2197 88.2821 52.1019C88.2099 51.9866 88.1027 51.8976 87.9762 51.8478C87.8496 51.798 87.7105 51.7902 87.5791 51.8254C87.4478 51.8605 87.3312 51.9369 87.2465 52.0433C87.1618 52.1497 87.1135 52.2804 87.1086 52.4163C87.0862 54.7607 89.9429 56.0879 91.8948 55.1312Z" fill="#8FB8DF"/>
<path d="M111.706 42.7717C112.502 43.4764 113.061 44.5374 113.967 45.0862C114.873 45.6349 115.679 44.7322 115.551 43.874C115.381 42.593 113.977 41.5234 112.981 40.8398C111.908 40.0945 110.639 39.6803 109.333 39.6487C109.19 39.6527 109.052 39.7027 108.939 39.7912C108.827 39.8797 108.746 40.0021 108.708 40.1403C108.671 40.2784 108.679 40.425 108.731 40.5583C108.783 40.6917 108.877 40.8046 108.998 40.8806C109.957 41.426 110.864 42.059 111.706 42.7717Z" fill="#8FB8DF"/>
<path d="M92.6386 22.1444C92.0079 23.5133 92.616 28.1031 91.5611 33.2975C91.2481 34.8271 90.592 36.2498 90.2763 37.7692C90.1128 38.5756 91.1796 39.4138 91.7984 38.648C92.8418 37.3529 93.5925 35.8473 93.9987 34.2346C95.2182 29.5057 95.0009 24.1354 94.7069 22.4179C94.5464 21.4814 93.0356 21.279 92.6386 22.1444Z" fill="#8FB8DF"/>
<path d="M94.3615 48.7164C95.8289 47.4486 99.9623 45.0291 103.633 45.8455C110.133 47.2952 109.784 49.2572 112.751 50.9018C113.803 51.4837 115.368 50.2007 114.535 49.1045C111.792 45.4771 107.018 43.2938 102.497 43.0921C100.229 42.977 99.1741 42.8296 95.7491 44.4665C94.5709 45.1342 93.4734 45.9352 92.4782 46.8537C91.1948 47.9855 93.0801 49.8151 94.3615 48.7164Z" fill="#8FB8DF"/>
<path d="M101.571 26.8747C101.041 28.2165 100.74 30.4115 101.026 31.8277C101.052 31.9274 101.111 32.0154 101.193 32.0778C101.276 32.1402 101.376 32.1734 101.479 32.1723C102.411 32.0601 102.842 31.4457 103.232 30.6185C103.781 29.3653 103.986 28.2008 105.11 27.2707C107.425 25.3603 111.503 25.9192 113.784 27.4983C114.524 28.0227 115.55 27.1553 115.298 26.3372C114.147 22.6195 108.252 22.2292 105.257 23.4618C103.667 24.0974 102.205 25.2627 101.571 26.8747Z" fill="#8FB8DF"/>
<path d="M74.7432 109.542C76.1492 108.045 77.5498 102.104 76.3995 99.6181C75.8485 98.4249 74.0536 99.2528 74.3191 100.486C74.6085 101.836 74.806 103.005 74.5914 104.389C74.3217 106.081 73.3011 108.233 73.1994 109.135C73.0974 109.969 74.2092 110.112 74.7432 109.542Z" fill="#8FB8DF"/>
<path d="M97.4401 24.1534C96.5809 26.086 96.9431 28.4358 96.4899 30.4944C96.3459 31.1438 95.2091 34.1446 96.3422 34.4482L96.4349 34.4704C96.5603 34.5051 96.6927 34.5056 96.8184 34.4719C96.9441 34.4383 97.0585 34.3716 97.1498 34.2788C98.425 32.9143 98.9899 31.2052 99.3369 29.3846C99.6589 27.6864 100.016 25.6861 99.0363 24.1486C98.6979 23.614 97.7379 23.4845 97.4401 24.1534Z" fill="#8FB8DF"/>
<path d="M64.4747 68.5142C63.773 70.3467 66.3926 71.0182 67.3717 69.7221C69.0916 67.4542 71.3981 68.6975 73.7315 68.018C73.7531 68.012 73.7729 68.0011 73.7896 67.9861C73.8063 67.9712 73.8193 67.9527 73.8277 67.9319C73.8361 67.9112 73.8396 67.8888 73.838 67.8665C73.8365 67.8442 73.8298 67.8225 73.8185 67.8032C72.0719 64.0498 65.8294 64.9779 64.4747 68.5142Z" fill="#8FB8DF"/>
<path d="M28.3792 67.0723C33.5043 62.4462 39.6321 61.3464 43.8011 61.4473C46.8348 61.5199 50.9185 62.5436 53.1209 60.2693C54.0636 59.6733 55.1579 58.4296 54.1794 57.3943C52.8561 56.0032 52.0397 58.0146 50.2431 58.8899C48.7665 59.6109 48.0099 58.9859 46.9195 59.0576C44.9916 58.8224 43.1285 58.5193 41.1715 58.8232C35.379 59.7175 30.4626 60.0373 26.0528 64.4464C25.1443 65.3585 25.8367 68.2125 28.3792 67.0723Z" fill="#8FB8DF"/>
<path d="M91.4107 50.5378C90.9887 50.4172 90.5886 50.2304 90.2251 49.9845C89.7732 49.6466 88.8585 49.9423 89.1332 50.6168C89.2592 51.0111 89.4734 51.3715 89.7596 51.6706C90.0458 51.9697 90.3964 52.1996 90.7848 52.3428C91.6071 52.6465 92.5579 52.6881 93.1216 51.919C93.1703 51.8348 93.2019 51.7418 93.2147 51.6454C93.2274 51.549 93.221 51.451 93.1958 51.357C93.1706 51.2631 93.1272 51.175 93.068 51.0978C93.0087 51.0207 92.9348 50.956 92.8506 50.9074C92.4155 50.6192 91.8892 50.6915 91.4107 50.5378Z" fill="#8FB8DF"/>
<path d="M23.9914 63.5968C26.038 60.3631 28.9631 58.3577 32.5082 57.115C37.3539 55.4118 42.4997 56.0967 45.9343 56.6402C47.168 56.8337 47.6664 55.605 46.5304 55.1288C42.5375 53.4591 36.6419 52.7546 31.1777 54.6452C27.4867 55.9233 23.7988 58.2921 21.4731 62.5476C20.811 64.4201 23.1872 64.8713 23.9914 63.5968Z" fill="#8FB8DF"/>
<path d="M92.7904 43.8463C94.6041 42.7784 96.4175 41.642 98.4574 41.0809C100.616 40.5026 102.887 40.671 105.013 40.0112C105.255 39.9386 105.467 39.7899 105.618 39.5873C105.769 39.3847 105.85 39.1389 105.851 38.8862C105.851 38.6335 105.77 38.3874 105.62 38.1843C105.47 37.9812 105.258 37.8319 105.016 37.7586C100.468 36.2015 93.884 38.3777 91.6381 42.7021C91.5499 42.8629 91.5164 43.0479 91.5426 43.2294C91.5689 43.4108 91.6534 43.5788 91.7835 43.708C91.9136 43.8372 92.0822 43.9206 92.2638 43.9455C92.4455 43.9704 92.6303 43.9356 92.7904 43.8463Z" fill="#8FB8DF"/>
<path d="M85.3058 108.972C86.3728 109.544 87.3816 110.219 88.318 110.987C90.0489 112.443 91.3557 114.568 93.2828 115.758C93.4517 115.85 93.6438 115.891 93.8357 115.876C94.0276 115.861 94.211 115.791 94.3634 115.673C94.5159 115.556 94.6309 115.396 94.6943 115.215C94.7577 115.033 94.7669 114.837 94.7207 114.65C94.0438 112.218 91.6793 110.043 89.7507 108.565C87.6865 106.971 85.4859 106.137 82.8916 106.261C82.7316 106.265 82.5771 106.321 82.4512 106.42C82.3254 106.519 82.2348 106.656 82.193 106.81C82.1511 106.965 82.1603 107.128 82.2191 107.277C82.2779 107.426 82.3832 107.552 82.5193 107.637C83.3662 108.194 84.4014 108.47 85.3058 108.972Z" fill="#8FB8DF"/>
<path d="M118.836 66.9563C117.912 69.5783 117.937 71.6967 117.098 74.3504C115.987 77.7996 113.452 83.1772 106.67 87.821C105.754 88.4495 102.344 90.668 103.019 92.0302C103.03 92.0707 103.059 92.11 103.076 92.1486C103.184 92.3288 103.348 92.4688 103.542 92.5472C103.737 92.6256 103.952 92.6381 104.154 92.5827C108.447 91.4325 114.402 84.8998 115.925 82.6377C119.441 77.4163 119.501 77.1832 120.899 67.3323C121.064 66.1964 119.222 65.8624 118.836 66.9563Z" fill="#8FB8DF"/>
<path d="M97.601 104.205C101.912 102.664 106.162 100.679 109.53 97.6188C112.899 94.5584 115.452 90.5311 118.352 87.04C120.814 84.0889 122.754 80.9306 123.273 77.0798C123.423 75.9552 121.478 75.6814 121.294 76.804C120.691 80.4894 118.318 83.406 115.864 86.0911C113.173 89.0384 110.926 92.5499 107.943 95.2032C104.896 97.9102 100.932 99.7493 97.1 101.203C95.2816 101.885 93.4013 102.389 91.4854 102.707C89.4151 103.074 87.0693 102.412 85.0285 102.821C84.5314 102.922 84.1293 104.186 84.6299 104.396C88.5443 106.029 93.7448 105.582 97.601 104.205Z" fill="#8FB8DF"/>
<path d="M78.9146 110.033C79.6958 109.401 80.6814 107.886 81.2625 105.428C81.9071 101.967 81.3733 100.339 81.018 98.6486C80.7319 97.2977 78.8598 97.7162 78.75 98.9383C78.631 100.221 79.6658 101.223 79.0042 104.487C78.5875 106.546 77.0856 108.684 77.4439 109.643C77.4871 109.79 77.5674 109.923 77.677 110.029C77.7865 110.136 77.9217 110.213 78.0695 110.252C78.2173 110.291 78.3727 110.291 78.5207 110.253C78.6687 110.215 78.8044 110.139 78.9146 110.033Z" fill="#8FB8DF"/>
<path d="M117.7 30.6987C115.671 29.7711 113.513 29.1575 111.3 28.879C109.258 28.5839 107.359 28.3229 105.485 29.3528C105.405 29.404 105.343 29.4792 105.309 29.5677C105.275 29.6561 105.27 29.7532 105.294 29.8449C105.319 29.9365 105.372 30.018 105.446 30.0774C105.52 30.1369 105.611 30.1713 105.705 30.1756C107.697 30.0286 109.621 30.8829 111.453 31.5668C113.2 32.2225 114.996 32.7859 116.586 33.7584C118.082 34.7366 119.366 36.0051 120.362 37.4887C121.374 38.9198 122.046 40.9011 123.557 41.8334C123.798 41.9671 124.069 42.0365 124.344 42.0348C124.619 42.0331 124.889 41.9604 125.128 41.8237C125.367 41.687 125.567 41.4909 125.707 41.2545C125.848 41.018 125.926 40.7492 125.932 40.4741C125.955 38.4548 124.097 36.3216 122.871 34.8213C121.468 33.0871 119.703 31.6801 117.7 30.6987Z" fill="#8FB8DF"/>
<path d="M125.571 84.5122C128.134 85.2965 127.743 79.4235 127.653 78.2115C127.563 76.9995 127.43 75.911 127.299 74.7717C127.304 74.6184 127.314 74.4641 127.321 74.3141C127.43 71.7548 127.531 69.1652 128.167 66.6818C128.76 64.258 129.801 61.9663 131.236 59.9249C131.9 58.9801 132.774 58.2007 133.788 57.6472C135.024 57.0015 136.089 57.1317 137.409 56.9732C138.533 56.8383 139.213 55.3407 138.032 54.6847C135.775 53.4245 132.778 54.647 130.921 56.1347C128.668 57.9493 127.335 60.6231 126.327 63.2678C125.119 66.407 124.995 69.6423 125.291 72.8917C125.31 73.7975 125.346 74.7021 125.376 75.6086C125.465 78.4761 125.227 81.3263 125.312 84.1516C125.313 84.2312 125.338 84.3086 125.384 84.3732C125.431 84.4378 125.496 84.4864 125.571 84.5122Z" fill="#8FB8DF"/>
<path d="M101.996 19.4882C100.643 20.8879 102.367 23.0031 104.042 22.1204C105.591 21.3187 107.099 20.7268 108.875 20.8544C110.422 20.9639 111.95 21.3497 113.487 21.5449C114.65 21.6888 115.395 19.8954 114.474 19.1699C110.854 16.316 105.368 15.9933 101.996 19.4882Z" fill="#8FB8DF"/>
<path d="M129.48 46.7695C128.315 45.8777 127.027 45.16 125.656 44.6388C123.974 44.0216 122.14 43.9514 120.416 44.4382C118.77 44.8791 116.601 45.2544 115.611 46.7377C115.182 47.3767 115.547 48.1462 116.096 48.5485C117.399 49.5005 118.817 48.8313 120.189 48.3518C121.725 47.8137 123.204 47.2477 124.839 47.6334C126.626 48.0547 128.165 49.012 129.732 49.9366C130.728 50.7794 131.449 52.0536 132.692 52.4722C132.844 52.5148 133.005 52.5157 133.157 52.4749C133.31 52.434 133.448 52.3529 133.559 52.24C134.882 50.8518 132.856 48.7417 131.761 47.904C131.073 47.3956 130.301 47.0116 129.48 46.7695Z" fill="#8FB8DF"/>
<path d="M111.999 38.5699C113.216 39.3975 114.349 40.3404 115.385 41.3854C116.426 42.4366 117.176 43.5655 118.784 43.2793C118.993 43.2232 119.184 43.1132 119.338 42.9605C119.491 42.8077 119.603 42.6174 119.66 42.4085C120.185 40.7932 118.734 39.6676 117.619 38.7447C116.349 37.676 114.973 36.7393 113.513 35.9489C110.885 34.5603 107.828 32.9689 104.838 33.3435C104.589 33.3739 103.922 34.1058 104.54 34.634C105.857 35.2859 106.835 35.4973 108.154 36.1559C109.49 36.8707 110.775 37.6773 111.999 38.5699Z" fill="#8FB8DF"/>
<path d="M49.567 24.5336C47.1966 23.6725 44.4481 25.5004 42.5422 26.7773C40.5704 28.0685 38.782 29.62 37.2255 31.3897C34.236 34.8544 31.3313 39.9842 31.6779 44.7308C31.8024 46.5443 34.2541 46.9536 34.8456 45.1687C35.4961 43.2126 35.7786 41.178 36.5719 39.2559C37.3292 37.4146 38.2723 35.6554 39.3865 34.0056C41.7998 30.4676 45.303 27.2881 49.5631 26.3671C50.5485 26.1464 50.3807 24.8324 49.567 24.5336Z" fill="#8FB8DF"/>
<path d="M124.254 87.074C124.678 86.2666 123.556 85.2769 122.919 86.0549C118.701 91.1822 115.028 96.8433 109.89 101.137C107.109 103.422 103.919 105.158 100.49 106.251C98.8308 106.803 97.131 107.393 95.4351 107.862C94.7606 108.042 94.2319 107.823 93.6161 107.912C93.4555 107.933 93.1988 107.973 93.1041 108.132L93.0424 108.239C92.971 108.365 92.9426 108.511 92.9616 108.654C92.9805 108.798 93.0456 108.932 93.1472 109.035C95.3349 111.17 99.4116 109.565 101.853 108.748C105.261 107.629 108.446 105.919 111.263 103.696C116.779 99.3052 120.99 93.2904 124.254 87.074Z" fill="#8FB8DF"/>
<path d="M64.42 22.2455C61.7677 23.2995 61.1302 26.3292 60.5958 28.8397C60.2674 30.3119 59.9117 32.0192 58.8039 33.1184C57.6961 34.2176 55.5724 33.724 54.1038 34.0163C48.3882 35.1033 42.899 39.6787 42.117 45.6493C41.9537 46.9147 43.805 46.9716 44.1923 45.9354C45.2459 43.1231 46.9367 40.5847 49.5677 39.0195C50.807 38.2641 52.1917 37.7786 53.6314 37.5945C55.1664 37.429 56.6811 37.8616 58.2091 37.6293C61.2568 37.1741 62.9272 34.5327 63.3355 31.6728C63.7773 28.5872 62.9601 25.2678 64.5869 22.4501C64.625 22.3496 64.5345 22.2003 64.42 22.2455Z" fill="#8FB8DF"/>
<path d="M116.638 104.364C116.173 103.816 115.409 104.375 115.147 104.977C113.909 107.802 113.698 110.577 113.636 112.989C113.555 116.087 114.447 119.213 115.899 121.975C116.478 123.07 118.182 122.401 118.004 121.411C117.341 117.794 116.493 115.773 116.38 112.41C116.301 110.092 117.78 105.713 116.638 104.364Z" fill="#8FB8DF"/>
<path d="M42.8127 38.4517C43.5793 37.5012 44.4336 36.6249 45.3642 35.8344C46.2734 35.0595 47.3975 34.48 48.1533 33.551C48.9662 32.5381 48.1877 31.2648 46.9297 31.4393C44.226 31.8023 41.7596 34.751 40.2662 36.839C38.547 39.2155 37.4827 42.0022 37.18 44.9197C37.0315 46.2136 39.0195 46.3893 39.3758 45.224C40.0898 42.7723 41.2554 40.4754 42.8127 38.4517Z" fill="#8FB8DF"/>
<path d="M73.8227 50.8328C74.2513 49.8289 72.9246 48.9917 72.3177 49.9639C71.6334 51.0652 68.6702 52.6182 66.466 53.4835C64.2619 54.3488 61.266 54.66 58.9218 55.0026C58.8315 55.0281 58.7493 55.0767 58.6834 55.1435C58.6175 55.2104 58.5702 55.2932 58.546 55.3839C58.5218 55.4746 58.5216 55.57 58.5455 55.6608C58.5693 55.7516 58.6164 55.8346 58.682 55.9017C58.8419 56.0225 59.0229 56.1125 59.2158 56.1671C62.3248 57.1412 64.4689 56.6859 66.822 55.7157C69.0629 54.7719 72.7853 53.2468 73.8227 50.8328Z" fill="#8FB8DF"/>
<path d="M19.0631 58.2308C18.8025 59.2005 20.3082 59.9103 20.7431 58.9299C26.9276 52.4442 29.7192 51.4649 34.4935 51.006C39.517 50.5057 44.5371 52.07 49.519 52.3724C57.7634 52.8595 71.3774 52.4789 74.5905 42.8752C74.9461 41.8149 73.3174 41.1453 72.7919 42.1246C70.236 46.8972 65.5341 48.6378 60.3423 49.0494C54.9485 49.4762 49.524 49.3004 44.1692 48.5255C39.5266 47.8575 35.0239 46.9425 30.4672 48.4562C28.3467 49.1617 27.2451 49.6231 24.4471 51.2258C21.85 53.1469 19.8003 55.4924 19.0631 58.2308Z" fill="#8FB8DF"/>
<path d="M43.939 20.1463C41.554 20.5793 39.0073 22.5267 37.1324 23.9868C32.8128 27.3926 29.4364 31.847 27.3245 36.9262C26.3459 39.263 25.1674 42.2027 25.3846 44.7937C25.548 46.7522 28.027 47.0747 28.728 45.2532C29.5817 43.0439 29.8264 40.5712 30.6658 38.3223C31.5714 35.9775 32.7514 33.7482 34.1811 31.6808C35.5638 29.6678 37.1762 27.8227 38.9858 26.1828C39.9048 25.3225 40.8764 24.5202 41.8949 23.7805C42.868 23.0825 43.988 22.5547 44.8694 21.7438C45.6166 21.0521 44.8093 19.9817 43.939 20.1463Z" fill="#8FB8DF"/>
<path d="M78.1756 21.9718C78.8299 21.2848 79.6597 20.79 80.5752 20.541C81.8041 20.1502 84.4973 21.1236 84.5818 19.1457C84.5828 18.9105 84.5211 18.6793 84.4031 18.4759C84.2851 18.2725 84.1149 18.1042 83.9102 17.9884C80.3336 15.9975 76.2064 19.5864 76.6103 23.3057C77.4686 23.2853 77.689 22.5431 78.1756 21.9718Z" fill="#8FB8DF"/>
<path d="M43.1947 132.684C43.5815 132.716 43.9705 132.662 44.3339 132.526C44.6973 132.39 45.0262 132.175 45.2968 131.897C46.023 131.167 45.4983 129.775 44.4326 129.804C43.7982 129.809 43.1772 129.988 42.6375 130.322C42.3569 130.499 42.134 130.755 41.9962 131.057C41.9962 131.057 41.937 131.214 41.9171 131.288C41.8971 131.362 41.7968 131.487 41.7761 131.517C41.7633 131.54 41.7568 131.566 41.7574 131.591C41.758 131.617 41.7656 131.643 41.7794 131.665C42.1406 132.19 42.5144 132.613 43.1947 132.684Z" fill="#8FB8DF"/>
<path d="M110.328 107.94C108.356 109.174 106.415 110.615 104.412 111.799C102.408 112.983 100.29 113.493 98.282 114.551C94.4812 116.553 92.9432 120.47 92.6504 124.557C92.5866 125.398 93.8245 125.688 94.2098 124.981C95.1303 123.171 96.1493 121.413 97.2621 119.714C98.5091 117.935 100.033 116.959 101.955 116.079C105.784 114.33 109.107 112.583 111.511 109.091C111.99 108.384 111.033 107.498 110.328 107.94Z" fill="#8FB8DF"/>
<path d="M109.742 115.348C109.798 116.609 110.552 120.328 110.688 121.658C110.922 123.973 109.845 127.359 109.485 127.962C108.745 129.244 109.697 130.641 110.878 129.721C114.199 127.14 113.326 117.138 111.235 114.948C110.865 114.552 109.989 114.776 109.742 115.348Z" fill="#8FB8DF"/>
<path d="M45.8237 121.574C42.0594 121.014 38.9611 119.621 35.8553 117.378C33.016 115.337 30.5539 112.817 28.5794 109.93C25.4954 105.408 24.0408 100.438 23.1013 95.2319C23.1289 94.863 23.1614 94.5254 23.1801 94.1771C23.4235 93.3279 23.5298 92.4454 23.4952 91.5627C23.3833 90.3494 22.1826 89.2001 21.0848 90.3364C19.7239 91.7455 19.9165 94.9865 20.085 96.7485C20.201 97.8738 20.4216 98.986 20.7438 100.07C20.8292 100.564 20.9384 101.066 21.0757 101.579C23.1312 109.426 27.9442 116.269 34.6334 120.857C37.6918 122.95 42.2546 125.722 46.1078 124.671C47.8662 124.193 47.5436 121.829 45.8237 121.574Z" fill="#8FB8DF"/>
<path d="M70.6103 34.1474C70.2693 35.829 70.0671 37.4482 69.1608 38.9488C68.2062 40.4805 66.8938 41.7574 65.3365 42.6697C62.0567 44.6328 57.1369 45.1017 53.5818 45.7543C53.2788 45.8102 53.2822 46.2141 53.5023 46.3611C57.2403 48.8328 64.0311 47.7794 67.6894 45.1113C70.8851 42.7804 73.1499 38.122 72.1032 34.1485C71.9135 33.4404 70.765 33.3759 70.6103 34.1474Z" fill="#8FB8DF"/>
<path d="M48.6095 114.9C47.5263 114.135 46.2366 114.137 44.9746 114.027C43.6662 113.913 42.399 113.512 41.2627 112.853C38.9348 111.543 36.8817 109.506 35.2418 107.419C33.5836 105.257 32.2548 102.862 31.2988 100.311C30.2974 97.7202 29.8989 95.0188 29.1986 92.3512C29.1502 92.1914 29.0518 92.0515 28.9178 91.9519C28.7838 91.8524 28.6214 91.7985 28.4545 91.7983C28.2876 91.798 28.125 91.8515 27.9908 91.9506C27.8566 92.0498 27.7577 92.1895 27.7089 92.3492C26.0593 98.2378 28.8306 105.06 32.365 109.726C34.2261 112.18 36.4848 114.405 39.1779 115.931C41.9994 117.531 44.7806 117.242 47.8684 117.611C49.4635 117.79 49.6449 115.635 48.6095 114.9Z" fill="#8FB8DF"/>
<path d="M68.078 23.8062C65.7365 24.3071 65.8976 28.2938 65.8739 30.1073C65.8323 33.4724 66.0483 36.5987 62.7315 38.4777C59.6472 40.2258 56.2631 40.1675 52.9207 40.7234C50.5714 41.1144 47.643 43.0266 47.5555 45.7752C47.5524 45.8447 47.6415 45.9076 47.7009 45.8592C48.8988 44.9346 49.8513 43.9168 51.4284 43.5845C53.1711 43.2224 54.779 42.7084 56.5351 42.7475C59.4213 42.809 62.5403 42.3636 64.9909 40.7456C67.1735 39.3006 68.6701 37.1033 68.9085 34.4589C69.03 33.0782 68.7524 31.678 68.4571 30.3331C68.1153 28.7875 67.0342 26.2906 68.6159 25.0716C69.2025 24.6036 68.8847 23.6334 68.078 23.8062Z" fill="#8FB8DF"/>
<path d="M59.2676 131.573C61.6265 132.003 64.0614 131.593 66.1498 130.416C67.9499 129.391 71.3785 125.556 73.5841 127.596C74.7541 128.685 76.4154 127.007 75.3278 125.835C74.1125 124.523 72.3656 124.127 70.6308 124.397C68.3309 124.757 66.7491 126.42 64.8302 127.581C63.8693 128.168 62.7821 128.516 61.6593 128.596C60.5365 128.677 59.4107 128.487 58.376 128.044C57.3414 127.601 56.4278 126.916 55.7116 126.048C54.9954 125.179 54.4975 124.152 54.2593 123.052C53.7579 120.681 54.8782 118.617 55.4506 116.397C56.0004 114.294 55.7624 111.976 54.3514 110.258C51.6642 106.973 47.0767 107.913 43.5941 106.179C41.5701 105.149 39.8548 103.601 38.6223 101.693C38.0003 100.722 37.5009 99.6784 37.1355 98.5852C36.9613 98.0699 36.8203 97.5439 36.7135 97.0104C36.5964 96.4383 36.2094 95.3854 36.2019 94.885C36.1963 94.554 35.6618 94.4478 35.6009 94.8003C35.4249 95.8161 35.0421 96.3704 35.0679 97.4514C35.083 98.3933 35.2068 99.3304 35.4367 100.244C35.9651 102.232 36.9019 104.088 38.1874 105.694C39.4394 107.259 41.0139 108.534 42.8038 109.434C44.7526 110.408 46.8342 110.664 48.906 111.247C49.8121 111.5 50.7995 111.799 51.4263 112.56C52.1217 113.429 51.9684 114.583 51.8878 115.631C51.6948 117.999 50.8796 120.285 51.1496 122.696C51.602 127.082 54.873 130.792 59.2676 131.573Z" fill="#8FB8DF"/>
<path d="M79.6132 16.234C80.9006 16.048 82.1783 16.4864 83.4383 16.1849C84.227 15.9988 84.3392 15.0688 83.8821 14.5227C82.7804 13.2168 80.6666 13.3133 79.1417 13.6244C78.3272 13.7739 77.5549 14.0981 76.8777 14.5746C76.2005 15.0512 75.6347 15.6688 75.219 16.385C74.9721 16.8125 75.3991 17.4752 75.9048 17.2855C77.0969 16.795 78.3411 16.4423 79.6132 16.234Z" fill="#8FB8DF"/>
<path d="M61.9703 97.6912C62.0116 92.3419 60.7832 88.4858 57.5826 84.2293C56.0059 82.1218 53.5722 80.768 51.9791 78.842C50.386 76.916 48.7375 78.5468 49.9635 80.3977C51.3407 82.4755 53.3035 82.7194 54.7753 84.7321C57.9164 89.0226 59.1935 92.2513 59.7691 97.9738C59.904 99.246 61.9621 98.915 61.9703 97.6912Z" fill="#8FB8DF"/>
<path d="M61.4245 107.454C61.9902 107.353 61.834 106.621 61.4256 106.459C59.3498 105.592 57.139 105.002 55.1323 103.96C53.125 102.925 51.3161 101.544 49.7887 99.8806C46.2042 95.8578 44.2639 90.6339 44.3532 85.2465C44.3702 84.042 42.4295 83.7055 42.2066 84.9507C41.2 90.555 44.2168 97.1739 47.9198 101.39C51.11 105.027 56.4472 108.328 61.4245 107.454Z" fill="#8FB8DF"/>
<path d="M58.6045 116.126C59.3855 115.884 59.6577 114.85 60.7125 114.025C62.1201 112.925 63.4994 112.515 65.1485 111.98C65.5343 111.855 65.239 110.969 64.0014 110.841C62.2954 110.463 60.0439 110.774 58.7253 111.828C57.7469 112.615 56.6286 114.349 57.5083 115.65C57.7507 116.015 57.9971 116.314 58.6045 116.126Z" fill="#8FB8DF"/>
<path d="M120.861 115.321C121.231 115.016 122.803 113.286 122.787 108.357C122.772 104.082 121.367 100.754 119.931 99.2373C119.199 98.4612 117.894 99.2699 118.149 100.275C120.484 109.408 119.806 110.009 118.735 115.059C118.516 116.105 120.402 116.13 120.861 115.321Z" fill="#8FB8DF"/>
<path d="M47.8011 88.7155C48.1367 92.7603 49.6526 97.0417 52.6992 99.8468C54.9768 101.94 58.9382 103.748 61.8961 102.081C62.1696 101.928 62.144 101.415 61.8019 101.365C58.6989 100.899 56.0585 100.392 53.7517 98.0288C51.2106 95.4243 50.3503 91.9033 49.5137 88.4843C49.2882 87.5617 47.7216 87.7176 47.8011 88.7155Z" fill="#8FB8DF"/>
<path d="M128.767 37.4488C127.663 37.9433 127.705 39.8115 128.775 40.3126C130.015 40.8947 131.212 40.867 132.532 41.1132C133.763 41.3614 134.939 41.8283 136.006 42.4918C137.103 43.1401 138.146 43.8759 139.125 44.6919C140.098 45.5156 140.786 46.5888 141.669 47.5089C141.709 47.5469 141.758 47.5725 141.812 47.5827C141.866 47.5929 141.922 47.5873 141.972 47.5664C142.023 47.5455 142.067 47.5104 142.098 47.4652C142.129 47.42 142.146 47.3668 142.148 47.312C142.201 44.464 140.059 41.366 137.856 39.7661C135.436 38.0039 131.728 36.1169 128.767 37.4488Z" fill="#8FB8DF"/>
<path d="M45.4229 66.0293C47.3941 66.7227 47.844 67.1876 48.9804 67.6385C50.1168 68.0894 50.6066 66.3968 49.7619 65.7666C46.8418 63.6892 43.2368 62.8095 39.6881 63.3083C38.4935 63.4766 36.8884 63.9067 37.8172 65.2553C38.4674 66.1039 41.6669 64.7045 45.4229 66.0293Z" fill="#8FB8DF"/>
<path d="M65.6598 108.686C68.4306 101.182 66.7887 92.8823 63.6043 85.665C61.802 81.7181 59.5002 78.0191 56.7554 74.6588C54.001 71.2043 52.0885 72.2408 54.5192 75.5254C56.9498 78.81 59.3035 82.3068 61.078 86.0563C64.3398 92.9421 65.9116 100.696 63.3604 108.063C62.8572 109.517 65.1333 110.107 65.6598 108.686Z" fill="#8FB8DF"/>
<path d="M44.866 82.0377C46.2642 84.4098 49.751 85.1345 51.0737 87.5486C51.7813 88.8408 52.474 90.1443 53.1086 91.4741C53.7432 92.804 54.1866 94.2429 55.0691 95.4051C55.5229 96.0064 56.701 95.9112 56.6472 94.9823C56.5022 92.4044 54.8752 89.7177 53.7429 87.4478C52.5033 84.9933 48.4016 83.3492 47.0043 80.9804C45.6069 78.6116 46.6414 77.4815 45.627 74.9234C44.441 71.9269 42.7366 73.7534 43.4375 74.845C44.9411 77.1383 43.4772 79.6738 44.866 82.0377Z" fill="#8FB8DF"/>
<path d="M140.826 59.8969C139.837 60.0245 139.188 60.1912 138.173 60.0296C137.792 59.962 137.403 59.96 137.022 60.0236C135.352 60.053 133.758 60.7274 132.574 61.9055C130.082 64.4998 129.694 68.395 129.873 71.8131C130.07 75.5952 130.923 79.4398 130.176 83.2106C129.43 86.9814 127.539 90.4844 124.542 92.9211C123.687 93.6164 124.824 95.0936 125.738 94.4583C131.281 90.584 133.899 84.9238 133.512 78.2039C133.31 74.687 132.234 68.0398 134.103 64.2247C135.349 63.2078 137.091 63.2361 138.878 62.9452C140.072 62.7626 140.961 62.2895 141.483 61.1629C141.511 61.1004 141.522 61.0321 141.515 60.9643C141.509 60.8965 141.486 60.8313 141.448 60.7748C141.573 60.3908 141.332 59.83 140.826 59.8969Z" fill="#8FB8DF"/>
<path d="M81.9524 28.1881C81.5477 29.9555 81.6084 31.7464 81.581 33.5463C81.5593 35.0702 81.8302 42.5694 82.7613 42.2946C84.2546 42.1619 83.5592 36.6125 83.5541 34.8537C83.5464 32.127 83.9299 30.3617 83.5516 28.2078C83.4125 27.3921 82.1325 27.417 81.9524 28.1881Z" fill="#8FB8DF"/>
<path d="M83.1944 23.2936C83.1911 23.0334 83.0861 22.7848 82.9018 22.6011C82.7174 22.4174 82.4684 22.3133 82.2082 22.311C80.1405 22.1747 78.9402 25.6804 78.7306 27.3124C78.5855 28.3225 78.7361 29.3529 79.1641 30.2792C79.2017 30.3522 79.5463 31.0984 79.799 30.8681C80.1808 30.5127 80.1038 30.0093 80.1886 29.5167C80.3255 28.6943 80.5439 27.8875 80.8408 27.1084C81.1284 26.3557 81.5565 25.6645 82.1022 25.0717C82.7156 24.4339 83.1089 24.202 83.1944 23.2936Z" fill="#8FB8DF"/>
<path d="M137.138 87.811C139.41 87.202 138.468 83.6705 136.192 84.2804C133.915 84.8903 134.861 88.4209 137.138 87.811Z" fill="#8FB8DF"/>
<path d="M118.906 21.2542C118.467 20.4139 117.172 20.6525 116.933 21.5152C116.248 23.9901 115.668 27.5828 118.772 28.634C119.965 29.0374 121.325 28.7884 122.49 28.3606C125.194 27.3904 124.086 25.3453 122.909 25.6352C122.103 25.8512 121.114 26.2464 120.299 26.0094C119.374 25.7404 119.404 24.7745 119.391 23.9686C119.416 22.9858 119.384 22.1345 118.906 21.2542Z" fill="#8FB8DF"/>
<path d="M76.8289 47.0783C76.4494 45.662 74.3647 45.9748 74.3106 47.3917C74.6004 48.6817 75.3072 49.8402 76.3217 50.6882C77.3362 51.5362 78.6017 52.0263 79.9227 52.0827C81.3881 52.1563 84.0655 51.2364 85.9723 49.3557C86.9583 48.3687 88.2798 48.7953 89.22 48.406C90.0568 48.0625 89.8014 47.1226 88.8432 46.9998C85.373 46.5527 83.6673 49.0084 81.4777 49.7794C78.9464 50.6781 77.4388 49.3545 76.8289 47.0783Z" fill="#8FB8DF"/>
<path d="M143.826 58.2326C145.666 54.7144 142.142 50.8444 140.045 48.2511C137.641 45.2811 133.897 43.0314 130.096 42.5102C128.97 42.353 128.694 44.0208 129.552 44.5246C132.138 46.0833 134.634 47.5216 136.932 49.5009C139.073 51.3415 141.896 53.9031 140.955 57.0285C140.436 58.7072 142.99 59.8083 143.826 58.2326Z" fill="#8FB8DF"/>
<path d="M41.8326 78.6513C42.5571 77.4705 41.1001 74.6767 39.43 76.429C36.9134 79.055 36.8177 81.8274 36.7774 83.4574C36.7179 86.3647 36.7292 89.2531 37.4158 92.0581C38.1107 94.8431 39.2768 97.4887 40.8636 99.8807C41.6127 101.017 45.1371 105.241 46.6647 104.832C47.3175 104.679 47.8879 104.002 47.536 103.673C45.9297 102.17 41.6359 99.0268 39.6521 90.436C38.9586 85.6089 39.6918 82.1271 41.8326 78.6513Z" fill="#8FB8DF"/>
<path d="M96.5414 129.746C99.0062 127.709 101.977 124.404 102.022 121.266C102.02 121.139 101.989 121.014 101.932 120.901C101.876 120.787 101.794 120.688 101.693 120.611C101.592 120.534 101.475 120.48 101.351 120.454C101.227 120.429 101.098 120.431 100.975 120.462C98.9889 120.994 98.8894 122.579 95.1478 126.838C93.9395 128.359 92.336 129.519 90.5127 130.191C88.5464 130.945 87.0962 130.267 86.2386 131.437C85.7675 132.08 85.8212 132.955 87.2566 133.159C91.0386 133.664 94.513 131.443 96.5414 129.746Z" fill="#8FB8DF"/>
<path d="M113.579 146.183C113.364 143.562 112.986 140.957 112.447 138.383C111.989 136.214 111.444 133.953 109.365 132.801C108.322 132.227 106.621 133.218 107.135 134.515C108.637 138.301 109.393 142.107 109.894 146.162C110.194 148.441 113.783 148.575 113.579 146.183Z" fill="#8FB8DF"/>
<path d="M107.315 116.765C106.761 115.601 105.182 115.847 105.181 117.543C104.91 122.357 104.357 124.934 102.956 126.936C101.361 129.21 98.5115 131.593 95.3838 133.031C94.3864 133.49 92.6611 133.93 93.1493 135.212C93.5515 136.268 96.3556 135.875 99.1469 134.328C105.812 130.674 110.641 123.756 107.315 116.765Z" fill="#8FB8DF"/>
<path d="M80.7233 156.316C81.6375 155.182 81.1673 153.71 80.6304 152.503C79.7987 150.755 79.0983 148.948 78.535 147.097C77.9848 145.205 77.793 143.226 77.9694 141.263C78.1549 139.5 78.6248 137.734 78.6856 135.965C78.7742 133.328 77.263 130.332 74.4972 129.775C70.4543 128.957 67.7422 133.862 63.8643 134.146C61.9631 134.294 61.8954 137.062 63.8427 137.141C65.5704 137.23 67.2935 136.893 68.8597 136.158C70.4386 135.373 71.6194 133.832 73.2301 133.18C75.1901 132.401 75.8015 134.468 75.6552 136.039C75.4912 137.814 74.4857 139.309 74.1032 141.038C73.363 144.453 74.1873 147.799 75.5276 150.953C76.1615 152.442 76.8739 154.116 77.9674 155.338C78.3808 155.802 80.0075 157.205 80.7233 156.316Z" fill="#8FB8DF"/>
<path d="M20.4761 107.549C20.2549 107.497 20.0292 107.468 19.8022 107.462C19.6494 107.457 19.4965 107.471 19.3473 107.504C19.1904 107.534 19.0436 107.604 18.9205 107.705C18.8275 107.763 18.8403 107.77 18.9633 107.73C18.7359 107.794 18.5395 107.938 18.4109 108.136C18.2824 108.334 18.2305 108.573 18.265 108.806C18.2529 108.907 18.2583 109.01 18.2811 109.109C18.3312 109.431 18.4743 109.73 18.6927 109.971C18.7642 110.065 18.8412 110.154 18.9233 110.238C19.0978 110.411 19.3097 110.542 19.5427 110.621C19.7757 110.699 20.0235 110.723 20.2672 110.69C20.5108 110.658 20.7438 110.57 20.948 110.433C21.1523 110.296 21.3224 110.114 21.4453 109.901C21.5682 109.688 21.6406 109.45 21.6569 109.205C21.6733 108.96 21.633 108.714 21.5394 108.487C21.4458 108.259 21.3012 108.057 21.1168 107.894C20.9325 107.731 20.7133 107.613 20.4761 107.549Z" fill="#8FB8DF"/>
<path d="M18.6636 102.782C17.3005 101.887 15.7606 101.298 14.1489 101.053C13.2935 100.95 13.1194 102.026 13.5286 102.542C14.4545 103.718 15.8735 104.657 17.204 105.32C18.884 106.167 20.2785 103.791 18.6636 102.782Z" fill="#8FB8DF"/>
<path d="M56.5804 136.145C57.9401 135.824 58.4203 134.163 56.9865 133.506C56.0854 133.097 55.1026 133.071 54.1363 133.012C53.0742 132.649 52.185 131.894 51.3304 131.078C50.6801 130.498 50.0971 129.847 49.5922 129.137C49.1333 128.436 48.9214 127.618 48.4606 126.91C48.3851 126.791 48.2805 126.694 48.1568 126.627C48.0331 126.56 47.8944 126.526 47.7537 126.527C47.613 126.529 47.475 126.566 47.3528 126.636C47.2305 126.705 47.1281 126.805 47.0551 126.925C45.4819 128.999 48.1721 131.809 49.5667 133.21C50.2856 133.953 51.1114 134.584 52.0168 135.083C53.3591 136.046 54.9399 136.537 56.5804 136.145Z" fill="#8FB8DF"/>
<path d="M142.927 71.1986C140.695 71.0414 139.23 72.2364 138.151 74.1302C137.151 75.8763 137.16 77.9593 136.23 79.683C136.113 79.8959 136.053 80.1352 136.055 80.3781C136.057 80.621 136.122 80.8592 136.243 81.07C136.363 81.2807 136.536 81.4569 136.744 81.5817C136.953 81.7064 137.19 81.7756 137.433 81.7824C139.632 81.8978 140.542 79.7892 140.801 77.9667C141.061 76.1441 141.643 74.0258 143.442 73.1207C144.413 72.6293 143.87 71.264 142.927 71.1986Z" fill="#8FB8DF"/>
<path d="M142.45 76.907C142.054 80.5838 140.989 84.0678 140.085 87.6244C139.917 88.3487 140.905 89.0672 141.443 88.4061C144.058 85.2009 144.91 81.015 144.463 76.9205C144.447 76.6653 144.335 76.4255 144.15 76.2496C143.964 76.0738 143.719 75.975 143.463 75.9733C143.207 75.9716 142.96 76.067 142.772 76.2404C142.584 76.4137 142.469 76.6519 142.45 76.907Z" fill="#8FB8DF"/>
<path d="M131.057 92.6168C130.938 92.6913 130.84 92.795 130.773 92.9181C130.705 93.0412 130.671 93.1796 130.672 93.3199C130.674 93.4602 130.711 93.5979 130.781 93.7197C130.85 93.8414 130.95 93.9433 131.07 94.0155C132.057 94.6908 133.287 94.925 134.3 95.5896C135.313 96.2543 135.982 97.3075 136.863 98.1378C137.523 98.7559 138.756 98.3533 138.724 97.3681C138.671 95.4848 137.393 94.1539 135.873 93.1768C134.55 92.3387 132.483 91.707 131.057 92.6168Z" fill="#8FB8DF"/>
<path d="M138.492 90.3205C137.968 89.7135 137.258 89.2974 136.473 89.1376C136.116 89.0558 135.755 88.9993 135.39 88.9686C135.218 88.9599 135.046 88.9674 134.876 88.9908C134.619 89.0232 134.369 89.0904 134.13 89.1905C134.009 89.2262 133.899 89.2924 133.811 89.3828C133.723 89.4732 133.66 89.5847 133.627 89.7067C133.594 89.8286 133.594 89.9569 133.625 90.0793C133.656 90.2016 133.718 90.3139 133.805 90.4053L133.83 90.4311C134.13 90.9291 134.642 91.1821 135.169 91.4603C135.393 91.579 135.61 91.7117 135.817 91.8576C135.936 91.9358 136.036 92.0401 136.109 92.1626C136.219 92.347 136.366 92.506 136.542 92.6292C136.718 92.7524 136.918 92.837 137.129 92.8774C137.34 92.9179 137.557 92.9132 137.766 92.8638C137.975 92.8144 138.171 92.7214 138.341 92.5908C139.108 91.9987 139.064 91.0273 138.492 90.3205Z" fill="#8FB8DF"/>
<path d="M144.088 60.9557C142.627 64.1516 139.1 63.774 136.904 66.0864C135.127 67.9539 135.034 70.8415 136.452 72.9516C136.524 73.0661 136.631 73.1545 136.756 73.204C136.882 73.2534 137.02 73.2612 137.151 73.2262C137.281 73.1912 137.397 73.1153 137.482 73.0096C137.566 72.9039 137.614 72.774 137.619 72.639C137.677 71.2644 138.294 70.3581 139.22 69.4017C140.146 68.4453 141.487 68.2195 142.618 67.49C144.568 66.2268 145.763 64.1175 146.448 61.9423C146.88 60.5725 144.72 59.6045 144.088 60.9557Z" fill="#8FB8DF"/>
<path d="M126.7 106.455C126.346 105.809 125.344 106.399 125.091 107.548C124.644 109.724 125.71 111.878 124.369 115.721C123.906 116.913 123.047 117.909 121.936 118.542C121.409 118.878 120.694 119.07 120.26 119.54C119.998 119.805 119.831 120.148 119.784 120.518C119.738 120.887 119.816 121.261 120.004 121.582C120.145 121.837 120.352 122.049 120.604 122.197C120.855 122.345 121.141 122.422 121.433 122.421C128.595 122.038 128.6 109.918 126.7 106.455Z" fill="#8FB8DF"/>
<path d="M118.993 124.948C116.193 127.621 116.051 126.755 114.321 128.701C113.263 129.891 113.625 131.095 114.193 132.486C115.021 134.381 115.724 136.327 116.297 138.313C116.898 140.54 117.207 142.836 117.216 145.143C117.214 146.795 119.907 147.093 120.15 145.409C120.858 140.376 117.26 132.937 117.566 130.708C118.025 128.713 122.742 127.944 121.563 124.49C120.873 123.342 119.531 124.16 118.993 124.948Z" fill="#8FB8DF"/>
<path d="M133.314 106.267C132.153 102.902 126.994 99.5139 123.796 102.496C122.997 103.238 123.679 104.418 124.627 104.503C126.811 104.699 129.106 104.724 130.087 107.132C130.34 107.751 130.913 108.461 131.688 108.372C131.986 108.345 132.277 108.267 132.548 108.142C132.863 107.956 133.108 107.672 133.247 107.333C133.385 106.995 133.409 106.62 133.314 106.267Z" fill="#8FB8DF"/>
<path d="M123.031 96.7199C120.838 97.5859 121.679 101.116 124.003 100.348C126.061 99.6667 128.105 99.0794 130.289 99.4339C132.628 99.812 133.307 101.809 134.984 103.117C135.108 103.235 135.267 103.31 135.437 103.331C135.608 103.351 135.78 103.316 135.928 103.23C136.077 103.144 136.194 103.013 136.261 102.855C136.328 102.697 136.342 102.522 136.302 102.355C135.825 100.079 133.67 97.3209 131.681 96.1188C129.006 94.5117 125.666 95.6814 123.031 96.7199Z" fill="#8FB8DF"/>
<path d="M31.9658 81.3634C32.065 82.8801 32.2111 85.2734 33.3812 84.9598C34.2647 84.7231 34.2268 80.6564 34.489 79.7332C35.3543 76.6497 35.6182 76.1778 37.154 73.9917C38.1378 72.5671 39.5667 71.5093 41.2164 70.9841C46.4831 69.2873 48.3462 74.9323 49.4441 75.4549C49.9827 75.7118 51.5666 76.2813 51.6804 74.5883C50.9817 71.0637 46.3726 66.5954 41.1685 67.9862C37.7661 68.8979 35.6859 70.5902 33.9903 73.1914C32.1696 75.9598 31.8619 79.8155 31.9658 81.3634Z" fill="#8FB8DF"/>
<path d="M94.0908 14.6138C93.9601 15.2994 93.4194 17.8947 93.4878 18.6354C93.4887 18.8218 93.5518 19.0025 93.667 19.149C93.7822 19.2956 93.9429 19.3995 94.1238 19.4444C94.3177 19.4076 94.5029 19.3347 94.6698 19.2294C95.7337 18.4926 96.3337 14.3381 96.47 12.8776C96.4955 12.5816 96.5152 12.2908 96.5348 12C96.6435 11.2225 96.6906 10.4377 96.6757 9.65277C96.6324 6.72601 96.1877 4.90433 95.45 3.54064C95.345 3.36983 95.1822 3.24235 94.9912 3.18136C94.8001 3.12036 94.5936 3.12989 94.409 3.20822C94.2244 3.28654 94.074 3.42848 93.9852 3.60824C93.8963 3.78799 93.8749 3.99366 93.9248 4.18788C94.4378 7.249 94.3077 6.61522 94.4506 9.46833C94.4776 10.5376 94.447 11.6075 94.3588 12.6734C94.2797 13.0524 94.1639 14.2256 94.0908 14.6138Z" fill="#8FB8DF"/>
<path d="M87.0575 18.9666C86.6563 24.7665 85.7697 38.6153 85.5669 44.4271C85.5077 46.0946 87.9611 46.0517 88.1195 44.4443C88.6869 38.6576 89.3157 24.7912 89.6864 18.9851C89.8607 16.2638 90.1542 12.1119 90.6444 9.43618C91.8307 7.96899 91.7744 6.99016 92.144 1.8276C91.6995 -0.12788 87.5152 -0.13794 87.3463 1.55179C87.1412 3.05243 86.3904 7.80392 87.6572 9.01136C87.1577 17.776 87.2535 16.1239 87.0575 18.9666Z" fill="#8FB8DF"/>
<path d="M83.926 8.0762C84.353 7.6871 84.37 7.0356 84.3873 6.50688C84.4251 5.88369 84.4004 5.25829 84.3136 4.64002C84.1381 3.62085 82.5903 3.4826 82.1333 4.35321C81.9137 4.79972 81.7962 5.28952 81.7895 5.78707C81.7828 6.28462 81.887 6.77742 82.0944 7.2297C82.3776 7.85497 83.1759 8.74342 83.926 8.0762Z" fill="#8FB8DF"/>
<path d="M104.17 14.0779C103.945 14.7922 103.52 15.2422 103.55 16.0005C103.557 16.2043 103.642 16.3975 103.788 16.5407C103.933 16.6838 104.127 16.7661 104.331 16.7707C104.585 16.7154 104.829 16.6255 105.058 16.5035C106.506 15.6603 108.405 12.4985 108.439 10.4799C108.488 7.6007 107.74 5.72655 106.042 3.53218C105.489 2.8166 103.694 3.30493 104.109 4.28874C105.365 7.23406 105.456 8.42402 105.457 10.1295C105.199 11.9156 104.296 13.6719 104.17 14.0779Z" fill="#8FB8DF"/>
<path d="M98.5066 21.1436C98.6004 21.2961 98.7455 21.41 98.9159 21.4648C99.0863 21.5197 99.2706 21.5119 99.4357 21.4428C99.6008 21.3737 99.7358 21.2478 99.8163 21.088C99.8968 20.9281 99.9175 20.7448 99.8748 20.571C99.5128 18.5862 101.063 16.454 101.789 14.6838C102.561 12.8036 103.315 10.4401 103.107 8.39594C102.731 4.65844 101.319 3.19346 98.5476 0.726696C98.013 0.255538 96.801 0.952543 97.1906 1.61075C98.294 3.42219 100.62 7.85516 99.4031 11.81C98.4739 14.8166 96.3638 18.1505 98.5066 21.1436Z" fill="#8FB8DF"/>
<path d="M83.5042 10.7844C83.7697 10.5614 83.5346 10.2774 83.3515 10.2145C81.8467 9.71052 79.5956 10.1041 77.8944 9.90572L77.9513 9.91577C77.757 9.89194 77.5752 9.86113 77.3883 9.82447C75.7209 9.46891 73.9884 8.37177 73.2941 6.76516C72.9159 5.87981 71.6833 6.55345 71.8284 7.37836C72.6713 12.1293 79.9809 13.7271 83.5042 10.7844Z" fill="#8FB8DF"/>
<path d="M77.3867 9.81494C77.5537 9.85182 77.7227 9.87894 77.8928 9.89619L77.3867 9.81494Z" fill="#8FB8DF"/>
<path d="M79.3304 7.75763C80.1005 7.82597 80.3188 6.86029 79.9058 6.371C79.4928 5.88171 79.2695 5.34518 78.9336 4.86052C78.5347 4.3024 78.2922 3.68067 77.8623 3.1417C77.3145 2.44635 75.9023 2.81392 75.7716 3.7019C75.611 4.82919 76.0221 5.75633 76.7225 6.61678C77.4229 7.47724 78.3127 7.66889 79.3304 7.75763Z" fill="#8FB8DF"/>
<path d="M125.778 34.0713C125.621 34.2384 125.522 34.4516 125.497 34.6793C125.471 34.9069 125.519 35.1368 125.634 35.3349C125.749 35.5329 125.925 35.6885 126.136 35.7786C126.346 35.8687 126.581 35.8885 126.803 35.8349C128.292 35.4974 129.682 34.9913 131.246 35.219C132.472 35.3966 133.791 36.2178 134.982 35.5915C135.113 35.5152 135.221 35.406 135.296 35.2749C135.371 35.1438 135.411 34.9953 135.411 34.8441C135.43 32.8944 132.745 32.2875 131.216 32.1913C129.312 32.0726 127.07 32.5684 125.778 34.0713Z" fill="#8FB8DF"/>
<path d="M88.9031 154.179C90.0874 153.5 90.2223 152.156 89.7264 151.02C88.6572 148.604 87.7805 146.108 87.1044 143.554C86.7646 142.286 86.3476 141.054 85.9919 139.794C85.6362 138.534 85.5087 137.249 85.0462 136.035C84.6918 135.104 83.3107 134.953 83.0104 136.031C82.266 138.649 82.4868 142.009 82.9836 144.658C83.5659 147.654 84.4922 150.572 85.7441 153.356C86.2479 154.507 87.9125 154.744 88.9031 154.179Z" fill="#8FB8DF"/>
<path d="M110.358 14.9885C112.851 15.5783 114.524 15.8491 116.952 16.8033C119.492 17.7962 121.394 20.4563 121.208 23.1625C121.149 23.9807 122.405 24.3271 122.766 23.5834C124.106 20.8138 122.007 16.8656 119.726 15.0841C118.388 14.0269 116.835 13.2753 115.176 12.882C113.516 12.4888 111.791 12.4634 110.121 12.8077C108.801 13.089 109.071 14.6901 110.358 14.9885Z" fill="#8FB8DF"/>
<path d="M87.7395 127.792C88.4489 129.239 89.9717 128.191 89.8531 127.384C89.3863 124.143 88.081 121.081 86.0665 118.5C84.3736 116.228 81.5623 113.924 78.8804 112.817C76.0293 111.619 72.5285 111.92 69.5534 112.512C66.5782 113.103 62.1088 114.268 60.1639 116.748C59.2884 117.864 60.083 119.441 61.5635 119.152C62.9376 118.885 64.1536 118.028 65.4609 117.512C66.795 116.974 68.1665 116.534 69.5645 116.195C72.0326 115.613 74.6635 115.1 77.1518 115.821C79.64 116.542 81.7437 118.769 83.3879 120.656C85.2218 122.778 86.6922 125.189 87.7395 127.792Z" fill="#8FB8DF"/>
<path d="M80.9932 131.527C81.1365 132.844 83.1119 132.932 83.108 131.542C83.0797 125.528 79.5384 118.692 73.1483 118.341C69.8646 118.158 66.6314 119.418 63.9431 121.201C62.7614 121.984 60.5887 124.167 59.072 123.106C57.6993 122.151 58.8722 120.243 58.0962 118.966C57.9856 118.782 57.3711 118.849 57.2388 118.989C55.6325 120.71 56.0705 123.639 57.7144 125.161C60.2709 127.527 63.1873 125.354 65.5385 123.918C68.6065 122.055 71.7575 120.893 75.3158 121.992C78.874 123.092 80.6099 127.871 80.9932 131.527Z" fill="#8FB8DF"/>
<path d="M91.2521 118.803C91.0445 116.18 88.4576 113.769 86.4014 112.353C85.9267 112.025 81.0277 109.402 81.3979 111.526C81.5283 112.282 82.1129 112.548 82.7457 112.914C83.7336 113.442 84.678 114.048 85.5699 114.727C87.239 116.086 88.0388 118.073 89.5558 119.499C90.1357 120.045 91.3222 119.698 91.2521 118.803Z" fill="#8FB8DF"/>
<path d="M111.921 10.7353C112.205 10.6594 112.498 10.6062 112.771 10.5076C113.13 10.3695 113.468 10.1817 113.775 9.9496C114.031 9.79776 114.23 9.56629 114.343 9.29049C114.455 9.01469 114.474 8.7097 114.397 8.42202C114.32 8.13435 114.151 7.87977 113.916 7.69713C113.681 7.51448 113.392 7.41378 113.094 7.41039C112.714 7.37675 112.331 7.3943 111.955 7.46258C111.672 7.53848 111.395 7.63798 111.115 7.72737C110.717 7.83424 110.377 8.0952 110.17 8.45282C109.964 8.81045 109.908 9.23544 110.014 9.63432C110.121 10.0332 110.382 10.3733 110.74 10.5798C111.098 10.7862 111.523 10.8422 111.921 10.7353Z" fill="#8FB8DF"/>
<path d="M66.8909 9.67433C67.6918 11.0717 71.7736 22.906 73.1853 27.3383C75.2677 33.8823 76.9788 41.0643 79.5451 47.4316C79.9782 48.5083 81.7007 48.8129 81.4861 47.6344C80.261 40.9041 77.5256 33.2448 75.4649 26.7275C73.572 20.6749 71.5072 14.7225 69.4374 8.72453C69.8049 7.61408 70.1334 7.90918 68.0366 1.91842C67.5229 0.527249 67.5269 -0.294244 65.1657 0.551658C63.0081 1.21291 62.7734 1.8613 63.2698 3.2282C64.4997 6.6177 65.5422 9.59116 66.8909 9.67433Z" fill="#8FB8DF"/>
<path d="M124.065 31.9679C125.386 31.7839 126.571 31.1915 127.901 31.0557C129.105 30.9355 130.319 30.9608 131.518 30.8094C132.248 30.7149 132.547 29.5506 131.971 29.1013C129.379 27.0888 124.712 27.6382 122.811 30.3376C122.18 31.2188 123.222 32.0854 124.065 31.9679Z" fill="#8FB8DF"/>
<path d="M22.6591 41.8853C22.6772 41.9465 22.7144 42.0002 22.7654 42.0385C22.8164 42.0768 22.8783 42.0977 22.9421 42.0981C23.0058 42.0984 23.068 42.0782 23.1194 42.0405C23.1708 42.0027 23.2087 41.9494 23.2274 41.8885C23.7291 39.9975 23.9415 38.578 22.9231 36.7872C22.0818 35.3067 20.7579 33.7242 18.9251 33.7093C18.4034 33.7045 17.8322 34.2841 18.0557 34.835C18.5621 36.0908 19.5939 36.9203 20.3358 38.0298C21.108 39.1855 22.1817 40.5892 22.6591 41.8853Z" fill="#8FB8DF"/>
<path d="M19.9967 51.9737C22.9483 47.6662 21.7725 39.1372 16.7702 36.7622C16.2153 36.4988 15.3743 36.9483 15.6156 37.6462C16.4238 39.8801 17.6761 41.9372 18.2732 44.2601C18.9334 46.8048 18.7618 49.0374 18.69 51.6155C18.6722 52.372 19.6223 52.5186 19.9967 51.9737Z" fill="#8FB8DF"/>
<path d="M26.262 71.3943C31.6791 71.5945 34.035 68.2742 34.6402 67.2012C34.6876 67.1174 34.7153 67.0239 34.7212 66.9277C34.7271 66.8316 34.7111 66.7354 34.6744 66.6463C34.6377 66.5573 34.5812 66.4778 34.5092 66.4138C34.4372 66.3498 34.3516 66.303 34.2589 66.277C33.128 66.1029 32.7178 66.6899 31.8846 67.3975C31.5096 67.7112 29.1362 69.7386 25.121 68.8086C22.3861 68.175 19.9914 66.5318 18.4163 64.208C14.6364 58.6393 16.1381 52.4686 16.7842 46.2741C16.8734 45.4334 15.5284 45.0674 15.1814 45.8362C12.1682 52.5167 12.6326 61.5471 17.5961 67.2034C18.673 68.4624 19.9989 69.4847 21.4904 70.206C22.9818 70.9272 24.6065 71.3318 26.262 71.3943Z" fill="#8FB8DF"/>
<path d="M15.8806 96.7116C13.3456 95.9355 10.9305 94.8117 8.70426 93.3722C8.66624 93.3516 8.62306 93.3425 8.57995 93.3459C8.53685 93.3494 8.49567 93.3653 8.46142 93.3917C8.42717 93.4181 8.40131 93.4538 8.38699 93.4946C8.37267 93.5354 8.37049 93.5795 8.38073 93.6215C8.89746 95.0914 9.51016 96.3259 10.7029 97.4051C11.9612 98.5004 13.481 99.2521 15.1152 99.5876C16.9794 99.9628 17.7255 97.2979 15.8806 96.7116Z" fill="#8FB8DF"/>
<path d="M14.3002 72.8147C14.5086 73.0454 14.732 73.262 14.9691 73.4631C18.4347 76.4017 26.7158 78.2669 30.289 74.7144C31.176 73.8298 30.249 72.4879 29.1221 72.7067C27.9953 72.9255 26.9909 73.426 25.8667 73.6007C24.5863 73.7746 23.2858 73.7347 22.0184 73.4825C20.2676 73.1529 18.3523 72.6144 16.8976 71.5151C16.1392 70.6675 15.4415 69.7675 14.8097 68.8218C13.2192 66.4469 12.4274 63.9773 11.5951 61.3704C11.5752 61.0396 11.562 60.707 11.5564 60.376C11.5501 59.597 11.6937 58.7706 11.4996 58.0058C10.9223 55.7571 8.35825 56.3176 8.24727 58.4797C8.08891 61.4497 9.03313 64.9735 10.2291 67.6565C11.106 69.7057 12.5108 71.4857 14.3002 72.8147Z" fill="#8FB8DF"/>
<path d="M15.2424 93.6666C16.7082 93.8629 17.2593 91.5359 15.9914 90.9179C13.7325 89.8389 11.5751 89.152 9.77043 87.2863C7.96578 85.4206 7.28232 82.7485 5.59341 80.8157C5.57998 80.802 5.56316 80.7921 5.54465 80.787C5.52615 80.782 5.50664 80.7819 5.48811 80.7869C5.46959 80.7918 5.45271 80.8016 5.43922 80.8153C5.42572 80.8289 5.41609 80.8459 5.41131 80.8644C4.82882 83.6408 6.47691 86.9725 8.13862 89.1006C9.87555 91.3205 12.3754 93.2855 15.2424 93.6666Z" fill="#8FB8DF"/>
<path d="M18.8286 81.7249C20.7653 82.4782 22.9321 82.971 25.0159 82.803C26.7419 82.6621 29.3793 82.0783 29.7329 80.0934C29.8553 79.4172 29.4336 78.6122 28.6247 78.6555C27.8159 78.6987 27.3589 79.0163 26.6457 79.3628C25.7675 79.7445 24.8124 79.9163 23.8563 79.8645C22.2176 79.809 20.5987 79.4885 19.0625 78.9154C15.9741 77.8563 13.0785 76.1817 10.9464 73.6737C10.8617 73.5735 10.7224 73.7012 10.7725 73.807C12.4805 77.2816 15.1487 80.293 18.8286 81.7249Z" fill="#8FB8DF"/>
<path d="M23.4199 33.4195C23.7261 33.6989 24.0432 33.9248 24.3474 34.183C24.6515 34.4413 25.0127 34.5216 25.2604 34.7444C25.3704 34.8425 25.5086 34.9033 25.6553 34.9181C25.8019 34.9328 25.9495 34.9008 26.0769 34.8265C26.2042 34.7523 26.3048 34.6397 26.3642 34.5048C26.4236 34.3698 26.4388 34.2196 26.4076 34.0755C26.3249 33.5917 26.4079 33.2406 26.1897 32.7497C25.9676 32.2337 25.6573 31.7604 25.2727 31.3509C24.5029 30.5 23.5301 29.8579 22.4451 29.4846C20.8492 29.0051 19.9855 31.2713 21.3427 32.1148C22.0692 32.493 22.7639 32.9293 23.4199 33.4195Z" fill="#8FB8DF"/>
<path d="M19.7338 88.1652C22.9157 88.4402 28.8607 86.4425 30.4169 90.4023C31.2201 92.4424 34.1345 91.2603 33.202 89.2368C31.9946 86.6328 28.6895 85.6281 26.036 85.5043C24.1377 85.4202 22.2576 85.7143 20.3765 85.3437C18.7931 84.9902 17.2818 84.3683 15.9081 83.5051C13.1262 81.8362 11.0327 79.1624 9.74579 76.2074C8.95487 74.2779 8.35204 72.2765 7.94567 70.2312C7.52127 68.3101 7.57029 66.2404 6.99011 64.3719C6.97018 64.3025 6.93036 64.2404 6.87557 64.1933C6.82077 64.1462 6.7534 64.1162 6.68175 64.107C6.6101 64.0978 6.53732 64.1097 6.47238 64.1413C6.40743 64.173 6.35316 64.2229 6.31627 64.285C4.7908 67.3864 5.07893 72.1305 5.9576 75.3828C6.86512 78.8458 8.75596 81.972 11.4017 84.3837C13.7628 86.505 16.5417 87.8928 19.7338 88.1652Z" fill="#8FB8DF"/>
<path d="M31.6188 26.4076C32.1223 26.2682 32.5522 25.9393 32.8185 25.4898C33.0779 25.0401 33.1481 24.5059 33.0137 24.0044C32.8794 23.503 32.5514 23.0755 32.102 22.8157C31.6523 22.5564 31.1181 22.4861 30.6167 22.6205C30.1152 22.7549 29.6877 23.0828 29.4279 23.5322C29.1696 23.9866 29.1007 24.5245 29.2363 25.0292C29.3021 25.2798 29.4168 25.5148 29.5737 25.7209C29.7306 25.9269 29.9267 26.0999 30.1508 26.2299C30.6005 26.4711 31.1245 26.5345 31.6188 26.4076Z" fill="#8FB8DF"/>
<path d="M58.4105 9.04009C58.6375 9.40482 58.9898 9.67413 59.4013 9.79742C59.7551 9.88453 60.1274 9.85571 60.4636 9.7152C60.8002 9.58671 61.0818 9.34517 61.2599 9.03195L61.4191 8.62788C61.4982 8.34523 61.4993 8.04645 61.4224 7.76321C61.4224 7.76321 61.4133 7.72949 61.4079 7.70926C61.3523 7.49765 61.255 7.29929 61.1216 7.12586C60.9883 6.95242 60.8215 6.80741 60.6313 6.69935C60.4111 6.56935 60.1628 6.4942 59.9075 6.48022C59.6521 6.46624 59.3972 6.51385 59.1641 6.61903C58.963 6.69783 58.7802 6.81708 58.627 6.9694C58.4739 7.12172 58.3536 7.30386 58.2737 7.50455C58.1738 7.69779 58.1258 7.91364 58.1344 8.131C58.1315 8.43089 58.2106 8.72587 58.363 8.98415L58.4105 9.04009Z" fill="#8FB8DF"/>
<path d="M52.7279 10.9071C52.8058 10.9549 52.8859 10.984 52.9662 11.0276C53.0466 11.0711 53.0752 11.1104 53.1017 11.1286L53.1672 11.1978L53.2809 11.3119L53.2927 11.3557C53.3456 11.5511 53.4272 11.7375 53.5349 11.9089C54.2925 13.1985 56.3222 12.6402 56.3472 11.1553C56.3619 10.1177 55.4891 9.12632 54.5328 8.80791C54.2011 8.69427 53.8507 8.64582 53.5006 8.66522C53.2242 8.67787 52.9539 8.75031 52.7082 8.87756C52.5427 8.9892 52.3923 9.12181 52.2609 9.27209C51.7672 9.72244 51.9901 10.3928 52.4596 10.7151C52.5334 10.7986 52.6251 10.8642 52.7279 10.9071Z" fill="#8FB8DF"/>
<path d="M56.0573 14.1865C53.251 15.8529 50.5201 19.2844 51.8317 22.6954C51.8796 22.8074 51.9622 22.9011 52.0673 22.9627C52.1725 23.0242 52.2946 23.0504 52.4157 23.0374C52.5369 23.0243 52.6506 22.9728 52.7402 22.8902C52.8299 22.8077 52.8907 22.6986 52.9136 22.579C53.4035 20.037 54.8561 18.2419 57.1185 17.014C58.8061 16.0956 60.0947 15.3745 62.1082 15.5108C63.418 15.5972 64.4798 14.785 64.0408 13.6593C63.0088 11.0083 58.0378 13.0125 56.0573 14.1865Z" fill="#8FB8DF"/>
<path d="M25.8638 29.7456C25.8638 29.7456 25.8638 29.7456 25.887 29.7647C26.0305 29.9103 26.1869 30.0426 26.3543 30.1599C26.5999 30.3187 26.8746 30.4269 27.1625 30.4783C27.4797 30.5577 27.8153 30.5114 28.0991 30.3491C28.383 30.1868 28.5932 29.9211 28.6857 29.6075C28.9335 28.6845 28.5246 27.8869 27.8535 27.2571C27.5784 26.9915 27.2673 26.7659 26.9293 26.5868C26.6477 26.4243 26.3291 26.3369 26.004 26.3329C25.6789 26.3289 25.3583 26.4084 25.0727 26.5638C24.7843 26.7323 24.5593 26.9909 24.4325 27.2999C24.3056 27.6089 24.2839 27.951 24.3707 28.2735C24.5068 28.7381 24.8143 29.1337 25.231 29.3802C25.439 29.5088 25.6583 29.6127 25.8638 29.7456Z" fill="#8FB8DF"/>
<path d="M59.9435 18.3703C58.1477 19.3128 56.717 20.8267 55.8774 22.6728C55.4851 23.5643 55.2513 24.5174 55.1863 25.4892C55.1263 26.2498 55.3136 27.5694 54.8003 28.2165C54.1984 28.9778 52.8226 28.9959 51.9873 29.3317C51.2342 29.5778 50.6052 30.105 50.2312 30.8034C50.1452 30.9506 50.116 31.1242 50.1492 31.2915C50.1823 31.4587 50.2756 31.6081 50.4113 31.7113C50.547 31.8145 50.7158 31.8646 50.8858 31.8519C51.0558 31.8393 51.2154 31.7648 51.3343 31.6427C52.1059 30.8938 53.4127 31.3062 54.3573 31.2302C55.1001 31.1939 55.8131 30.927 56.3972 30.4668C57.6412 29.4576 57.848 27.9095 57.9924 26.4251C58.1753 24.41 58.8029 22.7058 60.4882 21.4554C62.4421 20.0067 64.5076 20.4182 66.6526 19.7639C67.9248 19.3725 67.7704 17.7983 66.6585 17.3444C64.6698 16.5184 61.7564 17.4074 59.9435 18.3703Z" fill="#8FB8DF"/>
<path d="M36.8809 21.518C37.7273 21.2912 42.367 17.7132 45.7775 18.9896C46.5821 19.2945 47.2463 20.2225 48.1835 20.1051C48.3851 20.0809 48.5792 20.014 48.7528 19.9087C48.9264 19.8034 49.0755 19.6623 49.1901 19.4947C49.3047 19.3271 49.3821 19.1369 49.4172 18.9369C49.4523 18.7369 49.4442 18.5318 49.3935 18.3352C48.9695 16.5369 46.6309 15.6057 45.0272 15.3126C42.3776 14.866 37.1591 17.916 36.3666 18.5331C35.6275 19.0926 34.5289 20.1857 35.1278 21.0047C35.7267 21.8237 36.1118 21.7096 36.8809 21.518Z" fill="#8FB8DF"/>
<path d="M48.826 14.3592C49.3492 14.8339 49.9366 15.2325 50.5709 15.5433C50.8923 15.7285 51.274 15.7784 51.6322 15.6821C51.9904 15.5858 52.2956 15.3512 52.4808 15.0298C52.6659 14.7084 52.7158 14.3267 52.6195 13.9685C52.5232 13.6103 52.2886 13.3051 51.9672 13.1199C51.4264 12.7336 49.1904 11.6051 48.0087 11.835C47.4587 11.8595 47.1299 12.103 47.2928 12.7243C47.2945 12.7691 47.3062 12.8129 47.3272 12.8525C47.6113 13.4811 48.5896 14.1515 48.826 14.3592Z" fill="#8FB8DF"/>
</g>
<defs>
<clipPath id="clip0_729_908">
<rect width="153" height="155" fill="white"/>
</clipPath>
</defs>
</svg>
