<svg width="13" height="10" viewBox="0 0 13 10" fill="none" xmlns="http://www.w3.org/2000/svg">
<path fill-rule="evenodd" clip-rule="evenodd" d="M4.14228 3.46349C4.265 3.67709 4.34705 3.81991 4.393 3.89019C4.53672 4.11 4.79532 4.42874 5.1184 4.82696C5.3152 5.06953 5.53593 5.34159 5.76919 5.63875C6.05438 6.00205 6.34501 6.38855 6.5778 6.74953C6.58193 6.75593 6.58607 6.76237 6.59023 6.76886C6.8582 6.53184 7.14359 6.23354 7.43427 5.89931C7.92911 5.33033 8.37575 4.73472 8.74996 4.2357C8.90146 4.03367 9.04109 3.84747 9.16724 3.68528C9.30871 3.50339 9.45955 3.32644 9.59555 3.16706L9.60279 3.15857C9.74081 2.99682 9.865 2.85128 9.98093 2.70435C10.2197 2.40174 10.3698 2.15795 10.445 1.93256C10.6196 1.40861 11.1859 1.12545 11.7099 1.3001C12.2338 1.47475 12.517 2.04107 12.3423 2.56501C12.1583 3.11714 11.8406 3.57617 11.551 3.9432C11.4108 4.12091 11.2646 4.29231 11.1337 4.44564L11.117 4.46526C10.977 4.6293 10.8552 4.77266 10.7459 4.91316C10.6525 5.03332 10.5353 5.1896 10.3999 5.3701C10.0174 5.88006 9.48992 6.58337 8.94339 7.21178C8.5669 7.64468 8.15062 8.07959 7.72243 8.43155C7.31356 8.76764 6.79889 9.10857 6.2271 9.22293C5.68554 9.33125 5.15871 8.98003 5.0504 8.43847C5.0259 8.31597 5.02491 8.19423 5.04432 8.07792C5.00842 8.01301 4.9605 7.93192 4.897 7.83346C4.71511 7.5514 4.46995 7.22267 4.196 6.87368C4.03436 6.66777 3.85397 6.44492 3.67392 6.22249C3.2947 5.75401 2.91697 5.28738 2.71906 4.98469C2.63863 4.86167 2.51 4.63761 2.3732 4.39931C2.33359 4.33032 2.2933 4.26013 2.25329 4.19085C2.0595 3.85528 1.83788 3.47895 1.62011 3.14479C1.49073 2.94626 1.37773 2.78636 1.28508 2.66677C1.15507 2.65865 1.02451 2.62484 0.900662 2.56291C0.406683 2.31592 0.206459 1.71525 0.453448 1.22127C0.536934 1.0543 0.687285 0.843202 0.946853 0.701244C1.21876 0.552537 1.49905 0.540445 1.72217 0.584245C2.09439 0.657313 2.36007 0.893174 2.48116 1.00784C2.77186 1.28312 3.06045 1.69184 3.2957 2.05283C3.54445 2.43453 3.78836 2.84976 3.98523 3.19065C4.04357 3.29167 4.09584 3.38265 4.14228 3.46349ZM1.07884 2.43693C1.07877 2.43636 1.08418 2.44019 1.09525 2.45012C1.08443 2.44247 1.0789 2.4375 1.07884 2.43693Z" fill="black"/>
</svg>
