<svg width="24" height="28" viewBox="0 0 24 28" fill="none" xmlns="http://www.w3.org/2000/svg">
    <path fill-rule="evenodd" clip-rule="evenodd"
        d="M12.4385 0.413279C12.9838 0.501154 13.3546 1.0144 13.2667 1.55965L13.074 2.75552L13.275 4.88958C13.3268 5.43943 12.9231 5.92717 12.3732 5.97897C11.8234 6.03078 11.3356 5.62703 11.2838 5.07718L11.0589 2.68914L11.2922 1.24143C11.38 0.69618 11.8933 0.325405 12.4385 0.413279ZM17.1885 5.90693C17.7338 5.99481 18.1046 6.50805 18.0167 7.0533L17.824 8.24917L18.025 10.3832C18.0768 10.9331 17.6731 11.4208 17.1232 11.4726C16.5734 11.5244 16.0856 11.1207 16.0338 10.5708L15.8089 8.18279L16.0422 6.73508C16.13 6.18983 16.6433 5.81906 17.1885 5.90693ZM6.89803 6.13972C7.44686 6.20146 7.84172 6.69642 7.77998 7.24524L7.625 8.62288V10.3624L7.77796 11.5433C7.8489 12.091 7.46241 12.5925 6.9147 12.6634C6.36699 12.7344 5.86547 12.3479 5.79453 11.8002L5.625 10.4914V8.51074L5.79251 7.02166C5.85425 6.47284 6.34921 6.07798 6.89803 6.13972ZM11.8148 8.6741C12.3606 8.58936 12.8717 8.96308 12.9564 9.50883L13.3258 11.8877L12.9577 13.8132L12.7266 15.865L12.9586 17.5255C13.0351 18.0725 12.6536 18.5779 12.1066 18.6543C11.5597 18.7307 11.0543 18.3493 10.9779 17.8023L10.7109 15.892L10.9788 13.513L11.2963 11.8523L10.9801 9.81569C10.8953 9.26995 11.2691 8.75884 11.8148 8.6741ZM22.0265 9.0563C22.5788 9.0563 23.0265 9.50402 23.0265 10.0563C23.0265 10.6215 22.9873 11.1462 22.951 11.6311L22.9499 11.6458C22.9126 12.1437 22.8789 12.6009 22.879 13.0855C22.8791 13.5749 22.9135 14.1036 22.9511 14.6731L22.9522 14.6896C22.9885 15.2403 23.0273 15.8304 23.0273 16.3915C23.0273 16.9438 22.5796 17.3915 22.0273 17.3915C21.4751 17.3915 21.0273 16.9438 21.0273 16.3915C21.0273 15.9026 20.9929 15.3742 20.9554 14.8047L20.9542 14.7867C20.9179 14.2364 20.8791 13.6468 20.879 13.0859C20.8789 12.5204 20.9181 11.9954 20.9545 11.5101L20.9555 11.4966C20.9927 10.9987 21.0265 10.5413 21.0265 10.0563C21.0265 9.50402 21.4742 9.0563 22.0265 9.0563ZM1.97738 9.05631C2.52966 9.05631 2.97738 9.50403 2.97738 10.0563C2.97738 10.5413 3.0112 10.9987 3.04845 11.4966L3.04945 11.5101C3.08576 11.9954 3.12505 12.5204 3.12494 13.0859C3.12483 13.6468 3.08597 14.2364 3.0497 14.7866L3.04851 14.8047C3.01098 15.3742 2.97656 15.9026 2.97656 16.3915C2.97656 16.9438 2.52885 17.3915 1.97656 17.3915C1.42428 17.3915 0.976562 16.9438 0.976562 16.3915C0.976562 15.8304 1.01546 15.2403 1.05175 14.6896L1.05284 14.6731C1.09037 14.1036 1.12484 13.5749 1.12494 13.0856C1.12503 12.6009 1.09126 12.1437 1.05402 11.6458L1.05291 11.631C1.01663 11.1462 0.977378 10.6215 0.977378 10.0563C0.977378 9.50403 1.42509 9.05631 1.97738 9.05631ZM16.8172 13.8278C17.3695 13.8278 17.8172 14.2755 17.8172 14.8278C17.8172 15.3128 17.851 15.7702 17.8883 16.2681L17.8893 16.2815C17.9256 16.7668 17.9649 17.2919 17.9648 17.8574C17.9647 18.4183 17.9258 19.0079 17.8895 19.5581L17.8884 19.5761C17.8508 20.1456 17.8164 20.6741 17.8164 21.163C17.8164 21.7153 17.3687 22.163 16.8164 22.163C16.2641 22.163 15.8164 21.7153 15.8164 21.163C15.8164 20.6018 15.8553 20.0117 15.8916 19.4611L15.8927 19.4446C15.9302 18.8751 15.9647 18.3464 15.9648 17.857C15.9649 17.3724 15.9311 16.9151 15.8939 16.4173L15.8928 16.4025C15.8565 15.9177 15.8172 15.393 15.8172 14.8278C15.8172 14.2755 16.2649 13.8278 16.8172 13.8278ZM6.8369 15.3301C7.38847 15.3582 7.8128 15.8282 7.78468 16.3797L7.68795 18.2766L7.77282 18.7945C7.86212 19.3396 7.49268 19.8538 6.94767 19.9431C6.40265 20.0324 5.88843 19.6629 5.79913 19.1179L5.67964 18.3886L5.78727 16.2779C5.8154 15.7263 6.28533 15.302 6.8369 15.3301ZM12.2513 20.8274C12.8011 20.8799 13.2042 21.3681 13.1518 21.9179L13.0439 23.0484L13.1563 24.1611V26.6C13.1563 27.1523 12.7086 27.6 12.1563 27.6C11.604 27.6 11.1563 27.1523 11.1563 26.6V24.2619L11.0343 23.054L11.1608 21.7279C11.2133 21.1781 11.7015 20.775 12.2513 20.8274Z"
        fill="#FFFFFF" />
</svg>