<svg width="27" height="19" viewBox="0 0 27 19" fill="none" xmlns="http://www.w3.org/2000/svg">
    <path fill-rule="evenodd" clip-rule="evenodd"
        d="M15.2307 2.46974C12.3529 1.74284 9.96117 2.01627 7.53963 2.48238C7.22761 2.54244 6.93987 2.59373 6.6654 2.64265C5.94461 2.77112 5.3153 2.88329 4.57789 3.09521C4.33572 3.16481 4.08628 3.27818 3.75939 3.42675C3.65804 3.47281 3.54925 3.52226 3.43093 3.57483C3.00095 3.76588 2.41406 4.01142 1.80741 4.04629C1.25604 4.07798 0.783369 3.6567 0.751677 3.10532C0.719985 2.55395 1.14127 2.08128 1.69265 2.04959C1.89407 2.03801 2.1777 1.94313 2.61886 1.74711C2.68976 1.71562 2.76689 1.68038 2.84872 1.64299C3.19533 1.48464 3.62633 1.28773 4.02547 1.17302C4.87035 0.930211 5.64121 0.792907 6.39452 0.658729C6.65151 0.612954 6.90645 0.567544 7.1616 0.518432C9.69854 0.0301145 12.4273 -0.301181 15.7205 0.530638C18.4603 1.22268 20.1659 2.18537 21.9895 3.44319C22.9142 4.08093 23.9 4.57474 24.9439 5.09762C25.2766 5.26425 25.6151 5.43383 25.9595 5.61197C26.45 5.86572 26.642 6.46909 26.3882 6.95963C26.1345 7.45016 25.5311 7.64211 25.0406 7.38836C24.7486 7.23734 24.4442 7.08504 24.1323 6.92895C23.0632 6.39404 21.9052 5.81461 20.854 5.08955C19.1624 3.92281 17.6745 3.08701 15.2307 2.46974ZM12.2111 8.43462C10.8649 8.41085 9.65239 8.38944 8.49904 8.71975C6.70858 9.23253 4.96849 9.4838 3.12503 9.4838C2.57274 9.4838 2.12503 9.03609 2.12503 8.4838C2.12503 7.93152 2.57274 7.4838 3.12503 7.4838C4.7761 7.4838 6.33099 7.26026 7.94839 6.79705C9.41996 6.37561 11.0201 6.40749 12.395 6.43489C12.7181 6.44133 13.0288 6.44752 13.3224 6.44752C15.7533 6.44752 17.4043 7.64708 19.1016 8.91458C19.2423 9.01965 19.3844 9.12484 19.5274 9.23079C20.1625 9.70118 20.8176 10.1864 21.4653 10.7408C21.6205 10.8737 21.7492 11.0239 21.8382 11.1311C21.8823 11.1844 21.9164 11.2264 21.9461 11.2631C21.9909 11.3183 22.0258 11.3614 22.0705 11.4123C22.0826 11.426 22.0932 11.4377 22.1025 11.4477C22.5452 11.5506 22.875 11.9476 22.875 12.4217C22.875 12.974 22.4273 13.4217 21.875 13.4217C21.1737 13.4217 20.7255 12.9115 20.5695 12.734L20.5681 12.7324C20.4995 12.6543 20.4191 12.5556 20.3587 12.4813C20.3351 12.4522 20.3145 12.427 20.2989 12.4081C20.2215 12.3148 20.1829 12.2758 20.1648 12.2603C19.5756 11.7559 18.9888 11.3211 18.3579 10.8536C18.2096 10.7437 18.0588 10.6319 17.905 10.5171C16.1773 9.22693 15.0149 8.44752 13.3224 8.44752C12.9414 8.44752 12.5715 8.44098 12.2111 8.43462ZM8.89551 14.3605C8.58573 14.3679 8.27891 14.3752 7.97562 14.3752C7.5447 14.3752 7.02512 14.4955 6.3485 14.6595C6.32955 14.6641 6.31045 14.6688 6.2912 14.6734C5.68908 14.8196 4.94554 15.0002 4.25003 15.0002C3.69774 15.0002 3.25003 14.5524 3.25003 14.0002C3.25003 13.4479 3.69774 13.0002 4.25003 13.0002C4.68095 13.0002 5.20052 12.88 5.87715 12.7159C5.8961 12.7113 5.9152 12.7066 5.93444 12.702C6.53656 12.5558 7.2801 12.3752 7.97562 12.3752C8.19779 12.3752 8.44655 12.3681 8.71713 12.3604C10.1126 12.3205 12.0887 12.264 13.9946 13.0811C15.8219 13.8644 16.8965 15.0569 17.9059 16.177C18.1759 16.4766 18.4412 16.771 18.715 17.051C19.1011 17.4459 19.094 18.0791 18.6991 18.4652C18.3043 18.8513 17.6711 18.8442 17.285 18.4493C16.9035 18.0591 16.5752 17.697 16.2706 17.3612C15.317 16.3096 14.5965 15.5152 13.2066 14.9193C11.7442 14.2923 10.2899 14.3271 8.89551 14.3605Z"
        fill="#FFFFFF" />
</svg>