<svg width="27" height="26" viewBox="0 0 27 26" fill="none" xmlns="http://www.w3.org/2000/svg">
    <path fill-rule="evenodd" clip-rule="evenodd"
        d="M24.1176 2.39769C23.9304 2.48686 23.7511 2.58585 23.574 2.70063C23.3939 2.81741 23.225 2.92378 23.0653 3.02431C22.4831 3.39097 22.0241 3.68006 21.5903 4.11383C21.2522 4.45191 20.939 4.82945 20.6023 5.24643C20.5593 5.2997 20.5157 5.35382 20.4716 5.4086C20.1804 5.77033 19.866 6.1609 19.5288 6.5295C19.0119 7.09451 18.4534 7.55194 17.9277 7.96223C17.8025 8.05998 17.6805 8.15405 17.5612 8.24607C17.1635 8.55283 16.7952 8.83685 16.4337 9.15862C15.9147 9.6206 15.5777 10.0871 15.1652 10.6581C14.9784 10.9167 14.7761 11.1968 14.5344 11.5076C14.0729 12.1009 13.5064 12.5562 13.0299 12.939C12.9056 13.0389 12.7874 13.1339 12.6789 13.2251C12.5403 13.3414 12.3544 13.4591 12.2261 13.5404L12.2211 13.5436C12.1985 13.5578 12.1762 13.5719 12.1541 13.5859C12.1488 13.5893 12.1434 13.5926 12.1381 13.596C12.1452 13.6049 12.148 13.6082 12.148 13.6082C12.5897 13.9313 12.9103 14.3898 13.1304 14.7113C13.167 14.7649 13.2015 14.8155 13.2342 14.8636C13.4343 15.1575 13.5669 15.3524 13.7136 15.4991C14.3612 16.1467 15.0246 16.7797 15.6975 17.4219L15.7025 17.4266C16.371 18.0645 17.0492 18.7116 17.7135 19.3759C18.3876 20.05 19.0964 20.6624 19.8373 21.3026C20.1079 21.5363 20.3827 21.7738 20.6618 22.0194C20.7975 22.1388 20.9423 22.2839 21.0673 22.409C21.0753 22.4171 21.0832 22.425 21.0911 22.4329C21.1232 22.465 21.1549 22.4967 21.1861 22.5277C21.2425 22.0024 21.3122 21.4796 21.3799 20.9719C21.4027 20.8007 21.4253 20.6312 21.4471 20.4639C21.5521 19.6579 21.6409 18.8838 21.668 18.113C21.7742 15.0862 22.3255 12.1478 22.8643 9.27576C22.879 9.19745 22.8937 9.1192 22.9084 9.04099C23.0394 8.34226 23.1581 7.60426 23.2792 6.85135C23.4769 5.62199 23.681 4.35286 23.9556 3.14997C24.0163 2.88397 24.0718 2.63553 24.1176 2.39769ZM20.9245 24.8712C20.6085 24.6992 20.3468 24.4795 20.1588 24.3108C19.9805 24.1508 19.8134 23.9837 19.6762 23.8464C19.5285 23.6985 19.4256 23.5957 19.3405 23.5208C19.0921 23.3022 18.8362 23.0811 18.5765 22.8568C17.819 22.2023 17.0294 21.5202 16.2993 20.7901C15.7544 20.2452 15.198 19.7103 14.6337 19.1713C14.5406 19.3252 14.4486 19.4838 14.3516 19.6509L14.3257 19.6956C14.141 20.0137 13.9371 20.363 13.699 20.7069C12.8501 21.9331 11.7888 23.0093 10.8147 23.9834C10.1848 24.6133 9.10764 24.1672 9.10764 23.2763V14.798C6.21241 14.7745 3.30182 14.4684 0.553005 13.094C0.059027 12.847 -0.141197 12.2464 0.105792 11.7524C0.195421 11.5731 0.331626 11.4325 0.492407 11.338C0.492454 10.7857 0.940151 10.3381 1.49241 10.3381C1.88142 10.3381 2.15757 10.2172 2.76494 9.95136C2.78125 9.94422 2.7978 9.93697 2.8146 9.92962C3.22104 9.75181 3.62487 9.61015 4.00208 9.48295C4.09147 9.4528 4.17857 9.42372 4.26397 9.3952C4.5498 9.29976 4.81657 9.21068 5.08643 9.10948C6.06548 8.74234 7.00135 8.34061 7.97541 7.92249C8.23332 7.81178 8.49391 7.69992 8.75868 7.58725C9.32055 7.34816 9.86587 7.07377 10.4417 6.78303L10.4752 6.7661C11.0318 6.48504 11.6188 6.18858 12.2297 5.92679C12.867 5.65367 13.541 5.34534 14.1393 5.03514C14.4311 4.88382 14.7694 4.75549 15.0375 4.65378C15.1139 4.62477 15.1847 4.59794 15.247 4.57335C15.5764 4.44342 15.7903 4.33667 15.9424 4.21222C16.0727 4.1056 16.2011 3.9928 16.3407 3.86891C16.3577 3.85378 16.375 3.83842 16.3925 3.82287C16.514 3.71496 16.6459 3.59781 16.7804 3.48419C17.0915 3.22148 17.4581 2.94145 17.9061 2.71744C17.9674 2.68679 18.0286 2.65609 18.0899 2.62538C18.568 2.38572 19.0475 2.1453 19.573 1.9201C19.9147 1.77367 20.2353 1.57613 20.6351 1.32979C20.6567 1.31647 20.6786 1.303 20.7007 1.2894C21.1078 1.03877 21.5959 0.742319 22.1558 0.529942C22.7316 0.311539 23.6988 0 24.5069 0C24.76 0 24.9912 0.0940337 25.1673 0.249072C25.193 0.2471 25.2189 0.246094 25.245 0.246094C25.7973 0.246094 26.245 0.693809 26.245 1.24609C26.245 2.10104 26.064 2.90025 25.9055 3.59505C25.6399 4.75832 25.4597 5.88597 25.2739 7.04937C25.1517 7.81391 25.0271 8.59389 24.8741 9.40957L24.8412 9.58516C24.2944 12.5005 23.7676 15.3092 23.6668 18.1831C23.6362 19.0531 23.5368 19.9049 23.4304 20.7221C23.4068 20.9032 23.383 21.0819 23.3594 21.2587C23.2749 21.8928 23.1935 22.5036 23.1367 23.1215C23.1101 23.411 23.0546 23.9944 23.0055 24.4355C22.9823 24.6433 22.9563 24.859 22.9325 24.9892C22.9277 25.015 22.9146 25.0866 22.8902 25.1629C22.8882 25.1698 22.8416 25.3322 22.7173 25.4893C22.6694 25.5498 22.4184 25.8599 21.9523 25.8698C21.4303 25.8809 21.1591 25.5182 21.092 25.4155C21.0097 25.2894 20.9762 25.1749 20.9656 25.1374C20.9509 25.0856 20.9431 25.0425 20.939 25.0173C20.9309 24.9666 20.9276 24.9234 20.926 24.8997C20.9254 24.8902 20.9249 24.8807 20.9245 24.8712ZM3.10384 11.9845C5.08907 12.6359 7.21272 12.7995 9.49221 12.7995C9.63045 12.7995 9.76215 12.8276 9.88191 12.8783C9.95636 12.775 10.0316 12.6937 10.0884 12.6361C10.267 12.4547 10.4765 12.2989 10.6508 12.1786C10.8037 12.0731 10.9638 11.9721 11.0919 11.8913C11.1125 11.8782 11.1324 11.8657 11.1512 11.8537C11.2233 11.8081 11.2804 11.7714 11.3268 11.7402C11.3747 11.7078 11.3925 11.6936 11.3925 11.6936C11.5711 11.5436 11.7335 11.4125 11.8832 11.2916C12.3217 10.9375 12.6506 10.6719 12.9557 10.2797C13.1056 10.0869 13.2593 9.87435 13.421 9.6508C13.8837 9.011 14.4117 8.28093 15.104 7.6647C15.5234 7.29135 15.9658 6.95036 16.3729 6.63659C16.484 6.55095 16.5925 6.46733 16.6971 6.38564C17.2023 5.99137 17.6529 5.617 18.0532 5.17948C18.1927 5.02694 18.3277 4.87018 18.4628 4.70807C18.3359 4.79572 18.2075 4.89674 18.0708 5.01219C17.9568 5.10846 17.8451 5.20769 17.7219 5.3171C17.7042 5.33281 17.6863 5.34873 17.6681 5.36489C17.5274 5.48975 17.3729 5.6259 17.2088 5.76013C16.8028 6.09236 16.3429 6.29102 15.9809 6.43382C15.8621 6.48071 15.7561 6.52102 15.6593 6.55782C15.4219 6.6481 15.24 6.71728 15.0599 6.81065C14.4035 7.15099 13.6816 7.48049 13.0175 7.76508C12.4648 8.00196 11.9257 8.2742 11.3516 8.56409L11.3431 8.56834C10.7752 8.85512 10.1731 9.15892 9.54179 9.42756C9.29031 9.53458 9.03851 9.64268 8.78596 9.75111C7.80652 10.1716 6.81586 10.5969 5.78868 10.9821C5.48116 11.0975 5.16821 11.2019 4.87654 11.2993C4.79629 11.3261 4.71764 11.3523 4.64117 11.3781C4.27538 11.5014 3.93945 11.6205 3.61624 11.7619C3.57156 11.7815 3.52592 11.8017 3.4793 11.8224C3.36079 11.8749 3.23586 11.9303 3.10384 11.9845ZM11.1076 15.3509V20.7751C11.4485 20.3831 11.7673 19.9835 12.0546 19.5685C12.2416 19.2984 12.4089 19.0138 12.596 18.6916C12.6071 18.6724 12.6183 18.653 12.6296 18.6335C12.788 18.3604 12.9622 18.0601 13.1591 17.7584C12.8713 17.4796 12.5842 17.1981 12.2994 16.9133C12.0062 16.6201 11.7518 16.2432 11.5633 15.9639C11.5339 15.9203 11.5061 15.8791 11.48 15.841C11.3249 15.6145 11.2072 15.4582 11.1076 15.3509Z"
        fill="#EA5A24" />
</svg>