<svg width="50" height="50" viewBox="0 0 50 50" fill="none" xmlns="http://www.w3.org/2000/svg">
<circle cx="25" cy="25" r="24.5" fill="white" stroke="#EA5A24"/>
<g clip-path="url(#clip0_729_1740)">
<path d="M9.13946 27.3013L9.9071 30.0234L10.6667 27.3013H11.8022L10.3549 31.4586H9.45931L8 27.3013H9.13946Z" fill="#4D4D4D"/>
<path d="M11.4707 31.4581L12.938 27.3008H13.8136L15.2729 31.4581H14.1335L13.8936 30.6453H12.8461L12.6142 31.4581H11.4707ZM13.3738 28.4904L13.01 29.8832H13.7256L13.3738 28.4904Z" fill="#4D4D4D"/>
<path d="M15.6172 31.4586V27.3013H17.4203C17.6122 27.3013 17.7882 27.3436 17.9521 27.4283C18.116 27.5129 18.2519 27.623 18.3679 27.7543C18.4838 27.8897 18.5758 28.0421 18.6438 28.2157C18.7117 28.3893 18.7437 28.5629 18.7437 28.7407C18.7437 28.982 18.6957 29.2064 18.5958 29.418C18.4958 29.6255 18.3559 29.7991 18.18 29.9303L19.0636 31.4586H17.8481L17.1005 30.1801H16.6967V31.4586H15.6172ZM16.6967 29.1852H17.3764C17.4443 29.1852 17.5043 29.1471 17.5603 29.0667C17.6162 28.9905 17.6442 28.8804 17.6442 28.7407C17.6442 28.5967 17.6122 28.4867 17.5443 28.4105C17.4763 28.3343 17.4123 28.2962 17.3444 28.2962H16.6927V29.1852H16.6967Z" fill="#4D4D4D"/>
<path d="M22.8092 30.3918C22.8092 30.578 22.7732 30.7389 22.6973 30.8744C22.6253 31.0099 22.5214 31.1199 22.3934 31.2046C22.2655 31.2893 22.1136 31.3528 21.9416 31.3951C21.7697 31.4374 21.5898 31.4586 21.3979 31.4586H19.4668V27.3013H21.7457C21.8817 27.3013 22.0056 27.3309 22.1175 27.3944C22.2295 27.4579 22.3215 27.5383 22.4014 27.6357C22.4774 27.7373 22.5374 27.8474 22.5813 27.9744C22.6253 28.1014 22.6453 28.2327 22.6453 28.3639C22.6453 28.5586 22.5973 28.7449 22.5054 28.9227C22.4134 29.1005 22.2695 29.236 22.0816 29.3249C22.3055 29.3969 22.4854 29.5154 22.6173 29.689C22.7453 29.8668 22.8092 30.0996 22.8092 30.3918ZM20.5463 28.275V28.9143H21.2819C21.3539 28.9143 21.4219 28.8931 21.4858 28.8507C21.5458 28.8084 21.5778 28.7237 21.5778 28.5925C21.5778 28.4782 21.5538 28.3978 21.5018 28.3512C21.4499 28.3004 21.3899 28.2792 21.3179 28.2792H20.5463V28.275ZM21.7137 30.1589C21.7137 30.0573 21.6898 29.9726 21.6378 29.9049C21.5858 29.8372 21.5178 29.8033 21.4379 29.8033H20.5463V30.5018H21.3979C21.4858 30.5018 21.5618 30.4722 21.6218 30.4129C21.6818 30.3537 21.7137 30.269 21.7137 30.1589Z" fill="#4D4D4D"/>
<path d="M25.0446 30.4805C25.1685 30.4805 25.2765 30.4509 25.3645 30.3916C25.4524 30.3323 25.5244 30.2561 25.5804 30.1588C25.6363 30.0614 25.6763 29.9513 25.7003 29.8285C25.7243 29.7015 25.7403 29.5745 25.7403 29.4348V27.2969H26.8198V29.4348C26.8198 29.7227 26.7838 29.9936 26.7158 30.2477C26.6439 30.4974 26.5359 30.7176 26.388 30.8996C26.24 31.0817 26.0561 31.2256 25.8322 31.3314C25.6083 31.4373 25.3445 31.4881 25.0446 31.4881C24.7328 31.4881 24.4609 31.4331 24.241 31.323C24.0171 31.2129 23.8332 31.0605 23.6892 30.8742C23.5453 30.6879 23.4414 30.4678 23.3734 30.2223C23.3054 29.9725 23.2734 29.71 23.2734 29.4348V27.2969H24.3529V29.4348C24.3529 29.5703 24.3649 29.7015 24.3929 29.8285C24.4169 29.9555 24.4609 30.0656 24.5129 30.163C24.5688 30.2604 24.6408 30.3366 24.7248 30.3916C24.8127 30.4551 24.9207 30.4805 25.0446 30.4805Z" fill="#4D4D4D"/>
<path d="M27.4922 31.4581V27.3008H29.2953C29.4872 27.3008 29.6632 27.3431 29.8271 27.4278C29.991 27.5125 30.1269 27.6225 30.2429 27.7538C30.3588 27.8892 30.4508 28.0417 30.5188 28.2152C30.5867 28.3888 30.6187 28.5624 30.6187 28.7402C30.6187 28.9815 30.5707 29.2059 30.4708 29.4176C30.3708 29.625 30.2309 29.7986 30.055 29.9298L30.9386 31.4581H29.7231L28.9755 30.1796H28.5717V31.4581H27.4922ZM28.5677 29.1847H29.2474C29.3153 29.1847 29.3753 29.1466 29.4313 29.0662C29.4872 28.99 29.5152 28.8799 29.5152 28.7402C29.5152 28.5962 29.4833 28.4862 29.4153 28.41C29.3473 28.3338 29.2833 28.2957 29.2154 28.2957H28.5637V29.1847H28.5677Z" fill="#4D4D4D"/>
<path d="M33.7212 31.1198C33.4733 31.3653 33.1894 31.4881 32.8656 31.4881C32.6217 31.4881 32.3898 31.4288 32.1739 31.3145C31.958 31.2002 31.7661 31.0436 31.6022 30.8488C31.4382 30.6541 31.3063 30.4255 31.2103 30.1672C31.1144 29.909 31.0664 29.6338 31.0664 29.3459C31.0664 29.0538 31.1144 28.7786 31.2143 28.5288C31.3103 28.2791 31.4462 28.0589 31.6181 27.8726C31.7901 27.6864 31.99 27.5424 32.2259 27.4324C32.4578 27.3265 32.7056 27.2715 32.9735 27.2715C33.1414 27.2715 33.2974 27.2927 33.4493 27.335C33.6012 27.3773 33.7411 27.4366 33.8691 27.517C33.997 27.5975 34.113 27.6948 34.2129 27.8049C34.3129 27.915 34.3968 28.042 34.4648 28.1817L33.6612 28.8337C33.5932 28.6686 33.4933 28.5373 33.3613 28.4399C33.2254 28.3383 33.0855 28.2918 32.9335 28.2918C32.8216 28.2918 32.7216 28.3172 32.6257 28.3722C32.5297 28.4272 32.4498 28.5034 32.3818 28.6008C32.3138 28.6982 32.2618 28.8167 32.2219 28.948C32.1819 29.0834 32.1619 29.2316 32.1619 29.3883C32.1619 29.5534 32.1819 29.7015 32.2219 29.8328C32.2618 29.964 32.3138 30.0783 32.3858 30.1757C32.4578 30.2731 32.5417 30.345 32.6377 30.4001C32.7336 30.4509 32.8416 30.4805 32.9615 30.4805C33.0935 30.4805 33.2214 30.4466 33.3453 30.3747C33.4693 30.3027 33.5852 30.2011 33.6892 30.0699H32.9975V29.2486H34.6127V31.4627H33.7212V31.1198Z" fill="#4D4D4D"/>
<path d="M37.994 30.4637V31.4586H35.1953V27.3013H37.946V28.2962H36.2748V28.8804H37.7021V29.8075H36.2748V30.4637H37.994Z" fill="#4D4D4D"/>
<path d="M38.5527 31.4586V27.3013H40.3559C40.5478 27.3013 40.7237 27.3436 40.8876 27.4283C41.0516 27.5129 41.1875 27.623 41.3034 27.7543C41.4194 27.8897 41.5113 28.0421 41.5793 28.2157C41.6473 28.3893 41.6793 28.5629 41.6793 28.7407C41.6793 28.982 41.6313 29.2064 41.5313 29.418C41.4314 29.6255 41.2914 29.7991 41.1155 29.9303L41.9991 31.4586H40.7837L40.036 30.1801H39.6322V31.4586H38.5527ZM39.6322 29.1852H40.3119C40.3799 29.1852 40.4398 29.1471 40.4958 29.0667C40.5518 28.9905 40.5798 28.8804 40.5798 28.7407C40.5798 28.5967 40.5478 28.4867 40.4798 28.4105C40.4119 28.3343 40.3479 28.2962 40.2799 28.2962H39.6282V29.1852H39.6322Z" fill="#4D4D4D"/>
<path d="M19.9659 35.5564C19.842 35.5564 19.73 35.5352 19.6301 35.4886C19.5301 35.4463 19.4462 35.3828 19.3742 35.3066C19.3022 35.2304 19.2503 35.1372 19.2103 35.0399C19.1703 34.9383 19.1543 34.8324 19.1543 34.7224C19.1543 34.5699 19.1863 34.4302 19.2542 34.3075C19.3182 34.1805 19.4142 34.0789 19.5341 34.0069C19.6541 33.9307 19.798 33.8926 19.9659 33.8926C20.1338 33.8926 20.2738 33.9307 20.3937 34.0069C20.5137 34.0831 20.6016 34.1847 20.6616 34.3075L20.2778 34.4302C20.2458 34.371 20.2018 34.3244 20.1458 34.2905C20.0899 34.2567 20.0299 34.244 19.9659 34.244C19.89 34.244 19.822 34.2651 19.762 34.3032C19.702 34.3413 19.6541 34.4006 19.6181 34.4726C19.5821 34.5445 19.5661 34.6292 19.5661 34.7224C19.5661 34.8155 19.5861 34.9002 19.6221 34.9721C19.6581 35.0441 19.706 35.0991 19.766 35.1415C19.826 35.1838 19.8939 35.205 19.9699 35.205C20.0179 35.205 20.0619 35.1965 20.1019 35.1796C20.1458 35.1626 20.1818 35.1415 20.2138 35.1118C20.2458 35.0822 20.2698 35.0483 20.2858 35.0145L20.6696 35.1372C20.6336 35.2177 20.5816 35.2897 20.5177 35.3532C20.4497 35.4167 20.3697 35.4675 20.2818 35.5056C20.1818 35.5352 20.0819 35.5564 19.9659 35.5564Z" fill="#4D4D4D"/>
<path d="M20.9062 33.6724V33.2617H21.2981V33.6724H20.9062ZM20.9062 35.5224V33.8968H21.2981V35.5224H20.9062Z" fill="#4D4D4D"/>
<path d="M22.5727 35.4423C22.5407 35.455 22.5007 35.4719 22.4528 35.4931C22.4048 35.51 22.3568 35.5269 22.3008 35.5396C22.2489 35.5523 22.1929 35.5566 22.1369 35.5566C22.065 35.5566 21.997 35.5439 21.937 35.5185C21.877 35.4931 21.8291 35.4507 21.7931 35.3915C21.7571 35.3322 21.7371 35.256 21.7371 35.1629V34.2357H21.5332V33.914H21.7371V33.3848H22.1289V33.914H22.4528V34.2315H22.1289V35.0147C22.1289 35.0697 22.1449 35.1078 22.1729 35.1332C22.2009 35.1586 22.2329 35.1713 22.2769 35.1713C22.3168 35.1713 22.3568 35.1629 22.3968 35.1502C22.4368 35.1375 22.4688 35.1248 22.4888 35.1121L22.5727 35.4423Z" fill="#4D4D4D"/>
<path d="M22.8053 35.84C22.8413 35.8485 22.8732 35.8569 22.9052 35.8612C22.9372 35.8654 22.9612 35.8696 22.9812 35.8696C23.0172 35.8696 23.0492 35.8612 23.0732 35.84C23.0971 35.8188 23.1211 35.785 23.1451 35.7342C23.1691 35.6834 23.1931 35.6156 23.2171 35.5225L22.6094 33.9053H23.0172L23.429 35.0991L23.7928 33.9053H24.1686L23.5249 35.84C23.501 35.912 23.465 35.9755 23.417 36.0347C23.369 36.094 23.309 36.1406 23.2371 36.1745C23.1651 36.2083 23.0852 36.2253 22.9972 36.2253C22.9652 36.2253 22.9332 36.221 22.9052 36.2168C22.8732 36.2126 22.8413 36.2041 22.8013 36.1914V35.84H22.8053Z" fill="#4D4D4D"/>
<path d="M25.7315 35.5564C25.6076 35.5564 25.4957 35.5352 25.3957 35.4886C25.2957 35.4463 25.2118 35.3828 25.1398 35.3066C25.0679 35.2304 25.0159 35.1372 24.9759 35.0399C24.9359 34.9383 24.9199 34.8324 24.9199 34.7224C24.9199 34.5699 24.9519 34.4302 25.0199 34.3075C25.0838 34.1805 25.1798 34.0789 25.2997 34.0069C25.4197 33.9307 25.5636 33.8926 25.7315 33.8926C25.8995 33.8926 26.0394 33.9307 26.1593 34.0069C26.2793 34.0831 26.3672 34.1847 26.4272 34.3075L26.0434 34.4302C26.0114 34.371 25.9674 34.3244 25.9115 34.2905C25.8555 34.2567 25.7955 34.244 25.7315 34.244C25.6556 34.244 25.5876 34.2651 25.5276 34.3032C25.4677 34.3413 25.4197 34.4006 25.3837 34.4726C25.3477 34.5445 25.3317 34.6292 25.3317 34.7224C25.3317 34.8155 25.3517 34.9002 25.3877 34.9721C25.4237 35.0441 25.4717 35.0991 25.5316 35.1415C25.5916 35.1838 25.6596 35.205 25.7355 35.205C25.7835 35.205 25.8275 35.1965 25.8675 35.1796C25.9115 35.1626 25.9474 35.1415 25.9794 35.1118C26.0114 35.0822 26.0354 35.0483 26.0514 35.0145L26.4352 35.1372C26.3992 35.2177 26.3473 35.2897 26.2833 35.3532C26.2153 35.4167 26.1353 35.4675 26.0474 35.5056C25.9474 35.5352 25.8435 35.5564 25.7315 35.5564Z" fill="#4D4D4D"/>
<path d="M26.5625 35.0487C26.5625 34.9428 26.5905 34.8539 26.6465 34.7735C26.7024 34.693 26.7784 34.6338 26.8784 34.5914C26.9783 34.5491 27.0943 34.5279 27.2222 34.5279C27.2862 34.5279 27.3501 34.5322 27.4181 34.5449C27.4861 34.5533 27.542 34.5703 27.59 34.5957V34.511C27.59 34.4094 27.562 34.3332 27.5021 34.2782C27.4461 34.2231 27.3581 34.1977 27.2462 34.1977C27.1622 34.1977 27.0823 34.2147 27.0063 34.2443C26.9303 34.2739 26.8504 34.3205 26.7664 34.3798L26.6385 34.1088C26.7384 34.0368 26.8424 33.986 26.9503 33.9522C27.0583 33.9183 27.1702 33.9014 27.2862 33.9014C27.5061 33.9014 27.674 33.9606 27.7979 34.0749C27.9219 34.1892 27.9818 34.3544 27.9818 34.566V35.0783C27.9818 35.1206 27.9898 35.1503 28.0018 35.1714C28.0178 35.1884 28.0418 35.2011 28.0738 35.2053V35.544C28.0378 35.5482 28.0058 35.5567 27.9778 35.5609C27.9498 35.5652 27.9259 35.5652 27.9059 35.5652C27.8259 35.5652 27.7699 35.5482 27.7299 35.5101C27.69 35.472 27.666 35.4254 27.654 35.3746L27.646 35.29C27.578 35.3831 27.4981 35.4508 27.3981 35.5017C27.2982 35.5525 27.1982 35.5779 27.0942 35.5779C26.9943 35.5779 26.9023 35.5567 26.8184 35.5101C26.7344 35.4635 26.6744 35.4043 26.6265 35.3281C26.5865 35.2307 26.5625 35.146 26.5625 35.0487ZM27.518 35.1291C27.538 35.1037 27.558 35.0825 27.57 35.0571C27.582 35.0317 27.59 35.0106 27.59 34.9894V34.8285C27.542 34.8073 27.4941 34.7946 27.4381 34.7819C27.3821 34.7692 27.3301 34.765 27.2822 34.765C27.1822 34.765 27.0982 34.7862 27.0303 34.8327C26.9663 34.8793 26.9303 34.9386 26.9303 35.0106C26.9303 35.0529 26.9423 35.091 26.9623 35.1249C26.9823 35.163 27.0143 35.1884 27.0543 35.2138C27.0942 35.2349 27.1422 35.2476 27.2022 35.2476C27.2622 35.2476 27.3181 35.2349 27.3741 35.2138C27.4301 35.1926 27.4821 35.163 27.518 35.1291Z" fill="#4D4D4D"/>
<path d="M28.4383 35.5226V34.2991H28.2344V33.9816H28.4383V33.8842C28.4383 33.7488 28.4583 33.6344 28.5022 33.5371C28.5462 33.4397 28.6022 33.3635 28.6822 33.3085C28.7581 33.2534 28.8501 33.228 28.954 33.228C29.018 33.228 29.078 33.2365 29.1419 33.2534C29.2059 33.2704 29.2699 33.2958 29.3299 33.3254L29.2499 33.6387C29.2219 33.6217 29.1859 33.609 29.1459 33.5963C29.106 33.5836 29.07 33.5794 29.034 33.5794C28.966 33.5794 28.9181 33.6048 28.8821 33.6556C28.8461 33.7064 28.8301 33.7784 28.8301 33.8715V33.9858H29.2059V34.3033H28.8301V35.5268H28.4383V35.5226Z" fill="#4D4D4D"/>
<path d="M30.1202 35.5564C29.9963 35.5564 29.8843 35.5352 29.7844 35.4886C29.6844 35.4421 29.6005 35.3828 29.5285 35.3066C29.4565 35.2304 29.4045 35.1415 29.3646 35.0441C29.3246 34.9467 29.3086 34.8409 29.3086 34.7308C29.3086 34.5784 29.3406 34.4387 29.4085 34.3117C29.4725 34.1847 29.5685 34.0831 29.6884 34.0069C29.8124 33.9307 29.9563 33.8926 30.1202 33.8926C30.2881 33.8926 30.4321 33.9307 30.552 34.0069C30.672 34.0831 30.7639 34.1847 30.8279 34.3117C30.8918 34.4387 30.9238 34.5742 30.9238 34.7181C30.9238 34.7435 30.9238 34.7689 30.9198 34.7943C30.9158 34.8197 30.9158 34.8409 30.9158 34.8578H29.7284C29.7364 34.9383 29.7604 35.0102 29.7964 35.0695C29.8323 35.1288 29.8843 35.1753 29.9443 35.2092C30.0043 35.2388 30.0682 35.2558 30.1362 35.2558C30.2162 35.2558 30.2881 35.2346 30.3561 35.1965C30.4241 35.1542 30.472 35.1034 30.5 35.0356L30.8359 35.133C30.7999 35.2177 30.7439 35.2897 30.676 35.3532C30.608 35.4167 30.524 35.4675 30.4321 35.5056C30.3361 35.5352 30.2322 35.5564 30.1202 35.5564ZM29.7204 34.5911H30.524C30.516 34.5107 30.496 34.4387 30.4601 34.3794C30.4241 34.3202 30.3761 34.2736 30.3161 34.2397C30.2561 34.2059 30.1922 34.1889 30.1202 34.1889C30.0482 34.1889 29.9843 34.2059 29.9283 34.2397C29.8723 34.2736 29.8244 34.3202 29.7884 34.3794C29.7484 34.4387 29.7284 34.5107 29.7204 34.5911Z" fill="#4D4D4D"/>
<path d="M29.0652 18.639L29.0532 19.1386C29.0532 19.4519 28.9533 19.7144 28.7773 19.9006H29.7449C29.9128 19.9006 30.0527 19.7567 30.0527 19.5746V18.4993C30.0527 18.3215 29.9168 18.1733 29.7449 18.1733H29.581C29.549 18.1776 29.521 18.186 29.489 18.1945C29.2851 18.2538 29.0692 18.4189 29.0652 18.639Z" fill="#4D4D4D"/>
<path d="M26.4627 19.6175L26.4507 19.609L26.4427 19.6005L25.2233 18.4617C25.0434 18.322 24.8395 18.2289 24.6236 18.1738H20.3176C20.1497 18.1738 20.0098 18.3178 20.0098 18.4998V19.5751C20.0098 19.7529 20.1457 19.9011 20.3176 19.9011H26.3868C26.5267 19.9011 26.5827 19.7191 26.4787 19.6259C26.4787 19.6259 26.4747 19.6259 26.4747 19.6217L26.4627 19.6175Z" fill="#4D4D4D"/>
<path d="M29.6889 20.2817H29.0851H27.4459H20.3692C20.0414 20.2817 19.7695 20.5654 19.7695 20.9125V21.446C19.7695 22.0895 20.3173 22.6144 20.989 22.6144H29.0652C29.7368 22.6144 30.2846 22.0895 30.2846 21.446V20.9168C30.2886 20.5654 30.0207 20.2817 29.6889 20.2817Z" fill="#4D4D4D"/>
<path d="M30.252 17.1111C29.9442 15.2018 27.6972 13.7666 25.0305 13.7666C22.3637 13.7666 20.1248 15.2018 19.8089 17.1069C19.789 17.2339 19.8049 17.3694 19.8649 17.4837C19.9689 17.6784 20.1608 17.7969 20.3727 17.7969H24.2708C24.6867 17.7969 25.0905 17.9409 25.4223 18.2076L26.6497 19.3507C26.6577 19.3549 26.6617 19.3591 26.6657 19.3634C27.0615 19.7147 27.5373 19.901 27.9331 19.901C28.3889 19.901 28.7367 19.6555 28.7367 19.139L28.7487 18.6394C28.7567 18.2499 29.0726 17.9705 29.4044 17.8731C29.4484 17.8604 29.4924 17.852 29.5364 17.8435C29.7523 17.8012 29.9802 17.7673 30.1321 17.581C30.236 17.4498 30.28 17.2804 30.252 17.1111Z" fill="#4D4D4D"/>
<path d="M29.5364 17.8433C29.4924 17.8518 29.4484 17.8603 29.4044 17.873C29.0726 17.9661 28.7567 18.2455 28.7487 18.6393L28.7367 19.1388C28.7367 19.6553 28.3889 19.9009 27.9331 19.9009C27.5373 19.9009 27.0575 19.7146 26.6657 19.3632C26.6617 19.359 26.6537 19.3547 26.6497 19.3505L25.4223 18.2032C25.0905 17.9365 24.6867 17.7925 24.2708 17.7925H20.3727C20.1608 17.7925 19.9689 17.6782 19.8649 17.4793C19.8049 17.365 19.789 17.2295 19.8089 17.1025C20.1208 15.1974 22.3637 13.7622 25.0305 13.7622C27.6972 13.7622 29.9442 15.2016 30.252 17.1067C30.28 17.2761 30.236 17.4454 30.1321 17.5724C29.9802 17.7671 29.7523 17.801 29.5364 17.8433Z" fill="#4D4D4D"/>
</g>
<defs>
<clipPath id="clip0_729_1740">
<rect width="34" height="24" fill="white" transform="translate(8 13)"/>
</clipPath>
</defs>
</svg>
