<svg width="50" height="50" viewBox="0 0 50 50" fill="none" xmlns="http://www.w3.org/2000/svg">
<circle cx="25" cy="25" r="24.5" fill="white" stroke="#EA5A24"/>
<path d="M4.7937 28.2827L3.22656 24.0898H4.81905L5.5904 26.4853L6.3699 24.0898H7.96239L6.39525 28.2827H4.7937Z" fill="#4D4D4D"/>
<path d="M10.594 28.2822V27.8828C10.3677 28.1782 9.86977 28.3863 9.37002 28.3863C8.76707 28.3863 7.97852 27.9607 7.97852 27.0062C7.97852 25.9646 8.76707 25.6692 9.37002 25.6692C9.89783 25.6692 10.3759 25.8427 10.594 26.1296V25.6955C10.594 25.4001 10.3342 25.1742 9.83989 25.1742C9.43347 25.1854 9.04061 25.328 8.71637 25.582L8.20485 24.6192C8.74805 24.1672 9.50401 23.9854 10.116 23.9854C11.1219 23.9854 12.1023 24.3501 12.1023 25.747V28.2785L10.594 28.2822ZM10.594 27.145V26.9106C10.4935 26.7624 10.2319 26.6846 9.99923 26.6846C9.74755 26.6846 9.47051 26.7718 9.47051 27.0315C9.47051 27.2912 9.74755 27.37 9.99923 27.37C10.2337 27.3672 10.4935 27.2894 10.594 27.1422V27.145Z" fill="#4D4D4D"/>
<path d="M12.9414 28.2826V24.0869H14.4497V24.5473C14.7752 24.195 15.2204 23.9878 15.6909 23.9697V25.4633C15.5789 25.4313 15.463 25.4164 15.3469 25.4192C15.0282 25.4192 14.6181 25.5064 14.4497 25.7145V28.2826H12.9414Z" fill="#4D4D4D"/>
<path d="M19.1791 27.6467L19.1284 27.2069C19.0107 27.3959 18.8539 27.5553 18.6692 27.6735C18.4846 27.7917 18.2768 27.8658 18.061 27.8904C17.0869 28.0114 16.2005 27.3523 16.0349 25.9215C15.8746 24.5424 16.5645 23.6442 17.5549 23.5204C17.7704 23.4884 17.9901 23.508 18.1971 23.5778C18.4042 23.6475 18.593 23.7655 18.7491 23.9226L18.5137 21.8975L20.012 21.71L20.6774 27.4582L19.1791 27.6467ZM18.998 26.095L18.8758 25.0262C18.7138 24.863 18.4231 24.803 18.2203 24.8283C17.812 24.879 17.5051 25.2137 17.5649 25.7312C17.6246 26.2487 18.0013 26.5075 18.4087 26.4569C18.5254 26.4405 18.6378 26.4 18.7392 26.3378C18.8406 26.2757 18.9289 26.1931 18.9989 26.095H18.998Z" fill="#4D4D4D"/>
<path d="M20.9277 26.1782C20.9277 24.9594 21.824 23.9824 23.1322 23.9824C24.3219 23.9824 25.2353 24.8675 25.2353 26.3432V26.6648H22.4867C22.57 26.9339 22.8633 27.1936 23.3586 27.1936C23.584 27.1936 24.0874 27.0811 24.2884 26.8992L24.9085 27.8621C24.5065 28.2184 23.7859 28.3834 23.182 28.3834C21.9164 28.3834 20.9277 27.5583 20.9277 26.1782ZM23.1313 25.1713C22.6696 25.1713 22.5193 25.4835 22.4686 25.6747H23.8013C23.7651 25.4929 23.6184 25.1713 23.1313 25.1713Z" fill="#4D4D4D"/>
<path d="M25.7578 28.2825V22.4893H27.267V28.2825H25.7578Z" fill="#4D4D4D"/>
<path d="M28.0098 22.9064C28.0098 22.733 28.0594 22.5635 28.1524 22.4194C28.2454 22.2752 28.3776 22.1629 28.5323 22.0965C28.687 22.0302 28.8572 22.0128 29.0214 22.0466C29.1856 22.0805 29.3364 22.1639 29.4548 22.2865C29.5732 22.4091 29.6538 22.5653 29.6865 22.7354C29.7191 22.9054 29.7024 23.0817 29.6383 23.2419C29.5742 23.4021 29.4657 23.539 29.3265 23.6353C29.1873 23.7316 29.0237 23.783 28.8563 23.783C28.745 23.7834 28.6348 23.761 28.5319 23.7171C28.429 23.6731 28.3356 23.6086 28.2569 23.5271C28.1782 23.4456 28.1159 23.3489 28.0735 23.2423C28.0311 23.1358 28.0094 23.0216 28.0098 22.9064ZM28.1003 28.2796V24.0868H29.6095V28.2825L28.1003 28.2796Z" fill="#4D4D4D"/>
<path d="M31.4714 28.2827L29.9043 24.0898H31.4968L32.2681 26.4853L33.0476 24.0898H34.6401L33.0721 28.2827H31.4714Z" fill="#4D4D4D"/>
<path d="M34.6562 26.1782C34.6562 24.9594 35.5534 23.9824 36.8608 23.9824C38.0513 23.9824 38.9648 24.8675 38.9648 26.3432V26.6648H36.2152C36.2994 26.9339 36.5928 27.1936 37.0871 27.1936C37.3134 27.1936 37.8159 27.0811 38.0178 26.8992L38.6379 27.8621C38.2351 28.2184 37.5144 28.3834 36.9105 28.3834C35.6449 28.3834 34.6562 27.5583 34.6562 26.1782ZM36.8608 25.1713C36.3999 25.1713 36.2487 25.4835 36.199 25.6747H37.5316C37.4891 25.4929 37.3451 25.1713 36.8608 25.1713Z" fill="#4D4D4D"/>
<path d="M39.4844 28.2826V24.0869H40.9927V24.5473C41.3182 24.195 41.7634 23.9878 42.2339 23.9697V25.4633C42.1222 25.4312 42.0066 25.4163 41.8908 25.4192C41.5721 25.4192 41.1611 25.5064 40.9936 25.7145V28.2826H39.4844Z" fill="#4D4D4D"/>
<path d="M42.9195 28.5226C43.0186 28.5734 43.1276 28.6 43.2382 28.6004C43.5315 28.6004 43.7162 28.5488 43.766 28.4354L43.7995 28.3491L42.207 24.0869H43.7995L44.5709 26.4824L45.3504 24.0869H46.941L45.1811 28.8001C44.8189 29.7724 44.1499 29.9542 43.2952 29.9805C43.098 29.9768 42.9016 29.9536 42.7086 29.9111L42.9195 28.5226Z" fill="#4D4D4D"/>
</svg>
