<svg width="50" height="50" viewBox="0 0 50 50" fill="none" xmlns="http://www.w3.org/2000/svg">
<circle cx="25" cy="25" r="24.5" fill="white" stroke="#EA5A24"/>
<path d="M4 23.5254H5.36352L6.5523 26.9342L7.74109 23.5254H9.03013L7.19969 28.4051H5.81612L4 23.5254Z" fill="#4D4D4D"/>
<path d="M12.1242 27.7335C11.9375 27.9781 11.6953 28.1748 11.4177 28.3075C11.1401 28.4403 10.8349 28.5052 10.5273 28.4969C9.6507 28.4969 8.95176 27.9913 8.95176 27.056C8.95176 26.0534 9.81112 25.6624 10.8323 25.429L12.0784 25.1425C11.971 24.6556 11.6401 24.4507 11.1431 24.4507C10.5888 24.4507 10.2279 24.6942 10.0918 25.1912L8.91309 24.9764C9.15657 24.0511 9.93572 23.4009 11.1632 23.4009C12.4594 23.4009 13.3116 24.0826 13.3116 25.4462V28.388H12.2202L12.1242 27.7335ZM10.7908 27.4943C11.4425 27.4943 12.1056 27.0761 12.1056 26.1895V26.0821L10.9068 26.3685C10.4972 26.4659 10.205 26.612 10.205 26.973C10.205 27.3339 10.4399 27.4943 10.7908 27.4943Z" fill="#4D4D4D"/>
<path d="M14.1709 23.5253H15.331L15.3998 24.0982C15.5518 23.8857 15.754 23.714 15.9884 23.5986C16.2228 23.4831 16.4821 23.4274 16.7433 23.4365C16.9047 23.4355 17.0654 23.4582 17.2202 23.5038L17.077 24.7127C16.9119 24.6702 16.7418 24.6504 16.5714 24.6539C15.9283 24.6539 15.4112 25.0922 15.4112 25.8914V28.4036H14.1709V23.5253Z" fill="#4D4D4D"/>
<path d="M19.8818 24.6066L19.2101 28.4049H17.9726L18.6443 24.6066H17.3682L17.4369 24.217L18.0986 23.5252H18.8391L18.9566 22.862C19.1714 21.5959 20.0565 21.0001 21.0706 21.0001C21.3863 20.997 21.6987 21.0635 21.9858 21.1949L21.5475 22.219C21.4128 22.1574 21.2659 22.1271 21.1178 22.1302C20.8849 22.1177 20.6561 22.1962 20.4798 22.349C20.3035 22.5018 20.1934 22.717 20.1725 22.9494L20.0752 23.5223H21.7609L21.5747 24.6037L19.8818 24.6066Z" fill="#4D4D4D"/>
<path d="M21.2031 26.3398C21.2031 24.8302 22.3489 23.418 24.019 23.418C24.6033 23.418 25.1003 23.6128 25.4412 24.1341L25.636 23.5211H26.746L25.8866 28.4008H24.7967L24.8253 27.7979C24.6285 28.025 24.3836 28.2055 24.1084 28.3264C23.8332 28.4473 23.5345 28.5055 23.2341 28.4968C21.9765 28.4968 21.2031 27.616 21.2031 26.3398ZM25.0803 25.7067C25.0803 24.9906 24.7093 24.528 23.9989 24.528C23.0737 24.528 22.4306 25.3272 22.4306 26.2338C22.4306 26.9342 22.8202 27.4025 23.522 27.4025C24.4615 27.4025 25.0846 26.5933 25.0846 25.7067H25.0803Z" fill="#4D4D4D"/>
<path d="M27.6657 23.5253H28.7185V24.0022C28.893 23.8132 29.1057 23.6633 29.3425 23.5626C29.5793 23.4618 29.8347 23.4125 30.092 23.4179C30.3586 23.4124 30.6213 23.4826 30.8495 23.6206C31.0777 23.7585 31.262 23.9584 31.381 24.197C31.5739 23.9506 31.8211 23.7521 32.1033 23.6169C32.3856 23.4817 32.6952 23.4136 33.0081 23.4179C34.0307 23.4179 34.7626 24.2171 34.5277 25.5219L34.0222 28.405H32.7904L33.2874 25.552C33.4034 24.8988 33.1112 24.5279 32.5856 24.5279C32.0599 24.5279 31.6403 24.9089 31.5243 25.6007L31.0273 28.405H29.797L30.294 25.552C30.42 24.8988 30.1178 24.5279 29.6022 24.5279C29.1152 24.5279 28.6669 24.8502 28.5595 25.4932L28.0439 28.405H26.8164L27.6657 23.5253Z" fill="#4D4D4D"/>
<path d="M35.6932 23.5239H36.9306L36.0727 28.4051H34.8252L35.6932 23.5239Z" fill="#4D4D4D"/>
<path d="M36.5795 21.265C36.7267 21.2659 36.8704 21.3103 36.9924 21.3926C37.1145 21.4749 37.2095 21.5915 37.2654 21.7277C37.3214 21.8638 37.3358 22.0135 37.3069 22.1579C37.2779 22.3022 37.2069 22.4348 37.1028 22.5389C36.9987 22.643 36.8662 22.714 36.7218 22.7429C36.5775 22.7718 36.4278 22.7574 36.2916 22.7015C36.1554 22.6455 36.0389 22.5505 35.9565 22.4285C35.8742 22.3064 35.8298 22.1628 35.829 22.0155C35.8241 21.9157 35.8401 21.8159 35.8761 21.7226C35.9121 21.6293 35.9672 21.5446 36.0379 21.4739C36.1086 21.4032 36.1933 21.3481 36.2866 21.3121C36.3799 21.2761 36.4796 21.2601 36.5795 21.265Z" fill="#4D4D4D"/>
<path d="M38.2642 21.0991H39.5117L38.2226 28.4037H36.9766L38.2642 21.0991Z" fill="#4D4D4D"/>
<path d="M40.6524 23.5252L41.4802 26.7779L43.272 23.5238H44.6269L40.6037 30.5419H39.2588L40.6037 28.213L39.3361 23.5181L40.6524 23.5252Z" fill="#4D4D4D"/>
<path d="M47.0001 22.1476C47.0058 22.359 46.9483 22.5673 46.8349 22.7459C46.7215 22.9245 46.5574 23.0651 46.3636 23.1499C46.1699 23.2347 45.9552 23.2597 45.7471 23.2217C45.539 23.1838 45.347 23.0846 45.1956 22.9369C45.0442 22.7892 44.9403 22.5996 44.8973 22.3926C44.8542 22.1855 44.8739 21.9702 44.9539 21.7744C45.0339 21.5786 45.1704 21.4111 45.3461 21.2934C45.5219 21.1756 45.7287 21.113 45.9402 21.1135C46.078 21.1108 46.2149 21.1356 46.343 21.1863C46.4711 21.237 46.5878 21.3126 46.6865 21.4088C46.7851 21.5051 46.8636 21.6199 46.9174 21.7467C46.9713 21.8735 46.9994 22.0098 47.0001 22.1476ZM45.1382 22.1476C45.1349 22.2554 45.1534 22.3628 45.1926 22.4633C45.2318 22.5639 45.2909 22.6554 45.3663 22.7326C45.4417 22.8097 45.5319 22.8709 45.6315 22.9124C45.7311 22.9539 45.8381 22.9748 45.946 22.974C46.1567 22.9616 46.3548 22.8691 46.4996 22.7155C46.6445 22.5619 46.7251 22.3587 46.7251 22.1476C46.7251 21.9364 46.6445 21.7333 46.4996 21.5797C46.3548 21.426 46.1567 21.3336 45.946 21.3212C45.8382 21.3207 45.7315 21.342 45.6322 21.3836C45.5328 21.4252 45.4429 21.4864 45.3677 21.5635C45.2924 21.6406 45.2335 21.732 45.1943 21.8324C45.1551 21.9327 45.1365 22.0399 45.1396 22.1476H45.1382ZM45.7755 22.6904H45.5349V21.6549C45.6663 21.6319 45.7996 21.6214 45.9331 21.6234C46.0577 21.6132 46.1826 21.6396 46.2926 21.6993C46.3253 21.7272 46.3514 21.7623 46.3687 21.8017C46.3861 21.8411 46.3943 21.8839 46.3928 21.927C46.3885 21.9848 46.3652 22.0395 46.3267 22.0828C46.2881 22.126 46.2363 22.1553 46.1794 22.1662V22.1791C46.2309 22.1999 46.2757 22.2344 46.309 22.2788C46.3423 22.3232 46.3629 22.3759 46.3685 22.4312C46.3787 22.5213 46.4043 22.609 46.4444 22.6904H46.1851C46.1456 22.6104 46.1181 22.525 46.1035 22.4369C46.0849 22.3237 46.0204 22.2736 45.8887 22.2736H45.7755V22.6904ZM45.7755 22.1032H45.8887C46.0219 22.1032 46.1293 22.0588 46.1293 21.9513C46.1293 21.8439 46.0591 21.7938 45.9087 21.7938C45.864 21.7933 45.8193 21.7976 45.7755 21.8067V22.1032Z" fill="#4D4D4D"/>
</svg>
