<svg width="82" height="130" viewBox="0 0 82 130" fill="none" xmlns="http://www.w3.org/2000/svg">
<path d="M71.6212 39.4291C71.6212 39.4291 71.6186 39.4196 71.6178 39.4164L71.3726 40.0198C71.3662 39.9962 71.3688 39.9684 71.3656 39.9439L71.3725 39.9201C71.424 39.7952 71.4583 39.6637 71.4746 39.5292C71.5443 39.2936 71.5581 39.0443 71.5148 38.8015C70.5653 35.37 71.0425 36.6843 70.1101 34.7108C68.2811 30.8351 65.9432 27.0705 63.7277 23.4455C62.395 21.2664 61.0832 19.0596 59.7198 16.8904C58.8742 15.5209 58.0151 14.1634 57.1125 12.8547C56.0251 11.2862 54.9118 9.73304 53.7842 8.18879L53.6478 7.99709C53.6276 7.9653 53.6074 7.93352 53.5887 7.90132C53.292 7.34169 52.989 6.78545 52.6796 6.23259C52.9973 5.86793 53.3505 5.53653 53.7338 5.24336C53.7484 5.22931 53.7164 5.17868 53.6451 5.11157C53.7124 5.05801 53.7817 4.99888 53.8499 4.94848C53.8741 4.92678 53.7861 4.82862 53.6308 4.691C53.6789 4.65274 53.7251 4.61332 53.7756 4.5778L53.8002 4.55768C53.8325 4.52874 53.7055 4.39707 53.4941 4.21193C53.5734 4.20927 53.6569 4.19705 53.7315 4.19564L53.4434 4.02262C53.4567 3.98313 53.4642 3.9418 53.4656 3.9C53.5274 3.82284 53.5649 3.7286 53.5734 3.62934C53.5819 3.53008 53.5608 3.43033 53.513 3.34283C53.4997 3.32054 53.485 3.29905 53.4691 3.27851C53.4658 3.26589 53.4752 3.25152 53.4765 3.23765C53.5118 3.16045 53.5303 3.07637 53.5308 2.99109C53.5312 2.9058 53.5136 2.82129 53.4791 2.74322C53.4664 2.59615 53.321 2.42713 53.113 2.2546C53.0421 2.06424 52.9085 1.9041 52.7348 1.80136C52.6478 1.69656 52.5452 1.60595 52.431 1.53277C52.4223 1.46506 52.4088 1.39804 52.3906 1.33223C52.3564 1.11143 51.5092 0.657046 51.4351 0.610948C51.1725 0.446286 50.6875 0.0301281 50.3702 0.0660991C50.2305 0.0798701 50.0929 0.101523 49.954 0.11845L49.92 0.103876L49.8226 0.119836C49.8133 0.122338 49.8012 0.108655 49.7886 0.105263L49.6654 0.124747C49.5068 0.0543144 49.3338 0.0240472 49.1615 0.0365843C48.8986 0.0698393 48.6382 0.112556 48.3767 0.157271C48.358 0.162274 48.3378 0.149093 48.3183 0.150941C48.2204 0.165332 48.1242 0.186035 48.0267 0.202003C47.8704 0.0985722 47.6939 0.0304787 47.5096 0.0024008L47.2233 0.0791114C47.1484 0.048567 47.0712 0.0245882 46.9923 0.00743725C46.8992 0.0459081 46.8019 0.0686072 46.7067 0.0991902C46.6303 0.0681937 46.552 0.0422826 46.4724 0.0216218C46.1308 0.187763 45.7593 0.282711 45.3798 0.300859C43.2982 0.802249 41.2226 1.32968 39.1527 1.88316C34.0581 3.20205 28.966 4.5304 23.8765 5.86821C23.7988 5.85208 23.7182 5.8641 23.6488 5.90217L23.6241 5.92231C23.5913 5.9222 23.5591 5.93082 23.5308 5.94732L23.5214 5.94982L23.3285 6.00152C22.9311 6.02414 22.537 6.08557 22.1518 6.18493C21.0877 6.36298 20.0234 6.52585 18.9589 6.67356C16.0646 7.07541 13.1476 7.43601 10.2183 7.33999C9.69615 7.17476 9.19111 6.95781 8.7105 6.6923C8.64439 6.61363 8.57984 6.53456 8.51713 6.44991C8.30275 6.12359 7.99638 5.86974 7.6382 5.72165C7.59059 5.66846 7.54923 5.6136 7.49894 5.56283C7.45845 5.53496 7.41019 5.52117 7.36146 5.52355C7.31273 5.52592 7.26618 5.54434 7.22893 5.57599C6.65743 5.88299 6.0039 6.33202 5.61193 6.85468C5.4502 7.10605 5.35219 7.39415 5.32645 7.69374C5.26222 7.80775 5.22113 7.93371 5.20559 8.06429C5.18167 8.09475 5.15958 8.12664 5.13944 8.15979C5.03294 8.26036 4.94688 8.38104 4.88607 8.51512C4.86487 8.64761 4.8362 8.77703 4.81189 8.91036C4.75653 8.97761 4.69875 9.04213 4.65031 9.12274C4.63166 9.24609 4.60439 9.36838 4.58263 9.49257C4.55324 9.60696 4.52695 9.72053 4.49757 9.83492C4.4372 9.89111 4.38164 9.95238 4.33149 10.0181C4.20617 10.1445 4.12721 10.3105 4.10747 10.489L4.084 10.6069L4.07252 10.6201C3.96301 10.8408 3.87644 11.0725 3.81418 11.3115C3.69799 11.4067 3.61329 11.5355 3.57127 11.681L3.55136 11.8182C3.44069 11.9143 3.35884 12.0398 3.31497 12.1808C3.28761 14.114 2.6881 16.1464 2.37584 18.0122C2.12498 19.5656 1.89038 21.1299 1.67133 22.6901C0.510294 30.9734 0.332995 39.3618 0.180922 47.7197C0.140609 50.0216 -0.0718682 52.378 0.371503 54.6551C1.042 58.0786 2.74941 61.488 5.27449 63.9158C5.62106 64.2507 5.98704 64.5585 6.36024 64.8558C7.2194 65.5664 8.1429 66.1931 9.11823 66.7274C10.7679 67.6246 12.4372 68.0227 14.2567 68.3586C20.4221 69.4964 26.5605 70.7886 32.7074 72.0379C34.0209 72.3031 35.4388 72.7585 36.7913 72.8391C37.1742 72.8616 37.5724 72.8851 37.967 72.9383C37.9973 73.1635 38.0362 73.3898 38.0834 73.6156C38.1081 73.7949 38.1348 73.9755 38.1629 74.1489C38.551 75.5102 38.9002 76.882 39.2106 78.2643L39.9826 80.9589C40.2544 81.9107 40.5285 82.8613 40.8052 83.8107C40.8546 83.9953 40.9037 84.1783 40.9605 84.3592C42.912 91.051 44.6729 97.7973 46.4645 104.527C47.032 106.695 47.6279 108.854 48.2521 111.006C48.2967 111.72 48.5388 112.408 48.9509 112.991C49.0339 113.189 49.1238 113.381 49.2229 113.564C49.0859 113.812 48.9434 114.058 48.7941 114.298L48.3926 114.406L48.1141 114.48C47.4668 114.654 46.8185 114.817 46.1656 114.97L45.6523 115.133L37.9998 117.153C37.5984 117.223 37.2011 117.284 36.796 117.347C36.6213 117.374 36.4462 117.399 36.2717 117.432C35.5937 117.532 34.915 117.628 34.2355 117.719C33.4308 117.828 32.4447 117.838 31.6286 117.998C29.8186 118.351 27.9438 119.57 27.6366 121.511C27.6541 121.659 27.721 121.797 27.8263 121.901C27.8203 121.935 27.8064 121.964 27.802 121.997C27.8035 122.07 27.8258 122.14 27.8663 122.2C27.8526 122.261 27.8315 122.319 27.8214 122.381C27.8162 122.459 27.8269 122.538 27.8528 122.612C27.8787 122.686 27.9193 122.755 27.972 122.812C27.9806 122.927 28.021 123.037 28.0886 123.13C28.0848 123.153 28.075 123.172 28.0712 123.195C28.0622 123.34 28.1071 123.483 28.197 123.596C28.2195 123.745 28.2836 123.885 28.3818 124C28.4021 124.078 28.4339 124.152 28.4762 124.221C28.5017 124.397 28.5789 124.561 28.6976 124.693C28.7052 124.721 28.712 124.746 28.7356 124.772C28.7784 125.268 29.62 125.888 29.906 126.19C30.2991 126.611 30.6984 127.025 31.1042 127.431C31.3687 127.733 31.6689 128.001 31.9982 128.228L32.2047 128.308C32.2937 128.379 32.3789 128.454 32.4714 128.519C33.4869 128.947 34.5483 129.252 35.6332 129.427C36.7558 129.589 38.9227 129.56 40.0207 129.494C44.0039 129.272 47.9034 128.52 51.839 127.952L51.4141 127.748C51.6601 127.819 51.9107 127.872 52.1639 127.907C55.3071 127.305 58.4067 126.496 61.4431 125.485C62.2868 125.174 63.1405 124.888 64.0041 124.63C66.4355 123.826 68.8239 122.897 71.1601 121.847C73.3518 121.767 75.5152 121.737 77.7085 122.011C78.5315 122.114 79.1769 121.946 79.9377 121.617C80.8345 121.229 81.2587 120.516 81.6842 119.658C81.6762 119.628 81.6681 119.598 81.6601 119.568L81.7675 119.346C81.7507 119.228 81.7197 119.112 81.6749 119.001L81.7065 118.938C81.6856 118.661 81.577 118.398 81.397 118.187L81.3923 118.17C81.4047 118.141 81.4198 118.117 81.4322 118.088C81.4384 117.98 81.4234 117.872 81.3879 117.77C81.3525 117.668 81.2975 117.573 81.2259 117.493C81.1716 117.402 81.1136 117.317 81.0594 117.226C81.063 117.097 81.0707 116.951 81.0829 116.779C81.1042 116.497 80.9265 116.195 80.7119 115.911C80.5714 115.654 80.407 115.412 80.2211 115.187C80.085 114.958 79.9376 114.736 79.7795 114.522C79.6385 114.322 79.482 114.133 79.3114 113.958C79.098 113.653 78.8596 113.367 78.6298 113.282C78.5396 113.187 78.4489 113.092 78.351 113.006C78.2028 112.951 78.0532 112.903 77.9032 112.854C77.8046 112.741 77.6868 112.647 77.5554 112.577C77.4975 112.554 77.4416 112.538 77.3837 112.515C77.3281 112.463 77.2687 112.417 77.206 112.375C77.0898 112.333 76.9726 112.3 76.8562 112.264C76.8355 112.249 76.8203 112.229 76.7985 112.217C72.2809 110.83 67.7322 111.525 63.1011 111.968C61.875 112.085 60.5221 112.332 59.2913 112.195C58.614 112.12 58.0315 112.075 57.565 111.591C57.5396 111.496 57.5143 111.402 57.4889 111.307C57.0362 111.148 56.6152 110.907 56.2463 110.597C56.2622 110.434 56.2695 110.27 56.2681 110.106C56.2587 109.706 56.2078 109.307 56.1164 108.917C56.1097 108.817 56.1123 108.715 56.1021 108.615C56.0919 108.514 56.065 108.42 56.0454 108.322C56.0307 107.794 55.9409 107.27 55.7788 106.767C55.6099 106.324 55.4423 105.878 55.2734 105.435C54.9724 103.863 54.5371 102.32 53.9725 100.823C52.0158 95.2194 50.5655 89.4145 48.9193 83.7129C47.933 80.0319 46.8535 76.3849 45.6808 72.7719C45.6461 72.6425 45.5959 72.5173 45.555 72.3896C45.6727 72.1422 45.8264 71.9141 46.0108 71.7129C46.7372 70.8825 47.755 70.3799 48.5584 69.6252C49.5344 68.7279 50.5559 67.8824 51.6189 67.0924C54.3699 64.7117 57.1496 62.3657 59.9581 60.0542C62.6454 57.9088 65.6666 55.8024 67.9122 53.1413C69.1789 51.6369 70.1559 49.9049 70.7932 48.034C71.8046 45.193 72.1311 42.1443 71.7457 39.1404L71.6212 39.4291ZM37.7103 121.419L37.8114 121.392L37.9346 121.335L38.8059 121.02L43.3765 119.679L48.2734 118.274L52.0201 117.568C52.1884 117.692 52.366 117.813 52.5602 117.94C53.3374 118.45 54.1599 118.885 55.0165 119.24C55.3553 119.396 55.705 119.525 56.0627 119.628C56.6286 119.834 57.2224 119.95 57.8225 119.971L58.0187 120.125L58.4693 120.474C57.7165 120.596 56.9627 120.709 56.2088 120.752C53.298 120.955 49.4801 122.086 47.0282 122.726C46.7851 122.622 46.527 122.559 46.2641 122.539L46.1515 122.542C46.0951 122.531 46.0377 122.525 45.9803 122.525C45.6721 122.545 45.3657 122.553 45.0582 122.551C44.872 122.547 44.6849 122.539 44.4993 122.532C44.3138 122.524 44.1745 122.521 44.0139 122.506C42.5016 122.597 40.995 122.742 39.494 122.941C37.7621 123.114 36.021 123.186 34.2795 123.155L36.2422 121.953L37.7103 121.419ZM67.4877 119.189C67.5995 119.171 67.712 119.161 67.8243 119.144C67.2147 119.265 66.6015 119.367 65.9879 119.467C66.4885 119.369 66.9884 119.274 67.4885 119.192L67.4877 119.189ZM3.80616 56.7056C3.53105 56.3866 3.28452 56.0435 3.06952 55.6805C2.81934 55.2063 2.5976 54.7175 2.40545 54.2167C2.34455 54.0267 2.28292 53.8403 2.2387 53.6442C2.09564 53.1601 1.98169 52.685 1.88529 52.207C1.85796 51.9556 1.83206 51.6971 1.81068 51.4306C1.88573 50.7646 1.94991 50.0976 2.00327 49.4295C2.05109 49.1225 2.10799 48.8181 2.16444 48.5121C2.56901 46.8228 2.63256 46.1886 2.92447 43.307C3.5685 36.9967 3.70388 30.6554 4.64926 24.3743L5.61165 18.4741C5.95086 16.9641 6.34686 15.4709 6.79964 13.9947C7.01845 13.2428 7.24756 12.4983 7.46764 11.7512L11.1347 11.0154C13.5552 10.7749 15.9827 10.6227 18.4172 10.5588C19.7634 10.4664 21.1093 10.3628 22.455 10.2479C23.0204 10.186 23.5856 10.1479 24.1516 10.1315C24.6857 10.4381 25.2164 10.7507 25.7558 11.0458C25.9031 11.1526 26.0679 11.2321 26.2423 11.2807C26.4647 11.4256 26.7173 11.5155 26.9797 11.543L34.7148 9.47039C34.8606 9.50403 35.0052 9.53968 35.1527 9.56103C38.0483 8.74908 40.9566 7.96982 43.8774 7.22324C45.8819 6.71208 47.8839 6.18749 49.8833 5.64948C49.9733 5.61184 50.0647 5.58566 50.1535 5.55002C50.2643 5.70803 50.3738 5.86805 50.483 6.02648C51.9252 8.32169 53.2966 10.6596 54.5971 13.0401C55.0405 13.9358 55.4595 14.8414 55.8538 15.757C56.1671 16.6402 56.503 17.514 56.8613 18.3783C57.0895 19.0121 57.3418 19.6361 57.6254 20.2465C58.4132 22.2193 59.3923 24.1092 60.5481 25.8885C61.4903 27.7451 62.4324 29.6011 63.3743 31.4566C63.6362 31.9174 63.8834 32.3855 64.1379 32.8499C64.8287 34.1831 65.5153 35.5175 66.1978 36.853C66.3072 37.0807 66.4092 37.3121 66.5155 37.5406C66.6828 38.003 66.8362 38.4573 66.9735 38.9261C66.9863 38.9429 66.998 38.9618 67.0097 38.9806C67.0233 39.0311 67.045 39.0811 67.0614 39.1359C67.1597 39.2786 67.2468 39.4108 67.3289 39.5495C67.5099 40.2247 67.6683 40.9093 67.8038 41.6017C67.8104 41.9127 67.8295 42.2204 67.8556 42.5296C67.7914 42.712 67.7417 42.8994 67.7073 43.0901C67.6799 43.9813 67.4885 44.8583 67.1427 45.6762L56.5203 55.4278C53.6584 57.2505 50.8988 59.2317 48.254 61.3625L44.3668 64.401C43.8454 64.7892 43.0818 65.3878 42.2825 65.9587C42.134 65.8368 41.9776 65.7251 41.8143 65.6243C40.618 65.1199 39.3525 64.8069 38.0635 64.6967L37.8908 64.743L37.8284 64.7343C36.9281 64.9726 36.0076 65.127 35.0785 65.1956C33.431 64.8108 31.7705 64.4977 30.097 64.2562C24.2922 63.2382 18.5484 61.8876 12.7462 60.8604C10.932 60.7206 9.1461 60.3115 7.446 59.6463C6.07728 59.0071 4.8655 58.0665 3.89988 56.8935C3.88 56.838 3.84046 56.7776 3.80616 56.7056Z" fill="#B6C5CD"/>
</svg>
