<svg width="26" height="20" viewBox="0 0 26 20" fill="none" xmlns="http://www.w3.org/2000/svg">
    <path fill-rule="evenodd" clip-rule="evenodd"
        d="M14.0441 2.374C12.2778 2.11693 10.2379 2.29731 8.33327 2.56637C8.15525 2.59151 7.93922 2.61445 7.74934 2.6346C7.64088 2.64612 7.54096 2.65673 7.46151 2.66632C7.19772 2.69819 6.98397 2.73515 6.79625 2.79294C6.49688 2.88511 6.19698 2.9963 5.8685 3.11948C5.85014 3.12637 5.83168 3.1333 5.81313 3.14026C5.5084 3.25461 5.17723 3.37888 4.83828 3.48741C4.54306 3.58194 4.22339 3.62921 4.0128 3.66035C3.96353 3.66764 3.92023 3.67404 3.88462 3.67996C3.65892 3.71746 3.51816 3.75734 3.38188 3.83509C3.01304 4.04554 2.80571 4.44717 2.75902 5.15994C2.72082 5.74315 2.8006 6.33317 2.87597 6.89058C2.89521 7.03284 2.91415 7.17296 2.93078 7.31031C2.94372 7.41719 2.95541 7.51855 2.96661 7.61575C3.00803 7.97496 3.04289 8.27721 3.10991 8.58994C3.12735 8.67127 3.13046 8.73831 3.13105 8.75102L3.13112 8.7523C3.13227 8.77576 3.13239 8.79476 3.1324 8.80482C3.1324 8.82573 3.13181 8.84363 3.13145 8.8534C3.13066 8.87466 3.12941 8.89682 3.12828 8.91526C3.12591 8.95387 3.12241 9.003 3.11844 9.0559C3.11041 9.16292 3.09928 9.30094 3.08816 9.43574C3.077 9.57107 3.06566 9.7053 3.05714 9.80555L3.04289 9.97201L3.03734 10.0363C3.0374 10.057 3.03762 10.0827 3.03808 10.114C3.04014 10.2531 3.04607 10.4482 3.0534 10.6586C3.05776 10.7839 3.06284 10.9193 3.06773 11.0497C3.07817 11.3278 3.08776 11.5833 3.08776 11.6707C3.08776 11.8977 3.08409 12.1209 3.08046 12.3426C3.0724 12.8334 3.06447 13.3168 3.09669 13.8173C3.14272 14.5323 3.26648 15.0979 3.4997 15.4962C3.60364 15.6737 3.80326 15.8852 4.10213 16.1124C4.39277 16.3333 4.72767 16.5319 5.04484 16.6994C5.77257 17.0839 6.68148 17.2773 7.61153 17.3086C8.3908 17.3349 9.17061 17.3931 9.92677 17.4496C9.98771 17.4541 10.0485 17.4587 10.1091 17.4632C10.9302 17.5243 11.7248 17.5804 12.511 17.5959C12.9748 17.6051 13.4424 17.6333 13.8937 17.6622C13.9468 17.6656 13.9997 17.669 14.0523 17.6724C14.4533 17.6982 14.8409 17.7232 15.2273 17.7376C16.1029 17.7703 16.8985 17.7447 17.6258 17.5701C17.9463 17.4931 18.2443 17.427 18.5329 17.3629C18.9718 17.2654 19.3887 17.1729 19.8293 17.0546C20.0377 16.9987 20.2064 16.9588 20.3614 16.9223C20.5715 16.8726 20.7561 16.829 20.9793 16.7596C21.3137 16.6555 21.5301 16.5452 21.6744 16.4165C21.8074 16.2979 21.9023 16.2185 21.9873 16.1475C22.0877 16.0635 22.174 15.9912 22.2927 15.8798C22.4649 15.7181 22.5538 15.6027 22.5983 15.5132C22.7357 15.2373 22.7866 14.9891 22.8672 14.5958C22.891 14.4798 22.9173 14.3511 22.9493 14.2053C23.0218 13.8742 23.032 13.545 23.0444 13.1413C23.0506 12.943 23.0572 12.7266 23.0721 12.4832C23.0954 12.1031 23.1267 11.7614 23.1565 11.4369C23.2041 10.9173 23.2477 10.4418 23.2477 9.92349C23.2477 9.84477 23.2479 9.7689 23.248 9.69564C23.2499 8.7068 23.2509 8.19456 22.8783 7.59803C22.7034 7.31795 22.5098 7.04793 22.2942 6.74703C22.277 6.72312 22.2598 6.69902 22.2423 6.67471C22.0132 6.35473 21.7616 6.00011 21.535 5.61735C21.5023 5.56206 21.4666 5.50302 21.429 5.44062C21.1941 5.05148 20.8805 4.53185 20.7011 3.9778C20.6803 3.91382 20.6662 3.85263 20.659 3.82052C20.6583 3.81738 20.6576 3.8142 20.6569 3.81098C20.2117 3.67295 19.79 3.50257 19.4119 3.34979C19.3697 3.33274 19.328 3.31591 19.2869 3.29936C18.724 3.07274 18.2467 2.89051 17.7649 2.79795C17.1994 2.68932 16.6149 2.63037 15.987 2.57521C15.9005 2.56761 15.813 2.56007 15.7245 2.55245C15.1852 2.506 14.6116 2.4566 14.0441 2.374ZM1.05671 9.72525L1.06433 9.63602C1.07278 9.53674 1.08396 9.40433 1.09493 9.2713C1.10595 9.13774 1.11659 9.00566 1.12405 8.90623C1.12494 8.89437 1.12577 8.88318 1.12654 8.87268C1.05451 8.50066 1.01195 8.12874 0.974269 7.79945C0.964417 7.71335 0.954899 7.63017 0.945275 7.55066C0.934624 7.46268 0.920334 7.35909 0.904303 7.24289C0.827374 6.68527 0.710374 5.83719 0.763299 5.02921C0.828516 4.03359 1.1671 2.79612 2.39074 2.09796C2.82767 1.84866 3.23833 1.75992 3.5568 1.70701C3.66274 1.6894 3.74916 1.67637 3.82302 1.66523C3.99755 1.6389 4.10199 1.62315 4.2284 1.58267C4.51907 1.4896 4.80785 1.38127 5.12399 1.26268C5.13801 1.25742 5.15208 1.25214 5.16621 1.24684C5.49027 1.12531 5.84313 0.993748 6.20776 0.881486C6.56466 0.771605 6.91611 0.717673 7.22162 0.680763C7.37273 0.662507 7.49583 0.649772 7.6095 0.638013C7.75969 0.622476 7.89342 0.608642 8.05352 0.586026C9.98991 0.312488 12.2675 0.094365 14.3321 0.394852C14.8369 0.468318 15.3454 0.512223 15.8877 0.559053C15.9781 0.566864 16.0695 0.574756 16.162 0.58288C16.7944 0.638436 17.4678 0.704293 18.1422 0.833866C18.8379 0.967526 19.481 1.2215 20.0339 1.44409C20.0661 1.45705 20.0979 1.46989 20.1295 1.48263C20.668 1.69969 21.1217 1.88255 21.5865 1.99417C22.0275 2.10007 22.2523 2.42234 22.3376 2.56615C22.4353 2.73066 22.4901 2.89794 22.5209 3.00414C22.5542 3.11886 22.5779 3.22978 22.5925 3.29899C22.6038 3.35189 22.6089 3.37461 22.61 3.38049C22.7136 3.69066 22.8889 3.98376 23.1243 4.3774C23.1663 4.44769 23.2102 4.52118 23.256 4.59855C23.4331 4.89762 23.6376 5.18802 23.8683 5.51017C23.8872 5.53652 23.9063 5.56313 23.9256 5.59C24.1342 5.88099 24.3642 6.20164 24.5746 6.53849C25.267 7.64699 25.2574 8.73046 25.2494 9.64259C25.2485 9.73816 25.2477 9.83185 25.2477 9.92349C25.2477 10.5167 25.1893 11.1707 25.1365 11.7623C25.1095 12.0653 25.0839 12.3518 25.0684 12.6055C25.0616 12.7171 25.0572 12.8538 25.0524 13.0068C25.0375 13.4804 25.0176 14.1101 24.9029 14.6335C24.8864 14.709 24.8698 14.7922 24.8519 14.8817C24.7673 15.3061 24.6549 15.8699 24.3887 16.4046C24.1901 16.8035 23.9046 17.1096 23.662 17.3375C23.5333 17.4584 23.3395 17.6234 23.1894 17.7511C23.1112 17.8176 23.0449 17.8741 23.0057 17.9091C22.5535 18.3124 22.0254 18.5286 21.5737 18.6692C21.3103 18.7512 20.9778 18.8315 20.7042 18.8976C20.5642 18.9315 20.4397 18.9616 20.3478 18.9862C19.8791 19.112 19.3717 19.2252 18.8918 19.3323C18.6117 19.3948 18.3409 19.4552 18.0928 19.5148C17.1014 19.7529 16.0919 19.7713 15.1526 19.7362C14.7372 19.7207 14.3211 19.6939 13.9231 19.6682C13.8704 19.6648 13.818 19.6614 13.766 19.6581C13.3145 19.6292 12.8865 19.6038 12.4714 19.5955C11.624 19.5787 10.7793 19.5186 9.96074 19.4577C9.90222 19.4533 9.84385 19.449 9.78561 19.4446C9.02113 19.3876 8.28068 19.3323 7.54415 19.3075C6.40802 19.2692 5.18013 19.0329 4.11057 18.4678C3.74002 18.272 3.30139 18.0159 2.89196 17.7047C2.49076 17.3998 2.06377 17.002 1.77383 16.5068C1.30436 15.7051 1.15362 14.7659 1.10082 13.9458C1.06317 13.3609 1.07315 12.7414 1.08155 12.2195C1.08477 12.0198 1.08776 11.8344 1.08776 11.6707C1.08776 11.6707 1.08774 11.6678 1.08766 11.6626L1.08719 11.6395L1.08505 11.5646C1.08312 11.5038 1.08037 11.4267 1.07707 11.3377C1.07515 11.2858 1.07306 11.23 1.07086 11.1716C1.06562 11.032 1.05982 10.8779 1.05461 10.7282C1.04725 10.5169 1.04069 10.3044 1.0383 10.1436C1.03715 10.0659 1.03672 9.9858 1.03869 9.92001C1.03949 9.8933 1.04142 9.83697 1.04916 9.77598L1.04939 9.77414C1.05035 9.76645 1.0525 9.74922 1.05671 9.72525ZM9.02666 6.24989C9.02666 5.69761 9.47437 5.24989 10.0267 5.24989C10.8634 5.24989 11.6676 5.6719 12.1208 5.90973L12.1365 5.91799C13.0977 6.42222 13.9917 6.99521 14.8599 7.58839C15.0916 7.74667 15.3806 7.86225 15.7841 7.99819C15.8406 8.0172 15.9005 8.03697 15.9633 8.05766C16.2913 8.16579 16.6957 8.29908 17.0723 8.48153L17.0752 8.4825C17.1103 8.49409 17.1605 8.50996 17.2257 8.53026C17.2641 8.54223 17.3074 8.55564 17.3538 8.57C17.4571 8.60193 17.5754 8.63855 17.6887 8.67446C17.8512 8.72602 18.0302 8.78455 18.1717 8.83778C18.2364 8.86211 18.3278 8.89803 18.4129 8.94176C18.4456 8.95863 18.54 9.00763 18.6369 9.08968C18.6808 9.12684 18.7913 9.22498 18.8787 9.38721C18.978 9.57153 19.082 9.92054 18.9017 10.2988C18.8043 10.5032 18.6637 10.6176 18.624 10.6494C18.566 10.6959 18.515 10.7261 18.4888 10.7409C18.435 10.7713 18.3897 10.7901 18.3723 10.7973C18.3321 10.8138 18.2975 10.825 18.2832 10.8296C18.2489 10.8406 18.2141 10.8503 18.1892 10.8571C18.1353 10.8717 18.0705 10.888 18.0132 10.9022C17.9543 10.9167 17.8963 10.9307 17.8534 10.9409L17.8509 10.9415C17.5994 11.0405 17.3736 11.1422 17.1272 11.2531C16.9507 11.3326 16.7636 11.4168 16.5489 11.5083C16.0338 11.7278 15.5249 11.9685 14.9949 12.2192L14.9878 12.2226C14.4613 12.4717 13.9138 12.7306 13.3528 12.9685C12.6117 13.2828 11.866 13.6845 11.1304 14.1122C11.1242 14.1192 11.0916 14.1496 11.0311 14.2186C11.0008 14.2532 10.9752 14.2837 10.9486 14.3153C10.9409 14.3246 10.933 14.3339 10.925 14.3435L10.9239 14.3447C10.9114 14.3596 10.8853 14.3906 10.8593 14.4187L10.8585 14.4195C10.8512 14.4275 10.8041 14.4789 10.7399 14.5301C10.7195 14.5464 10.6815 14.5755 10.6305 14.6062C10.5926 14.629 10.4783 14.6959 10.3147 14.7295C10.1454 14.7642 9.74175 14.7906 9.40817 14.4589C9.12316 14.1756 9.113 13.8397 9.113 13.749C9.113 13.5736 9.07012 13.4436 8.9639 13.1215C8.94555 13.0659 8.9253 13.0045 8.90306 12.9362C8.58775 11.9673 8.49057 10.9964 8.40295 10.1209C8.39668 10.0582 8.39045 9.99597 8.38419 9.93426C8.34415 9.53934 8.35841 9.10432 8.36992 8.75338C8.37284 8.66422 8.37559 8.58049 8.37722 8.50422C8.38652 8.06937 8.36802 7.7743 8.29651 7.5492C8.12929 7.02284 8.42043 6.46059 8.94679 6.29337C8.97342 6.28491 9.00013 6.27762 9.02689 6.27148C9.02673 6.2643 9.02666 6.25711 9.02666 6.24989ZM10.2918 7.28953C10.3834 7.74108 10.3845 8.18537 10.3768 8.547C10.374 8.67655 10.3703 8.79509 10.3668 8.90528C10.3566 9.23082 10.3487 9.48355 10.374 9.73251C10.3785 9.77749 10.3831 9.8221 10.3875 9.86636C10.4696 10.6793 10.5396 11.3728 10.7229 12.0431C11.3155 11.7144 11.9369 11.3966 12.5718 11.1273C13.0893 10.9078 13.6006 10.6663 14.1325 10.4147L14.1559 10.4036C14.4981 10.2418 14.8491 10.0757 15.2066 9.91401C15.1866 9.90729 15.1662 9.90047 15.1456 9.89353C14.7278 9.75277 14.2091 9.56596 13.7317 9.23977C12.8933 8.66694 12.071 8.14214 11.2074 7.68906C10.8315 7.49187 10.5317 7.35331 10.2918 7.28953Z"
        fill="#FFFFFF" />
</svg>