<svg width="475" height="396" viewBox="0 0 475 396" fill="none" xmlns="http://www.w3.org/2000/svg">
<path d="M208.201 212.305C211.213 215.331 214.653 217.364 219.098 217.339C222.477 217.319 225.49 216.137 227.899 213.979C231.851 210.427 236.703 207.907 239.749 203.256C240.668 201.867 242.809 201.352 244.2 200.203C246.55 198.274 248.764 196.183 251.005 194.149C252.398 192.886 253.751 191.571 255.121 190.261C256.826 188.617 258.452 186.869 260.249 185.324C263.483 182.55 266.711 179.736 270.172 177.252C271.712 176.145 272.994 177.375 273.453 179.048C274.068 181.274 274.493 183.549 275.095 185.781C275.61 187.684 276.25 189.555 276.868 191.437C277.024 191.903 277.323 192.342 277.427 192.819C278.488 198.037 279.521 203.255 280.541 208.478C280.716 209.363 280.742 210.292 280.991 211.155C282.75 217.074 284.641 222.943 286.273 228.896C286.893 231.162 286.846 233.61 287.305 235.925C287.731 238.057 288.421 240.146 289.037 242.229C289.52 243.863 290.18 245.452 290.536 247.119C291.282 250.579 291.856 254.066 292.526 257.548C292.963 259.817 293.371 262.087 293.945 264.318C295.58 270.597 297.295 276.837 298.97 283.111C299.656 285.659 300.301 288.212 300.958 290.759C302.141 295.29 303.346 299.81 304.47 304.37C305.159 307.158 305.774 309.969 306.336 312.79C307.205 317.175 309.751 318.631 314.05 317.136C315.348 316.674 316.653 316.224 318.584 315.54C312.215 320.94 310.785 324.29 310.728 333.176C314.212 335.331 317.751 336.075 321.58 333.939C322.979 333.157 324.632 332.809 326.178 332.269L336.421 327.28C339.345 324.6 342.544 322.485 346.664 322.29L349.783 320.771C349.772 320.69 349.721 320.587 349.751 320.53C352.351 315.725 351.293 310.862 350.275 305.88C348.93 299.26 347.912 292.58 346.859 285.917C346.627 284.476 346.945 282.937 346.764 281.484C346.509 279.469 346.029 277.491 345.619 275.508C345.241 273.681 344.663 271.88 344.469 270.049C344.184 267.448 344.227 264.817 344.035 262.2C343.643 257.012 343.189 251.841 342.729 246.659C342.652 245.769 342.587 244.788 342.176 244.032C340.291 240.514 340.23 236.763 340.44 232.752C344.407 236.626 348.178 240.509 352.169 244.143C355.031 246.743 358.333 248.844 361.177 251.467C369.375 259.029 377.179 266.982 383.735 276.085C384.12 276.611 384.497 277.297 385.033 277.55C390.769 280.205 393.332 285.904 397.195 290.327C400.402 293.987 402.943 294.76 407.069 292.151C411.368 289.429 415.43 286.28 419.881 283.87C423.612 281.853 427.798 280.684 431.726 279.013C433.141 278.409 434.608 277.68 435.701 276.648C437.712 274.727 437.553 272.85 436.109 270.529C433.041 265.547 428.458 264.527 423.131 265.168C422.23 265.278 421.336 265.4 420.43 265.499C420.292 265.509 420.133 265.445 420.161 265.445C422.498 263.636 424.916 261.788 427.305 259.882C428.691 258.779 428.791 257.289 427.449 256.288C421.893 252.162 418.716 246.02 414.239 241.04C407.343 233.372 401.837 224.613 394.588 217.245C391.741 214.352 390.153 210.275 387.578 207.065C382.53 200.765 377.101 194.765 372.007 188.487C368.735 184.46 365.902 180.077 362.676 175.999C359.553 172.043 356.17 168.313 352.954 164.43C349.845 160.68 346.703 156.947 343.779 153.05C342.608 151.495 342.141 149.425 341.081 147.774C340.319 146.59 339.136 145.654 338.086 144.667C337.439 144.041 336.7 143.517 336.007 142.941C336.772 142.027 337.395 140.91 338.352 140.272C339.263 139.658 340.502 139.453 341.615 139.225C346.556 138.202 351.34 136.328 356.615 138.124C362.078 139.985 367.61 138.859 372.84 136.967C376.254 135.732 379.628 135.116 383.207 135.127C386.14 135.125 388.911 134.617 391.341 132.705C392.258 131.987 393.597 131.607 394.778 131.488C398.71 131.113 401.804 129.192 404.465 126.469C406.281 124.614 406.887 122.379 405.789 119.861C405.593 119.4 405.345 118.95 405.281 118.468C404.037 109.659 396.74 107.921 390.078 105.588C388.862 105.168 387.228 105.964 385.777 106.171C384.183 106.406 382.587 106.726 380.994 106.818C378.731 106.936 376.447 106.779 374.183 106.926C367.283 107.348 360.394 107.88 353.488 108.32C349.619 108.563 345.744 108.939 341.885 108.851C338.294 108.759 334.649 108.467 331.151 107.66C326.082 106.491 321.204 104.516 316.141 103.388C310.163 102.049 304.211 102.138 298.753 105.696C298.061 106.147 296.518 105.872 295.697 105.387C294.28 104.522 293.038 103.173 293.738 101.277C294.303 99.7464 295.176 98.3227 295.928 96.8574C298.047 92.7583 300.708 88.8372 302.158 84.5071C304.246 78.2689 305.568 71.8045 301.763 65.4553C299.818 62.2228 298.392 58.6808 296.735 55.2796C298.809 53.4849 300.677 52.118 302.206 50.432C302.964 49.5918 303.661 47.9826 303.361 47.0734C303.071 46.2159 301.469 45.4126 300.365 45.28C296.521 44.8132 292.657 44.6271 288.793 44.3836C280.568 43.8683 272.342 43.3817 264.11 42.9122C263.538 42.8772 262.908 42.8702 262.408 43.0711C256.911 45.2923 251.047 46.9361 246.081 50.0117C242.065 52.4959 239.064 56.654 235.714 60.1547C227.84 68.37 227.775 83.4662 233.397 92.582C236.42 97.4719 239.788 102.251 243.63 106.513C247.047 110.284 251.914 111.679 257.055 111.914C259.31 112.014 261.556 112.589 263.779 113.032C266.174 113.506 267.105 115.592 268.21 117.393C268.442 117.78 268.261 118.638 267.971 119.093C267.389 119.975 266.711 120.891 265.874 121.513C259.13 126.552 255.98 134.35 251.163 140.862C249.445 143.182 249.047 146.457 247.46 148.9C244.6 153.317 240.988 157.245 238.242 161.721C234.087 168.481 228.377 173.831 223.24 179.714C218.486 185.154 213.998 190.821 209.283 196.285C206.335 199.704 205.17 203.51 206.05 207.946L208.223 212.408L208.201 212.305ZM317.628 330.913C315.674 328.071 316.144 325.674 318.055 323.459C319.451 321.851 320.892 320.279 322.373 318.73C325.249 315.746 328.078 312.784 328.105 308.192C328.122 305.216 327.015 304.229 324.361 305.622C321.978 306.868 319.763 308.489 317.656 310.158C314.719 312.487 311.883 311.929 310.519 308.485C310.133 307.517 310.167 306.388 309.879 305.358C309.618 304.444 309.232 303.534 308.793 302.692C308.298 301.763 307.321 300.955 307.153 299.996C306.105 293.958 304.552 288.138 302.035 282.474C300.415 278.827 298.362 274.848 300.335 270.449C300.622 269.81 300.111 268.675 299.724 267.879C299.084 266.536 298.145 265.339 297.579 263.974C297.199 263.047 296.749 261.568 297.178 260.988C299.609 257.821 299.134 254.129 298.869 250.72C298.574 246.927 297.275 243.209 296.291 239.494C295.915 238.079 294.96 236.819 294.641 235.405C293.196 228.99 292.068 222.492 289.779 216.303C289.182 214.697 288.668 212.736 287.452 211.759C284.837 209.666 283.705 207.051 283.214 203.938C282.912 202.002 282.633 200.055 282.262 198.124C282.054 197.084 281.859 195.981 281.358 195.07C279.276 191.234 278.072 187.184 277.787 182.829C277.677 181.199 277.39 179.499 276.739 178.018C275.68 175.638 275.306 173.381 276.116 170.833C276.37 170.01 276.029 168.492 275.409 168.038C274.818 167.613 273.321 167.843 272.577 168.334C270.934 169.405 269.557 170.875 268.005 172.102C265.356 174.206 262.036 175.78 260.12 178.396C255.959 184.061 250.429 187.968 244.999 192.139C241.52 194.818 238.442 198.03 235.257 201.079C231.991 204.196 228.838 207.43 225.578 210.559C223.266 212.769 220.577 214.236 217.289 213.099C214.195 212.038 212.506 209.566 212.021 206.435C211.503 203.064 211.959 199.732 214.327 197.109C218.119 192.908 221.775 188.488 226.072 184.854C231.54 180.236 235.438 174.557 238.054 168.175C241.573 159.585 247.535 153.057 253.823 146.613C255.743 144.651 257.261 142.271 258.829 139.995C262.686 134.349 265.919 128.181 270.412 123.111C275.166 117.728 275.323 108.579 265.447 106.927C264.967 106.847 264.464 106.778 263.995 106.636C261.397 105.89 258.704 105.362 256.217 104.319C252.343 102.711 248.717 100.44 244.331 100.323C243.77 100.311 243.041 99.8673 242.69 99.4105C241.305 97.5603 239.615 95.7871 238.833 93.6857C237.337 89.7071 236.38 85.5224 235.229 81.4043C234.969 80.4611 234.452 79.429 234.615 78.5363C235.845 71.5319 237.374 64.9951 243.096 59.6114C246.864 56.0638 250.661 53.1873 255.185 50.8693C260.072 48.3604 265.099 46.6959 270.576 47.0948C275.258 47.439 279.895 48.2759 284.545 48.9637C289.012 49.6267 289.672 50.6603 290.799 54.9903C292.317 60.8268 294.376 66.4859 299.384 70.509C300.293 71.2358 301.223 72.7655 301.104 73.8077C300.69 77.5473 300.236 81.3781 299.033 84.9025C297.613 89.0896 295.308 92.8656 292.132 96.1962C288.151 100.361 288.001 104.029 291.179 107.103C293.602 109.446 296.675 109.761 299.955 109.39C305.178 108.8 310.427 108.468 315.661 108.044C316.056 108.009 316.502 108.077 316.862 108.23C322.168 110.381 327.554 111.937 333.398 111.687C337.833 111.495 342.317 112.164 346.73 111.811C350.502 111.515 354.074 111.044 357.432 113.317C358.007 113.708 358.848 113.769 359.574 113.886C369.159 115.408 378.408 113.698 387.541 110.961C388.77 110.591 390.19 110.027 391.339 110.309C395.298 111.276 398.976 113.037 401.619 116.272C404.087 119.292 402.944 124.457 399.475 126.047C396.644 127.34 393.753 128.449 390.402 127.856C388.704 127.556 386.754 127.878 385.071 128.399C379.78 130.02 373.855 129.169 369 132.504C368.689 132.713 368.202 132.679 367.789 132.737C362.839 133.508 357.852 133.969 352.864 134.43C346.558 135.019 340.391 137.296 334.234 139.069C330.128 140.256 329.848 141.962 332.542 145.271C334.716 147.95 336.578 150.866 338.624 153.635C339.433 154.739 340.357 155.759 341.251 156.806C342.464 158.213 344.576 159.509 344.762 161.031C345.447 166.56 349.382 168.908 353.512 171.248C354.298 171.692 355.264 171.949 355.842 172.581C359.368 176.398 363.107 180.069 366.206 184.209C369.881 189.123 373.102 194.302 375.71 200.036C378.267 205.666 382.797 210.521 387.03 215.206C389.297 217.726 391.842 219.881 393.128 223.135C393.458 223.958 394.012 224.744 394.618 225.404C397.452 228.503 400.609 231.359 403.149 234.673C409.264 242.636 415.119 250.797 421.1 258.924C418.66 260.113 416.043 261.317 413.487 262.647C408.208 265.404 407.523 266.452 408.19 270.335C413.19 270.339 418.196 270.325 423.184 270.363C426.128 270.385 428.876 271.028 431.377 273.648C430.341 274.794 429.495 276.362 428.2 277.036C422.277 280.049 416.153 282.648 410.264 285.702C403.903 289.014 399.492 287.968 395.891 281.804C394.252 278.994 392.496 276.354 389.423 274.841C388.58 274.424 387.877 273.625 387.214 272.907C381.76 267.09 376.352 261.222 370.846 255.473C369.548 254.123 368.208 252.921 368.468 250.854C368.883 247.613 367.114 245.736 364.767 243.841C361.783 241.428 358.991 238.737 356.442 235.87C353.512 232.576 350.761 229.237 346.225 228.051C343.876 227.44 342.074 226.022 340.455 224.1C339.169 222.572 337.185 221.627 335.496 220.41C332.619 225.991 333.428 231.161 334.684 236.369C336.887 245.453 338.867 254.574 338.748 263.976C338.711 267.29 339.484 270.28 340.611 273.354C341.794 276.573 342.816 279.955 343.201 283.348C343.824 288.837 343.845 294.347 346.252 299.551C347.077 301.332 347.224 303.914 346.622 305.776C345.654 308.73 345.025 311.619 345.087 314.698C345.099 315.22 344.904 315.929 344.54 316.235C342.617 317.899 340.811 319.806 338.612 320.991C333.044 324.003 327.297 326.703 321.589 329.455C320.288 330.089 318.847 330.434 317.652 330.845L317.628 330.913Z" fill="#EA5A24"/>
<path d="M17.6575 239.996C20.4593 244.744 25.3418 246.129 30.1086 247.711C30.3383 247.784 30.6332 247.861 30.8296 247.782C33.5584 246.727 36.2856 245.66 38.9966 244.568C40.2238 244.079 41.3752 243.315 42.6317 243.041C45.7204 242.352 48.6594 241.799 51.0049 239.152C52.206 237.799 54.4992 237.062 56.4104 236.752C63.1567 235.658 68.9414 232.236 75.052 229.597C79.073 227.863 83.128 226.188 87.5215 224.339C86.9732 226.886 86.5884 229.397 85.8688 231.825C84.4835 236.504 82.9372 241.14 81.3892 245.764C80.9369 247.107 80.1447 248.327 79.7196 249.679C79.1739 251.384 78.8978 253.169 78.4192 254.89C77.9463 256.56 77.4481 258.232 76.8125 259.846C75.1367 264.098 73.3668 268.324 71.6495 272.557C70.9312 274.324 70.2146 276.103 69.5234 277.88C68.1445 281.458 66.6427 284.988 65.4536 288.631C64.5038 291.555 62.8902 294.259 61.9544 297C60.6034 300.976 58.2803 304.267 56.5636 307.93C55.2889 310.653 53.5157 313.132 52.2681 315.864C51.5992 317.326 50.8332 319.41 51.3989 320.628C52.3567 322.739 54.5325 324.386 57.1159 323.882C59.9388 323.332 62.768 322.445 65.389 321.262C70.5092 318.951 75.8873 319.027 80.7214 318.62C81.1132 321.518 81.461 323.996 81.7834 326.476C82.1326 329.251 82.1275 331.893 80.4247 334.414C79.7135 335.468 79.6997 337.088 79.6151 338.472C79.4602 340.771 79.7654 343.125 79.4241 345.385C78.5694 351.118 77.6495 356.848 78.7795 362.624C79.4398 365.979 75.0383 371.117 70.8351 371.504C68.203 371.744 65.5375 372.311 64.0479 374.687C63.3031 375.875 63.1344 377.594 63.1652 379.065C63.1973 380.356 64.051 381.599 64.2153 382.911C64.5318 385.444 66.2464 385.976 68.3404 386.444C75.8712 388.093 83.5066 386.4 91.059 387.347C92.0316 387.462 93.0293 387.378 94.0002 387.48C96.6503 387.756 97.2241 386.164 97.4071 383.978C97.6521 381.006 98.2106 378.057 98.365 375.084C98.6701 369.399 102.545 364.862 103.219 359.321C103.379 358.018 103.539 356.714 103.674 355.415C103.77 354.496 103.668 353.551 103.872 352.669C105.538 345.285 107.366 337.944 108.898 330.527C109.718 326.545 110.031 322.451 110.518 318.877C118.991 317.732 127.292 316.661 135.575 315.451C137.11 315.231 138.554 314.427 140.639 313.679C141.659 315.483 143.074 317.247 143.721 319.256C146.403 327.619 152.174 334.334 155.689 342.248C157.454 346.216 159.376 350.099 161.286 353.996C162.872 357.212 164.591 360.359 166.19 363.573C167.149 365.502 167.937 367.505 168.883 369.436C170.005 371.705 170.953 374.127 172.509 376.066C173.24 376.977 175.313 377.486 176.557 377.214C183.299 375.707 190.012 374.075 196.645 372.143C200.365 371.058 202.378 367.86 203.6 364.368C204.867 360.727 202.769 357.451 198.956 356.231C196.24 355.369 193.611 354.197 190.937 353.173C190.556 353.03 190.053 352.658 189.811 352.781C186.832 354.284 186.044 351.802 185.341 350.046C183.883 346.437 182.656 342.719 181.645 338.972C181.128 337.061 181.194 334.968 181.166 332.94C181.101 329.207 178.715 326.669 176.292 324.537C173.27 321.89 171.721 318.76 170.939 314.982C170.514 312.89 169.726 310.887 168.963 308.401C171.436 307.937 174.088 307.462 176.731 306.924C183.176 305.612 189.618 304.276 196.062 302.951C196.388 302.881 196.722 302.862 197.031 302.756C198.061 302.435 199.086 302.077 200.115 301.743C199.71 300.659 199.448 299.49 198.875 298.506C195.998 293.678 191.215 290.066 189.763 284.294C189.589 283.58 189.126 282.931 188.741 282.284C187.054 279.469 186.296 279.222 183.194 280.483C179.559 275.693 175.813 270.943 172.303 266.032C169.974 262.774 167.855 259.345 165.885 255.871C162.945 250.676 160.306 245.31 157.355 240.13C155.576 237.018 153.448 234.095 151.489 231.084C151.129 230.525 150.48 229.939 150.495 229.38C150.578 226.068 148.839 223.442 147.42 220.696C146.932 219.765 146.442 218.821 145.715 217.457C148.619 217.893 151.193 218.373 153.778 218.645C157.004 218.973 160.277 218.971 163.502 219.389C168.506 220.046 173.49 220.939 178.473 221.728C182.161 222.317 185.848 222.893 189.535 223.469C191.662 223.803 193.838 223.923 195.927 224.443C200.305 225.547 205.516 223.717 208.089 219.977C211.516 214.996 211.71 211.358 208.048 206.947C205.173 203.478 202.432 199.563 197.424 198.778C196.513 198.642 195.566 198.809 194.646 198.7C193.095 198.521 191.482 198.454 190.041 197.937C185.329 196.283 180.764 193.987 175.523 194.735C175.358 194.757 175.129 194.788 175.039 194.696C170.893 191.011 165.212 192.038 160.511 189.89C156.982 188.283 153.026 187.626 149.315 186.393C147.015 185.643 144.725 184.774 142.585 183.678C138.346 181.507 134.025 179.683 129.457 178.229C126.469 177.274 123.945 174.871 121.253 173.034C120.241 172.342 118.775 171.544 118.579 170.573C118.161 168.533 118.573 166.419 120.515 164.991C122.314 163.66 124.142 162.352 125.817 160.87C128.162 158.792 130.372 156.578 132.274 154.767C132.891 157.803 133.496 161.411 134.387 164.941C135.255 168.397 136.866 168.93 139.845 166.948C144.294 163.978 148.629 160.841 153.129 157.955C154.996 156.744 157.112 155.85 159.205 155.062C161.37 154.239 162.37 152.641 162.657 150.557C162.95 148.42 161.938 146.77 160.097 145.776C158.058 144.667 155.717 143.999 153.868 142.657C150.397 140.136 147.177 137.27 143.874 134.558C145.758 132.711 147.674 131.002 149.385 129.114C151.153 127.166 150.854 125.148 148.786 123.628C146.963 122.295 144.961 121.168 143.307 119.644C140.541 117.079 138.744 117.659 136.194 120.799C135.149 118.908 133.971 117.178 133.185 115.29C128.021 103.017 118.522 97.1422 105.558 96.2537C103.799 96.1549 102.161 96.0009 100.514 95.874C96.0428 96.4783 91.5589 97.0844 87.0877 97.6888C81.3553 99.6805 76.9865 103.339 73.7453 108.45C73.0722 109.499 72.2889 110.499 71.43 111.417C68.5357 114.501 66.7884 118.129 66.0687 122.278C65.6941 124.387 65.3068 126.498 64.912 128.648C61.4412 127.085 58.7147 128.062 56.4909 131.418C55.4368 132.997 54.1121 134.393 53.1284 136.015C52.4512 137.129 51.8177 138.47 51.8048 139.715C51.7892 141.322 52.9185 142.308 54.6599 142.656C56.747 143.073 58.7795 143.756 60.8491 144.33C61.1275 144.668 61.4204 145.017 61.6989 145.355C58.451 149.172 55.1437 152.934 51.9968 156.828C50.3777 158.821 48.8664 160.941 47.617 163.181C46.3382 165.49 47.0701 167.747 49.5376 168.682C54.1057 170.421 58.8162 171.777 63.4306 173.38C66.5514 174.46 69.6016 175.782 72.7318 176.835C74.4388 177.407 76.2588 177.666 78.6459 178.198L76.6405 163.361C77.8113 163.889 78.315 164.171 78.8592 164.369C83.4475 166.066 87.951 168.189 92.6907 169.283C95.427 169.91 95.9717 171.26 96.3256 173.4C96.7197 175.742 95.1395 176.395 93.3856 177.008C92.7059 177.242 92.0646 177.665 91.5209 178.14C84.2865 184.426 77.0682 190.735 69.821 197.022C69.2756 197.484 68.5807 197.798 67.9223 198.094C66.6071 198.699 65.0966 199.007 63.9683 199.846C59.5843 203.105 56.0189 207.444 50.5615 209.27C47.3702 210.348 44.0848 211.401 41.8712 214.354C41.322 215.075 40.2207 215.444 39.3007 215.814C36.9096 216.785 34.4633 217.633 32.0578 218.593C29.9232 219.451 27.5585 220.042 25.7594 221.373C23.4773 223.054 21.6437 225.373 19.6308 227.418C19.5395 227.508 19.5213 227.757 19.5546 227.908C20.4133 230.911 18.4571 232.898 16.9763 235.053L17.6499 240.036L17.6575 239.996ZM114.299 169.145C114.161 170.523 114.376 172.397 113.754 173.918C112.12 177.906 113.053 179.165 117.231 180.413C122.218 181.9 128.075 180.06 132.325 184.327C132.625 184.636 133.276 184.574 133.763 184.728C146.612 188.882 159.728 192.235 171.899 198.357C174.563 199.693 177.825 200.378 180.818 200.414C184.316 200.459 187.592 200.961 190.85 202.1C193.376 202.988 201.936 208.045 203.783 210.035C204.42 210.725 204.953 211.702 205.091 212.628C205.559 215.711 201.991 219.17 198.881 218.84C198.055 218.758 197.206 218.885 196.391 218.788C192.261 218.285 188.493 221.215 184.26 219.949C179.731 218.594 175.144 217.388 170.598 216.1C170.383 216.038 170.207 215.79 170.04 215.606C167.382 212.69 163.809 213.237 160.429 213.112C159.856 213.086 159.005 213.486 158.731 213.95C157.299 216.37 155.707 215.304 153.834 214.56C150.306 213.147 146.688 211.927 143.039 210.867C141.114 210.311 139.813 211.691 140.43 213.575C141.295 216.242 142.219 218.965 143.583 221.396C145.733 225.247 147.591 228.945 145.938 233.556C145.205 235.597 146.066 237.28 147.849 238.8C149.02 239.807 149.862 241.635 150.114 243.206C150.619 246.374 152.193 249.022 154.594 250.613C157.733 252.688 159.999 255.19 161.527 258.557C164.817 265.763 169.421 272.079 174.737 277.911C180.525 284.274 186.278 290.668 192.008 297.078C193.227 298.441 193.131 299.736 191.169 300.247C186.648 301.441 182.134 302.685 177.564 303.614C174.053 304.334 170.435 304.461 166.917 305.13C163.715 305.744 163.541 306.661 165.154 309.408C166.232 311.255 167.111 313.26 167.774 315.293C169.3 319.98 169.749 325.318 172.305 329.296C175.334 334 174.802 339.923 178.54 344.13C178.631 344.234 178.637 344.466 178.605 344.613C177.761 348.701 180.782 350.766 183.068 353.227C185.913 356.286 189.252 358.216 193.532 358.492C195.255 358.609 196.984 359.152 198.626 359.72C199.385 359.979 200.535 360.834 200.501 361.343C200.423 362.493 200.03 364.177 199.209 364.612C195.362 366.672 191.408 368.618 187.32 370.141C184.722 371.114 181.732 371 179.111 371.898C175.638 373.092 175.608 373.252 174.96 369.702C174.857 369.133 174.809 368.492 174.526 368.026C172.438 364.541 170.17 361.158 168.192 357.62C165.751 353.25 163.033 348.931 161.391 344.247C160.36 341.306 159.331 338.571 157.571 335.987C156.393 334.256 155.796 332.136 154.915 330.21C154.567 329.454 154.185 328.729 153.788 327.993C151.746 324.178 149.691 320.365 147.637 316.552C146.531 314.501 145.414 312.451 144.345 310.382C143.484 308.699 142.219 308.339 140.422 308.725C134.139 310.092 127.841 311.435 121.523 312.638C117.84 313.331 114.131 314.026 110.39 312.667C109.792 312.451 108.378 312.901 108.172 313.382C107.066 316.107 106.021 318.902 105.32 321.754C104.77 324.004 104.93 326.429 104.422 328.698C103.059 334.889 101.406 341.028 100.096 347.225C99.4971 350.063 99.562 353.032 99.0694 355.895C98.546 359.008 97.7438 362.067 97.0212 365.143C96.3961 367.79 95.5989 370.409 95.0535 373.072C94.3141 376.693 93.7485 380.356 93.1201 383.936C91.9528 383.912 91.132 383.868 90.318 383.874C85.0876 383.934 79.8582 384.097 74.6361 384.026C73.1842 384.003 71.6873 383.454 70.2844 382.932C68.6213 382.302 67.8584 379.337 68.8696 377.919C70.971 380.069 73.2319 379.284 75.5086 378.329C78.1764 377.205 77.7228 374.327 78.4266 372.549C79.656 372.267 81.0427 372.286 81.2146 371.836C82.2352 369.148 83.5556 366.38 83.6705 363.594C83.8331 360.012 82.7487 356.392 82.6088 352.773C82.4937 349.721 83.3543 346.614 83.074 343.584C82.7202 339.722 83.1811 336.242 85.3713 333.021C85.5766 332.721 85.5552 332.18 85.4765 331.79C84.8299 328.537 86.1739 325.753 87.4637 322.951C88.0238 321.736 88.5839 320.521 89.0483 319.268C89.9254 316.858 88.4499 314.649 85.9245 314.913C79.1919 315.629 72.4953 316.612 65.7592 317.302C63.1957 317.571 60.5889 317.328 58.002 317.328C57.9186 317.093 57.8495 316.87 57.7661 316.635C61.1173 312.816 61.2034 307.329 64.7029 303.555C65.0977 303.126 65.3375 301.838 65.1084 301.675C63.5561 300.525 64.4383 299.396 65.0369 298.37C67.0033 295.023 68.6891 291.611 68.784 287.624C68.8014 286.987 69.1 286.326 69.3673 285.72C71.9204 280.015 74.6957 274.423 76.1102 268.238C76.5429 266.368 77.8231 263.877 79.3357 263.297C81.1699 262.609 81.7321 261.601 82.3409 260.173C82.7819 259.129 83.2806 258.13 83.7395 257.123C85.0431 257.581 86.1026 257.955 87.4063 258.414C87.0471 255.757 86.6304 253.535 86.5075 251.286C86.4662 250.502 87.1431 249.672 87.4591 248.853C88.023 247.378 88.9731 245.891 89.0168 244.396C89.1022 241.679 88.2888 238.915 88.4955 236.233C88.8361 231.864 89.0263 227.242 92.414 223.885C94.3754 221.937 93.4417 220.005 92.4115 218.603C91.3831 217.215 89.4187 217.61 87.8619 218.532C85.5605 219.879 83.2804 221.287 80.9145 222.539C75.7494 225.283 71.1118 229.25 64.8731 229.601C64.4361 229.621 64.0516 230.126 63.6184 230.366C62.5353 230.966 61.4897 231.651 60.3496 232.115C56.3368 233.719 52.2797 235.187 48.2814 236.802C44.3431 238.383 40.4636 240.111 36.5397 241.703C36.0488 241.899 35.3714 241.576 34.8321 241.701C33.8787 241.92 32.8007 242.079 32.0768 242.656C30.2093 244.151 28.7211 244.145 27.1117 242.382C26.2629 241.461 25.3684 240.585 24.4173 239.769C21.5513 237.321 21.5728 233.939 24.4395 231.416C25.3646 230.605 26.5005 229.726 26.8457 228.644C28.241 224.326 31.5715 222.076 35.3615 220.451C39.6169 218.633 43.9198 217.261 47.7367 214.208C51.59 211.137 56.5122 209.371 61.0584 207.216C61.6533 206.929 62.8893 207.461 63.5781 207.963C65.953 209.649 67.032 209.593 68.8276 207.279C69.7537 206.093 70.7467 204.923 71.4489 203.611C76.7023 193.865 85.3536 187.44 93.962 181.176C97.6948 178.458 101.013 176.404 99.6602 171.085L114.281 169.109L114.299 169.145ZM104.456 166.76C101.843 166.466 99.2235 165.94 96.6002 165.958C92.1278 165.98 88.1922 164.519 84.7237 161.919C75.3113 154.868 69.7075 145.657 69.786 133.608C69.8159 128.853 69.0053 124.004 72.0063 119.508C75.9879 113.558 80.0357 107.717 85.9291 103.567C88.3036 101.9 91.1419 100.507 93.9505 99.9457C98.5855 99.0215 103.251 99.284 108.049 100.331C113.059 101.415 116.406 104.354 119.393 107.795C123.267 112.242 126.598 117.177 130.078 121.963C130.777 122.93 131.724 124.381 131.46 125.297C129.92 130.748 130.798 136.092 131.742 141.453C131.752 141.53 131.712 141.613 131.699 141.705C131.418 145.756 129.273 148.83 127.239 152.25C124.92 156.149 121.646 158.145 118.38 160.684C114.201 163.929 109.621 165.739 104.431 166.764L104.456 166.76ZM146.967 127.589C144.567 129.066 142.681 130.136 140.892 131.349C140.147 131.864 139.169 132.669 139.113 133.402C139.038 134.28 139.582 135.721 140.291 136.091C144.479 138.269 147.051 141.986 149.82 145.534C150.946 146.974 151.87 148.455 153.996 148.776C154.842 148.907 155.521 150.201 156.122 150.819C150.481 154.921 145.181 158.77 139.137 163.147C135.432 149.421 135.754 136.497 140.491 123.403C142.531 124.72 144.332 125.887 146.982 127.6L146.967 127.589ZM72.798 172.062C72.5931 172.077 71.9971 172.261 71.4852 172.11C64.872 170.169 58.2554 168.203 51.6758 166.128C51.2706 166.001 50.7819 164.682 51.0023 164.303C51.5459 163.349 52.3433 162.167 53.2754 161.885C56.0732 161.054 57.3875 159.103 58.4772 156.638C60.2972 152.496 63.5383 149.585 67.244 146.858C68.8216 151.926 71.6776 156.213 71.4981 161.584C71.3802 165.018 72.3279 168.488 72.8107 172.061L72.798 172.062ZM64.8053 141.064C64.6666 141.187 64.5279 141.309 64.3893 141.431C61.7819 140.036 59.1763 138.653 56.262 137.093C57.9709 135.956 59.4411 134.967 61.1737 133.814C62.4848 136.433 63.6514 138.748 64.818 141.062L64.8053 141.064Z" fill="#EA5A24"/>
</svg>
