<svg width="251" height="324" viewBox="0 0 251 324" fill="none" xmlns="http://www.w3.org/2000/svg">
<path d="M250.956 24.73C251.086 22.6296 250.983 20.656 249.912 18.7548C249.813 18.5783 249.683 18.4108 249.571 18.2388C249.424 17.7466 249.232 17.2693 248.997 16.8129C248.935 16.5594 248.863 16.3059 248.778 16.0569C248.689 14.5829 248.279 13.147 247.577 11.8517C246.707 10.2854 244.785 8.50645 243.212 7.91346C242.084 7.5545 240.908 7.37282 239.725 7.37479C238.17 7.50606 236.619 7.70976 235.082 7.99494C231.464 8.40519 227.872 9.02944 224.326 9.86445C222.049 10.2266 219.777 10.6612 217.528 11.064C213.068 11.8652 208.627 12.6031 204.119 13.0331C198.268 13.2891 192.407 13.2121 186.564 12.8022C181.016 12.1987 175.466 11.6118 169.915 11.0414C165.353 10.5797 160.794 10.0908 156.237 9.57474C150.12 8.89574 143.989 8.35256 137.863 7.8999C132.848 7.52418 127.761 7.0851 122.729 7.44723C120.488 7.61472 118.247 8.04928 116.006 8.35256C103.01 10.0908 90.0578 12.2636 76.9626 12.9471C69.8592 13.3183 62.8276 12.9109 55.7512 12.2409C51.5567 11.9647 47.3845 11.4128 43.261 10.5887L34.746 8.05832C31.9943 6.62789 29.6818 4.29215 27.2303 2.40905C25.8859 1.3634 23.9767 -0.189261 22.1751 0.018965C21.2506 0.18883 20.3484 0.465258 19.4862 0.84282C16.972 1.77079 14.4847 3.10615 12.6159 5.0843C10.6114 7.2502 9.19168 9.90005 8.49283 12.7796C8.22057 13.4098 7.97976 14.0534 7.7713 14.708L7.58308 15.0203C6.98343 16.1141 6.48822 17.263 6.10416 18.4515C5.91145 18.7639 5.71425 19.0717 5.5305 19.3931C5.5305 19.4202 5.50363 19.4519 5.4857 19.4836C5.47321 19.3011 5.4355 19.1214 5.37366 18.9495C5.41848 18.4153 5.47674 17.8812 5.51707 17.347C5.66945 16.5458 5.4588 15.5364 4.38322 15.6993C3.39279 15.8306 2.80571 17.7363 2.68471 18.5421C2.07521 22.4621 1.83767 23.9242 1.68978 25.8979C1.60249 26.2845 1.53815 26.676 1.49707 27.0703C1.42985 27.781 1.34918 28.4962 1.27299 29.2114C0.9275 30.0688 0.667778 30.9589 0.497689 31.8685C0.280907 33.6081 0.150779 35.3576 0.107793 37.1104C-0.14635 40.7978 0.0493149 44.5027 0.690394 48.1419C0.676909 49.0787 0.712808 50.0155 0.797948 50.9484C0.883098 51.7994 1.00411 52.6459 1.14304 53.4879C1.81986 57.6338 3.21077 61.6279 5.25265 65.2889C8.20153 70.6756 13.7946 75.0393 20.0419 74.985C23.8692 74.3543 27.6934 73.7039 31.5147 73.034C35.4227 72.3429 39.3366 71.6941 43.2565 71.0875C48.5448 70.2365 53.854 69.5666 59.1841 69.0777C70.7048 68.3254 82.2678 68.554 93.7506 69.7612C98.6355 70.4131 103.535 70.834 108.45 71.0242L113.949 71.676C114.283 71.6506 114.615 71.7383 114.893 71.9253C115.172 72.1122 115.38 72.3877 115.486 72.7081C115.715 75.0244 115.823 77.3513 115.809 79.6791C115.767 92.1999 115.746 104.724 115.746 117.25C115.821 125.863 115.89 134.479 115.952 143.098C116.283 147.253 116.169 151.433 115.612 155.564C115.132 158.545 115.078 161.58 115.45 164.577C115.419 166.977 115.58 169.377 115.93 171.751C116.002 172.046 116.096 172.335 116.194 172.621L115.298 173.268C115.047 173.343 114.819 173.48 114.635 173.668C114.451 173.855 114.317 174.087 114.245 174.341C114.008 174.714 113.796 175.103 113.609 175.504C112.939 180.724 111.113 185.725 108.266 190.134C107.926 190.845 107.621 191.578 107.37 192.321C107.236 192.951 107.21 193.6 107.294 194.24C107.222 194.43 107.146 194.62 107.088 194.815C106.945 195.272 106.874 195.748 106.877 196.227C106.592 196.803 106.375 197.411 106.232 198.038C106.034 198.767 106.034 199.536 106.232 200.265C106.156 200.464 106.084 200.659 106.026 200.862C105.837 201.368 105.755 201.907 105.784 202.447C105.813 202.986 105.954 203.513 106.196 203.995C106.148 205.175 106.538 206.331 107.289 207.236L110.476 210.178C111.583 211.034 112.717 211.844 113.855 212.659C113.762 213.019 113.704 213.387 113.68 213.759C113.608 214.498 113.656 215.244 113.824 215.968C113.624 216.875 113.568 217.809 113.658 218.734C113.256 219.965 113.103 221.266 113.21 222.559V222.586C111.865 222.785 109.996 223.491 111.663 224.75L112.076 225.062C111.937 225.109 111.805 225.173 111.681 225.252C111.274 225.528 110.704 226.307 111.287 226.759C111.439 226.873 111.587 226.99 111.735 227.103C111.327 227.37 111.206 227.701 111.65 228.108C110.628 228.425 109.96 228.891 110.754 229.543C110.964 229.711 111.166 229.883 111.377 230.055C110.722 230.349 110.341 230.77 111.063 231.34L111.215 231.463C110.476 231.752 110.041 232.173 110.799 232.78L111.556 233.454C111.465 233.511 111.39 233.591 111.34 233.686C111.29 233.782 111.265 233.889 111.27 233.997C111.275 234.105 111.308 234.21 111.366 234.301C111.424 234.392 111.505 234.465 111.601 234.514C114.113 236.466 116.507 238.569 118.771 240.81C117.416 240.39 115.997 240.219 114.581 240.303C112.542 240.606 112.34 241.036 111.861 242.806C111.641 243.63 111.448 244.757 111.919 245.522C111.59 246.578 111.565 247.707 111.847 248.777C111.306 250.048 111.133 251.448 111.35 252.815C111.131 253.577 110.999 254.362 110.955 255.155C110.884 256.011 110.561 257.504 111.005 258.374C110.861 259.46 110.695 260.886 111.336 261.542C111.525 261.732 111.713 261.922 111.897 262.117C111.804 262.174 111.727 262.253 111.673 262.348C111.619 262.442 111.589 262.549 111.585 262.659C111.582 262.768 111.606 262.876 111.655 262.974C111.704 263.071 111.776 263.155 111.865 263.217C111.202 263.597 110.825 264.1 111.569 264.697C111.744 264.824 111.905 264.969 112.076 265.096C111.699 265.449 111.628 265.901 112.165 266.336C113.308 267.296 114.406 268.291 115.491 269.296C113.859 269.242 112.237 269.613 111.538 271.383C111.162 272.338 111.018 273.991 111.421 275.005C111.272 275.749 111.225 276.511 111.283 277.268C111.283 277.44 111.314 277.589 111.336 277.721C110.92 278.764 110.732 279.887 110.785 281.011C110.785 281.152 110.785 281.269 110.812 281.396C110.103 283.112 109.901 284.999 110.229 286.828C110.11 287.806 110.161 288.797 110.382 289.757C110.571 290.534 110.99 291.236 111.583 291.767C111.09 292.12 110.902 292.559 111.547 293.07L112.053 293.469C111.659 293.808 111.551 294.216 112.13 294.691L115.419 297.407C116.526 298.688 117.57 300.014 118.614 301.341C116.078 301.037 113.537 300.598 111.117 300.671C107.585 300.77 102.042 301.101 99.9127 304.604C99.0388 306.053 98.8282 309 99.3974 310.783C99.3682 311.257 99.3682 311.731 99.3974 312.205C99.2696 312.885 99.1902 313.573 99.1598 314.264C99.1382 314.599 99.1382 314.935 99.1598 315.269C99.0299 316.405 99.0613 317.623 99.0254 318.469C99.0234 318.727 99.1078 318.978 99.2648 319.181C99.4219 319.384 99.6424 319.527 99.8903 319.588C102.131 320.751 103.117 321.348 104.179 321.702C105.45 323.016 107.17 323.79 108.988 323.865C113.302 324.253 117.65 323.803 121.796 322.539C122.618 322.092 123.337 321.475 123.907 320.728L124.024 320.602C124.579 320.448 125.135 320.307 125.691 320.149C126.438 319.642 127.067 318.976 127.533 318.198C128.596 316.833 129.588 315.412 130.504 313.943C131.091 313.037 131.907 311.983 132.633 310.883C134.596 309.783 136.339 308.361 137.361 306.324C137.636 305.79 137.905 305.252 138.168 304.708C138.125 303.98 138.022 303.256 137.858 302.545C138.755 300.634 138.755 301.046 138.266 298.779C137.988 297.462 137.504 296.198 136.832 295.035C136.742 294.795 136.63 294.555 136.523 294.32C136.438 291.776 135.053 289.241 133.726 287.236C133.421 286.78 133.088 286.344 132.727 285.932C133.753 284.541 134.617 283.036 135.304 281.446C137.025 280.568 138.674 279.341 139.387 277.793C139.933 276.625 140.08 275.306 139.803 274.045C140.361 273.077 140.565 271.944 140.382 270.84C139.889 269.609 139.391 268.382 138.898 267.151L138.526 266.671C138.477 266.503 138.405 266.331 138.342 266.159C138.369 265.874 138.392 265.594 138.392 265.354C138.392 262.728 135.734 258.976 134.148 257.301C134.076 257.224 133.991 257.147 133.915 257.074L134.004 256.939C135.107 255.327 137.011 253.245 137.509 251.226L137.957 251.063C139.301 250.524 140.646 249.809 141.336 248.406C141.883 247.322 142.029 246.076 141.748 244.893C141.922 244.634 142.072 244.36 142.197 244.074C143.093 241.942 142.371 239.878 141.099 238.071C140.947 237.686 140.767 237.312 140.561 236.953C140.753 233.785 138.499 230.752 136.254 228.719C136.581 227.746 136.895 226.768 137.15 225.777C137.787 223.716 138.366 221.638 138.889 219.544C138.929 219.431 138.956 219.313 138.997 219.195C140.664 218.494 142.161 217.593 142.716 216.325C142.933 215.818 143.035 215.269 143.016 214.717C142.996 214.165 142.856 213.625 142.604 213.134C142.848 212.9 143.031 212.609 143.138 212.288C143.702 210.708 143.259 209.264 142.398 207.978C142.268 207.38 141.996 206.822 141.605 206.353C141.583 206.281 141.547 206.213 141.524 206.14C141.582 205.795 141.599 205.444 141.574 205.095C141.475 203.696 140.615 202.139 139.781 201.021L136.738 198.056C133.592 196.016 130.522 193.864 127.528 191.601C126.977 191.288 126.453 190.944 125.937 190.596C126.161 190.044 126.386 189.491 126.574 188.93C127.654 186.164 128.12 182.203 129.635 179.976C131.149 177.749 133.484 176.31 134.049 173.521C135.259 167.56 133.901 151.069 133.919 151.952C133.507 132.104 133.208 112.25 133.023 92.39C132.745 91.5616 132.516 90.7423 132.306 89.9275C132.328 87.8316 132.342 85.7358 132.413 83.6354C131.963 81.2477 131.895 78.8024 132.212 76.3928C132.594 75.0398 133.093 73.7235 133.704 72.4591L141.484 71.7801C145.774 71.3456 150.054 70.8491 154.324 70.2908C161.781 69.3583 169.27 68.4802 176.785 68.204L185.892 68.1588C195.26 68.4496 204.588 69.5093 213.785 71.3275C214.874 72.5044 216.076 73.7221 217.187 74.0706C220.566 75.1344 232.187 74.6183 230.95 74.5957C231.787 74.2367 232.538 73.6993 233.15 73.0204C233.41 72.7986 233.652 72.5677 233.903 72.3324L235.212 72.0698C236.789 71.7665 239.801 67.181 240.37 66.4432C241.881 64.4695 243.776 62.4326 244.543 60.0334C245.679 56.7118 246.623 53.3261 247.37 49.8937C248.065 46.7101 248.402 43.4575 248.374 40.1976C249.414 37.1783 249.553 35.3314 249.719 32.0496C250.375 29.6583 250.789 27.2058 250.956 24.73ZM10.2944 31.5924C11.0975 31.0599 11.7223 30.2946 12.0871 29.397C12.2932 27.9258 12.4635 26.5814 12.6562 25.323C12.7338 25.1667 12.7997 25.0048 12.8534 24.8387C12.8534 24.5716 12.8534 24.3181 12.8534 24.0601C13.4809 20.5745 14.4982 17.7952 17.4829 14.9796C26.4739 18.7763 35.7696 21.79 45.2687 23.9876C49.4034 25.0623 53.6207 25.7815 57.8755 26.1378C63.2765 26.8957 68.7151 27.3491 74.166 27.4958C78.9076 27.5046 83.6459 27.2477 88.3592 26.7263C93.8805 26.3279 99.3884 25.7213 104.883 24.9971L107.021 24.7572L110.516 24.214C114.075 23.7025 117.628 23.1593 121.169 22.607H121.133H121.191L125.601 22.0321C129.64 21.8893 133.684 22.0406 137.702 22.4848C146.512 23.2362 155.278 24.2955 164.053 25.323C175.06 26.6357 186.246 28.2698 197.36 28.6682C202.574 28.813 207.791 28.5906 212.974 28.0028C213.499 27.9485 214.018 27.8715 214.538 27.8081L214.776 27.781C219.225 27.3255 223.624 26.4665 227.92 25.2144C232.61 23.9388 237.379 22.98 242.194 22.3445C242.616 23.1502 243.034 23.956 243.449 24.7617L243.579 25.1872C243.752 27.2314 243.822 29.283 243.79 31.3344C243.74 31.5109 243.687 31.6875 243.637 31.864C243.512 32.2216 243.391 32.5747 243.256 32.9278C241.706 39.1746 238.094 44.4406 232.42 48.7258C230.206 62.3058 225.851 66.8747 219.356 62.4326C217.505 61.2602 216.219 59.4314 214.346 58.3586C210.388 56.6815 206.276 55.4018 202.071 54.5381C194.22 52.473 186.199 51.1396 178.108 50.5546C168.745 49.8439 159.482 50.3962 150.156 51.2427C144.285 51.9247 138.404 52.5177 132.512 53.0216C129.653 52.3098 126.644 52.5414 123.925 53.6825C122.702 52.6957 120.913 52.2023 119.466 51.8719C118.467 51.6636 117.431 51.5686 116.414 51.4599C112.924 51.478 109.436 51.3543 105.949 51.0887C103.111 50.962 100.282 50.7206 97.4613 50.3645C81.6637 48.7439 65.8213 47.7798 49.9834 49.4592C42.7053 50.2242 35.481 51.4237 28.2701 52.6867L20.0643 54.185C16.6538 55.801 13.3419 56.1088 10.0614 55.1491C9.83416 53.4438 9.75021 51.722 9.81042 50.0023C7.4593 46.1362 5.92439 41.8211 5.30194 37.3277C5.33331 36.703 5.3647 36.0919 5.40503 35.4854C5.79493 35.2364 6.09518 35.0327 6.16688 34.9603C7.598 33.901 8.97386 32.7784 10.2944 31.5924ZM114.196 302.318C115.282 302.77 116.428 303.059 117.597 303.178C118.552 303.36 119.497 303.518 120.447 303.631V303.654C118.69 303.727 116.931 303.583 115.208 303.224C112.139 303.043 108.934 302.993 105.9 303.676C105.057 303.867 104.228 304.122 103.422 304.437C103.516 304.206 103.61 303.984 103.709 303.749L106.142 301.938C108.787 301.104 111.639 301.239 114.196 302.318Z" fill="#EA5A24"/>
</svg>
