<svg width="219" height="310" viewBox="0 0 219 310" fill="none" xmlns="http://www.w3.org/2000/svg">
<path d="M217.847 155.686C216.306 149.107 214.187 142.625 212.768 136.033L212.853 133.486L212.04 135.198C212.058 135.13 212.071 135.061 212.081 134.992C212.53 133.996 212.636 132.881 212.382 131.819C208.857 128.098 207.286 123.281 207.668 117.369C206.807 111.949 205.119 106.692 202.662 101.777L200.804 98.6162C199.327 95.8355 198.075 92.9432 197.058 89.9663C196.34 87.5283 195.65 85.0823 194.988 82.6282C194.952 82.9188 194.915 83.2094 194.874 83.5L194.85 83.4234C194.85 82.6422 194.59 81.8828 194.11 81.2639L194.024 81.0096C194.024 81.058 194.024 81.1065 194.004 81.1549C193.833 81.0379 193.687 80.8926 193.52 80.7513C193.393 80.2883 193.199 79.8463 192.943 79.4395C191.111 78.4434 189.525 77.0566 188.298 75.3789C185.689 72.9637 182.872 70.7785 179.88 68.8481C176.814 66.9214 173.67 65.1239 170.449 63.4555C168.952 62.3365 167.333 61.3875 165.622 60.626C165.744 59.6892 165.771 58.7427 165.704 57.8006C165.651 54.192 165.25 50.5968 164.508 47.0639C164.017 44.7255 163.475 42.3965 162.881 40.077C163.505 39.6342 164.073 39.1193 164.573 38.5431C166.073 37.4663 167.134 35.8908 167.562 34.1031C167.557 33.8042 167.52 33.5065 167.452 33.2152C167.958 32.4525 168.368 31.631 168.672 30.7691C168.743 29.978 168.501 29.1908 167.997 28.5733C168.164 27.9398 168.2 27.2795 168.103 26.6319C168.176 26.4462 168.274 26.2807 168.339 26.095C168.447 25.4726 168.447 24.8365 168.339 24.2141C168.383 23.1958 168.245 22.1777 167.932 21.207C168.339 19.6813 167.932 18.1918 166.891 16.1575C166.548 15.5028 166.168 14.868 165.752 14.2564C165.586 13.768 165.386 13.2473 165.118 12.6419C163.996 10.099 162.052 8.08078 159.815 6.3734C157.813 4.49679 155.443 3.04991 152.853 2.12313C147.837 1.15619 142.753 0.571902 137.647 0.375384C130.972 0.205857 124.297 0.0807271 117.622 0C115.415 0.0905964 113.214 0.300799 111.03 0.62967C109.12 1.19365 107.159 1.56951 105.174 1.75178C104.381 1.84416 103.603 2.03817 102.86 2.32898C101.078 2.80091 99.547 3.93364 98.582 5.49348C98.05 6.54403 97.2239 7.41996 96.2029 8.0162C92.5428 7.55605 88.9885 6.76089 85.3244 6.40166C83.1039 6.2402 80.8794 6.13929 78.6549 6.11104C78.4757 6.15393 78.309 6.2375 78.1679 6.35516C78.0268 6.47283 77.9151 6.62138 77.8416 6.78915C76.5529 8.25973 75.7633 10.0955 75.5845 12.0364C73.604 15.6691 72.9371 19.8145 71.7984 24.0163C70.1717 24.1576 68.545 24.2827 66.8939 24.3634C66.4688 24.5696 66.1181 24.9008 65.8894 25.312C65.4827 25.8125 65.804 27.2212 66.0521 28.0971C65.7593 28.4603 65.8447 29.308 66.0155 30.0829C65.7853 30.2693 65.5886 30.4932 65.4339 30.7449C65.1005 31.1485 65.2753 32.2545 65.5071 33.2071C65.4551 33.8657 65.5198 34.5283 65.6983 35.1647C65.6454 35.2414 65.5844 35.306 65.5397 35.3867C65.2428 35.7903 65.3648 36.7671 65.5803 37.7197C65.5419 38.1654 65.5583 38.614 65.6291 39.0558C65.5557 39.1483 65.4904 39.2468 65.4339 39.3504C64.8199 40.2667 66.109 43.9801 66.2473 44.5169C66.3774 44.9852 66.4954 45.5341 66.6336 46.1032C66.8777 47.3633 67.2037 48.6065 67.6096 49.8248C68.0407 51.3828 68.3457 53.962 69.6145 55.072L69.7691 55.1971C67.6747 56.0528 65.5763 56.8924 63.4738 57.732C62.2744 57.457 61.0361 57.3901 59.8137 57.5342C58.4659 57.7377 57.1409 58.0689 55.8567 58.5231C52.2699 59.8107 49.0205 61.6472 46.8814 64.8198C46.0386 66.1271 45.356 67.5295 44.8481 68.9974C44.0229 69.9546 43.3245 71.0127 42.77 72.1458C42.3877 72.953 42.042 73.7805 41.7045 74.6402C41.2419 75.3598 40.8341 76.1127 40.4845 76.8925C40.4153 77.0015 40.338 77.1065 40.273 77.2154C39.7001 77.9175 39.1847 78.6639 38.7317 79.4475C37.5523 81.5343 37.044 83.6131 36.2672 85.8492C35.157 89.0299 33.5751 92.0692 32.8105 95.3588C32.6131 96.1443 32.4556 96.9391 32.3388 97.7403C31.632 99.8886 31.1229 102.096 30.8178 104.336C29.919 110.523 28.5729 116.659 28.1093 122.915C27.784 127.198 26.8893 131.355 26.076 135.573C25.4334 138.899 25.1569 142.221 24.6038 145.555C24.2825 147.509 23.8962 149.43 23.701 151.4C23.0259 158.084 25.0918 165.067 23.7539 171.694C22.6624 176.833 22.2807 182.095 22.6192 187.335C23.0211 189.567 23.205 191.833 23.1682 194.1C23.3644 196.557 23.0602 199.028 22.2736 201.366C21.7856 203.973 21.3219 206.585 20.8827 209.2C20.6299 209.006 20.3573 208.838 20.0694 208.7C19.696 208.323 19.2875 207.983 18.8494 207.682C16.9177 206.383 16.8689 206.451 14.3759 206.153C13.6927 206.072 13.4121 206.395 13.1925 207.012C11.3706 210.882 9.54737 214.751 7.72276 218.621C7.11275 219.025 7.24288 220.357 7.61702 221.394C7.38634 221.862 7.31226 222.391 7.40555 222.904L7.08428 223.61C6.58 223.969 6.6044 225.269 6.86874 226.524C6.8384 227.012 6.85884 227.502 6.92974 227.985C6.5556 228.502 6.6044 229.911 6.86874 231.315L6.80774 231.465C6.12859 232.026 6.92974 235.501 6.98668 235.8C7.14935 236.7 7.24694 238.827 7.96675 239.679C8.03182 240.022 8.09283 240.316 8.14163 240.53C8.14163 240.902 8.11316 241.265 8.11723 241.644C5.12817 242.702 0.797082 244.191 1.11835 247.941C1.14978 248.142 1.21148 248.336 1.30136 248.518C1.22804 248.755 1.18167 248.998 1.1631 249.245C1.14087 249.312 1.12587 249.381 1.11835 249.451C0.64 249.958 0.362698 250.621 0.337547 251.315C0.356694 251.764 0.452962 252.207 0.622212 252.623C0.527452 252.91 0.475402 253.209 0.467686 253.511C0.565287 253.709 0.683214 253.891 0.78895 254.084C0.305007 254.892 0.264344 255.42 0.565284 256.103C0.520549 256.203 0.463612 256.292 0.422945 256.401C0.362347 256.523 0.340027 256.66 0.358881 256.795C0.377734 256.929 0.436895 257.055 0.528684 257.156C0.318281 257.451 0.140993 257.768 0 258.101L0.0365992 258.682C0.512408 259.574 0.992284 260.773 1.57383 261.83C1.51283 261.931 1.43963 262.016 1.38676 262.121L1.45996 262.726C2.36278 264.159 3.28187 266.323 4.54663 267.465C4.97229 267.834 5.4613 268.124 5.99032 268.321C6.11867 268.462 6.25442 268.597 6.39699 268.724C7.75122 269.935 10.0571 270.157 11.757 270.601C13.9489 271.182 16.149 271.731 18.3817 272.139C23.1886 273.015 31.8385 272.042 34.4169 271.957L36.377 272.47C36.7534 272.567 37.1494 272.561 37.5225 272.452C37.8957 272.344 38.2321 272.136 38.4958 271.852C40.6159 270.407 42.6737 268.879 44.6691 267.267C46.7025 265.701 48.6695 264.058 50.57 262.339C50.9072 262.148 51.1864 261.87 51.3781 261.535C51.5699 261.199 51.6672 260.819 51.6599 260.434C51.868 259.741 51.8955 259.007 51.7397 258.301C51.5839 257.595 51.25 256.94 50.7692 256.397C50.6214 256.215 50.4856 256.024 50.3626 255.824C50.248 255.223 50.0114 254.652 49.6672 254.145C49.5856 253.784 49.5393 253.417 49.5289 253.047V250.504C49.7038 249.447 49.8949 248.397 50.082 247.34C51.4118 250.448 51.9608 252.3 54.4456 254.496C56.6945 257.237 59.7324 258.976 62.9857 260.317C62.8353 260.639 63.2623 261.091 63.8438 261.527C63.5998 261.58 63.364 261.649 63.12 261.697C62.0301 261.959 62.6075 262.637 63.5063 263.283C63.2948 263.574 63.6486 263.994 64.1936 264.417C63.6486 264.7 64.0187 265.225 64.6816 265.717C63.6405 266.121 64.9907 267.098 66.3083 267.844C66.9752 268.845 70.2083 270.294 69.9968 270.181C72.4369 271.403 74.9054 272.557 77.4024 273.645C78.6619 274.341 80.041 274.798 81.4691 274.993C81.6928 274.916 81.8758 274.831 82.0832 274.742C83.7749 273.98 84.4134 272.833 85.5399 270.968C87.0893 268.405 91.148 270.25 93.6287 269.971C94.865 269.821 96.1053 269.709 97.3497 269.636C99.2138 269.268 101.142 269.38 102.95 269.963C106.997 270.693 111.087 271.163 115.195 271.372C123.039 271.739 131.1 271.215 138.924 270.617C142.985 270.275 147.006 269.574 150.941 268.522L151.401 268.688C152.405 269.697 152.755 270.089 153.304 270.274C153.172 270.864 153.18 271.476 153.329 272.062C153.287 272.311 153.26 272.561 153.247 272.813C153.247 272.841 153.272 272.866 153.28 272.89C153.079 273.342 152.98 273.833 152.991 274.327C153.056 275.219 153.495 275.84 154.028 276.563C154.093 276.712 154.167 276.856 154.252 276.995C154.349 278.117 155.244 279.304 156.017 280.284C156.277 281.74 156.944 283.093 157.94 284.192C160.213 287.469 162.784 289.572 165.797 292.636C166.204 292.817 166.61 293.015 166.985 293.217C167.2 293.427 167.391 293.62 167.631 293.847C168.014 294.004 168.363 294.177 168.713 294.351C169.235 294.756 169.711 295.216 170.132 295.723C170.22 296.13 170.283 296.541 170.319 296.954C170.621 298.62 171.211 300.22 172.064 301.685C172.208 302.481 172.466 303.253 172.829 303.978C173.483 305.665 173.723 308.075 175.378 308.938C175.567 308.93 175.755 308.907 175.94 308.87C176.186 309.336 176.556 309.727 177.009 310C177.567 309.981 178.115 309.848 178.618 309.61C179.122 309.372 179.571 309.033 179.937 308.616C183.058 306.221 186.112 303.749 189.1 301.201C192.131 298.69 195.091 296.107 197.981 293.451C198.456 293.159 198.865 292.775 199.184 292.321C199.504 291.867 199.727 291.353 199.84 290.811C199.543 289.326 199.149 288.038 199.584 286.577C200.279 284.24 200.926 281.891 201.434 279.505C202.3 275.441 204.342 271.836 204.948 267.687C205.387 264.692 204.671 262.755 205.432 259.986C206.814 254.944 208.103 250 209.116 244.865C210.613 237.257 212.443 229.64 213.797 222.008C214.545 217.798 215.102 213.559 215.786 209.337C216.444 205.269 218.165 201.935 217.689 197.68C217.075 192.167 218.181 186.431 218.433 180.909C218.795 172.594 219.763 163.884 217.847 155.686ZM74.336 53.3525L74.2994 53.0781L74.3645 53.1023C74.4942 53.1523 74.632 53.1783 74.7712 53.179L74.336 53.3525ZM170.848 230.738C170.966 229.124 171.035 227.327 171.116 225.491C171.202 224.873 171.283 224.256 171.381 223.638C171.552 229.204 171.897 234.754 171.897 240.324C172.306 244.024 172.306 247.757 171.897 251.457C171.538 251.703 171.166 251.931 170.783 252.139C170.695 251.065 170.669 249.987 170.706 248.91C170.413 246.036 170.258 243.166 170.222 240.292C170.36 237.16 170.604 234.028 170.848 230.738ZM180.946 260.466C180.153 262.223 179.623 264.086 179.372 265.996L179.335 266.605C179.334 266.619 179.334 266.632 179.335 266.646C179.311 266.759 179.295 266.876 179.274 266.989C179.16 267.267 179.059 267.55 178.941 267.828C178.729 268.744 178.534 269.669 178.384 270.593C178.445 270.859 178.485 271.126 178.538 271.4C178.433 271.804 178.315 272.208 178.229 272.611C177.957 273.36 177.957 274.18 178.229 274.928C177.66 276.821 177.009 278.585 176.452 280.377C175.537 279.184 174.411 278.165 173.129 277.37C171.893 276.412 170.498 275.676 169.006 275.195C171.369 272.773 174.13 270.266 176.021 267.481C178.14 264.357 179.461 260.543 180.978 257.031C181.748 255.433 182.502 253.827 183.239 252.216C182.987 253.426 182.715 254.637 182.426 255.848C182.028 257.402 181.531 258.944 180.946 260.466ZM187.359 233.652C187.383 233.551 187.412 233.455 187.436 233.354C187.412 233.463 187.387 233.568 187.359 233.677V233.652ZM75.1169 50.1396C74.9542 49.3969 74.7712 48.6582 74.58 47.9236C74.5891 47.6537 74.5742 47.3836 74.5353 47.1163C75.3161 43.8146 76.1376 40.525 76.9997 37.2475C77.3698 35.7702 77.7887 34.3413 78.1954 32.9245C83.0336 29.6523 88.5955 27.5865 94.4095 26.9023C95.818 26.4971 97.2005 26.0078 98.5494 25.4371C99.5209 25.0878 100.471 24.6835 101.396 24.2262C102.869 22.4152 104.674 20.8977 106.715 19.7539C108.704 19.4391 110.689 19.1041 112.669 18.7327C117.253 17.7193 121.993 17.6123 126.618 18.4179L136.342 18.9789C141.05 19.1818 145.729 19.8086 150.323 20.8518L150.482 21.8125C150.714 24.0123 150.888 26.2121 151.039 28.4119C150.787 29.3871 150.594 30.3765 150.461 31.3746C150.01 33.3726 149.624 35.3827 149.339 37.4049C149.111 39.1445 149.012 40.8982 149.042 42.6521C149.001 43.0235 148.965 43.3989 148.94 43.7783C148.929 43.8059 148.92 43.8342 148.912 43.863C148.355 47.4221 148.318 51.0423 148.802 54.6119C148.696 57.7898 148.627 60.9651 148.595 64.1377C148.64 64.7875 148.66 65.4293 148.664 66.0711C148.664 66.1276 148.664 66.1801 148.664 66.2325C148.664 66.4343 148.664 66.6362 148.664 66.8339C148.444 67.7291 148.163 68.6084 147.822 69.4656C147.281 70.7815 146.744 71.7744 147.054 73.0176C146.826 73.6299 146.739 74.2851 146.801 74.9349C146.484 75.8068 146.151 76.8037 146.395 77.7603L146.419 77.9783C146.248 78.4142 146.077 78.8542 145.886 79.2901C145.9 80.1041 145.992 80.915 146.159 81.7119C146.297 81.7684 146.435 81.8128 146.566 81.8694C146.61 82.2367 146.667 82.5999 146.749 82.9632L146.842 82.9995L146.789 83.0924C146.691 83.9704 146.767 84.859 147.013 85.7079C147.468 85.9097 147.932 86.1116 148.391 86.2932C148.417 86.4806 148.452 86.6665 148.497 86.8502C152.914 88.9855 157.516 90.7215 162.247 92.0369C167.545 94.0557 172.698 96.4291 177.672 99.1409C180.619 100.826 183.35 102.859 185.806 105.195C185.919 105.317 186.037 105.43 186.151 105.547L187.806 113.837C187.747 116.84 188.215 119.83 189.189 122.673C189.222 122.774 189.246 122.854 189.279 122.951C189.803 126.27 190.826 129.492 192.312 132.509C192.605 134.124 192.913 135.745 193.235 137.373C194.049 141.983 194.998 146.568 196.082 151.129C196.05 151.532 196.05 151.937 196.082 152.34C196.082 152.401 196.037 152.453 196.025 152.514C195.944 152.937 195.899 153.366 195.891 153.797C195.723 154.238 195.587 154.689 195.484 155.149C195.376 156.383 195.492 157.626 195.826 158.818C195.773 158.976 195.712 159.129 195.659 159.287C195.659 159.396 195.7 159.497 195.72 159.605C195.529 160.106 195.314 160.607 195.143 161.111C195.183 161.932 195.369 162.74 195.692 163.497C196.208 165.264 196.627 167.065 197.022 168.869C197.03 169.475 197.096 170.079 197.221 170.673L197.428 171.638C197.392 171.719 197.339 171.795 197.306 171.88C196.924 173.091 197.123 173.826 197.501 174.867L197.424 174.968C197.465 174.968 197.506 174.968 197.546 174.996C197.672 175.339 197.811 175.719 197.953 176.159C197.924 176.296 197.892 176.437 197.867 176.562C197.245 178.984 197.331 181.709 197.501 184.231C197.359 184.865 197.217 185.499 197.095 186.132C196.94 186.988 196.83 187.84 196.737 188.695L196.408 190.249C196.432 190.528 196.408 190.798 196.44 191.057C196.286 191.84 196.127 192.619 195.989 193.406L195.468 198.956C195.395 199.23 195.338 199.505 195.257 199.763C194.85 201.119 194.191 202.698 194.24 204.135C194.115 204.583 194.027 205.04 193.976 205.503C193.724 206.291 193.555 207.102 193.471 207.925C193.447 208.335 193.456 208.747 193.496 209.156C192.964 210.371 192.624 211.66 192.487 212.978L192.414 213.18C191.691 214.077 191.149 215.103 190.816 216.203C190.707 216.922 190.595 217.642 190.478 218.363C190.231 219.155 190.043 219.965 189.913 220.784C189.422 222.434 189.166 224.143 189.152 225.862C188.957 226.968 188.717 228.066 188.481 229.164C188.323 229.822 188.189 230.484 188.01 231.142C187.831 231.8 187.717 232.389 187.566 233.015C187.676 232.506 187.774 231.989 187.851 231.469C188.049 227.339 187.929 223.201 187.493 219.089C187.18 211.703 186.529 204.288 186.879 196.889C187.127 195.42 187.469 193.939 187.473 192.449C187.513 191.865 187.479 191.278 187.371 190.702C187.55 188.913 187.778 187.133 188.091 185.361C188.546 183.843 188.609 182.236 188.274 180.687C188.121 179.953 187.859 179.246 187.497 178.588C187.403 178.284 187.285 177.987 187.143 177.7C187.107 177.527 187.078 177.349 187.026 177.172C186.477 175.331 185.659 174.391 184.585 173.785C183.463 172.574 181.906 172.219 179.852 171.597C178.603 171.222 177.818 172.97 177.379 173.813C175.875 176.607 173.622 180.175 172.458 183.097L169.087 196.558C168.403 199.92 167.424 203.215 166.159 206.407C165.029 209.135 164.3 212.01 163.992 214.944C163.236 217.756 162.88 220.659 162.934 223.57C162.156 229.164 161.26 234.741 160.246 240.3C159.896 242.318 159.006 247.897 158.087 252.203C156.008 251.562 153.91 250.993 151.783 250.553C149.424 249.996 147.055 249.488 144.674 249.031C141.786 248.397 138.849 248.009 135.894 247.872C127.903 247.384 119.798 247.271 111.779 247.13C107.019 247.608 102.212 247.151 97.6303 245.786C94.9355 245.011 92.2677 244.151 89.627 243.206C87.8661 242.597 85.8246 241.681 83.901 241.689C82.9509 242.062 81.9417 242.266 80.9201 242.29L79.1104 241.822C78.8636 241.764 78.6205 241.691 78.3825 241.604C78.3011 241.164 78.1443 240.74 77.9188 240.353C77.9188 240.324 77.87 240.308 77.8538 240.28C77.7717 239.848 77.603 239.436 77.3576 239.069C77.3215 238.32 77.1039 237.59 76.7232 236.942C76.497 236.606 76.193 236.33 75.8367 236.135C75.797 236.033 75.7523 235.933 75.7025 235.836C74.5516 233.794 65.621 232.417 66.2025 232.583L59.5005 230.565C60.3869 228.408 61.1553 226.204 61.8023 223.965C62.7946 220.405 64.5718 217.103 65.0557 213.43C65.0801 212.938 64.8809 212.744 64.4864 212.805C64.6677 212.078 64.8035 211.34 64.8931 210.597C64.8939 210.483 64.8746 210.369 64.8361 210.262C65.0073 209.629 65.143 208.988 65.2428 208.34C65.2469 208.251 65.2329 208.162 65.2014 208.078C65.17 207.994 65.1218 207.917 65.0598 207.852C65.1696 207.38 65.2631 206.883 65.3404 206.351C65.3308 206.252 65.3076 206.156 65.2713 206.064C65.5681 205.112 65.7897 204.139 65.9341 203.154C65.9305 203.073 65.9108 202.995 65.8762 202.922C65.8417 202.849 65.7928 202.784 65.7327 202.731C65.6725 202.677 65.6021 202.636 65.5257 202.609C65.4493 202.583 65.3683 202.572 65.2875 202.576C65.3282 202.359 65.3892 202.173 65.4217 201.935C65.4062 201.767 65.3245 201.611 65.1943 201.502C65.0641 201.394 64.896 201.34 64.7263 201.354C64.771 201.119 64.8239 200.889 64.8565 200.651C64.9215 200.219 64.8931 199.323 64.1326 199.44L63.8642 199.477C63.8642 199.033 63.6974 198.455 63.1037 198.54C58.5083 199.182 58.7238 198.137 57.0036 200.034C55.1952 203.303 53.3882 206.572 51.5826 209.842C50.7692 211.683 50.0169 213.554 49.3256 215.457C47.6582 219.539 46.06 223.645 44.5309 227.775C43.0506 231.849 41.4659 235.886 39.7768 239.885C39.3837 241.65 38.9865 243.412 38.5853 245.172C38.5853 245.277 38.5853 245.378 38.6056 245.483L37.5076 250C37.5483 250.484 37.5523 250.964 37.5686 251.449L37.5198 251.642C37.5198 251.764 37.5198 251.885 37.5198 252.006L37.227 253.144C34.1995 254.005 31.0297 254.26 27.9019 253.895C24.3744 254.291 20.8136 254.302 17.2837 253.927C17.548 252.809 17.8245 251.691 18.097 250.573C18.2231 250.141 18.3614 249.713 18.5037 249.281C18.8404 248.427 19.1122 247.548 19.317 246.653C19.6464 245.584 19.9474 244.51 20.2931 243.445C20.7282 242.08 21.9726 239.408 21.8425 237.862C21.7899 237.381 21.6165 236.92 21.3382 236.522C21.4128 236.213 21.4658 235.898 21.4968 235.582C21.5206 235.296 21.5206 235.008 21.4968 234.722C23.7498 234.892 26.0028 235.033 28.2517 235.178C28.5852 235.202 32.0663 235.816 32.595 234.722C33.3103 234.02 33.7574 233.092 33.8597 232.098C34.0697 232.013 34.2465 231.863 34.364 231.671C35.0173 230.967 35.4798 230.11 35.7082 229.18C35.9365 228.25 35.9232 227.278 35.6694 226.355C35.6288 225.826 35.5922 225.293 35.5515 224.764C35.584 224.684 35.6328 224.607 35.6654 224.526C35.7253 223.13 35.6394 221.731 35.4092 220.353C35.6957 219.588 35.7228 218.752 35.4864 217.971C35.4295 215.498 35.4132 213.035 35.4376 210.581L37.3653 197.616C38.2504 195.375 38.8687 193.04 39.2075 190.657C39.949 188.355 40.0889 185.904 39.6142 183.533C39.7158 182.802 39.7931 182.072 39.8297 181.337C39.8297 180.986 39.8297 180.647 39.8297 180.308C39.8297 179.969 39.9395 179.723 39.9883 179.428C40.8017 174.104 38.992 168.857 38.3413 163.601C38.4714 163.198 38.6056 162.766 38.7479 162.354C39.5156 161.13 39.937 159.723 39.968 158.282C40.0005 157.714 39.9759 157.145 39.8948 156.582C39.8256 156.389 39.785 156.179 39.7199 155.997C39.7199 155.864 39.7524 155.731 39.7606 155.593V155.484C39.9293 154.919 40.0504 154.342 40.1225 153.757C40.1697 153.175 40.1697 152.591 40.1225 152.009C40.1225 151.872 40.1428 151.743 40.151 151.605C40.5739 150.489 40.7969 149.307 40.8098 148.114C40.6878 144.606 40.0656 141.087 39.846 137.575C39.7931 136.768 39.7402 135.94 39.6955 135.153C39.846 134.729 39.972 134.302 40.1469 133.886C40.475 131.59 40.8816 129.303 41.3669 127.024L42.8757 121.058C43.6941 118.923 44.1796 116.675 44.3153 114.394C44.4007 112.312 44.4739 110.229 44.5471 108.15C45.0441 106.58 45.3259 104.951 45.3849 103.306C46.1332 99.0723 46.8814 94.8301 47.6826 90.6161C48.3196 88.4921 49.2517 86.4666 50.452 84.5979C51.3595 83.028 52.1651 81.402 52.8636 79.7301C53.2718 79.1555 53.7173 78.6081 54.1975 78.0913C54.6652 77.8411 55.1329 77.5908 55.5965 77.3365C63.2379 76.4122 65.8569 76.1619 73.8968 73.4172L80.2938 71.1569C85.0926 69.4078 89.9564 67.8578 94.8853 66.507L96.9431 66.5675C97.7564 66.4828 97.9232 66.2688 97.4189 65.9217C97.305 65.6311 96.7194 65.3364 95.9549 65.066C95.9955 64.9651 95.9305 64.84 95.723 64.6906C95.6951 64.6271 95.6551 64.5695 95.6051 64.5211L97.1423 64.5453C97.8988 64.4485 98.0479 64.2318 97.5897 63.8955C97.5014 63.721 97.3587 63.5795 97.183 63.4918L98.765 63.512C99.5132 63.4151 99.6637 63.1972 99.2083 62.8622C99.0984 62.5635 98.5332 62.2729 97.8012 62.0105C97.8661 61.9462 97.909 61.8632 97.9236 61.7733C97.9382 61.6834 97.9238 61.5913 97.8825 61.51C97.7704 61.3011 97.5916 61.135 97.3741 61.0377C98.1224 61.0942 99.5865 61.2315 99.2896 60.3516C99.2001 60.0973 98.8138 59.8551 98.2932 59.6331C98.3512 59.5856 98.3984 59.5265 98.4315 59.4595C98.4515 59.4201 98.4619 59.3765 98.4619 59.3324C98.4619 59.2882 98.4515 59.2447 98.4315 59.2052C99.0009 59.2052 99.7207 59.1649 99.924 58.7491C100.127 58.3334 99.3343 57.9418 98.4844 57.6593C98.5025 57.6015 98.5025 57.5395 98.4844 57.4817C98.6947 57.4869 98.903 57.4397 99.0903 57.3445C99.9037 56.8036 99.1676 56.2789 98.0045 55.8389C98.2648 55.1648 96.6503 54.7047 95.8979 54.515L95.9671 54.4908C96.6381 54.5675 97.305 54.6401 97.9801 54.6926C98.3868 54.7249 99.2814 54.6442 99.4604 54.1517C99.6393 53.6593 99.0008 53.3444 98.3705 53.1103C98.4215 53.0651 98.463 53.0102 98.4925 52.9489C98.7568 52.1658 97.0163 51.7703 96.6218 51.6532L96.5567 51.633C97.5653 51.516 97.2033 50.5109 96.5567 50.0387C96.2517 49.9257 95.9386 49.8369 95.6295 49.74C95.5472 49.4791 95.3921 49.2468 95.1822 49.0699C94.1045 48.2021 91.1154 47.859 89.7693 47.9842C85.3935 48.412 81.16 50.6562 77.0648 52.2546L75.2104 53.0054C75.7025 52.412 75.1982 50.5755 75.1128 50.1396H75.1169Z" fill="#82B8E2"/>
</svg>
