<svg width="181" height="320" viewBox="0 0 181 320" fill="none" xmlns="http://www.w3.org/2000/svg">
<path d="M180.517 120.64C180.517 120.64 180.517 120.616 180.517 120.608L179.542 121.876C179.542 121.817 179.566 121.753 179.574 121.693L179.606 121.641C179.809 121.379 179.976 121.09 180.101 120.783C180.419 120.271 180.612 119.692 180.664 119.092C180.593 110.395 180.892 113.798 179.925 108.551C178.032 98.2504 174.849 87.8896 171.869 77.9357C170.076 71.9514 168.35 65.9153 166.477 59.935C165.331 56.1689 164.144 52.4227 162.822 48.7643C161.225 44.3758 159.555 40.0073 157.845 35.6507L157.642 35.1121C157.614 35.0244 157.586 34.9366 157.562 34.8488C157.21 33.3408 156.841 31.8367 156.455 30.3367C157.45 29.6771 158.509 29.1185 159.615 28.6691C159.659 28.6451 159.615 28.5055 159.487 28.302C159.683 28.2182 159.886 28.1225 160.082 28.0467C160.154 28.0108 160.006 27.7235 159.723 27.3006C159.862 27.2408 159.998 27.177 160.142 27.1251L160.214 27.0932C160.31 27.0453 160.09 26.6543 159.703 26.0838C159.894 26.1277 160.102 26.1517 160.282 26.1955L159.703 25.6051C159.76 25.5204 159.804 25.4276 159.835 25.3298C160.032 25.1868 160.183 24.9882 160.267 24.7594C160.35 24.5305 160.364 24.2819 160.306 24.0452C160.288 23.9841 160.267 23.9242 160.242 23.8657C160.242 23.8337 160.274 23.8058 160.286 23.7739C160.42 23.6141 160.518 23.4274 160.574 23.2264C160.63 23.0255 160.642 22.815 160.609 22.609C160.673 22.2539 160.434 21.7632 160.046 21.2246C159.998 20.7306 159.781 20.2683 159.431 19.916C159.29 19.6137 159.103 19.3351 158.876 19.0902C158.899 18.925 158.909 18.7583 158.908 18.5915C158.968 18.0489 157.23 16.4412 157.082 16.2856C156.559 15.731 155.665 14.4424 154.882 14.3267C154.538 14.2709 154.195 14.2349 153.851 14.1871L153.779 14.1312L153.536 14.1073C153.512 14.1073 153.492 14.0674 153.464 14.0514L153.156 14.0195C152.821 13.753 152.426 13.5722 152.006 13.4929C151.355 13.4051 150.704 13.3413 150.049 13.2814C150.001 13.2814 149.961 13.2376 149.913 13.2296C149.669 13.2017 149.426 13.1897 149.182 13.1657C148.874 12.8228 148.495 12.5506 148.071 12.3678H147.337C147.177 12.2484 147.007 12.143 146.829 12.0527C146.582 12.0846 146.334 12.0766 146.086 12.0886C145.923 11.9672 145.753 11.8565 145.575 11.7574C144.65 11.9335 143.7 11.9226 142.779 11.7255C137.472 11.5925 132.162 11.5247 126.85 11.5221C113.802 11.413 100.754 11.3279 87.7066 11.2667C87.5309 11.1796 87.3301 11.157 87.1395 11.2029L87.0675 11.2348C86.989 11.2138 86.9064 11.2138 86.8279 11.2348H86.8039H86.3086C85.3423 11.0369 84.3591 10.9327 83.3728 10.9236C80.71 10.671 78.0565 10.3824 75.4123 10.0579C68.2227 9.17622 61.0051 8.18283 54.0512 6.10429C52.9068 5.38433 51.8364 4.55313 50.8558 3.6228C50.7479 3.3954 50.6441 3.168 50.5482 2.92863C50.2442 2.02312 49.6733 1.23048 48.9105 0.654589C48.8307 0.498998 48.7668 0.343411 48.6789 0.191809C48.5999 0.100474 48.4931 0.0374165 48.3749 0.0122142C48.2567 -0.0129881 48.1334 0.00103981 48.0238 0.0521728C46.4581 0.41522 44.6048 1.06152 43.3306 2.04694C42.7819 2.53779 42.3623 3.15561 42.1084 3.84621C41.8814 4.07461 41.7022 4.34585 41.5812 4.64412C41.5043 4.70086 41.431 4.76215 41.3615 4.82764C41.0419 4.99759 40.7583 5.22793 40.5266 5.50586C40.3908 5.80507 40.2391 6.09232 40.0953 6.39153C39.9196 6.51521 39.7398 6.6309 39.5721 6.79048C39.4482 7.06975 39.3045 7.34104 39.1726 7.62031C39.0288 7.87165 38.893 8.12299 38.7492 8.37433C38.5686 8.46873 38.3962 8.57817 38.234 8.70147C37.8526 8.92059 37.557 9.26233 37.3952 9.67092L37.2634 9.93423L37.2274 9.95817C36.8235 10.4096 36.4675 10.9016 36.165 11.4263C35.8256 11.5775 35.5401 11.8279 35.3461 12.1444L35.2104 12.4556C34.8837 12.6124 34.6071 12.8569 34.4115 13.1618C33.1054 17.7058 30.3654 22.1222 28.4202 26.3272C26.8225 29.834 25.2568 33.3767 23.731 36.9194C15.6346 55.73 9.82697 75.4104 4.09923 95.0348C2.5255 100.441 0.50442 105.866 0.104996 111.52C-0.486151 120.021 1.41511 129.145 5.90463 136.47C6.51975 137.479 7.19877 138.437 7.90175 139.374C9.50338 141.594 11.313 143.657 13.306 145.534C16.6811 148.694 20.4237 150.689 24.5657 152.632C38.6014 159.214 52.4734 166.144 66.3933 172.978C69.369 174.434 72.4726 176.405 75.66 177.451C76.5627 177.746 77.5013 178.053 78.412 178.428C78.3401 178.979 78.2882 179.537 78.2563 180.1C78.2004 180.538 78.1484 180.981 78.1044 181.408C78.1604 184.866 78.1164 188.323 77.9726 191.781L78.0924 198.627C78.1324 201.045 78.179 203.461 78.2323 205.876C78.2323 206.343 78.2323 206.805 78.2523 207.268C78.6317 224.292 78.5198 241.323 78.4919 258.334C78.4599 263.808 78.5012 269.28 78.6157 274.751C78.2642 276.464 78.4027 278.24 79.0151 279.878C79.087 280.396 79.1789 280.907 79.2987 281.402C78.8114 281.9 78.3121 282.391 77.8009 282.862H76.7703H76.0554C74.3938 282.862 72.7361 282.838 71.0745 282.786L69.7405 282.846L50.1168 282.774C49.1103 282.686 48.1197 282.579 47.1091 282.471C46.6738 282.423 46.2385 282.371 45.7991 282.339C44.1109 282.148 42.4239 281.944 40.7383 281.729C38.7412 281.477 36.3727 280.879 34.3157 280.739C29.7543 280.428 24.4818 282.12 22.5007 286.504C22.4477 286.864 22.5196 287.232 22.7044 287.546C22.6685 287.621 22.6165 287.681 22.5846 287.757C22.5417 287.928 22.5501 288.109 22.6086 288.276C22.5367 288.411 22.4488 288.535 22.3849 288.675C22.3222 288.856 22.2973 289.048 22.3117 289.24C22.3261 289.431 22.3795 289.618 22.4687 289.788C22.4157 290.063 22.442 290.348 22.5446 290.609C22.5206 290.661 22.4847 290.701 22.4607 290.753C22.3465 291.088 22.3622 291.454 22.5047 291.778C22.4628 292.145 22.5266 292.516 22.6884 292.848C22.6868 293.045 22.7151 293.241 22.7723 293.43C22.7206 293.861 22.7999 294.297 23 294.683C23 294.755 23 294.818 23.04 294.894C22.8243 296.091 24.4419 298.086 24.9332 298.98C25.6043 300.222 26.2952 301.45 27.0062 302.666C27.4459 303.545 27.9932 304.367 28.6358 305.111L29.0792 305.431C29.247 305.654 29.4027 305.885 29.5825 306.097C31.7398 307.749 34.0862 309.139 36.5724 310.238C39.1567 311.331 44.3651 312.632 47.0373 313.17C56.7193 315.165 66.5412 315.855 76.331 317.004L75.4443 316.254C75.9881 316.577 76.554 316.861 77.1379 317.104C85.052 317.671 92.9948 317.722 100.916 317.256C103.136 317.053 105.364 316.92 107.598 316.857C113.937 316.498 120.253 315.816 126.523 314.814C131.823 316.011 137.023 317.307 142.1 319.342C144.005 320.104 145.659 320.116 147.692 319.821C150.089 319.474 151.562 318.057 153.132 316.302C153.132 316.226 153.132 316.15 153.132 316.075L153.532 315.62C153.567 315.33 153.567 315.036 153.532 314.746L153.647 314.618C153.775 313.952 153.684 313.262 153.388 312.652V312.608C153.436 312.548 153.488 312.5 153.536 312.44C153.62 312.19 153.653 311.925 153.634 311.661C153.615 311.397 153.543 311.14 153.424 310.904C153.352 310.657 153.268 310.417 153.196 310.17C153.288 309.867 153.4 309.528 153.54 309.129C153.771 308.479 153.54 307.653 153.208 306.847C153.036 306.153 152.798 305.477 152.497 304.828C152.318 304.202 152.107 303.586 151.866 302.981C151.657 302.419 151.403 301.875 151.107 301.353C150.792 300.5 150.404 299.674 149.909 299.327C149.753 299.047 149.597 298.764 149.418 298.501C149.098 298.277 148.771 298.07 148.443 297.858C148.279 297.53 148.057 297.234 147.788 296.985C147.664 296.893 147.54 296.821 147.416 296.729C147.316 296.573 147.204 296.425 147.081 296.287C146.829 296.115 146.57 295.963 146.314 295.804C146.274 295.756 146.25 295.7 146.206 295.656C136.276 289.528 124.937 288.292 113.561 286.409C110.55 285.91 107.151 285.639 104.291 284.537C102.717 283.931 101.351 283.456 100.544 282.02C100.544 281.781 100.544 281.541 100.544 281.302C99.5619 280.64 98.708 279.806 98.0237 278.84C98.1666 278.466 98.2892 278.083 98.3912 277.695C98.6254 276.745 98.7593 275.773 98.7906 274.795C98.8385 274.556 98.9104 274.316 98.9503 274.073C98.9903 273.83 98.9863 273.59 99.0023 273.347C99.306 272.091 99.427 270.799 99.3617 269.509C99.2419 268.356 99.1261 267.199 99.0063 266.046C99.294 262.147 99.2419 258.231 98.8505 254.341C97.76 239.883 98.0118 225.269 97.7282 210.775C97.7282 201.466 97.4832 192.179 96.9932 182.912C96.9932 182.585 96.9532 182.258 96.9372 181.931C97.378 181.421 97.8922 180.98 98.4631 180.622C100.736 179.122 103.496 178.58 105.904 177.307C108.818 175.807 111.807 174.458 114.859 173.266C122.976 169.388 131.139 165.61 139.348 161.931C147.161 158.568 155.748 155.508 162.834 150.649C166.833 147.9 170.285 144.431 173.012 140.42C177.257 134.356 179.996 127.369 181 120.037L180.517 120.64ZM46.6858 292.656H46.9454L47.277 292.6L49.5656 292.409L61.3726 292.133L74.0023 291.914L83.4288 292.616C83.7523 293.015 84.0998 293.414 84.4832 293.837C86.0175 295.532 87.7079 297.078 89.532 298.457C90.2435 299.038 90.9979 299.565 91.7887 300.033C93.0116 300.878 94.3593 301.527 95.7829 301.956L96.1544 302.442L97.0092 303.552C95.1279 303.364 93.2506 303.153 91.4173 302.778C84.3155 301.417 74.4458 301.672 68.1628 301.633C67.6476 301.233 67.0701 300.92 66.4533 300.707L66.1816 300.643C66.0534 300.582 65.9197 300.532 65.7822 300.496C65.0313 300.348 64.2924 300.172 63.5575 299.973C63.1141 299.845 62.6707 299.71 62.2313 299.574C61.792 299.438 61.4605 299.343 61.0851 299.207C57.405 298.465 53.7037 297.854 49.9811 297.376C45.722 296.689 41.5063 295.757 37.3552 294.583L42.8273 292.987L46.6858 292.656ZM119.433 306.221C119.712 306.248 119.988 306.296 120.268 306.328C118.73 306.228 117.196 306.081 115.662 305.929C116.924 306.013 118.183 306.105 119.433 306.228V306.221ZM7.01504 118.529C6.56086 117.603 6.19058 116.637 5.90863 115.645C5.61377 114.368 5.3964 113.074 5.25762 111.771C5.23365 111.284 5.20566 110.805 5.22563 110.315C5.19368 109.082 5.22561 107.889 5.3015 106.7C5.39736 106.09 5.50123 105.463 5.62106 104.821C6.22818 103.297 6.80996 101.764 7.36649 100.221C7.67804 99.5271 8.00963 98.8448 8.34116 98.1587C10.3942 94.4284 10.9534 92.9723 13.5017 86.3576C19.0936 71.8756 23.4873 56.9987 29.7822 42.776L35.8734 29.463C37.6548 26.1144 39.5614 22.8417 41.5932 19.6447C42.5997 18.009 43.6262 16.3973 44.6327 14.7735L53.8874 15.356C59.8388 16.3188 65.7503 17.4944 71.6218 18.8827C74.9051 19.5157 78.195 20.1222 81.4915 20.702C82.8855 20.9134 84.2636 21.1807 85.6296 21.4999C86.7121 22.5611 87.7825 23.6343 88.8849 24.6716C89.1693 25.0166 89.5128 25.3084 89.8994 25.5333C90.3389 26.0157 90.8864 26.3876 91.4971 26.6184H111.352C111.68 26.79 112.004 26.9655 112.343 27.1092C119.799 27.024 127.264 27.024 134.739 27.1092C139.867 27.1703 144.999 27.1982 150.133 27.1929C150.372 27.161 150.608 27.157 150.844 27.1291C151.007 27.5719 151.167 28.0188 151.327 28.4616C153.308 34.789 155.092 41.1722 156.679 47.6113C157.166 50.005 157.588 52.4067 157.945 54.8164C158.129 57.0984 158.373 59.3725 158.676 61.6385C158.816 63.2782 159.02 64.9099 159.307 66.5297C159.928 71.6824 161.06 76.7608 162.686 81.6899C163.752 86.6662 164.817 91.6411 165.882 96.6147C166.213 97.8674 166.505 99.1281 166.816 100.385C167.615 103.967 168.403 107.55 169.181 111.133C169.297 111.739 169.393 112.349 169.501 112.956C169.604 114.153 169.68 115.322 169.708 116.514C169.728 116.562 169.744 116.614 169.76 116.666C169.76 116.794 169.78 116.925 169.784 117.065C169.928 117.464 170.052 117.831 170.16 118.21C170.16 119.918 170.1 121.633 169.98 123.353C169.796 124.091 169.644 124.829 169.509 125.575C169.238 125.964 168.998 126.375 168.794 126.803C168.156 128.889 167.135 130.837 165.782 132.548L134.084 148.842C126.06 151.333 118.179 154.263 110.478 157.619L99.218 162.33C97.7202 162.917 95.5074 163.846 93.2267 164.688C92.9491 164.306 92.6462 163.944 92.32 163.603C89.7785 161.656 86.9485 160.118 83.9321 159.043H83.4887L83.3449 158.983C81.0359 158.976 78.7323 158.758 76.4629 158.333C72.7642 156.383 68.9883 154.595 65.1352 152.967C51.8863 146.895 38.9969 140.077 25.76 133.985C21.5046 132.508 17.49 130.413 13.8452 127.769C10.9773 125.395 8.67881 122.41 7.1189 119.032C7.10691 118.888 7.05099 118.721 7.01504 118.529Z" fill="#EA5A24"/>
</svg>
